<svg width="1671.094" height="856.393" xmlns="http://www.w3.org/2000/svg" xmlns:usvg="https://github.com/RazrFalcon/usvg" usvg:version="0.8.0"><path fill="#3e73c5" fill-opacity=".429" stroke="#000" stroke-opacity=".247" stroke-linecap="round" stroke-linejoin="round" d="M459.375 488.86a.752.752 0 0 0-.656.532.777.777 0 0 0 .281.813l1 .812c.075.057.16.1.25.125l.906.281a.759.759 0 0 0 .906-.375.735.735 0 0 0-.218-.937l-.906-.719a.75.75 0 0 0-.22-.094l-.78-.28-.22-.095a.75.75 0 0 0-.343-.062Zm-3.969.376a.752.752 0 0 0-.187.062l-1 .438a.75.75 0 0 0-.406.469l-.188.656a.748.748 0 0 0-.031.312l.094.875a.75.75 0 0 0 .125.344l-.032.281a.75.75 0 0 0 .157.563l-.813.312h-.031l-.063.032-1.718.343a.751.751 0 0 0-.188.094l-2.5 1.344a.705.705 0 0 0-.094.03.75.75 0 0 0-.25-.562l-.781-.687-.188-.5.157-.719a.742.742 0 0 0-.281-.78.765.765 0 0 0-.844-.032l-.438.25a.75.75 0 0 0-.281.281l-.438.75a.751.751 0 0 0-.062.219.728.728 0 0 0-.031.062c-.238.203-.44.346-.656.532a.728.728 0 0 0-.032.062c-.027.02-.027 0-.062.031-.816.7-1.156.993-1.469 1.438-.313.444-.533.914-1.25 2.094a.75.75 0 0 0-.062.562v.063l-.157.718-.156.844a.75.75 0 0 0-.031.156v.281l-.125.688c.007-.022.02-.042.031-.063v.063h-.031a.735.735 0 0 0-.031.094v.03a.765.765 0 0 0-.032.032l-.437.656v.032l-.625.875a.728.728 0 0 0-.031.062l-.313.531a.745.745 0 0 0 .031.813c.17.243.46.367.75.312l.407-.062.218.062c.101.033.208.043.313.031a.738.738 0 0 0 .062 0 .75.75 0 0 0 .282.125h.03l.438.094.281.875v.031l.22.875a.75.75 0 0 0 .187.344l.219.219.03.031.688.781c.03.023.061.044.094.063v.031l.125.563v.03l-.156.75a.732.732 0 0 0 0 .094.749.749 0 0 0 0 .094l-.157.688a.75.75 0 0 0-.03.156v.094l-.094.687a.732.732 0 0 0 0 .094v.031a.741.741 0 0 0 .062.281l.281.719a.75.75 0 0 0 .344.375c.04.025.082.046.125.062h.031l.031.032h.032l.25.218c.02.012.04.022.062.032l.031.03c.01.012.02.022.031.032.02.022.041.043.063.063l.219.187.031.031.344.658a.75.75 0 0 0 .406.375l.469.156a.75.75 0 0 0 .25.031h.031a.732.732 0 0 0 .094 0l.687-.094.875.094a.732.732 0 0 0 .094 0h.875l.781.156a.75.75 0 0 0 .157.031h.03a.764.764 0 0 0 .157-.03l.688-.157h.093c.076-.01.15-.03.219-.062l.719-.282.656.125.094.031.75.375a.75.75 0 0 0 .375.063l.718-.063.375.5c.019.033.04.065.063.094l.219.188.03.062c.02.022.041.043.063.063h.032l.03.03.282.376h.031l.031.031v.031h.032l.03.031.47.657v.03a.75.75 0 0 0 .125.22l.812 1 .031.03.406.438a.75.75 0 0 0 .47.25l.687.094a.75.75 0 0 0 .469-.094l.718-.437.719.094h.031l.719.218a.75.75 0 0 0 .437 0l.658-.218H463.656l.906-.094c.076-.01.15-.03.22-.062l.812-.313h.687l.344.157v.03a.75.75 0 0 0-.031.157v.625l-.5.813a.75.75 0 0 0-.125.5l.062.53-.594.47a.75.75 0 0 0-.28.593v.75a.87.87 0 0 0 0 .125l.093.407v.062l-.031.031a.751.751 0 0 0-.063.219v.062l-.031.125a.75.75 0 0 0-.031.157v.093a.747.747 0 0 0-.031.125l-.063.907a.735.735 0 0 0 0 .187l.156.75v.906a.741.741 0 0 0 .063.282l.281.687v.031a.777.777 0 0 0 .031.125l.031.031a.777.777 0 0 0 .032.125l.093.125v.032l.032.03v.032l.25.875a.75.75 0 0 0 .28.406l.782.532.406.625-.187.468-.406.282a.747.747 0 0 0-.094.093l-.031.031-.938.844a.751.751 0 0 0-.094.125l-.25.344a.774.774 0 0 0-.093.687.71.71 0 0 0 .469.47l.625.187.718.843.031.032.032.03c.02.023.04.044.062.063l.688.532v.593a.746.746 0 0 0 .062.313l.344.687v.032a.748.748 0 0 0 .094.406l.28.531a.777.777 0 0 0 .032.125l.25.75v.063a.65.65 0 0 0 .031.062v.031l.188.844v.031l.219.813a.75.75 0 0 0 .28.406c.761.569 1.278 1.046 1.657 1.406.414.393.666.682 1.094.875.17.077.44.154.687.125.248-.029.44-.116.656-.219.38-.18.94-.52 1.563-.937l.469.281v.031a.75.75 0 0 0 .625.563.725.725 0 0 0 .75-.344l.062-.094.781-.468a.75.75 0 0 0 .157-.125l.062-.063.031-.031.688-.781.156-.063.094-.031h.031l.75-.25h.031a.705.705 0 0 0 .094-.031.75.75 0 0 0 .313-.156l.656-.594.562.062a.75.75 0 0 0 .563-.156l.75-.594a.75.75 0 0 0 .25-.406l.156-.656a.728.728 0 0 0 .031-.063l.031-.03.313-.657.531-.031a.75.75 0 0 0 .344-.125l.844-.593.094-.063a.751.751 0 0 0 .125-.094l.5-.28a.75.75 0 0 0 .344-.845l-.156-.562a.75.75 0 0 0-.657-.563l-.687-.062h-.156l-.813.094-.406-.22.125-.374a.75.75 0 0 0-.031-.5l-.375-.875a.754.754 0 0 0-.094-.156l-.031-.063a.765.765 0 0 0-.032-.031l-.03-.031-.438-.657v-.75l.093-.718a.75.75 0 0 0-.093-.438l-.407-.781a.75.75 0 0 0-.25-.281l-.718-.438-.063-.062-.469-.532a.75.75 0 0 0 .25 0l.688-.093h.031l.594.187.031.031.75.688a.75.75 0 0 0 .594.187l.656-.093h.063l.625.28a.75.75 0 0 0 .593 0l.594-.28.656.593.625.782a.75.75 0 0 0 .781.25l.563-.157a.75.75 0 0 0 .563-.718v-1.125h.343a.752.752 0 0 0 .469-.157l.594-.468.656.218a.75.75 0 0 0 .469 0l.812-.25a.748.748 0 0 0 .125-.062l.625-.344h.781a.747.747 0 0 0 .47-.187l.843-.688.031-.062.031.03.688-.28h.062l.094-.032.531-.062a.75.75 0 0 0 .532-.344l.437-.687.688-.344a.75.75 0 0 0 .312-.313l.344-.687a.75.75 0 0 0-.031-.75l-.5-.75a.751.751 0 0 0-.094-.125l-.031-.031-.844-.813-.031-.062a.768.768 0 0 0-.063-.063l-.687-.875a.765.765 0 0 0-.031-.031l-.813-.844-.031-.031c-.014-.017-.015-.048-.031-.063l-.219-.312.188-.219.03-.062a.751.751 0 0 0 .094-.125l.657-.625a.75.75 0 0 0 .187-.688l-.156-.75-.094-.594.469-.062h.094a.705.705 0 0 0 .093-.031l.875-.188a.777.777 0 0 0 .125-.03l.844-.345.75-.312a.75.75 0 0 0 .375-.344l.313-.625a.736.736 0 0 0-.032-.75.769.769 0 0 0-.687-.344l-.438.031-.125-.437a.748.748 0 0 0-.062-.125l-.031-.063a.745.745 0 0 0-.063-.093l-.375-.5.406-.532c.013-.008.02-.021.032-.03l.718-.407.063-.031.031-.032a.65.65 0 0 0 .063-.03l.03-.032.063-.031a.75.75 0 0 0 .188-.125l.218-.25.063-.063c.006-.005.026.005.031 0l.813-.5a.751.751 0 0 0 .125-.094l.187-.187.031-.031a.751.751 0 0 0 .094-.125l.156-.282.032-.03.062-.063.313-.219a.76.76 0 0 0 .125-1.063l-.438-.5-.062-.093h-.032v-.063a.75.75 0 0 0-.562-.75l-.906-.25a.748.748 0 0 0-.313-.03l-.906.155a.75.75 0 0 0-.344.156l-.562-.187a.748.748 0 0 0-.281-.031l-.907.062a.744.744 0 0 0-.25.063l-.187.093.469-1.625.968-1.062a.718.718 0 0 0 .188-.531.777.777 0 0 0-.25-.532l-.906-.812a.75.75 0 0 0-.5-.188h-.688l-1.531-.937a.75.75 0 0 0-.406-.125h-.97l-.156-.188a.75.75 0 0 0-.156-.125l-.906-.562a.75.75 0 0 0-.406-.125h-.375a.75.75 0 0 0-.531.219l-.782-.875a.75.75 0 0 0-.312-.22l-.063-.093.938.031a.748.748 0 0 0 .406-.093l.781-.47.125-.062.75-.25.125-.03a.732.732 0 0 0 .531-.907c-.103-.406-.5-.666-.906-.563l-.125.032-.719.125h-.062l-2.594-.25a.75.75 0 0 0-.219 0l-.843.187-.75-.094a.75.75 0 0 0-.25.032l-1.563.375-.906-.157a.87.87 0 0 0-.125 0 .75.75 0 0 0 .313-.593v-.907a.744.744 0 0 0-.407-.687.778.778 0 0 0-.812.094l-.75.593-.813.157a.76.76 0 0 0-.625.625c-.05.319.12.633.406.78l.782.407-.188.063a.75.75 0 0 0-.469.625l-.406.187a.705.705 0 0 0-.093.031l-1.813 1.063a.75.75 0 0 0-.219.219l-.03.062H478l-1.875-.531a.747.747 0 0 0-.125-.031l-.625-.032-1.031-.906-.094-.312a.75.75 0 0 0-.562-.532l-.907-.187a.816.816 0 0 0-.156 0h-2.25a.87.87 0 0 0-.125 0l-4.062.625h-1.438l-.5-.281.188-.5a.75.75 0 0 0-.094-.657l-1-1.53a.75.75 0 0 0-.219-.22l-1.781-1.187a.75.75 0 0 0-.344-.125l-3.094-.25-.53-.313-.188-.53-.094-.813a.75.75 0 0 0-.188-.438l-.812-.906a.75.75 0 0 0-.688-.25Z"/><path fill="#8cce55" stroke="#0f380f" stroke-opacity=".145" stroke-linecap="round" stroke-linejoin="round" d="M459.375 488.86a.752.752 0 0 0-.656.532.777.777 0 0 0 .281.813l1 .812c.075.057.16.1.25.125l.906.281a.759.759 0 0 0 .906-.375.735.735 0 0 0-.218-.937l-.906-.719a.75.75 0 0 0-.22-.094l-.78-.28-.22-.095a.75.75 0 0 0-.343-.062Z"/><path fill="#8cce55" stroke="#0f380f" stroke-opacity=".145" stroke-linecap="round" stroke-linejoin="round" d="M455.406 489.236a.752.752 0 0 0-.187.062l-1 .438a.75.75 0 0 0-.406.469l-.188.656a.748.748 0 0 0-.031.312l.094.875a.75.75 0 0 0 .125.344l-.032.281a.75.75 0 0 0 .157.563l-.813.312h-.031l-.063.032-1.718.343a.751.751 0 0 0-.188.094l-2.5 1.344a.705.705 0 0 0-.094.03.75.75 0 0 0-.25-.562l-.781-.687-.188-.5.157-.719a.742.742 0 0 0-.281-.78.765.765 0 0 0-.844-.032l-.438.25a.75.75 0 0 0-.281.281l-.438.75a.751.751 0 0 0-.062.219.728.728 0 0 0-.031.062c-.238.203-.44.346-.656.532a.728.728 0 0 0-.032.062c-.027.02-.027 0-.062.031-.816.7-1.156.993-1.469 1.438-.313.444-.533.914-1.25 2.094a.75.75 0 0 0-.062.562v.063l-.157.718-.156.844a.75.75 0 0 0-.031.156v.281l-.125.688c.007-.022.02-.042.031-.063v.063h-.031a.735.735 0 0 0-.031.094v.03a.765.765 0 0 0-.032.032l-.437.656v.032l-.625.875a.728.728 0 0 0-.031.062l-.313.531a.745.745 0 0 0 .031.813c.17.243.46.367.75.312l.407-.062.218.062c.101.033.208.043.313.031a.738.738 0 0 0 .062 0 .75.75 0 0 0 .282.125h.03l.438.094.281.875v.031l.22.875a.75.75 0 0 0 .187.344l.219.219.03.031.688.781c.03.023.061.044.094.063v.031l.125.563v.03l-.156.75a.732.732 0 0 0 0 .094.749.749 0 0 0 0 .094l-.157.688a.75.75 0 0 0-.03.156v.094l-.094.687a.732.732 0 0 0 0 .094v.031a.741.741 0 0 0 .062.281l.281.719a.75.75 0 0 0 .344.375c.04.025.082.046.125.062h.031l.031.032h.032l.25.218c.02.012.04.022.062.032l.031.03c.01.012.02.022.031.032.02.022.041.043.063.063l.219.187.031.031.344.658a.75.75 0 0 0 .406.375l.469.156a.75.75 0 0 0 .25.031h.031a.732.732 0 0 0 .094 0l.687-.094.875.094a.732.732 0 0 0 .094 0h.875l.781.156a.75.75 0 0 0 .157.031h.03a.764.764 0 0 0 .157-.03l.688-.157h.093c.076-.01.15-.03.219-.062l.719-.282.656.125.094.031.75.375a.75.75 0 0 0 .375.063l.718-.063.375.5c.019.033.04.065.063.094l.219.188.03.062c.02.022.041.043.063.063h.032l.03.03.282.376h.031l.031.031v.031h.032l.03.031.47.657v.03a.75.75 0 0 0 .125.22l.812 1 .031.03.406.438a.75.75 0 0 0 .47.25l.687.094a.75.75 0 0 0 .469-.094l.718-.437.719.094h.031l.719.218a.75.75 0 0 0 .437 0l.658-.218H463.656l.906-.094c.076-.01.15-.03.22-.062l.812-.313h.687l.344.157v.03a.75.75 0 0 0-.031.157v.625l-.5.813a.75.75 0 0 0-.125.5l.062.53-.594.47a.75.75 0 0 0-.28.593v.75a.87.87 0 0 0 0 .125l.093.407v.062l-.031.031a.751.751 0 0 0-.063.219v.062l-.031.125a.75.75 0 0 0-.031.157v.093a.747.747 0 0 0-.031.125l-.063.907a.735.735 0 0 0 0 .187l.156.75v.906a.741.741 0 0 0 .063.282l.281.687v.031a.777.777 0 0 0 .031.125l.031.031a.777.777 0 0 0 .032.125l.093.125v.032l.032.03v.032l.25.875a.75.75 0 0 0 .28.406l.782.532.406.625-.187.468-.406.282a.747.747 0 0 0-.094.093l-.031.031-.938.844a.751.751 0 0 0-.094.125l-.25.344a.774.774 0 0 0-.093.687.71.71 0 0 0 .469.47l.625.187.718.843.031.032.032.03c.02.023.04.044.062.063l.688.532v.593a.746.746 0 0 0 .062.313l.344.687v.032a.748.748 0 0 0 .094.406l.28.531a.777.777 0 0 0 .032.125l.25.75v.063a.65.65 0 0 0 .031.062v.031l.188.844v.031l.219.813a.75.75 0 0 0 .28.406c.761.569 1.278 1.046 1.657 1.406.414.393.666.682 1.094.875.17.077.44.154.687.125.248-.029.44-.116.656-.219.38-.18.94-.52 1.563-.937l.469.281v.031a.75.75 0 0 0 .625.563.725.725 0 0 0 .75-.344l.062-.094.781-.468a.75.75 0 0 0 .157-.125l.062-.063.031-.031.688-.781.156-.063.094-.031h.031l.75-.25h.031a.705.705 0 0 0 .094-.031.75.75 0 0 0 .313-.156l.656-.594.562.062a.75.75 0 0 0 .563-.156l.75-.594a.75.75 0 0 0 .25-.406l.156-.656a.728.728 0 0 0 .031-.063l.031-.03.313-.657.531-.031a.75.75 0 0 0 .344-.125l.844-.593.094-.063a.751.751 0 0 0 .125-.094l.5-.28a.75.75 0 0 0 .344-.845l-.156-.562a.75.75 0 0 0-.657-.563l-.687-.062h-.156l-.813.094-.406-.22.125-.374a.75.75 0 0 0-.031-.5l-.375-.875a.754.754 0 0 0-.094-.156l-.031-.063a.765.765 0 0 0-.032-.031l-.03-.031-.438-.657v-.75l.093-.718a.75.75 0 0 0-.093-.438l-.407-.781a.75.75 0 0 0-.25-.281l-.718-.438-.063-.062-.469-.532a.75.75 0 0 0 .25 0l.688-.093h.031l.594.187.031.031.75.688a.75.75 0 0 0 .594.187l.656-.093h.063l.625.28a.75.75 0 0 0 .593 0l.594-.28.656.593.625.782a.75.75 0 0 0 .781.25l.563-.157a.75.75 0 0 0 .563-.718v-1.125h.343a.752.752 0 0 0 .469-.157l.594-.468.656.218a.75.75 0 0 0 .469 0l.812-.25a.748.748 0 0 0 .125-.062l.625-.344h.781a.747.747 0 0 0 .47-.187l.843-.688.031-.062.031.03.688-.28h.062l.094-.032.531-.062a.75.75 0 0 0 .532-.344l.437-.687.688-.344a.75.75 0 0 0 .312-.313l.344-.687a.75.75 0 0 0-.031-.75l-.5-.75a.751.751 0 0 0-.094-.125l-.031-.031-.844-.813-.031-.062a.768.768 0 0 0-.063-.063l-.687-.875a.765.765 0 0 0-.031-.031l-.813-.844-.031-.031c-.014-.017-.015-.048-.031-.063l-.219-.312.188-.219.03-.062a.751.751 0 0 0 .094-.125l.657-.625a.75.75 0 0 0 .187-.688l-.156-.75-.094-.594.469-.062h.094a.705.705 0 0 0 .093-.031l.875-.188a.777.777 0 0 0 .125-.03l.844-.345.75-.312a.75.75 0 0 0 .375-.344l.313-.625a.736.736 0 0 0-.032-.75.769.769 0 0 0-.687-.344l-.438.031-.125-.437a.748.748 0 0 0-.062-.125l-.031-.063a.745.745 0 0 0-.063-.093l-.375-.5.406-.532c.013-.008.02-.021.032-.03l.718-.407.063-.031.031-.032a.65.65 0 0 0 .063-.03l.03-.032.063-.031a.75.75 0 0 0 .188-.125l.218-.25.063-.063c.006-.005.026.005.031 0l.813-.5a.751.751 0 0 0 .125-.094l.187-.187.031-.031a.751.751 0 0 0 .094-.125l.156-.282.032-.03.062-.063.313-.219a.76.76 0 0 0 .125-1.063l-.438-.5-.062-.093h-.032v-.063a.75.75 0 0 0-.562-.75l-.906-.25a.748.748 0 0 0-.313-.03l-.906.155a.75.75 0 0 0-.344.156l-.562-.187a.748.748 0 0 0-.281-.031l-.907.062a.744.744 0 0 0-.25.063l-.187.093.469-1.625.968-1.062a.718.718 0 0 0 .188-.531.777.777 0 0 0-.25-.532l-.906-.812a.75.75 0 0 0-.5-.188h-.688l-1.531-.937a.75.75 0 0 0-.406-.125h-.97l-.156-.188a.75.75 0 0 0-.156-.125l-.906-.562a.75.75 0 0 0-.406-.125h-.375a.75.75 0 0 0-.531.219l-.782-.875a.75.75 0 0 0-.312-.22l-.063-.093.938.031a.748.748 0 0 0 .406-.093l.781-.47.125-.062.75-.25.125-.03a.732.732 0 0 0 .531-.907c-.103-.406-.5-.666-.906-.563l-.125.032-.719.125h-.062l-2.594-.25a.75.75 0 0 0-.219 0l-.843.187-.75-.094a.75.75 0 0 0-.25.032l-1.563.375-.906-.157a.87.87 0 0 0-.125 0 .75.75 0 0 0 .313-.593v-.907a.744.744 0 0 0-.407-.687.778.778 0 0 0-.812.094l-.75.593-.813.157a.76.76 0 0 0-.625.625c-.05.319.12.633.406.78l.782.407-.188.063a.75.75 0 0 0-.469.625l-.406.187a.705.705 0 0 0-.093.031l-1.813 1.063a.75.75 0 0 0-.219.219l-.03.062H478l-1.875-.531a.747.747 0 0 0-.125-.031l-.625-.032-1.031-.906-.094-.312a.75.75 0 0 0-.562-.532l-.907-.187a.816.816 0 0 0-.156 0h-2.25a.87.87 0 0 0-.125 0l-4.062.625h-1.438l-.5-.281.188-.5a.75.75 0 0 0-.094-.657l-1-1.53a.75.75 0 0 0-.219-.22l-1.781-1.187a.75.75 0 0 0-.344-.125l-3.094-.25-.53-.313-.188-.53-.094-.813a.75.75 0 0 0-.188-.438l-.812-.906a.75.75 0 0 0-.688-.25Z"/></svg>