<svg width="1671.094" height="856.393" xmlns="http://www.w3.org/2000/svg" xmlns:usvg="https://github.com/RazrFalcon/usvg" usvg:version="0.8.0"><path fill="#3e73c5" fill-opacity=".429" stroke="#000" stroke-opacity=".247" stroke-linecap="round" stroke-linejoin="round" d="M163.872 670.068v5.355h-31.814v9.103H119.5v171.366h69.562V670.068Z"/><path fill="#3e73c5" fill-opacity=".427" stroke="#000" stroke-opacity=".247" stroke-linecap="round" stroke-linejoin="round" d="m1670.594 166.16-5.346 2.857v19.563l-23.907 20.736v19.446l22.034 40.849v11.123l7.219-1.06Z"/><path fill="#3e73c5" fill-opacity=".429" stroke="#000" stroke-opacity=".247" stroke-linecap="round" stroke-linejoin="round" d="M119.5 228.393v350.875h25.469v28.062l18.903 42.988h25.19v-354.05l-19.156-14.25-11.687-14.938 4.656-1.531 4.719.562 5-2.28 1.812.718 2.625-1.25.438-.813.187-.03.438-.563-.188-.469.719-.906.469-1-.625-.906-.188 1.812-.469 1-.343.344v-1.625l-.532-2.781.532-1-.094.094-.094-.97-1-.28-.875-.625-.906-.563-1-.625-.906-.156-.969-.563-.906-.437-1-.375-.719-.344-.188-.906-.968-.375.187-.969-1-.469.094-.875-.531-1-.813-.906-1.281-1.781-.531-.907-.813-.906-.437-1-.907-.812-.093-.813-1-.875-.157-.187-.812-1.094-1-.438-1-.437-.625-.906-.344-.907-.906-.375-1-.625-.813-.906.188-.969-.438-.53-1-.657-.906-.531-1 .437-1.062.469-.907.094-.906.344.188.906-.719.906-.344 1-1 .156-.906.375-1 .532-.875.531-.813-.969-.28-.906-1-.813-.813-.625-.157-.094-.906-.718-1-.813-.906-.625-.344-1-.906-.344-.719-.28-.531-1 .344-.876-.969-.562-.906.094-1 .094-1 .718-.344.188-1.969-.719a4.578 4.578 0 0 1-.625.25 2.721 2.721 0 0 1-.375.094c-.05.01-.109.027-.156.031h-.063c-.737.06-1.11-.36-1.312-1-.006-.019.006-.044 0-.062-.044-.15-.099-.3-.125-.469a4.614 4.614 0 0 1-.063-.53c-.052-.754-.018-1.582 0-2.25.008-.289.016-.541 0-.75v-65.97l2.782.532 1.906-.157.906.094 2.875.72.906.812.97.531.812.906.718.094 1.907.875 2.781.906.906.532.906-.062.875.437 1 .188.907-.188h.093l1.25.094 1.344.344.906.625 1.907.656.156.156h.375l-.906-.53-.438-1 .875-.626.906.375.907-.375.906.563.719.968 1 .532.25-.062-1.782-2.438.532-1 .906-.344.812-.906.97-.187.905-.344.907-.656 1.968-.157 1.094-1.906 1.875.188-.094-.907 1-.187-.906.281.906.281.907-.187.906-.375.875-.625 1.906-.813.344.907.719-.907.187-.437.906-.813.907-.28h.968l.907.374h.906l1.812-1.094.625.907-.375.906-3.875 1.625-.875.812-.906.25-1 .625-.906-.156-.875.344-1.906.094-.907.281-.437.906-1 .782-.813.906-.875-.438-.906 1-.094.875-1-.25-.625.907-.906.531.094.906 1.812.719-1-.563 1-.53 1.875.093.907-.187-.907-.438-.968-.187-.188-.907 1.875-1.062 1.813-.625.906-.656v-.969l1.781-.188-.094.907.625-.907.188.907.813-.907-.438-1 .625 1-.188-1 .625.907-.25 1 .532-1-.281.906.187.906.906-.812.625-1 1.531-1.813 3.344-1.156 1.875-.188.906-.718-.718.906v.906l1.062.25c1.745-2.592 3.489-1.306 2.719-3.594l.875-.437 2.813-.469-1.813-.437.094-.907-.907.094-.187-.906.906-.812 2.156 1.375V.52H119.5h0V.519 153.61l-.625-.375-.969-.343-1.812-.375-2.781.187-1 .719-.344-.438c-.79-.062-1.388.229-2.094.531l-1.875.094-1.437-.187-.47-.375-.874-.157-.906-.625-2.782-.375h-1.906l-.906.188-2.781-.375-.907-.438-.531-.468-.812-.062-.532-.282-.812.344-.906-.625-.72-.156-1.155-.188-1-.562-.907.094c-3.54-.938-3.706 1.57-5.406-.156l-2.781.53-.188.532-1.781-.531-1.906-.094.719-.906-.875-.094-.907.187-1.906-.187 1.813-.157-.907-.28.094-.907.719-.906-1-.25-.906.156-.876-.062-1.906-.563-.969.282h-1.812l-1 .625-1.875-.094-.906-.72.281-.905-.906-.625-.907.53-.906-.718-1.437 1.469-.344.875-1.813.094.094-.25-.906-.563 1-.437.906-.188.875-.906-.875-.812-3.687-.782.437-.906-1.812.906-.875.782-.813 1-1.437.906-1.375.812-.875.344-4.688.563-.906.062-.906-.157.906-.812-1.875.531-1.813 1.25v.281l.72.72 1.905.437-1.812.187-.188 1 .094.906-.719-.906-.625.281.625-.906v-.375h-1l1-.344v-.625l-.812-.094-3.688 2.594-1.343.188-1.438.187-1 .438h-.906l.906-.282.188-.437-1-.188-.907.907-.875.625-.718 1.187-1.907 1.438-.187.906-.531.437-.344.344.156.906-.531.907-1.625 1.906-1.781 1.156-.907.375-1.28.25-5.657.531-1.813-.156-.875.156-9.062 4.5v108.896l40.632-10.912 18.24-6.433 22.021-12.473 21.48-11.997Z"/><path fill="#8cce55" stroke="#0f380f" stroke-opacity=".145" stroke-linecap="round" stroke-linejoin="round" d="m9.906 226.298-.906.094h-.906l-1.781 1h-1l-.875.625.875.906h.625l.812.532.906.437h.907l.968.094.656-.063 1.157-.187.906-.813-.094-.375-.094-.25-.187-.656-.094-.875h-.969l-.906-.469h0ZM54.906 141.642l-1.812.906-.875.782-.813 1-1.437.906-1.375.812-.875.344-4.688.563-.906.062-.906-.156.906-.813-1.875.532-1.813 1.25v.28l.72.72 1.906.437-1.813.188-.188 1 .094.906-.718-.906-.626.28.626-.905v-.375h-1l1-.344v-.625l-.813-.094-3.688 2.594-1.343.187-1.438.188-1 .437h-.906l.906-.28.188-.438-1-.188-.907.906-.875.625-.718 1.188-1.907 1.437-.187.907-.531.437-.344.344.156.906-.531.906-1.625 1.907-1.781 1.156-.907.375-1.28.25-5.657.531-1.813-.156-.874.156.156.906-.781 2.782-.907.375-.469-.094-.25.187.97.094.905.25.907.563.906.812.969.156 1.812.657 1.875 1.25.906.53.094-.093 2.875 1.813 1.188 1.875.531 1.812 2.781.531h1.813l.187.188.875-.281.188-.813c.211.267.386.448.562.594.088.073.2.138.282.187.732.442 1.21.005 2.062.157.284.05.616.166 1 .406a5.1 5.1 0 0 1 .406.281h-.875l-.812 1.094.156.969 1.281 1 1.063.187 1.093-.906.907-.094.875.469 1.812-.188.532.907-.438.875-1.813.187-.968-.25-.907-.656-.906-.063-.906.344-.969-.187-.906-.532-.813-.906.188-.906-.906-.813-.907-.25-.906.532.719.906.906.094 1.813 1.78v.907l.968-.25 1.907.344.906.531.156.906-1.875-.718-.906.53-.719.907.094.094-.906.187-.907-.281-.968.375-.907-.094-.906-.468h-1l-.875.28-1-.187H20.97l-.813-.875-.875.063.875-.344.75-1.812.063-.907h-2.782l-.906.188-1.781.906-1.813.281-1.78.72-.095.905.876.438-.876.344-1.812-.438H9l-1.781.906-.719.907-.906.437-.907-.187-.906.468-.531.875h-1l-.875.563v.531l2.5 1.156 1.906.282.907.28.875.095-.875-.282 2.78.438.907.562H8.656l-.625.875h-1l-.906-.625.563.907.875.812 1.187.719-.375.906.563 1 .874.344 3.782.625.906.281c2.088-.421 4.47-1.218 6.625-.906a5.6 5.6 0 0 1 1.156.281c.56.209 1.096.525 1.594.969l-.375-1.781 1.813 1.687.875.188.28-.907 1-.53.907-.72.875-.093 1-.813.906.281.907-.28.78-.876 1-.094-.437.532.969.53.375.907-.813.906-1 .438-.874-.25-.094.781.875.094 1.187 1.812.094.907.438.906.28.969-.53.906-.907.906-1 .531-2.781.188-.906-.469h-.907l-1.53 1.906-.907.344-.875.906-1 .282-.906-.188-.907.094-.875.531.813-.719-.469-.906-1.437-.344-1.813.344-.437.906.906.563-1.344-.188-.906.907.188.875-.47.093.72.906 1.093-.718-1 1-.437.875.906.281-.719-.094-.906-.53-.906.28-2.625 2.782-.25.906.812.875-.906.281-.906.719.906.281-.906.188-.906-.094.624.875.907.719v.906l.906.625.375.906.875-.531.719-.906.281-.907 1.813-1.437.25.094-.625.906-1 .281-1.157 1.875.906-.344-.093.875.906.563-.625.875.969-.25.906.093 1 .532h1.781l1.813-1-.094.906-.906.187h.906l.906.25.094 1-.906.532-.719-.344-.094-.906-.906.093-1.781 1.25.718-.625-.375-.906-.906-.156-.968-.562h-.907l-.281.906-1.625 1.812 1.906-.093-.531.906.625.437.906.282.344-.188 1.719 1.781.906.375-.188 1 .907.344.875.094 1.906-.188.906-.156.969-.469.906-.625h1.094l.156-.53v-.907l-.343-.906.906-.907.906-1.875.438.532.906-.282-.813.375-.812.907-.532.968-.28.907.905.812.094.906 1.063 1.625.375.907.812.968-.906.72-.719 1 .907.905.875.344-.875.188.343 1.906-.906.531-.875.188 2.781.25.907-.344.25-.906.906-.094 1.875-.813.906-.53.906-.282.625.906.907.281.812.532.344-.907 1 .625.906.907 1.344 1.812.375.156.875-.78-.438-.907 1.813-2.625-.282-.906.72.812.906.188.437.468-.906-.375-.969.625-.188.907 1.25 1.156h.907l1.812-.813 2.782-.968 1-.907.437-.906-.344 1-.812.906.343.875-1.062.563-1.719 1.781.094.906.906.188.875.531-.968-.344-.907.25-.281.907-.094 1-.25.906.532 1.781.812-.437-.281.437-.969.094-.188-.625-.906.437-.812.907-1 .28-1.594 1.782-.281.906-.625.907-.907-.282-.906.813-2.687 1-2 1.344-.875.906-.375.906v.875l.531.906-.875-.437-.906.093-.094.907-.625-.907.188-1-.907.438-.906-.344-3.781 1.438-.907.719-.812.906-.156 1-.907.25-.906.906-.906-.094-.969.375.063.97.281.905.375-.906-.188-.969.907.97.968.374.907-.375-.094-.906-.438-.875.907.531.531 1 1-.812.875.156.563-.969.718-.906.25-.906.907-.438.906.625-.907.188v.906l.907.062 1.875-1.062.906-.188.906.282.282-1h.968l.907-.813h.53l.907.281-.344.907.969-.282.469-1 .968-.625h.907l.906-.812.906.187.438-.906.281.906.344-.187.375-.906.906-.532-.906.375.093-.906-1-.187 1-.907.876-.187.906-.438-.907.282.907-.625.906-.188.906-.469.907-.718 1.156.093 1-.906 1.781-.625.563-.906-.657-.875.907-.625 1.812-.719.906-.187.344-.625.906-.72 1.813-.905.718-.907 1.782-.53 1 .155.719-.875-.188-.906.469-.906.969-.906h.906l.906-.625.625-.907-.188-.875-.906-.187-.875-.563-1.906.094.188-.344.187-1.812.969-.25.281-.906.906-.625 1.781-.188.907-.281.187-.906-.906-.157 1.813-.187.968-.813.188-.625-1.781-1.531.874.531.907.094.906-.625.281-.906.781-.907.907-.906 1-.625.187-.875.906-.562 1.782-.532.906-.906.906-.25.813-.906.812.812 1.875.094.906-1.187.907-.625.875.28-1.781.876-.907.906v.469l1.813.969 1.781.718-2.688-.53-1.28.437-1.876-.782-.906.344-1.781 1.25-.906.094-.47.906.376 1-.188.875-.344.813-1.624 1.812-.532 1.344.625.906.969.281.906-.375h.906l-.812.907-.906.625-.969.093-.906.344-.281 1 .906.531 2.781-.78.906.437.813-.907.906-.53.094-.907h.875l.812-1 .094 1 .906-.438v-1.093l1.156.53-.437-.968.906-.094.531.907-.28-.907.906-.906h.374l.188.906.344-.906 2.156.375.906-.375h.625l.188-.906 1-.094-.656-.875.906-.812.469-.907-.907-.187-.906.187h-1l.906-.28.906-.532-.093-.906-.906.906-.25-.906-.907.437.625-.875h.906l.438-.906-.094-1 1 .563.625-.907.906-.906-.187.625-.719.906-.344 1 1.782.344v-.906l.375-.906.25.906 1.812-.094.906.281.907-.718.875-.375 1 .28h-1l-.875.532v.906l.969.47.906-.282.906.187-1.531.344-.906.625.906-.094 1.781-.53-.25.905.906-.187.875.562-.437.875 1 .188.875.531.906-.156 1.813-1.719.906-.531v.156l-.906.813-.282 1.906.906.531 1.094.375.875.063.375.906 1.531.187.813-.28 4.656-.438.719.187 3.063.531.718.375 1-.375.469-.906.531.906-.625.907c3.31.962 4.649 2.107 7.563 0l.781-.907h.813l.562.625 1.875.72-.906-.25-.906.78-.25.907.187-1.782-1-.718-.375.875.563.906-.813.906-.906.281.906.344.906.625.875.094.906.625 1 .375.907.531.969-.187-.344.562.906.156.875.657.906.812 1.438 1.781 1.906 1 1.781.72.813.905.187-.906.906-.375.907.563.875-.47-.813-.905-.25-.875-.906-.094-.188-1-1.78-.531-1 .187.905-.469-.718-.906.906.563.875-.094.813.906.906.625 1-.719v-.906l.187.906h.875l-.875.532.969 1.812.094.969.906-.25 1 .156.344.906.906.375.437-.906-.437-.906-.094-.906-1.094-2.407v-.906l-.625-.906.907.344-.719-.875.438-.094.28-.906-.093.719.188.906.437.906.469 1.781.906.375-.187.875 1.156 1.813 1 .093.906.72.875.093.719-1.813.906-.093-.906.718-.438.907-.093.906.53.906.907-.375-.25 1 .813.906.437-.906.906.094.907.344-.907-.157-.906.157.719.906 1.812 1.344-2.718-1.25.375.906.906-.094-.75.906.906.813h.906l-1.812.344.281.906h.906l1 .531.875.094-.156.906.875.719.906.281-.187.875.906-.062.281.968 1 .72.532.905 1.625.375-.907-.093-.906.531.094.906-1.25 1.875.625.906.906-.343.438-.907.093-.906.906-.437 1.875-.375 1.25 1.906.094 1.781.563 1-.907.188.344.875.906-.344.907-.813-.813.907-.906.343-.344 1v.907l.906-.625.25.875 1-.532.907-.906.437-.906.813-.969-.532-1.344-.093-.718-.188-1.094.719-.906-.094-.969-1-.281-.875-.625-.906-.563-1-.625-.906-.156-.969-.563-.906-.437-1-.375-.719-.344-.188-.906-.968-.375.187-.969-1-.469.094-.875-.531-1-.813-.906-1.281-1.781-.531-.906-.813-.907-.437-1-.907-.812-.093-.813-1-.875-.156-.187-.813-1.094-1-.437-1-.438-.625-.906-.344-.906-.906-.375-1-.625-.813-.907.188-.968-.438-.532-1-.656-.906-.531-1 .437-1.062.47-.906.093-.907.344.188.906-.719.906-.344 1-1 .156-.906.375-1 .532-.875.53-.813-.968-.28-.906-1-.813-.813-.625-.156-.093-.907-.72-1-.812-.906-.625-.344-1-.906-.343-.719-.282-.531-1 .344-.875-.969-.562-.906.094-1 .093-1 .719-.344.188-1.969-.72-1 .438-.156-.062h-.063c-.737.06-1.11-.36-1.312-1-.006-.02.006-.045 0-.063l-.188-.218v-.782c-.052-.753-.018-1.58 0-2.25.008-.288.016-.54 0-.75v-65.968h-.25l-.906.187h-.093l-.907-.375-1.062-.719-1-.343-.281.187-2.438-1.531-.625-.375-.969-.344-1.812-.375-2.781.188-1 .718-.344-.437-1 .062-1.094.469-1.875.094-1.437-.188-.47-.375-.874-.156-.906-.625-2.782-.375h-1.906l-.906.187-2.781-.375-.907-.437-.531-.469-.813-.062-.53-.281-.813.343-.906-.625-.72-.156-1.156-.187-1-.563-.906.094c-1.77-.469-2.71-.075-3.406.219-.174.073-.314.14-.469.187-.465.138-.894.085-1.531-.562l-2.781.53-.188.532-1.781-.531-1.906-.094.719-.906-.876-.094-.906.188-1.906-.188 1.813-.156-.907-.281.094-.907.719-.906-1-.25-.906.156-.876-.062-1.906-.563-.969.282h-1.812l-1 .625-1.875-.094-.906-.719.281-.906-.906-.625-.907.531-.906-.719-1.437 1.47-.344.874-1.813.094.094-.25-.906-.563 1-.437.906-.188.875-.906-.875-.812-3.687-.782.437-.906h0Z"/><path fill="#8cce55" stroke="#0f380f" stroke-opacity=".145" stroke-linecap="round" stroke-linejoin="round" d="m72.719 239.517-.813.313.094.875h-.094v.062l-.906-.094-.031.032-.75.468.344.875.968.532.594-.25.219-.125v-.032l.375-.875.062.032.031-.063.844.406.406-.812.032.031.062-.094.938.657.406-.782-1-.437h-.906l-.875-.719ZM69.75 242.736l.719.781-.531.875-.063-.031-.063.094-.812-.563-.156.781-.063-.093-.031.156-.625-.906-.875-.438-.75.844.906.437.281.907-.624.906.812.875-.469-.313.344.375-.906-.625-.438-.906-.531-.906-.875-.094h-.031l-.906.563-.782.468-.468.907.718.906.282.906.718.969h.813l.187-.656-.031.343h.031l.094-.406v.344l.781-.469.781-.312.126-.032-.813.75-.25.907-.719.906.813-.094.969-.593.093-.063.813-.75-.906-.437.156-.032-.063-.03.875-.188h.031l.657-.563.062-.062.281-.094.594-.219.469-.094 1.438-.406.812-.469-.906-.656-.906.094.124-.031.782-.313.094-.062 1.75.437.843-.844-.906-.344-.344-.906.094-.906-.875.094h-.031l-.281.125-.5.187-.126.063-.968-.813-.719-.281h0ZM20.969 261.986l-2.563 1.031h-.031l-.125.063h-.906l-.407.843-.906.813H16l-.063.062-.187.063.094.875.906.437.844-.093.843-.844.688-.313.219-.125.093-.062h1.813l1-.188.313-.125.468-.187h.032l.093-.031.469.125-.594-.344-.531-.906-.625-1-.906-.094h0ZM12.219 267.205l.375.78.375-.5-.75-.28ZM11.031 267.423l-.844.75.907.344.781-.5-.844-.594ZM7.188 268.83l-.844.093-.625.282-.219.125.281 1 .907.625H6.53l.032.03H5.78l-.281.876-.094.031-.406.219-.406.187-.094.063-.875.219-.719.875.344-.032c.03-.008.066-.022.094-.03.119-.037.21-.082.312-.126l.125-.031c.092-.043.165-.11.25-.156.292-.16.583-.321.938-.47H5l.219-.124.125-.031c.284-.084.635-.124 1.062-.157l.625-.093.438-.844.062-.031.032-.031.812-.22.5-.874-.844.469-.125.062.813-.906-.094-.844-.781.688-.032-.032-.093.094-.532-.906h0ZM177.375 256.455l-.625 1.093.094.907.343.875.282.906v-.094l-.532-2.781.532-1-.094.094ZM184.719 154.11c-.28.145-.635.284-1.031.563.396-.28.752-.418 1.03-.562ZM23.844 156.455l-.063.03-.093.25v.47l.03.03.126-.78h0ZM152 158.642l.906.438v-.344l-.906-.094ZM1652.5 202.017l-.531 1.875.468.906.876.375h.906l1-.468.906-.157 1.875.438-1.875-.531 1.875.343.906.563.719.875.906.281h.157l.906.531 1 .188.906-.719 2.688-.281-.188-.875-.875-.188-.906.188-.907-.281-1-.532-2.062-.562-.438-.875-.906-.469-.906.094-1.813.719-.874-.282h-1l-.907-.437-.906-.719ZM104.313 224.705l-.907.25-.906.718 1.813-.718v-.25ZM1646.656 224.955l.532.906.906.625 1 .094.906.28-.563-.624-.874-.094-1-.469-.907-.718ZM95.313 225.517l-.626.875-.187.906.875-.375.375-.875-.438-.53ZM75.594 225.58l-.25.843.781-.843h-.531ZM100.531 225.58l-.437.906.25.094.625.25.906-.344.938-.281-1.063-.5-.313-.125h-.906 0ZM97.844 226.673l-1.469 1.813-.875.437-.563.625-.25.907 1.782-.625.562-1.188 1.688-1.781-.875-.188ZM93.688 227.673l-.282.875.438-.875h-.156ZM111.313 228.923l-.626.625.907-.625h-.281ZM35 237.173l-.063.032-1.718 1 .5.593.843-.75.438-.875h0ZM73.219 238.517l-.188.781.75-.687-.562-.094h0ZM154.625 239.892v.906l.531.907.25.906.188 1.875.625 1.437.906-.343-.906.437.906.719-.906.625v.906l.906.531.906-.718.281-.97.875.095-.156-.907.156-.906-1.343-1.875v-.906l1.187 1.875.719.906-.656-1.812-.531-.875-.344-1-1.906-.282-.907-.625-.781-.906h0Z"/><path fill="#8cce55" stroke="#0f380f" stroke-opacity=".145" stroke-linecap="round" stroke-linejoin="round" d="M156.5 240.36v.813l.906-.187-.906-.625ZM148.031 241.08l-.25.906.875.875-.969.906.97.469.468.875 1.531 1.281-.906-.562.719.906.906-.188.25-.875-.875-.718.875-.188 1.906 1.063.906.375.532-.907-.281-.906h-1.782l-.906-.719-1.813-.968 2.72 1.156.905.187-.375-.906.907.281.344-.906-.97-.531-.905-.094-1.907.813.906-.72-.812-.905h-1.875l-.188.906-.906-.906h0ZM69.656 241.83v.218l.594.125-.594-.343Z"/><path fill="#8cce55" stroke="#0f380f" stroke-opacity=".145" stroke-linecap="round" stroke-linejoin="round" d="m147.313 241.986.562.875-.375-.875h-.188ZM68.75 242.892v.438h.75l-.75-.438ZM152.625 246.205l-.906.187-.25.875.969.375.093.906.906.438-.906.625.281 1 .907-.188-.375.907.906-.532-.531.907.156.25.906-.532-.625.907 1.094 1.78.812-.874-.187-1 .187-.906-1-3.594-.53-.906-1-.438-.907-.187h0ZM151 247.205l-.625.343.469.907-.281.906.906-.375v-.906l-.469-.875ZM71.094 248.08l-.969.156H70l-.125.031-.656.094v.03l-.125.032.281.969.094-.063v.032l.906-.72.875-.218-.031-.031.156-.031-.281-.282h0ZM65.594 248.423l-.031.344-.876-.187.907-.157ZM159.125 248.86l.375.876.906.906v1.906l.438.532.906-.438.906.25.25-.906-.437-.875.906.812.344-.906v-1l-.906-.719h-.97l-1.812-.437h-.906Z"/><path fill="#8cce55" stroke="#0f380f" stroke-opacity=".145" stroke-linecap="round" stroke-linejoin="round" d="m158.375 249.892-.875.094-.375.906.531.875.906.469.188.906h-.906l.093 1.781.375.907.25-1.875.282.968.437-.906.281-1.875.438-.906-.969.469.25-.907-.906-.906h0ZM163.781 250.705l.281.906-.187.875h1l.438-.875-.813-.906h-.719ZM51.219 252.11v.313l.093-.03.626-.188-.72-.094h0ZM166.656 252.673l-.062 1.438.875.625 1-.438-1.813-1.625ZM164.25 252.86l-.906.813.906.625.969-.53-.25-.907h-.719ZM161 253.517l-.188.906.907.282.156.25.375-.157.094.157-.282.187.438.438v1.812l-.438.906.907.094.906-.281-.813 1 .907.812-.907-.093 1.782 1.343 1 .375.093.438.72 1 .28.875.875.187.563-.906v-.875l-.906.063.718-.875.094-.907-.906.25.187-.875-.906-.093-.906-.625v-.907l1.812 1.063-.812-.875-1.094-1.906-.969-.813-.906-.25-.375-.906-.625-1-1.781-.094h0Z"/><path fill="#8cce55" stroke="#0f380f" stroke-opacity=".145" stroke-linecap="round" stroke-linejoin="round" d="m165.938 253.58-.97.906.626.906.906.813.875-.657-.438-.875-1-.093.47-.907-.47-.093h0ZM161.813 255.017l-.532.281-.906.188v.969l1.625-1.25-.188-.188ZM171.625 256.11l-.906.157-.906.656v1.875l-.532.907.719.53.438-.905.906.093-.188-.906.375.906-.812.907h.906l.906.375.438-2.813-.438-.906-.906-.875h0ZM58.688 256.455l.062.656.188-.594-.25-.062ZM160.813 259.705v1l.625-1h-.625ZM169 259.705l-.094.718.469.907.531-.907-.906-.718h0ZM35.094 259.767l-.594.344-.031.031.468.906.876-.312-.72-.969h0ZM163.063 260.767l-.532.563.344.968 1.281 1.813.906.281-.375-.906-.812-.906-.281-.907-.531-.906ZM170.625 260.767l-.281.563-.063.968.875-.625-.531-.906ZM40.5 260.83l.063.468.03-.468H40.5ZM164.406 261.142l-.25 1 .906-.094-.656-.906h0ZM176.656 262.205l-1.25 1.468.969-.468.281-1ZM164.5 263.017l.719.906.093-.906h-.812 0ZM25.656 265.736v.437l.719-.156-.719-.281ZM1661.594 251.86l.906.47v-.47ZM1670.594 271.298l-.438.094-1.343.281-.907.906.094.875-.906-.062-1 .719-.25.875-.656.906.906-.344 1-.625.906-.656.875-.875 1.281-.562.438-.157v-1.375Z"/></svg>