<svg width="1671.094" height="856.393" xmlns="http://www.w3.org/2000/svg" xmlns:usvg="https://github.com/RazrFalcon/usvg" usvg:version="0.8.0"><path fill="#3e73c5" fill-opacity=".429" stroke="#000" stroke-opacity=".247" stroke-linecap="round" stroke-linejoin="round" d="M606.146.507V21.32h.282l.906.344 1.875.28.906.626 1.063.093-.875-.906-.563-1 .906-.156 2.063-.094 4.25.157 1.875-.72 1 .72.969-.625.906 1 .906.53.906-.25-.906-.374.188-.906 3.875-.344 3.125.093 1.093.438 1.875-.281 2 .375h1.97l1-.282 1.155-.093 2.97.281 1 .281 1 .157.968.718 1.094-.343 1 .343-1 .094.906.469.969.156 1-.531 2.062-.188 3.969.469 3.687.719 1.157.437 1 .906-1.97.72-1 .093-2.874.625-3.063.094-7.812-.532-2.813.094-3.156.25-.969.469-2 .094-1.78.53h-2l-1.97-.53-2.062-.375h-1.969l.969.187h1.187l.875.25.907.719-3.938.375-3.062.719-7.125.375.625.875-.344.906 1.781-1.438 2-.437 3.156.093.875.438-.343.906.968-.719.094-.906 1-.281 7.125-.438.969.72 1.094-.813 2.968-.813 1.782-.093 2.093-.532 3.063-.093 2.969.28 1.062.157 1 .375 1.781-.187 3.688.28 2-.093 2.156-.531 4.938-.625 1.093.531-.093.906.187.875-1.906 1.375-2.063.875 3.157-.625 1.968-.906 2.063.094.906.625-.187.906 1-.187 1-.72.968-.155 1 .625 1.813.343.969-.25.28.094v-29h-69.562 0Zm2.532 24.657-2.157.093-.375-.062v.312l1.625-.062.907-.282h0Zm-2.532 1.53v.063l.532.031-.532-.093Zm69.563 7.938-.281.094-2.875.437h-2.97l-1.968.438-2 .719-1.969.375-4.937.093-8.188-.53-4.062.25-2.063.374h-1.968c-.848-.326-3.144-.568-5.25-.687l.375.062.812.063 1.969.375 1 .625c-4.673 1.608-9.604 1.29-14.219 2.968l.094.907.344.906.906-.094 1-.531 2.969-1 3.968-.625h1.063l4.062-.719.907.719.875-.906 2-.438 7.812-.375 5.844.094 2.906.187.875.813.188.875-.532.906-2.968 1.094-3.97 1.156-1.968.375-1.094.813 1 .718-1 .094h1.094l1.875-.469.906-.53 6.938-1.813.906-.532 1.969-.375 1 .094.875-.156.562-2.813 1.875-.812 3.782-.156 1-.188h.53v-2.875h0Zm-41.438 1.469a7.95 7.95 0 0 0-.78.063l1.874-.063c-.397-.007-.78-.008-1.094 0Zm41.438 9.5-.438.438-1 .468-.625.907-3.593 2.687-.72.906-.187.907-.906.625-1.094.343 1 .094-.906.469-.531.968 2.969-1.53.437-.876.906-.469-.093-1h1l1.906-.78.875-.813 1-.657v-2.687h0Zm0 107.812-1.625 1-1.875.156.969.813h-1.875l-.907.281-1-.094.907.625-.094.906-.875.282-1.906-.47.906.813-1.813.72-.906.093.188.906-.907.094-.875-.28-1 .468 1 .062-.718.906-.907.531-.906-.343.531 1h-.906l-.625.875-.969.562h-.906l-.812.969-1.907-.156-.875.343-.468.532-.907-.157-.968.532h-.907l-1.875.53-1-.25-1.812 1.063-.906.375-.97-.375-1.812.907-.968-.282-.72-.906-.812.188v1.093l-.906-.187.719.906-.906.344-.813-.875-1.781-.281.875.343.719 1-.875.188-1-.094-.907.187-1.78-.625-.907.157-.375-.875-.906-.375-.875-.907-.907-.437-.28-.906-.907.375.469.875.906.28.625.907-.906.094.906.625-.094.906.438.875-.907.563-.875-.094-.906.437-.906.72-.906.374-.719.906-.906.157.187.906-.969.469.782.875-.875.187v.906l-1.813 1-.531 1.688-.625.906-.906.281-.188-.906-.437 1.875-.563.906-1.781.532-.906-.344.375.906-.907-.375h-1l-.906-.531.906.906-.625.906-.906-.094v.875l-1 .657-.875-.47-.906-.718-.813.906-1.812.438.094-.875-.72 1.781c-.924-.154-1.19-.412-1.437-.625v.094l.282.188-.282.968v380.75l.282.094 1.437 1.282 1.156.156.907.625 3.78-.062.907.062.969.375.656.906.438.969.53 2.437.72 1.907v.812l.468 1.063-.28 1 .374-.375.156.906v.906l-.437.438.281.094-.187 1 .25.437-.25 1-.625 1.531v.532l-.625 1.812-1 1.688-1.625 1.906-.094-.094-.531.375v.344l-2.063 2.343-.562.907-.625.187-1.782 1.344-.906-.375.25 1.094-.969.187.438.875-.906.563-.438.875.281.094-.375.718v216.313H579.74v13h26.406v25.375h69.563V481.319H654.74v-23.687h20.969V372.35h-44.281v-27.188h44.281V207.726h-11.625v-30.25h11.625v-24.063h0Zm-34.75 14.406.906.532-.969-.094v-.344l.063-.094h0Zm-34.438 14.938-.375.062v1.062l.375-.406.875-.562-.875-.157h0Zm4.032 2.781-.188 1-.531.344-.188-.906.907-.438Zm-2.782 1.969.907.187-.282.72-.625-.907Z"/><path fill="#8cce55" stroke="#0f380f" stroke-opacity=".145" stroke-linecap="round" stroke-linejoin="round" d="M640.281 36.455c.943.116 1.733.274 2.157.437-.424-.163-1.214-.321-2.157-.437Zm-7.875 2.593c-1.193.183-2.36.378-3.531.688 1.171-.31 2.338-.505 3.531-.688Zm-26.062 147.375c.222.17.556.354 1.25.469-.694-.115-1.028-.3-1.25-.469Zm-1 638.688-1 .281h.906l.375.875.906.563.875-.094 1.813 1.25 1 .437.875.657.656.875.875.812-.063-.719.875-.53.094-.907-.906.094-.875-1.875-1-.188-.906.094v-.907l-2.688-.375-.906-.343h-.906 0ZM631.126 566.052a2.362 2.362 0 1 1-4.723 0 2.362 2.362 0 0 1 4.723 0ZM645.622 542.364a2.362 2.362 0 1 1-4.723 0 2.362 2.362 0 0 1 4.723 0ZM645.268 643.126a2.362 2.362 0 1 1-4.723 0 2.362 2.362 0 0 1 4.723 0Z"/><path fill="#8cce55" stroke="#0f380f" stroke-opacity=".145" stroke-linecap="round" stroke-linejoin="round" d="M648.096 642.42a2.362 2.362 0 1 1-4.723 0 2.362 2.362 0 0 1 4.723 0Z"/></svg>