<svg width="1671.094" height="856.393" xmlns="http://www.w3.org/2000/svg" xmlns:usvg="https://github.com/RazrFalcon/usvg" usvg:version="0.8.0"><path fill="#3e73c5" fill-opacity=".429" stroke="#000" stroke-opacity=".247" stroke-linecap="round" stroke-linejoin="round" d="M49.969.517v144.719l1.437-.906.813-1 .875-.782 1.812-.906-.437.906 3.687.782.875.812-.875.906-.906.188-1 .437.906.563-.093.25 1.812-.094.344-.875 1.437-1.469.907.72.906-.532.906.625-.281.906.906.719 1.875.094 1-.625h1.813l.968-.282 1.906.563.876.062.906-.156 1 .25-.719.906-.094.907.906.28-1.812.157 1.906.188.906-.188.876.094-.72.906 1.907.094 1.781.531.188-.531 2.781-.531c.308.312.576.48.813.562.252.087.479.07.718 0 .31-.092.638-.265 1.063-.406a4.016 4.016 0 0 1 1.156-.219c.306-.01.64.027 1.031.094.196.034.404.066.625.125l.906-.094 1 .563 1.157.187.719.156.906.625.812-.343.531.28.813.063.531.47.906.437 2.782.375.906-.188h1.906l2.781.375.907.625.875.156.469.375 1.437.188 1.875-.094 1.094-.469 1-.062.344.437 1-.718 2.78-.188 1.813.375.969.344.625.375V.517H49.969Zm-8.837 264.734L.5 276.163v29.077h49.469v98.277l-49.407-.281v73.281H49.97l-.282 47.032h8.562l25.474 70.004v7.747H62.611l-6.93-27.41H.5v33.806h5.469v42.944h18.513v15.23h25.487v190.022H119.5l-.031-171.366h12.589v-9.103h31.814v-25.105l-18.903-42.988h-25.5l.031-214.782V228.393l-16.627 5.955-21.48 11.997-22.021 12.474Zm1600.209-55.935-73.653 65.451 46.5 30.75 56.406-.25v-25.593l-7.219 1.06V269.61l-22.034-40.85Zm-11.354 194.628v12.055h-10.269v-12.055h-5.53v25.686h35.319v47.23h21.055v-72.916Z"/><path fill="#8cce55" stroke="#0f380f" stroke-opacity=".145" stroke-linecap="round" stroke-linejoin="round" d="M1581.375 273.548a2.253 2.253 0 0 0-2.25 2.25 2.253 2.253 0 0 0 2.25 2.25c.299 0 .582-.05.844-.156a2.208 2.208 0 0 0-.157.844 2.253 2.253 0 0 0 2.25 2.25c1.25 0 2.25-1.008 2.25-2.25 0-1.243-1-2.25-2.25-2.25-.298 0-.582.05-.843.156.106-.262.156-.544.156-.844a2.253 2.253 0 0 0-2.25-2.25ZM1660.563 273.548a2.253 2.253 0 0 0-2.25 2.25c0 .145 0 .3.03.438a2.253 2.253 0 0 0-3.906 1.531 2.253 2.253 0 0 0 2.25 2.25 2.253 2.253 0 0 0 2.25-2.25c0-.145 0-.3-.03-.437a2.252 2.252 0 0 0 1.656.718c1.25 0 2.25-1.006 2.25-2.25 0-1.242-1-2.25-2.25-2.25ZM1639.313 277.517a2.253 2.253 0 0 0-1.97 3.344l-.406.25-.874.094.874.093.594-.187c.412.54 1.054.906 1.782.906.962 0 1.77-.595 2.093-1.438h.219l.188-.906-.47-.906h-.03a2.224 2.224 0 0 0-2-1.25h0ZM1644.938 278.36a2.253 2.253 0 0 0-2.25 2.25c0 .079.023.144.03.22l-.187.093h.188c.159 1.088 1.091 1.938 2.218 1.938 1.25 0 2.25-1.008 2.25-2.25 0-1.243-1-2.25-2.25-2.25h0ZM1602.563 279.455a2.245 2.245 0 0 0-2.25 2.25c0 1.242 1 2.25 2.25 2.25a2.253 2.253 0 0 0 2.25-2.25 2.253 2.253 0 0 0-2.25-2.25ZM1624.938 280.236a2.253 2.253 0 0 0-2.25 2.25 2.253 2.253 0 0 0 2.25 2.25c1.126 0 2.016-.835 2.187-1.906l.375-.282-.188-.875-.187.438c-.174-1.068-1.063-1.875-2.188-1.875ZM1627.5 282.548v.063c0 1.242 1 2.25 2.25 2.25a2.253 2.253 0 0 0 2.25-2.25 2.253 2.253 0 0 0-2.25-2.25c-1.23 0-2.217.973-2.25 2.187ZM1609.719 282.298a2.245 2.245 0 0 0-2.25 2.25c0 1.244 1 2.25 2.25 2.25a2.253 2.253 0 0 0 2.25-2.25 2.254 2.254 0 0 0-2.25-2.25ZM40.594 442.11l-.907.345.376.906.906.469.531-.72v-.905l-.906-.094h0ZM47.344 444.892l-.625.906.906.375.906.625.532-.562-.72-.969-1-.375h0ZM55.719 448.33l-1.907.343 1 .47.376.874 1.343-.25.094-.906-.906-.531ZM52.219 448.423l.531.875.344-.625-.875-.25ZM58.594 451.923l-.438.907-.812.875v.906l.343.906.094 1.906.813.344 1.812-1.25.875-.187.907-.532.28-.906-.906-.719-.28-.906-.876-.625-1.812-.719h0ZM1662.25 465.173a2.254 2.254 0 0 0-2.25 2.25 2.253 2.253 0 0 0 2.25 2.25 2.253 2.253 0 0 0 2.25-2.25 2.254 2.254 0 0 0-2.25-2.25ZM10.563 594.923a2.25 2.25 0 1 0 0 4.5 2.25 2.25 0 0 0 0-4.5Z"/><path fill="#8cce55" stroke="#0f380f" stroke-opacity=".145" stroke-linecap="round" stroke-linejoin="round" d="M13.688 598.36a2.25 2.25 0 1 0 0 4.501 2.25 2.25 0 0 0 0-4.5ZM102.906 612.455a2.25 2.25 0 0 0-2.25 2.25c0 .38.083.748.25 1.062a2.172 2.172 0 0 0-.656-.125 2.25 2.25 0 1 0 2.25 2.25c0-.376-.118-.72-.281-1.031.215.069.449.093.687.093a2.251 2.251 0 0 0 0-4.5h0Z"/><path fill="#8cce55" stroke="#0f380f" stroke-opacity=".145" stroke-linecap="round" stroke-linejoin="round" d="M107.781 612.986a2.25 2.25 0 0 0-2.25 2.25c0 .85.462 1.585 1.156 1.969a2.225 2.225 0 0 0-.874-.157 2.25 2.25 0 0 0 0 4.5c.274 0 .537-.066.78-.156-.312.386-.5.87-.5 1.406a2.251 2.251 0 1 0 1.5-2.125 2.22 2.22 0 0 0 .47-1.375c0-.852-.458-1.617-1.157-2 .27.114.565.188.875.188a2.25 2.25 0 0 0 0-4.5ZM90.969 614.11a2.25 2.25 0 1 0-.001 4.5 2.25 2.25 0 0 0 0-4.5Z"/><path fill="#8cce55" stroke="#0f380f" stroke-opacity=".145" stroke-linecap="round" stroke-linejoin="round" d="M95.656 614.486a2.25 2.25 0 1 0-.001 4.499 2.25 2.25 0 0 0 .001-4.5ZM63.688 618.36a2.25 2.25 0 1 0 0 4.501 2.25 2.25 0 0 0 0-4.5ZM119.594 619.173a2.251 2.251 0 1 0 .002 4.502 2.251 2.251 0 0 0-.002-4.502ZM130.563 619.236a2.25 2.25 0 1 0 0 4.5 2.25 2.25 0 0 0 0-4.5ZM102 620.642a2.25 2.25 0 1 0 0 4.5 2.25 2.25 0 0 0 0-4.5ZM114.563 621.017a2.25 2.25 0 0 0-2.25 2.25c0 .388.107.744.28 1.063a2.29 2.29 0 0 0-1.218-.344 2.25 2.25 0 1 0 2.25 2.25c0-.41-.09-.794-.281-1.125.355.233.762.406 1.219.406a2.251 2.251 0 0 0 0-4.5ZM66.813 622.736a2.25 2.25 0 1 0 0 4.5 2.25 2.25 0 0 0 0-4.5ZM118.938 624.142a2.25 2.25 0 1 0 0 4.5 2.25 2.25 0 0 0 0-4.5ZM138.313 625.798a2.25 2.25 0 1 0 .001 4.502 2.25 2.25 0 0 0-.001-4.502ZM105.625 625.986a2.25 2.25 0 1 0 .002 4.502 2.25 2.25 0 0 0-.002-4.502ZM115.344 627.298a2.25 2.25 0 1 0 0 4.5 2.25 2.25 0 0 0 0-4.5ZM128.031 627.33a2.251 2.251 0 1 0 .002 4.501 2.251 2.251 0 0 0-.002-4.501ZM87.469 627.486a2.25 2.25 0 1 0 0 4.5 2.25 2.25 0 0 0 0-4.5ZM120.969 628.673a2.25 2.25 0 1 0-.001 4.499 2.25 2.25 0 0 0 0-4.499Z"/><path fill="#8cce55" stroke="#0f380f" stroke-opacity=".145" stroke-linecap="round" stroke-linejoin="round" d="M92.063 628.736a2.25 2.25 0 1 0 0 4.5 2.25 2.25 0 0 0 0-4.5ZM24.313 629.798a2.25 2.25 0 1 0 0 4.5 2.25 2.25 0 0 0 0-4.5ZM144.625 630.486a2.251 2.251 0 0 0 0 4.5c.597 0 1.128-.245 1.531-.625a2.263 2.263 0 0 0 2.156 1.562 2.25 2.25 0 1 0 0-4.5c-.604 0-1.158.268-1.562.657-.285-.916-1.115-1.594-2.125-1.594ZM135.531 633.86a2.251 2.251 0 1 0 .002 4.503 2.251 2.251 0 0 0-.002-4.502ZM126.813 634.298a2.25 2.25 0 1 0 0 4.5 2.25 2.25 0 0 0 0-4.5ZM39.313 634.392a2.25 2.25 0 1 0 0 4.5 2.25 2.25 0 0 0 0-4.5ZM108.531 638.517a2.25 2.25 0 1 0 0 4.5 2.25 2.25 0 0 0 0-4.5ZM116.375 641.048a2.25 2.25 0 1 0 0 4.5 2.25 2.25 0 0 0 0-4.5ZM135.969 641.892a2.25 2.25 0 1 0-.001 4.499 2.25 2.25 0 0 0 0-4.499ZM150.563 644.392c-1.132 0-2.06.85-2.22 1.937a2.287 2.287 0 0 0-2.218-1.78 2.25 2.25 0 0 0 0 4.5 2.237 2.237 0 0 0 2.219-1.907c.221 1.01 1.142 1.75 2.219 1.75a2.25 2.25 0 0 0 0-4.5ZM135.719 647.486a2.25 2.25 0 1 0-.001 4.498 2.25 2.25 0 0 0 0-4.498ZM62.469 648.298a2.25 2.25 0 1 0 .002 4.502 2.25 2.25 0 0 0-.002-4.502ZM145.969 651.048a2.25 2.25 0 1 0-.001 4.499 2.25 2.25 0 0 0 0-4.499ZM87.625 655.236a2.25 2.25 0 1 0 0 4.5 2.25 2.25 0 0 0 0-4.5ZM1627.2 409.299a2.254 2.254 0 0 0-2.25 2.25 2.253 2.253 0 0 0 2.25 2.25 2.253 2.253 0 0 0 2.25-2.25 2.254 2.254 0 0 0-2.25-2.25ZM1622.603 408.945a2.254 2.254 0 0 0-2.25 2.25 2.253 2.253 0 0 0 2.25 2.25 2.253 2.253 0 0 0 2.25-2.25 2.254 2.254 0 0 0-2.25-2.25Z"/></svg>