<svg width="1671.094" height="856.393" xmlns="http://www.w3.org/2000/svg" xmlns:usvg="https://github.com/RazrFalcon/usvg" usvg:version="0.8.0"><path fill="#3e73c5" fill-opacity=".429" stroke="#000" stroke-opacity=".247" stroke-linecap="round" stroke-linejoin="round" d="m608.678 25.164-.907.28-1.625.063v-.312l.375.062 2.157-.093Zm-2.532 1.53.532.094-.532-.03Zm28.125 9.407c.315-.008.697-.007 1.094 0l-1.875.063c.198-.025.467-.055.781-.063Zm50.532.313-1 .718.718.907 1.907 1.53 1.062.282 1-.469-.906-.968-.906-.625-.813-.907Zm7.375 4.156-1 .531 2.875 1.25.906-.531-1.875-1.25Zm-3.157 16.937c-.896.076-1.524.646-1.156 2.032l3.875-.97c-.653-.7-1.822-1.137-2.719-1.062Zm-171.968 56.125-.97.282-1.905.187-.094.25h2.875l1-.437-.906-.282Zm.906 6.032-.906.28 1.906.813.906-.812Zm2.719 2.968.718 1 .875.625-.156-.906-1-.281Zm3.5 6.47-1.907.718-.968.906.968.375.907.094 2-1.719-1-.375h0Zm-2.72.562-.968.25-.375.906 1.906-1.063-.562-.094h0Zm3.532 3.5-1.906.812-.906-.094-.344 1 1 .344.875-.438 1.281-1.625h0Zm-2.344 3.875-1.093.718 1 .282.093-1Zm10.438 2.25-1 .094.281.968.906.188 1.688-1.063-1.875-.187h0Zm-1.438 3.156-1.718 1.156.625.906.906.25 1-.437-.188-.906Zm-6.468 6.906v.813l.968-.438Zm9.062 16.313-.531.875.906.094-.281-.907-.094-.062h0Zm106.719 2.156-.063.094v.344l.97.094-.907-.532h0Zm-34.438 14.937.875.157-.875.562-.375.406v-1.062l.375-.062Zm4.032 2.782-.907.437.188.906.531-.343Zm-2.782 1.968.625.907.282-.72Zm-73.437.375-.906.625.718.282ZM517.52 309.914l-.562.625v3.781h3.437v-3.781l-1-.625ZM466.21 839.476l3.156-.031 1.969-2.188-.094-2.75-.312-1.344-.313-1.25v-.968l.906.53.907-.343h.906l.906-.531 2.781.156 1-1.781-.906-.094-.906.187h-1l-.875-.28-2.719-1.25-.906-1-.875-.345-1.906-1.093-.813-.625-.093-.094-2.157-2.157-.812-1.812h-.875l-.906-.531.437-.907.906-.28-.437-.97-1.282-1.437 1-1.722-.28-.906-1.344-1.781-1-1.906-.969.375-.906-.625-1.094.25.906-.344 1 .094.906-.188v-.906l-.812-2.688-.625.344-.375.375.094-.187.28-.188.532-.531.438-1.906.375-.875.718-.907 1.782-.718-.25-1.375-1.532-.063-.28.156h-.345l.625-.156.907-.094.25-.719-.188-.469-.344-.25.438.25.719 1.344.906.812 1-.25.719-.562.718-.875.532-2.719-.094-.875.281-1 .531-.625.282-.28.906-.626.531-.906 2.781-1.625.907-.344.718-.906 1-.532.813-1-.813-.906-1.812.625-.188-.156.907-.188.906-.468.906-.719.344-1.781-.344-.907-1-.625-.906.188-2.688-.563c-.52-.592-1.133-1.113-1.718-1.625a18.197 18.197 0 0 1-.844-.78 5.938 5.938 0 0 1-.688-.782 3.582 3.582 0 0 1-.218-.375 3.026 3.026 0 0 1-.157-.344c-.02-.052-.046-.103-.062-.156-.009-.03.008-.064 0-.094a2.401 2.401 0 0 1-.063-.281c-.01-.082-.028-.165-.03-.25-.006-.127-.015-.24 0-.375 0-.01-.002-.022 0-.031.005-.05.022-.106.03-.156.018-.104.033-.205.063-.313.043-.157.116-.3.187-.469.072-.168.15-.35.25-.53v-.032c.04-.07.081-.148.125-.219.035-.055.088-.1.125-.156.14-.208.287-.426.47-.656l1.343-1.813.906-.906.906-.094.907-.344 1.062-.812.906-.094 1.907.281.156-.187-.438-.907.188-.906.906-.625.625-.906.25-.875.188-1-.438-1.813.156-.906.813-.875.375-.812.906-.72 1.875-.624-1.781-1.281-.719-.907 1.875-.875.906.063.72.906.25.907c2.632.448 2.638-.741 2.624-2.875l-.437-.907-.907-.343-.906.437-1 .188 1 .187-.093.969h-1.875l.156-.906-1.781-.438-1-1 .375-2.781-.72-1.781-.093-.907.156-.906.907-.437h.906l.906.531 2.688.969.906.656h1.812l1.875-.281 2.782-1.25.562-.907v-.906l-.906-.906.094-.906.625-2.157h.625l.437-1.78-.875-.907.875.344-.875-.719-.469-.969.094-.906.906-.531.906.718h.97l.905.25.907-.156.906.062c4.996-.505 11.399-1.493 15.75-4.03l.906-.72.063-.906.562-.906 1.625-1.875 1.063-1.813.718-.906.094-1.781-.375-1.344-.062-.094-1 .156-.907-.53-.718-.97-.282-.906.094-.719 1.094-1.812c-2.835-4.385-4.89-1.735-6.656-5.844l.718-.281.094-.156-.281-1v-.625l-.438-1.282.094-.875.438-.906.093-.906.625-.094.281-.188.344-.812-.344-1.875.063-.531.562 2.875-.625.343v.094l-.28.094-.532 1.625-.188 1.813.094.531.625.906 1.719 1.688.344.625.906-.25h2.156l1.813 1.344 1.875.437 1 .72c2.885-1.337 2.874-.775 4.562-.22.241.08.52.145.844.22l.875-.064 3.062-1.375.813-.875.906-.469.281-.968.813-.907.25-.906.469-.625 2.78-2.344.72-.906.53-1.156v151h69.563v-25.375H579.74v-13h26.406V601.19l.375-.718-.28-.094.437-.875.906-.563-.438-.875.97-.187-.25-1.094.905.375 1.782-1.344.625-.187.562-.907 2.063-2.343v-.344l.53-.375.095.094 1.625-1.906 1-1.688.625-1.812v-.532l.625-1.53.25-1-.25-.438.187-1-.281-.094.437-.438v-.906l-.156-.903-.375.375.281-1-.468-1.063v-.812l-.72-1.906-.53-2.438-.438-.969-.656-.906-.969-.375-.906-.062-3.781.062-.907-.625-1.156-.156-1.437-1.281-.282-.094v-380.75l.282-.97-.282-.187v-.094c.247.213.513.472 1.438.625l.719-1.78-.094.874 1.812-.437.813-.907.906.72.875.468 1-.656v-.875l.906.094.625-.907-.906-.906.906.531h1l.907.375-.375-.906.906.344 1.781-.531.563-.907.437-1.875.188.907.906-.282.625-.906.531-1.687 1.813-1v-.907l.875-.187-.782-.875.97-.469-.188-.906.906-.156.719-.907.906-.375.906-.718.906-.438.875.094.907-.562-.438-.875.094-.907-.906-.625.906-.094-.625-.906-.906-.281-.47-.875.907-.375.281.906.907.438.875.906.906.375.375.875.906-.156 1.781.625.907-.188 1 .094.875-.187-.72-1-.874-.344 1.781.281.813.875.906-.344-.719-.906.906.188v-1.094l.813-.188.719.907.968.28 1.813-.905.969.375.906-.375 1.812-1.063 1 .25 1.875-.531h.907l.968-.531.907.156.468-.531.875-.344 1.907.156.812-.969h.906l.97-.562.624-.875h.906l-.53-1 .905.344.907-.532.718-.906-1-.062 1-.469.875.282.907-.094-.188-.907.906-.094 1.813-.718-.906-.813 1.906.469.875-.281.094-.907-.907-.625 1 .094.907-.28h1.875l-.97-.813 1.876-.157 1.625-1h.906l.906-.906c-2.39-.28-4.983.841-7.406-.25h-.875l-3.781-1.281-.906-.094-.907-.344-1 .625.375-1h-1l-.906.281-2.781 1.157-.906.094-.875-.344-.907-.094-1 .531-.718.906-.344.72-.906.28-.47-.718-1.874.343-.906-.53-1 .187-.875-.375-.47.094-3.5.718c-.31-10.59 2.643-28.327 11.063-35.375 3.428-2.586 8.017-4.82 12.438-3.687l8.25 1.531.469.094 1.875-.094.906-.344.187-1-1-.906 1 .469.907.625 1.875-.281 1.968.28h1.813l.812.876 1 .75 1.625.25.97-.094.905-.438.625-.906.375-.906-1-.813-.625-.875-.906.532-.906.25-.969-.25-.906-.47-3.781.282.906-.187.969-.625-.72-.907.563-1.875-2-.53-1.875.968-1 .281-.906-.281-.719-.875-.968-.469.875.188 1.906 1.062c1.814-.564 1.869-1.779 4.687-1.156v-.906l-1-.344-.906-.625-1-.375-.875-.719-1.906-.281h-1l-1.781-.438 1.875.344h1l1.875.281-.875-.812-2-.813-.875-.187.968-.062 2.875 1.062.907.532.906 1 1.875.718 1.906-.437 1 .344v1.093l.969.344.906.094.906-.906.25-1.781-.062-.907-.719-1-.094-.25c-6.162-.482-14.116.812-15.843-6.937-.532-3.829.301-11.273 4.687-12.969v-.531l.875-.906.719-.97-.875.438.344-1 1-.53-.907-.72 1 .094.907-.812-.375-1 1-1.875.812-.907-1.094-.531-1-.094 1.907-.375-.469-.906.906-.719 1-.343.906-.094 1.875.187.47-.187.437-.906-.438-.625v-.625l1.344-.282.906-.625.781-1 1 .47-.093-.907h-1.969l-.906.906.625-.906.187-.906-.531-.907.813-.968-.188-.907 1-.812.969-.438 3.781.532.906-.188 1-.625 1.782-1.719.375-1.156c-3.07-1.574-5.244.744-7.844-.094l-.906.094-.97.531-2.062.532-.656.906-.25.906.906-.187v.187l-.906.375-1.906-.812.281-1 .281-.532-.281-.375.281-.718.969-.25 1.906-1.47.969-.155 5.875.812 1.875-.281 3.875.094.906-.188 1.875-.812-.437-.907.906.282.969-.72.625-.905-.875-.188-3.063-.156-1.906-.719-1.969.625-2.968.25-2.063-.437-2-.094-.969-.344-1.906-.187-1 .187-.875.625-1 .188-.906.625-1.063-.625-1-.282c4.614.713 2.972-1.832 7.75-.906l1.063.281 3.062.157 1-.157.875-.562 1-.156.094-.907h1l.906.532 1.969-.094 2.969.469 2.781-.375.906-1 4.844-.625.187-.875-1.062-.657v-.875l.969-.187h2.875l.906-.188 1.094-.625.906-.906 1.875-.344.625-.906 2.875-1 .906-.531v-.906l-.906-.188-1.969-1.156-.906-.281-.969-.25-3.875-.563-2.875-.812-2-.157-2.969.25-1.78-.25-1.907.157-1-.25-1.063.906-1-.094-.906.25-.969-.156.625 1.781-1.093-.344-.969.063-.188 1 1 .375-.906.437-1 .094.375.906-1.812.188-1-.563-1.063.188-.906-.719-1.875-.187-2 .625-.969.656-1 .344.188-1.97.968-.562c-4.097-.427-6.39 3.584-9.718 4.875l-1.063.532-.906.53-1 .657-.875.813-1.906.78h-1l.093 1-.906.47-.437.875-2.97 1.53.532-.968.906-.469-1-.093 1.094-.344.906-.625.188-.906.719-.907 3.593-2.687.625-.906 1-.469.438-.438 1.344-1.343.468-.907.532-1.875-.282-2.718-.718-.969-1-.281h-.875l-1 .187-3.782.156-1.875.813-.562 2.812-.875.157-1-.094-1.969.375-.906.531-6.938 1.813-.906.531-1.875.469h-1.094l1-.094-1-.719 1.094-.812 1.969-.375 3.969-1.156 2.968-1.094.532-.906-.188-.875-.875-.813-2.906-.187-5.844-.094-7.812.375-2 .437-.875.907-.907-.72-4.062.72h-1.063l-3.968.625-2.97 1-1 .53-.905.095-.344-.907-.094-.906c4.615-1.679 9.546-1.36 14.219-2.969l-1-.625-1.969-.375-.812-.062-.375-.063c2.106.12 4.402.362 5.25.688h1.968l2.063-.375 4.062-.25 8.188.531 4.937-.094 1.97-.375 2-.718 1.968-.438h2.969l2.875-.437.281-.094.719-.281.531-.907 3.875-1.343-.344-.907-2-.812-.906-.156-1.875-.72-.281-.093-.969.25-1.813-.344-1-.625-.968.157-1 .718-1 .188.187-.906-.906-.625-2.063-.094-1.968.906-3.157.625 2.063-.875 1.906-1.375-.187-.875.093-.906-1.093-.531-4.938.625-2.156.531-2 .094-3.688-.282-1.78.188-1-.375-1.063-.156-2.97-.282-3.062.094-2.093.531-1.782.094-2.968.813-1.094.812-.969-.719-7.125.438-1 .281-.094.906-.968.72.343-.907-.875-.438-3.156-.093-2 .437-1.781 1.438.344-.907-.625-.875 7.125-.375 3.062-.718 3.938-.375-.907-.72-.875-.25h-1.187l-.969-.187h1.969l2.062.375 1.97.532h2l1.78-.532 2-.093.97-.469 3.155-.25 2.813-.094 7.812.532 3.063-.094 2.875-.625 1-.094 1.969-.719-1-.906-1.157-.437-3.687-.72-3.969-.468-2.062.188-1 .53-.969-.155-.906-.47 1-.093-1-.344-1.094.344-.969-.719-1-.156-1-.281-2.969-.281-1.156.093-1 .282h-1.969l-2-.375-1.875.28-1.093-.437-3.125-.093-3.875.343-.188.907.906.375-.906.25-.906-.532-.906-1-.969.625-1-.718-1.875.718-4.25-.156-2.063.094-.906.156.563 1 .875.906-1.063-.094-.906-.625-1.875-.281-.906-.344h-.282V.507h-69.562 0v35.469l-.188-.094-.718-.906-.875-.25h-1l-1 .813.093.875.907.812 2.78.719v.469l-1.78-.47-.282 1 .094.907-.812.906-.907.438-1 .812.094 1.782-.875-.063-.469-1-.187-.906 1.375-1.875.156-.906-.531-1 .281-.907c-3.542-3.838-4.085-2.88-9.469-1.968h.907l.906.375.531.875-.969-.157-.906-.562-1.906-.344-.969.188-.562.875-.97-.532h-1l-2.968.532-2.969.28-2.875.438-.906.375-2.875.719 1 .625 2.781.813 1.532 1.875 1.062.656 1 .093 1.969.97.906.812 1.094.718.969.188.906.437-2.969-.625-.812-.906-1.97-.875-1-.093-1.874-.47-.906-.343-.72-.906-.187-1-1-.438-3.125-.281-1.812-.437-2.688.437-2.812 1-.875.625.531.906 1.875 1.532.281.906-1 .437-.718 1 .468.907.813.875-.906.468-.907.094-1 .437-2.968-1.343-1.875-.094-1.094-.281-.906.093-.97.375-.468.875.375.907.531 1 1.813 1.812-.906-.375-.72-.906-.905-.813-.907-1.78-.875-.282-1 .812-2.968.813-1 .094-.25.906-1 .344-.282.906-1.968.531-.907.469.907.344-1.907-.094-.968.625-2.97.719-.374 1-2.875 1.343v.907l.719.906 1.906 1.062 1.969-.343.906.093.969.72 1 .093 2.968-.813 1 .188 1.782-.281 1.093-.375.907-.625.906.375.969.093-1.97.157-.905.656-2.157.344-.906.375.281.875.188 1.812-.094 1 .813.875-1.469 1.813-1.875 1-.906.968-.969.72-1.094.187-1.094-.344h-.875l-.906.344h-1l-.969-.25-1.28.25-.532.093-.906.532-.5-.125-.5-.125h-.438l.281.437 7.563 12.063 9.25 14.124.469.813.156-.375.719 1.906h1l.906-.531.906-.906.969-.625 2 .531.969.531h.906l1-.25.906.531 1.875.438 1 .187.906-.187 1.875.562.188.875h2.875l.906.563v.344l.969-.25.906.437-.906.72.906.187 1-.47h.906l-.375.907 1 .188.97.437.905-.25 1 .094 1.063 1.781-.156.907-2 .625 1.906-.282-.813.907.907.812.906.188-.281.906 3.406 1.531 1 .156 1 .657-.906.437.531 1 .906.094 1 .344.969.906.906-.094-.906.813-1.875.187 1 .344h1.875l-.906.469-.969.062.875.375-1.875 1-1.813.437 1 .188 1-.094.875-.282 1.907-.968-.625 1.78.968.376.657.906.875.438-.625.906 1 .625-.907-.188-1 .72 2 .718.532.906 1.875.813.187.343-.969-.156-.718.875.968.281-1.875 1 1.782.813 1-.188.906.344.625.906.187.907-.906.187 1 .25-.562.906-.969.72.969.562.906.25.906-.188-.906.281-3.688-.28-.906.28 1.813.907.906-.47.969.563-.532.907-.906.53-1.687 1.97.968.375 2-.282.875-.625.625-.906-.343 1-.907.625-.906.438h-.969l-.906.187.438.906-.969-.28-1.906 1.093 1 .437.437 1 .906.907.907-.563 1 .281.875.625h1l.906-.094 1.781-.53.656-.907-.468-.969.906.062-.188-.875.907-.094.906-.719-1-1.906-.906-.719-.094-1.312.375.781.719.906.906.72.094.905.875.813.906-.188-.25.438-.906.719.968.187h1.813l.625.313v.843h-.063c-.148.034-.285.104-.437.157-.144.052-.29.112-.438.187-.097.048-.212.097-.312.156-.07.044-.146.075-.219.125a5.246 5.246 0 0 0-.687.563l2.156.187v.407l-.188-.062-1.875-.344-.906.344v.812l.906.906.907-.187 1.156-.719v4.625l-.813-.312-1.875-.25-1.906.062-.875-.25-1.906-.282-1 .282-.875.437.062 1 2.907 2.063 2.781.28.906.25 1.969.72.625.625v2.187l-.719-.187-.906-.72-.813-1-1.78-.905-3.782-.719h-1l-.906.375-.875.812.093.907.782.531 1.812.719-1.875-.438-.906.156-.375.907 1 .468.906.625-.906-.375-.906.72.906.624.906.188 1.875.094 1.906.718.97-.718.562.906h-1l-.907.187-1-.187-.875.719.875.25 1 .562 1.25.094 4.688-1.375v5.688h-.25l-1.813.531.907.187 1.156-.125v.97l-.344.155.344-.03v.25l-1.344.75-1.875.562.969.062.906-.25h.906l-.906.437 1-.094.344.313v.594l-.344-.188-.906.281 1.25.5v.062l-3.219-.843-.906.187.906.188 1.875 1.25 1.344.187v.25l-.344.031-1-.375-.906-.531-.906.094.906.344-.906.187-.438.906-.906-.187.906.437-.906.188-.906-.094.562.906-.906.719.906.625.969-.438 1.812-1.437 1.813-.281.25-.125v.468l-1.344.125h.906l-1.812.344-1.875 1.438-.906.281-1 .531-.157.906.875.532 1.813-.719 1 .281 2.5-.656v.469l-.969.094-.906.25-2.719.187-1.781.719.906.469h.875l-.875.156.875.469.906.094-1.78.094.874.625 1.906-.188 1.875.188.813-.5v.937l-.813-.094-.906.281h.906l-.906.625h-.875l.875.188.906-.094-.906.437-1.875-.094-.906.657.906.343.906.094.907-.187 1.78.187v.031l-.812.157-.906-.188-1.875.375-.906-.094-.906.875.093.906.907.188.906-.188-.906.282-.907.812 1.094.25 1.781-.625 1.907-1.437.53-.282v.188l-.53.375-.907.906-2.78 1.25.905.281-.906.25.906.375.875-.468-.875.562.875.344 1.813-.719.625.344v.344l-.813-.407-1.875.97h.907l-.907.562.907.437.875-.906-.25 1.812.906-.187-.188.906.438.094V523.35l-2.063-1.969-.28.094-2.25-.531-.876-.657-.906-.156-.906 1.531-.375.25.562-.906.25-.875-.969-.625-3.687-.562v.625l-.656.187-.97-.625-1.812-.094-.906.47.188.155-.094.813-.906-.813-1.782-.437-2.343-.281-.094.187h-.25l-.281 1.25-.531.906-.094.188.156.906.094.156-.344.907c-4.089.148-1.819 1.8-3.594 4.062l.25.906 1.344 1.782.375 1h1.437l.532 1.53v.907l.562.438.969 1.906.906 1.437 1 .344-.742.326-3.691-.198-1.007 1.153-4.793 1.33.034.658-1.406.424-.754-.549.517 7.967.652.208.144 1.155.608.296.667.499.046.835.606.347.524.522.697.611.682.339.796.498.532.28.698.289.836.106.426.503.515.094.152.705.65.24.795.193.07.627 1.06-.12.83.434-.51.547-9.066 19.55-.592.445.233.665.345.803.714.446.307 1.297.539.455.387.856.406.851.022.692.367.697.504.245-.042.75-.107.565.153.7.508.727 1.032.447.118.436 1.067.506.12.82.519.004.828.499.57-.001 1.038.234 29.271 1.804-.281.719-.875 2.156-.563.907v1.968l-.531 1.344c.035.46.06.92.093 1.375l-.093.438.187.562c.017.237.014.481.031.719l-.03.344.093.312c.038.508.082 1.018.125 1.531l-.031.5.156.969.563.188-.47 2.062-.905 1.813-.25.187v1.781l-.375.282-.25.812v.906l-.375 1.344-.188.531-.625.438h-.906l-.531.469-.532.906-.812 1.969v.187l-.906.625-.97.094h-.093v.094l-.281.437-.906.75-.72.594v1.344l-.718.906-1.062.906-.47.907-.187 1-.156.437-.094 1 .907 1.781v.907l.25.906 1 .344-.532.906.157.187 1.437.094h.375l3.688 1.97 1.093.187.875.53 1 .376.375.625-.28.906v1.594l.093.469-.719 1-1 .437-.812.906-.344.97v.374l-.375.438-.813 1.187.094.625-.625.906-.437.344-.282.906v.094l-1.093 1.532-.094.187-.531.313-1.344.843-.906.72-.72.905-1.968.813-.281.625-.25 1.094v.062l-.094.187-.375.375-.625.25c-.785 1.456.021 2.2-1.625 3.25l-.094.906.188.532-.906 3.156-.188 1.156-.531.906v.813l-.188.375.188.719-.25 2.156-.281 1.062-.375 1-.875.625-1 .907-.188-.094-.906.28-.719.97-.437.906-.438.281-.812-.562h-.907l-.812 1.093-.906-.437h-.532l-1.906.062-1.156-.157-2.688-.718h-2.906l-.437.094-.282-.656 1.438-1.438.812-1.437v-.72l.094-.812.563-.875.25-.187.375-.281.437-.907.531-.875.657-.906-.563-.906-.187-.094-.063-.188-1-.812-.906-.344-1-.094-.344-.437-1.812-.657-1.063-.718-1-.438-1.719-1.344-1.687-1.093-1.438-.094h-.093l-2.063-.72-1-.25-.625-1.093-.906-.625-1.906-1.094-.875-.875-.47-.812-.812-.906-.25-1-.375-.188-.25-.062-.906-.656-.28-.437-.72-1.156-4.125.156-.093.094-.469-.187-.969.718-.469.907-.187.468-.25.344-.531 1.813-.375-.813-.188-.906-.969-1.719-1.53-.437-.813.094h-.094l-1.906-.094v.094l-.875-.094-.906-.813-1.094-.625-.625 1.625-1.813.531-.062.625-1.719 1.72-.281.53.812.813-1.149 2.113-.885-1.034-3.196-.13.063-1.27-1.596-6.257-1.458-1.531.19-1.398-1.274-1.313-.093-1.573.956-.72-.566-.758c.251-.491.771-1.135 1.257-1.508l-2.573-2.208-.43-4.36-1.249-.412-.924-2.192-.094.812-.813 1-.468.157H454l-.375.28.469.345-.188.906.188 1.812.437 1.875.438 2.875-.344 1.813v1.906c.557 1.32.593 2.625.438 3.938-.156 1.312-.512 2.636-.75 3.968-.08.445-.146.865-.188 1.313-.044.458-.05.911-.031 1.375l-1.375 1.531v.906l.906.282c-.08.555-.189 1.123-.281 1.687-.017.105-.015.208-.031.313-.1.628-.193 1.242-.25 1.875-.002.02.002.042 0 .062-.004.042-.028.083-.031.125a11.6 11.6 0 0 0-.032.969v.031c.002.293.01.587.031.875.005.051-.005.105 0 .156.022.231.055.458.094.688.077.442.184.876.344 1.312v.907l-.813.875h-51.245v62.646h35.81l.08 1.905.802 1.267-.136 2.941.57 4.137.856.851-1.402.796.027 1.202-.698.056-.177 1.114-1.47 5.058.923 3.364-1.012 2.065-.69 1.767-.121 3.065-.235 1.206-.584 1.472-1.832 1.845-4.35 17.77.706 10.342-.364 3.09c-.109 2.328.19 4.656.914 6.984l.33 1.985-.644 1.543.972.699.639 2.594-.485 2.542.664 1.753c.47.848.817 1.635 1.923 2.802l.04 2.604 1.74 1.994.336 1.447 1.558 1.963 1.58-.213.57 3.046.858 1.01 1.073-1.003.955.825 1.24.84.5.87 1.747 1.218.464.755 2.943 1.388 1.282-.323 6.117 2.47 1.3 1.224 4.119-.134 3.516 2.198Z"/><path fill="#3e73c5" fill-opacity=".429" stroke="#000" stroke-opacity=".247" stroke-linecap="round" stroke-linejoin="round" d="m481.875 829.423-.875.282-.813.906 1.688-.813.906.25.906-.625h-1.812ZM435.99 768.32h.906l-.562.906-.531.25-.72-.906ZM437.334 770.57h.375l.625.906-.906.532-.907-.625ZM438.584 752.757h.562l.094.875.344.906-.719.907-.094.437.813.656v.25l-.813-.906-.187.563-.438.906.907.625-.47.875.563.75-.375.25-.343.906-.907.72-1.906-.439-.156-.906.719-1.906.156-.875-.344-.906.719-2.719.094-.875.906.156.875-.25ZM513.152 805.408v10.959l-18.738.177v-11.136Z"/><path fill="#8cce55" stroke="#0f380f" stroke-opacity=".145" stroke-linecap="round" stroke-linejoin="round" d="m626.688 19.705-3.875.343-.188.907.906.375-.906.25-.906-.532-.907-1-.968.625-1-.718-1.875.718-4.25-.156-2.063.094-.906.156.563 1 .875.906-1.063-.093-.906-.625-1.875-.282-.907-.343h-.28l-.813-.188-1.063.094-.281.969 1 .375-.906.093-3.969-.718-.094.906.47.969.812.906 2.062-.094 2.781.563.375.062 2.157-.094-.907.282-1.625.062-1.53.031-1.97.188-1.812.344.906.53 2.969-.155 1.437.25.532.093-.532-.03-1.53-.063-5.032.187-.906.188.906.625.625 1 1.094.343-1.188.282-1.781-1.25-1-.47-1.094-.187h-3.844l-1-.25-2.968-1.343-1-.282h-1l-.72-.906-1.062-.344h-1l-2.062-.468h-1l-.875.093.875.375-.969.25h-2.812l1 .47 1 .093 1.968.531-1.968-.281-1.907.187-2.062-.437h-2.063l-1 .437-.906-.437-.969.437H569l2.875 1.438 3.875.812 3.063.094-1.813.188-3.156-.375-.969-.282-2 .375-.437-.718-1.094-.188-.969-.281-.906-.438-1-.187-.907.281-.968.094-1 .719 2.156.187.906.719-2.062-.563-1.094.375.906.532 1 .28 1.969.188 1-.375.969.282h1l.906-.625 1 .25.875.468h12.25l4.063.72 2.968.812 1.063-.094 1.187.344.532.906-.282.906.188 1.875-.907-.719-.187-.906-.875-.719h-1l-1.906-.875-.969-.28-.906-.532-1-.188-.907.532.907 1.812-.907.344-.53-.906v-.875l-.907-.282-.625-1-2.063-.156h-4.78l-2.063.156-5.938-.156-1.062.719 1.875.625 1.812.906.969.25 1 .906 1 .188 1.875.625-.188.906 2.907.625h2.156l1.875.719h-1.063l-1-.375-3.062-.063-2.969-.656h-1.093l-.97.188-.905.53.093.907.906.906-.906.375-1 .72 1.969.53-.969.188.906.437.875.907-1.968.437-1.97-.25-1.812-1.281-1.968-.625-.563-1-.969-.438-4.78-1-2.97-1.25-2.968-.53-1.875-1.345-.907-.28-2.968-.438-4.97.062-.437.906.907.72.53 1.905 2.782 1.782 2.813 1-1 .812h-1l-.907-.281-3.03-.25-1-.281.53.906 1 .187 1 .875 1.875.375 1 .907 1.063.156-.969.375-.906-.094-.906-.344-.625-.906-1.907-.562-2.968-1.344-2.157-.156-1.875-.657-1.093-.25-1.782-.468-.28 1 .093.906-.813.906-.906.438-1 .812.094 1.781-.875-.062-.469-1-.187-.906 1.375-1.875.156-.907-.531-1 .281-.906c-.443-.48-.854-.88-1.219-1.219-.74-.689-1.33-1.115-1.937-1.343-.15-.058-.287-.09-.438-.125a3.87 3.87 0 0 0-.937-.094c-.497.005-1.04.069-1.688.187-.863.158-1.904.398-3.25.625h.907l.906.375.531.875-.969-.156-.906-.562-1.906-.344-.969.187-.563.875-.968-.53h-1l-2.969.53-2.969.282-2.875.437-.906.375-2.875.719 1 .625 2.781.812 1.531 1.875 1.063.657 1 .093 1.969.97.906.812 1.094.718.968.188.907.437-2.969-.625-.813-.906-1.968-.875-1-.094-1.875-.468-.906-.344-.72-.906-.187-1-1-.438-3.125-.281-1.812-.438-2.688.438-2.812 1-.875.625.531.906 1.875 1.531.281.907-1 .437-.719 1 .47.906.812.875-.906.47-.907.093-1 .437-2.969-1.343-1.875-.094-1.093-.281-.906.093-.97.375-.468.875.375.907.531 1 1.813 1.812-.906-.375-.72-.906-.906-.813-.906-1.78-.875-.282-1 .812-2.969.813-1 .094-.25.906-1 .344-.28.906-1.97.531-.906.469.906.344-1.906-.094-.969.625-2.968.719-.375 1-2.875 1.343v.907l.719.906 1.906 1.062 1.969-.343.906.093.969.72 1 .093 2.968-.813 1 .188 1.781-.281 1.094-.375.906-.625.907.375.969.093-1.97.157-.906.656-2.156.344-.906.375.281.875.188 1.812-.094 1 .813.875-1.47 1.813-1.874 1-.906.968-.97.72-1.093.187-1.094-.344h-.875l-.906.344h-1l-.969-.25-1.281.25-.531.093-.906.532-.5-.125-.5-.125h-.438l.281.437 7.563 12.063 9.25 14.125.469.812.156-.375.719 1.906h1l.906-.53.906-.907.969-.625 2 .531.969.531h.906l1-.25.906.532 1.875.437 1 .188.906-.188 1.875.563.188.875h2.875l.906.562v.344l.969-.25.906.437-.906.72.906.187 1-.47h.906l-.375.907 1 .188.969.437.906-.25 1 .094 1.063 1.781-.156.906-2 .625 1.906-.281-.813.906.906.813.907.187-.281.907 3.406 1.53 1 .157 1 .656-.907.438.532 1 .906.093 1 .344.969.906.906-.093-.906.812-1.875.188 1 .344h1.875l-.907.468-.968.063.875.375-1.875 1-1.813.437 1 .188 1-.094.875-.281 1.907-.969-.625 1.781.968.375.657.907.875.437-.625.906 1 .625-.907-.187-1 .719 2 .718.532.907 1.875.812.187.344-.969-.156-.718.875.968.28-1.875 1 1.782.813 1-.187.906.344.625.906.187.906-.906.188 1 .25-.563.906-.968.719.968.562.907.25.906-.187-.906.28-3.688-.28-.906.28 1.813.907.906-.469.968.563-.53.906-.907.531-1.688 1.97.97.374 2-.281.874-.625.625-.906-.343 1-.907.625-.906.437h-.969l-.906.188.438.906-.97-.281-1.905 1.093 1 .438.437 1 .906.906.907-.562 1 .28.875.626h1l.906-.094 1.781-.531.656-.906-.468-.97.906.063-.188-.875.907-.093.906-.72-1-1.905-.907-.72-.093-1.312.375.782.719.906.906.719.093.906.875.812.907-.187-.25.437-.907.72.97.187h1.812l.625.312.281.125 1 .094.875-.094 1.813-.719-.532.907c-1.355.462-2.373.297-3.437.53-.02.005-.043-.004-.063 0-.149.035-.285.104-.437.157-.144.052-.29.113-.438.188-.04.02-.084.04-.125.062-.063.03-.127.058-.187.094-.054.033-.101.056-.157.094-.02.011-.042.017-.062.03-.221.154-.45.338-.688.563l2.157.188.625.062 2.906-1.062 1.875.187-1 .25-1.781.188-1 .375-.438.875-.906.469.906.343.875-.437 1-.719.907-.281.437.906h-.969l-1 .281-.906.625 1 .25.906-.156.875.156.907-.156.53.875.907.094-.906.468-2.782-.812.907.812.906.438.969.187.906.344.906-.25.625.969h-.906l-.969-.25-1 .344.907.468 1.968.344-.968.188.875.625-.97.187-.905-.375 1.875 1.375.906-.906-.438.906-.906.531-1-.093-3.688-1.156-2.78-1.625-.188-.063-.813-.312-1.875-.25-1.906.062-.875-.25-1.906-.281-1 .281-.875.438.062 1 2.907 2.062 2.78.281.907.25 1.969.719.625.625.281.281.906.563h.969l.906.25 1 .093.438.094-.094.188.906-.188.907-.531.906.531H543l.875.281 1.281-.28.907-.438.968.062.094.375-1.25.813.906.28.532.876-1.907-.156-.875.875h.875l.907.625-.907-.25-.875.25-.281 1 1-.188.875-.344.906.282h-.906l-1.781.625-.625.968-.282.907.907.093.906-.187.875-.813-.063.907.875.468-1.78.344.905.375h.875l-.875.25.625.906-.906-.437-.625-.906-.906-.375-1 .093v1.72l-.438.343v.906l.907-.25.968-.094-.343.97-.907-.095-.625.907-1 .187-1.78.094-1-.375h-.282l-1.531.187-.625.313-.344.156.344-.031.531-.063-.531.313-1.344.75-1.875.562.969.063.906-.25h.906l-.906.437 1-.093.344.312.531.5 1.813-.437h.906l1-.282.875-.625-.875-.625.875.188 1-.094.906-.375.969-.093-1.875.625.093.906-1 .281.907.094.906.531-.906-.187-.907.187 3.782 1.625 1.812.344h-1l-.906.187-2.781-1.25h-3.688l-1-.187-1.437-.719-.344-.187-.906.28 1.25.5.531.22-.531-.157-3.219-.843-.906.187.906.188 1.875 1.25 1.344.187 1.437.188-1.437.062-.344.031-1-.375-.906-.531-.907.094.907.343-.907.188-.437.906-.906-.187.906.437-.906.188-.907-.094.563.906-.906.719.906.625.969-.437 1.812-1.438 1.813-.281.25-.125.718-.406.907-.282h.906l1-.343-.906.53h-1l.812.907.907-.094 1.78.282-.343-1 .969-.625.906-.188-.906.625.187.906 1.813-.093.25-.907 1.906.47-3.688.968c3.236 1.816 2.382-.896 5.407.094v.187l-.907-.281-2.78.812.968.813 1.906.187c-3.323.389-2.167-.333-4.687-1.093l-.907-.344-1.875.344-1-.532-1.812-.53-.531.062-1.344.125h.906l-1.812.343-1.875 1.438-.907.281-1 .531-.156.907.875.53 1.813-.718 1 .281 2.5-.656.281-.062.906-.094 2.782.25.906-.25.968-.094-.875.281.25.875.907.813 1.875-.438 1-.093 1 .187-1.907.094-1.875.437-.906-.625-.718-.906-1-.187-.875.093-.907-.25-.906.063-.906.375-.969.094-.906.25-2.719.187-1.781.719.906.469H532l-.875.156.875.469.906.093-1.781.094.875.625 1.906-.188 1.875.188.813-.5.093-.063.907.47-.907.53h-.093l-.813-.093-.906.281h.906l-.906.625H534l.875.188.906-.094-.906.437-1.875-.093-.906.656.906.344.906.093.907-.187 1.78.187h.094l-.093.032-.813.156-.906-.188-1.875.375-.906-.093-.907.875.094.906.906.187.907-.187-.907.281-.906.813 1.094.25 1.781-.625 1.906-1.438.532-.281 1.28-.688.876-.812 3.781-2.344 1.813-.719 1.875-.468-.875.28.875.188 1.906.094-.906.063-1.813-.157-.969.157-.093 1 1.875-.094-1.875.281-.907-.281-.906.094-1.875 1.187-.906.344-.906 1-.907.531-.968.281-.375.25-.532.375-.906.907-2.781 1.25.906.28-.906.25.906.376.875-.469-.875.563.875.343 1.813-.718.625.343.375.188 2.687-1.156.625.906-.906-.469-.875.281-.813.907-1-.282-.093-.03-.813-.407-1.875.969h.907l-.907.562.907.438.875-.907-.25 1.813.906-.188-.188.907.438.093.469.188 1.78-.656.376-.875 1.062-.47-.53.907-1.876 1.156-.906.282.156 1 .906-.532-.156.97.875-.72-.812.907.375 1.812-.282.969h.907l1-.719.343-.906.907.656.906-.375-1 .906-.906.094-1.782 1.063.344.906-.344 1 .72 1.781 1-.344.25-.906 1-.812.25-.907.655-.906.875-.156v.969l1-.532.907-.906-.282-.875-.625-.906-.187-.906.906-.094-.344.906.97 1.781.905.563 1.813-.906-.906 1.156.906.094v.187l-.563.375.563.969 1.875 1.094-.906-.188-.97-.437-.905-.657-.375-.875-.875-.468-.907.093.907.188-.907.281h-.906l1.813.625.25.875.906-.344-.906.625-.97-.281h-.905l-1.72 1.812-1.812-.28.907.468h-.907l.907.531 1.906-.344 1.781-.718.906-.907-.53.97.905.093.875-.156.375.875-1-.625-.906.468-.875-.28-.906.53-3.344.47.906.53-.187.907 1.906-.625-1 .625-.906.343-.438 1c1.5.478 3.055.082 4.594-.093l-1.906.437-.875-.062.875.625-.875.343.875.813 2.812-.188-.906.282-2.781.187.25.906.906-.093 1.875.344.906-.344h.907l-.907.156-.906.563-.25.906.969.25-.438.906.907-.625 1.78-.906-.874.625-.719.281-.188.969.907-.25v.187l-1.094 1.063-.281.906.468 1 .907.625.437-.375.375.906h1.782l-1 .625 1 .375-1-.187.562.906.906.094.875-.281.469-1 .188.906-1.813.719v.906l1-.094.813-.906.968-.094-.968.719-.375.906.906-.094v1h.906l-.906.188-.907-.188-1 .375 1 .438.907.094 1.781-.532.906.157-1.781.468-.906.438.906-.094.875.281.375 1.72.906-.72.969-.468-.875.906.875.531 1-.437-1 .812-.875.438.875-.094.906.281-.906.344-.875.656h.969l-.719.531 1 .25.906-.718-.281-.063h.906l.907-.469h-1.813l1.813-.343.875.156 1-.438-.188.907.906.25.719-.875.906-.563.907-.25h.906l.875-.375-.094-.906.906-.719-.25.906.625.907-.906.187-1 .719 1-.094.906-.281.907-.813-.094-.875.437.875.907-.625-.813 1-.812.625-1.875.438-.907.719.907-.25-.47.906 1.907-.656.875-.782.906.063-.906.375-.875.719-.906.437.906.094-.906.812.906-.437.438.906.437-.906 1-.188-.531.907.906-.47-.469.907.907-.094 1.906-1.687-1.469 2.781-.625.906 1-.187.625-.906.906-.72-.812.907-.532.906-.906.625.907-.28.343.905h1l.344-.718.188-.094-.188.812h.906l.188-.718-.719-.188.531-.187.469-.875.875-.188.094.906 2.718.532.907-.188.25-.906-.625-.875-1 .25.187-.906-2.781-.72.906.095.875-.72.563 1 .875.282.906-.187 1.906-1.188-.906.469-.906-.281.906.093.094-.906-1-.094-.907-.25 1 .094.907-.187-1.813-.532 1.813.157.968-.25.094-.907-2.5-.281-.906-.25 3.594.156-1.782-.718h.875l.907-.344-1.782-.531 1.782.156 1-.813-.907-.718h-.906l-.969-.438 1.875.281.907-.281.625-.906-.907.187-1-.625 1 .344.907-.25-.282-.906.563-.906-1 .437.906-1.594-.281-.906-.906-.187-1.875-1.344.906.187.875.532.906-.094-.906-.719.906.438-.719-.875h-.906l-1.875-1.188.906.375.97-.469.905.188-.187-.906h.906l1 .468.906-.28h.875l.657-.907-.907-.344-1-.187-.625-1 .907.812.968.281h.907l-.907-.812-.968-.531.968.25.907.625.468-.875-1.906-1.375.531-.875 1 .718.188.063-.906.281.906.813 1.812.437.063-.156-.875-.906.719.343-.907-.718-1-.438 1 .281-.468-1 .906.813.906.344-.906-.813.906.563.906-.563-.187-.875-1.625-.469-.969-.437h.875l.906.344 1 .187.907-.187.343-.875-.906-.72.906-.905-.906-.813-1.875.094-.906-.188-.906-.625.906-.625.906.157h1l.875-.344 1.906.093-1-.718-.093-.907-.438-.906-1.906-1.53.375-.907 1.875-.969.906.875.907-.062 1-.47v-.718l.968-.344-.968-1.437-.907-.375.907-.531.875.25.375-.97 1 .25.875.563.656-1 .968.625.907-.718.906.375.906-.094.969-.563v-.875l-.875-.375-.094-.906.875.281.907-.375.28-.875-.187-.906 1-.375-1-.719 1 .188.907.375.343-.031.375-.063.875.156-.875.563-.375.406-.437.5-1 .719.093.875a2.77 2.77 0 0 1 .72 0l-1 .469-.532.968.094.907 1 .187.156-.625.906-.375.281-.969-.28-.187v-.094c.061.053.113.1.187.156.222.17.556.354 1.25.47l.718-1.782-.093.875 1.812-.438.813-.906.906.719.875.469 1-.657v-.875l.906.094.625-.906-.906-.906.906.53h1l.907.376-.375-.906.906.343 1.781-.53.563-.907.437-1.875.188.906.906-.281.625-.906.531-1.688 1.813-1v-.906l.875-.188-.782-.875.969-.468-.188-.907.907-.156.718-.906.907-.375.906-.719.906-.437.875.093.907-.562-.438-.875.094-.906-.907-.625.907-.094-.625-.906-.907-.282-.468-.875.906-.375.281.907.906.437.875.906.907.375.375.875.906-.156 1.781.625.906-.187 1 .093.875-.187-.718-1-.875-.344 1.78.281.813.875.907-.343-.72-.907.907.188v-1.094l.813-.187.718.906.97.281 1.812-.906.968.375.907-.375 1.812-1.063 1 .25 1.875-.53h.906l.97-.532.905.156.47-.531.874-.344 1.906.156.813-.968h.906l.969-.563.625-.875h.906l-.531-1 .906.344.907-.531.718-.907-1-.062 1-.469.875.281.907-.093-.188-.907.906-.093 1.813-.72-.907-.812 1.907.47.875-.282.093-.906-.906-.625 1 .093.906-.28h1.875l-.968-.813 1.875-.157 1.625-1h.906l.906-.906a7.441 7.441 0 0 0-.906-.062c-.304.002-.629.038-.938.062-.915.074-1.854.197-2.78.219-.625.015-1.26-.008-1.876-.156a5.098 5.098 0 0 1-.906-.313h-.875l-3.781-1.281-.907-.094-.906-.344-1 .625.375-1h-1l-.906.282-2.781 1.156-.907.094-.875-.344-.906-.094-1 .531-.719.907-.343.718-.907.282-.468-.72-1.875.345-.907-.532-1 .188-.875-.375-.468.094-3.5.718c-.31-10.59 2.642-28.327 11.062-35.375 3.11-2.347 7.158-4.392 11.188-3.906.41.05.84.114 1.25.219l8.25 1.531.468.094h.063l1.812-.094.907-.344.187-1-1-.906 1 .469.906.625 1.875-.281 1.97.28h1.812l.812.876 1 .75 1.625.25.969-.094.906-.437.625-.907.375-.906-1-.812-.625-.875-.906.53-.906.25-.97-.25-.905-.468-3.782.281.907-.187.968-.625-.718-.906.562-1.875-2-.532-1.875.97-1 .28-.906-.28-.719-.876-.968-.469.875.188 1.906 1.062c.226-.07.413-.164.593-.25.542-.258.93-.559 1.375-.78a2.76 2.76 0 0 1 .47-.188c.345-.102.762-.145 1.312-.094.275.025.585.078.937.156v-.906l-1-.344-.906-.625-1-.375-.875-.719-1.906-.28h-1l-1.782-.438 1.875.343h1l1.875.282-.875-.813-2-.812-.875-.188.97-.062 2.874 1.062.907.531.906 1 1.875.72 1.906-.438 1 .343v1.094l.969.344.906.094.906-.907.25-1.781-.03-.437-.032-.47-.719-1-.094-.25c-6.162-.482-14.116.812-15.843-6.937-.532-3.828.3-11.272 4.687-12.968v-.532l.875-.906.719-.969-.875.438.344-1 1-.531-.907-.72 1 .095.907-.813-.375-1 1-1.875.812-.906-1.094-.531-1-.094 1.907-.375-.47-.906.907-.72 1-.343.906-.094 1.875.188.469-.188.438-.906-.438-.625v-.625l1.344-.281.906-.625.781-1 1 .469-.093-.907h-1.97l-.905.907.625-.907.187-.906-.531-.906.812-.969-.187-.906 1-.813.969-.437 3.78.531.907-.187 1-.625 1.781-1.72.375-1.155a4.901 4.901 0 0 0-1.656-.532 4.643 4.643 0 0 0-.5-.03c-1.014-.027-1.95.235-2.875.437-.77.168-1.546.303-2.344.156a3.674 3.674 0 0 1-.468-.125l-.907.094-.968.53-2.063.532-.656.906-.25.907.906-.188v.188l-.906.375-1.907-.813.282-1 .281-.531-.281-.375.281-.719.969-.25 1.906-1.469.969-.156 5.875.813 1.875-.282 3.875.094.906-.187 1.875-.813-.438-.906.907.281.968-.719.625-.906-.875-.187-3.062-.157-1.906-.718-1.969.625-2.969.25-2.062-.438-2-.094-.969-.343-1.906-.188-1 .188-.875.625-1 .187-.907.625-1.062-.625-1-.281c.577.089 1.063.124 1.469.125.793-.003 1.33-.15 1.75-.344.745-.343 1.205-.845 2.437-.906.528-.026 1.198.045 2.094.219l1.063.28 3.062.157 1-.156.875-.563 1-.156.094-.906h1l.906.531 1.969-.094 2.968.47 2.782-.376.906-1 4.844-.625.187-.875-1.062-.656v-.875l.968-.188h2.875l.907-.187 1.093-.625.907-.906 1.875-.344.625-.906 2.875-1 .906-.532v-.906l-.906-.187-1.969-1.157-.906-.28-.969-.25-3.875-.563-2.875-.813-2-.156-2.969.25-1.781-.25-1.906.156-1-.25-1.063.906-1-.093-.906.25-.969-.157.625 1.782-1.093-.344-.97.062-.187 1 1 .375-.906.438-1 .094.375.906-1.813.187-1-.562-1.062.187-.906-.718-1.875-.188-2 .625-.969.656-1 .344.188-1.969.968-.562a5.74 5.74 0 0 0-1.468.031c-.923.143-1.746.495-2.532.969-1.179.71-2.254 1.673-3.375 2.5-.56.413-1.148.793-1.75 1.094-.192.095-.394.203-.593.28l-1.063.532-.906.531-1 .657-.875.812-1.907.781h-1l.094 1-.906.47-.438.874-2.968 1.531.53-.968.907-.47-1-.093 1.094-.344.906-.625.188-.906.718-.906 3.594-2.688.625-.906 1-.469.438-.437 1.343-1.344.47-.906.53-1.875-.28-2.719-.72-.969-1-.28h-.875l-1 .187-3.78.156-1.876.812-.562 2.813-.875.156-1-.094-1.969.375-.906.532-6.938 1.812-.906.531-1.875.47h-1.094l1-.095-1-.718 1.094-.813 1.969-.375 3.968-1.156 2.97-1.094.53-.906-.187-.875-.875-.813-2.906-.187-5.844-.094-7.813.375-2 .438-.875.906-.906-.719-4.062.719h-1.063l-3.968.625-2.97 1-1 .531-.905.094-.344-.906-.094-.907a20.56 20.56 0 0 1 1.75-.562c1.171-.31 2.338-.505 3.531-.688 2.982-.458 6.017-.713 8.938-1.718l-1-.625-1.969-.375-.812-.063-.375-.062c1.053.06 2.15.133 3.093.25.944.116 1.733.274 2.157.437h1.968l2.063-.375 4.062-.25 8.188.531 4.937-.093 1.97-.375 2-.72 1.968-.437h2.969l2.875-.437.28-.094.72-.281.53-.906 3.876-1.344-.344-.906-2-.813-.906-.156-1.875-.719-.282-.094-.968.25-1.813-.343-1-.625-.968.156-1 .719-1 .187.187-.906-.906-.625-2.063-.094-1.968.906-3.157.625 2.063-.875 1.906-1.375-.188-.875.094-.906-1.094-.531-4.937.625-2.156.531-2 .094-3.688-.281-1.781.187-1-.375-1.063-.156-2.968-.281-3.063.093-2.093.532-1.782.093-2.968.813-1.094.812-.969-.718-7.125.437-1 .281-.094.907-.968.718.343-.906-.875-.437-3.156-.094-2 .437-1.781 1.438.344-.906-.625-.875 7.125-.375 3.062-.72 3.938-.374-.907-.719-.875-.25h-1.187l-.969-.187h1.969l2.062.375 1.97.53h2l1.78-.53 2-.094.969-.469 3.156-.25 2.813-.094 7.812.532 3.063-.094 2.875-.625 1-.094 1.968-.719-1-.906-1.156-.437-3.687-.72-3.969-.468-2.063.188-1 .53-.968-.155-.907-.47 1-.093-1-.344-1.093.344-.969-.719-1-.156-1-.281-2.969-.281-1.156.093-1 .282h-1.969l-2-.375-1.875.28-1.093-.437ZM538.75 165.017l1-.437-1 .093-.875.344h.875Zm53.906-141.906-1 .812 2.907.188.968.719 1 .343 2.875.47.188.093.906-.281-.906-.438-1.969-.375-1-.344-1-.718Zm-3.218 1.906-1 .344 3.78 1.625 2.97.281-.532-.469-1-.437-1-.188-1.156-.437-1-.719Zm4.125 0-1.094.531 1 .532.906.093 1 .72.969.187.625-.188.812-1-2.156-.25-.969-.469Zm-37 3.219-.97.281.532.906 2.344.157 1.062-.625-.968-.344Zm6.687 2.531-1 .344h-3.063l1.875 1.531 1.72 1.719 5.937 1.719.906.343.813.907.906.468.968-.28-.875-1.813.875-.625 1-.344.438-.906-.969-.375-.906-.625-1-.344-3.781-1.281-1.969-.438Zm-29.438 3.969-1 .812.094.875.906.813 2.782.719 3.156.718.906.094 1.781-.187-.093-.344-2.875-1.438-.969-.28-1.094-.095-.812-.437-.188-.094-.718-.906-.875-.25Zm100.47 1.375c.314-.008.696-.007 1.093 0l-1.875.062c.197-.024.467-.054.781-.062Zm50.53.312-1 .72.72.905 1.905 1.532 1.063.28 1-.468-.906-.969-.907-.625-.812-.906Zm7.375 4.157-1 .53 2.875 1.25.907-.53-1.875-1.25Zm-3.156 16.937a1.84 1.84 0 0 0-.625.156c-.179.086-.326.182-.437.344-.004.006.004.026 0 .031a1.115 1.115 0 0 0-.125.25c-.003.01.003.022 0 .032a1.72 1.72 0 0 0-.063.718c.016.157.045.315.094.5l3.875-.968a2.93 2.93 0 0 0-.594-.47c-.07-.044-.146-.084-.219-.124a3.935 3.935 0 0 0-1.03-.406 3.756 3.756 0 0 0-.157-.032c-.01-.001-.02.002-.031 0a2.673 2.673 0 0 0-.688-.03Zm-171.968 56.125-.97.281-1.905.188-.094.25h2.875l1-.438-.906-.28Zm.906 6.031-.907.282 1.907.812.906-.812Zm2.718 2.97.72 1 .874.624-.156-.906-1-.281Zm3.5 6.468-1.906.719-.968.906.968.375.907.094 2-1.72-1-.374Zm-2.718.562-.969.25-.375.907 1.906-1.063-.562-.094Zm3.531 3.5-1.906.813-.907-.094-.343 1 1 .344.875-.438 1.281-1.625Zm-2.344 3.875-1.093.72 1 .28.093-1Zm10.438 2.25-1 .094.281.969.906.187 1.688-1.062-1.875-.188Zm1.437 2.438-.906.344v.812l.906.906.907-.187 1.156-.719.718-.437-.718-.313-.188-.062Zm-2.875.719-1.718 1.156.625.906.906.25 1-.437-.188-.907Zm6.938 2.78.531.907.906.156.875-.25-1.875-.812Zm1.593 2.438 1 .344v-.25l-1-.094Zm-15 1.688v.812l.97-.437Zm2.407 1.437-.907.375-.875.813.094.906.781.531 1.813.72-1.875-.438-.906.156-.375.906 1 .469.906.625-.906-.375-.907.719.907.625.906.187 1.875.094 1.906.719.969-.72.562.907h-1l-.906.188-1-.188-.875.719.875.25 1 .562 1.25.094 4.688-1.375.906-.25.906-.375.969-.813-.156-.968-.47-.907-2.155-.625-.72-.187-.905-.719-.813-1-1.781-.906-3.781-.719h-1Zm15.031 3.25.906.375-.906.625-.625.907.344.875 1 .468.718-1.906.907-.344-1.344-1Zm-6.281 9.907-1.813.53.907.188 1.156-.125.718-.062.813-.438-1.531-.093h-.25Zm-2.094 1.718-.531.875.906.094-.281-.906-.094-.063Zm106.719 2.157-.063.093v.344l.969.094-.906-.532Zm-30.407 17.718-.906.438.188.906.531-.344Zm-2.78 1.97.624.905.282-.718Zm-73.438.374-.907.625.72.281Zm62.093 2.438-.906.093.907.344v-.437Zm-4.687 3.406-.875.437.875.907.281.906.719.906.906.25-.093-.625-.813-.969-.344-.906-.656-.906Zm-48.594 2.344-.875.437-.656.906.906-.28.563-.876Zm1 .187-.906.438-.438.906-.812 1 1-.375.625-.906.906-.907Zm46.625 1.781-.906.813 1.781-.188Zm-1.812 8.47-1 .093 1 .187v-.281Zm-4.594 2.53-.969.782.063.093 1.812-.625-.906-.25Zm-18.531 13.313-.907.25-1.875 1.094.907-.188.875-.437 1-.282Zm3.875 3.937.531.907.469-.907Zm6.75 1.532-1 .375 1 .437.906-.094-.906.375 1 .375.875-.375.281-.375.906.375h.344l-.719-.53-2.687-.563Zm-1.625 1.093.906.375.344-.375Zm1.093.438-.375.906.907.094.25-.094.187-.906Zm-58.5 80.656-.468.531v3.782h.531a2.238 2.238 0 0 0 1.625-2.157c0-.24-.055-.47-.125-.687l-.031.406-.031-.062v.062l-.344-.906h.187a2.225 2.225 0 0 0-1.312-.969c-.01-.003-.022.002-.031 0Zm28.438 227.125.438.906.53-.562Zm1.969 6.656-.907.438.094.906.625-.437.188-.907Zm-1.532.375-.187 1.782.563-.907Zm2.782 1.157-2.313.437.157 1h.906l.375.375.531-.375.344-.531Zm-3.594.53.094.907.28.188.345-.188Zm4.688.563-.907.344-.093.531.906.094.906-.625-.812-.344Zm-5.5.532-.875.25.437.906 1.344-1.063-.907-.093Zm2.093.343-1 .188-.718.906-.094.906.719.625-.625-.093-.47.28.188.438-.25.375.344.97.906-.345.188.094-.375.625-1 .094v1.156l.187.375.72 1.25 1 .188.343-.188-.344-.187.813.093.906-.187.812.281.875-.281 1-.532h.907l.906-.375.969-.718.093-.875.719-.719.563-1 .437-1.812-.531-.907-3.063-.53-.906.53Zm-4.968 2-.97.813-.374.875v.906l-1 .813-.094.906.563-.094.906-.625.875-.812.719-.907.28-.906v-.969h-.905Zm2.25.157-.97.812-.187 1 .813-.906Zm56.968 57.593-.625.47-.187.437Zm-31.125 51.844-.562.906.906.188.094-.094-.438-1Zm-10.375 4.875-.875.625-.625.906Zm-5.031 7.563-.094.437.375.344Zm.625 5.937-.156 1.875.437-1Zm-92.75 153.063 1.156-.375 2.532.562.875-.094h.187l3.5.532.906.53.907-.343h.906l.906-.531 2.781.156 1-1.781-.906-.094-.906.188h-1l-.875-.282-2.719-1.25-.906-1-.875-.343-1.906-1.094-.813-.625-.094-.094-2.156-2.156-.812-1.813h-.875l-.907-.53.438-.907.906-.281-.437-.969-1.188-1.437h-.094l-.25-.188-.906-.094-.906.438-1.906-1.25-1.157 1.812-1.25.438-.812-.72-1 .188.469.907.875-.094-.625.969-.97-.063-.093 1.781.344.47.906.624 1.156-.719 1.813-.28.906.374-.187.875-2.782 1.094-.812.812.812 1.875 1.875.72 2.782 1.437-.875.812h-.907l.532-.875-.907-.562-.875-.094-.906-.344-.094.906-.625-.906-.375.625-.906-.187-1.781-.875-.906.25.906.093.906.72.719.905-.906-.53-1 .25.468-.907-.906-.063-.906.782-.906-.157-.907.094-.875.438-1-.282 1 .563h-1l-.906-.281.719.906.906.094.906-.188.97-.531.468.875.906-.344-.375.906 1.906-.281-.906.625.906-.187.875.093.907-.719.187 1 .906-.093v-.813l.157-.25.656.875.875.094 2.812.719.907-.813.875.469.375-.094ZM499 808.455l.719.906 1.781 1.094-.719-.282-.906.282-.969.062.875.281 1 .094-1 .344-.531.906-1.781.625 1.781.188 1 .28.719-.905 1.531-.344 1.344-1.813.906-.625.813-.906-.907.188-2.781-.282v.375l-1 .157-1-.532-.875-.093ZM508.969 808.017l-1.781.25-.657 1H506l.531.906-.062.907-.906-.563-.907.656-.531.875-.906.907.719.812.906.281.093-.906.875.094-.343-.906 1.781.187.906.438-.625-.907-.906-.875 1 .438 1.812-.094.532-.719 1.25-.093.906-.813-.906-.625.906.094-.531-.906-1 .093-.907.375.188.875-.719-.875-.187-.906ZM496.656 811.173l.625.875.344-.718-.969-.157ZM502.844 807.642v.188l.906-.188h-.906ZM442.281 767.423l-1.875.282.188.875-1 .468 1 .344-.188.906.906-.437.907-.719-.469-.812h.906l-.375-.907ZM437.781 768.236l.375.906.531-.719-.906-.187ZM434.813 768.517l-.875.25.875.094v-.344ZM438.584 752.757h.562l.094.875.344.906-.719.907-.094.437.813.656v.25l-.813-.906-.187.563-.438.906.907.625-.47.875.563.75-.375.25-.343.906-.907.72-1.906-.439-.156-.906.719-1.906.156-.875-.344-.906.719-2.719.094-.875.906.156.875-.25ZM435.99 768.32h.906l-.562.906-.531.25-.72-.906ZM437.334 770.57h.375l.625.906-.906.532-.907-.625ZM436.281 769.86l-1 .72h1l.875-.532-.875-.187ZM436.719 773.017l-.375.875 1.281-.625-.906-.25ZM438.344 773.173l-.188.907.438.906.187-.906-.437-.907ZM435 773.267l-.25.906.063.907.562-.282.531-.906-.906-.625ZM434.375 773.892l-.625.906h.531l.094-.906ZM438.25 776.61l-.906.095.719.875.187-.97ZM435.469 787.048l.062.907 1.813-.563-.906-.25-.97-.094ZM432.219 788.673l-.906.25.28.907.626.906.906-.719v-.906l-.906-.438ZM442.656 812.61h-.625l.094.876.531-.875ZM432.844 787.298l-.906.72.906.468.437-.281-.437-.907ZM430.688 788.11l-1 .657.28.875-.093.906 1-.187.531 1.906.532-.469v-.968l-.532-.907-.718-1.812Z"/><path fill="#8cce55" stroke="#0f380f" stroke-opacity=".145" stroke-linecap="round" stroke-linejoin="round" d="m433.469 789.205-.25.906.25.906-.906-.375-.25.906 1.78.625.657-.28-.563-.876v-.906l-.718-.906ZM434.188 789.205l.375.906.53-.719-.906-.187ZM434.813 790.267l.906.563v-.47l-.906-.093ZM430.25 790.642l-.906.625.187.906h.438l.906-.53-.625-1ZM433.219 792.36l-.906.345.25.906.562.906-.188.906h-.28l.093-.28-.188-.907-.875.812.532.375h-.188l-.25.875-.906-.625.25.907-.875-.72.625.907.094.906.437.875.906.813-.187-1.781 1-.625.906-.813-.906.875-.281.906.375.907-.282 1 .907-.094-.907.25h1.532l.343-.438-.062-1-.281-.875.437-1.812-.156-.906v-.97l-.563-.905-.968-.72ZM431.031 793.08l.375.906.531-.719-.906-.187ZM430.25 793.267l-.906.531 1.062.438-.625.469.188.968.906-.812-.094-.531.344.187v-.906l-.875-.344ZM434.906 796.767l.094.906h.187l-.28-.906ZM430.5 797.83l-.906.093.093 1 .907.094.906.438-.188-.72-.812-.905ZM431.781 800.173l-.906.47.438.874-.907-.156-.156.875.875.469 1-.907.813-.812-.907.187-.25-1ZM435.094 802.798l-.906.188.187.875.719 1 .906.375.188-.563-1.094-1.875ZM430.25 802.986v.969l.625.906.25-1.813-.875-.062ZM431.938 804.048l.28.907h.188l-.469-.907ZM432.75 804.33l.094.906.906.156-1-1.062Z"/><path fill="#8cce55" stroke="#0f380f" stroke-opacity=".145" stroke-linecap="round" stroke-linejoin="round" d="m434.031 804.673-.281.907-.906.28.812.97.625-.438.906-.375-.28-.875-.876-.469ZM435.469 806.486l.25 1H436l-.531-1ZM434.188 807.486l-.907.625-.875.906.438-.094.719-.906.906.344-.281-.875ZM436.531 807.548l.094.907h.187l-.28-.907ZM431.313 808.205v.875l-.344.906 1.25-1.781h-.906ZM436.531 809.642l-.531.875.906.563.094-.563-.469-.875ZM432.844 810.267l-.813 1.781.469.907.531-.813.344-.906-.531-.969ZM432.031 810.705l-.187.906h.187v-.906ZM434.75 810.705l.531.906 1 .375.25-.469-1.781-.812ZM433.469 811.33l-.531 1.812.812-.906-.281-.906ZM436.438 812.236l1 .531.812.906v-.53l-.813-.907h-1ZM435.375 812.86l.969 1.813.812-.53-.875-.907-.906-.375ZM437.156 814.142l.563.625.25-.094-.094-.906h-.969l.25.375ZM460.75 799.923l-.625.157h.344l.281-.157ZM458.688 806.298l-.282.188-.093.187.375-.375ZM437.781 814.955l-.344.968-.093.907.812-1-.375-.875ZM434.188 817.455l.718.906.906.344 1.907.375 1.781 1.437 1.188-.187c-1.463-.945-3.15-1.744-4.844-2.344a22.47 22.47 0 0 0-1.656-.531ZM438.875 817.642l-1 .344.906-.25.906.437.094-.343-.906-.188ZM439.594 820.955l-.625.656-1-.281.906.53.906.095-.187-1Z"/><path fill="#8cce55" stroke="#0f380f" stroke-opacity=".145" stroke-linecap="round" stroke-linejoin="round" d="m441.563 821.517-.875.188-.907-.094.813.875.906.281-.906-.094-.906-.625-.907.282.469.875.875.656.469.875.906.094.25-.97.906.532-.281.906-.875.094.875.344 1.438-1 1 .187.375-.906v-.875l-.907-.094-.187-.906-1 .344-.813-.969-.25.969-.469-.969ZM453.094 822.048l-.906.907.093.906-.906.156.094 1 .718.906.907.344-.094-1.531.906.094-.437-.875-.375-1.907ZM446.156 824.298l-.906.813.75.906.875.625-.25-1.812.875.562.281-.906-1.625-.188ZM447.969 824.58l.187.875-.187.906.906-.344.625.906.906.25.531-.906-.28-.875-.907.438-.156-.907-1.625-.343ZM440.406 825.017l-1 .281 1 .344v-.625ZM444.906 825.548l-.906.813.906-.094v-.719ZM454.188 826.11l-.907.157.969.281-.063-.437ZM449.688 830.236l-.907.281.906-.094.97.532v-.532l-.97-.187ZM457.688 830.517l-.907.344-.906-.25.094.875 1.718-.156.907-.657-.907-.156ZM453.813 830.61l-.907.438-.906-.187-.875.719 1.781.093.188.907.625-.282.093-.875-.906-.281.906-.531ZM464.063 830.61l-.875.157.78 1 .188.906.906-.187.907.375.906-.563.25.282.625.625 1-.438.438-.906-.532-.813-.906-.28h-.625l-3.063-.157ZM462 830.86l-1 .282h-.875l-1.813.344-1.875.094-.906.468v.25h.25l.906.469 1-.187-1 .625 1.907 1 .875.25-.438-.875-.906-.47.719-.968 1.812.875.438 1 .906-.094 1.813 1.25.968.47-.344-.907-.718-.906-1.906-.813.906.094 1-.25-1-.469h-.906l-.875-.25-1-.719.093.031 1.688.75 1-.343.187-.907-.906-.093ZM467.406 835.08l-.25.53v.47l.719.25.25-.344-.719-.906ZM467.125 835.642l-.188.344.188.094v-.438ZM466.563 836.61l-.907.188.906.282v-.47ZM437.625 763.642l-.625.906h.156l.469-.906ZM437.344 769.486l.375.906h.25l-.625-.906ZM421.656 700.86l-1.719 1-1.843-.593-2 .906h1.5l1.844 1 1.5-1.218 1.53.718-.812-1.812ZM410.509 670.704a2.362 2.362 0 1 1-4.723 0 2.362 2.362 0 0 1 4.723 0ZM416.519 708.534a2.362 2.362 0 1 1-4.723 0 2.362 2.362 0 0 1 4.723 0ZM408.74 708.887a2.362 2.362 0 1 1-4.722 0 2.362 2.362 0 0 1 4.723 0Z"/><path fill="#8cce55" stroke="#0f380f" stroke-opacity=".145" stroke-linecap="round" stroke-linejoin="round" d="M413.337 672.118a2.362 2.362 0 1 1-4.723 0 2.362 2.362 0 0 1 4.723 0ZM481.875 829.423l-.875.282-.813.906 1.688-.813.906.25.906-.625h-1.812ZM468.412 658.894l-.1-.094-.096-1.494-.885-1.034-3.196-.13.063-1.27-1.596-6.257-1.458-1.531.19-1.398-1.275-1.313-.092-1.573.956-.72-.566-.758c.25-.491.771-1.135 1.257-1.508l-2.573-2.208-.43-4.36-1.249-.412-.925-2.192-.093.812-.813 1-.468.157H454l-.375.28.469.345-.188.906.188 1.812.437 1.875.438 2.875-.344 1.813v1.906c.557 1.32.593 2.625.438 3.938-.156 1.312-.512 2.636-.75 3.968-.08.445-.146.865-.188 1.313-.044.458-.05.911-.031 1.375l-1.375 1.531v.906l.906.282c-.08.555-.189 1.123-.281 1.687-.017.105-.015.208-.031.313-.101.628-.193 1.242-.25 1.875-.002.02.002.042 0 .062-.004.042-.028.083-.032.125a11.6 11.6 0 0 0-.03.969v.031c.001.293.01.587.03.875.004.051-.005.105 0 .156.022.231.055.458.094.688.077.442.184.876.344 1.312v.907l-.813.875-.28.906-.095.906.375.719-.187.906.094.719-1.344 4.594.156 1.156-.625.906-.625 2.063-.094 1.53-1.437 2.876.094 1.187.625.907v1.78l.28.72-.562.625v.906l-.875.531-.468.906-.094.907.625 4.937.281.906-.094 2.094.563.875-.469 1.813v1l-1.062.875.156 1.812.281 1-.719.969-.812 1.531v.906l-.281.625-.156 1.813-.563.969v.562l-1.063 1.438-.53 1.062-.563 1.813-.625.906-.094 1.062-.25.813-.562.906v.906l-.907.25v2l-.875.532-.906-.438-.469.906.375.875-.375.47.188.905.562.97.25.905-.343 1.813.25 1.156 1.187 2.969v.906l-.281 1.063-.438.906v.625l-.906.375-.625.531v1.094l-.281.875v.906L437 747.986l.157 1 .468.906v.875l.875.625h.469l-.375.906.563.281 1.875-.28.093-.907.906-.531 1.782 1.093.812-.906-.25.906-.906.25-.906.563.187.875.906.187.438.625.188 1.813-.47-.906-.874-.438-.188.906 1 .782-.281.093-.906-.25-.188 1.782.469.625-.906.906-.188.906-.625 1 .375.906h.344l-.438.813.875-.281-1.968 2.593.437.47.906.437.907.812.906-.437-.188.875-.437.906-.719.906-.906.625-1 .094-.438.187.344.907.906.968.907.563h.531l-.188.25-.875-.25-.906-.656-.906.656-.438.875-.187.906.906-.53-.719 1-.469.874.094.906-.344.907.875-.907-.343.907-.813 1-.437.875-.094-.875.437-.907-.906-.812.281.906-.906-.562-.906.28-.875-.343.875.25.906-.25.531-.906-.875-.906-.906-.532-.187.907-.907-.563-.968-.187-.907.375-.468.906.906.344.719-.844-.25.844-.563.906-.875.187-1.906 1.25-.813 1 .282.907.906.718.344-1-.907-.28 1.813-.72.906-.625-.375.907.906.812.907.438.906.187-.375-.906 1 .094.906.375.156.968.094.188-.344-.094v.906l.532-.375.093.282-.375.906-.906-.438-.781.875.437.907.907.375-.188.875-1.812-.875-.25.875 2.78.187.907.281.625-.906.906.813.344.906.906.094h-.906l.188.968.375.47-.907.093-.906-.906-.906-.282-.969-.281-.375.906-.719-.906h-1l.625.906 1.813 1.438.375.906-.906-.344-.907.719.907.625.625.188h-.907l-.812.875-.188.906.282 1v.906l.625.875.562-.875-.094-.906.532-.906.906-.188-.563.906.47.907-.907-.188-.094.906.906.438.625.906-.906-.719-.875.094-.75.906.906.094-.906.344.906 1 .907-.47-.344.72h-.719l-.906-.25-.094.25.719 1 .906.28H436l-.906-.624-.906.094.562.875h.875l-.094.906.907-.094.906.813-.906-.25-.344.875.437 1h.907l.906-1.813.437-.344-.343.907.875.437-.97-.094-.374 1-.094.907-.875-.469-.906.094-.188.906.532.906.906.188.906-.47.094.907.531 1.875-.812-.969-.625.907.718.968.907-.343.093.875.531.906-.812-.906.094 1 .812.906.438-.906-.344-1.875.531 1.875.906-.438v-.906l-.906-.906 2.781 1.25-.25-.875-.906-.72-.906.157-.281-.875.375-.281 1 .906.875.25.906.906.094.907-.907.375.375.875.438.562-.094.875-.906.47-.875.343.875-.625.812-1-.875-.875h-.28l-.282.969-3.594-.344v1.781l-.187.906.093.907.907-.625.906.093.25-.906.906-.094-.719.907-.343 1h-.907l.907.625-.907.625.907.718.906-.28.25-.907 1.25-1.781-.875.187.156-1 .906.188h3.688l.906.156.906.469a3.68 3.68 0 0 1-.843.343c-.12.031-.208.052-.313.063-.249.024-.47-.015-.656-.063-.05-.012-.11-.016-.156-.03-.014-.005-.018-.028-.031-.032-.063-.021-.13-.01-.188-.031-.052-.02-.106-.046-.156-.063-.013-.005-.019-.026-.031-.03-.055-.02-.102-.018-.157-.032-.044-.011-.08-.026-.125-.031a.945.945 0 0 0-.343 0c-.352.082-.77.413-1.407 1.25l-1.812-.438-.625.875.281.906.875.47-.062.874-.907-.531-.906-.094.531.906.907.438.906.75.906.156-.812-.906.812-.875.875-.281-.875-.719.875-.281.906.468.813-.906 1.812-.906.25-.625 1 .437-.187.907-.438 1-1.906.625-.25 1.906-.906.437.906-.812-.187-.906-.907-.344-.156.875-.281-.875-.906.094-.625.875 1.625 1.812.906.094.969.625 1.812.531.969-.344.562-.906.094-.906-.188-1 .188-.875.813-2.813.875-.875h.906l.906-.468 1.813-.532.875-.093.28-.188.344-1.062.907-.47h.812l.906.563 1.532.157.344-.002.281.375.188-.094-.282-.906-1.343-1.782-1-1.906-.97.375-.905-.625-1.094.25.906-.344 1 .094.906-.187v-.907l-.812-2.687-.625.344-.375.375.094-.188.28-.187.532-.532.438-1.906.375-.875.718-.906 1.782-.719-.25-1.375-1.532-.062-.281.156h-.344l.625-.156.907-.094.25-.719-.188-.469-.344-.25.438.25.719 1.344.906.813 1-.25.719-.563.718-.875.532-2.719-.094-.875.281-1 .531-.625.282-.28.906-.626.531-.906 2.781-1.625.907-.344.718-.906 1-.531.813-1-.813-.907-1.812.625-.188-.156.907-.187.906-.469.906-.719.344-1.781-.344-.906-1-.625-.906.187-2.688-.562c-.52-.593-1.131-1.117-1.718-1.625-.3-.26-.58-.519-.844-.782-.125-.123-.264-.251-.375-.375-.006-.006.006-.024 0-.03-.115-.13-.216-.238-.313-.376-.088-.125-.149-.243-.218-.375-.006-.012-.025-.019-.032-.03-.05-.098-.087-.212-.125-.313-.02-.052-.046-.103-.062-.157-.01-.03.008-.063 0-.093a2.402 2.402 0 0 1-.063-.282c-.011-.082-.028-.165-.03-.25-.006-.127-.016-.24 0-.375 0-.01-.002-.021 0-.03.005-.05.022-.107.03-.157.018-.103.033-.205.063-.313.043-.155.116-.302.187-.468.072-.167.15-.352.25-.532v-.03c.04-.07.08-.149.125-.22.008-.012.023-.02.032-.03.027-.044.064-.082.093-.126.14-.207.286-.426.469-.656l1.344-1.812.906-.907.906-.093.907-.344 1.062-.813.906-.093 1.907.28.156-.187-.438-.906.188-.906.906-.625.625-.906.25-.875.188-1-.438-1.813.156-.906.813-.875.375-.813.906-.718 1.875-.625-1.781-1.282-.719-.906 1.875-.875.906.063.719.906.25.906c.643.11 1.133.107 1.5.031.37-.081.617-.246.781-.5.078-.12.174-.282.219-.437.05-.173.073-.35.094-.563.04-.404.034-.872.031-1.406l-.438-.906-.906-.344-.906.438-1 .187 1 .188-.094.968H481l.156-.906-1.78-.437-1-1 .374-2.782-.719-1.78-.093-.907.156-.906.906-.438h.907l.906.531 2.687.97.907.655h1.812l1.875-.28 2.781-1.25.563-.907v-.906l-.906-.907.093-.906.625-2.156h.625l.438-1.781-.875-.907.875.344-.875-.719-.469-.968.094-.907.906-.53.906.718h.969l.906.25.906-.156.907.062a87.728 87.728 0 0 0 3.937-.5h.031c2.047-.305 4.171-.712 6.188-1.281 1.35-.382 2.672-.834 3.875-1.375.601-.271 1.175-.558 1.719-.875l.906-.719.062-.906.563-.906 1.625-1.875 1.062-1.813.72-.906.093-1.781-.375-1.344-.063-.094-1 .156-.906-.53-.719-.97-.28-.906.093-.719 1.094-1.812c-.532-.822-1.052-1.394-1.532-1.813a5.658 5.658 0 0 0-.468-.375c-.168-.117-.307-.223-.47-.312-.136-.076-.273-.127-.405-.188-.013-.006-.019-.025-.032-.03-.28-.128-.548-.217-.812-.313-.01-.003-.022.003-.031 0-.076-.028-.144-.066-.22-.094a5.398 5.398 0 0 1-.937-.438 3.338 3.338 0 0 1-.375-.28c-.12-.1-.225-.185-.343-.313-.355-.386-.7-.917-1.032-1.688l.72-.281.093-.156-.281-1v-.625l-.438-1.282.094-.875.437-.906.094-.906.625-.094.25-.187h.031v-.031l.344-.782-.375-1.875.094-.53.093.437.47 2.437h-.032l-.594.344v.094h-.031l-.25.093-.531 1.625-.188 1.813.094.531.625.906 1.719 1.688.343.625.907-.25H515l1.812 1.343 1.875.438 1 .719c.42-.194.752-.35 1.063-.469.312-.12.58-.193.812-.25.226-.056.418-.087.594-.094.179-.007.345 0 .5.031.051.011.106.018.156.032.102.026.208.055.313.093.032.012.06.019.094.032.07.027.142.063.218.093.054.022.13.04.188.063.185.073.384.17.625.25.241.079.52.144.844.219l.875-.063 3.062-1.375.813-.875.906-.469.281-.968.813-.907.25-.906.468-.625 2.782-2.344.718-.906.532-1.156.28-.625.188-1 1.438-2.719-.469-.875-.094-.562 1-1.782.907-.812h.343l.907-.813.28-.906.907-1.781.875-1-.969-.813.094-.906h.25l.281.906.907.907.875-.563.906-.25.094 1.063-.532.906-.28.906-.907.438-.156.906h-.907l.094 1-.375.906-.906.344-.719 1-1.781.719-.375.906c3.757-1.367 6.521-5.049 8.281-8.469l1-2.781 1.156-2 1.906-2.313 2.688-2-.188-.625.188-.093.188.28.343-.905.281-.907.094-1 .188-4.468-.563-1.813.188-1.187-.532-1.25.813-.907.281-.968.531-.907-.28-.093-.25-.375-.907-.157.906-.093.344-.907 1.719.188.343-.469-.093-.969.281.157.813-.875.906-.72 1.875-1 1.812-1.624.906-.531.97-.375v-.532l.187.188.343.25h.032l.78-.781 1-.375.907.093.906.344.344-.969.906-.375.907-.53.187-.282 2.156-.531-.812-.907 1.781-.812 1 .375.906-.531.907.25.437.28-1.812.345 3.718-.532.157-.53-.25-.095.625-.906-.188 1.094.906.437 2.25-.28 1.875.093.094.187.469-.906-.281-.906.718-.969.907-.719 2.687-1.093.281-.907-.093-2.156.812-1.625.25-.875.906-.469.813-.875.469-.906-.282-.906.625.187.438-1.375.656-1.25.875-.437.469-.906.094-1-.282-2.688.375-1.812.532-1.063 1.78-1.719-.155-2.687.812-3.688.813-2.53-.375-.906-.531-4.594.25-2.062.281-.906-.625-.97.531-.905-.343-.907-.282.532.188-.97 1.156-1.718-.531-1.344.906-.28.875.187.281.968.907-.25.812-.906 1.875-2.687.906-2 .375-.72-.281-.093.438-.875.906-.562-.438-.875.969-.188-.25-1.094.906.375 1.782-1.343.625-.188.562-.906 2.063-2.344v-.344l.53-.375.094.094 1.625-1.906 1-1.688.625-1.812v-.531l.625-1.532.25-1-.25-.437.188-1-.281-.094.437-.437v-.907l-.156-.906-.375.375.281-1-.468-1.062v-.813l-.72-1.906-.53-2.438-.438-.968-.656-.907-.969-.375-.906-.062-3.782.062-.906-.625-1.156-.156-1.438-1.281-.28-.094-.626-.156-.531-.906-.906-.532-.907-.812-.906-.906-.531-.907-.906-.187-2.782-1.969-3.5-1.906h-.656l-1.781-.156-2.344.343-.906-.093-.094.718-1.78-.625-1-.53-.438.343-1-.156-.532-.282-.906-.093-1.812-1.063-1.875-.562-.907-.094v.563l-1.812.343-.875.532-.094.562-.625.344-.094-.906.813-.875h-.906l-.532.25-.28 1.812-.907.813-.719.968-.188-.062.657-.907-.094-.906.531-1.812.907-.813-.282-.875-.906.531-.875.094.875-.469.625-.875-1.437-1.812-.875-.094v-.437l-.907.093-.375.969-.437-.875.281-.906-.656.906.187-.906-3.156-.625-.531-.906h-1.813l-1.875-1.188-.906.094-.625-.719-.344.906-.906-.812-.562.281-1.594.094-.906.875-.282 1.468-.812.875 1.437.282-.875.187-.28.72-.813-1-.907.718-.718.906-.907.344-.625.906-.718 1.906-.25.344v-1l.968-2.781-.906.094-.875.53-.719.907-.187-.906-.625-.25-.906.437-.907.188-1-.719h-.343l-.188-1-.094-.25h0l-.187-.281v-.094l-.063-.281-.093-1.875-1 .187-2.688 1.688h-.281l-.906.719-1.782.656.719-2.438h.875l.906-.625v-.906l1.813-2.781.437-.563.625-.25 1.094-1.094.906-.625 2.063-2.78 1-.813v-.625l-.563.093.563-.28.53-.907-.093-.906-.437-.438-.907-.375h-.906l-.906-.875-.719-.375.094-1-.531-.875-.094-1-.719-1.812-.187-.875-.188-2.813-.343 1.188-.094-1.907-.813-.906-.906-.437.188.906.437.969-.531-.875-.719.437.188-.906-.813-1.781-.437.875-.563.468.375-1-.469-.906-.875-.531-.375.625.282-.875h-.47l-.624-.656-2.063-1.97-.28.095-2.25-.532-.876-.656-.906-.156-.906 1.531-.375.25.562-.906.25-.875-.969-.625-3.687-.562v.625l-.656.187-.97-.625-1.812-.094-.906.47.188.155-.094.813-.906-.813-1.782-.437-2.343-.281h0l-.094.187h-.25l-.281 1.25-.532.906-.093.188.156.906.094.156-.344.907c-.409.015-.708.05-1 .093-1.243.188-1.6.62-1.719 1.25-.049.245-.054.515-.094.813-.016.113-.037.193-.062.312-.01.053-.019.103-.031.157a3.695 3.695 0 0 1-.157.468v.031c-.118.292-.28.62-.53.938l.25.906 1.343 1.781.375 1h1.437l.532 1.532v.906l.562.437.969 1.907.906 1.437.99.332-.742.326-3.691-.198-1.007 1.154-4.793 1.329.034.658-1.406.425-.754-.55.517 7.967.652.208.144 1.155.608.296.667.499.046.835.606.347.524.522.697.61.682.29.796.548.532.279.698.29.836.107.426.502.515.094.152.705.65.24.795.193.07.627 1.06-.12.83.434-.51.547-9.066 19.549-.592.446.233.665.345.803.714.446.307 1.297.539.455.387.856.406.85.022.694.367.696.504.245-.042.75-.107.565.153.699.508.728 1.032.447.118.437 1.067.505.12.82.519.004.828.499.57-.001 1.038.234 29.271 1.804.01.012-.281.72-.875 2.155-.563.907v1.968l-.53 1.344.187 1-.094.375-.094.438.188.562.093.344-.062.375-.031.344.093.312.188.656-.063.875-.03.5.155.97.563.187-.469 2.062-.906 1.813-.25.187v1.781l-.375.282-.25.812v.906l-.375 1.344-.188.531-.625.438h-.906l-.531.469-.531.906-.813 1.969v.187l-.906.625-.969.094h-.094v.094l-.28.437-.907.75-.719.594v1.344l-.719.906-1.062.906-.469.906-.187 1-.157.438-.093 1 .906 1.781v.906l.25.907 1 .343-.531.907.156.187 1.438.094h.375l3.687 1.969 1.094.187.875.531 1 .375.375.625-.281.907v1.593l.093.47-.719 1-1 .437-.812.906-.344.969v.375l-.375.437-.812 1.188.093.625-.625.906-.437.344-.281.906v.094l-1.094 1.53-.094.188-.531.313-1.344.844-.906.718-.719.907-1.969.812-.28.625-.25 1.094v.062l-.094.188-.375.375-.625.25c-.786 1.456.02 2.2-1.625 3.25l-.094.906.187.531-.906 3.157-.187 1.156-.532.906v.813l-.187.375.187.718-.25 2.157-.28 1.062-.376 1-.875.625-1 .906-.187-.093-.907.28-.718.97-.438.906-.437.281-.813-.562h-.906l-.813 1.093-.906-.437h-.531l-1.906.062-1.157-.156-2.687-.719h-2.906l-.438.094-.281-.656 1.437-1.438.813-1.437v-.719l.094-.812.562-.875.25-.188.375-.281.438-.906.53-.875.657-.907-.563-.906-.187-.094-.063-.187-1-.813-.906-.343-1-.094-.344-.438-1.812-.656-1.063-.719-1-.437-1.718-1.344-1.688-1.094-1.437-.093h-.094l-2.062-.72-1-.25-.625-1.093-.907-.625-1.906-1.094-.875-.875-.469-.812-.812-.906-.25-1-.375-.188-.25-.062-.907-.656-.281-.438-.719-1.156-4.125.156-.093.094-.47-.188-.968.719-.469.906-.187.469-.25.344-.531 1.812-.375-.812-.188-.906-.969-1.72-1.53-.437-.813.094h-.094l-1.906-.094v.094l-.875-.094-.907-.812-1.093-.625-.625 1.625-1.813.531-.062.625-1.72 1.719-.28.531.812.813-1.062 3.594Z"/></svg>