<svg width="1671.094" height="856.393" xmlns="http://www.w3.org/2000/svg" xmlns:usvg="https://github.com/RazrFalcon/usvg" usvg:version="0.8.0"><path fill="#3e73c5" fill-opacity=".429" stroke="#000" stroke-opacity=".247" stroke-linecap="round" stroke-linejoin="round" d="M536.594 314.205v-34.563h-11.438l-3.194 2.11.891-7.568-2.442-3.144-2.917-1.73-2.154.485-.484 1.423-1.531 1.468v1.774l1.531 1.629v10.275l-10.7 7.153v20.688h12.813l-.01.115v-3.781l.562-.625h1.875l1 .625v3.781l.01.01v-.125Z"/><path fill="#8cce55" stroke="#0f380f" stroke-opacity=".145" stroke-linecap="round" stroke-linejoin="round" d="m520.057 281.675.947-1.894.277.118-2.29-1.223 1.856.552.434-.236-.04-.474-3.749-.908 2.25.277.118-.592h.947l-1.657-.948 1.38-.276-.118-.592-1.065-.276 1.5-1.066-.277-1.184-.947-.276-.868-1.026.75-.079-2.96-.75 1.065-.394-1.302.197-.987.04-.118.591-1.878 1.43v1.774l1.531 1.569v8.409ZM521.36 289.095l.079-.237.67-.237.158.197Z"/><path fill="#8cce55" fill-rule="evenodd" stroke="#0f380f" stroke-opacity=".145" stroke-linecap="round" stroke-linejoin="round" d="M524.911 296.238V296l1.58-.434.157.197Z"/><path fill="#8cce55" fill-rule="evenodd" stroke="#0f380f" stroke-opacity=".145" d="m527.713 295.961-.039-.71.987-.158.394.513Z"/><path fill="#8cce55" stroke="#0f380f" stroke-opacity=".145" stroke-linecap="round" stroke-linejoin="round" d="m532.765 313.405-.474-.395-.947.513-.71-.394.552-.987-.513.355.277-2.13-1.618 1.775-1.105.197.828-2.762.75-.671-1.144-2.526-.513-.079-1.263 2.842h-.553l.71-1.145-.986 1.184-.908-.158-1.973 2.881-3 .198.159-1.066 5.248-3.473-1.105.355.119-1.065-.632 1.065-1.539-.71-.04 1.342-.473.237-.434-.474-.434.355-.197-.276-.671.355.592-.552-.04-.158-1.657.394 2.13-.947-.986-.079.513-1.578-.631 1.105-.434.118-.632-.434-.04.671-.71-.237-.118.71h-1.973l-.158.435-5.091-.947-2.052.276.236-.395-.473.434-3.789.355-.829-1.697 4.973-3.788-4.262.197.079-.355 1.855-1.302-.553.868 1.026.276 1.5-3.315.197.395 1.737.434-.75-.79 1.184-.355h-.987l.592-.355-1.144-.395-.04-.591 1.066-.987 2.802-6.157.828-.236-.75-.553 1.303-.474.592-.71-.474-.71.869-.316.907-1.697 3.513-1.697.197.67 1.026.12-.276-.435.237-.237 1.144.158-.908 1.658-2.17-.355.434 1.184.829-.237-.277 1.934-1.026 1.026-.394-.79.276 1.303-2.684 3.394-.907 2.052.197 1.105 2.96-3.236.158.986 1.105-.631.828.75 1.224-.158-2.96 2.092 1.144-.395-.947 1.381 1.026-.434.908.75.276-.355.198.434.631-.671.395.197-.316.592.434-.315.119.591.039-1.38.71.315-1.026 2.565.434-.197.08-.79 2.052-.315 1.302-1.46.395.394-.158 1.066.552-.947.632.355.631-.553 1.618.434 1.263.908-.592 1.224-2.684 1.578 1.382-.276-.553.513.316.552.473-.157-.236-.277 1.223.158-1.42.829.71-.079.118.237-1.736.79 1.657-.632-.434.71.829-.908-.04.592.356.04.828-1.184.83.513.512-.592.71.276-.947 1.382-.789-.198-.158.671-.79.434h-1.578l1.5.237-.276.434-1.066-.513.71.553-.789-.08 1.224.277-1.184.079 1.105.079-.947 1.815.789 1.026h.552l1.224-2.841 1.815-.434-1.223 1.973v1.855l1.5-1.303 1.065.948-.987 1.657-.592 2.684-.75.71Z"/><path fill="#8cce55" stroke="#0f380f" stroke-opacity=".145" stroke-linecap="round" stroke-linejoin="round" d="M528.463 307.564v.158l-1.105 1.342-.079-.119Z"/></svg>