<svg width="1671.094" height="856.393" xmlns="http://www.w3.org/2000/svg" xmlns:usvg="https://github.com/RazrFalcon/usvg" usvg:version="0.8.0"><path fill="#3e73c5" fill-opacity=".429" stroke="#000" stroke-opacity=".247" stroke-linecap="round" stroke-linejoin="round" d="M144.969 607.33v-28.062H119.5v28.062Z"/><path fill="#8cce55" stroke="#0f380f" stroke-opacity=".145" stroke-linecap="round" stroke-linejoin="round" d="M137.122 593.41a2.362 2.362 0 1 1-4.723 0 2.362 2.362 0 0 1 4.723 0Z"/><path fill="#8cce55" stroke="#0f380f" stroke-opacity=".145" stroke-linecap="round" stroke-linejoin="round" d="M133.096 591.278a2.362 2.362 0 1 1-4.723 0 2.362 2.362 0 0 1 4.723 0Z"/><path fill="#8cce55" stroke="#0f380f" stroke-opacity=".145" stroke-linecap="round" stroke-linejoin="round" d="M132.623 588.595a2.362 2.362 0 1 1-4.723 0 2.362 2.362 0 0 1 4.723 0Z"/><path fill="#8cce55" stroke="#0f380f" stroke-opacity=".145" stroke-linecap="round" stroke-linejoin="round" d="M129.15 585.122a2.362 2.362 0 1 1-4.723 0 2.362 2.362 0 0 1 4.723 0Z"/></svg>