<svg width="1671.094" height="856.393" xmlns="http://www.w3.org/2000/svg" xmlns:usvg="https://github.com/RazrFalcon/usvg" usvg:version="0.8.0"><path fill="#3e73c5" fill-opacity=".429" stroke="#000" stroke-opacity=".247" stroke-linecap="round" stroke-linejoin="round" d="M189.053.507v149.407l11.25-34.375 9.53-18.782L229.74 85.29l28.781-11.532V.507h-69.468 0Zm-62.625 155.688v65.969c.015.209.008.461 0 .75-.007.288-.023.608-.032.937v.156c-.004.385.005.78.032 1.157.013.18.03.363.062.53.026.17.081.32.125.47.006.019-.006.044 0 .062.047.148.118.284.188.406.012.022.018.042.03.062a1.192 1.192 0 0 0 .5.437c.06.025.122.047.188.062.122.025.257.043.407.031h.093c.042-.01.085-.025.125-.03.124-.023.234-.047.375-.095a4.54 4.54 0 0 0 .625-.25l1.969.72.344-.188 1-.72 1-.093.906-.094.969.562-.344.875.531 1 .719.282.906.343.344 1 .906.625 1 .813.907.719.156.094.812.625 1 .812.282.906.812.97.875-.532 1-.531.906-.375 1-.157.344-1 .719-.906-.188-.906.907-.344.906-.094 1.062-.469 1-.437.907.531 1 .656.437.532-.187.968.812.907 1 .625.906.375.344.906.625.906 1 .438 1 .437.813 1.094.156.187 1 .875.093.813.907.812.437 1 .813.907.531.906 1.281 1.781.813.906.531 1-.094.875 1 .47-.187.968.969.375.187.906.719.344 1 .375.906.437.969.563.906.156 1 .625.906.563.875.625 1 .28.094.938.094-.062-.532 1 .532 2.782v1.625l.343-.344.47-1 .187-1.813.625.907-.47 1-.718.906.188.469-.438.562-.187.031-.438.813-2.625 1.25-1.812-.72-5 2.282-4.72-.562-4.655 1.53 11.687 14.938 18.688 13.907.468.187v354.219h-25.18v19.75h25.18V855.88h69.47V433.474l-20.876-.094v-22.312h9l4.063 2.5 7.812-.031v-8.188l-.25-.312-.812-1.532-.094-1-1.531-2.687.187-1.906-.093-.438-.907-.469-.906-.094-.812-.343-.25-.907-1-.437-.907.625-.906-.375-2.969-1.688-.156-1.375v-.062l-.281-.468.093-.282.188-.437.156-.344.094-.094h.375l.094-.094.437-1v-.094l.469-.094h.344l.375-.812-.188-.625-.906-.438.094-.187-.188-1 .625-.875.188-.563.28-.625-.093-.906v-.344l.906-.906.813-.906-1.094-1.157-.437-.906-.094-.094v-.094l-.375-.344-.25-.906v-.094l.156-1.781-.25-.469v-1l-.469-2.062v-.344l.907-.469 1 .188.906.437.437-.875V339.88h-13.78v-2.813h-5.126l-.344-.968-.093-2.532v-5.75l.718-1.187.907-.438h1.25l1.156.72h.656v-.376l.25-.969.375-.812.813-.906.156-.907.094-.25.625-.812.187-1 .531-.906.47-.625-.626-.907-.906-.438.906-.906.625.187.72.907.093.875-.094.656.344.875 1.375-.25h.875l1 .344 1.437-1.063.907.344 1.343.625.375-.531.438-.344.187-1 .532-.906-.094-.188-.25-.875.156-1.375.469-1.875-.813-.094h-.187l-.906-.437-.907-.907v-.28l-.343-.25-.907-1-.53-.72-1-.468-.907-.719.375-.156-.188-.907-1.343-1.625-.375-1v-5.375l.468-1.375v-.156l.188-1.094-.656-1.156-1.688-2.25c-1.346-10.82-9.227-9.245-12.687-16.937l.968-.188 1.094.094.438-.531v-.188l-.438-1.062-.625-.813-.906.25-2.25-1.437-1.156-.531-.657-.907.563-.718-.906-.625-.532-2.344-.906-.969-3.437-2-.625-.344-1.438-1.28-1.156-1.438-1.625-2.407-2.063-.094-.093-.094-.188-.468.375-1.875-.187-1.625v-.188l-.47-6.375.282-.469 1.094-.625 3.406-.437h1.344l4.969.094 1.25-.375v-17.719h-17.72l-.905-.281.187-.25-1.094-1.813-.093-.906-1.063-.719-.719-.906.438-.969-1-.812-.906.719h-.875l-1.375.437-1.782-.531-.906.437-.531-.437-.906.625-.907-.25-.968.437-.813-.187-.187-.906-.625-.875-.094-.47.25-.905-.156-.875-.719-1-1.281-.188-.532-.094-1.78-1.437-.188-.532-.907-.53-.718-.907-1-.813-1.063.438-1.812-1.156-.282-.282.282-1.78-1-.563-1.063-1.344-.281-.969.469-1.281-1-.188-.72-.875v-.812l.345-.281.375-.907-.72-.875-.624-.562h-.906l.187-.906-1.281-.782-1.781-1.53v-.563l-.375-.97-.875-.655-.907-.157-.906.625-.906-.468.375-.875-.906-.282-.375-.437-.97-.656-1.812-.625.438-.875v-.282l.562-.906-.906-.812h-.906l1.187-1.25.875-.625.563-.907v-.718l-1.531-1.813.968-.531-2.687-.281-.719-.157-1.812.532-.97-.813h-.187l.72-.906-.282-1-.969-.062.719-1-.188-1.25-.625-1v-.906l-.187-.282-.094-.875-4.937-.094-5.594.094-.188-.468.282-1.25.187-1.25-.531-1.907-.906-.437v-9.813h-.094l-.906.188-1-.188-.875-.437-.907.062-.906-.531-2.781-.907-1.906-.875-.72-.094-.812-.906-.968-.531-.907-.813-2.875-.718-.906-.094-1.906.156-2.781-.531h0v.004Z"/><path fill="#8cce55" stroke="#0f380f" stroke-opacity=".145" stroke-linecap="round" stroke-linejoin="round" d="M126.438 156.205V222.173c.015.21.007.462 0 .75-.008.289-.023.609-.032.938v.156c-.004.385.005.78.031 1.156.013.18.03.364.063.532.026.168.081.318.125.468.006.02-.006.045 0 .063.047.148.118.284.188.406.012.022.018.043.03.063a1.192 1.192 0 0 0 .5.437c.06.025.121.048.188.063.122.025.256.043.406.03H128c.009 0 .022.002.031 0 .31-.04.693-.156 1.125-.374l1.969.719.344-.188 1-.719 1-.093.906-.094.969.562-.344.875.531 1 .719.282.906.343.344 1 .906.625 1 .813.906.719.157.093.812.625 1 .813.281.906.813.969.875-.531 1-.532.906-.375 1-.156.344-1 .719-.906-.188-.906.906-.344.907-.094 1.062-.469 1-.437.906.531 1 .656.438.532-.188.968.813.907 1 .625.906.375.344.906.625.906 1 .438 1 .437.812 1.094.157.187 1 .875.093.813.907.812.437 1 .813.907.53.906 1.282 1.781.813.906.53 1-.093.875 1 .47-.187.968.968.375.188.906.719.344 1 .375.906.437.969.563.906.156 1 .625.906.563.875.625 1 .28.094.938.094-.062-.532 1 .532 2.781v1.625l.343-.344.469-1 .188-1.812.625.906-.47 1-.718.906.188.47.187.405h.906l-1.531.157-.187.03-.438.813H177l-.438.813.188.187-1 .438.812.906.907-.187v.187l-.282.094.282.968-.375-.156-1.688-1.812v1.812l.875-.281-.062.906.25.281 1 .063.53-.25h1.907l-2.094.437.563.907-1.094-.907-.187.907.375 1 2.437 2.406.875.656.375-1.719.813-.906.906-.437.719-.907.343-.187-.343.906.906.344-.906-.094-.469.907.281.906.906.812 1.157-.28.812.28-.906-.187-.969.562-.906-.562-.906.187.093.907 1.72 1.25v.906l.718.906.969-.187-.438 2.062.094.906.906-.906.344.906.375-.906-.188 1 .188.906 2.781-1.718 1.438-1.907-.375 1-.875.813.437.906 1.625-.187-.625.718.438.907-.625-.907-.907-.343-.906.53-.437.907h-.907l-.812.906-.344.875.25 1.282.906.718.375-1v-.437l.97-.719.374.875h1.813l.968-.719-.343.907h-2.72l-.874.718-.906 1.25 1.78.188 1-.438-.905.532-1.532.093-.25.907 1.782.343-.907-.093.563 1 .875.28h1l-1-.374.906.187h1.906l.907-.187.875.094-.875.375.875.156.28.906h1l.876-.344.812-1.812.094.906-.625.906-.906.438-1.875.187.187.25.97-.062-.97.625.97.156.905-.344.907.438.437-.875.188.875h.906l.906-.25.875-.813-.156-.906.437-.906.282.281-.375 1.875-.907.625v.906l1 .094.907-.719h.906l-.906.813.093.906-.187.906h-.531l1.343 1.25.907.188.875-.188.906-.375-.344-.875.813-.906-.563.906.281.532-.187.906.906.625.906-.281-.531.375-1.906.093.719.875 1.812.469.531-.906.907-.438-.188.875.375.906.719.188-.563.625.375.281-.187.906h.281l.344-.468.906.468.188.97.906.468.344.875-.282.906-.875-.187 1.438 1.093.094 1 .53.907-.53.875-.188 1 .25 1.812-.875.531-.625.907-.906.25-.469-.719.906-.906.094.906.906-.813.25-1.062-.437-.906.53-1-.874.093-.656.907-.97.812.345.813-.907.093.47-.906 1.624-1.812v-.97l-.281-.905-.906.187-.907-.375-.875.281-2.718-.28-1.875-.626-.907-.437-.906-.188.281.625-.093.906.187.907.813.875.437.906.188 1 .344.906-.094.156.469.907.812.906.875.281-1.437.438.375 1 .437.53-.25.907-.281-.906.094 1 .343.875 1.907.188.906.375.906.093-.906.25-.906-.343-1.907-.094.188.969v3.625L205 323.86l-.344 5.5.344.906-.719.531.094.907-.813 1.156-.625 1.906v.875l.532.906-.094 1.532.281.906.719.906v.719l.625 1.781-.094 1.344-.25.906.063.906-.156.907-.625.906-.282.812.094.875.719 1 1.156 1.188.469.875.25.906v1.906l.375.875-.094.907 2.688 2.53.812 1.345.375 1 .906.718.875-.375.813-.906.906.469.188-.188.906.094.969-.469.625.469-.875.281-.907-.187-2 .25.188.906.812.906.188 1-.906-.625-.907-.906-.093.969.468.906.094.906.719.907.906.625.969.28.375.876-.719 1.437.156.907.907.625.906.906.437.906.719.906 1.813 1.532.187.906.906.719-.187.875.187 1.812.875.438h2l1.782.28.906.438.906.907.906.468.969.344.906-.25.907.781.53 1 .376-.343c2.041.968 4.776 2.728 4.406 5.375l.625.906.188.719.812.906.188 1 .875.875.187 1.812 1.438 1.625.375 1.344.875.719.093.906.563 1 .344.344.187.906v1l.344.344.375 1 2.156 1.531h.375l.875.438 1.719 2.062 1.812 1.813.438 1v.968l-.625.907 6.656-.032-.531-1.406-1.281-1.875-1.782-1.469-.093-.875-.438-.906-2.531-2.25-.906-.375-.72-.875-.437-1.531.094-.906-.375-.907v-.906l-.625-.969-.188-.906.282-2.719-.906-.875-.094-.375.094.188.343.187-.156-1.375v-.062l-.281-.469.093-.281.188-.438.156-.343.094-.094h.375l.094-.094.437-1v-.094l.469-.093h.344l.375-.813-.188-.625-.906-.437.094-.188-.188-1 .625-.875.188-.562.28-.625-.093-.906v-.344l.906-.906.813-.907-1.094-1.156-.437-.906-.094-.094v-.094l-.375-.344-.25-.906v-.094l.156-1.78-.25-.47v-1l-.468-2.062v-.344l.906-.469 1 .188.906.437.438-.875v-31.405h-13.782v-2.813h-5.125l-.343-.969-.094-2.531v-5.75l.719-1.188.906-.437h1.25l1.156.718h.656v-.375l.25-.968.375-.813.813-.906.156-.906.094-.25.625-.813.187-1 .532-.906.468-.625-.625-.906-.906-.438.906-.906.625.187.719.907.094.875-.094.656.344.875 1.375-.25h.875l1 .344 1.437-1.063.907.344 1.343.625.375-.531.438-.344.187-1 .532-.906-.094-.188-.25-.875.156-1.375.469-1.875-.813-.093h-.187l-.906-.438-.907-.906v-.281l-.343-.25-.907-1-.531-.72-1-.468-.906-.719.375-.156-.188-.906-1.344-1.625-.375-1v-5.375l.47-1.375v-.157l.187-1.093-.656-1.157-1.688-2.25c-1.346-10.82-9.227-9.245-12.688-16.937l.97-.188 1.093.094.438-.531v-.188l-.438-1.062-.625-.813-.906.25-2.25-1.437-1.156-.531-.657-.907.563-.718-.906-.625-.532-2.344-.906-.969-3.438-2-.625-.344-1.437-1.281-1.156-1.437-1.625-2.407-2.063-.093-.093-.094-.188-.469.375-1.875-.187-1.625v-.187l-.47-6.375.282-.47 1.094-.624 3.406-.438h1.344l4.969.094 1.25-.375v-17.719h-17.72l-.905-.28.187-.25-1.094-1.813-.093-.907-1.063-.718-.719-.907.438-.968-1-.813-.906.719h-.875l-1.375.437-1.782-.53-.906.437-.531-.438-.906.625-.907-.25-.968.438-.813-.188-.187-.906-.625-.875-.094-.469.25-.906-.156-.875-.72-1-1.28-.188-.532-.093-1.78-1.438-.188-.531-.907-.531-.718-.907-1-.812-1.063.437-1.812-1.156-.282-.281.282-1.781-1-.563-1.063-1.344-.281-.968.469-1.282-1-.187-.72-.875v-.813l.345-.28.375-.907-.72-.875-.624-.563h-.906l.187-.906-1.281-.781-1.781-1.531v-.563l-.375-.969-.875-.656-.907-.156-.906.625-.906-.469.375-.875-.906-.281-.375-.438-.97-.656-1.812-.625.438-.875v-.281l.562-.906-.906-.813h-.906l1.187-1.25.875-.625.563-.906v-.719l-1.531-1.812.968-.532-2.687-.28-.719-.157-1.813.531-.968-.812h-.188l.719-.907-.281-1-.969-.062.719-1-.188-1.25-.625-1v-.906l-.187-.282-.094-.875-4.937-.093-5.594.093-.188-.468.282-1.25.187-1.25-.531-1.907-.906-.437v-9.813h-.094l-.906.188-1-.188-.875-.437-.907.062-.906-.53-2.781-.907-1.906-.875-.72-.094-.812-.906-.969-.531-.906-.813-2.875-.719-.906-.093-1.906.156-2.781-.531h0Zm46.718 108.625v.906l.813-.906h-.813Zm-9.281 2.875-.625 1-.281.906 1.094 1.594.625 1 .906.187-.906.625 1-.094.093.907.875.187 1-.187.813-.907v-1.78l.281-.907.625-.906.344-1h-.907l-.875.28-.093.907-.531.906-.907.782-.906-.157.906-.718.906-.47.25-.968-.968-.812-.906.343-.907-.53-.906-.188h0Zm11.969.53-.906.188v.907l.906-.532-.531.875.906-.437-.281-.906-.094-.094h0Zm.719 1-.094 1 1 .72v.437l1.625 1.906.906-.187v-.906l-2.531-2.344-.906-.625h0Zm-.344.813-.281 1.094 1-.187-.72-.907Zm6.656.532-.563.093-.968.813.093.906 1.438-1.812h0Zm-7.844.562.625.875 1.813 1.625.281.375.875-.094-.344-.906-.812-.906-1.531-.813-.907-.156h0Zm7.125.625-.281.344-.281.906.906-.344-.344-.906h0Zm-1.375 1.25.563.906-.281-.906h-.282Zm1.469.281-1 1.782.906.28.156-.905-.062.906-.656.906.906.906 1.094-1.812-.281 1.812.906-.906.093-.906-.28-.906-.907-.72-.875-.437h0Zm-13.875.438-.906.375h-1.781l.906.719.875.25-.875.375.719.906h.875l.093.875 1 .906.906.469.532.969.812.906.906-.281.094-.25-1-.375-.625-.97-1-.655-1.094-1.875-.25-.907.188-.093-.094.28.969.532v-.906l-.625-.063.469-.187-.188-1h-.906 0Zm11.625.187-.188.438.907.469-.719-.907Zm.969 2.25v.72l.562.905.969.157-.531-.875-1-.907Zm3.875.188-.188.969.813.906-.438-1.875h-.187Zm-15.125.344.375.906.531-.906h-.906Zm14.5.53-.625 1 .906-.093-.281-.906h0Zm-1 1.282.562.906.063-.906h-.625Zm7.031.25-.906.188-1.813 1.25-.25.906.906-.188.438-.625.906-.53.719-1Zm-4.594 1.375.188.875.156-.875h-.344Zm1.156.781-.875.282-.375.906.907.719.437-1.813-.093-.094h0Zm-.062 2.188-.656.25.187 1 .906.531v-.906l-.437-.875Zm-.813 5.281-.906.375.188.906.781.907.906.062.906-.781 1 .531.438.906-.906-.718-.969.062-.375.906.906.47-.375.874 1.813-.437.187.906.906.187.875.875.907-.343.187.187.719.719.906-.094.969.625-1.344.344-.25.906.875.375h.906l.907.344.906-.094.188.906-.375.907 1.812.718 1.875-.343.906-.657-.625.907-.906.812 1.813 1.25 3.687 1.281 1.781.532.906-.72.188-.905-.906-.813-.438-.906-.906-.781-.469-.907-1.781-1.187-.906-.156-1-.563-.813-.906-.25-.969-.906-.812-.281-.532-1.531-2.156-1.782-.187-2.062-.625-.906.062-1-.437-1.813-.344-1.781-1.094-.906-.375h-1.875 0Zm6.47 5.875-.72.531.438.907.906-.563-.625-.875Zm2.062-5.687-.531.906h.906v-.906h-.375Zm4.875 2.343.437.907.188.906.187-.906-.812-.907Zm1.594.813.75.906-.563-.906h-.188Zm-.344.531v.906h.531l-.531-.906Zm2.437 2.875.719.906.969.563-.781-.906-.907-.563Zm4.219 4.781v.375l.906.625-.906-1Zm2.156 1.97-.25.562.875.343-.625-.906Zm15.031 80.562v.53l.907-.28-.906-.25Zm-.625.53-.906.095.906.093v-.187h0Zm6.563 5.126.813.906-.532-.906h-.281Zm23.219 17.812.187.907 1.781 1.625-.156-.532v-.906l-1.812-1.094ZM135.188 156.298l-.907.72.906.28.875-.718-.875-.282ZM185.563 660.236a2.25 2.25 0 1 0 0 4.5 2.25 2.25 0 0 0 0-4.5ZM202.219 661.048a2.25 2.25 0 1 0-.001 4.5 2.25 2.25 0 0 0 0-4.5ZM177.625 662.736a2.25 2.25 0 1 0 0 4.5 2.25 2.25 0 0 0 0-4.5ZM174.313 657.736a2.25 2.25 0 1 0 0 4.5 2.25 2.25 0 0 0 0-4.5Z"/></svg>