<svg width="1671.094" height="856.393" xmlns="http://www.w3.org/2000/svg" xmlns:usvg="https://github.com/RazrFalcon/usvg" usvg:version="0.8.0"><path fill="#3e73c5" fill-opacity=".429" stroke="#000" stroke-opacity=".247" stroke-linecap="round" stroke-linejoin="round" d="m397.74 502.01-.438.28-.187.282-.813-.438-.437.156.156.282-.437 1v1.062l.906.563.094.156-.563.281-.344.375.344 1.063v.375l-.25.156-.187.094-.188.625h.094l.281 1.187.188.094 1.78 1.438v6.25l-.187 338.594h-69.468l-.157-171 .157-19.813V472.26l-1.157-.094-1.531-1-2.25-.72-.719-.905-4.937-1.157-1-.718-4.875-1.72-2.781-2.155-1-1-.875-.25-.563.25-2.875-.72-.969-.53-2-.532c-4.875-7.05-5.878-.48-10.343-10l1.812-.906.156-.437-.093-.188v-.094l.093-.094.188-.25.906-.625.906-.469.875.47h.375l.094.061.187.281.875.625v-.343l.375-.907v-.375l-.093-.625.719-.094.625-.875-1.063-.562.156-.969.188-.375-.906-1.062-.532-.375.375-1 .094-.25-.094-.563-.625.094h-.093l-.813-.969-1.094.062-.53.282.437-1.063-.438-.906-.906-.375h-.906v-.625l-.97-.281-.093-.157-.375-.562-.25-.875-.281-.094-.375-1.188-.25-1.437-.188-.531-.906-.907-.969.47-.906-.47-.531-1.156-.188-.469-.906-.812-.531-.531-.281-1 .093-.625.282-.97.53-.655.621-.357-.176-1.267 1.163-.651-.067-.647.318-.144-.094-.65.612-.444.407-.366.37.76.584.58.572-.496.458.809 1.175.586 1.049-.757.26.747c.645-.127 1.29-.598 1.935.035l.469.69 1.585-2.427c.376-.058.689-.433 1.171.04l1.442.672-1.477-6.71 3.01-5.304-5.41-3.275-.882-3.776v-2.554c.557-2.253.212-4.784.343-7.125h8.188l.281-.25v-6.219l.094-2.625V370.196l.187-.438v-2.625h4.563v-4.031h2.437l-.094-1v-.094l-.093-2.875.375-1.188.093-1.062v-.438l.438-.812v-1.281l-.813-1.157h-2.343v-2.25h3.437v-.812l-.093-1.531v-1l.437-.97-.094-1.812v-1.53l-.718-1v-.876l2.093-.094.625-1.281v-.438l.188-1.25-.094-.906-.375-1.25.188-.656-.282-.875v-.375h-2.611v-4.656h.96v-1.081l.79-.107h1.955l1.344-1.813-.094-.156-.093-.375-.72-.094-.905-1.875.28-.187h1l.157-1 .469-.25.187-.907v-1.093l-.906-.97.625-1.28-.625-.907h-5.035v-1.233l.651-.565.502-.336.86-.52.629-.088.707.244.609-.527.608-.475-.875-.968-.187-.47-1.25-.187v-.25l-.563-.718h1.282v-.72l-.375-1-1.625-.374c-.254-2.673-1.29-.005-3.875-1.531l-1.063.468-1.094-.094-.875-.375-1.812-.062h-.719l-.906.625-.719-.906v-.187l-.906-.813h-.344c-.004-2.31.021-4.597-.094-6.906h-27.625l.01-22.488h1.45l.19-.69.298-.428.353-.28.383-.49.51-.026.261.65.337.536.434-.336.208-.458.23-.237-.096-.331-.327-.206-.339-.34-.212-.43-.29-.28-.36-.374-.456-.288-.213-.58-.382-.103-.413-.178-.27-.43-.319-.261-.477-.18-.5-.125-.01-42.303h36.875c.712-6.448-.03-14.292.188-21.063v-30.324h59.205v-18.238l-21.842-22.648-8.337-.057-4.105-5.744-18.63-5.157-4.373.794-2.387-1.571V49.195h21.344V.507v.001h69.594l.063 32.47-12 .156v149.062l-5 4.313-14 25.312v38.157l-3.897 4.508v14.051h3.89l2.268 2.29v1.856l-2.25 2.305v1.702h-4.389v4.841l-2.286 1.236-1.373 1.63v1.411l1.238 1.544 2.21 1.591v7.797l-4.423 1.431-.154 4.067 4.695 1.687.574 1.405-.01-.009 1.625.094.344.094-1.875 4.125.625 3.031.875 1.47 1.281.061 1.031.875 1.094-.406h3.563l.343.937.97-.03.968.624.281.844.938.406.312 1.344 1 1.406 1.25.031 2.5 1.188-.906 1.406-3.281 8.344-.157 9.937 1.875.125h1.438v.282l.187.625-.906 1.062-.625.719-.531.281-.188 1.625-.625.969h-1.968c-.31 2.621.538 6.966-.375 8.562-.082 1.91 1.34 2.23-.625 4.063l1-.375 1.062-.188 1 .563.25 1.156 1 .281-.094.97.907.718.53-.813v-.156l1.095.813.25 1.062.656.906.875.438 1 .094 1 .375.437.719.532-.094.906-.094v.28l.375.345.625.812h.812l.344 1-.812.906.656 1.25-1 .532.094 1 .812.906-1.094.719-.53.625-1.907 2.875.094.094-.188.343-.344.188h-.53c.595 2.624 1.103 5.039 1.53 7.656.257 1.175.277 2.141.532 3.25v.156l.812 1.72v.093h.094v.094l.093.344v.094l.25.906c-.9.678-1.315 2.151-.718 3.156l.093.188-.28 1.594.28.718.094.282.188.28v.157h-.094l.094.094.093.375.25.625.188.375v.062l-.188.375-.343.531-.094.47-.625 1.78.25.375.187.094v1.063l-.187.187-.438.188 1-.094 2.25-.906.063-.438h.375l.906-.562.906.094 1.594 1 1.188 1.78.906.72.25.468 1.812 1.157.532.906v1.812l-.625 1.875-.094.907-.281.53.562 1 .625-1-.375-.812.656.907.157.906-.25.344-.188.906.438 1.094v17.968H380.74v9.347h-5.451l-.033 1.096-.567.615-1.047.157-.448.538-.384.908-7.743 7.733v8.408l1.069-.15 1.007-.12 1.487-2.591 1.44.146 1.143 1.687h26.527Z"/><path fill="#8cce55" stroke="#0f380f" stroke-opacity=".145" stroke-linecap="round" stroke-linejoin="round" d="m397.75 32.86-.156.126h.156ZM385.594 32.923l-2.156.188-.907.531 1 .625.813.906-1.813.532h-1.062l-.906.187-2.063-.094-1 .532.906.656 2.875.344.906.375 3.563.406v-4.969l1.844-.031-1.531-.094ZM371.656 37.33l-1.812.28-2.063.626-1 .906-.969.25.97.375-.97.719-1-.375-1-.781-.968.343h-2.25l-.906.438-1 .094-.875.812-2.094.094-.875.812-1 .625.25.188h1l.906.906 1.969-.187 1-1 .906-.344.969.187 1.094-.375.906.72.906-.095.969.188c-1.94.404-3.993.827-5.75 1.875l1 .281 1.062.531.906-.343 6.22-1.72h.968l.906-.187 1.906.094 2.97.625-1.907-.094-1.063-.25-2.968.25-1 .657-1.094.093-.875.438-2.906.906 2.812.906.969-.187.906.094-2.969.437-1-.344h-.968l-.625.25-1 .625.719 1 .906.438 2.5.187 1.906-.343 3.063-.282h4.843l4.156-.625 1.97-1 3.874-.906.594-.062v-7.032l-.406-.375-.906-.25-1.188.813 1 .719-1.969-1.282-1-.437-1-.375-.969-.063h-1l-.906.782-.969.28.97.626-1.876-.625v-1l-.906-.344ZM346.719 45.267l-.969.438-2-.282-.719.188-.531 1 1 .437.969.188 1.906-.188 1.969.375-.188.97-1.781.28-.906-.28H343.5l-.813-.157 1.063.625 1 .187-1.813.344-.875.375-.906-.812-1.094-.094-.906.25-.969 1-.28.906.906.625 1.093-.187.875.906 3.156.187-1.968.188-.281.875h.906l1.969.375-.97.281h-2l-.968-.094-.906-.468-1 .187-1-.094-1.969.188-1 .906 1 .438.906.625.906.187-1 .094-1.906-.188-1.875.47h-.906l1 .25.906.812 1.969.437.906-.437 1 .28.875-.28-.875.437-1 .094 1 .719.969.093.906-.156 1-.281.875-.625.906.25 1 .094-1.906.562-.062.875.969.563h-.72l-.968-.375h-2l-2.969-.282-1-.156-.875-.469-1-.25h-.906l-.25.875h1.063l-.625.657 1 .625.875.093-1.063.157.281.906.781.906.907.375 1 .625 2.062.094 2.781-.375.907-.625.906-.281-.094 1-1.968.718-3.782.438-.375.906 1.094.813.906-.188.344.906 1 .532 3.781-1.344.907.187-.72.907.97.343 1-.343 1-.625.718-.907-.093.907.968-.094.282-.906 1 .437 1.875-.437h.906l-.906.437 1 .563 2.062.062 1-.25h1.063l.906-.281c-1.86 1.555-4.531.619-6.656 1.094l1 .718.906.188h.969l1.906-.281.969.093 1-.187 2.875-.094c-4.264 1.509-8.91.786-13.313 1l-.812.906-1 .344-1.063.094-.906.281.719.875.906.813h2.062l1.907.625-1 .28-2.063-.437.438.97 1 .093.343.906 2-.344 1.875.344 3.782.281-1.97.344-1.905.094-1.875.375.343.875.907.375 1 .625.968-.281.282 1c2.763-.288 5.952 1.912 8.625.468l-.344-.906-.906-.094-1-.468h2.906l2.594 1.718v-.906l-.532-.875-1.437-1.375-.469-.969.469-.468 1.625 1.812 2.687 2.531.907.25.718-.968.813-1.907-.906-.906.906-.531.969.812.906.344.906-.625-.094-.969-.906-.375-.344-1.812.094-.969L373 69.923l-.438.875-.468 1.907.562.906.875.625.906-.531.813-1 .906-.532.719-1-.094-.906.907.719.906-.188.625-.875 4.031-.906 2.5-.969v-1.093l-.781-.375-1.531-1.875-.907-.563-1.343 1.906-.72-1.812-.906-.344-1.062-.094-.906.438-1 .187-.875.72-.906.093 1.437-1.906.188-.875.437-.907h-1l-1.063.344.97-.906.906-.25-1.625-1.344-1.97.094-1-.375 1-.531.907-.282-.188-1.875-.906-.656-2.969-.25-.906.531-.062.907.875.906 1 .25.437.906-.875-.25-1 .25-.906-.25-1.875-1.094.156-.906-.437-1 .375-.875-1-.469h-2.875l-2.969-.25.188-1-.907-.718-1-.094-.719-1-1.718-1.688-.969-.718-.469-.907-.906-.906-.969-.437-2.812-.813Z"/><path fill="#8cce55" stroke="#0f380f" stroke-opacity=".145" stroke-linecap="round" stroke-linejoin="round" d="m385.75 46.767-1.594.375-2.875 1.344-3.062.906-2.781.281c-3.91-.298-5.642-.62-9.72.532l.438.906 2.813.812 1.969.813 1 .062 1.875.657h1l1.062-.188.813-1 1.906-1.156.906-.719 2.875-1.344.969-.187 2.406-.156Z"/><path fill="#8cce55" stroke="#0f380f" stroke-opacity=".145" stroke-linecap="round" stroke-linejoin="round" d="m385.75 49.11-2.563.563-1 .438-1.906 1.531-.875.438-1 .812-.375.906 2.969.72 1-.532.906-.188-.906.625 3.75.375ZM336.375 52.736l-1.969.25 1 .281.969-.094 1 .282 1.875.062.094-.625-.969-.156h-2ZM380.844 56.58a5.47 5.47 0 0 0-.906.187l-1 .625-.344.906-.094 1 .813.907 3.78.343.97.625-.875-.343h-1l-1.907-.375-.968.375-.094 1.875 2.875.625 1.094-.063.968.156.907.375.687.625v-7.03c-2.149.01-3.068-1.018-4.906-.813ZM317.5 58.58l-1.281.625-.438 1 .188 1.156.531.094h2.344l.906.343-.094.907 1.875.468.907-.187.28-1-.562-.906-.093-1.25-.97-.72-.906-.28-.906.187-.906-.344ZM307.313 69.736l-.094.094-.469.25v7.875l.469.062 1.094.094 1.875.625 1 .094 1 .718.437.97.719.905 1 .813.906.375 1.25.156 2.875-.25 1-.187.875-1.875-2.687-2.625h-.907v-1l.282-.875.718-.907-1-.375-1.156-.187V73.33l-.906-.282-1-.718-.969.375h-1.906l-.188-1-.968-.813-2-1.062-1.25-.094ZM382.719 69.923l-.969.063-1.813.906v.906l4.032-.812.656-.906ZM385.063 71.517l-1.875.563-4.97.718-.906.532-.53 1 .28.875h-1l-.906.562-.812.906v.97l.719.905.906.188-.969.812.969.157 2.062-.157 1-.906.906.094.907-.375.969-.625-.625.906-.97.625.626.906 2.969-.468.906-.72 1.031-1.374v-6.094ZM325.75 72.423l-.969.188-.719.906.625.906.907.532-1 .437-.438.906.875.375.375.875 1 .375.875.72h1l.906.187 1.875.812-.968.344-2.094-.094-.969.469 2.781 1.062.188.907.969.53 1.906-1.155 1 .343.969-.093 2-.532 1.875-.25.906-.375.344-.906-.813-.906-.969-.438.907-.718.969-.375-.344-.875-2.813-1.094-2.062.281-.906-.281.375-1-.907-.063-.969-.562-1-.094-.906-.437-1-.282-1.875-.437ZM371.563 76.205l-.532 1.906.813-1.906ZM341.875 77.923l-.719.094.719.906 1-.187ZM385.438 80.267l-2 .813.187.875 1.875-.25h.25V80.33ZM308.75 81.798l-1.531.094h-.469v1.969l.281.094h1l1.813-.47 1.969-.062-.72-.906ZM375.344 81.798l-3.688.813-.281.969.094.906 2 .812-.282.907.532.968 1 .188.906-.25.969-.094.906.156-.906.094-.969.469.875.906 2 .25-1 .469-1-.563-.875.094-1 .719-.906-.25-1.875.156-1-.156-2.063 1.156-1 .281-2.781 1.25.438 1.875-.97.907 1.97 1.28.906.063.906-.156.781-1 .188.906.562-.906-.812-1.875.875-.469-.063 1 .719 1.875-.375.907 1.906.375.875-.375.906.53 1-.155-.625-.907.25-.906.813.906 1 .625 1 .188.875-.094.281-.906 1-.906-.906-.72 1.875 1.188-.875.344.719 1 2.875.344.875.375h1.781V86.892l-1.406-.156-.906-.625-.97.187-.187-1-.375-.906-.906-.969-.969-.718-.906-.375-1.875-.438ZM385.75 81.923l-.25.032-.969.812h.969l-.969.719.906.906.313.094ZM337.563 82.705l-2.094.437-.875.344-.906.719.343.906.906.719.907.187 2.875.094 1-.188h2.781l1 .282 2.875.093.25-1 .563-.906.968-.719-1.969-.718-1.062.375-3.719-.47-2.969.376ZM358.969 84.142l-.906.25-.72.906.094 1 .438.875 1 .563 2.875.906 1.094-.094.906-.562.437-.875v-.906l-1.343-1-1.907-.813h-.968l-1-.25ZM384.781 84.86l-.969.438.97.094.906.719.062-.031v-1.125ZM357.875 88.08l-.625.906 1 .281.906-.094-.281-1ZM335.75 89.986l-.906.187h-.969l-.906.72-.906-.095-.907.532.906.718 1 .375-.906.625-1-.562-.25.906 1.875.281 1.875 1 1 .25.906-.437-.906.812-.906-.093.563.968 1.875.47 2.875.25-.97.468-.906.094.907.53.969-.187 1-.53 1 .28 3.937.25.906-.718 1.094-.344 1.781 1.437.813.97v.905l1.906 1.188.531.969.531 1.812-.906.438-.812.906v.906l-.438.906.719.97h1l-.469 1 .719.905.094.907.562.906.875.25 1 .812.906-.625.907.72-.563-.907.906-.438.907-.906-.282 1.813 1.813.718 1.875.438.469-.281.968.468 1.813-.468h.906l.531-.97.188-.905.812.906 1.344-1.906.438 1 .187.906-.531.875 1 .906.875-.094 1 .282.906-.344.906.437.875-.718 1 .718.907-.187.906.187-.188-1 1.813.813.781-.906.563.906h.906l1.875-.25-.094-1 .813 1 .906.156.5-.844v-9.78l-1.594.75-.906-.282-.875.437-1 .094.719.906 1 .188-1.906-.094-1.875.531-.47-.906-.874-.094-1-.343-1-.813-.969-.094-.281.907-1-.438h-.906l-1.782.781-.719-.875-.906-.718-.906.156v1.812h-.906l-.813-.906-.969-.531-.906.344-1-.157 2-.562.719-.875-1-.906-.906-.375-.906.28.093-.905-.875-.813h-.187l-.907.625-1 .094-1.78-.531-.907.812.281-1h-1l2.781-.25 1 .063-.906-.625-1 .375-.875-.813-1-.187-.906.187-.625-1 2.875.719h1l.906.094.875-.188 2.156.188 1.907-.188.625-.875c-2.235-1.064-7.674-1.326-10.25-2l.906-.187 2.875.375.437-.907c-3.35-1.323-4.602-2.045-8.53-.343l-.907-.188-1.906-.094-.969.625-1 .907-1 .28 1.719-1.718.375-.906-.907-.906-2-1.157-.875-.093-1 .343-.906-.25-.906-.625-.969.094-1.906-.375-.906-.437Z"/><path fill="#8cce55" stroke="#0f380f" stroke-opacity=".145" stroke-linecap="round" stroke-linejoin="round" d="m362.844 92.142-2 .344-.625.906 1.719 1.813.906.53.344-.343 1 .063-.72-.875.72-1-.375-.907ZM313.969 92.955l-1.875.25-1 .656-1 .25-.969.719.969.093 1-.187 3.062-.969 1-.469ZM316.5 93.048v.25h1.875ZM322.156 93.673l.906.25-.906.657-.969-.094.063.906-.531.875-.531-.875-1.907-.812-2.781-.563-1.875.656-1 .625.188.875.906.47h1.875l.906.53v.375l-1-.28-.906.28 1 .875.906-.062.906.344.969.093-.969.188-.906-.188-1 .188.719.906h.281v.25l1 .531.875-.156-.875.625-.906.25-.094-.437-1.906-1.344-.875-.094-.563-.906-.968-.531-1-.188.28-.906-.905-.531-.907-.438h-1.968l-.47.438-.437.53-.03.157v.781l.468.063 1.281.187.969-.187-1.063.531-.718.906.812.907 1.781-.282-1 .813.907.906 1.093.438.907-.157-2 .532-.907-.625-.968-.47-.907-.155h-.187l-.469.03v1.282l.281.469-.28-.063v1.469l.218.031.25-.093 2.531-.438 1 .094.969-.282.906.094 1-.281 3.875-.438 3.938-.187-.907.281-2.875.188-.906.906h-.25v.25l-.906.094.906.187v.188h-.906l-1 .343-.969.094.875.531-.969.282 1.875.906 1.094.094-1.812.156v1.812l.906.344.906.094 1.875.094.906-.907 1 .657h2.688l1.906-.188.969.094-.094-.906-.344-1 .907.812.906.094-.281-1-.907-.344-.906-.719 1-.187-.625-.906 1.969-.72.625.907 1 .344-.625-.875.094-1.813-1.907-.343.813-1 .187-1.907.344-.875-.156-.906-1-.906.281-.906-.188-.97-2.78-.562.874-.156-.875-.281-1-.625-1-.094ZM340.25 98.798l-.813 1 .907-.906-.094-.094Z"/><path fill="#8cce55" stroke="#0f380f" stroke-opacity=".145" stroke-linecap="round" stroke-linejoin="round" d="M306.75 100.455v.53l.469-.124v-.094ZM342.063 100.517l-1.813.25.188.906.53.907 1.907-.094-.469-1-.187-.875ZM333.063 103.642l-.907.75-1.969.531.438.907 1 .25.969-.625.093-.907.907.47h.906l.969-.563-.532-.438-1.875-.375ZM340.25 103.642l-1.875.375-1.906.719.093.906-1.906.094.906.25-2.78 2.156-.532.906.906.563.438.875.718-.875.344.875 1 .562.906.25.907.719.968-.531 2.813 1.625 1.781-.281H346l.812-.907.188-.875-.094-1-.906-.718.719-1-.156-.907-1-.625-.625-.906-2-1.5-.875-.469-1.813-.281ZM315.25 103.736l-1.906.375-1 .437 1-.25.906.25ZM336.563 112.923l-.907.625.906.469 1 .25.875-.156-.718-.906-.969-.282ZM328.469 113.017l-.906.531-.813.906h1l.906-.437.063-.906-.25-.094ZM346.375 117.236l-1 .281H343.5l-2.875.625-.906.375-1 .156-.531.906 1.718 1.72.969.343-.906.187-1.969-.812-.906.094-.813.906.469 1-.188.875.344 1.812-.344 1.875v1.907l.344.906.906.437.375.907.72.906-.188 1.875 1 .625.906-.094-1.906.469v1l1 .062 2.687-.343 1 .187 1.969-2.812.906-.532.438-.906-1.531-1.781-1.875-.281 1-.344 2.78-.188 4.75.72.907-.188 1-.719.906-.906L356 126.61l-.281-.907 1-.187.719-.969 2.687-2.719.719-.906.281-.875-.906-.719-.906-.28-3.75-.532-1.907.156-.906.563-.906-.813-.875-.375h-.719l-1-.531-1.875-.281ZM326.469 117.704l-.969.157-2 .656h-.969l-1.812.719-.969.093.875.782h1l-.906.187.906.188.906-.375.906.093 1.875-.437 1.813-1.188.25-.718-.906-.157ZM362.844 118.142l-.906.625.906.094v-.72ZM329.827 129.8l-.296-.408-.968-.437.53-.907-1.874-.625-1-.093-.906.187-.907.531Z"/><path fill="#8cce55" stroke="#0f380f" stroke-opacity=".145" stroke-linecap="round" stroke-linejoin="round" d="m323.594 128.048 1.812-1.718 1.813-1.344 1.875-.438.437-1-1.875.094.625-.906 1 .094.969-.532.375-1-.812-.906-1.97-.625-1.812.344-1 .375-1.968.281-.907.25h-.968l-.907.563-.906-.907-1.875-.718-.906-.72h0l-.094.094-1 .25 1 .625v.563c-3.894-.844-.705-.924-4.687-.188l-.188.907.906.25.907.562.28.969.876.719-.969-.25-.906-.907-1-.375-.906-.093-.97.468-.624.907.875.343 1.906 1.188.906.063 1.781-.438.907.094.906.625 1 .187-1 .282-1.906-.907-.531.907ZM381 120.11l-2.875.094-2.781.563-1.875.531-2.813 1.531-1.969 1.438v.906l-1 .719-.906.25-.969 1.812-.093 1.875-.906.282.093.906-1 .344-.093.906-.438 1-.187.906.562.875.969.094-1.875.719v1.812l.812.906-.812.97v1.624l.531.906.906.282 7.469.906.906-.469.438.907 1.906 1 .875.156-.875.656-1.813-.094-1 .157-.968-.063-.906-.656-.907-.156h-2.875l-.906-.375.813.906-1 .531.375.906.906.72 1.531 1.812.875.437 1.906.375.906.438-.906.093 1.781.907 1.813-.72 1.875.25-.781-.905.875-.532.906.625h1l.906-.625-.562 1v.907l.906.718 2.438 1.25h2.593l-.875-.437-1-.188-.906.094.906-.375 2.844.281v-8.343l-.313-.22h-.03l.343-.468v-.125l-.781.156-1-.187-1 .187-.969.25-1.906.907-.875.187-.906-.281 1.78-.344 2-1.094.876-.093 1.812-.72h.969v-1.28l-.687-.063-.907-.344-.906-.625-2.781-2.437-1.063-1.906v-1.782l.719-1-.187-.906-1.813-1.625v-.875l.281-1 1-.812 1.782-2.782.906-.906 1.812-1.25 1.844-.969v-1.468l-.875-.188-3.875-.281Z"/><path fill="#8cce55" stroke="#0f380f" stroke-opacity=".145" stroke-linecap="round" stroke-linejoin="round" d="m385.75 124.892-.5.625.5.281ZM331.438 126.08l-1.094.25-.625.906.531 1 .906.156.906-.438.282-.906ZM385.156 126.423l-1 .094-.625.906 1.906.094.313.156v-1.062l-.594-.188ZM383.625 127.954l-.625.907-.188 1.781.907.812-.188.907.906.531 1 .187.313-.093v-4.5l-1.219-.438-.906-.093ZM331.688 128.673l-.875.438.25.906 1-.344-.188-.906-.188-.094ZM384.25 134.267l-.188.969-.875.719-.906.375-1 .187 1.906.719.782.969.469.906 1.312.281v-5.094l-.594-.03ZM384.531 405.048l-.375-.906.094.906h.281ZM327.281 431.236l-.344 2.75.094-.063.25-2.687ZM376.781 152.423l-1 .094.281.906h.532l1.375.282.875-.094.375-.188-.625-.906-.906.188ZM383.719 154.58l-.469.28h.906l-.25 1.876-.375.906.375.906.063.907.906.625.875.093v-5l-.156.125-.875-.531-1-.187ZM385.75 162.205l-.594.406.594.344ZM378.688 167.36l-.907.282-.531.906.156.907-.437.875.437 1 1 .437.906-.625.344-.969-.25-1.812ZM368.25 403.517l.063.438v-.188ZM368.313 403.955l-.157.812.156-.375ZM354.844 405.58l-.906.25.906-.063ZM340.25 407.017l-.719.813.906-.625ZM332.344 412.048l-.906.532v.375ZM330.906 413.048l-.375.907.625-.907ZM329.625 414.923l-.531.907-.281.906.468-.906ZM328.563 418.173l.156 1.875.656 1.813ZM355.813 458.767l-.625.094-.813.531.469-.094ZM380.281 469.923l-.875.094-.906.719 1.781-.813ZM356.094 546.33l-.719.437.969.438.187.906.719.906.188.906-.907.282-.625.875.906.375h.907l.875-.282.562-.906-.906-.812-.094-.875-.812-.907-.344-.906ZM361.125 549.11l-.719.907.906.344.72-.906ZM365 550.548v.625l.906-.53-.906-.095Z"/><path fill="#8cce55" stroke="#0f380f" stroke-opacity=".145" stroke-linecap="round" stroke-linejoin="round" d="M366.414 159.29v18.65h-28.197l.22.046-1.78.282-1.907-.282 1.375 1.813-.281.969.093-.875-2.78-1.954h-25.938v29.922c-.219 6.772.523 14.615-.188 21.063h-36.875v42.293l.5.125.477.18.318.261.272.43.412.178.383.103.212.58.455.287.36.375.29.282.214.43.338.34.328.204.095.33-.23.239-.209.457-.434.336-.336-.536-.261-.65-.51.027-.383.489-.353.28-.297.429-.192.689h-1.449v22.498h27.625c.115 2.309.09 4.596.094 6.906h.344l.906.813v.187l.719.907.906-.625h.719l1.812.062.875.375 1.094.094 1.062-.469c1.915 1.13 2.974-.029 3.5.375.051.04.084.084.125.156.005.008-.005.024 0 .031l.063.063c.082.193.147.483.187.906l1.625.375.375 1v.719h-1.28l.562.719v.25l1.25.187.187.469.865.957-.609.477-.607.525-.707-.242-.63.088-.86.52-.503.335-.65.567v1.23l3.795.012h1.25l.625.906-.625 1.281.906.969v1.094l-.187.906-.47.25-.155 1h-1l-.282.187.907 1.875.718.094.094.375.094.156-1.344 1.813-1.965-.01-.79.105v1.082h-.96v4.657l2.621.008v.375l.282.875-.188.656.375 1.25.094.906-.188 1.25v.438l-.625 1.28-2.094.095v.875l.72 1v1.53l.093 1.813-.438.97v1l.094 1.53v.813h-3.437v2.25h2.343l.813 1.156v1.281l-.438.813v.437l-.093 1.063-.22.656-.155.531v.344l.093 2.531v.094l.094 1h-2.437v4.031h-4.563v2.625l-.187.438V384.14l-.094 2.625v6.22l-.281.25h-8.188c-.131 2.34.214 4.872-.344 7.124l-.01 2.547.881 3.775 5.412 3.276-3.01 5.305 1.477 6.709-1.443-.672c-.483-.474-.794-.098-1.17-.04l-1.586 2.428-.469-.691c-.645-.633-1.29-.162-1.935-.035l-.26-.746-1.049.756-1.174-.586-.459-.809-.57.496-.584-.58-.371-.76-.406.366-.614.443.094.65-.318.145.068.646-1.164.653-.434 1.632-.53.657-.282.968-.094.625.281 1 .532.532.906.812.187.469.532 1.156.906.469.969-.469.906.906.187.532.25 1.437.375 1.188.282.093.25.875.375.563.093.156.97.281v.625h.905l.907.375.437.907-.437 1.062.53-.281 1.095-.063.812.97h.094l.625-.095.094.563-.094.25-.375 1 .531.375.906 1.062-.187.375-.156.97 1.062.562-.625.875-.719.093.094.625v.375l-.375.907v.343l-.875-.625-.187-.28-.094-.063h-.375l-.875-.47-.906.47-.907.625-.187.25-.094.093v.094l.094.188-.156.437-1.813.906c.558 1.19 1.067 2.13 1.531 2.875.465.745.883 1.303 1.282 1.719.2.208.373.352.562.5.01.008.02.023.031.031.307.236.615.403.907.531.054.024.102.073.156.094.008.003.023-.003.031 0 .168.066.332.106.5.156.355.108.718.218 1.094.344.187.063.395.129.594.219.198.09.38.181.593.312.065.04.121.113.188.157.153.103.306.212.469.343.695.56 1.482 1.383 2.406 2.72l2 .53.969.532 2.875.718.562-.25.875.25 1 1 2.781 2.157 4.875 1.718 1 .72 4.938 1.155.719.907 2.25.718 1.53 1 1.157.094 1.344.156 1.531.813 1.813.469.187-.188h.906l.969-.375.563-.344 1.78-.53 1.72-1 .187-.282.625.094.906-.188-.906-.062v-.375l.719-.438.531 1.063h.906l2.156.718-.187-.25-.906-.375 1 .094.906.375.625.875 3.406 2.813.906.53.563.907 2.063 2.156 3.312 2.344 1.094.438.906.187 2.25-.094.719.188 2.156.875.906.812 2.156.282.876.28 1.53.813 1.72.344-.907-.437 1.375.156.156.281h1.376l.875-.344-.094-.906.094.188.625.156.562-.094h.906l-.375.188.188.906.625.531v.563h-.188l-1.25-.657-.281.282.563.906 1.593 1.531.281.094.094.156-.281-.062 1.812 1.156.438.906 1.531 1.781.813.47 2.25 2.062-.625.625-.094.468.906.438-.187.906-.813.906.188.782.906 1.468.875.157.906.562.469.531.875-.53v-.907l-.875-.375-.375-.344-.25-.906.156.094.094.343.719.094 2 1.812-.094.25.625.907 1.438.281 2.062 1.437.719.907.187.437-.531.906v.625l1.875.813-.094-.813-.343-.906.906.656 1.344 2.688-.282-1.188h-.093l.187-.625.188-.093.25-.156v-.375l-.344-1.063.344-.375.562-.281-.094-.156-.906-.563v-1.062l.438-1-.157-.282.438-.156.812.438.188-.282-1.531-1.062-.625-1h-.282l-1.187-1.344-.781-1.344-.563-.625.094-.093-.188-.907-.25-.093-.375-.438-.343-1.281.906-1.781-.719-.907.625-1.156.156-.906-.25-.375.344-.875-.094-.906.563.156-.281.906h-.188l.094.906c.991-1.368.165-3.28.281-4.843l.438-2.344 1.093-1.531.094-.907-.562-1.53.906-1.25-.531-.282-.625-.906-.907-.25v.062l-.906.375-.906-1 .281.813-.437-.25-.47-.907.72-.093.906.625v-.188l-.906-.531-1.625-1.438-.875.188-.813-.469-1.531-.437-2.25.437-.906-.25-.188-.187-.906.093-.344.25-.906.094-.906.563-.438-.188-2.781.188-1.188-.375-.906.28-.969-.624-1.343.719-.907.25-.812-.532h-.531l-.47.625-.093-.28-1.344-.626-.093-.437 1.187-1.25.875-.563.469-.875.187.156.25-.968v-2.907l.532-.875-.438-.28-.773-2.923-1.44-.146-1.488 2.592-1.008.119-1.068.15v-8.406l7.744-7.735.383-.908-1.537-2.088-1.094.188-.438-.094-1.812.719-4.563.719-2.187 1-.625.875.187.093-.343.532-.188.906.094.906-.188.906.188.907-.094.343-.906.813-.281 1.906-.813.875-1.781 1.094-.906.719h.437l.656.906h-.187l-.906.906-.72-.094-.905.157-.625-.875.53-.094-.968-.469-1.906.281-.438.282-.375.718-.343-.375-.907.375-1.093.157-1.532-.063-3.218 1.156-1.094.188-.625-.094-1.063-1.719-.906-.093-1.344-.813-1.718-.062-.532-.281v.187l-.468.25-.188.375h-.156l.25-.469-.438-.531.907.188-.813-.375-.375-.875-1.062-1.282-.282-.531-.437-1.812-.625-.97-2.625-2.968-1.156-2.531-.563-1.625-.625-.719-.344-.906-.093-.875.437.875 1.188 1.375-.282.875.188.093.344-.906-.25-.531-.907-.813-.625-.906-.375-.875.094-.469-.281-.906-.094-1.437.375-.875.094-.813v-2.531l-.375-.906.281-.344v-.031l-.094-.688v-.03l.188-1.876-.469-.906.625-.906.188-.875v-.032l-.125-.125-.157-.218v-1.813l.032.031.437.22.438.218h.03v1.344l-.562 1.875v.03l-.093.907.718-2.969 1.375-2.718.344-1.875-.719-.907-1.25-4.218.625-.907-1-.375-.53-.906.905.469.72.093.718-1.812-.625-.719-.469-.093 1.531-.094.625-.906.094-.438.906-.344-.093-.906.187-.469.906.72.907-.438-.907-.72-.093-.374.281-.156.531.437.094-.812.875.28.469.345-.188.187.906-.281-1.093.812 2.718-1.343.907-.625h.25l.906-.72.187-.624 1.157-.906-.72-1.875.188-.094.438.25.906-.344.281.906h.875l-.437.063-.906.812 1.812-.968.906-.375.97-.188.187-.437-.188-.282.719-.875-.438.875.094.282h1.781l.657-.282 1.875.563.906.437 1.875.375.906-.187.281-.188.532-.906.906.281 1.781 1.157.75-.438-.094.344 1.157 1.812 1.718.188.094-.469.875-.625 1.188 1.281.53-.562v-.906l-.53-.875 1.718.812.875.813 1 .53-.093 1.063.906-.718.906-.344v-.281l-.719-.625-.906-.282-1.094-.625-.156-.906.875-.781.094-.813h-.531l-.907.25-.437-.25.906-.656v-.156h-1l-.625.344-.625.093-1.375-.28.563-.876.968-.375 1.375.719.063-.094.812.281v.188l1.375-.719v-.187l2.063-.282.094-.093-.188-.094 1.156.281h2l.625-.906.282-.969.25.344.093.906.719.906-.906.344.906.094.906-.25.719-.75.094-.25.25.25h.812l.094-.531.625-.344.187.875-.625.187 2.532-.187 1.78-.344.282.281.094.344-.281-.187-1.438-.094 1.813.562 1.78.813-.624-.719.906.094-.187.437 1.343.72-.906-.282.281.562.907.625.093.907.625-.094.438-.188.187-.187v-1.063l-.187-.093-.25-.375.625-1.781.094-.47.343-.53.188-.375v-.063l-.188-.375-.25-.625-.093-.375-.094-.094h.094v-.156l-.188-.281-.094-.281-.28-.72.28-1.593-.093-.187c-.597-1.005-.183-2.48.718-3.157l-.25-.906v-.094l-.093-.343v-.094h-.094v-.094l-.813-1.719v-.156c-.053-.234-.087-.463-.124-.687l-.063-.031-.094-.844c-.07-.537-.12-1.089-.25-1.688-.427-2.617-.935-5.032-1.531-7.656h.531l.344-.187.188-.344-.094-.094 1.906-2.875.531-.625 1.094-.719-.812-.906-.094-1 1-.531-.656-1.25.812-.906-.344-1h-.812l-.625-.813-.375-.344v-.28l-.906.093-.532.093-.437-.718-1-.375-1-.094-.875-.437-.656-.907-.25-1.062-1.094-.813v.157l-.531.812-.907-.719.094-.968-1-.282-.25-1.156-1-.562-1.062.187-1 .375c1.965-1.834.543-2.152.625-4.062.913-1.597.066-5.942.375-8.563h1.968l.625-.969.188-1.625.531-.281.625-.719.906-1.062-.187-.625v-.281h-1.438l-1.78.718-1-.187-.376-.25v-.125l-.625-1.5v-.031l-.531-.875-.281-.907.28-2.343-.468-1.907-.187-.875.906-2.812-.094-.875.375-1 .719-.906-.094-.907.188-.875v-.03l.531-.97-.531-.906-.875.469-.719.906h-.031l-.875.063H372l.906-1.875.906-.282.531-1.343 1.25-1.907.125-.187-.5-.719-.312-1.344-.938-.406-.281-.844-.969-.625-.968.032-.344-.938h-3.563l-1.093.406-1.032-.875-1.281-.062-.875-1.469-.031-.125-.781.594-1.813.656-.625-.094-.906-.375-.875.188h-.031l.375-.906-.375-.907-2.688 1.094-1.781.344-1-.438 3.5-2.53.812-.876v-.031l1.782-1.531.906-.438 2.781-.812h.031l1.938-.969-.313-.094-1.625-.093-.574-1.405-4.695-1.687v-2.87l.154-1.197 4.424-1.431v-7.797l-2.211-1.592-1.238-1.543v-1.412l1.373-1.629 2.287-1.236v-4.842h4.389v-1.701l2.25-2.305v-1.857l-2.27-2.29h-3.889v-14.05l3.782-4.344-1-.344-2.782-.625-2.718-1.343-1.875-.282-5.5 1.532-.907.53-.437.095.906-.625-.906-.094-1 .625-.875.281.875-.437.719-1 .468-.907-.093-.906-1.25-2.687-.47-1.907-.53-.875-.813-1.906-.344-1.781-.906.344-1-.438-2.531.094-.344.875-.187 1.812-.532.907.72-3.594-1 .25-1.25-1.781-1.345-.47.907-.25.062-.905.563-.907-.72-1.875.157-.906-.062-1.719.343-.906.094-.906.344-.969-.781-.625.25-.281h.906l.906-2.25.813-.906.53-1 .188-.875-.468-.47 1 .095-.282-.625.47-1 .905-.625 1.875-.813-.437-.625-.906-.187.906-.344-.281-1 1.343-.094.907-.344.718-.906-1.875-.906 1.875.469.813.875.094-.875-1-.47.906-.812.094-.906.906.469.875-.531.656.53.531-.905-1-.094-.906-.438-.094-.906 1 .281.907-.28 2.78.437.907-.875.906-.282.969-.093.469-.907-.094-.968-.281-.563-1.875-1.344-.906-.093-.907-.625-.875-.907-.906.094-1.906.813-.906.187.906-.719 1-.28-1-.345-.906-.656h-.97l-.905-.156-2.25-.906.53.906h-.905l-1.25-.813v-.28h1l-1-1.532.906.906 1 .531 2.781.813 1.063.531.718.375 1 .188.907-.563.906.656 1.531.157.906.562 1.782.531 1.906-.625.875.094 1.187-1v-.531l-.812-.906.812-.094.344-1-.875-.094.531-.25.907-.281.156.906.906.531.469.47-.375-.907.906.187.906.532-.28-.907 1 .532.874.281.906-.188 2.813-1.343.719-1.813 1.593-1.437.188-.875 1.812-1.625.438-.907-.281-.906-.875-.437-1-.188-.907-.093-1.875.28-2.812-.468-1.781-.062-.813-.907-.906-.625-.906-.906-.875-.719-.907-.468-2.78-.625-1.907-.25-.906.437-.907-.437 1.813-.188 1.906.344.969-.094.906.281h.906l.907.375-.907-.906 1.782.188 2.812 1.593 2.781.563-1.906-.094 1.813.906.906.875.906.47.969.187h1.812l.907-.282.812-.906 2.688-1.875.093-.906 1.532-1.094.53-.906-.187-.875-2.781-.906-.187-1c2.152-1.707 1.747.863 5.593-.907l.719.907.188.906.468.187.657-.562v-3.563l-.25.157.187-.907h.063v-14.28l-2.407.155-.812.907.187 1-.093.875-.72 1.812-.093 1c-4.256 2.485-1.75 2.581-2.875 5.375l-.906-.25-.875.094-.375.875-.906.187-.438 1.188-1-.188.469-.906-.281-.906-1-.719-.875-.969-.907-.656-1.187-1.781-.25-.906.344-.907-.188-.906.188-.875 1 .625h.906l.156-.187.281-1-.718-1.782v-.906l-.625-1-.907-.812-1.875-.97-1.812-1.624-.742-.166Zm-40.758 106.79h.031l.438.281-.188.875v.032l-.875.718.063.969 1.875-.812v.03h.031l-.094.438-.906.625c.238.775.43 1.333.625 1.813.003.01-.003.024 0 .03.19.466.394.835.594 1.188.004.01-.004.025 0 .032.201.353.426.682.687 1.093.27.426.58.925.97 1.594l-.532.375.437.875.032.031.718.97.72 1.812-.188.906 1.062 1.781.719.906v.72l1.062 1.78.907.907.03.03-.718.97.531 2.718h-.187l-.906-.625-.25.875v.907h-.032l-.968.28-.344-.312-.281-.25h-.032l-.156-1.781.156-1.906.813-.906.187-.875-.875.343v-.03l.875-1.782-.875-.594-1 .719-.718.875-.094-.906.25-.97-.063-.905-.75-.907-.875.375.344-.968-.969.687-.437.906h-.031l-.875-.437-.031-.031v-.344l-.438-.906-.625-.875-.5-.407-.375-.343h-.031l-.281-.594-.157-.281-.906-.72v-.03l-.531-.97.719-.905.812-.438h-2.344l-.906-.812.188-.75.53-.875.72-2.782v-.03l.343-.063h.032l1 .25.875-.094.906.188.969.53h.53l-1.75-1.405-.03-.032.812-1.875.531-.906Z"/></svg>