<svg width="1671.094" height="856.393" xmlns="http://www.w3.org/2000/svg" xmlns:usvg="https://github.com/RazrFalcon/usvg" usvg:version="0.8.0"><path fill="#3e73c5" fill-opacity=".427" stroke="#000" stroke-opacity=".247" stroke-linecap="round" stroke-linejoin="round" d="m1509.879 144.443-7.861-.426-15.156 2.5-2.767-1.49-2.212-3.084-1.884-.524-1.99-1.025c-1.545-1.632-3.119-3.255-3.69-5.212-2.647-2.198-16.411-2.927-24.098-.634h0l-1.063-.468h-.094l-.812.093-.094.156-.094.47-1 .187-.969-.188-1.813 1.719-.624.531-1.25 1.781-1 .47-.532.905-.812 1.875.437.907.188.437-.375.906-.875.813-1.907.531-1.156 2.156-1.812 1.813-1.157 1-.906.969.375 1.812.97.188.905-.094 1.813.906.875-.281h.625l1 .281-.25.875-.625 1 1.5.532 1 .906.094.906-.625.906-1-.187-.969.281-1.812-.094-1 .344.437 1 1.375 1.875.25.906-.062.72-.906.28-.281 1-1 .344-.97-.094-1 .813.532.906-.062 2.594.875.719c-1.004.13-2.12.063-3.25.062-1.689.003-3.393.179-4.812 1.406-.158.137-.32.274-.47.438h-1.905l-.72.187-.093.907.375.968-.907.625 1.344.813.907.281.906.906.718 1.438 1.876.187.28.875 1.813.625.625.907-.718.812-1-.25-.72.156-.53.375-.813.907-.667.212-1.87.339-1.51.463-1.285-.584-1.635.076-.748-.505-.657.12-4.248-.87-3.576.72-1.685 2.016-.977-.304-.541.544-1.45.583-.67-.516-.877.855-.232.808-1.252 1.734-.475-.466-3.009 1.61-1.737-.34-1.669.603-.368 1.935 1.36 1.826-2.142.784.405.919-.795.469h0l-.625-.906-1 .093-.719-.625.188-1-.907-1.78-1.625-2.72-.906-.437.469-.531.094-.47-.281-.874-.907-.469-.343-.094-1.907-1.25-1.531-.687-.25-.125-.062-.063c-.026-.016-.038-.045-.063-.062l-.687-.594-.625-.906-.188-.594-.094-.312-.156-.188-.564-.687h0l8.94-4.37 5.525-7.434.015-3.428-1.966-3.769-2.89-1h0l.625-.093.906-.625.813-.875 1-.469v-1.437l.812-.907.969-.718.906-.094-.187-.719-.875-.437-.125-.907-.875-.625.875-.812v-.906l-.344-.907-1.625-.343-.906-.188h-1.782l-.187-.906.281-.875-.187-.906v-.907l.375-1-.657-.906-.906-.344-.156.094-.48-.01V126.79h68.722v-1.314h22.812V82.539h-41.504V.507h69.483Z"/><path fill="#3e73c5" fill-opacity=".429" stroke="#000" stroke-opacity=".247" stroke-linecap="round" stroke-linejoin="round" d="m1385.534 300.11.625-.374.906-.094.094-.063.157-.656.75-.875.875.063.468-1.157v-.718l-.656-1 .656-.25v-.907l-.906-.53.813-.907-.72-.906-.187-.438-.718-.375-.625.281-.094-.906-.47-.719-.874.094.25-.906.562-.531.969-2.25.906-.625h.907l.187-.72-.187-.374v-.094l-.188-.906h.906l1.25-.438 1.907-.28.625-.626.53-.906 1.345-.875.906.156.906-.156 1-.469-.187-.344-.72-.906v-.906l.626-.438 1.25.625 3.25.72 1 .25.344-.876.53-.719-.624-.906.187-.469.625-.968.563-1.532v-.906a4.911 4.911 0 0 0-.688-.656c.16.134.344.322.532.531l-.97-.812c-.03-.015-.063-.051-.093-.063h-.813c-.963.341-1.792 1.704-4.28.469l-.095.156-.906.094-.813.906-.437.281-.907.438-.906-.188-1.625.094-.875.094-.906.468-.906-.468-.907.093-.25-1.718-.562-1.782-.719-.187-1.78-.281-.907-.344h-.625l-.094-1 .906-1.25.875-.375h.906l.657-1.25.343-.906.907-.532.874-.28 1-.532.47-1 1.968-.438-.281-.812h.906l.563-.906 1.343-.157-1-.468-.468-.907-.876-.718-.906-.094-1.906.562-.875-.28-.625.28h-1.813l-.906-.468-.281-.907.375-1.875.188-.28.53-.876.188-.906.907-.375.062.375.906-.719.531.25.563-1.781-.375-.563-1.872-1.968-.907-.531.532-.469.187-.062 1.188.437.343-.437-.094-.719.907-.906.906-.375.437-.344-1.53-1.813-.907-1.625.906.094.906.531 1 .094-.468-.875.812-1v-1l.906.094.813-1.875v-.906l1.362.017.154-1.563 2.527-1.077.798.194 2.482.246 1.298.427 1.411-.504.236.65c.512-.206 1.108-.137 1.612-.327.48-.18.124.542.59.349l.54-1.235 1.158-.945.817-.525 1.184.823 1.584-.094h.019l1.24.392.9-.037 1.605-.342.671-.994.536-.047.431-1.389 1.888-.361.324.6.572.47.644-.788-.406-.676.31-1.112-.377-1.445.512-.555-.287-1.429.904-1.308-.94-.418-.392-.98.119-.597.748-.186-.376-.544 1.747-.545.381-1.046 1.292-.06.444-.751 1.956-.419.738-1.244 1.143-1.407.021-.258.136-.426.906-.135.022-.03.549-.79.047-1.634.384-1.046-.79-.462-.469-.906h-.531l-.907-.188-.625-.875-.468-1.53.375-.907-.188-.719.907-.719.906-.468.625-.532.906-.187 1.094-.719-.375-.906.187-.875.438-1-.188-1-1.875-.875-.625-.906 1.532-1-.72-.907-1-.812-1.812-1.063-.625-.906.375-.812 1.063-1.782.812-1h.188l1.343-.625-.718-.906.531-.469-.094-.875 1.3 1.904.877-.141 1.686-.579.968.756 2.45.739 1.558-.072.038.561 4.738.57-.171.7 2.555.224.75 1.07 1.157.338 1.064.101 1.486.732.636.702-.68.932.807.621.863-.002c.418-.173.835-.072 1.253.225l.66.66 3.107.084 2.713.503 2.285 2.094c1.07.23 2.141-.79 3.211 2.033l1.949-2.107 1.278 2.874 1.714-.574-.283-2.136 2.088-.555-2.889-.816 1.711-1.434 2.595 2.122 3.832-.662.327-2.496 1.941.534-.528 3.305 1.485 1.076 1.832.176-1.044-3.304 4.217 1.035.664-2.448 2.119.134.457 2.622 1.423.081.166-2.585 1.856-.552-1.758-2.173 2.343-.504-1.551-1.631 5.396-.447-1.624-1.322 1.166-1.53-1.676-2.261 2.862.295 1.362 1.973 2.032-.978-2.345-2.163 2.112-1.977 1.647 1.68 2.305-.104 4.986 1.297.3-2.726 1.525 2.435 3.257 1.842-.94-2.346 5.467-.146 1.35-3.646 3.361 1.155-2.345 4.958 7.482.628-1.866 5.28 7.16-.675 4.268 2.534 4.771 2.285-5.345 2.73.793 6.239-3.615.587 6.42 2.102-.972 3.922-4.43 2.367-.109 5.124-44.545 31.73 6.88 29.89 11.487 11.702-51.566 42.787-2.718-5.156-1.875-1.312.375-2 1.78-6.47-19.5-3-3.312-1.28h0l-4.062 5.625-14.063 15.032-29.062.312.015.01.343-.906-.25-.906-.914-.969.906-.187.531-.281.906.093.344-.906.531-.813.282-.875v-.906l-.438-.375.25-2.687.094-.094-.187-1.531-.157-.438v-.093l-.187-.907-.719-1.718.531-.344.907-.094.906-.375 1.25-1.25.094-.375.906.188.094.093 3.844 1 .563.188.624-.469.157-1.781.468-.563.907-.343.096-.188.343-1.531.72-.531.812-1.532.375-.812-.096-1 .187-.344.25-.187.188-1.25.375-1.094.343-.344-.094-1.375 2.063-1.25.469-.719-.188-.906-.094-.437-.375-.375.75-1.875-.812-.532-.625-.093-.094-.094-.907.25-.718.094-.469.468h-.969l-.906.813-.281.25-1.782-.188-.906.563-1.156.906-.75.875-.719-.156-.906.25-1.781.094-1.25-.344h-.907l-1 .344h-.187l-.531-.282-.094-.875-.875-.906.062-.812.469-1-.375-.907-.625-.437-.188-1 .188-.875Z"/><path fill="#3e73c5" fill-opacity=".429" stroke="#000" stroke-opacity=".247" stroke-linecap="round" stroke-linejoin="round" d="M1493.147 546.726v-46.437h16.719l-.156-206.47h0l-51.563 42.72v-.032l-17.75 14.657v116.324h-30.187v53.676h30.187v25.78l-7.125 10.876-.062 17.844-.75 1.968.813 1.5.156 11.875 6.969 2.094.187 3.688h-.53l-.376.625-.875.812-.281 1.906-.625 1.782.094 1-.906.28-.813 1.876.813.281.906.719-.906.187-.907.875.375 1.907-.468.53-.344.907-.094 1 .437.875.094.906-.28.907.093.906.563 1.781-.907 2.25-.375 1.906.188.907-1.094 2.968-.875 1.157-.562 1.812-.72.969-1.593.719-1.812.187-1.094-.719-.344-.093-.906-.625-.906-.282-.438-.343-.281-.907-.625-.906-.906-.156-.875-.469h-1l-1-.25-.907-.906v.344l-.156-.282v45.875h.156v.031h12.688l1.281.188v40.5l-.187-.188v21.594l.718.375 1.782 1.438.906-.719 1 .094.906.531h1.781v122l69.47.031-.144-255.99-16.576-17.312Z"/><path fill="#3e73c5" fill-opacity=".429" stroke="#000" stroke-opacity=".247" stroke-linecap="round" stroke-linejoin="round" d="m1440.615 597.351.03.406-.25-.062.22-.344Z"/><path fill="#8cce55" stroke="#0f380f" stroke-opacity=".145" stroke-linecap="round" stroke-linejoin="round" d="M1451.344 447.548a2.253 2.253 0 0 0-2.25 2.25 2.253 2.253 0 0 0 2.25 2.25 2.21 2.21 0 0 0-.282 1.125 2.253 2.253 0 0 0 2.25 2.25c1.25 0 2.25-1.007 2.25-2.25 0-1.242-1-2.25-2.25-2.25.192-.331.282-.714.282-1.125 0-1.242-1-2.25-2.25-2.25ZM1452.125 456.017a2.253 2.253 0 0 0-2.25 2.25 2.253 2.253 0 0 0 2.25 2.25c1.25 0 2.25-1.007 2.25-2.25 0-1.242-1-2.25-2.25-2.25ZM1456.031 459.142a2.245 2.245 0 0 0-2.25 2.25c0 1.202.933 2.187 2.125 2.25a2.246 2.246 0 0 0-1.718 2.188 2.253 2.253 0 0 0 2.25 2.25c1.25 0 2.25-1.008 2.25-2.25a2.247 2.247 0 0 0-2.22-2.25c1.023-.21 1.813-1.1 1.813-2.188a2.253 2.253 0 0 0-2.25-2.25ZM1456.281 468.267a2.245 2.245 0 0 0-2.25 2.25c0 1.243 1 2.25 2.25 2.25a2.253 2.253 0 0 0 2.25-2.25 2.253 2.253 0 0 0-2.25-2.25ZM1456.281 473.892a2.245 2.245 0 0 0-2.25 2.25c0 1.243 1 2.25 2.25 2.25a2.253 2.253 0 0 0 2.25-2.25 2.253 2.253 0 0 0-2.25-2.25ZM1453.625 478.267a2.253 2.253 0 0 0-2.25 2.25 2.253 2.253 0 0 0 2.25 2.25c1.25 0 2.25-1.007 2.25-2.25 0-1.242-1-2.25-2.25-2.25ZM1451.125 483.517l-.906.625.468.969ZM1427.75 498.36a2.253 2.253 0 0 0-2.25 2.25 2.253 2.253 0 0 0 2.25 2.25c.765 0 1.407-.39 1.813-.968a2.227 2.227 0 0 0 2.156 1.656 2.253 2.253 0 0 0 2.25-2.25 2.254 2.254 0 0 0-2.25-2.25c-.758 0-1.404.392-1.813.97a2.217 2.217 0 0 0-2.156-1.657ZM1483.531 504.267a2.245 2.245 0 0 0-2.25 2.25c0 1.244 1 2.25 2.25 2.25a2.253 2.253 0 0 0 2.25-2.25 2.253 2.253 0 0 0-2.25-2.25ZM1418.219 505.392a2.245 2.245 0 0 0-2.25 2.25c0 1.243 1 2.25 2.25 2.25a2.254 2.254 0 0 0 2.25-2.25 2.254 2.254 0 0 0-2.25-2.25ZM1431.281 506.705a2.245 2.245 0 0 0-2.25 2.25c0 1.242 1 2.25 2.25 2.25a2.253 2.253 0 0 0 2.25-2.25 2.253 2.253 0 0 0-2.25-2.25ZM1464.469 506.955a2.245 2.245 0 0 0-2.25 2.25c0 .155 0 .29.03.437a2.258 2.258 0 0 0-2.906 1.031 2.226 2.226 0 0 0-1.343-.468 2.253 2.253 0 0 0-2.25 2.25 2.253 2.253 0 0 0 2.25 2.25c.872 0 1.594-.5 1.969-1.22.376.286.862.47 1.375.47a2.254 2.254 0 0 0 2.25-2.25c0-.156-.032-.323-.063-.47.285.132.6.22.937.22a2.254 2.254 0 0 0 2.25-2.25 2.254 2.254 0 0 0-2.25-2.25ZM1447.125 510.455a2.245 2.245 0 0 0-2.25 2.25c0 1.242 1 2.25 2.25 2.25a2.253 2.253 0 0 0 2.25-2.25 2.253 2.253 0 0 0-2.25-2.25ZM1486.5 512.08a2.253 2.253 0 0 0-2.25 2.25 2.253 2.253 0 0 0 2.25 2.25c1.25 0 2.25-1.007 2.25-2.25s-1-2.25-2.25-2.25ZM1443.063 513.486a2.245 2.245 0 0 0-2.25 2.25c0 1.242 1 2.25 2.25 2.25a2.253 2.253 0 0 0 2.25-2.25 2.253 2.253 0 0 0-2.25-2.25ZM1490.25 516.798a2.253 2.253 0 0 0-2.25 2.25 2.253 2.253 0 0 0 2.25 2.25c1.25 0 2.25-1.007 2.25-2.25 0-1.242-1-2.25-2.25-2.25ZM1473 553.61l.875.626v-.625ZM1460.406 555.86l-1 .282-.281.875.094.094.906-.438 1 .25h.875l.906-.625.188-.437-.906.187-1.782-.187ZM1476.063 557.736l-.907.469v.187l1.157.781 1-.062-.376-.906ZM1433.5 558.83l-.219.03-.062 16.813-.75 1.969.813 1.5.125 9.938.094.062.875.563 1-.375.906.375 2.781-.375 2 .812 1.781-1.094 1-.25.72-.906-.376-.812-.875-.907-1.812-.718-.907.093-.094-.093-.812-.625 1.812.375.907.25 2.687-.344.375-.531-.719-.907.532.25.906.188.875-.188-.813-1.875-.53-.718 1 1 .905.437.532.094.28-.188.157-.437.375.156h.438l-.157-.719h.625l.875.656.563-.375v.907l3.25.812.875-.093 1 .53.906.813.531.719.532 1.094.812.875.094.906.906.375.907-.187.062.187-.438.906.719.875 1.094.375.812.907.438.875.531.468 1.437.719.813-.375.906.469h1l.875-.188.906.625.907-.093 1.812.562.719-.187 1.781.625-.344.28v.157l.907.656h.968l.907-.468-.719-.907 1.906-.718-1 .093-2.969-.906-.625-.344-.53-.906 1.155-.344v-.468l-2.53-.188-.876-.437-.187-.907.343-.906-.906-.531-1.875.437-.812-.875-.25-.906-1-.625-.469-2.062-.625-.375-.188-.282-.875-.25-1.812-1.812-.906-.438-.625-1.812-.532-.906.094-.625.875-.094 1.813.187.906-.187.438-.875-.094-.906-1.5-1.625-.907-.188-.906.094-.906-.625-.531-.094-1.813-1-1.812-.531-.875-.094-.282-.906.188-1.781-1.625-1.813-.906-.531-1-.188-.782-1.062-1.343-.563-.188-.718-.906-.157h-1.094l-.969-.468-1.812-1.25c-5.22-.495-7.593-2.678-11.594-3.875ZM1479.469 559.11l-.907.25 1 .282.907.438 3.593 2.625.907.25.906.656 1.344 1.781.437.906.094 1.813.719.875.812-.719.344-1.781-.687-.906-.907-.72-.468-.187c-1.942-2.502-5.38-4.056-8.094-5.562ZM1483.25 566.298l-.906.72.531 1.812-.062.875h-1.375l-.875.718-1.375 1.813-.875.281-.813-.469-.906.563-.906-.563-.438-1.78-.094.874-.281.281-.094.907-.906.28-.875-.093-.094.156h-.907l-.906-.25-1.875-.187-1.812.531.718.906.907.282 1.718.968.875.188.907-.094.812.906h3.594l.906-.437.906-.188c.95-.906 2.381-.612 3.594-2.78h1.813l.906-.72-.563-.906.47-.906.905-.438.438-.906-.281-.906v-.813l-.97-.625-.905.532-.907-.532ZM1461.313 571.142l.624.906.25-.906ZM1465.875 572.61l-.969.438.969.907.281-.47Z"/><path fill="#8cce55" stroke="#0f380f" stroke-opacity=".145" stroke-linecap="round" stroke-linejoin="round" d="m1445.375 585.642-.906.281.906.344ZM1480 586.017l.469 1.781-.094-.906-.375-.875ZM1443.844 586.173l1.781 1.188v-.375l-.875-.625ZM1488.281 588.61l-.906.282.906.813.532-.188ZM1476.688 589.86l-.907.563.907.625ZM1478.031 590.517l-.906.156.094.907 1 .093.906.282.344-.282-.531-1-.907-.156ZM1478.844 592.392l.531.906h.375l.188.532.874.375.282-.907H1480l-.25-.468ZM1486.938 596.267l.906.344.094-.344h-1ZM1440.594 596.767v.031h-.532l-.374.625-.876.813-.28 1.906-.626 1.781.094 1-.906.282-.813 1.875.813.28.906.72-.906.187-.906.875.375 1.906-.469.532-.344.906-.094 1 .438.875.094.906-.282.906.095.907.562 1.78-.906 2.25-.375 1.907.187.906-1.093 2.969-.875 1.156-.563 1.813-.719.969-1.593.718-1.813.188-1.094-.719-.343-.094-.907-.625-.906-.28-.438-.345-.28-.906-.626-.906-.906-.156-.875-.47h-1l-1-.25-.906-.905v.343l-.125-.218-.031.062v45.75h.156v.03h13.969v40.689l-.188-.188v21.594l.687.344.031.031 1.75 1.406.907-.719 1 .094.03.031.876.5h1.78l.032.032.875.593 2.813 1.438 1.062.531.906-.781 2.969-2.188.875-.156-.875-.625.875-.656 1.813-.875.624.781v.906l-1.062 1 .813.625.874-.437.188-.906.906-.094.344.906-.156.906.906.532.875.812h.906l1.438 1.781.375-1.875-.907.438-.187-.875.906.062.907-.25h1c7.467-8.448 9.183-1.95 14.562-6.312l-.094-.906.187-.438v-.531l-.375-.906.094-1 .907-2.5-.094-.907.187-.906 1.531-3.594.97-.625.28-.906.188-.094-.188-.906.532-.906.375-1.781.906-.907.156-.906.563-.969v-.75l.718-.968.344-.907 1.281-1.812 1.782-.969.625-.906 1-.625v-1.813l1.25-1.78.625-1.907.468-1.781-.187-1.813 1-3.344.344-.968.28-2.72.345-.968.656-.906.156-.906-.156-.907.094-.906-.094-.875-.281-.187-.532-1v-.907l-1-1.78-.28-1 .374-.907-.281-.875-.344-2.813.625-1.78-.906-.563-.156-.25-.375-.907.187-1c-3.056-1.543-.927-2.955-3.344-3.5l-.812-1-.625-1.593-.906-.75h-1.25l-1.344-1.25-.625-.907-.906-.25h.25l-.532-1.812-.094-.906.375-.97-.437-.905.062-.532-.875-.28.156 1-1.781-1.282-.906-.906-.375.75.375.875v.562l-.531-.719-.907.063-.468-.875-.532-1.813.094-1.812-.906-.438-.094-.906-.344-.25-.187-.906-1.781-1.344-.47-.906.907-.531-.375-.907-.875-.375h-.906l-.656-.906-.688-.344-.906-.187-.469-.906-.875.375-.75-1.72h-.875l-1.812-.53-1.813-1.094-.875-.813-.094-.875.188-.906-.657-.625-.812-.906.562-2.781-1.187-2.72.375-.905-.906.28-.125-.437-1.532-1.812.188-1.813-.438-.875v-.906l-.468-.906.125-.906-.188-.907.469-.968-1.438-.625-.718-.907-.907-.28-.562-.907-.156-.875-.907.625-1.812.906-.875-.812-.188-.907-.53-1.093-.282-.875.187-.907-.187-.906-.125-1.906-.625-.875-.281-.906-1.063-1.813.719-.906-.813-.25-.906-.813-.25-2.687-.562-.906-.594-.125v.03l-.25-.062v-.03h-.062l.562-.907h-.312ZM1489.906 599.673l.907.907.906.375.968-.188-1.874-.906Z"/><path fill="#8cce55" stroke="#0f380f" stroke-opacity=".145" stroke-linecap="round" stroke-linejoin="round" d="m1457.156 632.517.813.906.094-.625-.907-.28ZM1480.094 658.173l.718.907.188-.532ZM1490.375 664.392l-.281.969-.907.75.095.875-.47.906.376 1 .281.094.094-.906 1.156-2.72-.343-.968ZM1491 677.705v.906h.188ZM1447.063 740.798l-.344.875.094 1 .25.625.906-.625-.094-.906-.812-.969ZM1465.969 741.423l-.907.344.376.906 1.062 1.438.906-.531-.156-.907-.563-.343ZM1467.5 744.298l-.906.813.906.281.281-.187ZM1450.5 746.455l.094 1-.281.906 1.25 3.594 1.531 1.875v.906l.906.625.188.906-.719-.906-.375.906 1.187 2.688.907.906.625.906.875.375.906-.094-.906.157.125 1 .875-.188 1.906.469.906.437.688-1.78-.062-.907.875.531.468-.906.344-.906-.344-.875.094-.094.875.812.907-.093.906.625-.906-.375.375.906.906.531c.524-3.393-.924-2.842.875-6.375l.625.906.188-.906-.063-6.375-1-.719-.906.532-.906-.094-.875.625-.906-.094-1.906.375.28.813-.905-.563-.907.47h-.437l-.469.093-1.438-.375-.874-.344-.907-.656-1.812-.719-.969.094-1.813-.625h0Z"/><path fill="#8cce55" stroke="#0f380f" stroke-opacity=".145" stroke-linecap="round" stroke-linejoin="round" d="m1462.813 760.236-.876 1.875.97-.438v-.906l-.095-.531ZM1424.93 184.13l-1.51.464-1.285-.584-1.634.076-.75-.505-.656.12-4.248-.87-3.576.72-1.685 2.016-.977-.304-.541.544-1.45.583-.67-.516-.877.855-.231.808-1.252 1.734-.476-.466-3.009 1.61-1.737-.34-1.668.603-.368 1.935 1.359 1.826-2.142.784.405.919-.795.469h0l-.625-.906-1 .093-.719-.625.188-1-.906-1.78-1.625-2.72-.907-.437.47-.531.093-.47-.281-.874-.906-.469-.344-.094-1.906-1.25-1.532-.687-.25-.125-.062-.063c-.026-.016-.038-.045-.063-.062l-.687-.594-.625-.906-.188-.594-.094-.312-.156-.188-.564-.687h0l8.94-4.37 5.526-7.434.014-3.428-1.966-3.769-2.89-1h0l.625-.093.906-.625.813-.875 1-.469v-1.437l.813-.907.968-.718.906-.094-.187-.719-.875-.437-.125-.907-.875-.625.875-.812v-.906l-.344-.907-1.625-.343-.906-.188h-1.781l-.188-.906.281-.875-.187-.906v-.907l.375-1-.656-.906-.907-.344-.156.094h-.469l.72-.906 1-.438-.345-.906.25-1 .907-1.875 1.25-1.906 1-.531.094 1 1.53 1.78.97.813 1.906.813 1.781.437 2.907.094-.282.906.532-.906v-.437l.906-.813 1-.281.875.187.906-.718.906-.282 1 .094 1.875.469.625.531.907-.094 1 .625 1.906.813.78.906h1l-.905.375 1.906.531-.906-.625 1.875-.187 1-.625-1.875-.281.343-1.875.907-.282 1.875-.28 1 .187.906.375.344.875 1 .375.906-.625.969.25 1-.157.187.094-.281-.656-.813-.875-.25-1v-.906l-1-.72 1-.53.438-.907 1.813-.718-.907-.282h-1.437l-.907.625-1 .282-.906-.813.469-.969 1.906-1.375.875-.093 1 .187h1.719l1.875-.344.906-.812-.094-.906-1-.625-.344-.907h0l2.875.375 1 .532 1.97.53 1.812.188c3.924-.195 8.34.596 12.28 1.063h.032l-.031.062v.125h0v-.125l.03-.062h.001l1.625.187 4.688 1.188.968.344.907.53-.907-.155h-3.75l-1.906-.094-.906-.469-.906-.156-.907.344.125-.188h0l-.125.188-.625.875v.03l-.968.095h-.094l-.813.093-.094.156-.094.47-1 .187-.969-.188-1.812 1.719-.625.531-1.25 1.781-1 .47-.531.905-.813 1.875.438.907.187.437-.375.906-.875.813-1.906.531-1.156 2.156-1.813 1.813-1.156 1-.906.969.375 1.812.968.188.907-.094 1.812.906.875-.281h.625l1 .281-.25.875-.625 1 1.5.532 1 .906.094.906-.625.906-1-.187-.969.281-1.812-.094-1 .344.437 1 1.375 1.875.25.906-.062.72-.906.28-.281 1-1 .344-.969-.094-1 .813.531.906-.062 2.594.875.719c-1.003.13-2.12.063-3.25.062-1.689.003-3.392.179-4.812 1.406-.158.137-.319.274-.469.438h-1.906l-.719.187-.094.907.375.968-.906.625 1.344.813.906.281.906.906.719 1.438 1.875.187.281.875 1.813.625.625.907-.72.812-1-.25-.718.156-.531.375-.813.907-.667.212ZM1485.406 310.642l-1.875 1.531.969-.187.719-.906.187-.438h0ZM1476.875 315.955l-1 .718-.719.25-.812.907-.907.53-.624.907h.906l.906-.812 1.438-.813.812-.969.875-.625-.875-.093h0ZM1417.469 261.142l-.344 1-.469.156-.625 1 1-.187.719 1 .875.187.906-.718.282-.907.25-.375H1419l.375-.875h-1ZM1414.313 262.142l-.344.156.906.563.344-.563ZM1417.844 265.36l-.282.907h.376l-.095-.906ZM1440.969 266.705l-1 .375.437.906.657.719.343.968-1 1.813.094.906-.875.344-.469-.875-1.78.719-.126 1.53.469.876-.281.906-.188 1.906-.437.875-.344 1.282.094 1.78.688 1 .187.907.906.813.813 1.875.094.906-.532.906-.375 1.781.532 2.813-.157 3.594-.53 3.156-.75 1.781.468 1 .625.906.344 1.782v.906l-.875 1.812-.094.97.094.905.343.907-.093.906-.813 1.875-.188.906.47 2.688.468.718.875-.968.188-.907.812-1.812.906-.781.907.625 1.78.156.626.906.375 1.813.531-.907.188-1-.282-1.78-.906-.282h-.875l-.563-2.688-1.687-1.906-.469-1.062.094-1.907 1.719-4.5.438-1.875.468-.468 2.063-.625-.906.093 1-.187 1.78.469.907.625 1.781 1.625.469.906v-.906l-.906-.625-.531-.907-1.625-5.125-.97-1.812-1.093-5.5-.812-.875.343-.906-.812-1.907-.344-.343-.437-1.813.25-.906.094-.969.28-.906.095.906.344-1.812-.157-.907-.812-.875-.188-1.906.72 1 .437 1.969c0-4.928-2.588-2.333-1.72-8.281l-.687-.907-.906-.093h0ZM1469.563 319.986l-.876.281-.906.719-.906.437-1-.093-.875.468-2.813 2.344-.343.906-.907.25-.437.907 1.781-.72.719-.905.906-.813 1.875-.969.907-.75 1.906-.875h.906l.344-.906-.282-.281h0ZM1457.344 325.767l-2.157 2.781-.906.72-.281.905 1.813-1.53.812-.907 1.875-1.188-1.156-.78ZM1460.5 329.455l-.75.875.906-.875h-.156Z"/><path fill="#8cce55" stroke="#0f380f" stroke-opacity=".145" stroke-linecap="round" stroke-linejoin="round" d="m1460.756 233.33 1.906.281.907.531.875-.187.906-.813 1-.093h.969l.468.906.907.094.875-.188-.438-.875.625-.906 1 .437v-.906l.875-.625.906-.344.907-.093 1.718.437.438.281.906.094 1 .625.875.094-.875.344.875.375.906-.094.72-.906 1 .093.905.282.907.718.25.907.906.062 1 .719-1.906.281-1-.094-.875.282h-1l1.093 1.875 2.782-.344.906-.625.906-.281 1.875.812.906-.437.97-.813.905-.094.188-1 1.906.438.875.719 1-.157.906-.718.907.156 1.875-.063 1-.468-.375-.907-.907-.625-.968-.187-.907.469-.906-.188-.906-.437.906-.625-.344-.907.157-.906.906.094.187-.906.532-.907.812-.906.906-.812 1.875-1.063.907-.719 1-.468 1.062-1.875 1.813-1.532 1-.187.062-1.875 1-.469.906-.781 1.906-1 1.781.094.907.343.906-.437.906-.188h1.875l.906-.625.907-.093.812.906.531 1 .907-.375 2.156-1.438.781.907-1.5 2.78h-.187l-.907.72.625 1-.28.906.562.156 1-.344h.875l-.25.907-.625.875-.375.906.906-.094.906-.437.969-.094.719-.906 1.906-1.344.906-1 1.781-1.063 1-.718.907-.907.875-.53h.094l-.01-.001.906.437 1-.625.187 1 .969-.469.094-1-.906-.156.656-1.812.001.662 4.43-2.367.971-3.922-6.419-2.102 3.615-.587-.793-6.24 5.345-2.73-4.77-2.284-4.269-2.534-7.16.675 1.866-5.28-7.482-.628 2.345-4.958-3.362-1.155-1.35 3.646-5.466.146.94 2.346-3.257-1.842-1.526-2.435-.3 2.726-4.985-1.297-2.305.104-1.647-1.68-2.112 1.977 2.345 2.163-2.032.978-1.362-1.973-2.862-.295 1.676 2.261-1.166 1.53 1.624 1.322-5.396.447 1.551 1.63-2.343.505 1.758 2.173-1.856.552-.166 2.585-1.423-.081-.457-2.622-2.119-.134-.664 2.448-4.217-1.035 1.044 3.304-1.832-.176-1.485-1.076.528-3.305-1.94-.534-.328 2.496-3.832.662-2.595-2.122-1.71 1.434 2.888.816-2.088.555.283 2.136-1.714.574-1.278-2.874-1.948 2.107c-1.071-2.823-2.141-1.802-3.212-2.033l-2.285-2.094-2.713-.503-.788-.119-2.32.035-.659-.66c-.418-.297-.835-.398-1.253-.225l-.863.002-.806-.62.68-.933-.637-.702-1.486-.732-1.064-.101-1.156-.339-.75-1.07-2.556-.224.17-.698-4.737-.57-.038-.562-1.558.072-2.45-.739-.968-.756-1.686.579-.877.141-1.023.346-1.343.625h-.188l-.812 1-1.063 1.782-.375.812.625.906 1.813 1.063 1 .812.718.907-1.53 1 .624.906 1.875.875.188 1-.438 1-.187.875.375.906-1.094.719-.906.187-.625.532-.907.468-.906.72.188.718-.375.906.468 1.531.625.875.907.188h.531l.469.906.874.813-.468.695-.047 1.634-.549.79-.022.03-.906.135-.136.426-.02.258-1.144 1.407-.738 1.244-1.957.419-.443.751-1.292.06-.381 1.046-1.747.545.376.544-.748.186-.12.598.393.98.94.417-.904 1.308.287 1.429-.512.555.377 1.445-.31 1.112.406.676-.644.789-.572-.47-.324-.601-1.888.361-.43 1.39-.537.046-.671.994-1.606.342-.899.037-1.24-.393-.02.001-1.584.094-1.183-.823-.818.525-1.157.945-.54 1.235c-.466.193-.11-.53-.59-.349-.504.19-1.1.121-1.612.326l-.236-.65-1.411.505-1.299-.427-2.48-.246-.799-.194-2.527 1.077-.154 1.563-1.361-.017-.001.906-.813 1.875-.906-.094v1l-.813 1 .47.875-1-.094-.907-.53-.906-.095.906 1.625 1.531 1.813-.437.344-.907.375-.906.906.094.719-.343.437-1.188-.437-.188.062-.53.469.906.531 1.871 1.968.375.563-.562 1.781-.531-.25-.907.719-.062-.375-.906.375-.187.906-.532.875-.187.281-.375 1.875.281.907.906.468h1.813l.625-.28.875.28 1.906-.562.906.094.875.718.47.907 1 .468-1.345.157-.562.906h-.906l.28.812-1.968.438-.469 1-1 .531-.875.281-.906.532-.344.906-.656 1.25h-.906l-.875.375-.906 1.25.094 1h.625l.906.344 1.781.28.719.188.562 1.782.25 1.718.907-.093.906.468.906-.468.875-.094 1.625-.094.906.188.907-.438.437-.281.813-.906.906-.094.094-.156c2.49 1.235 3.318-.128 4.281-.469h.813c.03.012.063.048.094.063l.968.812a5.487 5.487 0 0 0-.53-.531c.202.164.44.366.687.656v.906l-.563 1.532-.625.968-.187.47.625.905-.532.72-.343.874-1-.25-3.25-.719-1.25-.625-.625.438v.906l.718.906.188.344-1 .469-.906.156-.907-.156-1.343.875-.532.906-.625.625-1.906.281-1.25.438h-.906l.188.906v.094l.187.375-.188.719h-.906l-.906.625-.969 2.25-.562.53-.25.907.875-.094.468.72.094.905.626-.28.718.374.188.438.718.906-.812.906.906.531v.907l-.656.25.656 1v.718l-.468 1.157-.875-.063-.75.875-.157.656-.094.063-.906.094-.625.375-.188.187-.184.875.188 1 .625.438.375.906-.47 1-.061.813.875.906.094.875.531.281h.188l1-.344h.906l1.25.344 1.781-.093.907-.25.718.156.75-.875 1.157-.906.906-.563 1.78.188.282-.25.907-.813h.968l.469-.469.719-.093.906-.25.094.093.625.094.812.531-.75 1.875.375.375.094.438.188.906-.469.719-2.062 1.25.094 1.375-.344.343-.375 1.094-.188 1.25-.25.188-.187.343.094 1-.375.813-.812 1.531-.72.531-.343 1.532-.094.187-.906.344-.469.562-.156 1.782-.625.468-.563-.187-3.843-1-.094-.094-.907-.187-.094.375-1.25 1.25-.906.375-.906.093-.531.344.718 1.719.188.906v.094l.156.437.188 1.532-.094.093-.25 2.688.437.375v.906l-.281.875-.531.813-.344.906-.906-.094-.532.281-.906.188.438 1.25-.094.812.468.72.344-.907-.25-.906 1.781-.25 1-.657.344-.875.906-.656.813-1.437h1l-.469 1 .906-.188.907-.625.25.906-.157.907 1.782.53 1.375.188.875.72 1.812-.72 1.813-.468.968-.72 4.594-2.687.375-.906.875-.437.188-1.094.906-.906 1.344-1.782 1-.468.343-.875.907-.657c1.5-2.81 5.701-5.105 7.562-8.187l2.156-4.5 1.532-1.875.812-.625.375-.906 1.063-1.813.906-.781.812-1 1.344-1 .813-1 .094-1.438.437-.875-.187-.906h.375l.28-1.437h-.187l1-1.907-.562-1.78.562-.72-.187-.906-.188-3.687 1.063-1.813-.156-.906.718-.875.625-1.906.907-.625.812-.907-.094-1 .969-.625v-.343l-.875-.375-.907-.72.438-.905.188-.875-.188-.907-2.438-1.906 1.813.813.906-.532.282-.906-2.813-2.156-.875-.438-.906-.906-.813-1.812-.906-.344-.909-.719c-1.847-.44-1.987.994-4.781-.469l-.25 1 .25.907-.438.906-.187.969-.438.906-1 .281.095-.906 1-.906v-.907l-.907.282-.25.906-1.906 1.156-2.719.281.813-.906.468-.906.907-.531-.907-.282-1-.53.907-1 .531-.876-.906.063-.969.375-.906.718.906.625-.375 1-.906.25-.969.563-.625-1 .531-.906-.094-1.782.344-1v-.906l-.969-.094-.906.375-.906-.093-1.875.28-.906-.655-1.813-.25-.344-.907.72-.906 1-.812.874-.157 1.906-1.093 1.438-1.813 2.781-1.344 2.813-2.156 1.875-1.781.906-.469-.469-.906 2.813-2.5.875-.469.75-.906.875-.625.906-.344.812-.906.907-.531.625-.907 1.875-.625c1.203-1.843.938-4.026 3.875-4.687 3.765-1.834 1.922-3.215 6.03-5.125l1.907-.438 1.156-.562 1 .281 2.688-.531 2.875.25h1.812l.907-.25h1.78l1 .156v.906l.907.72.875-.25.656-1Z"/></svg>