<svg width="1671.094" height="856.393" xmlns="http://www.w3.org/2000/svg" xmlns:usvg="https://github.com/RazrFalcon/usvg" usvg:version="0.8.0"><path fill="#3e73c5" fill-opacity=".429" stroke="#000" stroke-opacity=".247" stroke-linecap="round" stroke-linejoin="round" d="M83.723 601.3v-7.747l-25.474-70.004H34.458v16.19l9.646 8.457.237 25.695 11.34-.09 6.93 27.499Z"/><path fill="#8cce55" stroke="#0f380f" stroke-opacity=".145" stroke-linecap="round" stroke-linejoin="round" d="M41.5 526.173a2.25 2.25 0 1 0 0 4.5 2.25 2.25 0 0 0 0-4.5ZM50.938 536.08a2.25 2.25 0 1 0 0 4.5 2.25 2.25 0 0 0 0-4.5ZM61.625 563.736a2.25 2.25 0 1 0 0 4.5 2.25 2.25 0 0 0 0-4.5ZM57.625 570.236a2.25 2.25 0 1 0 0 4.5 2.25 2.25 0 0 0 0-4.5ZM73.469 587.736a2.25 2.25 0 1 0-.001 4.499 2.25 2.25 0 0 0 0-4.5Z"/></svg>