<svg width="1671.094" height="856.393" xmlns="http://www.w3.org/2000/svg" xmlns:usvg="https://github.com/RazrFalcon/usvg" usvg:version="0.8.0"><path fill="#3e73c5" fill-opacity=".429" stroke="#000" stroke-opacity=".247" stroke-linecap="round" stroke-linejoin="round" d="m885.563 266.454.906-.187.718.437.438.375.906.532.375.562-.125.75 1.762-.026 2.243.34 1.656-.54.277-1.024 1.101.025 1.806-.962.295.893.977-.061-.87-.948 1.034-3.508 1.702-.848 2.573-1.677-1.18-.468.761-2.334 1.07-.255.551-.7 3.114-.101.073-.591.48-.313.82-.837.853-.254.621.096.25-.532-.156-1v-.062l-.094-.469-.625-.906h-.094l-.562-.875-.25-.906-.375.093-.531.063.437-.969.094-.906.281-.094.188-.281-.188-.875-.719-.469-.906-.875-.438-.094.157-.718.562-.907.344-.28.281-.095.094-1.156h-.094l-.906-1.812.375-.969-.094-.281-.375-1.813.188-.969.531-.468.625-.344.563-1.188.062-.718 1-.157.469-.375v-.28l-.375-.25-.438-.376.25-.906-.25-.875.875.062.907.375.187-.906.906-.094.907.282.875-.532.718-1 4.782.907.093-.282-.281-.625-.719-.093-.625-.907-.906-.343-.969.093h-1.906l-1.969-1.375-.625-.875.875.344-.062-.906.25-.813-.25-.25-1.906 1.157-1 .375-1.063-.188.344-.344 1.187-1 .907-.812.718-.625.157-.094h.28l1.157-1.094h.094l2-1.343 1.062-1.25.094-.094.375-.094 1.781-1.625.188-.344 2.687-2.718 1.438-1.063.906-.906.719-.719 1.343-2.687-.25-.563-1-.812-.343-.875-1-.563-1-.812-.969-.344-.906-.719-.906-.469-.438-.437-.562-.531.562-.188.438-.187 1.718-1.782.094-.656-.188-.875-.906-.562-.906-.25-.531-1.094-.188-.188-.093-.156.093-.375.907-.719-.907-.812-.625.094-.906-.72-.344-.905.907-.72.25-.905h-.907l.375-.875.282-2.438.968-.187.563.093c-.06-2.906-2.342-4.75-3.438-7.375l-1.437-1.812v-.719l2.156-2.781.906-.813 1-.812.25-1.25v-.282l-1.687-1.156-.719-1-.906-.906-2-.531-.875-.625-.813-2-.093-.157-.094-.187 1.437-1.906-.437-.875h-.906l-.188-.094h.188l1.875-1.424-.158-1.676 1.666-2.134-.724-1.008-3.755-1.944-2.594-1.644-1.901.839-3.405.339-2.932 2.426-1.446 6.07-.972.05-2.303 2.608-4.927-2.175-.612.767-5.531.219-.281.03-.188-.906-.875-.968-.719-.563-.375-.344-.187-.28-1.25-1.438-1.531-.282-1.063.563.344 1.156-1.813-.093-.625.53.625.188.47.188h.093v.531l1.875 1.094.906.906 1.969.875.656.656.969.157.093-.094.907.375.28.094.626.187 1.875.875.375.906.875.469.812.875.657.563-.907 1.156.094.531v.094l.156.906-.53.906.905.281.907.72-1.094 1.062v.375l2.062 2.875-.53.906-.095.969-.968.812.062.531v1l1 .813 1.188 2.437v.188l.062.062.094.188 1.625.094.094-.094.187.625.906.469.875.187 1.625 1.438-.25.875.063.656-.25.875 1.062.812h-.156l-.094.375h-.906l.719.907c-2.613-1.595-3.93.823-5.313 2.687l-1 .719-.343.906-.532.375-.375.25-.718 1.094-1-.094-.094.875-.875.375-.281-.093-1.094 1.812-1.063-.562-.718.812-.094.094-.438.906.25 1.094-.25.25-1.906.531.188-.344-.907.344-1-.625-.156.625V207.048l-.468 1-.907.625-.25 1 .188.907-.375.875.281.906.344-.344.468.969-.093.906-.375.906.093.344.813 1 1 1.969-.813-.25.188 1.781-.188 1-.468.906.093.907-.343 1.78.906.563v.157l.625-.344.437.906.907-.094.187.25.969.282 1.094.156V228.017l-.47.531.095.375h.28l.095-.03v7l-.188.155-1.875.25 1.875.72.188.25v1.218l-.813.25-.906.531-.906-.187.281.906-.437.906.875.531-.25 1.813.906-1 .25-.906.906-.344h.094v3.312l-2.25 1-.907.094-.906.813-.625.906-.343.875v.906l-.72.906-.905.813-.282 1.812-.093 1.969.375.906v1.532l.25.906.562 1.5.094.906.156.375h0l-.438.906.094.875-.906.719-1.813-.25-.156-.469c.176-.127.36-.266.531-.406.095-.078.19-.168.282-.25.26-.23.499-.456.718-.719.139-.165.26-.353.375-.531.008-.012.024-.02.032-.031.057-.092.106-.187.156-.281.052-.1.113-.21.156-.313a3.12 3.12 0 0 0 .156-2.031l-.25 1.875-.53.906-.813.906-1 .875-.72.375-.905-.093-.907.093-.343.188.187.875-.281.562-.188.344-1.156 1.094.156.093.907-.812.562-.719.156-.187 1.72.281-1 .531-.72.188-.968.812c.146.057.34.074.53.094.192.02.382.042.532.062l1.188.094h.25l1.28.188.25.093c.4.034.68.04 1.032.063.417.027.8.046 1.188.062.689.03 1.486.06 2.187.063-.414.002-.87-.028-1.312-.031.937.023 1.86.044 3.03.03h.813l1.532-.093 1.343-.093Z"/><path fill="#8cce55" stroke="#0f380f" stroke-opacity=".145" stroke-linecap="round" stroke-linejoin="round" d="m878.625 260.517-.438.906.094.875-.906.719-1.813-.25-.156-.469c.176-.127.36-.266.531-.406.095-.078.19-.168.282-.25.26-.23.499-.456.718-.719.139-.165.26-.353.375-.531.008-.012.024-.02.032-.031.057-.092.106-.187.156-.281.052-.1.113-.21.156-.313a3.12 3.12 0 0 0 .156-2.031l-.25 1.875-.53.906-.813.906-1 .875-.72.375-.905-.093-.907.093-.343.188.187.875-.281.562-.188.344-1.156 1.094.156.093.907-.812.562-.719.156-.187 1.72.281-1 .531-.72.188-.968.812c.146.057.34.074.53.094.192.02.382.042.532.062l1.188.094h.25l1.28.188.25.093c.4.034.68.04 1.032.063.417.027.8.046 1.188.062.689.03 1.486.06 2.187.063-.414.002-.87-.028-1.312-.031.937.023 1.86.044 3.03.03h.813l1.532-.093 1.343-.093v-.001l.907-.187.718.437.438.375.906.532.375.562-.125.75 1.762-.026 2.243.34 1.656-.54.277-1.024 1.101.025 1.806-.962.295.893.977-.061-.87-.948 1.034-3.508 1.702-.848 2.573-1.677-1.18-.468.761-2.334 1.07-.255.551-.7 3.114-.101.073-.591.48-.313.82-.837 1.474-.158.25-.532-.156-1v-.062l-.094-.469-.625-.906h-.094l-.562-.875-.25-.906-.375.093-.531.063.437-.969.094-.906.28-.094.188-.281-.187-.875-.719-.469-.906-.875-.438-.094.157-.718.562-.907.344-.28.281-.095.094-1.156h-.094l-.906-1.812.375-.969-.094-.281-.375-1.813.188-.969.531-.468.625-.344.563-1.188.062-.718 1-.157.469-.375v-.28l-.375-.25-.438-.376-.468.469-4.657-.281-1-.532h-.906l-1-.375-1.781-.25-.907.438-1-.438h0c-.365.986-.387.983-1.343.72h-1.875l-.719.53-1-.187-.906.719-.907-.188.375.719-1.906.375-.875.531-.468 1 1 .281-1 .344.625 1 1 .156-1 .188-.157 1 .813.625.25 1 1 .094.906.343.875-.812.906.719-1.156 2.968.25 1 .375 2.688-.813.906-.906.531-.968.563-.907.093-1.812-1-.25-.906-1.719-1.719-.906-.625-.625-.906-2.25 1-.907.094-.906.812-.625.907-.343.875v.906l-.72.906-.905.813-.282 1.812-.093 1.969.375.906v1.531l.25.907.562 1.5.094.906Z"/><path fill="#3e73c5" fill-opacity=".429" stroke="#000" stroke-opacity=".247" stroke-linecap="round" stroke-linejoin="round" d="m905.094 522.83-.813.53-.906-.093-.813-.062-.968-.47-.469-.187h-1.25l-1-.343-.344-.375-.906.28-.906 1.438a2.808 2.808 0 0 0-1 .125 2.921 2.921 0 0 0-.282.094c-.113.047-.21.1-.312.125a.91.91 0 0 1-.188.031c-.057.002-.122-.02-.187-.031a1.473 1.473 0 0 1-.344-.125 3.576 3.576 0 0 1-.437-.25 9.807 9.807 0 0 1-.563-.406c-.463.339-.914.56-1.343.75-.42.185-.84.338-1.25.469-.848.27-1.675.523-2.625 1.125l-.907-.657-1.437.094-.563.469-.625.718v.532l-.437.625-.188.281v.094l.188.03.281.063 1.344 1.157h1.781l.563.187h.78l-.53.719-.094.187-.875-.187-.906.625-1 .187v1.875l.437.282.906-.375-.437 1.906.625.906.906-.094h.188l.968.625.282 1-.907-.28-.906.28-.156.157-1-.157-1 .72-.25-.095-.656-.28.093.28-.343.625-.094.438-.094.469-.906.968c.134-.003.255.017.375.032.052.008.107.02.156.03a2.291 2.291 0 0 1 .75.313c.041.031.087.06.125.094.109.095.194.196.281.313.115.154.227.317.313.5v.03c.13.282.226.593.312.907.01.063.018.125.032.188.01.022.025.04.03.062.01.031.025.063.032.094.019.074.045.144.062.218.082.35.164.691.25 1l.344.563.188.719 1.343 1.875.625.906-1.875.906 2.063.25.812.906-.906.47-.093.624 2.78 2.156.907.25.813.657.187 1.156-2.156-.094-.907.719-2.25.625-1-.625-.53.188-1.438-.72-.625.438-.375.282-1.157-.188.438 1.906-1.063.25-.625.469-.28.156-1.72-.875-.906.813-1.25-.094-.187.969-.532.625-.437.906-.469 1.906.094 3.313-.906.562-.157.094h-.187l-.469.438-.875-.532-.281.094-.094.062.375 1-.281.907.438 1.343.187.907-.188.906.188 1.156-.344.906-.468.625-.97.438-.562.562.282 1.875.718.907.375 1h1.063l.906-.375h1.063l-.344.906-.094.812h5.75l.375.72-.094 1-.28.968-.095.375.75 1.781.063.469-.344 2.5-.094.719.094.281-.094 1.437.282.907 1.343 1.531.094.719.438 1.25v.906l.093.281v.094l-.28.437-.438.282.343 1.78v.095l1.094-.532.094-.093.344-.375.656.28.875-.187.906.188.469-.094.875-.531.906.094 1 .093.906-.656.063 1.188.093.093v1.688l-.156.906v2.438l.157.28-.094.876-.344.906-.187.719.187.906c-.248.022-.54.027-.875.031a36.19 36.19 0 0 1-1.094 0c-1.447-.022-3.208-.078-4.687-.03-.472.014-.92.048-1.313.093-.209.024-.384.059-.562.093-.159.031-.34.054-.469.094-.018 2.448.026 4.87.063 7.313v.03c.037 2.434.073 4.876.03 7.313v.094l1.157 1.969 1.094 1.094 3.312 3.25 1.282.625 3.5-.72.28.095 2.25.062.876.281.093.094 1.282 1.094-1.282.062-.875.094-.375.281-.906.719-.812-.438-1.782.97-.375.468-1.25 1.062-.468-.906-.72-.812-.343-.625c-.466.005-.919.046-1.375.093-.217.024-.44.062-.656.094-.537.075-1.067.175-1.594.281-.02.004-.042-.004-.062 0-.054.011-.104.02-.157.032l-.28.062c-1.302.28-2.59.582-3.876.781-.03.005-.063-.005-.093 0-.42.063-.83.122-1.25.157-.428.03-.85.045-1.282.03v17.75h-4.593c-.033 2.638-.03 5.262-.032 7.907v7.937c.01 3.495.02 7.005 0 10.5-.01 1.806-.035 3.603-.062 5.407l-.875.375-1.094.156-.437.906-.72.094-.093.906-.375.094h-.906l-.875-.375h-.813l-.906.187-1.812-.093-.875-.438h-1l-1-.375-.532-1.062.188-.907-.813-.812-.093-.281-.907-.157-.625.72-.375.874-.437.375-.813.625.375.906 1.157 1.782 1.093 2.812.157.906.906 2.594 1.344 2.688 1.437 2.25 1.375 1.812.344 1 .469 2.156-.094.907-.281.875-.72.718-.905-.343-.344 1 .812.53.438.907-.094.344.719.906.813 1.625-.438 1.25.156 1.25.563.656-.281-.906.375-.469.718-.093.719.187.094.813.343.531.72-.063 1 .344.187.906.343.094.907.719.906.094.875.343 2.812-1.968 1.25.093-.28-.375.905-.187 1 .281 2.688-.187 2.062-1.625h.907l.28-.063v144.969h69.563V629.016l.344-.188 3.531-1.593.875-.282.657-.468h.875l.625-.25 1.53-1.188 1.813-1.062.282-.907 1.062-.53 1.906-2.813.813-.875.437-.907-.375-.625 1.094-2-.093-.875-.72.157-.093-.875-.437-.907.437-.906-.25-.906.063-.969-.344-.281.187-1.813-.718-.906.875-.625-.25-.969.093-.906-.375-.719.094-1.906-.344-.812.063-.875-.438-.657.625-.968.094-2.72-.344-.343-.281.281-.813.438-.906.812-2.25.813-.906.625-.969.187-.906.094-1.344.531-.625.625-.906-.531-.906-.281-.625.093-1.25 1.532-.907.343-.187.282-.906-.094-.907-.344-.25-.375-.906.094-.906.719h-.188l-.156.093-1.812-.718-1.72-.72-.874.72h-.719l-.187-.094H942l-.375-.906-.906-.907-.344-.718.156-1.157-.062-.906-.281-.25-.094-1.906-.094-.281v-.157l-.093-.187-.25-.469-.563-.781-.875-.75-.812.187-.282.47-.718-.657-.72.094-.905-.157-1.782-.717h-.375l-.719-.375h-.093v-.094l-.188-.187-.875-.063-.187-.375-1.907-.53-.437.093-.906-.906-.25.187-.375-.187-.438-.907-.375-.093-.531-.344h-.906l-.188-.906-.812-.907-.25-.906-1.438-2.344v-.875l-.375-1.906-1.437-1.781-1-.188-.875-.718-.375-1 .906-.907v-.906l-.469-.875-.156-.906.156-.719-.25-.906-.719-.719.25-1.875h.563v-.187l1.062-.532.813-1.093.531-.907.469-.343v-.375l.281-.72.344-.28.437-.532.375-.343.532-.907-.094-.28.187-.345-1.718-.093-.157-.907.438-.437h-.438l.625-1.188.907-.187.062.094v-.094l.469-1.438-.281-.437-.094-.094v-.093l.094-.438v-.812l-.094-.282-.156-.187-.094-.156v-.282l-.281-.281-.282-.062-.718-1.47h-.438l-.187.282-.094.094-1.438 1.437-.437.094-.375-.719-.438.094-.624.187v-.468l-.063-.313v-.031a9.47 9.47 0 0 1 .094-1.5v-.031a8.477 8.477 0 0 0 .28-1.688c0-.061.028-.126.032-.187.1-.593.16-1.186.188-1.813l.093-.375-.093-.281.906-1.688.281-1.906.063-.093h.093l1-.813.438-.531.719-.344.28.969.032-1.344.688.813 1.25-1.813.906-.344.812-.906.375-.625-.28-1.531-.376.375-1.062-.813-.47-.187-.062.187-.906-.562.25-.875.469-1-.469-1.25.375-.719v-.906l.094-.281-1.867-.015.033-1.095-1.662-.517-1.795-1.87-.027-.8-1.768.076-.887.817-2.657-.5-1.247.62-2.877-1.408-.362-.92-1.005-.407ZM953.781 431.674c-.358-.24-.587-.923-.812-1.344l-.72-.906.438-1-.093-.625-1.782-2.782-.906-.906.094-.094-.719-1-1.531-2.687-1.531-1.875-.375-1-.875-.906-1-1.875-.719-.907-.188-.469-.906-.25-1.687.344-.282-.344.438-.53.656-1.813-.093-.72.812-3.25h.344l1.156.188 1.188.282 1.25.156 1.187.187.969-.718v-.094l1.094-.906.718-1.157 1-.625 1.25-.28 1.157-.25h.375l.093-.188.438-.907.718-.906 1.188-.625c-.75-.823-1.556-1.676-2.344-2.531a90.906 90.906 0 0 1-2.156-2.406l.25-.282.375-.093h.188l.062-.094 1.281-.344v-.031l1.25-.344.907-.156.093-.094 1.156-.28.094-.095 1.25-.28.375-.157 1.25-.281.188-.094 1.156-.719.656-.531v-.094l-.281-.531h-.094l-1-.281v-.188l-.093-.156h.093l.188-.094.093-.093-.375-1.188-.875-3.312c2.277-1.11 4.56-2.383 6.75-3.594l.25-.188h.094l.281-.093.094-.094 1.688-.906.812-.438.281-.187v-.094l1-1.781v-.094l-.093-1v-.812l.343-1.875.188-.188.281-1-.375-1.25-.156-.906.062-.719.282-.906 1-.531.906-.188 1.437-1.156H975l1.375-1.344-.094-.281 1.063-.281.812-1.157.906.282.907-.282.968.282.907.343 1 .188.812-.188.625-.281.625.906-.094.375.907.094.906-.563.812-.062.094.156.094-.906-.906-.625-.094-.344-.094-.906.188-.282-.719-.437-.906-.438c.88-3.48.78-.621 0-4.25l.187-.969-.562-.656-.094-.25v-.906l-.625-1.094 1.719-.156.343-1.531.907-.188.718.531-.156-.437-1.093-.906-.375-.532-.344-.093-.094-.094-.531-.188c-1.424.42-1.559.054-2.781-.437l.156-.625-.344-.906.188-.813.343-.531.094-.188v-.28l-.094-.345-.53-1-.72-.718-1.093-.438-.094-.281-.156-.094.156-.281-.906-.531-.532-.532-.53-.093.28-.344h-1.187l-.344.719-1.812-.281h-.907l-.437.343-.469-.156-.781-.281-.094-.094-1 .906-1.25.72-.906.28-.906.532-2.438 1-.625-.375-1.969-.282-.906-.344-2.531.438-.625.375-1.782.094-2.343-.563-.375-.531-.875.531-.188-.094v-20.375l-.093-.03-1.532-1.813-1.906-.625-.156-.532.906-.28-1.094-.532.907-.438 1.25.532 1.187.093.531-.125v-9.875l.094-.093 1.781-.25.907.062.625-.156-.094-.281-.094-1 .375-.875.906-.907.907-.28.062-.095.375-.093.438-.875c1.51.1 2.804.08 4.343.062v-.875l.344-.375-.094-.093.625-.907.094-.062v-.375h-.187l-.063.093h-.187l-.094-.093-.188-.188.375-.156-.28-.906-.907-.469v-.25l.094-.187.53-.907.907.094.375-.375-.187-.156-.188.093-.187.063-.875-.25.093-.813.97-.625.718-.906-.156-.531-.282-.375.344-.906-.625-.094-.094.094-.437.28-.906-.28-.532-.813h-.906l-.906-.875-.906.438h-.25l-.907-.532-.906-.375-.906-.25-.781-.093.062.093-.781.532-.281-.47-.094-.062-.094-.187-.906-.375-.438-.625-.625-.906-.906-.532-.906.532h-.813l-.437.093-.188.094-.906.625-.875-.625-.562.188-.344-.438-.906-.562-.813.093-.719.469-.53-.469-.72-.906.157-.875v-.094a7.073 7.073 0 0 0-.438-.906l-.281-.469-.125-.156-.063-.094c-.161-.227-.355-.423-.531-.625l-.031-.03c-.024-.028-.038-.068-.063-.095l-.062-.156-.563-.437c-.596.215-.966.281-1.218.281-.38 0-.503-.166-.782-.313a1.512 1.512 0 0 0-.343-.125c-.283-.07-.69-.105-1.344-.03l.187-.094.282-.625h-.094l-.188-.375-.28-.907-.345-.437.282-.281h.156l.812-.875c-2.524-1.706-.755-1.902-2.125-2.875-.01-.004-.025.004-.03 0a6.991 6.991 0 0 0-.813-.47l-.907.532-.093-.25-.157-.187h-.28l-.813-.094-.532.281-.906.438h-.906l-.813-.344-.875-.094v.531l-.187.188-.719.906-.906.063-1-.344-4.009.22-1.911 2.645.357 1.563-.448.895-1.647-1.413-3.844.657-1.044-1.382-.364-.166-1.185.505-.443.832-2.117-1.521-1.814.27-.689.796-.251-.034-.009-.637-9.711-1.963-5.339.24-1.528 1.538-1.858.56-.303-.731.094.625.188.094.375.906.062.719.469.531h.094l.53 1.188 1 .812-.905.438.718.906v.344l-.093.375-.907.718-.906.188-.344.531c-.234.143-.452.29-.656.438-.203.148-.377.308-.562.468-.373.32-.738.658-1.125 1.063l-.72.906-.093.094-.187.093-.344.438-.094.094-.53.625v.625l.25.906-.095.625.657.906.062.375-1.5-.469-.281.5-.281.5-.188.72-.625.905-.437.532-.094.718v.188h.187l.344.187v.094l.906.719H884.313l.343.437.188.344h.906l.094.094.25.812-.875.72-1 .374-.281.094-.907.344-.25.53-.281.19-.438.28-.093.188-.25.469-.563 1.125-.187.468v.094l-.625.625-.281.906-.438.532-.094.093v.438l-.718.375-.188.906-.156.25-.719.906h-1.375l-.344.531-.093.094h-.094l-.906-.187-.97.187-.093.188.25.343.282.563 1.093.437.25.532.188.187.437.531-.093.563.187.25-.187.187.28.188.095.187.812.72.906.343.094.094h.156l.813.28-.157.907-.28.156.187.188.718.375-.593.281-.313.156.188.282h.437l.531.25v.093l.282.282 1.625.343v.188l.25.281.906-.469.469-.437.53.156.345.125.906.438-.344.187-.187-.094-.72.344-.187.094.188.187.094.282.343.437h.094l.375.438c-.079.133-.189.26-.281.375-.052.06-.103.129-.156.187-.043.048-.082.11-.125.156-.048.055-.105.104-.157.157-.06.062-.131.124-.187.187-.016.017-.016.045-.031.063-.025.028-.04.064-.063.093-.043.053-.087.102-.125.157-.01.011-.023.019-.031.03-.01.012-.024.02-.031.032a.621.621 0 0 0-.063.094c-.015.027-.018.065-.03.093-.01.023-.024.042-.032.063-.033.079-.045.162-.063.25 0 .023-.028.039-.03.062-.01.03 0 .063 0 .094-.01.11-.018.217 0 .344.013.161.05.329.124.531l.375.656v.157l.906.906.344.187.813.907.28.093v.156l-.718.907-.812.718-.188-.093-.531.187-.094.031-.281.157.094.093v1.344l.187.406.188.407-.188.125-.625.406.438.531.187.25.094.125.25.188 1.437.812.094.625.281.438.188.53-.188 1v.72l-.093.28H886l-.53.095v.437l-.095.375-.875.156h-.281v.094l-.719-.093-.625-.156-.469.156-.875.281v.094l-.562.813-.625.156-.907-.063h-.156l-1.375.25h-.718v.375l.28.532v.53l-.28.47-.907.437-.062.531-.657 1.375-.156.063h-.625l-.281.469-.188.53.282.47h-.563l-.343.875-.532-.157-.468-.093.625.343.812 1.813.719.094 1.281 1.687.344-.812.468.28.875.188-.437.719-.281-.187-.875-.094-.094.906 1.156.813.72 1.812.905-.719v-.187l.625.906 2.344-.562.906.375.907-.375.53.343v1.188l-.468-.094-1.062-.437-1-.625-.907.25-.875.718-.906.094-.719 1 .344.906.719 1 .469.157.625.906-.438 1.719.719 1.437.875-.281.812-.906.094.562.906.906.813 1.344v19.438l-1.188-.47-1.062-.155-1.25-.094-.907.25-.812.562-1.813.157-.906.562-.968.344-1.813 1.531-.813 1-.343.969.093 1.281c1.122 2.951 1.722 3.04-1.375 6.125l-1.78.813-1 .062-2.157-1.062-2.063-1.625-3.875-1.532-2.968-.718-.907.093-1.718-.187-1.782-.813-.812-.906c-.784-.956-.777-2.094-1-2.969a2.377 2.377 0 0 0-.219-.593c-.304-.543-.89-.88-2.187-.844l-1.719-.438-.906-.718-1.438-.532-1.718-.187-1.25-.531c-4.197 1.7-4.7-.183-8.188-1.344v.344l-.094.187-.093.438v.187c-.138.421.21 2.421.187 2.781a4.87 4.87 0 0 1-.469.25l-.25.125c-.078.034-.172.063-.25.094l-.656.25-.187.094c-.021.009-.043.022-.063.03l-.719.345c-.17.115-.317.275-.468.437l-.344.438-.563.187-.187.094-.438.906-.187.188-.875.156-.188.187-.625.907.157.906.28.875.188.906v.625l-.625.906-.656.907c-.217.308-.433.63-.531.718-.152.137-.312.114-.625.188a3.966 3.966 0 0 0-.781.281l-.125.063-.72.375v.718l.095.188.718.875.532.906.375 1c.33.96.544 1.977.53 3v.031c-.01.331-.035.674-.093 1v.094l-.094.375-.156.906.094.875.062.094.375 1 .188.812-.281.625-.094.375v.063h-.094l-.344.906-.187.469v.156l.281.906.156.907.094.187.188.906.093.438-1 .906-.906.438-.531.906c.693.974 1.439 1.937 2.125 2.937.017.024.046.04.062.063.055.08.103.17.157.25l.437.719.281.875v.906l.282 1 .093.094.25.093.47.97.968.468.906-.375.906.281h.094l.25.094c.318.106.647.187.969.281.03.01.061.022.093.031l.125.031.907.282.25.093.812 1 .281.47.094.155c.015.023.048.041.063.063l.468.813c.222.423.355.787.438 1l.25.406c.027.025.058.042.094.063l.062.031.781.219c.367.072.82.168 1.532.312.301.064.606.118.906.188.058.012.127.018.187.031.409.089.737.16 1.25.281.75.186 1.193.279 1.563.375l.219.063h.093l.157.093c.273.089.482.183.656.313l.094.062.437.407c.06.055.21.186.281.25l.188.156c.267.237.5.441.969.813l.468.437.97.188.905-.532 1-.468.907-.532.25-.093v-.094c1.697-.685 3.052-1.459 4.687-2.156 3.132 1.545 6.238 3.1 9.344 4.656.01.004.024-.004.031 0 1.838.922 3.673 1.85 5.5 2.781 1.263.642 2.522 1.29 3.781 1.938a776.338 776.338 0 0 1 7.344 3.812c.628.331 1.248.667 1.875 1 .732.389 1.456.796 2.188 1.188.801.428 1.605.848 2.406 1.28l4.594 2.5v-2.002l4.276-.207v-9.598l29.159-.414.833-.641.166.883h28.128ZM884.219 104.79v40.959l4.781-2.125 5.995-1.182 2.561-.15 2.789.172 1.555.593 1.5 1.052 3.64-1.514 2.539.323 1.882.147 1.962 1.09 1.992.745 3.223 1.12 2.176.541 2.188 1.348 1.492.7 1.805 2.968 4.999 1.987 3.815 1.27 1.309 2.357 2.52-.058 1.465.794 3.598.195 4.765 1.623 5.011 2.522v-57.562l-.093-34.045h-9.357V48.946l9.357.009.093-48.438H884.22h0v48.429h53.902v55.844Z"/><path fill="#3e73c5" fill-opacity=".429" stroke="#000" stroke-opacity=".247" stroke-linecap="round" stroke-linejoin="round" d="m925.25 536.33.531-.532v-.187ZM894.844 192.298l-1 .344.531.563 1.438-.563v-.156ZM886.188 201.486l-.907.25 1 .281-.093-.531ZM877.906 205.517l.625.906.282-.437ZM879.094 224.86l-.094.282h.719l-.625-.281ZM871.875 226.236l.281.875-.906.094.906 1h.532l.187-.282-.188-.968.282.53h.906l-.281-1-1.719-.25ZM883.938 226.236l-.094.156.281-.156h-.187ZM882.688 226.767l.437.344.563-.25-1-.094Z"/><path fill="#3e73c5" fill-opacity=".429" stroke="#000" stroke-opacity=".247" stroke-linecap="round" stroke-linejoin="round" d="m883.125 227.11-.094.188.282.282-.188-.47ZM872.688 228.392l.562.531h.531v-.53ZM871.969 351.86l-.907.532 1.625 1.813v-.282l-.343-.28-.375-.907ZM875.938 357.236l-.375.187.468.907-.093-1.094ZM875.125 359.673l-.625.282.094.906 1.78.437-1.25-1.625ZM876.563 362.642l-.907.188.907.812Z"/><path fill="#8cce55" stroke="#0f380f" stroke-opacity=".145" stroke-linecap="round" stroke-linejoin="round" d="m883.937 163.86-.187-.906-.875-.968-.719-.563-.375-.344-.187-.28-1.25-1.438-1.532-.282-1.062.563.344 1.156-1.813-.094-.625.532.625.187.469.188h.094v.53l1.875 1.095.906.906 1.969.875.656.656.969.156.093-.093.907.375.28.093.626.188 1.875.875.375.906.875.469h.031l.781.875.657.562-.907 1.157.094.53v.095l.156.906-.531.906.906.281.906.72-1.093 1.062v.375l2.062 2.875-.531.906-.094.969-.968.812.062.531v1l1 .813 1.188 2.437v.188l.062.062.094.188 1.625.094.093-.094.188.625.906.469.875.187 1.625 1.438-.25.875.063.656-.25.875 1.062.812h-.156l-.094.375h-.906l.719.907c-2.613-1.595-3.93.823-5.313 2.687l-1 .719-.344.906-.53.375-.376.25-.719 1.094-1-.094-.062.875h-.031l-.875.375-.281-.094-1.063 1.813H886l-1.063-.563-.718.813-.094.094-.438.906.25 1.094-.25.25-1.906.53.188-.343-.907.344-1-.625-.156.625v.907l-.469 1-.875.624-.28 1 .187.906-.375.875.28.907.345-.344.468.969-.093.906-.375.906.093.344.813 1 1 1.969-.813-.25.188 1.78-.188 1-.468.907.093.906-.343 1.782.906.562v.156l.625-.343.437.906.907-.094.187.25.969.281 1.094.157.718.125-.718.875 1.437.093.906-.53-.187.437-1.875.562-.281.344-.47.531.095.375h.28l.094-.031.907-.156.875-.625.187-.344.469.531.875.25.094.375h-.25l-.282.438 1-.438-.375.531-.906.72 1.813-1.063.093-.188 1.063.438.812-.438 2.094-.531v.531h.875l.563-1 .812-.094.875-.343.906.093 1-.375 1.25-.906.47.906.624-.906.875.469-.437-.906.906.28h1l.344-.562.437.188 1.813-.188 1-.53.812.468h1.875l.188-.375.343-.344 1.188-1 .906-.812.719-.625.156-.094h.281l1.157-1.094h.093l2-1.344 1.063-1.25.094-.093.375-.094 1.78-1.625.188-.344 2.688-2.718 1.437-1.063.907-.906.718-.719 1.344-2.687-.25-.563-1-.812-.344-.875-1-.563-.468-.375c-.38-.22-.776-.44-1.157-.656l-.343-.125-.375-.281a15.89 15.89 0 0 1-1.094-.72l-.343-.187-.438-.437-.563-.531.563-.188.438-.187 1.718-1.782.094-.656-.188-.875-.906-.562-.906-.25-.531-1.094-.188-.188-.093-.156.093-.375.906-.719-.906-.812-.625.094-.906-.72-.344-.905.906-.72.25-.905h-.906l.375-.875.281-2.438.97-.187.562.093c-.032-1.542-.695-2.78-1.47-4l-.124-.187-.844-1.219-.125-.313c-.325-.528-.63-1.07-.875-1.656l-1.437-1.812v-.719l2.156-2.781.906-.813 1-.812.25-1.25v-.282l-1.687-1.156-.72-1-.905-.906-2-.531-.875-.625-.813-2-.093-.157-.094-.187 1.437-1.906-.437-.875h-.906l-.188-.094 2.063-1.424-.158-1.676 1.666-2.134-.724-1.008-3.755-1.944-2.594-1.644-1.901.839-3.405.339-2.932 2.426-1.446 6.07-.972.05-2.303 2.608-4.927-2.175-.657.767Z"/><path fill="#8cce55" stroke="#0f380f" stroke-opacity=".145" stroke-linecap="round" stroke-linejoin="round" d="m894.844 192.298-1 .344.531.563 1.438-.563v-.156ZM886.188 201.486l-.907.25 1 .281-.093-.531ZM877.906 205.517l.625.906.282-.437ZM879.094 224.86l-.094.282h.719l-.625-.281ZM871.875 226.236l.281.875-.906.094.906 1h.532l.187-.282-.188-.968.282.53h.906l-.281-1-1.719-.25ZM883.938 226.236l-.094.156.281-.156h-.187ZM882.688 226.767l.437.344.563-.25-1-.094Z"/><path fill="#8cce55" stroke="#0f380f" stroke-opacity=".145" stroke-linecap="round" stroke-linejoin="round" d="m883.125 227.11-.094.188.282.282-.188-.47ZM872.688 228.392l.562.531h.531v-.53ZM885.844 228.923l.812.532.438-.532ZM889.156 284.08l.188.093.375.906.062.719.469.531h.094l.53 1.188 1 .812-.905.438.718.906v.344l-.093.375-.907.718-.906.188-.344.531c-.1.061-.186.125-.28.188-.127.083-.26.165-.376.25-.203.148-.377.308-.562.468-.208.178-.417.396-.625.594l-.063.063c-.144.139-.288.25-.437.406l-.72.906-.093.094-.187.093-.344.438-.094.094-.531.625v.625l.25.906-.094.625.657.906.062.375-1.5-.469-.281.5-.282.5-.187.72-.625.905-.438.532-.093.718v.188h.187l.344.187v.094l.906.719h.281l.344.437.188.344h.906l.094.094.25.812-.875.72-1 .374-.282.094-.906.344-.25.53-.281.19-.438.28-.093.188-.25.469-.563 1.125-.187.468v.094l-.625.625-.281.906-.438.532-.094.093v.438l-.718.375-.188.906-.156.25-.719.906h-1.375l-.344.531-.093.094h-.094l-.906-.187-.97.187-.093.188.25.343.282.563 1.093.437.25.532.188.187.437.531-.093.563.187.25-.187.187.28.188.095.187.812.72.906.343.094.094h.156l.813.28-.157.907-.28.156.187.188.718.375-.593.281-.313.156.188.282h.437l.531.25v.093l.282.282 1.625.343v.188l.25.281.906-.469.469-.437.53.156.345.125.906.438-.344.187-.187-.094-.72.344-.187.094.188.187.094.282.343.437h.094l.375.438c-.079.133-.189.26-.281.375-.052.06-.103.129-.156.187-.043.048-.082.11-.125.156-.048.055-.105.104-.157.157-.06.062-.131.124-.187.187-.016.017-.016.045-.031.063-.025.028-.04.064-.063.093-.043.053-.087.102-.125.157-.01.011-.023.019-.031.03-.01.012-.024.02-.031.032a.621.621 0 0 0-.063.094c-.015.027-.018.065-.03.093-.01.023-.024.042-.032.063-.033.079-.045.162-.063.25 0 .023-.028.039-.03.062-.01.03 0 .063 0 .094-.01.11-.018.217 0 .344.013.161.05.329.124.531l.375.656v.157l.906.906.344.187.813.907.28.093v.156l-.718.907-.812.718-.188-.093-.531.187-.094.031-.281.157.094.093v1.344l.187.406.188.407-.188.125-.625.406.438.531.187.25.094.125.25.188 1.437.812.094.625.281.438.188.53-.188 1v.72l-.093.28H886l-.53.095v.437l-.095.375-.875.156h-.281v.094l-.719-.093-.625-.156-.469.156-.875.281v.094l-.562.813-.625.156-.907-.063h-.156l-1.375.25h-.718v.375l.28.532v.53l-.28.47-.907.437-.062.531-.657 1.375-.156.063h-.625l-.281.469-.188.53.282.47h-.563l-.343.875-.532-.157-.468-.093.625.343.812 1.813.719.094 1.281 1.687.344-.812.468.28.875.188-.437.719-.281-.187-.875-.094-.094.906 1.156.813.72 1.812.905-.719v-.187l.625.906 2.344-.562.906.375.907-.375.53.343.438.282.282-.344.812.625.906.094.875.343-.25.469-.906.625-.812-.187-.907-.625-.437-.094-.469-.094-1.062-.437-1-.625-.907.25-.875.718-.906.094-.719 1 .344.906.719 1 .469.157.625.906-.438 1.719.719 1.437.875-.281.812-.906.094.562.906.906.813 1.344.093.156v-.875l.813-.906.625.438.531.906.906.625.094-.531-.562-.907.093-.906-.25-.875-.906-1.625-.375-1 .094-.281.906.375.625.906 1.813-.375.25-.187-.532-.875-.906.156-.25-.719-.625-.719v-.343l1.969-.532.906.438.906.625.875.906.094-.094.094-.906-.282-.625v-.906l-.343-.906-1.094-.25-.438-.72-1.25-.187v-.625l-.906-.093-.906-.625-.906-.282-.625-.53.906.093 1-.531-.813-1.625.97-.188.562.344-.47.906.72-.187.28-.875-1.718-1.72-1.156-2.062-.281-.093-.282-.813.375-.906.094-.906.188-.344.093.187.97-.812-.438.969.968.812 1.375.813.344 1.187.906-.187-.625-.375-.625-.875.875-.094 1 .437.625.907h.563l.062-.094-.625-.906h-.156l-.375-.969h.906l.907.344.812.906.344-.187-.813-.907-.906-.625-.875-.093-.469-1.625.72-.157.53.25 1-.25.907-.812 1.812.437.875-.625.719-.28.469.468 2.78.437.907.625.438.72h1l1.78-.25.188.437-2.687 1.343.25.563-.156.875.812-.875.875-.656.906-.875.907-.282.28-.28.876-.345 1.812-1.812h.907l1.625-.438 1.875.25.093-.062.282.437h.875l1-.625-.438-1-2.719-1.062-1.062-.719-.813-1.375.188-.875-.281-.656-.906-.875-.438-.907-.906-.375.906-.437.25-.625.719-.906.281-1.97.469-.28.438-.907 1.875-.187.468-2.688v-1.812l.438-.969 1.25-1.625-.875.281-.094-.187.719-.906.093-.907.438-.093v.906l.906.281.907-.094.718-.468.25-.625v-1.25h.282l.187-.72v-.53l-.625-.657-.094-.875.907-.187.968-.625v.531l.907-.531 1.156-1.344v-.031h.031l1.438-1.781.062-.907 1.813-.53.718.187.532-.907.468.813.907-.094.625-.906.093-.906.156-.25-.812-1.531 1 1.53v1.532l.719.875.906.094 1.531-.532-.906.532-.188.375h-1.78l-1.72-.282.72.375.812.72-.907.437.907.093 1.53.907.907.187 2.781-.281 1.813.437.531-.437.625 1.156-.906.469-2.781.969-1.813 1.093v.907l.719-.188.906.094.906.625.907.375.625.062.812 1.188-.469.906v.906l-.718.25.812.532h.281l.282.468h1.78l.907-.468.813-.97.906-.562 1.781-.437.188.281.906-.812.906-.375v-.438l.969-.187.906.625 2.625-.25.094-.907.969-.812-.907-.531-.875-.188-.906.531-.625-.093-1.812.562-.907-.469-1.53-1.968-.095-.188-.437-.906-.188-.719-.093-.906 1.375-.625.343-.906.438.906-1.344 1.094v.187l.907-.469 1.25-1.53.906-.438.906-.813.906-.187.907.187.875-.531.906-.281.906.375 1-1 1.781-.532.375-.375.094-.093 1.781-.25.906.062.625-.156-.093-.281-.094-1 .375-.875.906-.907.907-.28.062-.094.375-.094.438-.875c1.51.1 2.803.08 4.343.062v-.875l.344-.375-.094-.093.625-.907.094-.062v-.375h-.187l-.063.094h-.187l-.094-.094-.188-.188.375-.156-.28-.906-.907-.469v-.25l.094-.187.53-.907h.032l.875.094.375-.375-.188-.156-.187.094-.188.062-.875-.25.094-.812.969-.625.719-.907-.188-.531-.25-.375.344-.906-.625-.094-.094.094-.437.281-.907-.281-.53-.813h-.907l-.906-.875-.907.438h-.25l-.906-.531-.906-.375-.906-.25-.782-.094.063.094-.781.53h-.031l-.25-.468-.094-.062-.094-.188-.906-.375-.438-.625-.625-.906-.906-.531-.906.53h-.813l-.437.094-.188.094-.906.625-.875-.625-.562.188-.344-.438-.906-.562-.813.093-.719.47-.53-.47-.72-.906.157-.875v-.094l-.375-.812c-.02-.035-.043-.059-.063-.094l-.281-.469-.125-.156-.063-.093-.53-.625-.032-.032c-.024-.027-.038-.067-.063-.093l-.062-.157-.563-.437c-.596.215-.965.282-1.218.281-.38 0-.503-.166-.782-.312a1.512 1.512 0 0 0-.343-.125c-.283-.07-.69-.106-1.344-.032l.187-.093.282-.625h-.094l-.188-.375-.28-.907-.344-.437.28-.281h.157l.813-.875c-2.525-1.706-.756-1.902-2.125-2.875-.01-.004-.026.004-.032 0a6.99 6.99 0 0 0-.812-.469l-.906.531-.094-.25-.156-.187h-.282l-.812-.094-.531.281-.907.438h-.906l-.812-.344-.875-.094v.532l-.188.187-.719.906-.906.063-1-.344-4.009.22-1.911 2.645.357 1.563-.448.895-1.647-1.413-3.844.657-1.044-1.382-.364-.166-1.185.505-.443.832-2.117-1.521-1.814.27-.689.796-.251-.034-.009-.637-9.711-1.963-5.339.24-1.528 1.538-1.858.56Z"/><path fill="#8cce55" stroke="#0f380f" stroke-opacity=".145" stroke-linecap="round" stroke-linejoin="round" d="m950.875 443.205-.531-.813-1.782-1.281-.562-.906-1.875-.72-.719-.874-.281-1-.344-.438-.375-2.812.282-.875.906-.094-.657-.281-1.78-1.813-1-1.875-.25-1-1.376-2.406-.343-.906-.72-.906-1.905-3.688-.25-.906-.094-1-.469-.875-1.25-1.813.188-.625-.282-1.187-1.343-1.344-2.97-4.125c1.052-2.821-2.938-2.159-.187-5.125l.47 1.156.062.907.656 1.343 1.594 1.625.187 1.875.281.47.907.905.437.25.625.907.906.906.907.719.53.093.282.25-.094-.343.907-1.282-.094-.78.187-.907.72-1.719.25-1.812.374-1.157.969-1.156.187.063-.187.906h.375l1.156.187 1.188.282 1.25.156 1.187.187.969-.718v-.094l1.094-.906.718-1.157 1-.625 1.25-.28 1.157-.25h.375l.093-.188.438-.907.719-.906 1.187-.625c-.75-.823-1.556-1.675-2.344-2.531a90.922 90.922 0 0 1-2.156-2.406l.25-.282.375-.093h.188l.062-.094 1.281-.344v-.03l1.25-.345.907-.156.093-.094 1.157-.28.093-.095 1.25-.28.375-.157 1.25-.281.188-.094 1.156-.719.625-.531v-.094l-.25-.531h-.094l-1-.281v-.188l-.093-.156h.093l.188-.094.093-.093-.375-1.188-.875-3.312c2.277-1.11 4.56-2.383 6.75-3.594l.25-.188h.094l.281-.093.094-.094 1.688-.906.812-.438.281-.187v-.094l.97-1.781v-.094l-.063-1v-.812l.343-1.875.188-.188.281-1-.375-1.25-.156-.906.062-.719.282-.906 1-.531.625-.125.28-.063.282-.219 1.156-.937H975l1.375-1.344-.094-.281 1.063-.281.812-1.157.906.282.907-.282.968.282.907.343 1 .188.812-.188.625-.28.625.905-.094.375.907.094.906-.562.812-.063.094.156.094-.906-.906-.625-.094-.344-.094-.906.188-.282-.719-.437-.906-.438c.88-3.48.78-.621 0-4.25l.187-.969-.562-.656-.094-.25v-.906l-.625-1.094 1.719-.156.343-1.531.907-.188.718.531-.156-.437-1.093-.906-.375-.532-.344-.093-.094-.094-.531-.188c-1.424.42-1.559.054-2.781-.437l.156-.625-.344-.906.188-.813.343-.531.094-.188v-.28l-.094-.345-.53-1-.72-.718-1.093-.438-.094-.281-.156-.094.156-.281-.906-.531-.532-.532-.53-.093.28-.344h-1.187l-.344.719-1.812-.281h-.907l-.437.343-.469-.156-.781-.281-.094-.094-1 .906-1.25.72-.906.28-.906.532-2.438 1-.625-.375-1.969-.282-.906-.344-2.531.438-.625.375-1.782.094-2.343-.563-.375-.531-.875.531-.188-.094-.718-.343-.907-.188-.531-.25-.906-.906h-.907l-.625.531-.906-.344-.906-.906-.094-.906h-.875l-.093-.344-1.813.344-.906-.344-.813-.906-.343-.906-.282-.282-.906.625-.875.188-5.937-.438-1.813.72-3.062.905-1.25.97-2.72 1.437-.53 1-2.157.187-2.25-.625-.718.156-1.625.094-2.97-.437-.718.812h0l.188.719 1.062.719.469.187h.906l.875.344-3.313.375-.906.25.282.719.875.187-1.157.375-3.406-.187-.906.28-.375-.905-.875.156.062.906-.875.094-1.531-.719-1 .281-.906-.093-1.782 1.343-.562.907-.531.093v1.782l-.438 1 .25.093 2.875-.625h.907l-.625.907-.907.718 1.094.782-.188.906 1.188.187-.656.907-.875.093.781 1.438 1 .093-.188.25-1.78.563-.188-.188-.094-.906-.719-.906h-.437l-.094.562.531.875-.187.375-.875.344 1.594.906.718-.53.907.718 1.53.625-.437 1.344-.625.093-.187.188.812.531.094 1.094.906-.094.625.625h.438l-.719.907-.906-.282v.907l3.437-.375.875.468-.875.813-.906-.094-1.188.281-.875.25v.188l.157.094h1.281l.438-.532.718.063.907-.25-.282.906-.437.25.281.094 1.25-.906.531-.72.907.282v.531l.28.094.25-.094.282.188.906-.281.157 1 .375.812.28.281 1.157.532 1.875.343 1.813-.718.906.562.812-1.719v-1l.719-.906 1.688.188.75.093 1.78.907 1.532.53.906.72 1 1.25 1.063.562.906.25.906-.344 2.969-.531.969-.469.906-.093.375-.72.875-.905 1.625-1.063.906.188.188.25.531.093.906.532.907.187.718-.094.094-.625.719-.25.875-.656h.812l.469.906-.625.907-.906.812-.094.906.625 1.157-.719 1.187-.281.875.656.906.063 1.344-.25 1.188.437 1.625v.625l-.906.625-.531.718-.25 1.625-.563.438-.437 1.437-.907 1.625.094.282-.531.718-.094.97-.375.374-.343.906-.375 1.782-.907 2.437c-.958 2.038-3.306 4.388-5.75 3.438l-.187.25-1.063.375-.625-.375v.28l-.562-.187-.532.282.532-.47-1.344.376-.625-.531-.719-.375-.187.625-.532.187-.187-.094v.157l-.125-.125-.156-.22v-.28l-1.157-.532.438-.625h.031l.875.282-.812-.907h-.344l-1.25.438-1.719-.719h-.906l.437.188-.875.625-.562-.094-.875.375.969-.813-.907.282h-.875l-1.093 1.062.53.188-.624-.094-.438-.437-2.156 1.687-1.812.813-.813.093-.969-.531-1.906-.719-1.781-.093-.906-.72-.907.282-.906-.281-.906-.719-5.563-1.156-.906-.094-1.812.531h-.97l-.374-.375-.094-.343-.718-1.532-.875-.28h-2.813l-.906-.157-.969-.656-2.531-.25-.719-.813v-1l-.906-.625-1.875-.531-1.188-.469-1.062-.156-1.25-.094-.907.25-.812.563-1.813.156-.906.562-.968.344-1.813 1.531-.813 1-.343.97.093 1.28c1.122 2.952 1.722 3.04-1.375 6.125l-1.78.813-1 .062-2.157-1.062-2.063-1.625-3.875-1.531-2.968-.72-.907.095-1.718-.188-1.782-.812-.812-.907c-1.127-1.374-.597-3.112-1.5-3.937-.036-.033-.084-.064-.125-.094-.222-.16-.54-.284-.938-.344-.035-.005-.087.004-.125 0a4.932 4.932 0 0 0-.718-.031l-1.719-.438-.906-.718-1.438-.532-1.718-.187-1.25-.531c-4.197 1.7-4.7-.183-8.188-1.344v.344l-.094.187-.093.438v.187c-.138.421.21 2.421.187 2.781-.16.098-.308.174-.469.25l-.25.125c-.078.034-.172.063-.25.094l-.656.25-.187.094c-.021.009-.043.022-.063.031l-.719.344c-.17.115-.317.275-.468.437l-.344.438-.563.187-.187.094-.438.906-.187.188-.875.156-.188.187-.625.907.157.906.28.875.188.906v.625l-.625.906-.656.907c-.217.308-.433.63-.531.718-.152.137-.312.115-.625.188a3.966 3.966 0 0 0-.781.281l-.125.063-.72.375v.718l.095.188.718.875.532.906.375 1c.33.96.544 1.977.53 3v.031c-.01.331-.035.674-.093 1v.094l-.094.375-.156.906.094.875.062.094.375 1 .188.813-.281.625-.094.375v.062h-.094l-.344.906-.187.47v.155l.281.907.156.906.094.187.188.907.093.437-1 .906-.906.438-.531.906c.693.974 1.439 1.937 2.125 2.938.017.023.046.038.062.062.055.08.103.17.157.25l.437.719.281.875v.906l.282 1 .093.094.25.093.47.97.968.468.906-.375.906.281h.094l.25.094c.318.106.647.187.969.281.03.01.061.022.093.031l.125.032.907.28.25.095.812 1 .281.468.094.157c.015.022.048.04.063.062l.468.813c.222.423.355.787.438 1l.25.406c.027.025.058.042.094.063l.062.031.781.219c.367.072.82.168 1.532.312.301.064.606.118.906.188.058.012.127.018.187.031.409.089.737.16 1.25.281.75.186 1.193.279 1.563.375l.219.063h.093l.157.093c.273.089.482.183.656.313l.031.031.063.031.437.407.281.25.188.156c.267.237.5.441.969.813l.468.437.97.188.905-.532 1-.468.907-.532.25-.093v-.094c1.697-.685 3.052-1.459 4.687-2.156 3.132 1.545 6.238 3.1 9.344 4.656.01.004.024-.004.031 0 1.838.922 3.673 1.85 5.5 2.781 1.263.642 2.522 1.29 3.781 1.938a776.45 776.45 0 0 1 7.344 3.812c.628.331 1.248.667 1.875 1 .732.389 1.456.796 2.188 1.188.801.428 1.605.848 2.406 1.28l4.594 2.5v-2.002l4.276-.207v-9.598l29.159-.414.833-.641.166.883ZM905.094 522.83l-.813.53-.906-.093-.813-.062-.968-.47-.469-.187h-1.25l-1-.343-.344-.375-.906.28-.906 1.438a2.808 2.808 0 0 0-1 .125 2.921 2.921 0 0 0-.282.094c-.113.047-.21.1-.312.125a.91.91 0 0 1-.188.031c-.057.002-.122-.02-.187-.031a1.473 1.473 0 0 1-.344-.125 3.576 3.576 0 0 1-.437-.25 9.802 9.802 0 0 1-.563-.406c-.463.339-.914.56-1.343.75-.42.186-.84.338-1.25.469-.848.27-1.675.523-2.625 1.125l-.907-.657-1.437.094-.563.469-.625.718v.532l-.437.625-.188.281v.094l.188.03.281.063 1.344 1.157h1.781l.563.187h.78l-.53.719-.094.187-.875-.187-.906.625-1 .187v1.875l.437.282.906-.375-.437 1.906.625.906.906-.094h.188l.968.625.282 1-.907-.28-.906.28-.156.157-1-.157-1 .72-.25-.095-.656-.28.093.28-.343.625-.094.438-.094.469-.906.968c.134-.003.255.017.375.032.052.008.107.02.156.03a2.292 2.292 0 0 1 .75.313c.041.031.087.06.125.094.109.095.194.196.281.313.115.154.227.317.313.5v.03c.13.282.226.593.312.907.01.063.018.125.032.188.01.022.025.04.03.062.01.031.025.063.032.094.019.074.045.144.062.218.082.35.164.691.25 1l.344.563.188.719 1.343 1.875.625.906-1.875.906 2.063.25.812.906-.906.47-.093.624 2.78 2.156.907.25.813.657.187 1.156-2.156-.094-.907.719-2.25.625-1-.625-.53.188-1.438-.72-.625.438-.375.282-1.157-.188.438 1.906-1.063.25-.625.469-.28.156-1.72-.875-.906.813-1.25-.094-.187.969-.532.625-.437.906-.469 1.906.094 3.313-.906.562-.157.094h-.187l-.469.438-.875-.532-.281.094-.094.062.375 1-.281.907.438 1.343.187.907-.188.906.188 1.156-.344.906-.468.625-.97.438-.562.562.282 1.875.718.907.375 1h1.063l.906-.375h1.063l-.344.906-.094.812h5.75l.375.72-.094 1-.28.968-.095.375.75 1.781.063.469-.344 2.5-.094.719.094.281-.094 1.437.282.907 1.343 1.531.094.719.438 1.25v.906l.093.281v.094l-.28.437-.438.282.343 1.78v.095l1.094-.532.094-.093.344-.375.656.28.875-.187.906.188.469-.094.875-.531.906.094 1 .093.906-.656.063 1.188.093.093v1.688l-.156.906v2.438l.157.28-.094.876-.344.906-.187.719.187.906c-.248.022-.54.027-.875.031a36.19 36.19 0 0 1-1.094 0c-1.447-.022-3.208-.078-4.687-.03-.472.014-.92.048-1.313.093-.209.024-.384.059-.562.093-.159.031-.34.054-.469.094-.018 2.448.026 4.87.063 7.313v.03c.037 2.434.073 4.876.03 7.313v.094l1.157 1.969 1.094 1.094 3.312 3.25 1.282.625 3.5-.72.28.095 2.25.062.876.281.093.094 1.282 1.094-1.282.062-.875.094-.375.281-.906.719-.812-.438-1.782.97-.375.468-1.25 1.062-.468-.906-.72-.812-.343-.625c-.466.005-.919.046-1.375.093-.217.024-.44.062-.656.094-.537.075-1.067.175-1.594.281-.02.004-.042-.004-.062 0-.054.011-.104.02-.157.032l-.28.062c-1.301.28-2.59.582-3.876.781-.03.005-.063-.005-.093 0-.42.063-.83.122-1.25.157-.428.03-.85.045-1.282.03v17.75h-4.593c-.033 2.638-.03 5.262-.032 7.907v7.937c.01 3.495.02 7.005 0 10.5-.01 1.806-.035 3.603-.062 5.407l-.875.375-1.094.156-.437.906-.72.094-.093.906-.375.094h-.906l-.875-.375h-.813l-.906.187-1.812-.093-.875-.438h-1l-1-.375-.532-1.062.188-.907-.813-.812-.093-.281-.907-.157-.625.72-.375.874-.437.375-.813.625.375.906 1.157 1.782 1.093 2.812.157.906.906 2.594 1.344 2.688 1.437 2.25 1.375 1.812.344 1 .469 2.156-.094.907-.281.875-.72.718-.905-.343-.344 1 .812.53.438.907-.094.344.719.906.813 1.625-.438 1.25.156 1.25.563.656-.281-.906.375-.469.718-.093.719.187.094.813.343.531.72-.063 1 .344.187.906.343.094.907.719.906.094.875.343 2.812-1.968 1.25.093-.28-.375.905-.187 1 .281 2.688-.187 2.062-1.625h.907l.28-.063.626-.281.625.094v-.188l.187.281.907.25.187-.156.875.156.906-.343 1-.188 5.47 1.094.468-.906.344-.282h1l.906.375.906.094.531-.188-.375-.906.907-.625 1-.093 1.78.375 2.907-1.188 3.75-2.594.906-.718.375-.563.97-.531 1.905-1.719 3.344-3.594 2.406-1.875 1.625-2.093 1.25-1.97.813-1.624 1.187-1.531.094-.625 1.063-1.782 2.156-2.343h.281l.906-.47-.187-.25.906-.374.906-.906.063-.72.469-.624.343-1 .282-1.781 1.093-3.688.438-4.312-.531.875-.72-.532-.655-.906-.344-.094.906-.437.625-1.344.906-.812.625-.375.344-.438 6.844-2.531 1.812-.813 1.532-1.78.625-1.907-.907.469.625-3.594.282-.906.343-.563-.531-.967.188-2.157-.188-.906-.531.906.093.875-.468-.875.187-.906-.437-2.344-.563-1-.156-1.78.094-.376-.563-.969-1.625-1.812.563-1.906-.282-.532-.187-.906-.625-.437.906.53.532.626.718-.25 1.813-1.625 1.531-1.813.906-.53.875-.813.719.28-.063-.812.875-.187.188-.438 1.719-1.718.281-1-.375-.438.906.344.813-1.063 1.437-.906.344-.187 3.531-1.594.875-.281.657-.47h.875l.625-.25 1.53-1.187 1.813-1.062.282-.906 1.062-.532 1.906-2.812.813-.875.437-.906-.375-.625 1.094-2-.094-.875-.718.156-.094-.875-.438-.906.438-.907-.25-.906.062-.969-.343-.28.187-1.813-.719-.907.875-.625-.25-.968.094-.907-.375-.718.094-1.907-.344-.812.063-.875-.438-.656.625-.97.094-2.718-.344-.344-.281.282-.813.437-.906.813-2.25.812-.906.625-.97.188-.905.093-1.344.532-.625.625-.906-.532-.907-.281-.625.094-1.25 1.531-.906.344-.187.281-.907-.094-.906-.343-.25-.375-.906.093-.906.719h-.188l-.156.094-1.813-.72-1.718-.718-.875.719h-.72l-.187-.094H942v.719l-.281.969v.03l-.625.876-.282.906.094.906.438.907-.344.968v.032l.062.187.22.688-.095 1 .344.906.625.969v.03l.219.22.25.312.531 1.781.094.907-1.094-1.157-.625-.468-.531 1h-.281l-.625-.907.25-1.906-.875-.594v-.03l-.157-.282-.312-.594.094-1-.282-1.906-.343-.438-.094-.906-.719-.969v-.03l.281-1.157 1.063-1.813-.344-1.593-.094-.438V596.986l-.187-.907.375-1-.813-.875v-.03l-.218-.313-.344-.563-.219-1.125-.031-.218-.719-.657-.718.094-.907-.156-1.781-.719h-.375l-.719-.375h-.093v-.094l-.188-.187-.875-.063-.187-.375-1.907-.53-.437.093-.906-.906-.25.187-.375-.187-.438-.907-.375-.093-.531-.344h-.906l-.438.875h-.031l-.875-.719-.75-.344-.875.094v-.031l-.094-.25-.281-.625.531-.813-.344-.906-.906-.625-.344-.906-.375-1.781v-.032l-.625-.687-.625-.281-.28-.094-1.5-1.875-.032-.031-.625-1.781-.625-.907-.094-.812.719-.875v-.031l-.094-.875v-.032l-.625-.875-.28-.906-.157-1.531.094-.906.625-1.875-1 .437.28-.875v-.031l.25-2.781.282-.813h.281l.282.906v1l1.5 3.22v.03h.562v-.187l1.062-.531.813-1.094.531-.906.469-.344v-.375l.281-.719.344-.281.437-.531.375-.344.532-.906-.094-.282.188-.343-1.72-.094-.155-.906.437-.438h-.438l.626-1.187.906-.188.062.094v-.094l.469-1.437-.281-.438-.094-.094v-.093l.094-.438v-.812l-.094-.281-.156-.188-.094-.156v-.281l-.281-.282-.281-.062-.72-1.469h-.437l-.187.281-.094.094-1.437 1.437-.438.094-.375-.719-.437.094-.625.188c-.04-.262-.049-.524-.063-.782v-.03a9.469 9.469 0 0 1 .094-1.5v-.032c.073-.563.183-1.12.281-1.688 0-.06.027-.126.031-.187.1-.593.16-1.186.188-1.813l.094-.375-.094-.28.906-1.688.25-1.907h.031l.063-.093h.093l1-.813.438-.531.719-.344-.188-.718.656-.907-.625.907.157.718.28.969.032-1.344.688.813 1.25-1.813.906-.343.812-.907.375-.625-.28-1.531-.376.375-1.062-.812-.47-.188-.062.188-.906-.563.25-.875.469-1-.469-1.25.375-.719v-.906l.094-.281-.469.584-1.398-.6.033-1.094-1.662-.517-1.795-1.87-.027-.8-1.768.076-.887.817-2.657-.5-1.247.62-2.877-1.408-.362-.92-1.005-.407Z"/><path fill="#8cce55" stroke="#0f380f" stroke-opacity=".145" stroke-linecap="round" stroke-linejoin="round" d="m925.25 536.33.531-.532v-.187ZM889.344 359.236l.281.344 1.781.187 1.282 1.813.875.437.187-.187-.281-.907-.875-.156-.375-.906v-.906l-.907-.907h-.875l-.906-.343-.906-.625-.719-.907-.906.344-.906.719H887l.906.375.907.719ZM884.938 235.236l-.72.656-.187.156-1.875.25 1.875.72.188.25.531.655 1.906-1.156-.812-1ZM887.469 235.486v.562l.875-.28ZM887.719 238.017l-.438.813.969.187ZM884.313 238.455l-.094.03-.813.25-.906.532-.906-.187.281.906-.438.906.875.531-.25 1.813.907-1 .25-.906.906-.344h.094l.812.094 1.875-1.094.906-.344-.718-.719-.907-.468-.968.187-.907-.187ZM926.313 315.673l2.718.72-.906-.345ZM936.063 315.955h.78l.907.437.906-.437.907.718.187.813 1.063-.656 1.093 1.906.25.344 1 1.187.188.906-.719-.906-.469-.906-1.531-1.344-.875.531.156-.187.282-.875-.532.062-.375-.25-.906.25-.875-.78-.563-.095-.875-.718ZM894.656 346.798l-.906.094.469.906.156-.093ZM900.156 349.61l-.718.157-.563.469.375.187ZM896.375 350.955l-.375.093.531.907.907-.094.468-.906ZM871.969 351.86l-.907.532 1.625 1.813v-.282l-.343-.28-.375-.907ZM901.844 354.267l-.969.469-.906.906.968.156.907-.437-.344.906.906.25.875-.344ZM893.406 356.705l.438.906.437-.375ZM875.938 357.236l-.375.187.468.907-.093-1.094ZM900.781 358.61l-.906.532.438.906.187.875.438-.437.093-1-.25-.875ZM875.125 359.673l-.625.282.094.906 1.78.437-1.25-1.625ZM894.844 362.548l.812.907.063-.72ZM876.563 362.642l-.907.188.907.812ZM904.281 362.83l-.906.625.906.28.907-.718ZM895.813 363.548v.188h.906ZM898.344 366.08l-.907.53.47.907.624-.562ZM906.344 367.61l-.907.345-.437.906ZM910.656 370.11l-.875.282-.906.625-.375.906-.094.907.907-.375.812-.532.531-1.812ZM886.188 370.392l.625.906-.438-.906ZM905.813 373.798l-.375.907.28.906.282-.906ZM940.281 374.173l-.812.188-1.719.875-1.781.562-1.532.157-.906-.157-.906.532-.188.437h-1.53l-1.25.906.187.625.718.907.72.28h1.155l.625.438-.062-.343.25-.282.906-.093 1.25-.438.719-.906h1l.719-.188-.719-.812.375-.813.875-.718 1-.438.906-.719ZM889.344 374.423l-.282 1.907 3.688.343 1.813.563.093.437.281.375 1.688-.093.906-.282H901.125l.625-.625.094-.906-.907.375-1.78.344-.095-.906-.906.093-1.437-.156-.907-.375-1.25-.094-1.812.47-.344-.282-.375-.906-.875.28-1.812-.562ZM895.219 396.892l.25 1.406c-.232-.662-.395-.966-.25-1.406ZM895.625 398.798l.188.469v.469a9.178 9.178 0 0 0-.188-.938ZM929.656 400.423v.188l-.187-.063.03-.031.157-.094ZM895.531 400.673l-.156.5-.219.219ZM929.906 401.33l.063.062.593.656.22.063.03.031h.032l.062.375v.062l-.125-.125-.156-.218h-.344l-.375-.907ZM894.656 402.142l-.156.344-.031-.063.187-.281ZM894.563 402.798l.28.719-.093-.094-.187-.625ZM894.938 404.486l.156.281.093.406c-.082-.238-.148-.466-.25-.687ZM895.625 406.986l.188.656v1.156a18.584 18.584 0 0 0-.188-1.812ZM941.188 409.986l.062.719-.625 1.812.656-1.812-.093-.72ZM895.813 414.61v3.376c-.067-1.043-.03-2.19 0-3.375ZM953.781 779.236c-.329.391-.53.886-.53 1.437 0 .552.201 1.047.53 1.438Z"/></svg>