<svg width="1671.094" height="856.393" xmlns="http://www.w3.org/2000/svg" xmlns:usvg="https://github.com/RazrFalcon/usvg" usvg:version="0.8.0"><path fill="#3e73c5" fill-opacity=".429" stroke="#000" stroke-opacity=".247" stroke-linecap="round" stroke-linejoin="round" d="m1084.428 316.101.187.094h.156c-.115-.03-.23-.057-.343-.094Zm-18.908 111.406c-.867-1.089-4.319-.683-6.032-.781l-3.593-.281-3.157-.625-3.687-.188-2.875-.906-1.344-2.5-.719-3.063-2.343-1.437-5.75 1.875-4.5.719-3.157-.625-2.343-1.532-2.063-1.718-.5-.313h0l-1.844-1.218-2.875-.875-1.531-2.25-1.156-2.813-1.282-2.5-1.78-2-1.907-1.875-3.406-.469h-3.782l-.03-.03-.157-.313-1-.625-.156-.375.062-1.875-.719-.563-.906-.344v-.906l.125-1 .062-.344.469-1.093.094-.063-.47-.906-.718-1-.437-.719-.563-1.094-.875-.062-.719-.281-.187-.282-1.906-1.343-.72-.438-.437-.187h-1l.094-.907.282-.25-.907-1.53-.187-.095-.094-.28-.875-.438-1.625-1.813.281-.344.438-.812-.438-.906-.125-.282.375-.906.907.281-.282-1 .563-.875.437-.468.25-.344.094-.188h1l.094-.375-.187-.625-.625-.906.094-.812.906-.532v-.437l-1-.188-.906.094-.438-.375-.375-.437h-.156l-.187-.094-.188-.094-.187-.093-.25.187h-.375l-.094-.094v-.968l-.25-.907-.907-.562-.094-.156-.187-.188.281-.719-.375-.437-.625-.188-.094-.093.188-.907-.438-.906-.094-.156.2-.74-.906-.625-.094-.344-.094-.906.188-.282-.719-.437-.906-.438c.88-3.48.78-.621 0-4.25l.187-.969-.562-.656-.094-.25v-.906l-.625-1.094 1.719-.156.343-1.531.907-.188-.541-.822 1.094.906.156.437.812 1.188.563.625.812.531.438.625.187.469.25.093.72.157.905.28 1 .095.625.25.907-.344.718.187 1-.906.344-.531 1-.375 1.594-1.438.906-.375.906-.53.062-.126.031-.062.813-.25.03.03h.032l.906.782.812.906v.063l-.875.375.25.906.47.438-.188.468-.907.157.094.906.625.437.907.47.437.655.25.375.031.032h.094l.094.187c2.945 1.94-1.563 8.187.906-.344l.345.244h.094c-.059.39-.123.753-.094 1.156h.094v.532l.094.093v.563l.094.062v.094h.094v.656h.094v.063h.062v.468l.094.094.094.094v.156l.094.094.094.094.188.187h.062v.094h.125v.093h.062l.094.063h.093l.095.094.187.093.094.094h.156l.094.094.188.093h.094l.094.094h.343l.188.094h.812l.094.094h.813v-.094h.25v.094h-.062v.062h.156l.094.094h.281l.157.093h.28l.095.094h.187v.094h.094v.344l.094.093v.094l.031.062.031.032v.093l.094.094v.188h.094v.156h.094v.094h.094v.093h.188v.094l.187.094.062.093h.094v.188h.094l.094.062.282.094.062.094.125.093h.156l.094.094v.094h.094l.094.094.344.156h.094v.093h.187l.094.094h.094v.094h.188v.094h.062l.187.187h.094v.094h.094l.094.062h.094l.188.094h.156l.094.094h.375l.062.093h.469l.187.094h.25l.094.094h.188l.094.093h.28l.157.094h.375l.094.094h.344v.062h.281l.094.094H1021.185l.187-.094h.25l.094-.062h.188v-.094h.28l.063-.094h.281v-.093h.281l.25-.094h.188l.094-.094c.941.048.251-.133.969-.093v-.094h.468l.094-.094h.188l.156-.062h.188l.093-.094h.25v-.094h.188l.094-.093h.281l.094-.094c.407.024.115-.131.72-.094l.093-.093h.438l.093-.094h1.001v-.063h1.249l.094-.093h.157v-.094h.125v-.094h.062v.188l-.062.093h-.375V368h-.375l-.062.094h-.094l-.094-.094h-.094l-.094.094h-.375v.093h-.062l.062.094v.094h.375l.094.093h.968l.125-.093h.157v-.813h-.157v-.093l.063-.094v-.156h-.063v-.188h-.125v-.281l-.062-.094v-.344l-.093-.093v-.094l-.095-.094v-.437h-.093v-.344h.28l1.063.094 1.813-.656.437-.063.188-.187.187-.094.062-.906.907-.813.375-.437.906-.47 1.437-.53 1.157-.094.906.281h.906l.438-.094.187-.718 1.875-.375.188.187.906.281.719-.28.812.53.156.907 1.907.468.906.344 1.062.281.907.813.53-.188.907.094.625-.281.906.375.907.625.718.719.438.906.625.344.906.093.906.47 1.532 1.968 3.593.094h.188v1.78l.375.72-.281.906-.188.187.531.907v.906l-.264.613-.884 3.182-.044.751-1.414 1.105-.044.265.751 1.061-1.149.133-.574 1.193-.044 1.503.265.84 1.547.53-1.547 1.812 1.326 4.905-.265 1.017.22 2.651 3.536.619.928 1.503-.132 1.104-4.243 5.171.252-.16-.01-.01 1.718 1.876.625.906v.281l.813 1.344.062.094.375.906 1.094 1.063.906.468 1.5.344.906.906h.188l.718.438-.094.531.344 2.813-.062.25-.187.906.906.187.531-.093.906.093.157.344.094.063v.03h-.157l-.187.188-.094.375-.438 1.97-.094-.095h-1.437l-.906.282-1.282.25-.343.906-.282-.094-.25-.093-1 .656-.625.875-.094 1.094-.531.53-.281 2.345v.437"/><path fill="#8cce55" stroke="#0f380f" stroke-opacity=".145" stroke-linecap="round" stroke-linejoin="round" d="m1028.803 368.101-.062-.094-.094.094h.156Z"/><path fill="#8cce55" stroke="#0f380f" stroke-opacity=".145" stroke-linecap="round" stroke-linejoin="round" d="m1084.428 316.101.187.094h.156c-.115-.03-.23-.057-.343-.094Zm-18.908 111.406c-.867-1.089-4.319-.683-6.032-.781l-3.593-.281-3.157-.625-3.687-.188-2.875-.906-1.344-2.5-.719-3.063-2.343-1.437-5.75 1.875-4.5.719-3.157-.625-2.343-1.532-2.063-1.718-.5-.313h0l-1.844-1.218-2.875-.875-1.531-2.25-1.156-2.813-1.282-2.5-1.78-2-1.907-1.875-3.406-.469h-3.782l-.03-.03-.157-.313-1-.625-.156-.375.062-1.875-.719-.563-.906-.344v-.906l.125-1 .062-.344.469-1.093.094-.063-.47-.906-.718-1-.437-.719-.563-1.094-.875-.062-.719-.281-.187-.282-1.906-1.343-.72-.438-.437-.187h-1l.094-.907.282-.25-.907-1.53-.187-.095-.094-.28-.875-.438-1.625-1.813.281-.344.438-.812-.438-.906-.125-.282.375-.906.907.281-.282-1 .563-.875.437-.468.25-.344.094-.188h1l.094-.375-.187-.625-.625-.906.094-.812.906-.532v-.437l-1-.188-.906.094-.438-.375-.375-.437h-.156l-.187-.094-.188-.094-.187-.093-.25.187h-.375l-.094-.094v-.968l-.25-.907-.907-.562-.094-.156-.187-.188.281-.719-.375-.437-.625-.188-.094-.093.188-.907-.438-.906-.094-.156.2-.74-.906-.625-.094-.344-.094-.906.188-.282-.719-.437-.906-.438c.88-3.48.78-.621 0-4.25l.187-.969-.562-.656-.094-.25v-.906l-.625-1.094 1.719-.156.343-1.531.907-.188-.541-.822 1.094.906.156.437.812 1.188.563.625.812.531.438.625.187.469.25.093.72.157.905.28 1 .095.625.25.907-.344.718.187 1-.906.344-.531 1-.375 1.594-1.438.906-.375.906-.53.062-.126.031-.062.813-.25.03.03h.032l.906.782.812.906v.063l-.875.375.25.906.47.438-.188.468-.907.157.094.906.625.437.907.47.437.655.25.375.031.032h.094l.094.187c2.945 1.94-1.563 8.187.906-.344l.345.244h.094c-.059.39-.123.753-.094 1.156h.094v.532l.094.093v.563l.094.062v.094h.094v.656h.094v.063h.062v.468l.094.094.094.094v.156l.094.094.094.094.188.187h.062v.094h.125v.093h.062l.094.063h.093l.095.094.187.093.094.094h.156l.094.094.188.093h.094l.094.094h.343l.188.094h.812l.094.094h.813v-.094h.25v.094h-.062v.062h.156l.094.094h.281l.157.093h.28l.095.094h.187v.094h.094v.344l.094.093v.094l.031.062.031.032v.093l.094.094v.188h.094v.156h.094v.094h.094v.093h.188v.094l.187.094.062.093h.094v.188h.094l.094.062.282.094.062.094.125.093h.156l.094.094v.094h.094l.094.094.344.156h.094v.093h.187l.094.094h.094v.094h.188v.094h.062l.187.187h.094v.094h.094l.094.062h.094l.188.094h.156l.094.094h.375l.062.093h.469l.187.094h.25l.094.094h.188l.094.093h.28l.157.094h.375l.094.094h.344v.062h.281l.094.094H1021.185l.187-.094h.25l.094-.062h.188v-.094h.28l.063-.094h.281v-.093h.281l.25-.094h.188l.094-.094c.941.048.251-.133.969-.093v-.094h.468l.094-.094h.188l.156-.062h.188l.093-.094h.25v-.094h.188l.094-.093h.281l.094-.094c.407.024.115-.131.72-.094l.093-.093h.438l.093-.094h1.001v-.063h1.249l.094-.093h.157v-.094h.125v-.094h.062v.188l-.062.093h-.375V368h-.375l-.062.094h-.094l-.094-.094h-.094l-.094.094h-.375v.093h-.062l.062.094v.094h.375l.094.093h.968l.125-.093h.157v-.813h-.157v-.093l.063-.094v-.156h-.063v-.188h-.125v-.281l-.062-.094v-.344l-.093-.093v-.094l-.095-.094v-.437h-.093v-.344h.28l1.063.094 1.813-.656.437-.063.188-.187.187-.094.062-.906.907-.813.375-.437.906-.47 1.437-.53 1.157-.094.906.281h.906l.438-.094.187-.718 1.875-.375.188.187.906.281.719-.28.812.53.156.907 1.907.468.906.344 1.062.281.907.813.53-.188.907.094.625-.281.906.375.907.625.718.719.438.906.625.344.906.093.906.47 1.532 1.968 3.593.094h.188v1.78l.375.72-.281.906-.188.187.531.907v.906l-.264.613-.884 3.182-.044.751-1.414 1.105-.044.265.751 1.061-1.149.133-.574 1.193-.044 1.503.265.84 1.547.53-1.547 1.812 1.326 4.905-.265 1.017.22 2.651 3.536.619.928 1.503-.132 1.104-4.243 5.171.252-.16-.01-.01 1.718 1.876.625.906v.281l.813 1.344.062.094.375.906 1.094 1.063.906.468 1.5.344.906.906h.188l.718.438-.094.531.344 2.813-.062.25-.187.906.906.187.531-.093.906.093.157.344.094.063v.03h-.157l-.187.188-.094.375-.438 1.97-.094-.095h-1.437l-.906.282-1.282.25-.343.906-.282-.094-.25-.093-1 .656-.625.875-.094 1.094-.531.53-.281 2.345v.437"/></svg>