<svg width="1671.094" height="856.393" xmlns="http://www.w3.org/2000/svg" xmlns:usvg="https://github.com/RazrFalcon/usvg" usvg:version="0.8.0"><path fill="#3e73c5" fill-opacity=".429" stroke="#000" stroke-opacity=".247" stroke-linecap="round" stroke-linejoin="round" d="m1065.045 287.19-7.167-3.772-.303-.828 2.884-.864 1.617-1.053-1.499-2.107 1.616-1.815 1.865-.302 2.302.43.712-.72-3.859-1.366-.077-1.275.756.095.266-.563-2.636-.622.751-.009.741-.982-.99-.64 1.997-1.073.602.346 3.608.05.681.795.608-1.236 7.898-1.736 3.943.205.061-1.283 1.278-.82 3.076.016 5.548-1.407 4.102-.717 1.736-1.48.642-.926 4.55.033 2.144 1.111 1.134-.93 1.662.08-.543-1.794.188-.875.875-.812-.875-.375.343-.906v-.532l1-.437.282-.906-.375-.47-.094-.155.375-.907-.469-.906.906-.187.532-.438-.157-1 .969.188 1-.188.906-.719v-.187l-.531-.875-.906-.625-1-.813-.188-.093-.437-.907-.907.188-.53.875-.376-.531-.718-.344.28-.906.532-.907-.25.094-.094-.625-.406-.625-.25-.375.094-.094v-.156l-.094-.562.562-.97.438-1 .437-.905.563-1 .906-.063.156.156.907.72-.282.905.125 1 .875.25h.282l.906-.156.969-.094.906.438 1 .187 1 .094h.969l.906-.187v-.344l.906-.375h2.844v.062h.937l.188.032h.969c.51-.293.958-.57 1.375-.844.281-.183.49-.321.687-.469.043-.031.083-.063.125-.094.16-.123.535-.41.719-.562.264-.216.503-.43.75-.656l.562-.438.219-.344.063-.093c.694-.706 1.434-1.457 2.344-2.438l-.094-.906 1.343-1.969 1.438-.812h.906l.906-.282.375-1 .062-1.875-.156-.812.625-.906-.469-.625.47-1 .968-.72-.344-.874h.438v-.094l.187-.906.344.094.375.093.625.094.812-.094 1.907.438.906-.281.875.187h.375l.875-.344 1 .344.906-.344.906.094.25.156.47 1 .905-.28 1.875.093.907.093.906-.625 1.875-.187 1 .187 1 .813.875.094 2-.188.969.625h.906l.625-1 .562-.406 1.688-1.188.906-.562 2.063-.25 1.468 1.062.875.47 1.094-.188 1.781-1 4.97-2.157v-.906l.437-.156.468-.906h-1l-.906-.282-.625-.53-1-.095-.906-.625h-.875l-.906-.718-.188-.375-.094-.969-.344-.656.782-.969.906-.813.469-.906.875-.625v-.375l.75-.875.875-.562.468-.875-.094-.657-.28-.25.374-1-.812-.906-.094-.625-1-.344-.438-.468.907-.344 1.062-1.813.906-.812.907-.25.53-1 .282-.906-.375-.532-.438-.906.282-1-.282-.906-.906-.719-1.812.469-.97-.375-.624-.875-1.906.25h-1l.468-.906-.375-.625.282-.438.906-.812-.281-.907v-.906l-1.25-.625-.375-.906-.875-.719-1.813.094-.187-.906-1-.875.187-.907.813-.375-.72-.906-.968-.781-.375-.906.375-.72.062-1-.719-.905-1.062-.907-1.344-.843-1.625-1.032.625-.812-.094-.906.344-.907-1.156-.437v-.906l-.907-.438-.718-.906.281-.438h1.969l.718-.906v-.906h.47l.093-.094.875-.812v-1.063l-.344-.906.97-.813.905-.28-.156-.157-1.812-1-.282-.906-.156-.157-.812-.75.625-.875-2.813-.375-.156-1.812-.375-.25-.531.969-.907.562-.094-.093-.062-.094-1 .187-.906.344a10.426 10.426 0 0 0-1.812-.812c-.532-.175-.922-.243-1.25-.25h-.094c-.09 0-.202-.006-.282 0h-1.125c-.01-.003-.022.003-.03 0l-.063-.032-.656-.53a6.508 6.508 0 0 1-.406-.438 21.82 21.82 0 0 1-1.219-1.532h-.437l-1-.28-.625-.876-.344-.812.875-.625-.188-.282.907-.718.375-.375 2.78-1.594.438-.656 1-.438.907-.094.906.532.437-.157-.625-.906.438-.906-.719-1 .188-.156-.344-.907-.094-.906-.625-.906-1.906-.25-1.97-1.281-1.905-.813v-.625l.906-.531.094-1 1.875.094 1-.188.562-.625-.375-1.062.719-.907-.906-.468-1-.438h-.969l-1.812-.344-.907-.375-.25.094-1-.625-1-1.719-.062-.187v-14.875l6.552.007h12.01V.507h-69.509v32.188h11.656v84.406l-22.969 28.125v14.188l-.125-.063-.53.719-.376.281-1.437 1.438v.625l.906.344.906-.157.906.532.875.093.094.344.625.906.907.813-.813.906-.531 1-.344.969.438 1.812.906.188h2.344l-.282.875.907.906-1.907.625.375.562.97.72-.876.624h-1l-.531.813-1.906 1.062-.438 1 .188.719-.75.437-.688.375-.906.188-1.906 1.062-.907.094h-.156l-.906.906-1.813.813-.625.906-.094.531-1 .282-.437.875-.188.906-.343.812-.907.094-2.687 1.063-.813.187-.718.813-.907.718-.625.907-.375.906-.812.625-.531.906-1 .156-.532.907-1.25-1.157-.906-.093-.906.718-1.531 1.344.094.906-.907 1.532.657.906-.188.906 1.156.969-.718.906-.532 1-.375.875v.906l-.78 1.813-.126 1.625-.25.969.906.468.094.532-.375.906.375 1 .813.875-.188.719-.906 1.812.344.906-.688 1.344.062.906-1 .344-.25.281-1.812.625h-6.375l-.906.188-.97-.188-.655-.093-1.875.906-.813 1.25-1-.156-.719.062-.718 1-.97-.187-1.812.718-.28.907-.345.093-1-.187-3.968-.625-.438.906-1-.094-.906-.343-.344-.907-1.781-.28-.813.905-1-.062-.375-.031-.53.906-.907-.094-.188-.093-.875.375-.28.718.53.97 1.907 1.624v.188l-.188.53.531.188 1.813.282 1.969.062 1.093-.437.72.53.437 1-.438 1.876-.906.281-.438 1.531-.562.907.469.906 1.593.625h.907l-.532.906.094.719.532.812-.72.97.376 1.187.344.875.094.906.812 1.094.094.437.25 1.281.125.25-.813.907.875.187-.062.25-.124.906.812 1v.188l.375 1.062-.906.188-.531.906v.719h-.094l-.625.094-.375.875.468-.063.438-.281.094.437-.094.094.187.188.188.187.968.531.095.625h-.094v.282l.094.343-.094.094-.72.469-.624.875h-.907l-.968.812.625.188.531.093.375.625h.625l.344 1-.875.532-.188.437-1.718 1.813-1-.094-.72.375-.343.094.344.343v.094l.281.094v.187l.094.063.094.094h.438l.53.812.376.281v.625l-.281.625-.532.907v.093l-.375.906.375.907.188.968-1.906-.187-.157-.438.438-.906-.375-.344-.156.157-.375.281-.907-.531h-.625l-.03-.031-.063-.063h-.156l-1.531.531.625.375.437.907-.343 1.5-.094.468-.532.907-.375 1.156.094.906-.094 1.156-.718.907-.344.28-.375.25-.375.907-.156.563-.907.062-.094.906-.468 1 .187.813v.187l-.625.875-.906.719-.906.469-.407.344-.218.187-.31-.002.13.878-.633.03-.25.906-1.625 1.25-.906.188-.344.156-.625.656h-.906l-1 .532.187 1-.906.343-.906.625-1.063.563-1-.281.438.906.187.969.907 1.812-.188.281v.063l-1.156.562-.188.094-1.156.094-.906-.813v-.375l-.813-.906-1.53-1.437-.907.468-.531.438-.282 1.812-1.437.719-.438 1.875-.187 1 .094.438.531.375.469.343a5.943 5.943 0 0 1-.187.657c-.052.151-.11.25-.157.312-.117.15-.235.116-.406.188-.038.018-.081.027-.125.062a1.33 1.33 0 0 0-.25.281c-.112.15-.225.358-.375.657-.142.283-.316.631-.5 1.093l-.25.875v.719l.813.219 1.78.719-.093.25.281 1.812v.188l.344.625.187.093.281.156.25-.625v-.093l.188-.094.187.094.344.187.469.188 1.875-.094.906.719.375.625.875.812.813 1.813 1.093 1.437-.187.97-.906-.438-.969.437-.094.188.531.375.719.25.438.468.375-.093 1.375.875h-.125v.093h.187v.094h.094v.344h.094v.093l.094.094h.094v.094h.062v.094h-.156v-.094h-.282l-.093-.094h-.157v-.187h.062v-.094h-.187v.187h-.062v.094h-.188v.094l-.094.094h.281v.437l.062.094-.062.093-.094-.093v-.094l-.094-.094h-.094v-.093h-.094v.187h-.25v.094h-.094v.094h-.094v.093h.094v.25h-.094v-.093h-.094v-.25h-.094v-.094h-.094v.187l.094.094-.094.063v.093h-.188v-.156h-.093v.156l.093.094-.093.094-.063-.094v-.094l-.094-.093h-.093v-.063h-.095l-.093-.094h-.095v.094l-.093-.094-.063.094v.156h-.125l.282.094v.094l.094.093v.282h-.25v.093h-.125v.063h.125l.062-.063h.281l.094.157v.093h-.094v.094l.094.094v.093h.094v.094l.094.094-.094.062v-.062H1005.863v.156h-.094v-.094l-.093-.062v-.188l-.063-.093-.125-.094h-.062v-.094l-.094-.093v-.094h-.093l-.095-.063h-.093v.063h-.095l-.094.094h-.25v.093h-.093v.094h-.095v.187h-.187l-.094.094h.094v.094h.188v.062h-.282l-.094-.062h-.062v.062l-.094-.062v.156l-.094.094v.187h-.281v.094l.094.094v.093h.094l-.094.063v-.063h-.094v-.093h-.344v.093l-.094-.093h-.094v-.094h-.187v.188h-.188v.062h-.062l-.094-.062v-.094h-.094v.094h-.187l-.094.062v.094h-.094v-.157h-.188v.25l-.058.095v.094h.062v.094l-.062.093h-.094v-.093h-.094l-.094-.188v-.187h-.187l-.094-.094h-.25v-.156h-.094v-.094h-.094v-.094h-.282v.188h.094v-.094h.094v.188h.094l.094.062h-.094V319.695h.188v.187l-.094.094h.094v.156h-.094l-.094-.093v-.063l-.094-.093v-.094l-.094-.094v-.094l-.094-.093h-.156v.093h.156v.094l-.094.094h.094v.094l.094.093v.156h-.094v.094h-.094l-.062-.094v.188h.062v.094h-.062v.093h-.094v.344h-.531v.094h.062v.094h.094l.094-.094.094.094v.093h-.094l-.094.094v.187h-.094v.063l-.062.094v.718h-.125v-.062h-.344v.344l-.094.093v.188h-.094v.156h-.094v.281l-.062.094v.094h-.188v.093h-.094v.094h-.094v-.094h-.187l.094.094v.531h-.094v.188l-.094.094v.062l-.094-.156v-.094h-.062v-.187h-.094v-.375h-.094v.375l.094.187-.094.094-.094.094v.156h-.094l-.094-.094-.094.094-.094.093h-.094l-.062.094v.094l-.094.094h-.281l-.094.093v.157h-.156v.375h-.125v.093l.125.094v.094h-.188c-.026.423.094.093.062.625h.125v.093h.156v.063l.094.094h.188v-.094h.187l.062.094h.188l.094.093h.375l.094.094h.062v.187l.094.094v.25h.094v.094h.094v.094h.094v.093h.187v.094h.062v-.094h.125v-.093h.156v.187l.094.188v.156l.094.093v.188l.094.094.094.093.094.094h.062v.25h.125v.188l.062.093.094.094v.281h.188v.25h.094l.094.094v.281l-.094.094h-.094l-.094.062v.188l.094.094-.094.093-.094.094v.187h-.094v.094h-.062l-.125-.094v.157l.125.093v.094l.062.094v.187h.094v.094h.094v-.094h.094v-.375l.094-.093v-.344h.094v-.188h.094v-.093l-.094-.094h.094v-.25h.062v-.563l.094-.062.094-.094h.094l.097-.092h.187v.094l.062.094h.125v.062h-.125l-.062.094v.094h-.094v.093l-.094.188v.094l-.094.25-.094.187-.094.094v.281h-.094v.25h-.062v.281l.062.094h-.062v.094h-.094v.156l-.094.187v.094h.094v.719l.157-.094v-.094h.094v-.093h.094v.093h.094v.188h-.094v.094h-.094v.093h-.094v.094h-.062l-.094.094-.094.093v.063l.094.094-.094.093v.282h-.094v.53l.094.095h.094v.093h.094l.062.188h.28v.062l.095.188h.094v.093h.094l.187.094.062.094v.344l.094.093v.188h-.094v.281l.094.094v.156l.094.094h.094l.094.093h.25l.094.094v.094h.094v.094l.094.093v.156h.094v.188h.094v.094l.094.093v.094h.094l.094.094v.062l.062.094h.094v.094h.094l.188.093v.094h.094v.094l.094.093v.094l.062.094.125.062v.094l.062.094v.093l.094.094v.094l.094.094v.093h.094l.094.063.094.093v.094h.094l.062.188v.187l.094.188v.062l.094.094.094.094c.238.287.19.158.625.187v.094h.094l.062.062.03.031v.094l.095.063h.094l.094.093.062.094h.125v.094h.062l.094.093.094.094.094.188.094.062v.093l.094.095v.093h.094v.282h.156v.093h.094v.094h.094v.156h.094v.188l.094.093h.094v.094h.094v.094h.094v.156h.062v.094h.187v.093h.094v.094l.094.188v.093h.094v.094l.094.063.062.187h.125v.563h.062v.25h.094v.281l.094.187v.063l.094.093v.094h.094l.094.094v.094h.094v.093h.062v.094h.094v.094h.094v.062l.094.094h.094v.187h.094v.094h.094v.094h.344v.093l.094.094h.094v.25l-.094.094v.281l.094.094.094.094.094.062h.094v.094h.344v.093h.094v.094h.375l.062.094h.469l.094-.094h.718v.094l.094.094.062.093h.125v.094h.25v.062h.282v.094l.094.094.062.094v.093h.094v.094h.094l.094.094h.092v.156h.095c-.012.207-.01.323 0 .406v.094c.01.022.023.018.03.031v.031c.01.01.024.02.032.031.023.03.037.064.03.22l-.093-.063v-.094l-.094-.094v-.093h-.094v-.094h-.094l-.094-.094h-.094v-.094h-.438l-.094-.093h-.281v.093h-.062l-.094-.093h-.094v.093h-.094v.094h-.188v-.094l-.094-.093h-.156l-.094-.094h-.094v.094h-.094l-.094.093v.188h-.094v.094h-.25v.093h-.28v.094h-.095v.094h-.25l-.125.062h-.156v.094h-.094v.094h-.094l-.094.093-.094.094v.344h-.156v.094h-.094v.187l.062.063.03.03v.094h.063v.188l-.062.094h-.094v.062l-.094.094v.093h.094v.188h.094c-.138.146-.177.163-.188.187-.01.025.01.057 0 .25h-.094v.282l.094.093v.188h-.187v.062l-.094.094v.094h-.094l-.094.093v.282h-.094v.25l-.031.062-.031.031v.188h.062v.094l.094.093h.093v.094h.094l.094.094.094.062h.094v.188h-.094v.187h.094l-.094.094v-.094l-.094-.094h-.094l.094.094v.094l.094.094h.094v.093h-.094v-.093h-.094l-.094-.094v-.094h-.094l-.094-.094h-.157v.094l-.187.188v.812l-.094.156v.094h-.094v.469h-.094l-.094.094v.062h-.188l-.03.031-.032.063h-.187l-.094-.094h.093v-.062h-.093v-.094c.394-.014.161.07.469-.188v-.28l-.125-.095h-.25c.014-.26.016-.4-.375-.437l-.062.094-.094.093v.188l-.094.062v.375h.094v.344h-.094v.281h-.094v.188l-.094.093h-.094v.094h-.187v.344h.094v.187h.094V359.282l.094.094v.093h-.094v.094h.094c-.06.39-.123.753-.094 1.156h.094v.532l.094.093V361.907l.094.062v.094h.094v.656h.094v.063h.062v.469l.094.093.094.094v.156l.094.094.094.094.187.187h.062v.094h.125v.094h.062l.094.062h.094l.094.094.188.093.093.094h.157l.094.094.187.094h.094l.094.093h.344l.187.094h.813l.094.094h.813v-.094h.25v.094h-.063v.062h.157l.094.094h.281l.156.094h.281l.095.093h.187v.094h.094v.344l.094.093v.094l.031.063.031.03v.094l.094.094v.188h.094v.156h.094v.094h.094v.093h.188v.094l.187.094.062.093h.094v.188h.094l.094.062.281.094.062.094.125.094h.156l.095.093v.094h.093l.095.094.343.156h.094v.094h.188l.094.093h.094v.094h.187v.094h.062l.188.187h.094v.094h.094l.094.062h.094l.187.094h.156l.094.094h.375l.062.093h.47l.187.094h.25l.094.094h.187l.094.094h.281l.157.093h.375l.094.094h.343v.062h.282l.094.094h.718l.188-.094h.25l.094-.062h.187v-.094h.281l.063-.093h.28v-.094h.282l.25-.094h.188l.094-.094c.94.048.25-.133.968-.093v-.094h.469l.094-.094h.187l.157-.062h.187l.094-.094h.25v-.094h.188l.094-.093h.28l.095-.094c.407.024.115-.131.719-.094l.094-.093h.437l.094-.094h1v-.063h1.25l.094-.093h.156v-.094h.125v-.094h.062v.188l-.062.094h-.375v.062h-.375l-.062.094h-.094l-.094-.094h-.094l-.094.094h-.375v.093h-.062l.062.094v.094h.375l.094.094h.97l.124-.094h.156v-.813h-.156v-.093l.062-.094v-.156h-.062v-.188h-.125v-.281l-.062-.094v-.343l-.094-.094v-.094l-.094-.094v-.437h-.094v-.344h.281l1.063.094 1.812-.656.438-.063.187-.187.188-.094.062-.906.906-.813.375-.437.906-.47 1.438-.53 1.156-.094.906.281h.907l.437-.093.188-.72 1.875-.374.187.187.906.282.72-.282.812.532.156.906 1.906.469.906.343 1.063.282.906.812.531-.187.907.093.625-.281.906.375.906.625.719.719.437.906.625.344.907.093.906.47 1.531 1.968 3.594.094h.187v1.78l.375.72-.28.906-.188.187.53.907v.906l.188.156.625.281 1 .532.907.187.625-.281.625.375.812.719v.093l.094.532 1.063-.625h.906l.813-.625 1-.72.437-.905.188-.094-.626-.813c2.958.02 3.482-1.186 5.844-1.968l.907-.625.28-.813v-.906l.532-1 .281-.531v-.907l.875-.437 2.438-.188.53-1 .626-.718 2.25 1.187h1.094l.094-.094h.28l1.782-.093.625.187.375.438.531.375.625-.188.375-.031.782.031.468.188.625.968.375.282.25.187h.094l.907-.469.281-.53 1.344-.438.906-.282.437-.53.907.718 1 .531.437-.281.094-.156-.094-.375-.094-1c.183-.176.367-.323.532-.438.013-.009.018-.023.03-.031.075-.05.148-.054.22-.094.251-.135.495-.252.718-.28.441-.056.844.051 1.25.155.272.069.549.145.844.157l.562-.907-.125-.343-.062-.282.25-.906.469-.437 1.344-1.813 1.156-.25 1 .438 1 .906-.281.906.375.813.875-.094.094.531-.438 1.719-.094.437v.907l-.28.906.812 1.875.187.187.625.094 1.906-1.25.344-.281 1.906-.375.344-.719 2.344-1.437h2.437v.468l.188.625.875-.375.625-.156.906-.562.906.28h.094l.625-.093-.25.906.156-.187.47-.188.718.282.344-.282.531-.343-.531-.907-.282-1-.062-1.25-.468-.906-.094-.969.281-.468-.812-.97-1.157-.374-.906-.094-.906.625h-.438l-.625-.625v-.094l-.375-.906.438-.875-.25-.281-.719-.906.156-1.25-3.488.474-2.35.11-.754.995-.483-.28-1.798-.367-.25-.938-.864-.068-.263-.79-2.119 1.133-4.134-.904-3.857.158.109-2.319.461.063.646-.994 1.953-.314 2.626 1.06-.08.429 2.338-1.896 1.706-.044 1.264.597 1.624-.597.284-.423.731-.457.8.273-.091-1.215.891.48.413-.057.713-.845 1.146-.32.165-.546-2.419-.177-.212-.456-1.077-.383-.565.115-.245-1.014-.893-.106-.941-1.412-.659-.045-.091.78-.676-.019-.158 1.083-2.903-.667-.481-1.122-1.1.176-1.02-.934 4.758-3.285-1.48-.297-.676.334-.531.906-.906-.375-.25.094-.813.906-.906.719-1.875.718-.719.438-.469.469-.812.25-.438.906-1.156 1-.469.531-.343.281-.375.532.094.187v.094l.28.969h-1l-.812-.344-.187-.094-1-.625c.675-.45.68-.632.656-1.344l-1-.718h-.094l-.094.093-.906-.093-2.313.25-2-.094-.437-.969-.438-1.906-.125-.969-.969-.812h-.906l-.531-.469.344-2.875v-.906l.094-.875-.969.062-1-.875-.438-.906-.906-.906-.906-.625-.813-.907-.187-.093-.875-.094-1 .469-1 .25h-.906c-4.473-.575-5.572-.37-9.969.469-1.142-1.358-2.81-2.84-4.063-4.157l-.187-.437-.813-1-.875-.531-1.187-.625-2.25-1.344c-1.155-.551-2.152-1.371-3.313-1.906-.595-.209-2.704-1.756-3.25-1.875-.039.068-.059.129-.125.218l.032-.218a.295.295 0 0 1 .093 0c.271-.481-.024-.54.22-.97v-.28l.187-.157.187-.187.188-.188c.463-.54.627-.183.906-.187v-.156l.062-.094h.094l.094.094h.281c.494-.928 2.046-2.624 2.75-3.5l1-1 .906-.72.188-.187.969-.343.531-.907v-.093l.188-1 .906.28.906.095.906-.282.156-.343.375-.907.438-.906.469-1 .625-.156.906-.094h1l.969.531.625.813.906.625.906.906.281.906 2.563-1.125 3.781-2.343.969-.72-.25-.187-1.094-1.343-.531-1-.719-.907-.625-.25-2.25-1h-.094l.094-.906-1.719-.437-.187-.094-.719-.625-.344-.906h-.187l.188-1-.813-.875.719-.813 1.25-1.906.906-.094.094-.25-1.156-1.812-.656-.719-.72-1.813h-.874l.875-.875h.187l-1-.718-.156-1-.906.281-.375-.563-.969-.53Z"/><path fill="#3e73c5" fill-opacity=".429" stroke="#000" stroke-opacity=".247" stroke-linecap="round" stroke-linejoin="round" d="m1128.053 238.632.187.188 1 .531ZM1028.803 368.101l-.062-.094-.094.094h.156ZM1000.021 329.945h-.094v.093h.094ZM1000.303 320.132v-.156h-.188l.094.063v.093h.094ZM1000.303 319.507l-.188-.093h-.094v.093h.281ZM1000.021 319.414v-.094h-.094v-.156l.094.062h.094l.094-.062-.094-.094h-.28v-.094h-.157v.094l.062.094v.062h.094v.188h.187ZM1005.49 317.07l-.062-.094v.094ZM1006.303 316.914v-.094h-.062v.094ZM1006.584 316.976v-.156h-.094v.156ZM1006.49 316.82v-.094h-.094v.094ZM1107.771 260.507l.657.407-.25-.407ZM1015.459 311.976l-.063.063v.187h-.094v.094h-.062v-.188l.062-.093.156-.063ZM1014.615 312.257v.063h.062l-.062.093v.25h-.125l-.062.094h-.094v-.094h.094l.062-.093v-.156h-.062l-.094.062h-.188v.094h-.093v-.063l.093-.031.282-.156.187-.063ZM1013.584 312.726h.03v.125h-.093v-.062ZM1022.178 312.789v.062h-.188ZM1012.896 313.351v.031h-.062ZM1009.396 314.32l.25.062.344.063v.031h.125v.094h-.125v-.094h-.062v.187h-.094v-.187h-.094l-.094-.094h-.187l-.063-.062ZM1009.365 314.382l.094.094v.187h-.063l-.03-.28ZM1010.99 314.382v.094h-.187ZM1010.365 314.507l.094.031v.032h-.094v-.063ZM1007.865 314.757l.344.063.094.093v.188h.094l.094.094v.093h-.281v-.093h-.125l-.219-.438ZM1008.49 314.882l.062.031h.031l.157.032v.062h.093v.094l.095.094v.093h-.095l-.093-.093h-.095v-.094h-.093v-.094h-.063v-.125ZM1016.303 323.382h.156l-.156.282-.094-.094v-.094l.094-.094ZM1016.209 323.914h.094l.812.468.281.438-.187-.188h-.188v-.093h-.093v-.063h-.188l-.156-.094-.094-.093-.094-.094h-.094l-.094-.094v-.187ZM1017.553 325.007l.062.094h-.063ZM1017.646 325.164l.064.093h-.064ZM1017.74 325.289l.47.25v.093l-.47-.156v-.188ZM1023.084 340.007l.094.282h-.03l-.095-.063v-.187l.031-.032ZM1023.146 341.382l.094.031.094.313h-.094l-.094-.063-.094-.093v-.094h.094v-.094ZM1023.771 342.632l.532.657.03.062h-.03l-.062-.094h-.188v-.062l-.094-.094-.094-.094h-.094l-.094-.093v-.188h.094v-.093ZM1024.396 343.507l.063.125h-.063ZM1025.053 345.101l.156.094-.031.312h-.062v-.062h-.062v-.344h0ZM1024.553 350.632c.089.202.176.428.312.657l-.094-.094h-.187v-.281l-.094-.094v-.094l.062-.094ZM983.678 350.789c.168.038.315.061.437.062-.163.004-.3-.03-.437-.062ZM1027.459 354.539l.375.25.312.187h-.218v-.094h-.094v-.093h-.188v.093h-.094v-.187h-.125l.031-.156ZM1028.178 354.976l.28.188.438.562v.406h-.094v-.093h-.062v-.063l-.094-.187v-.094h-.094l-.094-.094-.094.094v-.281h-.094v-.094l.094-.094v-.062l-.094.062v-.062h-.094v-.094h-.062l.062-.094h0Z"/><path fill="#3e73c5" fill-opacity=".429" stroke="#000" stroke-opacity=".247" stroke-linecap="round" stroke-linejoin="round" d="M1028.459 355.601h.094v-.187h-.094ZM1026.49 355.164h.062v.25h.094v.093h-.094v-.093l-.062-.094v-.156ZM1028.99 355.882h.031l.156.188.5.437h-.312v-.093h-.094v.187h-.094v-.187h-.094v-.094h-.094v-.438h0ZM1029.709 356.539l.062.062h-.062ZM1029.803 356.632l.281.25-.03.125-.063-.062v-.094h-.094v-.094h-.094v-.125ZM1126.084 366.789l-.531.156h-.031c-.427.101-.953.293-1.688.656l-.906.438-.875-.375-.656-.063h-.157c-2.806.323-3.993.158-6.687.969l-1.344 1.187-.906.344-.625.469-1.781 1.594.28.28.876.72.469.906-.094.344.625 1-.532.53.438 1-.438.532-.093.188-.095.187-.718.344-1.625 1.812-.094.282.812.875-.187.468-.096.625-.061.375-1.563.532h-.875l-2.531-.532-.438.063-.094.094.188.906.156.187.188.344.906.656.25.875.188.188-.438.906-.906.531-.532.282h-1l-.718.187v.875l-.188.094-.094.906-.875 1-.098.094.344 2.78-.344.25-.719.907-.906.469-.531-.188-1-.53h-2.063l-.28.343-1.345.719-.906.093 1 .907v.093l-2.531.532h-.625l-.375-.094-.061-.344-.906.344-.469.187-.438.907-.906.437-.156.188-.375 1.062-.094.906c.14 1.86.18 2.726-.125 3.188-.043.066-.098.104-.156.156-.47.414-1.436.436-3.313.969l-2.437.656-.188-.094h-2.406l-.281.094-.438.063-.906.656-.906-.281-1.344-.188-1.813.094-3.593.281-.719-.187-3.156-1-3.407-1.063 1.72 1.875.624.906v.282l.813 1.343.06.094.376.906 1.094 1.063.906.469 1.5.343.906.907h.188l.718.437-.094.531.344 2.813-.062.25-.188.906.907.188.531-.094.906.094.156.343.099.063v.031h-.157l-.187.187-.098.375-.438 1.97-.094-.094h-1.437l-.906.28-1.282.25-.343.907-.282-.094-.25-.093-1 .656-.625.875-.094 1.094-.531.53-.281 2.345v.437h.375l.156.656 1.812-.718.907.156.906-.344.875-.094.906.188 1-.094 1.781.25.188-.781.906-.188 1 .25.906-.53.875.812.907.093 1-.28h2.062l.906-.345 1.25.25 1.813-.53.969-.095.906.188-.906-.438.812-.375 1.344 1.813-.156 1.062.094.563 1.781.531.719 1.781.469 1.625.718.157v.187l-.187.125.187.188v422.312h69.563V466.07l-.25.156-.813.906a.096.096 0 0 0-.03.031v.094l.343.844-.344.875v.156l-.687.406-.875.469-.188.094v-.032l-.531.188-1.281-.094a.061.061 0 0 0-.027 0h-.909a.07.07 0 0 0-.029 0 .087.087 0 0 0-.03.031.096.096 0 0 0-.032.032l-.53.875v.093l-.282.907v.03l-.469.782-.406-.719-.094-.343a.137.137 0 0 0-.031-.032.137.137 0 0 0-.031-.03.08.08 0 0 0-.031 0 .08.08 0 0 0-.031 0 .08.08 0 0 0-.031 0 .077.077 0 0 0-.027.03l-.314.438-.375.187-.594.063a.07.07 0 0 0-.03 0l-1 .469a.107.107 0 0 0-.03.03l-.625.907-.438.906a.08.08 0 0 0-.03 0v.032l-.188.875-.157.906v.031l.063.906c.01.013.019.024.03.031l.344.875v.032l-.096.28v.063a.07.07 0 0 0 .03 0l.155.375-.094.844-.093.906v.031l.28.875v.03l.188.875.188.75-.188-.092-.312-.281v-.031a.08.08 0 0 0-.031 0 .08.08 0 0 0-.031 0 .07.07 0 0 0-.03 0 .09.09 0 0 0-.028.03.09.09 0 0 0-.031.03l-.188.531v.063c.01.012.02.021.031.029.01.013.02.023.031.031a.061.061 0 0 0 .027 0h.125l.563.188h.03l.282.156c-.3 1.808-.323 2.746-.5 3.5-.145.617-.435 1.2-1.094 2.156l-.469.469-.03.219c-.026.034-.035.058-.062.093v.062c0 .017-.01.114-.03.22-.026.105-.086.244-.126.375-.08.26-.173.515-.218.625v.124l-.061.157a.098.098 0 0 0-.031.03v1l-.407.907a.11.11 0 0 0-.03.031v.094c.01.013.018.023.03.031l.782.688v2.375l.094.937-.844.406-.688-.093a.08.08 0 0 0-.03 0l-.907.28a.08.08 0 0 0-.031 0v.032a.11.11 0 0 0-.031.031l-.344.907v.374l-.719.844-.625 1a.098.098 0 0 0-.03.031l-.095.907v.03c.01.013.02.024.032.032v.031a.08.08 0 0 0 .03 0l.844.532h-.25l-.906.093a.08.08 0 0 0-.031 0l-.875.281c-.905.113-1.587.565-2.031 1.188-.15.21-.252.442-.344.687l-.125.094v.25a5.2 5.2 0 0 0-.156 1.125l-.875.813h-.031l-.875.53-.688.345-.219.093-.78-.156-.062-.031-.843-.594c-.257-.23-.868-.88-1.438-1.531a24.345 24.345 0 0 1-.781-.938c-.223-.284-.405-.525-.469-.656v-.031a.08.08 0 0 0-.031 0c-.01-.013-.017-.023-.029-.031h-.031c-.475-1.242-.977-2.493-1.063-3.782l.032.032.125.312v.031h.029v.062c.01.013.019.024.03.032a.07.07 0 0 0 .03 0 .08.08 0 0 0 .03 0 .08.08 0 0 0 .031 0 .108.108 0 0 0 .032-.031.088.088 0 0 0 .03-.031v-.969a.08.08 0 0 0-.03 0v-.031l-.438-.406v-.219a.08.08 0 0 0-.031 0 .137.137 0 0 0-.031-.031.08.08 0 0 0-.031 0h-.156v-.72c-.01-.012-.017-.022-.03-.03l-.53-1-.438-.875v-.031l-.344-.875-.281-.907-.375-.875v-.03l-.156-.876a.137.137 0 0 0-.031-.031l-.782-.875-.029-.031-.062-.22v-.218a.08.08 0 0 0-.03 0l-.72-.906-.25-.406v-.125a.137.137 0 0 0-.03-.031.137.137 0 0 0-.031-.031.07.07 0 0 0-.03 0h-.092l-.157-.157v-.125c-.01-.012-.017-.023-.029-.03l-.625-.876c-.01-.009.01-.022 0-.031-.55-.977-.892-1.675-1.281-2.719v-.03a.07.07 0 0 0 .029 0v-.122a.07.07 0 0 0-.029 0l-.062-.031v-.031l-.25-.875v-.032l-.188-.875-.28-.906-.063-.875.062-.125v-.125a.08.08 0 0 0-.03 0l-.063-.062v-.031l-.25-.844a.137.137 0 0 0-.03-.031l-.532-.875v-.031l-.219-.813.188.063a.08.08 0 0 0 .03 0 .08.08 0 0 0 .032 0 .08.08 0 0 0 .03 0v-.032a.08.08 0 0 0 .032 0v-.124a.137.137 0 0 0-.031-.032l-.594-1.03-.437-.907-.031-.031-.438-.438-.156-.281v-.125a.137.137 0 0 0-.031-.031.137.137 0 0 0-.031-.031l-.25-.188-.688-.812v-.032l-.094-.875v-.03l-.474-.938.094-.125v-.032a.107.107 0 0 0 .03-.03.137.137 0 0 0-.03-.032v-.031l-.656-.813.03-.03v-.032a.107.107 0 0 0 .032-.031v-.031a.137.137 0 0 0-.031-.032v-.03c-.45-.593-.716-.913-.875-1.157-.01-.012-.024-.051-.031-.063a1.758 1.758 0 0 1-.157-.312.913.913 0 0 1-.06-.219c-.025-.15-.027-.336-.095-.687-.056-.29-.153-.73-.343-1.313l-.096-.625-.125-.594c-.11-1.001-.234-1.988-.657-2.968h.031l.062-.907v-.03l-.343-.907-.438-.875-.188-.906-.187-.844v-.061l.188-.937v-.062a.08.08 0 0 0-.032 0l-.5-.844.06-.313v-.03l.626-.876a.096.096 0 0 0 .03-.031v-.062l-.093-.344v-.031a.08.08 0 0 0-.032 0v-.03a.08.08 0 0 0-.03 0 .061.061 0 0 0-.027 0 .08.08 0 0 0-.031 0l-.282.063a.09.09 0 0 0-.03.03l-.22.218-.156-.688v-.062l.094-.531.125.062.438.156.03.032.22.156c.01.012.019.023.03.031a.08.08 0 0 0 .032 0 .08.08 0 0 0 .03 0c.014-.008.02-.019.028-.031a.107.107 0 0 0 .03-.031v-.092l-.03-.031-.157-.25c-.01-.013-.017-.024-.029-.032l-.56-.187-.19-.063-.096-.78.062-.063v-.031a.088.088 0 0 0 .031-.032v-.03a.137.137 0 0 0-.03-.032v-.031a4.758 4.758 0 0 1-.376-.375l-.312-1.188.062-.594c.087-.344.159-.733.187-1.218.616-.938.825-1.507.813-2.094-.01-.31-.083-.608-.188-.969-.093-.324-.207-.7-.343-1.156v-.031a.08.08 0 0 0-.031 0v-.031a.08.08 0 0 0-.031 0 .08.08 0 0 0-.031 0 .08.08 0 0 0-.031 0 .061.061 0 0 0-.027 0l-.125.062-.062-.062a.137.137 0 0 0-.031-.032v-.03l-.594-.876.344-.812 1.218-.688.25-.062v-.032a.08.08 0 0 0 .031 0l.031-.062.027-.031a.08.08 0 0 0 .031 0l.031-.031.469-.22a.08.08 0 0 0 .031 0v-.03a.108.108 0 0 0 .031-.032v-.156a.137.137 0 0 0-.031-.03.137.137 0 0 0-.031-.032.08.08 0 0 0-.031 0 .08.08 0 0 0-.031 0 .061.061 0 0 0-.027 0l-.469.342h-.096c-.01.004.01.026 0 .03 0 .006-.025-.005-.029 0l-.875.157h-.03l-.907-.094-.125-.5.781-.843v-.031a.107.107 0 0 0 .031-.032v-.03a.137.137 0 0 0-.03-.032.137.137 0 0 0-.032-.031.137.137 0 0 0-.03-.031.08.08 0 0 0-.032 0 .082.082 0 0 0-.029.03h-.03l-.03.032-.687.344v-.782l.812-.312h.03l.874-.188a.08.08 0 0 0 .031 0v-.03a.07.07 0 0 0 .03 0v-.376a.12.12 0 0 0-.03-.029.137.137 0 0 0-.03-.031.07.07 0 0 0-.03 0l-.968.094h-.907l-.5-.5v-.032a.08.08 0 0 0-.03 0 .08.08 0 0 0-.032 0 .08.08 0 0 0-.03 0l-1 .438v.031a.08.08 0 0 0-.031 0v.03a.1.1 0 0 0-.03.03c.01.013.017.024.03.032v.031c.01.013.018.023.03.031l.157.063.03.03.376.75-.813.25a.08.08 0 0 0-.03 0 .1.1 0 0 0-.03.032l-.531.906a.096.096 0 0 0-.031.032v.03c.01.013.019.024.031.032.01.013.017.023.029.031l.875.344.313.812-.5.875-.188.344v.031l-.688.844h-.124a.07.07 0 0 0-.03 0c-1.82.688-3.442 2.112-5.406 1.969-.01-.004-.023.004-.03 0a10.825 10.825 0 0 1-1.282-.656c-1.19-.721-2.123-1.645-2.969-2.907l-.437-.406-.031-.031c-.011-.017-.022-.023-.03-.031h-.03l-.375-.344a.137.137 0 0 0-.031-.031.08.08 0 0 0-.031 0h-.092l-.844-.875-.875-.813-.813-.875-.312-.844.375-.375.687.782v.03a.08.08 0 0 0 .031 0c.01.014.017.024.03.032a.096.096 0 0 0 .03-.031l.875-.25h.031l.875-.094h.031l.907-.375.875-.625.906-.156v-.031h.03a.082.082 0 0 0 .03-.031l.531-.97v-.03l.469-.5.344-.375.062-.094a.07.07 0 0 0 .029 0v-.094l-.157-.437-.029-.125v-.093a.127.127 0 0 0-.03-.03.08.08 0 0 0-.032 0 .07.07 0 0 0-.029 0 .08.08 0 0 0-.03 0 .1.1 0 0 0-.032.03.087.087 0 0 0-.03.03l-.313.813c-1.537-.144-2.162.274-2.719.562-.283.147-.537.268-.937.282-.393.013-.946-.101-1.72-.375-.01-.006-.021.006-.03 0-.888-.56-1.663-.936-2.281-1.438a4.021 4.021 0 0 1-.25-.219l-1.063-1.968.844-.594.75-.531.03-.032a.08.08 0 0 0 .032 0v-.029a.08.08 0 0 0 .03 0v-.062a.137.137 0 0 0-.03-.032v-.03a.08.08 0 0 0-.031 0 .08.08 0 0 0-.031 0 .07.07 0 0 0-.03 0h-.03l-.594.062a.09.09 0 0 0-.029.031l-.908.531-.875.625-.154-.75v-.031a.08.08 0 0 0-.031 0l.65-.844.75-.093h.969l.094-1.688 1.625.094.625.156.906-.156.906.156.344.375 1.438.094.28-.188.25-.531.813-.188 1.375-.375.25.907 2-.813-.375-.437.438-.907c-.799-2.398-1.993-2.818-2.063-5.03l-.906.093-.906-.281v-.094l-.688-1.25.25-.906.094-1.063-.812-.906h-.906l-1.438-1 .094-1 .281-.875.625-.656 1.344-1.344.375-.906.531-.719.907-.719.968.188.188.281.375.906.531.25 1.906-.719 1.157-.093.906-.094.875-.344.281-.906.375-.531.906-.906.25-.907 1.188-1.25 1.781-.906.906-1.25.532-1 .468-1.25.25-.906.72-.438 1.812-.812.156-.188-.062-.625-.094-.093-.375-.188c1.802-1.31 1.588-2.557 3.25-3.25v-.156l.281-.094.156.094.188-.281-.719-.282.281-1.25.157-.187-.157-.875v-.094l-.375-.562.719-.875.906-.657.625-.25 1.532-.53v-.813l-1.532-.72-.625-.093-.906-.375v-.093l-.625-.907-.906-.343.094-.094-.188-.906-.875-.532-.375-.906h.188l.437-.906-.812-.969-.06-.281v-.094l.437-.625.907-.812-.907-.094-.812-.438.437-.718-.875-.532.06-.468.563-.907.062-.343.906-.094.906-.438 1.625.438 1.344.281 1.344.156 1.812.563.907-.375.906-.281.25.093.812-.437.907-.375.906.094.625.468.625-.718v-.094l.437-1-.062-.531.813-.47 2.875-1.593h-2.188l-2.5-.812h-.187l-1.688-1h-1.187l-.906-1-.157-.438.344-.906v-.906l-.469-.813-.78-.719-.907-.156-.563-.375-.06-.344-1.906-.468-.719-.094-.718-.25-.016-.004Zm-14.844 121.78h11.688v21.659h-11.688V488.57Zm39.5 12.563h.282l.906.438 1.781 1.281.719.719.437.906.125.625.532.25.625.906.343.813v.375l.813.969.281.906c.73.834 1.365 1.61 1.344 2.781l.187.094v-.094l.094.094.281.719-.125.906v.906l-.25.813-.375.968-.062.094-.906.719-.906.718h-.094l-1 .375h-.344l-.906.344-.438.281-.812.188-.813-.094-.906-.375-.625-.875-.187-.718-.094-.282-.157-.718-.28-.625-.188-.907.094-.281c-.405-1.869-.27-3.282-.813-5.562l.281.906h.344c-.384-.743.055-2.003.375-2.719l.188-.906-.125-.25v-.625l.375-.188.437-.906.125-.094-.375-.906.094-.875.813.25.812.094v.093h.25l-.25-.187h-.094l-.812-.531-.094.281-.907-.469v-.625Zm-42.984 67.53h10.39v15.19h-10.39v-15.19Z"/><path fill="#3e73c5" fill-opacity=".429" stroke="#000" stroke-opacity=".247" stroke-linecap="round" stroke-linejoin="round" d="M1095.115 433.82h.062l.75.75-1.562.406v-1.031l.062-.031h.062a.08.08 0 0 0 .03 0l.595-.094h0ZM1098.49 437.757c.09.068.158.155.25.219l-.218-.125-.031-.094ZM1104.615 438.757l-1.03.531-.25.032c.061-.028.126-.063.187-.094.319-.165.635-.355 1.093-.469ZM1117.71 441.945h.093v.093l-.437.094.343-.187ZM1099.928 442.57l.719.781.906.812c-.969-.718 0 0-.906-.812-.453-.406-.646-.638-.72-.781ZM1114.584 443.101l-.562.469.218-.375h.031l.313-.094ZM1116.365 444.82l1 .093a.087.087 0 0 0 .031-.03l.125-.032-.125.094-1.03-.125ZM1113.365 447.507h.125l-1.437.75-1.969.875-.781.188c1.44-.372 2.727-1.308 4.062-1.813ZM1117.334 454.976c.03.028.031.065.062.094a.107.107 0 0 0-.03.03l-.032-.124ZM1117.428 456.07a.08.08 0 0 0 .031 0v.062a.08.08 0 0 0-.03 0v-.062ZM1118.21 457.445l.03.218-.468.094.25-.25.03-.031.157-.031ZM1156.834 470.382h.5l-.812.5ZM1153.46 472.695l-1.282.906.313-.438ZM1125.522 481.945l.125.218v.032l.25.875c.01.012.019.023.03.03l.032.032-.031.125c-.01-.03-.031-.187-.031-.187l-.375-1.125ZM1126.21 484.945l.062.187h-.031l-.032-.187ZM1151.366 488.976v.062l-.094.094c.028-.049.069-.11.094-.156ZM1128.084 489.945l.594.843v.094l-.594-.937ZM1128.71 490.945l.28.281a.08.08 0 0 0 .032 0c.01.013.019.023.03.031v.031l.282.438-.625-.781ZM1133.334 500.32h.032v.093ZM1133.647 500.757l.156.156v.282l-.156-.344v-.094ZM1133.397 501.882c.159 1.038.582 2.034.969 3l-.907-1.437-.063-1.563ZM1006.866 770.351v12h18.656v-12Z"/><path fill="#8cce55" stroke="#0f380f" stroke-opacity=".145" stroke-linecap="round" stroke-linejoin="round" d="m1110.625 124.173-.906.532.468.375ZM1025.313 345.455l.25.062v-.062h-.063v-.094h-.187v.094ZM1010.625 314.392v.063h.094v-.063ZM1010.375 314.392v.125l.062.031v-.156h-.062ZM1008.469 314.83v.062h.03l.063.031v-.093h-.094ZM1150.781 158.83h1.125c-.449.032-.761.134-1.125 0ZM1008.469 314.486l.062.062.03.032h-.093v-.094ZM1008.594 314.923l.156.032v-.032ZM1007.844 315.798v.125h.03ZM1007.563 316.548v.094h.03v-.094ZM1007.593 316.642l.063.094.03-.031-.094-.063ZM1006.75 316.736v.25h.03v-.25ZM1005.437 316.986v.093h.062ZM1006.125 316.986l.062.093h.03l-.062-.093h-.031ZM1006.219 317.08v.093h.03v-.094ZM1005.687 317.704v.032h.125v-.032ZM1005.687 317.736h-.062v.062ZM1005.312 317.798v.094l.062.094h.031l-.062-.094v-.094ZM1005.406 317.986v.093h.031v-.093ZM1000.813 318.986v.062h.03v-.062ZM1000.907 319.08v.156h.03v-.157ZM1002.438 319.08v.062l.031.031v-.094ZM1002.469 319.173l.031.063h.031ZM1000.188 319.142l-.031.031.03.031.032-.031ZM1001.438 319.33v.187l.125.187-.094-.187v-.188ZM1001.625 319.704v.063h.031v-.063ZM1000.281 319.986v.156h.032v-.156ZM997.938 323.736v.375h.03v-.375ZM998.031 324.11v.157h.032v-.156ZM1017.75 325.486v.062h.094v.094h.344l-.438-.156ZM1000 329.954v.094h.031v-.094ZM1000.281 330.33v.25h.032v-.25ZM1000.188 330.767v.187c.015-.065.01-.12.03-.187ZM1000.094 330.954v.344h.031v-.344Z"/><path fill="#8cce55" stroke="#0f380f" stroke-opacity=".145" stroke-linecap="round" stroke-linejoin="round" d="M1000.094 331.298h-.031l-.063.094v.344h-.03v.03h.062v-.374l.062-.094ZM999.907 331.83v.03h.03v-.03ZM1023.688 336.08v.25h.094v.03l.094.063h.062v-.062h-.062v-.032l-.094-.062v-.188h-.094ZM1026.032 343.736l-.907.093.188 1 .375.625.875.625.906-.625-.438-.968-.03-.032-.97-.718ZM1025.219 345.267c-.01.085-.023.168-.031.25h.03v-.25ZM1033.875 345.517h.093v.094h-.031v-.031ZM1011.344 349.205v.03l.062.032-.031-.063h-.031ZM983.688 350.798c.168.038.315.062.437.063-.164.004-.3-.03-.438-.063ZM1025.406 351.923l.094.063v-.063ZM1028.125 353.08v.093h.062v-.093ZM1007.438 355.736c.032.04.058.067.062.125 0-.058-.032-.086-.063-.125ZM1007.75 356.017v.031l.094.094v.281c.018-.016.01-.011.031-.031v-.281ZM1007.75 356.736v.031h.188v-.031ZM1126.063 366.86c-.114.006-.247.041-.376.063l-.124.032h-.032c-.426.1-.952.292-1.687.656l-.906.437-.875-.375-.657-.062h-.156c-2.806.322-3.993.157-6.687.969l-1.344 1.187-.906.344-.625.469-1.782 1.593.282.282.875.718.468.907-.093.343.624 1-.53.532.437 1-.438.53-.094.188-.094.188-.719.344-1.625 1.812-.094.281.813.875-.188.469-.094.625-.062.375-1.562.531h-.875l-2.531-.531-.438.063-.094.093.188.906.156.188.187.344.907.656.25.875.187.187-.437.907-.907.531-.53.281h-1l-.72.188v.875l-.187.093-.094.907-.875 1-.094.093.344 2.782-.344.25-.719.906-.906.469-.531-.188-1-.531h-2.063l-.281.344-1.344.718-.906.094 1 .906v.094l-.625.25-1.906.281h-.625l-.375-.093-.062-.344-.906.344-.47.187-.437.906-.906.438-.156.187-.375 1.063-.094.906c.14 1.86.18 2.726-.125 3.188-.043.065-.098.104-.157.156-.469.413-1.435.435-3.312.969l-2.438.656-.187-.094h-2.406l-.282.094-.437.062-.906.657-.907-.282-1.343-.187-1.813.094-3.593.28-.72-.187-3.156-1-3.406-1.062 1.719 1.875.625.906v.281l.813 1.344.062.094.374.906 1.094 1.062.906.47 1.5.343.907.906h.187l.719.438-.094.531.344 2.812-.062.25-.188.907.907.187.53-.093.907.093.156.344.094.062v.032h-.156l-.188.187-.093.375-.438 1.969-.094-.094h-1.438l-.906.281-1.281.25-.344.907-.281-.094-.25-.094-1 .657-.625.875-.094 1.093-.531.532-.282 2.343v.438h.375l.157.656 1.812-.719.906.157.907-.344.875-.094.906.188 1-.094 1.781.25.188-.781.906-.188 1 .25.906-.531.875.812.906.094 1-.281h2.063l.906-.344 1.25.25 1.813-.531.968-.094.907.188-.907-.438.813-.375 1.344 1.813-.157 1.062.094.563 1.782.53.718 1.782.47 1.625.718.156.187.032-.187.156-.188.125.188.187.187.157h.532v.625l.906-.532.812-.093.782.812.063-.062.656-.844.75-.094h.968l.094-1.687 1.626.093.625.157.906-.157.906.157.344.375 1.437.093.282-.187.25-.531.812-.188 1.375-.375.25.906 2-.812-.375-.438.438-.906c-.8-2.399-1.993-2.819-2.063-5.031l-.906.094-.907-.282v-.093l-.687-1.25.25-.907.094-1.062-.813-.906h-.906l-1.437-1 .094-1 .281-.875.625-.657 1.344-1.343.375-.907.531-.718.906-.72.969.188.188.282.374.906.532.25 1.906-.719 1.156-.094.906-.093.875-.344.282-.906.375-.532.906-.906.25-.906 1.188-1.25 1.78-.906.907-1.25.531-1 .469-1.25.25-.907.719-.437 1.812-.813.156-.187-.062-.625-.093-.094-.376-.187c1.803-1.31 1.589-2.558 3.25-3.25v-.156l.282-.094.156.094.188-.282-.72-.281.282-1.25.156-.187-.156-.875v-.094l-.375-.563.719-.875.906-.656.625-.25 1.531-.531v-.813l-1.531-.718-.625-.094-.906-.375v-.094l-.625-.906-.907-.344.094-.094-.187-.906-.875-.531-.375-.906h.188l.437-.907-.813-.968-.061-.282v-.093l.437-.625.906-.813-.906-.093-.813-.438.438-.719-.875-.53.062-.47.563-.906.061-.344.907-.093.906-.438 1.625.438 1.344.28 1.343.157 1.813.563.906-.375.906-.282.25.094.813-.437.906-.375.906.093.625.469.625-.719v-.093l.438-1-.062-.532.813-.468 2.874-1.594h-2.187l-2.5-.813h-.188l-1.687-1h-1.188l-.906-1-.156-.437.344-.906v-.907l-.469-.812-.781-.719-.907-.156-.53-.375h-.032l-.062-.344c-1.101-.148-1.727-.341-2.25-.5l-.062-.031-.312-.031-.407-.157c-.02-.003-.04.002-.062 0-.097-.01-.18-.035-.28-.03v-.001ZM1029.281 367.986v.031h.094v-.031ZM1029.375 368.017v.031l.031.031.031.032h.093l.031-.032h-.094l-.094-.062h0ZM1029.625 367.986v.031h.375v-.031ZM1028.813 368.08v.03h.375v-.03Z"/><path fill="#8cce55" stroke="#0f380f" stroke-opacity=".145" stroke-linecap="round" stroke-linejoin="round" d="m1094.063 433.205.812.156h-.125l.125.031h-.719l-.03-.031-.063-.156ZM1105.156 438.455c-.283.023-.51.095-.718.156.418-.123.95-.197 1.718-.125a5.91 5.91 0 0 0-1-.031Z"/><path fill="#8cce55" stroke="#0f380f" stroke-opacity=".145" stroke-linecap="round" stroke-linejoin="round" d="M1104.438 438.61c-.418.123-.722.294-1 .438.278-.144.582-.315 1-.437ZM1118.969 444.236v.155c.01-.004.027.007.031 0v-.155c-.01-.006-.026.005-.031 0ZM1118.938 444.423v.031a.08.08 0 0 0 .031 0v-.03c-.01.004-.025-.005-.031 0ZM1103.438 445.86c.261.476.59.864.906 1.188a11.482 11.482 0 0 1-.906-1.187ZM1117.407 447.33v.03a.08.08 0 0 1 .03 0v-.03a.08.08 0 0 0-.03 0ZM1117.438 447.36v.032c.136.456.25.832.343 1.156.105.361.182.66.188.969 0 .147 0 .287-.031.437.027-.15.065-.29.062-.437-.01-.31-.083-.608-.188-.969-.092-.324-.207-.7-.343-1.156v-.031a.08.08 0 0 0-.031 0ZM1117.938 449.954c-.083.452-.32.953-.782 1.657-.014.242-.03.455-.062.656.032-.201.08-.414.094-.656.462-.704.668-1.205.75-1.657ZM1117.094 452.267c-.032.201-.081.39-.125.563l-.063.593.312 1.188c0 .005.027-.005.031 0l-.312-1.188.062-.593c.043-.173.06-.362.094-.563ZM1112.594 447.61c-.668.314-1.31.683-1.969 1 .659-.317 1.302-.686 1.969-1ZM1117.594 454.986v.031c.01.004.026-.005.03 0v-.031c-.01-.006-.024.006-.03 0ZM1117.625 455.048v.032c.01-.005.028.006.03 0v-.032c0-.006-.025.005-.03 0ZM1117.594 455.11v.032h.03v-.031c-.01.005-.024-.004-.03 0ZM1151.531 488.173c-.174.462-.452.983-.937 1.688.494-.718.764-1.219.937-1.688ZM1133.625 502.83c.203.698.484 1.396.75 2.062-.27-.674-.547-1.356-.75-2.062ZM1118.625 514.36a2.253 2.253 0 0 0-2.25 2.25 2.253 2.253 0 0 0 2.25 2.25c1.25 0 2.25-1.007 2.25-2.25 0-1.242-1-2.25-2.25-2.25ZM1120.5 518.736a2.253 2.253 0 0 0-2.25 2.25 2.253 2.253 0 0 0 2.25 2.25c1.25 0 2.25-1.008 2.25-2.25 0-1.243-1-2.25-2.25-2.25ZM1117.75 523.986a2.253 2.253 0 0 0-2.25 2.25 2.253 2.253 0 0 0 2.25 2.25c1.25 0 2.25-1.008 2.25-2.25 0-1.243-1-2.25-2.25-2.25Z"/><path fill="#8cce55" stroke="#0f380f" stroke-opacity=".145" stroke-linecap="round" stroke-linejoin="round" d="M1121.125 527.173a2.253 2.253 0 0 0-2.25 2.25 2.253 2.253 0 0 0 2.25 2.25c1.25 0 2.25-1.007 2.25-2.25 0-1.242-1-2.25-2.25-2.25ZM1117.688 530.923a2.253 2.253 0 0 0-2.25 2.25 2.253 2.253 0 0 0 2.25 2.25c1.25 0 2.25-1.007 2.25-2.25 0-1.242-1-2.25-2.25-2.25ZM1120.5 535.298a2.253 2.253 0 0 0-2.25 2.25 2.253 2.253 0 0 0 2.25 2.25c1.25 0 2.25-1.007 2.25-2.25 0-1.242-1-2.25-2.25-2.25ZM1119.094 541.61a2.245 2.245 0 0 0-2.25 2.25c0 1.243 1 2.25 2.25 2.25a2.254 2.254 0 0 0 2.25-2.25 2.254 2.254 0 0 0-2.25-2.25ZM1119.625 547.33a2.253 2.253 0 0 0-2.25 2.25 2.253 2.253 0 0 0 2.25 2.25c1.25 0 2.25-1.008 2.25-2.25 0-1.243-1-2.25-2.25-2.25ZM1015.75 774.267a2.25 2.25 0 1 0 0 4.5 2.25 2.25 0 0 0 0-4.5ZM1099.906 791.892l-.625 1v.906l-.281.907-.062.875.344.906-.438.906.157.906.906-.093.719-.907 1.812.532 1-.532.344.907.906.093.875-.187.281-.906-.968.468-.907-.28-.906-.907.906.187-.187-.53 2.781.093.469-.906-.813-1-.906.625-.906-.094-.907.906-.875-.187-1 .093v-.875h.906v-.906l-1.812.906-.907-.375.282-.906.531-.906-.875.187.156-.906ZM1120.063 818.455l.093 1 .907.156.906-.344-.906-.562-1-.25ZM1131.875 122.642l-1 .094-1 .344-.906.906.812-.438 1 .188.907-.094ZM1133.469 122.923l-.907.094 2.813.531-1.906-.625ZM1109 123.173l-2.688.188-1 .281-.906.438v.625l.282.625-.282.906-.343.281.343 1v-.375l1.907.281 1.874-.718h1l.876-.188 2-.906-.813-.906-1 .718-.813-.875.563-.906ZM1134 125.986l-.969.25.969.281.906-.437-.906-.094ZM1124.313 126.61l-.907.907.813.719.906.437.969.282-.188-1 .282-.907 1-.093-1.907-.344h-.968ZM1140.219 130.986c-1.452.071-1.97 1.423-3.969 2.469l.469.53 3.781-.093.906-.719.969-.375.625-.968c-1.287-.632-2.122-.877-2.781-.844ZM1100.375 179.173l.875.157.906.625.375.906.907.562h.968l.282-.656-.282-.969-1.25-.375-1 .282-.906-.532ZM1107.188 179.955l-.97.375.907.906.875.094 1-.375-1.813-1Z"/><path fill="#8cce55" stroke="#0f380f" stroke-opacity=".145" stroke-linecap="round" stroke-linejoin="round" d="m1014.502 283.642-.25.906-1.625 1.25-.906.188-.344.156-.625.656h-.906l-1 .531.188 1-.907.344-.906.625-1.063.563-1-.282.438.907.188.968.906 1.813-.188.281v.063l-1.156.562-.188.094-1.156.093-.906-.812v-.375l-.813-.906-1.53-1.438-.907.469-.531.437-.281 1.813-1.438.719-.437 1.875-.188 1 .094.437.531.375.469.344a5.942 5.942 0 0 1-.188.656c-.052.152-.109.251-.156.313-.117.15-.236.115-.406.187-.038.019-.081.028-.125.063a1.33 1.33 0 0 0-.25.281c-.112.15-.225.358-.375.656a13.05 13.05 0 0 0-.5 1.094l-.25.875v.719l.812.218 1.782.72-.094.25.281 1.812v.187l.344.625.187.094.282.156.25-.625v-.094l.187-.093.188.093.343.188.47.187 1.874-.093.906.719.375.625.875.812.813 1.813 1.093 1.437-.187.969-.906-.438-.969.438-.094.187.531.375.72.25.437.469.375-.094 1.375.875h.03l-.218-.437.344.062h.25v-.093l.094-.063.094.063h.343l-.062-.063h-.094v-.187h-.094v-.094l-.094-.094h-.094v-.093h.094v.093h.094l.094.094h.157v.062h.094v-.062l.094-.094v.094l.094.062v.125l.094.063h.03l-.03-.25v-.063h.03l.25.063.25.062h.095v-.25h.094v.094h.094v.094h.187v-.094h.062l.125.094h.062v-.094h.188v.156h.062l.125-.062v-.188h.25v-.093h.187v-.094h.094l.094-.063v-.03l.094-.063.094.062h.125l.062-.093.062-.063v-.094l.094-.093.094-.094h.094v-.094l.094-.093h.094v-.094h.094l.062-.094h.125v.281h.031l.031-.03h.031l.063-.157h.094v-.188l.094-.062.094-.094h.188v-.281h.092v.219l.064-.063v-.156h.094v-.188l.094-.062v-.031h.094v.093h.094v.032l.094.062v.031l.094-.03.28-.157.157-.063v-.125h.281l.188-.093h.062v-.094h.187v.094l.156-.063.032-.031.093-.094v-.093h.095V311.486h.062v.032h.03v.062h.063v.094h.188v-.093h.094v-.095h.094v-.062h.094l.094-.094h.531l.094-.093.094-.094h.062v-.094h.281l.094.094h.282v.094h.437l.094.093h.094l.094.094h.344v.156h.094v.094l.094.094.094.093h.094v-.187l.094-.094v-.094l.094-.062h.186v.344h-.03l-.062.093v.094l.062.094h.03l.064.093h.187v.094h.094v.063h.188v-.063h.25v-.094h.093v.094l-.062.094-.094.062h.343v.094h.095v-.094h.093v-.093l.095-.063v-.094h.156v.094h-.062v.25h.062v.094h.187v.187h.094v.094h.563l.156-.062v-.125h-.094v-.094h-.187v-.094h.625l.093-.062v-.032h.188v-.093h.094v-.063l.094-.093v-.094h.094l-.094-.094h.094v-.187h.344l.094.093h.094l.094.094.094.094h.812l.094-.094h.156l.094.094h.094l.094.093h.093l.188.157.156.093.031.032.062.062.282.188.093.187v.094l.095.093v.25l.093.188v.187c.086.175.19.334.282.5.056.102.096.213.156.313v.156l.094.281v.188l.094.094c.1.235.176.402.219.53a.929.929 0 0 1 .062.313c0 .095-.032.18-.062.313-.032.142-.066.223-.125.531v.031c0 .13-.024.263-.062.375-.085.244-.238.46-.375.688-.07.114-.137.217-.188.344v.03l-.094.157h-.03l-.063.094-.094.187v.532l-.094.093v.094h-.094v.281h-.094v.093l.094.063h.094v.094l.188.281v.281l.03.032.032.03h.03l.095.188.094.188.156.094.187.093.188-.093.062-.094h.218c.056.118.102.185.156.25.054.065.123.13.188.156.064.027.131.028.219.031a3.6 3.6 0 0 0 .312 0l.281-.093h.625l.375-.157h.157l.28-.093.095-.094.094-.094.062-.093v-.188c.097-.121.14-.216.219-.281.01-.007.02-.025.03-.031.06-.045.14-.06.313-.032l.188.094.25.063.28.187.095.094v.094l-.094.093-.094.094h-.281l-.063.094v.093l.063.157.094.093.094.094v.187l.094.25.094.094v.031l.156.157h.031l.156.093.094.094.094.188.094.062v.125l.094.062v.032l-.094.062v.281h-.094v.188h-.094l-.187.094-.25-.094h-.094l-.25-.188h-.469l-.094.094-.094.094-.25.093h-.468c-.163.016-.302-.03-.438-.03a.448.448 0 0 0-.375.187h-.094l-.156.187-.282.282-.093.062v.031l-.095.063v.375l-.094.187v.063l-.093.093v.032l-.063.156h-.03l-.157.187-.094.094v.187l-.094.063v.281l-.094.094v.094l-.094.187-.062.188-.125.062h-.156l-.094-.062v-.032l-.094-.062h-.094v-.031l-.094-.063-.094-.093v-.094l.094-.188.094-.093.094-.188.094-.156.094-.188.062-.093.094-.25v-.032l.187-.093c.088-.167.17-.339.25-.5.076-.162.148-.321.282-.469.272-.26.303-.321.343-.375.041-.054.092-.1.407-.344h.062l.094-.093h.562c.199.014.359-.014.531-.063.18-.057.356-.15.531-.219l.188-.093.094-.157v-.28l-.094-.188v-.187l-.188-.157-.094-.094h-.187l-.062.094h-.188l-.094.094h-.187l-.156.093-.188.094h-.094l-.281.063-.094.093-.157-.093h-.28l-.095-.157c-.257-.015-.389-.069-.531-.093a3.788 3.788 0 0 0-.625 0h-.031c-.165.013-.278.006-.375 0h-.031c-.202-.017-.284-.07-.438-.094a1.687 1.687 0 0 0-.312 0 4.82 4.82 0 0 1-.594 0 3.529 3.529 0 0 1-.5-.063c-.315-.066-.625-.175-1.062-.312-.375.02-.499.022-.594 0-.088-.014-.131-.037-.375-.063h-.906l-.188-.093h-.094l-.187-.094h-.094l-.094-.094h-.25l-.094.094h-.188v-.094l-.094-.093h-.437v-.282h-.094l-.094-.062v.062h-.094v.188l-.094.094h-.094l-.062.093h-.188v.188h-.187v.093h-.532v-.03l-.094-.063v-.032l-.094-.062v-.094h-.187v.25l-.094.094h-.062v.187h-.094v.094h-.093v.094h-.094v.094l-.094.062v.125l-.094.062v.094h-.094v.188h.094v.093h-.094V322.86l.094.062v.031l.094.063v.187h-.094l-.094-.093-.094-.094-.063-.063h-.188v.063h-.093l-.094.094h-.187v.187h-.094v.094h-.187v-.094h-.062v.094h-.031l-.125.25h.062v.093l-.094.094v.094l.812.469.281.437h.063v.093l.094.095.031.062h.062v.094l.063.093h.031v.032l.438.25h.28l.188.093v.063h.094l.157.094v.03l.093.063v.031l.095.063v.094h-.438v-.094h-.188v.094h-.094l-.093-.094-.063.094-.094-.094.063-.094v-.062h-.063l-.093.093h-.282v.063h-.094v.094h-.094v.093h-.094l-.094.094h-.344l-.187-.094h-.094v-.093h-.187l-.062-.094h-.094v-.093h.094v-.063h-.281v-.094h-.094v-.094h-.094v-.093h-.093v-.094h-.344v-.094h-.188v.094l-.094.094h-.094l-.094-.094h-.062l-.094.062-.03.032v-.063l-.063.063v-.094h-.187l-.094-.094h-.188v.094h-.25l-.094-.094h-.094v.094h-.187l-.062-.094h-.281l-.094-.093h-.188v.28h-.094V325.829h-.094v-.031l-.094-.063h-.03v.031l.03.063v1.062l.094.094.094.094v.094h.281v.062h.25v.031l.094.063h.282c.398-.02.405.028.437.062a.156.156 0 0 0 .063.031c.034.011.1.006.219 0h.187v.032l.031.03.031.032h.218l.063.094h.095l.28.187h.095v.094l.062.094h.03v.875h.064v.093h.187v.094l.094.094v.093l.094.094.094.094v.062h.094V329.765l.094.187v.094l.094.187.031.031.031.063v.062h.094v.094l.094.094v.094l.094.093v.188l.094.062h.094v.094h.25v.031h.031v.156h.063v.094h.094l.094.094.094.094v.25h.094v.187l.094.094v.905h-.094V333.296l-.094.063v.093l-.094.094v.281h.282v-.093h.812l.062.062v-.062h.031l.062-.094h.469v-.094h.094v.094h.094v.094h.092v.093h-.03l-.062.094v.156h.156v.031l.188.25.094.094.093.094v.281l.095.094.03.03.032.032h.03v.188h.063l.095.093h.03v.094l.063.094.094.062h.28l.095-.062h.156l.094-.094h.187v-.094h.532v.094l.094.094.094.093.094.063v.031l.094.063v.156l.094-.063h.062v-.187h.28l.095-.063v-.03h.187v.03l.094.063h.25l.031.031.062.063h.188l.094.093h.094l.062.094h.125v.187h.25v.094h.094l.094.063v.375l-.094.28v.095h-.094v-.094l-.062-.094h-.031v-.187h-.094v-.094l-.062-.031-.094-.031v.062l.094.188h.092c-.018.418.145-.03.095.812h-.094v.188h-.093v.187l-.094.062h-.093v.375l-.094.094v.093h-.094v.095l-.062.093v.063h-.125v.093h-.062v.094h-.031l-.062.094v.094h-.093v.093h-.188v.25l-.094.094v.187l.031.032.062.062.094.094-.062.062.094.282h.062v.124l.031.032.031.03h.031v.188l.062.063.031.031-.094.094v.156h-.093v.281h-.094v.094l.094.031.094.313.031.03.031.063h.031l.062.094h.125v.094h.157v.187h.094v.094l-.094.062v.282l.53.656.032.062h.062v.157l.063.125h.125v.093h.094v.188l.03.031.032.031h.03v.282h.094v.28l.063.157.03.031.063.063h.03v.313l.157.093v.031h.094v-.156l-.094-.094v-.094h-.094v-.25h-.094v-.124l-.062-.063h-.03v-.531h-.095v-.375l.094-.094v-.187h.093v-.187h.094v-.25h.094v-.188l.094-.094v-.094l-.094-.187.094-.063v-.187h-.094v-.094h-.375l-.063.094v.094h-.093c.022-.437-.072-.297.157-.532.01-.01-.012-.02 0-.03l.093-.063v-.094h.032l.062-.094v-.094l.093-.093v-.094h.094v-.187h.094v-.094l.095-.063v-.093l.093-.188v-.093h.063v-.094h.187v-.093h.188v-.095h.094v-.062l.093-.094.063-.093h.124l.063-.094h.187l.094.094h.281v.093h.157l.094-.093h.03l.063-.094h.187l.094-.094h.625c.419-.19.528-.223.594-.187.033.014.053.043.094.062.04.02.107.04.219.031h.28v.032l.032.03.03.032h.094l.094.094h.094v.093h.094l.094.094v.094l.094.093v.25l-.094.094v.438h.094v.03l.062.063.03.032v.062h.093v.188l.063.093.094.094h.03v.156h.063v.656c-.01.154-.01.249 0 .313.018.128.072.11.094.187.016.039.01.092 0 .22h.094v.155h.094v.094h.094l.125.063.03.03h.094l.094.094v.094h.094v.094l.094.094h.094v.093h.062l.094.063.03.031.063.062h.094l.03.032.063.062h.187v.031l.094.063.157.094h.123l.063.093.094.094h.03l.157.094.094.062v.094h.187v.124l.031.032.031.031h.125l.062.094v.187h.188l.094.094h.187v.094h-.094v.062h.062v.031h.031v.157h-.093v-.063h-.094v.063l.094.093.062.094h.031v.094h.094v.375l-.094.062h-.03l-.063.063v.124l-.094.063v.031h-.156v.063h-.031v.031h-.094v.093h-.25v.063h-.375v.094h-.188l-.062-.094.031-.03.031-.032v-.125h.094v-.062h-.094v-.032l-.094-.062-.062.062-.03.032-.063-.094v-.094h-.094v-.031l-.094-.063h-.094v-.062h-.156v.062h-.093v.063h-.031v.031h-.156v.156h.094v.282h.092v.187l.095.063v.28h.531v.095h-.031v.03h-.25v.063h.188v.094h-.75v-.094h-.156v-.093h.093v-.157h-.187l-.094.063v.031h-.532v.063h.188v.093l-.188.094-.093.094h-.095l-.187-.094h-.25l-.094.094h-.094v.093h-.094v.094h-.094v-.031l-.094-.063h-.281l-.062.063v.031h-.094v-.031l-.094-.063v-.187l.094-.094v-.062h-.188v-.094h-.094v-.281h-.094v-.094l.094-.094v-.093h-.094V346.479l-.094-.062-.062-.094h-.094v.063h-.03v.031h-.063l-.094.156v.188h.094v.187l-.094.063-.094.093v.032h-.094l-.094.062v.031h-.187l-.062-.093h-.094v-.032l-.094-.062h-.094v-.344h-.094l-.094.063v.187l-.062.063-.031.03h-.344v-.093l.094-.094v-.062h-.094c-.013.259-.418.257-.625.25h-.031v-.188l-.062-.093-.094-.063v-.093h.156v-.094h-.156v-.094h-.094v-.094h-.094v-.25h-.094v-.03l-.094-.063v-.094l-.156-.187v-.094h.062l-.25-.156h-.062l.062.062v.188h.094V346.167h-.094v.157h-.094c.01.177-.034.22-.063.28v.032c-.028.072-.053.202-.031.5h-.156v.281h.156v.157l-.094.093v.094l-.094.094-.094.093-.063.094v.094h-.093v.187h-.094l-.094.063v.375h-.094v.343h.094l-.031.032-.063.062v.188h-.094v.28h.094v.157h.094v.281h.094v.188h.094l-.094.093v.187l-.031.063c.089.202.176.429.312.657.01.013.023.018.031.03.01.01-.01.024 0 .032h.062v.093h.156v.094l.094.094v.094l.094.062v.094h.095v-.094l-.094-.25v-.28h-.094v-.063h-.095v-.125h.188v-.093h.094v.124l-.094.062v.094l.094-.062.094.062h.156v-.094h.094v.094l.094-.062v-.032h.188v.188l.094-.094h.092v.063l.095-.063v-.093h.343v.093h.094l.094.094h.094l.062.094h.188l.094-.094h.187v-.094h.094v.094h.094v-.094h.187v.094h-.093v.094l.094.062h.156v.218h-.062v.25h-.03l-.063.094v.094h-.093v.093l-.094.063v.032h-.062l.031.062.031.031h-.062l.062.063.094-.063v.438h.093v.093h.25v-.093h.093v.093l.094.063v-.156h.094v.343l.062-.062.031-.031v.093h.094v.032l.094.062.094.094v.094h.25v.093h-.28v-.062l-.064.062.063.094h.031v.062h-.03v.032h-.095v-.094h-.062v-.094h-.187v.187h-.094v.094h-.094v.063l-.094-.063h.062l-.031-.03h.062v-.157h.094v-.25h-.094v-.094h-.094v-.093H1028v.093h-.062v.063l.062.093v.094l-.062-.094h-.125l-.062.094h-.656l-.094.094h-.157v-.281l.094-.063v-.124h.063v-.157l.03-.031.063-.063h.094l.094-.093h-.343v.25l-.094.093v.125l-.094.063v.093l-.094.094-.157.164v.094h-.031v.031h-.063v.063l-.031.03-.062.063v.125h-.094v.25l.187.25v.094l.094.094v.28h.062v-.093l.094-.062v-.125h.094v-.157h-.187v-.124h.187v-.063l.094.063h.188v.093h.406l.031-.125v-.031l.375.25.313.188v.03h.03l.282.157v.031l.437.531v-.124l.094-.063v.25h.094v.094h-.063v.03l.157.157.5.438h.03v.062l.063.031h.03v.031l.282.25v.032l-.031.093v.032h.125v.093h.062v-.093h.125l-.031.03-.094.063v.188h-.062v.093h-.031l-.062.094v.25h-.031v.031H1030v.25l-.094.094v.094h-.094v.187h-.094v.188h-.094c.01.162.01.28 0 .343-.01.084-.014.108-.031.125-.012.016-.023.003-.031.032a.532.532 0 0 0 0 .187v.188l.062.093v.344h.094v.219l.094.062v.031l-.094.063v.469a.85.85 0 0 1-.031.375c-.028.098-.062.173-.062.312v.031h-.062v.438h-.093v.969l.094.093v.563l.062.156v.375l.094.094v.375l.094.093v.094l.094.062v.47h.281l1.063.093 1.812-.656.438-.063.187-.187.188-.094.062-.906.906-.813.375-.437.906-.469 1.438-.531 1.156-.094.906.281h.906l.438-.093.187-.72 1.875-.374.188.187.906.282.719-.282.812.532.157.906 1.906.469.906.343 1.063.282.906.812.531-.187.906.093.625-.281.907.375.906.625.719.719.437.906.625.344.906.093.907.47 1.53 1.968 3.595.094h.187v1.78l.375.72-.281.906-.188.187.532.907v.906l.187.156.625.281 1 .532.906.187.625-.281.625.375.813.719v.093l.094.532 1.062-.625h.907l.812-.625 1-.72.438-.905.187-.094-.625-.813c2.957.02 3.481-1.186 5.844-1.968l.906-.625.281-.813v-.906l.532-1 .28-.531v-.907l.876-.437 2.437-.188.532-1 .625-.718 2.25 1.187h1.093l.094-.094h.282l1.78-.093.626.187.375.438.531.375.625-.188.375-.03h.188l.343-.032.157.062h.094l.468.188.625.969.375.28.25.188h.094l.907-.468.28-.532 1.345-.437.906-.281.437-.532.907.72 1 .53.437-.28.094-.157-.094-.375-.094-1a4.34 4.34 0 0 1 .531-.438c.013-.009.018-.023.031-.03.074-.051.148-.055.22-.095.251-.135.495-.252.718-.28.441-.056.844.051 1.25.155.271.07.549.145.844.157l.562-.907-.125-.343-.062-.282.25-.906.469-.437 1.344-1.813 1.156-.25 1 .438 1 .906-.281.906.375.813.875-.094.094.531-.438 1.719-.094.438v.906l-.281.906.812 1.875.188.188.625.093 1.906-1.25.344-.281 1.906-.375.344-.719 2.344-1.437h2.437v.468l.188.625.875-.375.625-.156.906-.562.906.281h.094l.625-.094v.031l1 .75.094.032.344-.282.531-.343-.531-.875v-.032l-.062-.25-.223-.717v-.031l-.062-1.156v-.094l-.469-.875v-.094l-.094-.906.282-.438v-.03l-.813-.97-1.156-.374-.907-.094-.906.625h-.437l-.625-.625v-.094l-.375-.906.437-.844v-.031l-.25-.281-.718-.907.156-1.218v-.032l-3.49.488-2.35.11-.754.995-.483-.28-1.798-.367-.25-.938-.864-.068-.263-.61-2.119.953-4.134-.904-3.857.158.109-2.32.461.064.646-.994 1.953-.314 2.626 1.06-.08.428 2.338-1.895 1.706-.045 1.264.598 1.624-.597.284-.423.731-.457.8.272-.091-1.214.891.48.413-.057 1.859-1.164.765-.547-3.019-.177-.212-.456-1.077-.383-.565.115-.245-1.014-.893-.106-.941-1.412-.659-.045-.091.78-.676-.02-.158 1.084-2.903-.667-.481-1.122-1.1.176-1.02-.934 4.758-3.285-1.48-.297-.674.32-.532.907-.906-.375-.25.093-.812.907-.907.718-1.875.72-.718.437-.47.468-.812.25-.437.907-1.156 1-.47.53-.343.282-.375.531.094.188v.094l.281.968h-1l-.812-.343-.188-.094-1-.625c.675-.45.681-.633.657-1.344l-1-.719h-.094l-.095.094-.906-.094-2.312.25-2-.093-.438-.97-.437-1.905-.125-.97-.97-.812h-.905l-.532-.468.344-2.875v-.907l.094-.875-.968.063-1-.875-.438-.906-.906-.907-.907-.625-.812-.906-.188-.094-.875-.093-1 .468-1 .25h-.906c-4.472-.574-5.571-.37-9.968.47-1.143-1.358-2.81-2.84-4.063-4.157l-.188-.438-.812-1-.875-.53-1.188-.626-1.5-.906.031.062v1.72l-.063.093v.187l-.093.063v.094l.093.187v.531c-.083.191-.109.32-.156.47-.039.149-.115.319-.312.53-.097.09-.22.16-.344.22-.123.066-.246.14-.375.155v.25l.094.094v.094l.062.156.031.031-.094.063v.03h-.094v-.124l-.094-.062-.094-.094-.156-.188h-.031l-.094-.093-.094.093-.094.094-.062.094h-.281v.093h-.187v-.062l-.063.062-.094-.093h-.124l-.063-.094-.094-.094h-.186v-.53l-.157-.095h-.031l-.063-.093h-.031v-.094l-.062-.094-.188-.062v-.031l-.094-.063-.094-.094v-.03l-.03-.032-.032-.031h-.03v-.188l-.064-.093h-.03v-.094l-.063-.094h-.03v-.094c-.016-.02-.02-.043-.032-.062-.033-.047-.076-.085-.094-.125v-.031c-.02-.054-.054-.104-.062-.156v-.032c-.01-.054-.015-.12-.03-.187v-.031c-.022-.074-.072-.147-.126-.25V325.518l-.094-.093v-.282l.094-.062v-.031l.094-.063v-.187h.094l.062-.094v-.094h.031l.062-.093h.031l.062-.094v-.156h.094v-.188h.031l.062-.093v-.188l.094-.094.094-.093v-.094l.094-.063v-.187l.094-.094v-.093h.062v-.094l.094-.094v-.531h.031l.062-.094v-.094l.031-.03c-.317-.19-.631-.408-.968-.563-.344-.12-1.178-.677-1.938-1.156l-.094.062h-.093l-.157.188v.093l-.094.063v.093h-.094v.094h-.094v.188l-.094.062v.563l.094.093v.094l.094.063v.187l.094.094h.092v.093h.093v.094h-.03l-.156.188-.094.062v.031l-.094.063v.125h-.094l-.094.062v.094l-.157.187v.375l.063.063h.187v-.093h.094l.094-.063v-.032h.156v-.093l.094-.063v-.187h.124l.063.093h.031v.094h-.187v.094l.062.062.03.032v.093l-.093.063v.093h-.187l-.094.094v.281h.094v.625h.25l.094.094.094.063v.125h-.062l-.031-.032-.063-.062-.031-.031v-.063h-.093l-.062.094-.094.062v.032h-.188v-.188l-.094-.094h-.094l-.062-.062v.062h-.03l-.095.094h-.062v.093l-.094.094v.094l.094.063v.093l.094.094.062-.094v-.093h.187v.28l-.156.188v.094l-.094.094v.094l-.094.156-.094.093v.094h-.03l-.063.094-.094.062-.094.094v.031h-.062v.094l-.187.062h-.125l-.157.094H1050.373l-.062-.094h-.031l-.062-.062h-.094v-.031l-.094-.156v-.562l.094-.063v-.032l.062-.093.187-.157v-.187l-.062-.094h-.03v-.187l-.063-.063-.03-.031-.063-.094v-.062l-.094-.188v-.093h-.094v-.625l.094-.094v-.094l.094-.093v-.094h.062v-.094l.094-.156v-.281h.093v-.188h.094v-.094h.094v-.093l.094-.063v-.469l.094-.093v-.156l.094-.094v-.094l.094-.094.062-.093.094-.188h.094v-.093l.094-.094h.094v-.063l.094-.187v-.094l.094-.094-.062-.062-.03-.031.093-.094v-.156l.062-.094.125-.094v-.093l.062-.094h.094v-.219c-.146-.076-.322-.169-.406-.187-.039.068-.059.129-.125.218l.031-.218a.295.295 0 0 1 .094 0c.27-.48-.025-.54.219-.969v-.281l.187-.157.188-.187.187-.188c.463-.54.628-.183.907-.187v-.156l.062-.094h.094l.094.094h.28c.495-.928 2.046-2.624 2.75-3.5l1-1 .907-.719.188-.188.968-.343.532-.907v-.093l.187-1 .906.281.907.094.906-.282.156-.343.375-.907.438-.906.468-1 .625-.156.907-.094h1l.968.532.625.812.907.625.906.906.281.907 2.563-1.125 3.78-2.344.97-.719-.25-.187-1.094-1.344-.531-1-.72-.906-.624-.25-2.25-1h-.094l.094-.907-1.719-.437-.187-.094-.72-.625-.343-.906h-.187l.187-1-.812-.875.718-.813 1.25-1.906.907-.094.094-.25-1.157-1.812-.656-.719-.719-1.812h-.875l.875-.875h.188l-1-.72-.156-1-.907.282-.375-.562-.968-.532-.378-.082-.634 1.424-7.018-3.693-.3-.828 2.882-.864 1.617-1.052-1.498-2.108 1.616-1.814 1.865-.303 2.3.43.713-.721-3.859-1.365-.076-1.276.756.096.266-.564-2.637-.621.752-.008.74-.983-.99-.64 1.998-1.073.601.346 3.608.049.682.797.607-1.239 7.898-1.734 3.944.205.06-1.283 1.28-.82 3.076.015 5.547-1.406 4.102-.717 1.736-1.48.64-.926 4.551.033 2.145 1.111 1.135-.93 1.66.08 2.672 2.241-2.18-4.043-1.033.008.187-.875.875-.812-.875-.375.344-.907v-.53l1-.438.281-.907-.375-.468-.094-.157.375-.906-.468-.906.904-.188.533-.437-.158-1 .97.187 1-.187.905-.719v-.187l-.53-.875-.906-.625-1-.813-.19-.094-.435-.906-.906.188-.533.875-.375-.532-.717-.343.281-.907.532-.906-.25.094-.096-.625-.407-.625-.25-.375.096-.094v-.156l-.096-.563.563-.968.437-1 .438-.907.562-1 .907-.062.156.156.906.719-.281.906.125 1 .875.25h.281l.906-.156.97-.094.905.438 1 .187 1 .094h.97l.905-.188v-.343l.907-.375h2.843v.062h.938l.187.031h.97c.51-.292.957-.569 1.374-.843.282-.183.491-.322.688-.47.043-.03.083-.062.125-.093.16-.123.534-.41.718-.562.265-.217.503-.43.75-.657l.748-.232-.187-.188.162-.279.062-.094.062-.093c.694-.706 1.434-1.457 2.344-2.438l-.094-.906 1.344-1.969 1.437-.812h.906l.907-.282.375-1 .06-1.875-.156-.812.625-.906-.468-.625.468-1 .969-.719-.344-.875h.438v-.094l.187-.906.344.094.375.093.625.094.813-.094 1.906.438.906-.281.875.187h.375l.875-.344 1 .344.906-.344.907.094.25.156.468 1 .907-.28 1.875.093.906.094.906-.625 1.875-.188 1 .188 1 .812.875.094 2-.188.969.625h.906l.625-1 .563-.406 1.687-1.188.906-.562 2.063-.25 1.468 1.062.876.47 1.093-.188 1.782-1 4.968-2.157v-.906l.438-.156.468-.906h-1l-.906-.282-.625-.53-1-.094-.906-.625h-.875l-.906-.72-.188-.374-.094-.969-.344-.656.782-.969.906-.812.469-.907.875-.625v-.375l.75-.875.875-.562.468-.875-.094-.656-.28-.25.374-1-.812-.907-.094-.625-1-.343-.438-.47.906-.343 1.063-1.812.906-.813.906-.25.532-1 .28-.906-.374-.531-.438-.907.282-1-.282-.906-.906-.719-1.812.469-.97-.375-.624-.875-1.906.25h-1l.468-.906-.375-.625.282-.438.906-.812-.281-.906v-.907l-1.25-.625-.375-.906-.875-.719-1.813.094-.187-.906-1-.875.187-.907.813-.375-.72-.906-.968-.781-.375-.906.375-.719.062-1-.719-.906-1.062-.907-1.344-.843-1.625-1.032.625-.812-.094-.906.344-.907-1.156-.437v-.906l-.907-.438-.718-.906.28-.438h1.97l.718-.906v-.906h.47l.093-.094.875-.812v-1.063l-.344-.906.97-.812.905-.282-.156-.156-1.812-1-.282-.906-.156-.156-.812-.75.625-.875-2.813-.375-.156-1.813-.375-.25-.531.969-.907.562-.094-.093-.062-.094-1 .187-.906.344c-.743-.41-1.323-.652-1.813-.812-.531-.175-.921-.243-1.25-.25h-.093c-.09 0-.202-.006-.282 0h-1.125c-.01-.003-.022.003-.03 0l-.063-.032-.656-.53a6.508 6.508 0 0 1-.406-.438 21.82 21.82 0 0 1-1.22-1.532h-.437l-1-.28-.625-.876-.343-.812.875-.625-.188-.282.906-.718.375-.375 2.782-1.594.437-.656 1-.438.906-.094.907.532.437-.157-.625-.906.438-.906-.72-1 .188-.156-.343-.907-.094-.906-.625-.906-1.907-.25-1.968-1.281-1.907-.813v-.625l.907-.531.094-1 1.875.094 1-.188.562-.625-.375-1.062.719-.907-.906-.468-1-.438h-.97l-1.812-.344-.906-.375-.25.094-1-.625-1-1.687-1.875.187-.906.438-.906.906-.875-.188-.657 1 1 .282.907-.282h1l.875.907-.062.875-2 .656h-.907l-1.875-1.281-1.28-.625-.97.093-1.906.532-.875.468.156.907.72 1.875 1.812 1 1 .343.875.094 2 1.094.875.156 1-.531 1 .625.906.187-.188.907 1 .906-.187.875.906-.156h.969l.906-.563-.906.813-1.969.28-.906-.374-.969-.156-.562-.907-.875-.812-3.157-.281-.375 1-.094-.907-.968-.25-2.813.063-.969-.438-1.812-.437-1-.469v-.906l.906-.438-.094-1-.875-.875-.187-.906.187-1 .813-.344 1.062-2.812-.719-2.688.094-1-1.093-.718-.907-.344-.875.093-.281.875.813.907.343 2.781-.062.906-.625.906-.906.532-1.188.562-3.687 1.156-.906.438v.906l-.625.906-.907.813-.53.906 1.874.969.657.906.343.906 1 .907.096.906 1.782 1.687.093.907-1.343 1.906-1 .781-.625 1.906.094.188-.282.906-.625.969c.733 2.195 2.752 1.632 1.094 4.5l.719 1 1.875-.531 1 .156.906.375.969-.188 1.906-1 1-.343.906.281h.875l1.907.625 1.78.25.907.906 2.781.719.75.906.25.906v.907l.907.875.53.906.188.906-1.875.344-.906.906-.187 1.906.28.907 1.876.156.187.187 2.875.72.907-.345.906.72-.906-.188-1 .093-.282.157-.968-.157-.907.157-1.343-.063-2.782-1.437.25-.907-.375-1 .125-.906.625-.906-.75-.875.375-.906v-.907l-.906-.28-.906-.876-.875-.562.094-.875-.813-.907h-1.812l-3.875.813-3.688 1.156-.437 1 .156.906-.531.875 1.719 1.72.53 1.905-.093 1.063-.344.906-1.812 1.344-.97.531-.75 1-.25 1.813-.437.968-.906.375-.906.813-1.875.625-.906.719-1 .093-.907.625-.25 1.875-1.625.657-.906-.188-1-.625-.969-.187-1.812-.094-2.875.281-2.688-1-1.906-.437-.906-.47-.344-.968-.656-.812 1.812-.188.907.281 1.875-.375.187.375.906.72.907.062 1.875-.782h.094l-.375.25.187.907.906.437 1.813-.812.969.28-.157-.905-.562-.97-.906.063-.875.563h-.188l.906-.563 2.782-.718 1-.625.531-.875-.344-.907.875-.187.906-.438v-.906l1.438-1.187 1.906-.72v-.905l.25-.97-.531-.905.094-.907 1.531-1.875.907-.187-.282-.906-1.812-1.157-1.875-1-.907-.906-.53-1.781.718-1-.281-.906.281-.907-.281-.875.187-1 .344-.906-.688-1.344.157-.906-.25-.906v-.969l.906-.625.344-.906-.469-.906.75-1.907-.625-.875-.281-.906-.813-1-1.906-.969-.813-1-.25-.906 1.813-1 .625-.969-.094-.906.906-.531.156-.719.532-.906.812-1.906-.25-.97-.094-1.812-.531-.906-2.813-.719-.875.094-1-.719-.906-.187-.969.187-4.78-.093-2.97.187 1-.437-1-.375v-.002l-1 .093-.343 1-.907.875-.625 1-.375.907-.25 1.781-1.375 3.687-1.062 1.813-2.875 2.062-2.813 1.282-.968.625-1.094 1.781 1-.625-.094.906-1 .906.531.907 1.906-.563.907.469-.47 1.875.095.906-.719 1.875.906.906-.28 1h-1.25l-.438.094-.47 1.875.095.906.812 1-.343-.906.875-.437.906.437 1 .094.906.625.969.437 1-.156v.875l-.281.906.625.907 1.718 1.906.907.344 1-.344.968.062-.968.563.25.875-.875 1.812-.813.907v1l-.187-.094-1 .719-.907-.563-.156-.875-1.906-.906-2.781-1.813-.438-.906-1.906-.344-1.813-.812-1.875-.531-1-.47 1-.093-1.906-.344-1.75-.75-.125-.062-.531.719-.375.281-1.438 1.437v.625l.907.344.906-.156.906.531.875.094.094.344.625.906.906.812-.812.907-.531 1-.344.968.437 1.813.907.187h2.343l-.28.875.905.907-1.906.625.375.562.969.719-.875.625h-1l-.531.812-1.907 1.063-.437 1 .187.719-.75.437-.687.375-.906.188-1.907 1.062-.906.094h-.156l-.906.906-1.813.813-.625.906-.094.531-1 .281-.437.875-.188.907-.344.812-.906.094-2.687 1.062-.813.188-.719.812-.906.72-.625.905-.375.907-.812.625-.532.906-1 .156-.53.906-1.25-1.156-.907-.094-.906.72-1.532 1.343.094.906-.906 1.531.656.907-.187.906 1.156.969-.719.906-.53 1-.376.875v.906l-.781 1.813-.125 1.625-.25.968.906.47.094.53-.375.907.375 1 .813.875-.188.718-.906 1.813.344.906-.688 1.344.062.906-1 .344-.25.281-1.812.625h-6.375l-.907.188-.968-.188-.657-.094-1.875.907-.812 1.25-1-.157-.719.063-.719 1-.968-.188-1.813.72-.281.905-.344.094-1-.187-3.969-.625-.437.906-1-.094-.906-.344-.344-.906-1.781-.281-.813.906-1-.062-.375-.032-.531.907-.906-.094-.188-.094-.875.375-.281.72.531.968 1.907 1.625v.187l-.188.532.531.187 1.813.281 1.968.063 1.094-.438.719.532.438 1-.438 1.875-.906.28-.438 1.532-.562.906.468.907 1.594.625h.906l-.53.906.093.719.531.812-.718.969.375 1.187.343.875.094.907.813 1.093.094.438.25 1.281.125.25-.813.906.875.188-.062.25-.125.906.813 1v.188l.375 1.062-.906.188-.532.906v.719h-.094l-.625.093-.375.875.47-.062.437-.281.094.437-.094.094.187.187.188.188.968.531.094.625h-.094v.281l.094.344-.094.094-.718.468-.625.875h-.907l-.968.813.625.187.53.094.376.625h.625l.344 1-.875.531-.188.438-1.719 1.812-1-.093-.718.375-.344.093.344.344v.094l.28.094v.187l.097.063.094.093h.437l.532.813.375.281v.625l-.282.625-.53.906v.094l-.376.906.375.906.188.97-1.907-.188-.156-.438.438-.906-.375-.344-.157.156-.375.282-.906-.532h-.625l-.03-.03-.063-.063h-.156l-1.531.531.625.375.437.906-.344 1.5-.093.469-.532.906-.375 1.156.094.907-.094 1.156-.718.906-.344.281-.375.25-.375.907-.156.562-.907.063-.094.906-.468 1 .187.812v.188l-.625.875-.906.719-.906.468-.407.344-.218.188Z"/></svg>