<svg width="1671.094" height="856.393" xmlns="http://www.w3.org/2000/svg" xmlns:usvg="https://github.com/RazrFalcon/usvg" usvg:version="0.8.0"><path fill="#3e73c5" fill-opacity=".429" stroke="#000" stroke-opacity=".247" stroke-linecap="round" stroke-linejoin="round" d="m1197.094 411.955-1.782.812-.374.375-.095.094-.812 1.062-.969 1.25-.812.907v.187l-.094.188-.094.187-.719.781.531.907.563.156.156.031.906.531.625-.156 1.063.344.187.093.906.344.094-.062.188-.094h1l.875-.625.906.062 1.25.375.906-.093h.094l.532-.188.906.282.906-.532 1.063.344h.812l.906-.25.188-.281-.469-1.25.375-.813-.906-.625-1.063-.187-.28-.469.187-.875.094-.906-.907-.281h-.187l-1-.438-.875.531h-.094l-.281-.281-1.813-.156h-.437l-.532-.094-.187-.906-.906-.281h-.532ZM1189.555 420.414l-.282.562.72.25.187.375-.72.344-.374.562-.531.344-.282.906 1.532 1.344v.281l.562.532.969-.094 1.094 1.187-.282.532h-.906l-.187-.094h-1.25l-.188.906v.188l-.625.437-.344-.375-.468.906.094 1.282c1.306.61.574-.02 1.625.875h.094l.812.093h.188l.187.375v.25h-.125v.907l.125.187-.469.438-.343.906.25.469.718.437.094.094-.187.625.812.719-.25.812v.094l.062.437.188 1.438.094.093-.094.375.281.72.094.25.25.718v.25a.08.08 0 0 0-.03 0 .114.114 0 0 0-.03.031.087.087 0 0 0-.03.031l-.157.25-.313.47-.062.03a.08.08 0 0 0-.03 0 .107.107 0 0 0-.032.032.087.087 0 0 0-.03.03v.281a.08.08 0 0 0 .03 0v.032l.344.25.094.125.062.063-.062.125-.312.593-.25-.406a.07.07 0 0 0-.03 0v-.031a.08.08 0 0 0-.03 0 .08.08 0 0 0-.031 0 .08.08 0 0 0-.031 0 .087.087 0 0 0-.031.031.096.096 0 0 0-.031.031v.031l-.282.407-.343-.282.094-.656.187-.875.094-.375v-.062c-.01-.013-.017-.024-.029-.031a.137.137 0 0 0-.03-.032.08.08 0 0 0-.032 0 .08.08 0 0 0-.03 0 .096.096 0 0 0-.032.032.08.08 0 0 0-.03 0l-.22.062.031-.344v-.062a.137.137 0 0 0-.03-.031.08.08 0 0 0-.032 0 .08.08 0 0 0-.03 0h-.095a.08.08 0 0 0-.03 0 .09.09 0 0 0-.03.03l-.28.47a.107.107 0 0 0-.032.03v.72l-.062.906v.25l-.062.375v.094l-.094.156.063-.219a.107.107 0 0 0 .031-.031.16.16 0 0 0-.03-.031l-.095-.25-.094-.563v-.031a.08.08 0 0 0 .031 0v-.031a.137.137 0 0 0-.03-.031l-.063-.25a.137.137 0 0 0-.03-.032c-.01-.012-.018-.023-.03-.03a.08.08 0 0 0-.03 0 .08.08 0 0 0-.032 0 .08.08 0 0 0-.03 0 .096.096 0 0 0-.032.03v.032a.08.08 0 0 0-.03 0v.03l.061.345v.03l-.03.032a.107.107 0 0 0-.032.031l-.094.563-.062-.157a.137.137 0 0 0-.03-.03.07.07 0 0 0-.03 0l-.25-.095a.08.08 0 0 0-.03 0 .08.08 0 0 0-.032 0 .08.08 0 0 0-.03 0 .096.096 0 0 0-.032.032l-.437.125c-.113-.288-.191-.554-.188-.72.01-.3.115-.465.188-.655.072-.191.118-.437-.062-.72-.01-.01-.055-.02-.062-.03l-.282-.282c-.211-.244-.392-.484-.906-.906a.08.08 0 0 0-.03 0 .08.08 0 0 0-.032 0 .07.07 0 0 0-.029 0 .08.08 0 0 0-.03 0 .107.107 0 0 0-.032.031v.125a.08.08 0 0 0 .031 0l.875.906-.469 1.063-.312.437c-.02.02-.044.043-.062.063-.329.336-.636.583-.969.75-.172.086-.34.156-.531.219l-.281.062-.062.031c-.504.137-1.09.252-1.844.438a.087.087 0 0 0-.031.031l-.906.906a.096.096 0 0 0-.031.032l-.438.906a.09.09 0 0 0-.029.031.12.12 0 0 0 .03.03l.25.843v.062l-.095.844v.031c.01.013.02.024.031.032l.25.375a.08.08 0 0 0 .031 0v.03l.125.095-.125.093-.906.625v.031a.08.08 0 0 0-.031 0v.032l-.188.906v.125l-.812.344a.08.08 0 0 0-.031 0 .097.097 0 0 0-.031.03l-.5.844-.969-.593a.07.07 0 0 0-.029 0 .137.137 0 0 0-.03-.031.08.08 0 0 0-.032 0 .088.088 0 0 0-.03.03.097.097 0 0 0-.032.032v.094c.01.012.02.023.031.03l.563.563-.625.563-.438.156-.906.25-.906.281-.5.125-.563-.719v-.03a.08.08 0 0 0-.03 0 .08.08 0 0 0-.032 0 .08.08 0 0 0-.03 0 .08.08 0 0 0-.032 0l-.906.718a.091.091 0 0 0-.03.031l-.405.969-.031.031a.097.097 0 0 0-.031.031v.032c.01.012.019.023.03.03.01.013.02.024.032.032.01.013.018.023.029.031a.08.08 0 0 0 .03 0 .096.096 0 0 0 .032-.031.08.08 0 0 0 .03 0l-.718.844c-1.143 1.108-2.052 2.41-3.125 3.687l-.906.875-.688.563v-.031l-.906.468-.531.344a.088.088 0 0 0-.031.031l-.875.813a.08.08 0 0 0-.031 0l-.782.875-.03.03-.157.063a.091.091 0 0 0-.029.032v.124l-1.75 1.188-.906.437v.032l-.656.375v389.812h69.435V606.702h-5.912v-6.375h5.912v-57.26l-4-6-3.957-2.43.526-.862 5.968 2.806 1.81-3.097-2.38-2.176-2.154-1.553-3.174-2.877-2.026-2.566-2.222-3.817 1.209-1.105 4.597 3.27 3.05-.114 1.173.2 1.408-.372v-18.369l.157-.094 2.062-1.437 1-.094.844-1.25.969-.937-.157-.844v-.031l.157-.875v-.031l-.157-.625-.094-.938.5-.594a.08.08 0 0 0 .031 0l.625-.906v-.062l.125-.657.061-.312V493.38l-.06-.562.31-1.094a.096.096 0 0 0 .03-.031v-.031a.137.137 0 0 0-.03-.031c-.01-.013-.017-.024-.03-.032a.08.08 0 0 0-.03 0 .137.137 0 0 0-.031-.03.096.096 0 0 0-.031.03l-.062.032-.656.406.062-.719v-.906l.343-.469v-.093l-.187-.407.094-.156v-.094a.08.08 0 0 0-.031 0l-.406-.437.25-.875v-.031l.187-.25v-.123a.08.08 0 0 0-.03 0 .137.137 0 0 0-.032-.031.07.07 0 0 0-.029 0h-.125l-.219-.813-.096-.906v-.031l-.437-.969-.281-.72v-.032l-.532-.875-.28-.875v-.031l-.188-.875v-.031l-.094-.188a.137.137 0 0 0-.031-.031.08.08 0 0 0-.031 0 .08.08 0 0 0-.031 0 .08.08 0 0 0-.031 0 .1.1 0 0 0-.03.031l-.124.188v.062l.094.781v.031l-.064.47-.188-.47v-.062l-.094-.875-.187-.906-.157-.531-.28-.844v-.063l.28-.843v-.062a.137.137 0 0 0-.03-.032c-.01-.013-.018-.023-.03-.031l-.937-.656.094-.5v-.032l-.094-.28-.188-.845v-.03l.094-.876v-.031l-.094-.906-.096-.438-.187-.906v-.031l-.344-.875v-.031l.096-.47v-.593l.344-1.031h.062v-.031a.08.08 0 0 0 .03 0v-.125a.137.137 0 0 0-.03-.031.08.08 0 0 0-.031 0 .137.137 0 0 0-.031-.032h-.281l-.062.032-.344.156h-.156l-.875-.313-.03-.03-.406-.845v-.03l-.25-.657v-.906l-.03-.063-.126-.125-1.28-1.344-.032-.062a.08.08 0 0 0-.03 0 .127.127 0 0 0-.032-.03.08.08 0 0 0-.03 0 .08.08 0 0 0-.032 0v.03a.08.08 0 0 0-.03 0v.031a.07.07 0 0 0-.03 0v.063l.186.656v.062l-.25.75a.1.1 0 0 0-.03.032v.03a.07.07 0 0 0 .03 0v.032l.158.219-.344.875v.562l-1.625 1.219-.719-.656-.062-.063.062-.656v-.093a.08.08 0 0 0-.03 0 .137.137 0 0 0-.032-.032.08.08 0 0 0-.03 0 .08.08 0 0 0-.032 0l-.187.094a.096.096 0 0 0-.031.03l-.062.063-.188.094a.107.107 0 0 0-.03.031v.094l.095.187.188.532.063.218v.063l-.219.75-.844-.094a.08.08 0 0 0-.03 0 .087.087 0 0 0-.032.031.08.08 0 0 0-.03 0l-.5.625-.032.032-.656.125a.08.08 0 0 0-.031 0 .09.09 0 0 0-.029.03.096.096 0 0 0-.031.032v.031l-.156.75-.157.438-.03.03-.813.845h-.656l.313-.844v-1a.08.08 0 0 0-.031 0v-.031a.08.08 0 0 0-.031 0 .08.08 0 0 0-.031 0 .08.08 0 0 0-.031 0 .07.07 0 0 0-.03 0v.031l-.187.156a.096.096 0 0 0-.031.032v.062l-.25.469-.5.593.031-.375.281-.718v-.125a.137.137 0 0 0-.03-.031.08.08 0 0 0-.032 0 .08.08 0 0 0-.03 0h-.032l-.187-.094a.08.08 0 0 0-.031 0 .08.08 0 0 0-.031 0 .08.08 0 0 0-.031 0 .09.09 0 0 0-.03.031.107.107 0 0 0-.03.031l-.25.813-.344.812-.437-.218.25-.813v-.062a.08.08 0 0 0-.031 0v-.031a.137.137 0 0 0-.031-.032l-.062-.03.437-.782.031-.031v-.094a.137.137 0 0 0-.031-.031.08.08 0 0 0-.031 0 .137.137 0 0 0-.031-.031.09.09 0 0 0-.029.03l-.062.032-.594.313v.03a.08.08 0 0 0-.03 0l-.095.094a.137.137 0 0 0-.03-.03.08.08 0 0 0-.032 0 .08.08 0 0 0-.03 0 .08.08 0 0 0-.032 0 .08.08 0 0 0-.03 0l-.563.468.187-.625.096-.531.188-.906v-.062a.137.137 0 0 0-.031-.032.137.137 0 0 0-.031-.031.08.08 0 0 0-.031 0h-.156l-.031-.063a.08.08 0 0 0-.031 0 .127.127 0 0 0-.031-.03.08.08 0 0 0-.031 0 .07.07 0 0 0-.03 0 .083.083 0 0 0-.03.03.096.096 0 0 0-.031.031v.5l-.5.625-.22.22-.5.843-.75.156.095-.75.094-.875v-.031l.344-.969.375-.906v-.031c.032-1.394.568-2.457.812-3.844v-.061c-.51-.817-.587-1.437-.656-2.062-.05-.46-.121-.95-.375-1.5a3.874 3.874 0 0 0-.313-.563c0-.005-.03.005-.03 0-.148-.735-.314-1.215-.5-1.53-.189-.319-.365-.474-.5-.626a.865.865 0 0 1-.25-.562c-.025-.27.022-.677.187-1.375v-.062a.137.137 0 0 0-.031-.032l-.094-.094a.137.137 0 0 0-.031-.03.07.07 0 0 0-.03 0 .08.08 0 0 0-.03 0 .107.107 0 0 0-.031.03l-.125-.062v-.093a.137.137 0 0 0-.031-.032l-.594-.562v-.032l-.062-.875a.08.08 0 0 0-.03 0v-.03a.137.137 0 0 0-.032-.032.07.07 0 0 0-.029 0 .08.08 0 0 0-.03 0l-.47.062-.5-.843-.03-.031-.876-.625h-.03l-.063-.313a.137.137 0 0 0-.03-.031.137.137 0 0 0-.032-.031l-.156-.094a.07.07 0 0 0-.029 0 .08.08 0 0 0-.03 0 .08.08 0 0 0-.032 0v.031h-.03l-.563.156a.08.08 0 0 0-.031 0 .08.08 0 0 0-.031 0v.032a.08.08 0 0 0-.031 0l-.125.218h-.125l.062-.812a.096.096 0 0 0 .03-.031v-.062a.137.137 0 0 0-.03-.032.137.137 0 0 0-.031-.031.08.08 0 0 0-.031 0 .08.08 0 0 0-.031 0l-.407.062.438-.718v-.125a.07.07 0 0 0-.03 0v-.031a.08.08 0 0 0-.03 0 .08.08 0 0 0-.031 0h-.031l-.156-.407v-.03l.094-.25v-.094a.08.08 0 0 0-.031 0 .137.137 0 0 0-.031-.032.08.08 0 0 0-.031 0 .07.07 0 0 0-.03 0 .107.107 0 0 0-.03.032.087.087 0 0 0-.031.03l-.094.282-.313.937-.25.47-.281-.313.219-.282v-.124l-.188-.344v-.031l-.625-.844v-.031a.137.137 0 0 0-.031-.031.137.137 0 0 0-.031-.032.08.08 0 0 0-.031 0 .096.096 0 0 0-.031.032.08.08 0 0 0-.031 0 .1.1 0 0 0-.029.03v.063l.094.5v.031l-.064.563-.375-.625a.07.07 0 0 0-.029 0l-.781-.875-.031-.031-.438-.875h.031l-.281-.844v-.062a.137.137 0 0 0-.031-.032.137.137 0 0 0-.031-.03.08.08 0 0 0-.031 0 .08.08 0 0 0-.031 0 .087.087 0 0 0-.031.03c-.01.004-.026-.005-.031 0l-.25-.53v-.188l.188-.907.875.094 1.093.344v-.156l-.281-.907.094-1.812-.094-.438-.156-1.968-.531-2.438-.188-.187-.187-.907.094-.906-.094-.156-.438-1.344v-.656h-.469l-.531.375-.562-.188.094.907-.532.437-.187.281v.907l-.438.906-.625.062-.375-.968-.625.437-.531-1.875-.375-.906.375-.906.281-.813.344-.437h.906l.344-.563.188.188h1l.156-.907h.187l.813-.875.437-1.375v-.343l.563.187.437-.094-.25-.625v-.187l-.906-.531-.906-.282-1.531.282-.282.062-1.781-.437-1.437.28h-2.344l-.813-.28h-.187l-1-.344-.344-.094-.531-.375.096-.187v-.25l.094-.375v-.094l.06-.063v-.093l-.06-.469-.094-.188v-.25l-.096-.187.187-.438.062-.187h-.156l-.094-.094.188-.281-.47-.437-.28-.438-.25.531-.813.344h-.531l-.906-.625-.094-.969-.532-.187-.468-.188.468.75.094.157h-.281l-.188-.282-.625-.093h-.094l-.281.093-.062-.343-.906-.813-.094-.094-.438-.375-.03-.002Zm16.716 61.78h11.626v33.788h-11.625v-33.787ZM1107.755 568.662h10.392v15.189h-10.392Z"/><path fill="#8cce55" stroke="#0f380f" stroke-opacity=".145" stroke-linecap="round" stroke-linejoin="round" d="M1117.1 571.557a2.099 2.099 0 1 1-4.198 0 2.099 2.099 0 0 1 4.197 0ZM1113.251 575.93a2.099 2.099 0 1 1-4.197 0 2.099 2.099 0 0 1 4.197 0Z"/><path fill="#8cce55" stroke="#0f380f" stroke-opacity=".145" stroke-linecap="round" stroke-linejoin="round" d="M1115.35 575.405a2.099 2.099 0 1 1-4.197 0 2.099 2.099 0 0 1 4.197 0ZM1189.563 420.423l-.063.157-.218.406.719.25.187.375-.719.344-.375.562-.531.344-.281.906 1.531 1.344v.281l.563.531.968-.093 1.094 1.187-.281.531h-.906l-.188-.093h-1.25l-.188.906v.187l-.624.438-.344-.375-.469.906.094 1.281c1.306.612.574-.018 1.625.875h.094l.813.094h.187l.188.375v.25h-.126v.906l.125.188-.468.437-.344.907.25.468.719.438.094.094-.188.625.813.718-.25.813v.094l.062.437.187 1.438.094.093-.094.375.282.719.094.25.25.719v.25a.08.08 0 0 0-.031 0 .121.121 0 0 0-.031.03v.532l.094.563.468.53h.438l.375-.812v1l.531-.562v-1.969l.344 1.438v-.907l.281-.718-.281 1.812v.438l.281.53.188-.78.968.156-.343-.875.343-1.719.625-.281-.531.906.281 1.438.625-.813-.375.813.657-.438.437-.562-.187.375-.25.187-.282.344.188.469.719.25.437-1.25.094-.72v.907l.906-.812v-.907l-.625-.28.157-.876-.532-.375.657-.812-.282-.625.282-.094.343-.906-.281-.25-1.344-.657.094-.062.906.25.094-.906.25.093.47-.156.25.25h.187l-.438 2.438.344.437.375.906.719.907h.343l.625-.907h1l.625-.625.094.907.75.906.375.875.344.094.281-.25-.187.25-.094 1 .375 1 .625 3.687.906 1.344.062-.813c.01-.005.025.004.031 0 .01-.006.026.005.031 0 0-.005-.01-.027 0-.03l-.25-.5v-.188l.188-.907.875.094 1.093.344v-.156l-.28-.907.093-1.812-.094-.438h-.03l-.157-1.968-.531-2.438-.157-.187h-.03l-.188-.907.094-.906-.094-.156-.438-1.344v-.656h-.468l-.5.375-.563-.188.094.907h-.03l-.5.437-.188.281v.907l-.438.906h-.03l-.595.062h-.03l-.376-.937-.593.406h-.031l-.532-1.875-.375-.906.375-.906.282-.813.343-.437h.906l.344-.563.031.031.156.157h1.001l.155-.907h.188l.812-.875.438-1.375v-.343h.03l.563.187.406-.094-.25-.625v-.187l-.875-.531h-.03l-.907-.282-1.531.282-.25.062-1.781-.437h-.031l-1.438.28h-2.343l-.781-.28h-.218l-.97-.344h-.03l-.313-.094h-.031l-.5-.375h-.031l.094-.187v-.25l.094-.375v-.094h.03l.032-.063v-.093l-.062-.469-.094-.187v-.25l-.094-.188.187-.437.062-.188h-.155l-.064-.094h-.03l.187-.28-.438-.438h-.03l-.25-.407-.25.5h-.032l-.812.344h-.531l-.875-.625h-.031l-.094-.969-.5-.187-.469-.188.469.75.094.157H1192.255l-.188-.282-.593-.093h-.125l-.25.093h-.031l-.062-.343-.875-.813h-.031l-.063-.094h-.031l-.407-.375h-.04ZM1197.094 411.955l-1.782.812-.374.375-.095.094-.812 1.062-.969 1.25-.812.907v.187l-.094.188-.094.187-.719.781.531.907.563.156.156.031.906.531.625-.156 1.063.344.187.093.906.344.094-.062.188-.094h1l.875-.625.906.062 1.25.375.906-.093h.094l.532-.188.906.282.906-.532 1.063.344h.812l.906-.25.188-.281-.469-1.25.375-.813-.906-.625-1.063-.187-.28-.469.187-.875.094-.906-.907-.281h-.187l-1-.438-.875.531h-.094l-.281-.281-1.813-.156h-.437l-.532-.094-.187-.906-.906-.281h-.532Z"/><path fill="#3e73c5" fill-opacity=".429" stroke="#000" stroke-opacity=".247" stroke-linecap="round" stroke-linejoin="round" d="M1162.312.508v43.156h69.396V.508ZM1107.785 260.023l-1.034.008h0l.188-.875.875-.812-.875-.375.343-.906v-.532l1-.437.282-.906-.375-.47-.094-.155.375-.907-.469-.906.906-.187.532-.438-.157-1 .969.188 1-.188.906-.719v-.187l-.531-.875-.906-.625-1-.813-.188-.093-.437-.907-.907.188-.53.875-.376-.531-.718-.344.28-.906.532-.907-.25.094-.094-.625-.406-.625-.25-.375.094-.094v-.156l-.094-.562.562-.97.438-1 .437-.905.563-1 .906-.063.156.156.907.72-.282.905.125 1 .875.25h.282l.906-.156.969-.094.906.438 1 .187 1 .094h.969l.906-.187v-.344l.906-.375h2.844v.062h.937l.188.032h.969c.51-.293.958-.57 1.375-.844.281-.183.49-.321.687-.469.043-.031.083-.063.125-.094.16-.123.535-.41.719-.562.264-.216.503-.43.75-.656l.562-.421.188-.313.094-.125 2.343-2.437-.094-.906 1.344-1.97 1.438-.812h.906l.906-.281.375-1 .062-1.875-.156-.812.625-.907-.469-.625.469-1 .969-.718-.344-.875h.437v-.094l.188-.906.344.093.375.094.625.094.812-.094 1.906.437.907-.28.875.187h.375l.875-.344 1 .344.906-.344.906.094.25.156.469 1 .906-.281 1.875.093.906.094.907-.625 1.875-.187 1 .187 1 .813.875.093 2-.187.968.625h.907l.625-1 2.25-1.594.906-.562 2.062-.25 1.47 1.062.874.469 1.094-.188 2.106 2.907-.83 3.148 3.647.56 5.78-.388 1.939.434.904 1.384 1.427.312 1.708 2.497 3.252-.19 1.003 1.821-1.782 1.012-1.937 2.304.077 1.928.512 1.126 3.608 1.075 1.953.038.357 2.067-1.095.279-1.868 2.143-1.2.793 1.078.337-.15.845-.653.87.59.175.371.686-1.117.592.381 1.106 1.93.964 1.928 2.71-3.35 2.3-1.33 1.827 1.347 2.56-.594.74-.153 1.246-.912.74.751.965 1.174-.766 1.15.573.742-.26.01 1.443-1.07.288 1.378 1.42-1.771 1.582-.49 1.589.752.08.678.706-.78 1.757 1.622.777-1.132.716.524.638-1.591 2.127-2.035.733-.523.602-.727-.069-.838 1.53 1.095.291-1.116 1.36 1.032.607 1.616.73 1.174-1.439-.347 1.327.831-.677.879.25-.037 2.209 4.067 3.517-1.428-.032.495.826-1.426.466 1.173 2.353-.383 1.378.102 1.284-2.224 1.197-2.157.734-1.088.145-.394 1.012-2.426.377.15-1.92-2.934.408h0l-.907.156-1 .656c1.394 2.84-2.698 3.438-4.593 3.688l-.813 2.062v.188l-.062.156.25 1.812v1l.375.875-.625 1.282-2.625 1.25-.906.437-.438-.875-.906.094-.906-.188-.906.188-.532-.094-1.875-.375-.906-.531-1-.469-.812.906-.157 1-.187.282-.344.812-.469 1.344-.906 1.781-.094 1-.25.906-.812 1.532v.156l.906.375.688 1-.157.437v.188l-.187.187-1.782-.28-.906.343-.906-.781-.906-.188-.719.25-2.781.906-.719-.093-1.813.562-1 .094-.25.156-.187.094v1.094h.281l.907-.188.875.344-.344.75v2.594l.812 2.062.813 1.813-.282 1 .72.875-.907.187-.719.375.532.875-.063.094-.906.375h-.531l-.375.906.375 1.781.062.188-.156.625v-.03l-.094.906h-1l-.906.719-1.594.625-.906.187-2 1-1.782.875-.375.719-.094.094-.531.562-.906.719-.907-.188-.875.344-.906.094-1.719-.188h-.906c-.721 1.056-1.087 1.745-1.312 2.22v.03l-.25.532v.03c-.06.126-.124.21-.188.282a.601.601 0 0 1-.281.187c-.124.048-.3.107-.531.157-.23.05-.518.102-.907.187-.428.092-.73.154-1.468.344l-.907-1.063-.875-.468-.187.093-.906.625-1-.093-.719-.157-.094.25.375.625-.906.188-.907.719-.625.375h-.906l-1 .625-.531 1 .375.875-1.283 1.107-3.488.474-2.35.11-.754.995-.483-.28-1.798-.367-.25-.938-.864-.068-.263-.61-2.12.953-4.133-.904-3.857.158.109-2.32.46.064.647-.994 1.953-.314 2.626 1.06-.08.428 2.338-1.895 1.706-.045 1.264.598 1.624-.597.284-.423.73-.457.8.272-.09-1.214.89.48.414-.057 1.859-1.164.165-.547-2.42-.177-.211-.456-1.077-.383-.565.115-.245-1.014-.893-.106-.941-1.412-.66-.045-.09.78-.676-.02-.158 1.084-2.903-.667-.481-1.122-1.1.176-1.02-.934 3.416-3.543v.03l-.813.282-.53.906-.907-.375-.25.093-.813.907-.906.718-1.875.72-.719.437-.468.468-.813.25-.437.907-1.157 1-.468.531-.344.281-.375.531.094.188v.094l.281.968h-1l-.812-.343-.188-.094-1-.625c.675-.45.68-.633.656-1.344l-1-.719h-.094l-.094.094-.906-.094-2.313.25-2-.093-.437-.969-.438-1.906-.125-.969-.968-.812h-.907l-.53-.47.155-1.874.188-1v-.906l.094-.875-.969.062-1-.875-.437-.906-.906-.906-.907-.625-.812-.907-.188-.093-.875-.094-1 .469-1 .25h-.906c-4.472-.575-5.571-.37-9.969.468-1.142-1.357-2.81-2.84-4.062-4.156l-.188-.437-.812-1-.875-.532-1.188-.625-2.25-1.343c-1.155-.552-2.152-1.372-3.312-1.907-.596-.208-2.705-1.755-3.25-1.875.27-.48-.024-.539.219-.968v-.282l.187-.156.188-.187.187-.188c.463-.541.628-.183.906-.187v-.157l.062-.093h.094l.094.093h.282c.492-.927 2.046-2.623 2.75-3.5l1-1 .906-.718.187-.188.969-.344.531-.906v-.094l.188-1 .906.282.906.093.907-.28.156-.345.375-.906.437-.906.469-1 .625-.156.906-.094h1l.969.531.625.813.906.625.907.906.28.906.72.188 1.843-1.313 3.782-2.344.968-.718-.25-.188-1.093-1.344-.532-1-.718-.906-.625-.25-2.25-1h-.094l.094-.906-1.72-.438-.187-.093-.718-.625-.344-.907h-.188l.188-1-.813-.875.719-.812 1.25-1.906.906-.094.094-.25-1.156-1.812-.656-.72-.719-1.812h-.875l.875-.875h.188l-1-.718-.157-1-.906.28-.375-.562-1.83.86-7.166-3.77-.303-.829 2.884-.864 1.617-1.053-1.499-2.107 1.616-1.815 1.865-.302 2.302.43.712-.72-3.859-1.366-.077-1.275.756.095.266-.563-2.636-.622.751-.009.741-.982-.99-.64 1.997-1.073.602.346 3.608.05.681.795.608-1.237 7.898-1.735 3.943.205.061-1.283 1.278-.82 3.076.016 5.548-1.407 4.102-.717 1.736-1.48.642-.926 4.55.033 2.144 1.111 1.134-.93 1.662.08Z"/><path fill="#8cce55" stroke="#0f380f" stroke-opacity=".145" stroke-linecap="round" stroke-linejoin="round" d="m1107.785 260.023-1.034.008h0l.188-.875.875-.812-.875-.375.343-.906v-.532l1-.437.282-.906-.375-.47-.094-.155.375-.907-.469-.906.906-.187.532-.438-.157-1 .969.188 1-.188.906-.719v-.187l-.531-.875-.906-.625-1-.813-.188-.093-.437-.907-.907.188-.53.875-.376-.531-.718-.344.28-.906.532-.907-.25.094-.094-.625-.406-.625-.25-.375.094-.094v-.156l-.094-.562.562-.97.438-1 .437-.905.563-1 .906-.063.156.156.907.72-.282.905.125 1 .875.25h.282l.906-.156.969-.094.906.438 1 .187 1 .094h.969l.906-.187v-.344l.906-.375h2.844v.062h.937l.188.032h.969c.51-.293.958-.57 1.375-.844.281-.183.49-.321.687-.469.043-.031.083-.063.125-.094.16-.123.535-.41.719-.562.264-.216.503-.43.75-.656l.562-.421.188-.313.094-.125 2.343-2.437-.094-.906 1.344-1.97 1.438-.812h.906l.906-.281.375-1 .062-1.875-.156-.812.625-.907-.469-.625.469-1 .969-.718-.344-.875h.437v-.094l.188-.906.344.093.375.094.625.094.812-.094 1.906.437.907-.28.875.187h.375l.875-.344 1 .344.906-.344.906.094.25.156.469 1 .906-.281 1.875.093.906.094.907-.625 1.875-.187 1 .187 1 .813.875.093 2-.187.968.625h.907l.625-1 2.25-1.594.906-.562 2.062-.25 1.47 1.062.874.469 1.094-.188 2.106 2.907-.83 3.148 3.647.56 5.78-.388 1.939.434.904 1.384 1.427.312 1.708 2.497 3.252-.19 1.003 1.821-1.782 1.012-1.937 2.304.077 1.928.512 1.126 3.608 1.075 1.953.038.357 2.067-1.095.279-1.868 2.143-1.2.793 1.078.337-.15.845-.653.87.59.175.371.686-1.117.592.381 1.106 1.93.964 1.928 2.71-3.35 2.3-1.33 1.827 1.347 2.56-.594.74-.153 1.246-.912.74.751.965 1.174-.766 1.15.573.742-.26.01 1.443-1.07.288 1.378 1.42-1.771 1.582-.49 1.589.752.08.678.706-.78 1.757 1.622.777-1.132.716.524.638-1.591 2.127-2.035.733-.523.602-.727-.069-.838 1.53 1.095.291-1.116 1.36 1.032.607 1.616.73 1.174-1.439-.347 1.327.831-.677.879.25-.037 2.209 4.067 3.517-1.428-.032.495.826-1.426.466 1.173 2.353-.383 1.378.102 1.284-2.224 1.197-2.157.734-1.088.145-.394 1.012-2.426.377.15-1.92-2.934.408h0l-.907.156-1 .656c1.394 2.84-2.698 3.438-4.593 3.688l-.813 2.062v.188l-.062.156.25 1.812v1l.375.875-.625 1.282-2.625 1.25-.906.437-.438-.875-.906.094-.906-.188-.906.188-.532-.094-1.875-.375-.906-.531-1-.469-.812.906-.157 1-.187.282-.344.812-.469 1.344-.906 1.781-.094 1-.25.906-.812 1.532v.156l.906.375.688 1-.157.437v.188l-.187.187-1.782-.28-.906.343-.906-.781-.906-.188-.719.25-2.781.906-.719-.093-1.813.562-1 .094-.25.156-.187.094v1.094h.281l.907-.188.875.344-.344.75v2.594l.812 2.062.813 1.813-.282 1 .72.875-.907.187-.719.375.532.875-.063.094-.906.375h-.531l-.375.906.375 1.781.062.188-.156.625v-.03l-.094.906h-1l-.906.719-1.594.625-.906.187-2 1-1.782.875-.375.719-.094.094-.531.562-.906.719-.907-.188-.875.344-.906.094-1.719-.188h-.906c-.721 1.056-1.087 1.745-1.312 2.22v.03l-.25.532v.03c-.06.126-.124.21-.188.282a.601.601 0 0 1-.281.187c-.124.048-.3.107-.531.157-.23.05-.518.102-.907.187-.428.092-.73.154-1.468.344l-.907-1.063-.875-.468-.187.093-.906.625-1-.093-.719-.157-.094.25.375.625-.906.188-.907.719-.625.375h-.906l-1 .625-.531 1 .375.875-1.283 1.107-3.488.474-2.35.11-.754.995-.483-.28-1.798-.367-.25-.938-.864-.068-.263-.61-2.12.953-4.133-.904-3.857.158.109-2.32.46.064.647-.994 1.953-.314 2.626 1.06-.08.428 2.338-1.895 1.706-.045 1.264.598 1.624-.597.284-.423.73-.457.8.272-.09-1.214.89.48.414-.057 1.859-1.164.165-.547-2.42-.177-.211-.456-1.077-.383-.565.115-.245-1.014-.893-.106-.941-1.412-.66-.045-.09.78-.676-.02-.158 1.084-2.903-.667-.481-1.122-1.1.176-1.02-.934 3.416-3.543v.03l-.813.282-.53.906-.907-.375-.25.093-.813.907-.906.718-1.875.72-.719.437-.468.468-.813.25-.437.907-1.157 1-.468.531-.344.281-.375.531.094.188v.094l.281.968h-1l-.812-.343-.188-.094-1-.625c.675-.45.68-.633.656-1.344l-1-.719h-.094l-.094.094-.906-.094-2.313.25-2-.093-.437-.969-.438-1.906-.125-.969-.968-.812h-.907l-.53-.47.155-1.874.188-1v-.906l.094-.875-.969.062-1-.875-.437-.906-.906-.906-.907-.625-.812-.907-.188-.093-.875-.094-1 .469-1 .25h-.906c-4.472-.575-5.571-.37-9.969.468-1.142-1.357-2.81-2.84-4.062-4.156l-.188-.437-.812-1-.875-.532-1.188-.625-2.25-1.343c-1.155-.552-2.152-1.372-3.312-1.907-.596-.208-2.705-1.755-3.25-1.875.27-.48-.024-.539.219-.968v-.282l.187-.156.188-.187.187-.188c.463-.541.628-.183.906-.187v-.157l.062-.093h.094l.094.093h.282c.492-.927 2.046-2.623 2.75-3.5l1-1 .906-.718.187-.188.969-.344.531-.906v-.094l.188-1 .906.282.906.093.907-.28.156-.345.375-.906.437-.906.469-1 .625-.156.906-.094h1l.969.531.625.813.906.625.907.906.28.906.72.188 1.843-1.313 3.782-2.344.968-.718-.25-.188-1.093-1.344-.532-1-.718-.906-.625-.25-2.25-1h-.094l.094-.906-1.72-.438-.187-.093-.718-.625-.344-.907h-.188l.188-1-.813-.875.719-.812 1.25-1.906.906-.094.094-.25-1.156-1.812-.656-.72-.719-1.812h-.875l.875-.875h.188l-1-.718-.157-1-.906.28-.375-.562-1.83.86-7.166-3.77-.303-.829 2.884-.864 1.617-1.053-1.499-2.107 1.616-1.815 1.865-.302 2.302.43.712-.72-3.859-1.366-.077-1.275.756.095.266-.563-2.636-.622.751-.009.741-.982-.99-.64 1.997-1.073.602.346 3.608.05.681.795.608-1.237 7.898-1.735 3.943.205.061-1.283 1.278-.82 3.076.016 5.548-1.407 4.102-.717 1.736-1.48.642-.926 4.55.033 2.144 1.111 1.134-.93 1.662.08Z"/></svg>