<svg width="1671.094" height="856.393" xmlns="http://www.w3.org/2000/svg" xmlns:usvg="https://github.com/RazrFalcon/usvg" usvg:version="0.8.0"><path fill="#3e73c5" fill-opacity=".429" stroke="#000" stroke-opacity=".247" stroke-linecap="round" stroke-linejoin="round" d="m1231.48 411.467.443-.475.45-.007.906.875.532-.063.968.969h.031v.906l.438 1.094.094.344 1.406.187h.031l.563.906.156.97v.905l.281 1.438v1l-.187.719-.532 1.625.344 1.437h-.03l-.845.188-.656 1.156h-.03l-.876-.281-.063.187-.094.906h-.03l-.157.094-.188.438h-.03l-.876.187-.625 1v.25l-.25 1h-.03l-.532.344v1l.625.906.188.625.094.188-.625.906.187.719.875-.47.625-.437.281-.187.907-.25h.906l.812.25.72-.188.562-.218-.438.406-.469.469.062.625.625.875-.062.75.157.125.156.125h.03l.188 1.343.875.47h.469l1.25.155h.092l-.53 1.282-.094 1.53-.625.813-.344.813.406.187.438.157h.03l1-.094.907.187.25.188.594-.094h.062v1.25l.156.469.281.094.313.156h.03l.376.969.094-.063 1.062-.187.281.187h.25l.907-.531.53-.531 1.063-.469h.031l.094 1h.093l.282.812.853.938-.719.093a.047.047 0 0 1-.03-.03.05.05 0 0 1-.032-.032l-.187-.906-.219-.75h-.062l-.688.875-.906.437c-.01.015-.017.027-.03.032l-.313-.094-.438 1.25a.055.055 0 0 1-.03 0l-.313.312v.47l.375-.095a.05.05 0 0 1 .03.032.05.05 0 0 1 .032.03c-.01.015-.017.027-.031.032l-.031.031-.062.156c-.01.015-.016.027-.031.032l-1.344.28-.656.845-.344 1.25c-.01.014-.017.026-.03.03 0 .015-.017.027-.032.032h-.094a.051.051 0 0 1-.03-.031l-.345-.25-.53-.156-1.063.5c-.01.014-.016.026-.031.03l-.438-.093h-.281l.156.938c-.01.014-.017.026-.03.03-.01.015-.018.027-.032.032l-.812.25-.907-.156-.374.468-.188.907c-.01.014-.017.026-.031.03l-.25.157c-.01.015-.017.026-.031.031l-.906.094-.594.25c-.01.015-.016.026-.031.031l-.719.094-.906.094a.051.051 0 0 1-.031-.032l-.875-.593-.156.218-.782.782-.25 1 .178.814c-.01.014-.017.026-.031.03l-.438.845v1l.188 1c-.01.014-.017.026-.031.03l-1.313.5V460.736l.5.219.344.906a.051.051 0 0 1 .031.031l.188.907c-.01.014-.017.026-.031.03l-.062.032-.094.469 1.062 1.219.907.906.437.719.438.718.937.813.156.437a.05.05 0 0 1 .031.031l-.156.563.906 1.875.563-.813.03-.03c.01-.015.018-.027.032-.032a.051.051 0 0 1 .03.031.05.05 0 0 1 .032.031l.281 1.094c-.01.015-.017.026-.031.031l-1.5.875v1.875l.094.907c-.01.014-.017.026-.031.03l-.781.5-.094.47c-.01.014-.017.026-.031.03-.01.015-.016.027-.031.032l-.844.156v1.032l.281.906.5.687 1.25 1.688.907.656.718.719.719 1.344a.05.05 0 0 1 .031.03l.187 1.876v.562l-.187.875.281 1 .969 1.063a.051.051 0 0 1 .031.03v.876l.344 1.187.531 1.782c-.01.014-.017.026-.031.03l-.813.907-.343.906-.282.282-.343.968-.469.375-.625.907-.531.25-.407.843.094.282v.03c-.01.015-.017.027-.03.032l-.282.656c-.01.015-.017.026-.03.031h-.032a.05.05 0 0 1-.03-.03l-.064.124c-.568 1.689-1.042 3.284-1.719 4.938l-4.011.272 2.063-1.437 1-.094.843-1.25.969-.938-.156-.843v-.032l.156-.875v-.03l-.156-.626-.094-.937.5-.594a.08.08 0 0 0 .03 0l.626-.906v-.063l.125-.656.062-.312V493.382l-.062-.562.312-1.094a.096.096 0 0 0 .031-.031v-.031a.137.137 0 0 0-.03-.032.137.137 0 0 0-.032-.03.08.08 0 0 0-.03 0 .137.137 0 0 0-.032-.032.096.096 0 0 0-.03.031l-.063.031-.656.407.062-.72v-.905l.344-.47v-.092l-.188-.407.094-.156v-.093a.08.08 0 0 0-.031 0l-.406-.438.25-.875v-.032l.187-.25v-.124a.08.08 0 0 0-.03 0 .137.137 0 0 0-.032-.032.08.08 0 0 0-.03 0h-.126l-.218-.812-.095-.906v-.031l-.437-.97-.282-.72v-.03l-.531-.875-.282-.875v-.032l-.187-.875v-.03l-.094-.188a.137.137 0 0 0-.031-.031.08.08 0 0 0-.031 0 .08.08 0 0 0-.031 0 .08.08 0 0 0-.031 0 .107.107 0 0 0-.031.03l-.125.188v.063l.094.78v.032l-.063.469-.187-.469v-.062l-.094-.875-.188-.907-.156-.53-.281-.845v-.062l.28-.844v-.062a.137.137 0 0 0-.03-.031.137.137 0 0 0-.031-.032l-.938-.656.094-.5v-.031l-.094-.281-.187-.844v-.031l.094-.875v-.031l-.094-.907-.094-.437-.188-.906v-.032l-.343-.875v-.03l.094-.47v-.593l.343-1.032h.063v-.03a.08.08 0 0 0 .031 0v-.126a.137.137 0 0 0-.03-.03.08.08 0 0 0-.032 0 .137.137 0 0 0-.03-.032h-.282l-.062.031-.344.156h-.156l-.875-.312-.03-.031-.407-.844v-.031l-.25-.656v-.907l-.031-.062-.125-.125-1.281-1.344-.031-.062a.08.08 0 0 0-.031 0 .137.137 0 0 0-.031-.032.08.08 0 0 0-.031 0 .08.08 0 0 0-.031 0v.032a.08.08 0 0 0-.031 0v.03a.08.08 0 0 0-.031 0v.063l.187.656v.063l-.25.75a.107.107 0 0 0-.031.031v.031a.08.08 0 0 0 .031 0v.032l.156.218-.343.875V468.29l-1.625 1.218-.72-.656-.061-.062.062-.657v-.093a.08.08 0 0 0-.031 0 .137.137 0 0 0-.031-.031.08.08 0 0 0-.031 0 .08.08 0 0 0-.031 0l-.188.093a.096.096 0 0 0-.03.032l-.063.062-.187.094a.107.107 0 0 0-.031.03v.095l.094.187.187.531.063.219v.063l-.219.75-.844-.094a.08.08 0 0 0-.03 0 .087.087 0 0 0-.032.031.08.08 0 0 0-.03 0l-.5.625-.031.031-.657.125a.08.08 0 0 0-.03 0 .096.096 0 0 0-.032.031.096.096 0 0 0-.03.032c-.002.01 0 .02 0 .03l-.157.75-.156.438-.031.032-.813.843h-.656l.313-.843v-1a.08.08 0 0 0-.031 0v-.032a.08.08 0 0 0-.031 0 .08.08 0 0 0-.031 0 .08.08 0 0 0-.031 0 .08.08 0 0 0-.031 0v.032l-.188.156a.096.096 0 0 0-.03.031c0 .01-.002.021 0 .031-.002.01 0 .021 0 .032l-.25.468-.5.594.03-.375.282-.719v-.125a.137.137 0 0 0-.031-.03.08.08 0 0 0-.031 0 .08.08 0 0 0-.031 0h-.031l-.188-.094a.08.08 0 0 0-.031 0 .08.08 0 0 0-.031 0 .08.08 0 0 0-.031 0 .096.096 0 0 0-.031.03.107.107 0 0 0-.031.032l-.25.812-.344.813-.437-.219.25-.812v-.063a.08.08 0 0 0-.031 0v-.03a.137.137 0 0 0-.031-.032l-.062-.031.437-.782.031-.03v-.094a.137.137 0 0 0-.03-.032.08.08 0 0 0-.032 0 .137.137 0 0 0-.03-.03.096.096 0 0 0-.032.03l-.062.032-.594.312v.031a.08.08 0 0 0-.03 0l-.095.094a.137.137 0 0 0-.03-.031.08.08 0 0 0-.032 0 .08.08 0 0 0-.03 0 .08.08 0 0 0-.032 0 .08.08 0 0 0-.03 0l-.563.469.187-.625.094-.532.188-.906v-.062a.137.137 0 0 0-.031-.031.137.137 0 0 0-.031-.032.08.08 0 0 0-.031 0h-.156l-.032-.062a.08.08 0 0 0-.03 0 .137.137 0 0 0-.032-.031.08.08 0 0 0-.03 0 .08.08 0 0 0-.032 0 .087.087 0 0 0-.03.03.096.096 0 0 0-.032.032v.499l-.5.626-.218.219-.5.843-.75.157.094-.75.094-.875v-.032l.344-.968.375-.907v-.03c.032-1.394.568-2.457.812-3.844v-.062c-.51-.818-.587-1.439-.656-2.063-.05-.46-.121-.951-.375-1.5a3.873 3.873 0 0 0-.313-.563c0-.005-.03.005-.03 0-.148-.735-.314-1.215-.5-1.531-.189-.318-.365-.473-.5-.625a.865.865 0 0 1-.25-.563c-.025-.27.022-.676.187-1.375v-.062a.137.137 0 0 0-.031-.031l-.094-.094a.137.137 0 0 0-.031-.031.08.08 0 0 0-.031 0 .08.08 0 0 0-.031 0 .107.107 0 0 0-.031.031l-.125-.062v-.094a.137.137 0 0 0-.031-.031l-.594-.563v-.03l-.062-.876a.08.08 0 0 0-.03 0v-.031a.137.137 0 0 0-.032-.031.08.08 0 0 0-.03 0 .08.08 0 0 0-.032 0l-.469.062-.5-.844-.03-.03-.876-.626h-.03l-.063-.312a.137.137 0 0 0-.03-.031.137.137 0 0 0-.032-.032l-.156-.093a.08.08 0 0 0-.03 0 .08.08 0 0 0-.032 0 .08.08 0 0 0-.03 0c-.002.01 0 .02 0 .03h-.032l-.562.157a.08.08 0 0 0-.031 0 .08.08 0 0 0-.031 0v.031a.08.08 0 0 0-.031 0l-.125.219h-.125l.062-.812a.096.096 0 0 0 .03-.032v-.062a.137.137 0 0 0-.03-.031.137.137 0 0 0-.031-.031.08.08 0 0 0-.031 0 .08.08 0 0 0-.031 0l-.407.062.438-.719v-.125a.08.08 0 0 0-.031 0v-.03a.08.08 0 0 0-.031 0 .08.08 0 0 0-.031 0h-.031l-.156-.407v-.031l.094-.25v-.093a.08.08 0 0 0-.031 0 .137.137 0 0 0-.031-.032.08.08 0 0 0-.031 0 .08.08 0 0 0-.031 0 .107.107 0 0 0-.031.031.087.087 0 0 0-.031.031l-.094.282-.313.937-.25.469-.281-.313.219-.28v-.126l-.188-.343v-.032l-.625-.843v-.032a.137.137 0 0 0-.03-.03.137.137 0 0 0-.032-.032.08.08 0 0 0-.03 0 .096.096 0 0 0-.032.031.08.08 0 0 0-.03 0 .107.107 0 0 0-.032.031v.062l.094.5v.032l-.063.563-.375-.625a.08.08 0 0 0-.03 0l-.782-.875-.031-.032-.437-.875h.03l-.28-.843v-.062a.137.137 0 0 0-.032-.032.137.137 0 0 0-.03-.031.08.08 0 0 0-.032 0 .08.08 0 0 0-.03 0 .087.087 0 0 0-.032.031c-.01.004-.026-.005-.03 0l-.25-.531v-.188l.187-.906.875.094 1.094.343v-.156l-.282-.906.094-1.813-.094-.437.464-.536 1.168.403.676-1.23-.268-2.348.097-1.477 1.231.251.278-3.594-.45-1.337 2.944.401.655.603 1.618-3.995.7-.615.33-1.586-.409-1.417.705-.686 1.477-1.136-.195-.67.692-1.335-.372-1.929.899-.874 1.183-.083 1.538-1.455 3.601-1.647 2.318 1.165-1.295-2.226.292-.493 1.432-1.155.746-.513.03-.671-.131-.535.072-.44Z"/><path fill="#3e73c5" fill-opacity=".427" stroke="#000" stroke-opacity=".247" stroke-linecap="round" stroke-linejoin="round" d="M1231.819 606.705h-5.913v-6.375h5.913Zm-20.016-153.823a.08.08 0 0 0 .03 0l-.063.375-.062-.344h.031a.08.08 0 0 0 .032 0 .096.096 0 0 0 .03-.03Zm.968 0 .407.281-.25-.093.437.906-.531-.906-.063-.188Zm3.032 3.25c-.143.63-.245 1.053-.22 1.344.027.31.167.492.313.656a5.2 5.2 0 0 1 .375.469l-.843-.938.312-1.468.062-.063Zm3.062 13.531h.031l-.031.25Zm1.063 1.407v.03l-.282.126.282-.156Zm-1.5.625-.032.156v.062c.01.013.02.024.032.031l-.813.657.813-.907Zm14.468 2.093.094.875v.032l-.094.875v-1.782Zm0 1.813.157.906a.08.08 0 0 0 .03 0l.094.219v.062l-.124.469-.157-1.656Zm3.407 22.219a.08.08 0 0 0 .03 0l.157.593-.188-.593Z"/><path fill="#8cce55" stroke="#0f380f" stroke-opacity=".145" stroke-linecap="round" stroke-linejoin="round" d="M1230.098 603.346a1.484 1.484 0 1 1-2.968 0 1.484 1.484 0 0 1 2.968 0ZM1241.84 492.922l.626-.906M1231.48 411.467l.443-.475.45-.007.906.875.532-.063.968.969h.031v.906l.438 1.094.094.344 1.406.187h.031l.563.906.156.97v.905l.281 1.438v1l-.187.719-.532 1.625.344 1.437h-.03l-.845.188-.656 1.156h-.03l-.876-.281-.063.187-.094.906h-.03l-.157.094-.188.438h-.03l-.876.187-.625 1v.25l-.25 1h-.03l-.532.344v1l.625.906.188.625.094.188-.625.906.187.719.875-.47.625-.437.281-.187.907-.25h.906l.812.25.72-.188.562-.218-.438.406-.469.469.062.625.625.875-.062.75.157.125.156.125h.03l.188 1.343.875.47h.469l1.25.155h.092l-.53 1.282-.094 1.53-.625.813-.344.813.406.187.438.157h.03l1-.094.907.187.25.188.594-.094h.062v1.25l.156.469.281.094.313.156h.03l.376.969.094-.063 1.062-.187.281.187h.25l.907-.531.53-.531 1.063-.469h.031l.094 1h.093l.282.812.853.938-.719.093a.047.047 0 0 1-.03-.03.05.05 0 0 1-.032-.032l-.187-.906-.219-.75h-.062l-.688.875-.906.437c-.01.015-.017.027-.03.032l-.313-.094-.438 1.25a.055.055 0 0 1-.03 0l-.313.312v.47l.375-.095a.05.05 0 0 1 .03.032.05.05 0 0 1 .032.03c-.01.015-.017.027-.031.032l-.031.031-.062.156c-.01.015-.016.027-.031.032l-1.344.28-.656.845-.344 1.25c-.01.014-.017.026-.03.03 0 .015-.017.027-.032.032h-.094a.051.051 0 0 1-.03-.031l-.345-.25-.53-.156-1.063.5c-.01.014-.016.026-.031.03l-.438-.093h-.281l.156.938c-.01.014-.017.026-.03.03-.01.015-.018.027-.032.032l-.812.25-.907-.156-.374.468-.188.907c-.01.014-.017.026-.031.03l-.25.157c-.01.015-.017.026-.031.031l-.906.094-.594.25c-.01.015-.016.026-.031.031l-.719.094-.906.094a.051.051 0 0 1-.031-.032l-.875-.593-.156.218-.782.782-.25 1 .178.814c-.01.014-.017.026-.031.03l-.438.845v1l.188 1c-.01.014-.017.026-.031.03l-1.313.5V460.736l.5.219.344.906a.051.051 0 0 1 .031.031l.188.907c-.01.014-.017.026-.031.03l-.062.032-.094.469 1.062 1.219.907.906.437.719.438.718.937.813.156.437a.05.05 0 0 1 .031.031l-.156.563.906 1.875.563-.813.03-.03c.01-.015.018-.027.032-.032a.051.051 0 0 1 .03.031.05.05 0 0 1 .032.031l.281 1.094c-.01.015-.017.026-.031.031l-1.5.875v1.875l.094.907c-.01.014-.017.026-.031.03l-.781.5-.094.47c-.01.014-.017.026-.031.03-.01.015-.016.027-.031.032l-.844.156v1.032l.281.906.5.687 1.25 1.688.907.656.718.719.719 1.344a.05.05 0 0 1 .031.03l.187 1.876v.562l-.187.875.281 1 .969 1.063a.051.051 0 0 1 .031.03v.876l.344 1.187.531 1.782c-.01.014-.017.026-.031.03l-.813.907-.343.906-.282.282-.343.968-.469.375-.625.907-.531.25-.407.843.094.282v.03c-.01.015-.017.027-.03.032l-.282.656c-.01.015-.017.026-.03.031h-.032a.05.05 0 0 1-.03-.03l-.064.124c-.568 1.689-1.042 3.284-1.719 4.938l-4.011.272 2.063-1.437 1-.094.843-1.25.969-.938-.156-.843v-.032l.156-.875v-.03l-.156-.626-.094-.937.5-.594a.08.08 0 0 0 .03 0l.626-.906v-.063l.125-.656.062-.312V493.382l-.062-.562.312-1.094a.096.096 0 0 0 .031-.031v-.031a.137.137 0 0 0-.03-.032.137.137 0 0 0-.032-.03.08.08 0 0 0-.03 0 .137.137 0 0 0-.032-.032.096.096 0 0 0-.03.031l-.063.031-.656.407.062-.72v-.905l.344-.47v-.092l-.188-.407.094-.156v-.093a.08.08 0 0 0-.031 0l-.406-.438.25-.875v-.032l.187-.25v-.124a.08.08 0 0 0-.03 0 .137.137 0 0 0-.032-.032.08.08 0 0 0-.03 0h-.126l-.218-.812-.095-.906v-.031l-.437-.97-.282-.72v-.03l-.531-.875-.282-.875v-.032l-.187-.875v-.03l-.094-.188a.137.137 0 0 0-.031-.031.08.08 0 0 0-.031 0 .08.08 0 0 0-.031 0 .08.08 0 0 0-.031 0 .107.107 0 0 0-.031.03l-.125.188v.063l.094.78v.032l-.063.469-.187-.469v-.062l-.094-.875-.188-.907-.156-.53-.281-.845v-.062l.28-.844v-.062a.137.137 0 0 0-.03-.031.137.137 0 0 0-.031-.032l-.938-.656.094-.5v-.031l-.094-.281-.187-.844v-.031l.094-.875v-.031l-.094-.907-.094-.437-.188-.906v-.032l-.343-.875v-.03l.094-.47v-.593l.343-1.032h.063v-.03a.08.08 0 0 0 .031 0v-.126a.137.137 0 0 0-.03-.03.08.08 0 0 0-.032 0 .137.137 0 0 0-.03-.032h-.282l-.062.031-.344.156h-.156l-.875-.312-.03-.031-.407-.844v-.031l-.25-.656v-.907l-.031-.062-.125-.125-1.281-1.344-.031-.062a.08.08 0 0 0-.031 0 .137.137 0 0 0-.031-.032.08.08 0 0 0-.031 0 .08.08 0 0 0-.031 0v.032a.08.08 0 0 0-.031 0v.03a.08.08 0 0 0-.031 0v.063l.187.656v.063l-.25.75a.107.107 0 0 0-.031.031v.031a.08.08 0 0 0 .031 0v.032l.156.218-.343.875V468.29l-1.625 1.218-.72-.656-.061-.062.062-.657v-.093a.08.08 0 0 0-.031 0 .137.137 0 0 0-.031-.031.08.08 0 0 0-.031 0 .08.08 0 0 0-.031 0l-.188.093a.096.096 0 0 0-.03.032l-.063.062-.187.094a.107.107 0 0 0-.031.03v.095l.094.187.187.531.063.219v.063l-.219.75-.844-.094a.08.08 0 0 0-.03 0 .087.087 0 0 0-.032.031.08.08 0 0 0-.03 0l-.5.625-.031.031-.657.125a.08.08 0 0 0-.03 0 .096.096 0 0 0-.032.031.096.096 0 0 0-.03.032c-.002.01 0 .02 0 .03l-.157.75-.156.438-.031.032-.813.843h-.656l.313-.843v-1a.08.08 0 0 0-.031 0v-.032a.08.08 0 0 0-.031 0 .08.08 0 0 0-.031 0 .08.08 0 0 0-.031 0 .08.08 0 0 0-.031 0v.032l-.188.156a.096.096 0 0 0-.03.031c0 .01-.002.021 0 .031-.002.01 0 .021 0 .032l-.25.468-.5.594.03-.375.282-.719v-.125a.137.137 0 0 0-.031-.03.08.08 0 0 0-.031 0 .08.08 0 0 0-.031 0h-.031l-.188-.094a.08.08 0 0 0-.031 0 .08.08 0 0 0-.031 0 .08.08 0 0 0-.031 0 .096.096 0 0 0-.031.03.107.107 0 0 0-.031.032l-.25.812-.344.813-.437-.219.25-.812v-.063a.08.08 0 0 0-.031 0v-.03a.137.137 0 0 0-.031-.032l-.062-.031.437-.782.031-.03v-.094a.137.137 0 0 0-.03-.032.08.08 0 0 0-.032 0 .137.137 0 0 0-.03-.03.096.096 0 0 0-.032.03l-.062.032-.594.312v.031a.08.08 0 0 0-.03 0l-.095.094a.137.137 0 0 0-.03-.031.08.08 0 0 0-.032 0 .08.08 0 0 0-.03 0 .08.08 0 0 0-.032 0 .08.08 0 0 0-.03 0l-.563.469.187-.625.094-.532.188-.906v-.062a.137.137 0 0 0-.031-.031.137.137 0 0 0-.031-.032.08.08 0 0 0-.031 0h-.156l-.032-.062a.08.08 0 0 0-.03 0 .137.137 0 0 0-.032-.031.08.08 0 0 0-.03 0 .08.08 0 0 0-.032 0 .087.087 0 0 0-.03.03.096.096 0 0 0-.032.032v.499l-.5.626-.218.219-.5.843-.75.157.094-.75.094-.875v-.032l.344-.968.375-.907v-.03c.032-1.394.568-2.457.812-3.844v-.062c-.51-.818-.587-1.439-.656-2.063-.05-.46-.121-.951-.375-1.5a3.873 3.873 0 0 0-.313-.563c0-.005-.03.005-.03 0-.148-.735-.314-1.215-.5-1.531-.189-.318-.365-.473-.5-.625a.865.865 0 0 1-.25-.563c-.025-.27.022-.676.187-1.375v-.062a.137.137 0 0 0-.031-.031l-.094-.094a.137.137 0 0 0-.031-.031.08.08 0 0 0-.031 0 .08.08 0 0 0-.031 0 .107.107 0 0 0-.031.031l-.125-.062v-.094a.137.137 0 0 0-.031-.031l-.594-.563v-.03l-.062-.876a.08.08 0 0 0-.03 0v-.031a.137.137 0 0 0-.032-.031.08.08 0 0 0-.03 0 .08.08 0 0 0-.032 0l-.469.062-.5-.844-.03-.03-.876-.626h-.03l-.063-.312a.137.137 0 0 0-.03-.031.137.137 0 0 0-.032-.032l-.156-.093a.08.08 0 0 0-.03 0 .08.08 0 0 0-.032 0 .08.08 0 0 0-.03 0c-.002.01 0 .02 0 .03h-.032l-.562.157a.08.08 0 0 0-.031 0 .08.08 0 0 0-.031 0v.031a.08.08 0 0 0-.031 0l-.125.219h-.125l.062-.812a.096.096 0 0 0 .03-.032v-.062a.137.137 0 0 0-.03-.031.137.137 0 0 0-.031-.031.08.08 0 0 0-.031 0 .08.08 0 0 0-.031 0l-.407.062.438-.719v-.125a.08.08 0 0 0-.031 0v-.03a.08.08 0 0 0-.031 0 .08.08 0 0 0-.031 0h-.031l-.156-.407v-.031l.094-.25v-.093a.08.08 0 0 0-.031 0 .137.137 0 0 0-.031-.032.08.08 0 0 0-.031 0 .08.08 0 0 0-.031 0 .107.107 0 0 0-.031.031.087.087 0 0 0-.031.031l-.094.282-.313.937-.25.469-.281-.313.219-.28v-.126l-.188-.343v-.032l-.625-.843v-.032a.137.137 0 0 0-.03-.03.137.137 0 0 0-.032-.032.08.08 0 0 0-.03 0 .096.096 0 0 0-.032.031.08.08 0 0 0-.03 0 .107.107 0 0 0-.032.031v.062l.094.5v.032l-.063.563-.375-.625a.08.08 0 0 0-.03 0l-.782-.875-.031-.032-.437-.875h.03l-.28-.843v-.062a.137.137 0 0 0-.032-.032.137.137 0 0 0-.03-.031.08.08 0 0 0-.032 0 .08.08 0 0 0-.03 0 .087.087 0 0 0-.032.031c-.01.004-.026-.005-.03 0l-.25-.531v-.188l.187-.906.875.094 1.094.343v-.156l-.282-.906.094-1.813-.094-.437.464-.536 1.168.403.676-1.23-.268-2.348.097-1.477 1.231.251.278-3.594-.45-1.337 2.944.401.655.603 1.618-3.995.7-.615.33-1.586-.409-1.417.705-.686 1.477-1.136-.195-.67.692-1.335-.372-1.929.899-.874 1.183-.083 1.538-1.455 3.601-1.647 2.318 1.165-1.295-2.226.292-.493 1.432-1.155.746-.513.03-.671-.131-.535.072-.44Z"/></svg>