<svg width="1671.094" height="856.393" xmlns="http://www.w3.org/2000/svg" xmlns:usvg="https://github.com/RazrFalcon/usvg" usvg:version="0.8.0"><path fill="#3e73c5" fill-opacity=".429" stroke="#000" stroke-opacity=".247" stroke-linecap="round" stroke-linejoin="round" d="m1195.228 294.152-1.173-2.353 1.426-.466-.495-.826 1.428.031-4.067-3.516.037-2.21-.879-.249-.831.677.347-1.327-1.174 1.44-1.616-.731-1.032-.607 1.116-1.36-1.095-.291.838-1.53.727.07.523-.603 2.035-.733 1.59-2.127-.523-.638 1.132-.716-1.623-.777.781-1.757-.678-.705-.752-.081.49-1.589 1.771-1.583-1.378-1.419 1.07-.288-.01-1.443-.741.26-1.15-.573-1.175.766-.751-.965.912-.74.153-1.246.594-.74-1.346-2.56 1.329-1.826 3.35-2.3-1.929-2.71-1.929-.965-.381-1.106 1.118-.592-.371-.686-.59-.174.652-.871.15-.845-1.078-.337 1.2-.793 1.868-2.143 1.095-.28-.357-2.066-1.953-.038-3.608-1.075-.512-1.126-.077-1.928 1.937-2.304 1.782-1.012-1.003-1.82-3.252.189-1.708-2.497-1.427-.312-.904-1.384-1.94-.434-5.78.388-3.646-.56.83-3.148-2.106-2.907v-.016l1.781-1 4.97-2.157v-.906l.437-.156.468-.906h-1l-.906-.282-.625-.53-1-.095-.906-.625h-.875l-.906-.718-.188-.375-.094-.969-.344-.656.782-.969.906-.813.469-.906.875-.625v-.375l.75-.875.875-.562.468-.875-.094-.657-.28-.25.374-1-.812-.906-.094-.625-1-.344-.438-.468.907-.344 1.062-1.813.906-.812.907-.25.53-1 .282-.906-.375-.532-.438-.906.282-1-.282-.906-.906-.719-1.812.469-.97-.375-.624-.875-1.906.25h-1l.468-.906-.375-.625.282-.438.906-.812-.281-.907v-.906l-1.25-.625-.375-.906-.875-.719-1.813.094-.187-.906-1-.875.187-.907.813-.375-.72-.906-.968-.781-.375-.906.375-.72.062-1-.719-.905-1.062-.907-1.344-.843-1.625-1.032.625-.812-.094-.906.344-.907-1.156-.437v-.906l-.907-.438-.718-.906.281-.438h1.969l.718-.906v-.906h.47l.093-.094.875-.812v-1.063l-.344-.906.97-.813.905-.28-.156-.157-1.812-1-.282-.906-.156-.157-.812-.75.625-.875-2.813-.375-.156-1.812-.375-.25-.531.969-.907.562-.094-.093-.062-.094-1 .187-.906.344a10.426 10.426 0 0 0-1.812-.812c-.532-.175-.922-.242-1.25-.25h-.094c-.09 0-.202-.006-.282 0h-1.125c-.01-.003-.02.003-.03 0l-.063-.032-.656-.53a6.508 6.508 0 0 1-.406-.438 21.82 21.82 0 0 1-1.219-1.532h-.437l-1-.28-.625-.876-.344-.812.875-.625-.188-.282.907-.718.375-.375 2.78-1.594.438-.656 1-.438.907-.094.906.532.437-.157-.625-.906.438-.906-.719-1 .188-.156-.344-.907-.094-.906-.625-.906-1.906-.25-1.97-1.281-1.905-.813v-.625l.906-.531.094-1 1.875.094 1-.188.562-.625-.375-1.062.719-.907-.906-.468-1-.438h-.969l-1.812-.344-.907-.375-.25.094-1-.625-1-1.719-.062-.187-.01-14.868h18.572V43.664h69.396V.507h69.502v82.032h9.5l-.064 27-15.469 4.875-2.625 1.562 5.907 2.125.25.781-1 .188-2.063 1-1.844.844.125.562.875.438-2.78 2.25h-1.626l.906.437 1 .281-.562.907 1.719.718.53 1-.718.875-.25.907-.375.375.188.968.968.282.938.625.969.468-.344.438-.188.906 1 .344h.875l.188.906.625.531.094.094.906.094.188 1.187.062 5.125.906.25.906.563.438.03.468.063.438.625-.531.875-.375.188-1.5.719-.75-.094-.97.469-1.905.53c-.37.271-.757.41-1.157.5-.4.092-.814.131-1.218.157-.199.012-.399.014-.594.031a6.036 6.036 0 0 0-.594.094c-.14.027-.27.081-.406.125-.081.026-.171.03-.25.063-.096.041-.19.101-.281.156-.053.03-.106.058-.157.094-.045.03-.079.088-.125.125-.037.03-.089.03-.125.062-.034.03-.062.062-.094.094-.054.054-.104.094-.156.156-.054.062-.104.117-.156.187-.034.048-.061.105-.094.157a3.829 3.829 0 0 0-.188.312c-.015.03-.016.063-.03.094-.074.147-.151.291-.22.469l.626.906-.907.375h-.53l-1.345.156-.53.281-.282.907-1 .156.375.906.375.563.25.343-.188.532-.156.468-.813.907h-1l-.906-.563-.875.094-1.906-.188-1.813 1.438-1.437.281-1.875.438-.906.468-.906.188-.907-.281-.687.093-1 .907.344.875 2.437 3.062.531 1v2.438l-.062 5.406-.375 4.031-.906.469-.969.062-2 1.625-1.812.282.906.625 1.344.375-.062.437.625.906.625 1.782-.907.812.376 1.813.78.343.47.907.094 2.53.906.345.25.562.906.156-.438 1-.906-.093-1 .718.094.47-.906.812-.969.625.25.812-.437.875-.813.563-.375.968.188.907 1-.094.906.812.906-.25.969-.093.375-.282 2.781 1.626 1-.094-.99.104 1-.094 1.78.719.626-.282 1.271.99-.906.813-.188-.094h-1.78l-.47.907-.718.093-.907-.719-.968.25-.907-.343h-.53l.437.906-.625.875v.906l-.72.625v.094l.438.469.375.968-.906-.062-.375 1.437-.875.344v.906l.969.72.094.28.094.875 1 .375.094.907-.656.812-.907.813.188.875-.062.625-.906.562-1 .906-.282.72-.437.874-.906.094-1.532 1-.906.531-.906.281.281 1-.906.625-.813.97-.156.468-.469.969.375.906.188 1 .344.906 1.812.813h.969l.906.093-.094.97.281.905-.094.907-.718.25-.907-.157-.53.25-.095.375-.906.438.375.906.531.813 1.094.187-.094.906.531.782-.625.906-.906.562-.907.72.376.874-1.344.813-.625.093-1-.906v-.156l-.907-.094-.718-.906-.813-.094-.906-.437-.906-.72-.344-1-.906-.28-.907.187-.78.375h-.75l-.438.969.625 1.812-.188.25-.875.657-.75.875-1.343.375-.907.28-.53.876-.97.469-.625.53-.375.907-.719.907-.812-.094.281.969-.187.906.53.906-.093.094-.094.093-.906.188-.97-.656-.718-.969-.375-.906-.812-.907-.157-1h-.28l-.907.188-.719-.094-.718.907-.344.906-1.282.187-.906.25-.968-.437-2.25-.094-.907-.094-.906.532-1.156 2.25-.094.187-.625 1.219-.532 1.031.344.188.094.187.094.094.094.062v.907l1.157.187.718 1.875-1 .813-.343 1-.625.625-.094.093v.188h-1.094l-.907.437-.156 1-.625.438-.375 1 .375.906.094.625-.281.906-.906 1.625.094.157.344.906-.532.906-.156 1 .062.25-1.156-.25-.344.156-.906-.062-.563.969-.968.093-.188.906 1.344.907 1.906 1.875.875.906.563.187.968-.625.907.625 1.093.25.625.625.282.282.874.468.72.063.906.719 1 .187.343.813 1.813-.344h.968l.47.344.906.906-1.813.625.281.281.094.969-.625.906-.281-.093-.094.187-.188.906.626.907.562.343-.543 1.782-2.645 2.262-.394 1.466-.933.213-.91 2.511.769 2.26 1.067 1.029-.825 2.648-2.711.895-1.24 1.209-1.203.578.925.903 1.378.095 2.315 1.002c.653-.198 1.305-.108 1.958.023l1.029.588.988-1.115 1.366-.165.544 1.674-.809 1.447.743 1.742-1.494.717-.777.67-2.096.5c-.028.79.377 1.687-.244 2.328l1.027.386-1.266 2.263-1.118.199-1.041 2.826.08 1.806 2.74 2.357.751 2.028.014 2.189-.762 1.847-.014 1.698-1.367 1.934c.242 1.308.107 3.676.107 3.676l-.804 2.272.254 2.623-2.885-.204-3.914.389-.12-.817-2.135-2.355-1.864-4.023-.702-.364.185-1.142-1.777-.157-6.575-3.855-10.154-.948-2.346-.305-.903-1.814 1.536-3.269-.197-3.85-2.413-3.73-.628-1.748-1.01-1.216-1.848-.124-.92-1.001-1.923.066-1.923-1.089-.59-1.23-2.721-.98.53-.844-1.394-.86 2.426-.376.394-1.012 3.245-.88 2.224-1.195-.102-1.284ZM1268.084 436.445l-.625.531-.906.344-.094.093h-.344l-.281 1 .094.188v.094l-.907.437-.968.438-.47.28-.437-.28.094-.438-.75.188-.53 1.25-.095.093-.062.094-.906-.906-.531-.531-.657.968-.53-.875-.188-.093-.875.875-.375.562h-.813l-1-.906-1.062-.438-.563.97-.344.374-.625.438-.906-.188-.281.281-.156-.187-.282-.344h-.094l-.53.719-.064.062v.032l-.343.343-.063.188.282.906.719.969.093.906.188.281-.375.72.469 1-.282.25-.28.187-.188-.188-.22-.031v.062l-1.062-.218-.718.093-.188-.906-.25-.812h-.094l-.719.906-.906.437-.344-.093-.468 1.28-.344.345v.53l.437-.093-.094.188-1.343.28-.719.907-.344 1.25h-.094l-.375-.281-.531-.156-1.094.53-.437-.093h-.344l.156 1-.812.25-.907-.156-.437.531-.188.906-.25.157-.906.093-.625.282-.718.093-.907.094-.906-.625-.188.25-.812.813-.25 1 .188.812-.47.875v1l.188 1-1.343.531v.563l.53.25.344.906.188.906-.094.063-.094.469 1.094 1.25.906.906.438.719.437.718.938.813.156.437-.157.563.97 1.969.624-.907.281 1.094-1.53.906v1.875l.093.907-.812.53-.094.47-.906.156v1.094l.28.906.532.719 1.25 1.687.906.656.72.72.718 1.343.187 1.875v.562l-.187.875.281 1 1 1.094v.875l.344 1.188.531 1.78-.812.907-.344.906-.281.282-.344.968-.469.375-.625.907-.531.25-.438.906.094.281-.28.656h-.032a.137.137 0 0 0-.03-.03.08.08 0 0 0-.032 0 .096.096 0 0 0-.03.03.121.121 0 0 0-.032.032l-.437.906-.344.687-.031.031-.969.938-.844 1.25-1 .094-2.062 1.437-.156.094v18.369l-1.408.37-1.173-.197-3.049.112-4.599-3.27-1.211 1.107 2.223 3.817 2.025 2.565 3.175 2.878 2.153 1.55 2.381 2.177-1.81 3.098-5.968-2.805-.526.862 3.958 2.43 4 6-.171 3.312.156.187v309.282h69.562l-.156-267.25h10.938l-.031-1.032-.938-1.28-.625-.657-.281-1.313 1.625-2.562 5.875-.281 2.094-2.188-1.625-1.531-3.344-1.938-7.844-2.656.875-2.031.625-2.375.594-3.406.187-1.5.282-1.22.125.063.718-1.812.094-.719 1.25-.719.47-.906.093-1.25 1.531-.531.532-.469 1-1.781.343-1 .907-.813.094-.343-.72-.907-.718-.375-.812-1.78-.282-1.438.282-1-.813-.094-.906.812.094-.718v-1.907l.344-.875-.875-.562h-.438l-1.906.562-.906-.28-1.875.374.718-.906-.28-.906.905-.813.625-.906v-.188l.094-.25-.565-.187-.875.188-1.094.812-1.968-.625-1-.281-.188-.625-2.25.094h-.25l-.906.343-.188.47-.343.968-.907.187-1 .532-.906.281-.875-.375-.906-.063-1.281.25-.97.532-.905-.063-.907-.719-.343-.562-.907-.531-.187-.438-.719-.469-1.156-1.875.437-.906-.125-13.656h-21.625v16.969l-.687.468h-3.5l-1.25.47-1.219.03-2.062-.75-20.563-17.187-2.719-4.438 9.125-2.468.813 1.062-.469-.656h.094l.375-1.344.531.25.282.563h.156l.906.343.531-.093.657.812.906.281.25.625-.094.907-.438.625.094.187.875.344.813-.719.562-.25.875.531 1-.375.375-.812.531-.969v-.093l.22.062 13.03-.062 34.813-.282.156-40.625-20.375-9.937v-21.188l-.562-.406-.907-.562-.28.093-.532.188-.531.093-.094-.375-.532.282-.125-.282-.687-.25-.75-.468-.438-.532-.094-.28h-.968l-.188-1.063-.469-.907v-.437h.094v-.094l.625-.469.47-.875-.188-.187-.438-.375-.719-.25-.28.25-.907.094-.188-.438-.812-.187-.25.28h-.438l-1.093-.562-.47-.25-.155-.375-.657-.53-.343-.438Z"/><path fill="#3e73c5" fill-opacity=".429" stroke="#000" stroke-opacity=".247" stroke-linecap="round" stroke-linejoin="round" d="M1236.834 500.289a.08.08 0 0 0 .03 0c-.026.08-.035.168-.061.25l-.094-.125a.08.08 0 0 0 .03 0v-.032l.095-.062v-.031ZM1255.209 519.57l.906.906.906.531ZM1309.928 561.695l-.282.656.094-.375.188-.281Z"/><path fill="#8cce55" stroke="#0f380f" stroke-opacity=".145" stroke-linecap="round" stroke-linejoin="round" d="m1268.094 436.517-.594.5-.906.344-.094.094c-.01.014-.017.026-.031.03h-.313l-.25.938.063.156a.051.051 0 0 1 .031.032v.093c-.01.015-.017.027-.03.032l-.907.437-.969.438-.469.28c-.01.015-.017.027-.03.032a.05.05 0 0 1-.032-.031l-.437-.281a.05.05 0 0 1-.031-.032l.062-.343-.625.156h-.031l-.5 1.219-.094.093-.062.094c-.01.015-.017.026-.031.031a.05.05 0 0 1-.031-.031l-.906-.906-.5-.5-.625.937c-.01.015-.017.026-.031.031a.05.05 0 0 1-.031-.03l-.532-.876-.156-.062-.844.844-.375.562c0 .015-.017.026-.03.031h-.813a.05.05 0 0 1-.031-.031l-1-.906-1-.406-.563.937-.343.375-.625.438c-.01.014-.017.026-.031.03l-.907-.187-.25.25c-.01.015-.017.026-.03.031a.051.051 0 0 1-.032-.03l-.156-.188-.25-.313h-.094l-.5.688-.03.03v.032a.055.055 0 0 1-.032 0v.031l-.312.313-.031.031-.031.156.281.907.687.937a.05.05 0 0 1 .031.031l.094.906.157.25a.05.05 0 0 1 .03.032c-.01.014-.016.026-.03.03l-.375.688.468.97a.05.05 0 0 1 .031.03c-.01.015-.016.027-.03.032l-.282.25-.281.187c-.01.015-.017.026-.031.031a.05.05 0 0 1-.031-.031l-.156-.156-.156-.031c-.01.014-.017.026-.031.03-.01.015-.016.027-.031.032l-1.063-.219-.719.094a.047.047 0 0 1-.03-.031.05.05 0 0 1-.032-.031l-.187-.907-.219-.75h-.062l-.688.875-.906.438c-.01.014-.017.026-.03.031l-.313-.094-.438 1.25a.055.055 0 0 1-.03 0l-.313.313v.469l.375-.094a.05.05 0 0 1 .03.031.05.05 0 0 1 .032.031c-.01.015-.017.026-.031.031l-.031.032-.062.156c-.01.014-.016.026-.031.031l-1.344.281-.656.844-.344 1.25c-.01.015-.017.026-.03.031 0 .015-.017.026-.032.031h-.094a.051.051 0 0 1-.03-.03l-.345-.25-.53-.157-1.063.5c-.01.015-.016.026-.031.031l-.438-.093h-.281l.156.937c-.01.015-.017.026-.03.031-.01.015-.018.026-.032.031l-.812.25-.907-.156-.374.469-.188.906c-.01.015-.017.026-.031.031l-.25.157c-.01.014-.017.026-.031.03l-.906.095-.594.25c-.01.014-.016.026-.031.03l-.719.094-.906.094a.051.051 0 0 1-.031-.031l-.875-.594-.156.219-.782.781-.25 1 .178.814c-.01.015-.017.026-.031.031l-.438.844v1l.188 1c-.01.015-.017.026-.031.031l-1.313.5V460.736l.5.218.344.907a.051.051 0 0 1 .031.03l.188.907c-.01.015-.017.026-.031.031l-.062.031-.094.47 1.062 1.218.907.906.437.719.438.719.937.812.156.438a.05.05 0 0 1 .031.03l-.156.563.906 1.875.563-.812.03-.031c.01-.015.018-.026.032-.031a.051.051 0 0 1 .03.03.05.05 0 0 1 .032.032l.281 1.094c-.01.014-.017.026-.031.03l-1.5.876v1.875l.094.906c-.01.015-.017.026-.031.031l-.781.5-.094.47c-.01.014-.017.025-.031.03-.01.015-.016.026-.031.031l-.844.157v1.031l.281.906.5.688 1.25 1.687.907.656.718.72.719 1.343a.05.05 0 0 1 .031.031l.187 1.875v.563l-.187.875.281 1 .969 1.062a.051.051 0 0 1 .031.031v.875l.344 1.188.531 1.781c-.01.015-.017.026-.031.031l-.813.907-.343.906-.282.281-.343.969-.469.375-.625.906-.531.25-.407.844.094.281v.031c-.01.015-.017.026-.03.031l-.282.657c-.01.014-.017.026-.03.03h-.032a.05.05 0 0 1-.03-.03l-.064.125c-.568 1.688-1.042 3.283-1.719 4.937v.906l-.343.907-.47 1.875.282.906 1.875-.281.281.625 1.625 1.625v.906l.907.187.25.72 1.28.905.345.875.28-.062-.093.781 1.438 2h.062a.05.05 0 0 1 .03.031l.313.375h.094l.344-1.25v-.062c.01-.015.017-.026.03-.031a.051.051 0 0 1 .032.031l.03.031.5.219a.055.055 0 0 1 .032 0l.25.531h.125a.055.055 0 0 1 .03 0l.876.344h.03l.5-.094a.047.047 0 0 1 .032.031l.656.782.906.281v.031a.055.055 0 0 1 .031 0l.25.625v.031l-.094.907c0 .014-.017.026-.03.03l-.407.563.062.157.031.03.813.313h.03l.75-.687.563-.25c0-.015.017-.026.031-.031a.05.05 0 0 1 .031.03l.844.5.969-.343v-.031h.03l.345-.781.5-.938v-.031l-.907-.719-.812-.812-.625-.907-.906-.625-1.5.188-.907-.375-.906-.719-.906-.156-1.344-1.719-.281-.906.281-.375.375.906.688 1-.063-1-.625-3.5-.563-.906.094.625-.812-.813-.532-2.687-.562-.813-.875.188-.906.437-1.094-2.78v-1l.188-.97.437-.906v-.906l.656-.906 1.157-3.782.625-.906.28-.875.626-.906v-1.188l-.188-1.062.563-1.813-.563-1.25.563-.625.906-.468.875.093.563-.53 1.156.624.718-.094-.374 1.094-.063 2.344.343.625.906-.188.375.094.875.188 1.625-.375.813.468.375.438h.156l.75.906.563-.281.156.906.813-.187.906.812.625 1.25.094.656-.094-.906.375.906h.343l-.28.438.28-.188.47.47-.188 2.687.343.187h.907l.375-.906.437-.438.625.875v1.094l-.625.188v.625l1 .187.625-.469 1.875.72.188-.095.625.47.187-.095-.094.188.47.906.874-.187 1.375.968.062.75-.875.063-.281.906-.188 1.438-.094 2.343.625.094.188.438-.875.468.875.188.906-.469 1.094-1.25.062-.281.906-.719 2-.719.531-.437v-.906l-1.53-1.907.718.563.812.906 1 .625.875-.187-.25-.907-1.25-1.25-.562-.812 2.062 1.812-.25-.75-1-1.156.282.094.625.906.343.156h.47l.155-.343-.875-.907-.375-.187.907.094.094-.813.531-.969.625.157.375-.25.187.906 1.438.25.906-.25 1.255-.718.906-.187.438-.813.343-.281.907-.188.812-.875 1.719-.812.625-.906-.094-.094 1-.813-.469-.53.375-.907.094-.906-.28-.25h.187l-.188-.907.469-.187-.188-.813.907.094-.094-.906.28-.156-.468-.907h-.187v-.906l-.344-.906-.094-2.969-.625-2.531-1-2.5v-.906l-.438.093-.094-.375-.625-.343-1-1.813-.187-.094-.531-.875v.063l-.282.187.188-.25-.375-.656-1.25-.437-.625-.907-.375-.093-.969-.72.094-.155-.906-.72-.625-.187-.094-.906-1.531-1.156-.72-.813-.53-.906-.188-.187h-.531l.03-.063h.282l.125.063v-.907l.187-.343-1.812-1.344-1-1.094-.438-.906h-.25l-.562-1.781.812-1.188v-1.625l.282-.719.53-.875.532-.28h.469l1.437-1.345-.094-.093.438-.907v-.812l.469-.188.187-.53-.125-.282.281-.344-.343-.094-.188-.28.906.468.907-.375.156.187.906-.187.438-.906v-.25l.375-.094v-.094h.094l-.063.032.094.812.094-.844.312-.093.906-.625 1.438-.282-.344-.343v-.032l-.844-.53-.281.062-.531.187c-.01.015-.017.026-.031.031l-.532.094a.05.05 0 0 1-.03-.031v-.031l-.094-.313-.47.25a.055.055 0 0 1-.03 0 .055.055 0 0 1-.031 0l-.125-.281-.656-.25a.055.055 0 0 1-.031 0l-.75-.469-.438-.531v-.031l-.062-.22h-.969a.047.047 0 0 1-.03-.03v-.031l-.188-1.063-.47-.875v-.031a.055.055 0 0 1-.03 0v-.438a.055.055 0 0 1 .03 0v-.03c.01-.015.018-.027.032-.032h.03v-.031c.01-.015.018-.026.032-.031l.625-.47.438-.843-.157-.156-.406-.375-.688-.25h-.03l-.25.25c-.01.014-.018.026-.032.031l-.906.093a.049.049 0 0 1-.031-.031l-.156-.406h-.031l-.781-.188-.22.25c0 .015-.016.026-.03.031h-.438a.05.05 0 0 1-.03-.03l-1.094-.563-.47-.25-.156-.375-.656-.532-.312-.406ZM1235.531 508.798l-.094 1 .188.875.343-.875-.28-.906-.157-.094ZM1255.219 519.58l.906.906.906.531-1.812-1.437ZM1222.188 520.58l-.876.718-.093.907 1.437 2.687 1.719 1.719 1.78 1.531.72.906 1.812.532.875.812 1.813 2.781.906.375.281.907v.968l.813.907.875.093 1.906 1.063.906.906.875.906-.156.907 1.594 4.5.094.906.812.062 1.813 1.094.28.906.626.907 1.969 2.156.437 1.781 1.719 2.719.375.969v.906l.625 1.187 1 .813.781.969 1.094 1.812 2.781 1.875.719 1.813 2.719 2.156 3.843 2.437 1.375 1.782.875.718v.282l.907.718.28.532.188.093.25-.906-.53-.875h.905l1.782 1.062.375-.906.906-.062.875.531.656.906.438-.906.468-3.594v-1.906l-.468-.906.094-.719.375-.875-.282-1.813.344-.906.625-.906-.156-.875-.906-.375-.188-.906-.812-.907-1-.625-.875-.187-1.375.094-1.688 1.812.625-.812.188-.907-.375-.093.906-.625.094-.907-1-.25-.438-.906-.437-1.156-.188-1.813-1.906-.625-.906.094-1.781-1.281v-.875l-.188-.563.907.094-1.094-.437.656-.907.969-.718.531-.094-.156-.531-1.719-1.907-.906.188-.906.719-1.782.625-.906-.25h1.25l.906-.375.907-.625-.625-.907-.907-.28h-.906l-.906-.626-.781-.875-.282-1-.718-.906-.907-.813-.906-.093-.906-.344-.344-.906-.625-1-.906-.719-.906.375.437.906.188.875-.813-1.062-.875-.469-.906-.875-.281-.906-.907.093-.531-.906v-.437l-1.063-1.47-.906-.437-1.812-1.53-1.781-.813-1.813-1.625-.719-.875.094-.282-.562-.906-.875-.906-.375-.875-.906-.656-.907-.97-1.343.532c-2.383-1.741-2.28.791-5.47-1l-1-.906-.905-.344-.907-.094ZM1281.5 527.142l-.906.813.187 1 .625.812.907-.812-.282-.907-.531-.906ZM1269.813 532.642l.093 1 .25-.094-.343-.906ZM1224.531 533.548l-.906.094.281.875 1.813.719.625.562h.812l-.812-.906-.907-.437-.906-.907ZM1230.219 536.61l.906.626v-.281Z"/><path fill="#8cce55" stroke="#0f380f" stroke-opacity=".145" stroke-linecap="round" stroke-linejoin="round" d="m1250.813 537.048-.907.72.375 1 .907-.095.437-.906-.813-.719ZM1288.156 537.142l-2.25 2.156-.437.907-.188.906.907-.813.093.094-.468.625-.875.812-.282.875.188 2.72.906.437.25 1.812.188.188-.563.968 1.813 1.282-.907-.094.095.906c1.852-.516 3.138 1.044 3.437 2.688l-.281 1.156v.813l.531.906.375 1.812.094 1.782.906.28.875-.187.907.282.625-.282-.282.907 1-.094.907-.531.906-.094.906.187.25-1 .281.907.25 1.875-.062.906.875-.344.907-.75 1.718.469 1.813-1 .25-.906.906.718.906.375.875-.187.125.906.875.281.907-.468.468-.72.875.376.188-.281-.375.906.062.031.125.063.719-1.813.094-.719 1.25-.718.468-.907.094-1.25 1.532-.53.53-.47 1-1.78.344-1 .907-.813.094-.344-.719-.906-.719-.375-.812-1.782-.281-1.437.28-1-.812-.094-.906.813.094-.72v-1.905l.344-.875-.875-.563h-.438l-1.906.563-.906-.282-1.875.375.719-.906-.282-.906.907-.813.625-.906v-.187l.094-.25-.563-.188-.875.188-1.094.812-1.968-.625-1-.281-.188-.625-2.25.094h-.25l-.906.343-.188.47-.343.968-.907.187-1 .532-.906.28-.875-.374-.906-.063-1.281.25-.969.532-.906-.063-.907-.719-.343-.562-.907-.531-.187-.438-.719-.469-1.156-1.875.437-.906h0ZM1254.156 539.58l-1 .437.907.188.906-.094-.094-.375-.719-.156ZM1231.188 539.673l-.876.625 1.063 1.781.906.813.438 1 .906-.094.188-1.812-1-.625-.72-.906-.906-.782ZM1260.906 540.204l.094.72.875-.532-.969-.188ZM1254.688 540.83l-.907.28.188.876.906.093.094-.875-.281-.375ZM1264.688 541.204l-.907.063-.468.906.906-.187.531 1 .281-1ZM1257.219 541.736l-.907.25.907.656.906.156v-.156ZM1254.969 542.08l-.094.906 2.687.187-.812-.812-1.781-.282ZM1235.688 546.767l.468.906-.187-.906h-.282ZM1264.406 546.767l-.468.906 1.812.438h.906l-1-.438-.906-.906ZM1235.875 548.392l-.25.906.875-.375ZM1263.5 548.392v.906h.906l-.187-.906h-.719ZM1237.5 551.173l-.438.906.157.907 1.468 1.781.626.375.718-.906-1.625-2.782ZM1269.188 553.892l-.907.531v.344l-.718.906.343.906h1.813l1.25 1.813-.094.969.906.625 1.813.906.906.187-.469-.906.375-.906-.812-.875-.907-.375-.437-.906-.375-1.782-.531-.906-.907-.531-.281.875-.969-.875ZM1241.281 556.392l.532.906 1 .531-.532-.906ZM1243.438 558.392v1.25l.906-.469ZM1279.531 558.548l-.375.094-.343.906v1.813l.874.062.907.375.906-.906.375-.906-.906-1.157-1.438-.28ZM1245.25 560.36l-.906.094 1.25 1.782v-.97l-.344-.905ZM1254.406 571.704l-.906.094.906.438v-.532ZM1275.938 574.204l-.095.813-.906.094-2.156-.625-1.813.28-.53.876v.906l-.907.375-.281.906h-.875l.812.875 1.782-.25.906.25.906.563.906-.094-.562 1.875 4.593.563.907.25 1.156.718 1.188.282 1.874.093.907-.562.625.094.718.187.907-.187 3.968.906 1.782 1 1.906.531 2.344.281.875.25.906-.156 1.813.063 2.78.562.907-.094.906-.53.875.062.907.562 1.906.719.875.25.906-.063.375.625.969.157-.688-.97-.281-.905.25-1.407.188-1.218-1.782-.875-1.906.437-.906-.094-.875.375-2.438-1.187.25-.906-.875-.625v-.719l-.906-.813-1 .094-1.781-.437-1.625-.813-.907.344-.437-.063-.531-.906-.938-.375-.875.469-.375 1.25-.875.906-1-.375-.906.188-1.781-.438-1.907.063-.906-.344-.531.187-.906-.093-1.25-1.813-.907-.719-.906.282-.812-.469-.875.187-.907-.53-.906-.907-1.25-.188Z"/><path fill="#8cce55" stroke="#0f380f" stroke-opacity=".145" stroke-linecap="round" stroke-linejoin="round" d="m1307.969 578.61-1.813.188h-2.781l-.906.563.906.781 1 .187 1.781.094.907-.625 1.812-.625-.906-.562ZM1295.813 534.267l.093.906.282.063-.375-.969h0ZM1287.188 551.548l.812.907.625-.907h-1.438ZM1284.375 582.486l-.094.187 1 .188-.906-.375h0ZM1222.5 46.205c-.675.019-1.363.217-2.094.593l2.063.25h-1.094l-2.063 1.094-2.78.25-1 .375-3.938.625-.188.906-.906.188-1 .719-.062.875 1.875-.157 1.063-.28-.875.718-.907.437-.625 1-.187.907h-1.875l-1.906.718 2.875.625h-3.063l-.875.188-.375.906 1.813-.187 1.875.093 2.062-.28.906.093 1.094.531-2-.437-3.125.343.875.563.906.156.907.469-1-.281h-.97l-.905.187 2.062.188 1.813.53 1.968.813 1.094.282h.688l1.28-.47 1.095-.187.875-.53 1.906-.345h.969l2.875-.656 1.906-.156 4.031-.094 1-.281.906-.719-1-.906-.718-1.781.375-1 .906.187.906-.281.969.094 1-.344-.531-1-1-.469-1.907-.437-1.968-.72-.907-.812c-1.319-1.773-3.07-3.151-5.094-3.093ZM1199.625 46.955l-2.25.187-.563 1 1.907.438 3.156.28.969-.093.906-.531-.094-.906-1.062-.282-2.97-.093ZM1230.219 58.392l-1 .375-1.875.25h-4.782l-.906.906-.906-.53-.969.25-.906.562-1.094.343-.968.72 1.968.905-2.781.438-1 .562-.906.875-1.875.907-1.907-.094 1 .375 1 .812.876-.812 1-.188 1 .625-.907.282 1 .187.969-.469.906.72.094.905.375 1 .969.344.375.906.969.375 1 .25 1-.53h1l.343.905h1.97l1.905.188 1.063-.094 2 1.25 1.875.531 3.969.375 1-.28 3.937-.188 1.813-.97v-1l-.719-.905-1-.72-1.063-.53-.906-.72 1.969.345.906-.438.188-2.781.437-.906.813-1v-.72l-.907-.812-.968-.25-1-.718-1.438-.563-2 .094-.875.469.188.437-.657 1-1.875-.469-.812 1-1 .72-.906.093 1-.375.187-.875.906-.656.532-.875v-.907l-.907-.625-.906-.28h-1.781ZM1201.5 59.486l.906.437.188.282.531.875-1 .375.906.53 1 .188 2.875.094 1 .531-1.906.47c2.755 1.457 6.236-.396 8.625-1.813l-.875-.625-3.344-.907-.968.094-4.157-.469-1.875.094ZM1215.438 60.205l1 .156v-.156Z"/><path fill="#8cce55" stroke="#0f380f" stroke-opacity=".145" stroke-linecap="round" stroke-linejoin="round" d="m1243.438 63.33-.438 1 1.438-.532ZM1201.313 64.955l2 .625.874.468-.874-.562-2-.531ZM1207.531 65.955l-.906.343h-1.063l1.876.375 1-.437ZM1253.875 66.236l-.531.969.437.906-.968-.188-.282-.343-1-.72-.968.345-.376.906-1 .187-.718.907.094.875 1.812.656-1.906-.469-.969.625-.469.906.813 1 1 .25-2.875-.25-.907.813-.812 1.875-.719.906-.094 1-2.062 1.875-.625 1 .625.969 1-.156 1.062.093 4.5-1.625.907-.625 5.656-.28 1-.188.906.468.969-.656 1 .094 2.875-.25 2.968-.813.907-.093.906.187 2.875-1.812.188-.907-.813-1.78-1-.72-.906-.093-.875.625-1.094-1.907-1.906-.718-.532-.875-.968-.094-1.813.344-1 .53h-.968l-1.47 1.813h-.968l.719-.906 1.343-2.781.907-.906-1-.625-1.97-.344h-.905ZM1207.25 69.205l-.062.062 1.969.563-1.906-.625ZM1272.594 77.642l-1.782.906.876.282 1.906-.813ZM1277.906 78.923l-4.781.25 1 .532 1.875.187 1-.094.625.47.906-.47ZM1274.219 86.017l-1 .813 1-.094.968-.531ZM1277.719 87.173l-.907.907.376.28 1-.28ZM1194.219 87.548l-1 .532v.906l.094-.281.906.28 1.094-.437-.125-.906-.969-.094ZM1227.344 88.642l-1.907.781-1.812.47-.969.093-1 .344 1 .375 1.969-.282-1 .532 1.906-.25 1.969-1.282ZM1191.156 89.173l-.343 1 1.343-.906ZM1220.844 93.392l-.969.375.969.25.906-.094ZM1222.375 93.486l.906.531v-.25ZM1226.063 93.486l-.97.375.907.531 1.063-.906ZM1299.406 94.205l-.343.28 1.874 1.25.907-.28-.625-.875-1.813-.375ZM1304.281 96.455l-.094.28.969.095-.875-.375ZM1228.781 96.892l-.468 1 .093.719.907-.531.375-1-.907-.188ZM1226.344 97.36l-1 .72-.907-.438-2.78.156 1 .563 1.874.437h1l1 .532-.187-.97 1-.374-1-.625ZM1220.031 97.705l-.906.093-.969.375.969.25ZM1231.125 99.236l-3 .812 1 .282.906-.282ZM1183.25 109.673l-1.813.375-1 .625-.874-.187.968.562 1.907.157.874-.532-.061-1ZM1176.125 111.298l-1 .47.906.343.907.094-.813-.907ZM1175.063 113.548l-.095.907.907.187.875-.469.094-.343-.907-.282h-.875ZM1177.844 113.548l-.907.907.907.28 1.062-.562ZM1172.438 114.173l-.907.282 1 .718.907-.625ZM1162.625 117.33l-.906.187.906.719ZM1164.875 117.517l-.875.281-.125.25h1l1.906.375-.906-.906ZM1295.906 118.33l-.906.25-.531.906-1-.156-1.157-.657-2.718.094-.719.906-.875.532-.375 1 1 .625.969-.344.906.093 2.875-.75.438.094 1.843-.844.063-.03.094-1 1-.376-.906-.344ZM1169.188 118.517l.906.438 1 .187-1-.469ZM1182.625 121.58h.062l-.969.875-.875-.344-.03-.031 1.812-.5ZM1146.438 127.142l-1.813 1.438-.188.093.563 1 1 .344 1.875.375.906-.469-.625-1.875-.812-.906h-.907Z"/><path fill="#8cce55" stroke="#0f380f" stroke-opacity=".145" stroke-linecap="round" stroke-linejoin="round" d="m1228.922 297.235.925.903 1.378.095 2.315 1.002c.653-.198 1.305-.108 1.958.023l1.029.588.988-1.115 1.366-.165.544 1.674-.809 1.447.743 1.742-1.494.717-.777.67-2.096.5c-.028.79.377 1.687-.244 2.328l1.027.386-1.266 2.263-1.118.199-1.041 2.826.08 1.806 2.74 2.357.751 2.028.014 2.189-.762 1.847-.014 1.698-1.367 1.934c.242 1.308.107 3.676.107 3.676l-.804 2.272.254 2.623-2.885-.204-3.914.389-.12-.817-2.135-2.355-1.864-4.023-.702-.364.185-1.142-1.777-.157-6.575-3.855-10.154-.948-2.346-.305-.903-1.814 1.536-3.269-.197-3.85-2.413-3.73-.628-1.748-1.01-1.216-1.848-.124-.92-1.001-1.923.066-1.923-1.089-.59-1.23-2.721-.98.53-.844-1.394-.86 2.426-.376.394-1.012 3.245-.88 2.224-1.195-.102-1.284.383-1.38-1.173-2.352 1.426-.466-.495-.826 1.428.032-4.067-3.517.037-2.21-.879-.249-.831.677.347-1.327-1.174 1.44-1.616-.731-1.032-.607 1.116-1.36-1.095-.291.838-1.53.727.07.523-.603 2.035-.733 1.59-2.127-.523-.638 1.132-.716-1.623-.777.781-1.757-.678-.705-.752-.081.49-1.589 1.771-1.583-1.378-1.419 1.07-.288-.01-1.443-.741.26-1.15-.573-1.175.766-.751-.965.912-.74.153-1.246.594-.74-1.346-2.56 1.329-1.826 3.35-2.3-1.929-2.71-1.929-.965-.381-1.106 1.118-.592-.371-.686-.59-.174.652-.871.15-.845-1.078-.337 1.2-.793 1.868-2.143 1.095-.28-.357-2.066-1.953-.038-3.608-1.075-.512-1.126-.077-1.928 1.937-2.304 1.782-1.012-1.003-1.82-3.252.189-1.708-2.497-1.427-.312-.904-1.384-1.94-.434-5.78.388-3.646-.56.83-3.148-2.106-2.907 1.781-1 4.969-2.156v-.906l.437-.156.47-.907h-1l-.907-.281-.625-.531-1-.094-.906-.625h-.875l-.907-.719-.187-.375-.094-.968-.344-.657.782-.968.906-.813.468-.906.876-.625v-.375l.75-.875.874-.563.47-.875-.095-.656-.281-.25.375-1-.813-.906-.094-.625-1-.344-.437-.469.906-.343 1.063-1.813.906-.812.906-.25.531-1 .282-.907-.375-.53-.438-.907.281-1-.28-.906-.907-.72-1.813.47-.968-.375-.625-.875-1.907.25h-1l.47-.907-.376-.625.281-.437.907-.813-.282-.906v-.906l-1.25-.625-.375-.906-.875-.72-1.812.095-.188-.907-1-.875.188-.906.813-.375-.72-.906-.968-.781-.375-.907.375-.718.062-1-.719-.907-1.062-.906-2.969-1.875.625-.812-.094-.907.344-.906-1.156-.437v-.907l-.907-.437-.718-.906.28-.438h1.97l.718-.906v-.906h.469l.969-.907v-1.062l-.344-.906.969-.813.906-.281-.156-.156-1.813-1-.281-.907-.969-.906.625-.875-2.812-.375-.156-1.812-.375-.25-.532.968-.906.563-.094-.094-.062-.094-1 .188-.906.344-1.813-.813-1.343-.25h-1.437l-.907-.719-1.438-1.812h-.437l-1-.281-.625-.875-.344-.813.875-.625-.187-.281.906-.719.375-.375 2.781-1.594.438-.656 1-.437.906-.094.906.531.438-.156-.625-.906.437-.907-.719-1 .188-.156-.344-.906-.094-.906-.625-.907-1.906-.25-1.969-1.28-1.906-.813v-.625l.906-.532.094-1 1.875.094 1-.187.563-.625-.375-1.063.718-.906-.906-.469-1-.437h-.969l-1.812-.344-.906-.375-.25.094-1-.625-1-1.72-.062-.187 2.312.282 1.907-.094.968.437.907.657 1.28.53 1.876.438.906.375.438.907 1.812.968.625.907 1.906.718 1.782-.093 2.78-.532v-.437l-.812-1.469-.875-.625-.094-.906-.469-.969-.968-.094-1-.375-2.782-.25-1.906-1.28.188-.876-.907-.906.625-.906.375-.907-.375-.968-.875-.469-1-.813.907-.437-1-.625.625-.906.906-.907.906-.718.969-.282h.906l.906-.343h2l3.032-.282 3.78.188 2-.344 1.97-.093 1.906-.47h.969l.812.376 1 .093.969-.093.75-.906.969-.094.906-.344 3.875-.281.969.187.375-.093.187-.094-.562-1.438 1-.093-1.907-.282-.343-.875-.907-.562-1.875-.094-.562-.875 1-.187-1-.375h1l.906-.344 1 .625.625.813.969.187.375-.906-.906-.469-.97-.25-.28-1-2.782-.531-1-.625 1-.188.813-.906.437.906.907-.093.906 1 .875-.282-.062-1 .969-.25.375-.906.968-.719-.875-.375.875-.062 1 .625.282-1h-1l-1.97-.438-.468-.28.906-.438 1.875.156 1.907.469 1.093-.375.813-.97.969-.374 1.968-1.438 1-.28 1.813.187.969-.625h1v-.532l2.78-.468.907-.344.906.344 1.875-.25.907.062.468-.875h1.875l5.688-.906 2.875-.719.875-.469-1.875.563-1.094-.375-.437.531-.625-.875-1 .813-.97-.72.438-.905.907-.375.968.375 2 .187.875-.375-.968-.437 2.875.25 1 .375.156-1 2 .53.875-.093.906-.437 1.906.187 1 .906-2 1.688 1.907-.813.968-.062 1-.469.907.281-.625.97 1.875-.532.906-.625 1-.281-.75.906 1-.438 1.906-.375-.906-.437.906-.188.906.188.97-.281-.907-.532 1.906-.375.969-.437.906.375.906-.281.72 1 1.812-.375-.094.906 1.343.187.094-.28-1.25-1.876-1-.094-1.874-1.28v-.97l.968.25.907.188 2.874-.188 1.25.282 2.97-.532.906.532.906-.188 1 .281h.968l1 .532.907-.188-3.969-.969-1-.625.188-1 .374-.906-1.093-.187-.438-.907.813-.875.906-.562.438-.875 1.53-1.094.907-.437-.188-.907.907.094.906-.812.969-.532 1-.28.968-.907 1-.281 1 .375 2.876-1.094h.906l.968.562 1-.28 1 .812 1.782.53 1 .188 1-.187.906.281.531.906.813.875-1-.062-1 .25-.969.812-.906.188-.907.437-1.968.188-.907.437h-.906l-.968.375.968.094 1.969-.469 1 .375 1-.187.906.187 2.782-.375-.813.907-.906.468 1.906-.187.875-.438h.906l.907.344.906-.187h.968l.907.187 1 .531-.094 1-1 .532-.688.906-1 .531-.718 1-1 .281.28.157 1.063.093 2.875-.343 1.907.187.906-.281.625-1v-.906l1.781.187h2l2.781-.344.907.094.968.344 1.438.094.906-.438.906-.187 1 .343 1-.25.875.625 1-.093 1 .812h.969l1.906 1.438-.906.906.906-.563 1-.062.969.531.719.906-.438.875 1 .375-.562.907h1l.437-.907 1-.187-.906-.813 1 .47.906.718.062.969-.156.906 1.875.281v.906l-.438.97-.906.905-.625-.625-1-.093-2.78-1.438-1.095.094 1 .625 1 .281.344 1.781.906-.812 1-.156v.875l1.875 1-.187.906-.719 1-2.781 2.25-.906.531-2.875.719-1.438 1.875-1-.25-.969.094-1.812 1.25-1 .187-.875.438-1 .093-.719.906h-1l-1.344.813 1 .625-1.906 1.156-1.875.375-1.906 1.25-.875.906-1.813 1.344h-1l-.875.375-1.906-.093-1.906 1.53-.531.876-.907.469-1.968-.094-1.625 1.875-.157.906-.906.906-1.813.907-.968.093.062.157 2.187-.063 2.782-1.531.906-1.906c2.206-.077 4.258-.01 6.469-.094l.968-.25 1.907-.906 2.78-.375.907-.25.625-.907 1 .188-1-.813.906.532 1 .28.875-.093.907-.375.53-.625 1-.187.907-.532 1.906-.437.875.437-2.781 2.25h-1.625l.906.438 1 .281-.562.906 1.719.72.53 1-.718.874-.25.906-.375.375.188.97.968.28.938.625.969.47-.344.437-.188.906 1 .344h.875l.188.906.625.531.094.094.906.094.188 1.187.062 5.125.906.25.906.563.438.03.468.063.438.625-.532.875-.375.188-1.5.718-.75-.093-.968.469-1.907.53c-.185.136-.368.23-.562.313a3.443 3.443 0 0 1-.594.188c-1.198.273-2.478.01-3.5.719a2.604 2.604 0 0 0-.344.28c-.213.212-.412.47-.593.813a5.412 5.412 0 0 0-.25.563l.625.906-.907.375h-.53l-1.345.156-.53.282-.282.906-1 .156.375.906.375.563.25.344-.188.53-.156.47-.812.906h-1l-.907-.563-.875.094-1.906-.188-1.812 1.438-1.438.281-1.875.438-.906.468-.906.188-.907-.281-.687.093-1 .907.344.875 2.437 3.062.531 1v2.438l-.062 5.406-.374 4.031-.907.469-.968.062-2 1.625-1.813.282.906.625 1.344.375-.062.437.625.906.625 1.782-.906.812.375 1.813.781.343.469.907.094 2.53.906.345.25.562.906.156-.437 1-.907-.093-1 .718.094.47-.906.812-.968.625.25.812-.438.875-.813.563-.374.968.187.907 1-.094.906.813.907-.25.968-.094.375-.281 2.782 1.625 1-.094 1.78.719.626-.282 1.271.99-.906.813-.188-.094h-1.78l-.47.907-.718.093-.907-.719-.968.25-.907-.343h-.53l.437.906-.625.875v.906l-.72.625v.094l.438.469.375.968-.906-.062-.375 1.437-.875.344v.906l.969.72.094.28.094.875 1 .375.094.907-.656.812-.907.813.188.875-.062.625-.906.562-1 .906-.282.72-.437.874-.906.094-1.532 1-.906.531-.906.281.281 1-.906.625-.813.97-.156.468-.469.969.375.906.188 1 .344.906 1.812.813h.969l.906.093-.094.97.281.905-.094.907-.718.25-.907-.157-.53.25-.095.375-.906.438.375.906.531.813 1.094.187-.094.906.531.782-.625.906-.906.562-.907.72.376.874-1.344.813-.625.093-1-.906v-.156l-.907-.094-.718-.906-.813-.094-.906-.437-.906-.72-.344-1-.906-.28-.907.187-.78.375h-.75l-.438.969.625 1.812-.188.25-.875.657-.75.875-1.343.375-.907.28-.53.876-.97.469-.625.53-.375.907-.719.907-.812-.094.281.969-.187.906.53.906-.093.094-.094.093-.906.188-.97-.656-.718-.969-.375-.906-.812-.907-.157-1h-.28l-.907.188-.719-.094-.718.907-.344.906-1.282.187-.906.25-.968-.437-2.25-.094-.907-.094-.906.532-1.156 2.25-.094.187-.625 1.219-.532 1.031.344.188.094.187.094.094.094.062v.907l1.157.187.718 1.875-1 .813-.343 1-.625.625-.094.093v.188h-1.094l-.907.437-.156 1-.625.438-.375 1 .375.906.094.625-.281.906-.906 1.625.094.157.344.906-.532.906-.156 1 .062.25-1.156-.25-.344.156-.906-.062-.563.969-.968.093-.188.906 1.344.907 1.906 1.875.875.906.563.187.968-.625.907.625 1.093.25.625.625.282.282.874.468.72.063.906.719 1 .187.343.813 1.813-.344h.968l.47.344.906.906-1.813.625.281.281.094.969-.625.906-.281-.093-.094.187-.188.906.626.907.562.343h0l-.543 1.782-2.645 2.262-.394 1.466-.933.213-.91 2.511.769 2.26 1.067 1.029-.825 2.648-2.711.895-1.24 1.209-1.099-.199Z"/></svg>