<svg width="1671.094" height="856.393" xmlns="http://www.w3.org/2000/svg" xmlns:usvg="https://github.com/RazrFalcon/usvg" usvg:version="0.8.0"><path fill="#3e73c5" fill-opacity=".429" stroke="#000" stroke-opacity=".247" stroke-linecap="round" stroke-linejoin="round" d="m1374.906 358.424-1.781-1.438-.813-.906-2-1 .282-.875.28-.188.345-.906-.094-.906.906-.438.969-.812 1.906-.375.906-.532.719-.906 1.781-.812.281-.532.813-.906 1-.344.906-.562-.094-.875.25-1.813-.531-.906.437-.969.625-.906.47-.375v-.156l1.78-1.469.907-.25h.562l-.469-.719-.343-.625v-.187l-.72-.281-.53-.532h-.032v-.093l-.062-.282.063-.625-1.157-.437h-.625.001l-.531 1.531v.531l-.469.907-.437.187h-1.188l-.094.094-.343.969-.907.625-.718.375-1.875.187h-.031v-.094l-.688-.093-1.094.281.094.719.344.718v.094l.656.781-.468.907-.813-.188c-.053-.01-.177-.057-.219-.062h-.218l-.47.156a8.27 8.27 0 0 1-.718 0c-.033-.001-.062.002-.094 0-.079-.005-.145-.024-.219-.031a5.216 5.216 0 0 1-.468-.063c-1.122-.205-1.835-.77-2.813-1.969l-1 .625-.344.094-.187.906-.25.282v.062l-1.094 1.531-.094.094-.719.719-.906.625-.906.187-.438.625-.906.563-.344.094-.625.156-.906.812h-.281l-.438.094-2.062 1.719-.094.093v.094h-.094l.437.438-.437.093.187.907.875.625.907-.094 1.187.719.969.28.906-.093-.344.719.157.906-1.063 1.781.344.907-.062.281.875-.281 1 .812-1.188-.375-.875.094-.906.469v.625l-.375.187-.625 1.781 1.906.282-.906.625 1.437.718.907-.437-.375.875 1-.719-.188-.875 1.813.781.875.094 1-.156.906.531.469-.281 1.838-2.951 4.893.038Z"/><path fill="#8cce55" stroke="#0f380f" stroke-opacity=".145" stroke-linecap="round" stroke-linejoin="round" d="m1374.906 358.424-1.781-1.438-.813-.906-2-1 .282-.875.28-.188.345-.906-.094-.906.906-.438.969-.812 1.906-.375.906-.532.719-.906 1.781-.812.281-.532.813-.906 1-.344.906-.562-.094-.875.25-1.813-.531-.906.437-.969.625-.906.47-.375v-.156l1.78-1.469.907-.25h.562l-.469-.719-.343-.625v-.187l-.72-.281-.53-.532h-.032v-.093l-.062-.282.063-.625-1.157-.437h-.625.001l-.531 1.531v.531l-.469.907-.437.187h-1.188l-.094.094-.343.969-.907.625-.718.375-1.875.187h-.031v-.094l-.688-.093-1.094.281.094.719.344.718v.094l.656.781-.468.907-.813-.188c-.053-.01-.177-.057-.219-.062h-.218l-.47.156a8.27 8.27 0 0 1-.718 0c-.033-.001-.062.002-.094 0-.079-.005-.145-.024-.219-.031a5.216 5.216 0 0 1-.468-.063c-1.122-.205-1.835-.77-2.813-1.969l-1 .625-.344.094-.187.906-.25.282v.062l-1.094 1.531-.094.094-.719.719-.906.625-.906.187-.438.625-.906.563-.344.094-.625.156-.906.812h-.281l-.438.094-2.062 1.719-.094.093v.094h-.094l.437.438-.437.093.187.907.875.625.907-.094 1.187.719.969.28.906-.093-.344.719.157.906-1.063 1.781.344.907-.062.281.875-.281 1 .812-1.188-.375-.875.094-.906.469v.625l-.375.187-.625 1.781 1.906.282-.906.625 1.437.718.907-.437-.375.875 1-.719-.188-.875 1.813.781.875.094 1-.156.906.531.469-.281 1.838-2.951 4.893.038Z"/></svg>