<svg width="1671.094" height="856.393" xmlns="http://www.w3.org/2000/svg" xmlns:usvg="https://github.com/RazrFalcon/usvg" usvg:version="0.8.0"><path fill="#3e73c5" fill-opacity=".429" stroke="#000" stroke-opacity=".247" stroke-linecap="round" stroke-linejoin="round" d="m1377.874 616.236.677 1.021a.185.185 0 0 0 .093.062h.031a.162.162 0 0 0 .062 0 .164.164 0 0 0 .031-.03.188.188 0 0 0 .063-.063.199.199 0 0 0 .031-.031c.001-.01.126-.74.125-.75l.688.125c.01.011.77.897.78.906l.563.375.063.062c.027.019.06.03.094.031h.062a.17.17 0 0 0 .093-.062.184.184 0 0 0 .062-.094v-.062c-.01-.023-.017-.044-.03-.063l-.157-.312-.219-.75.72-.281a.17.17 0 0 0 .092-.063.185.185 0 0 0 .031-.093v-.094a.261.261 0 0 0-.03-.031.261.261 0 0 0-.032-.032l-.875-.812-.781-.813v-.03l-.031-.032-.219-.781.406-.813.157-.218.843-.25h.031a.184.184 0 0 0 .062-.094.164.164 0 0 0 .031-.031l.157-.907.156-.78.812-.438a.182.182 0 0 0 .063-.032l.782-.656h.03l.625-.094a.182.182 0 0 0 .094-.062.184.184 0 0 0 .062-.094v-.093a.261.261 0 0 0-.03-.032c-.01-.022-.018-.043-.032-.062l-.937-.813v-.687l.406-.063h.031a.164.164 0 0 0 .031-.03.188.188 0 0 0 .063-.063l.532-.844v-.031l.812-.375a.164.164 0 0 0 .031-.031.199.199 0 0 0 .031-.032.164.164 0 0 0 .031-.03v-.032l.219-.75.75.156h.03a.167.167 0 0 0 .064 0 .199.199 0 0 0 .03-.03.164.164 0 0 0 .032-.032l.219-.219.062-.031.843-.313a.164.164 0 0 0 .031-.03.184.184 0 0 0 .062-.094v-.094l-.125-.656c2.404.464 3.54.536 6.063.062h.124a.17.17 0 0 0 .062-.031l.906-.531a.164.164 0 0 0 .031-.032.184.184 0 0 0 .062-.094l.25-.874v-.031l.125-.907v-.03c-.01-.024-.017-.045-.031-.063v-.032h-.031l-.625-.906a.261.261 0 0 0-.031-.031.261.261 0 0 0-.031-.031h-.031l-.875-.375a.167.167 0 0 0-.063 0h-.093l-.781.312-.813-.719a.188.188 0 0 0-.063-.03l-.25-.094.47-.375.53.843c.01.012.02.022.031.032.028.018.06.029.094.03.011.002.021.002.031 0a.162.162 0 0 0 .062 0c.01.002.021.002.031 0a.164.164 0 0 0 .031-.03.164.164 0 0 0 .031-.032.199.199 0 0 0 .031-.03v-.845l.657-.093.656.781a.196.196 0 0 0 .062.062h.03l.188.063h.031l.031.031.844.688c.01.011.02.022.031.03.011.002.021.002.031 0a.162.162 0 0 0 .062 0c.01.002.021.002.031 0 .011.002.021.002.031 0a.164.164 0 0 0 .031-.03l.75-.532.344.47v.03l.437.875c.01.012.02.022.031.032.01.011.02.022.031.03.01.012.02.023.031.032h.031a.162.162 0 0 0 .062 0h.907l.906.344c.019.014.04.025.062.03h.906l.844-.093.844.688h.03l.688.375h.031l.875.437c.028.019.06.03.094.031h.031a.182.182 0 0 0 .063-.03l.781-.407.813.656.906.656c.027.02.06.03.094.032a.162.162 0 0 0 .062 0l.875-.188a.17.17 0 0 0 .062-.031l.875-.531h.031l.938-.25a.182.182 0 0 0 .093-.063l.25-.312-.03.125-.438.875v.155c.01.013.02.023.03.032a.196.196 0 0 0 .063.063c.028.018.06.029.094.03.01.002.02.002.03 0a.164.164 0 0 0 .032-.03l.844-.375.344.75c.01.011.02.022.03.03.01.012.02.023.032.032l.53.438c.01.011.02.022.032.03.01.002.02.002.03 0a.187.187 0 0 0 .095 0l.923-.157a.17.17 0 0 0 .093-.062.184.184 0 0 0 .062-.094l.156-.906.125-.813.532-.281.156.75c.01.023.017.044.03.062.01.012.02.023.032.032.019.014.04.024.062.03.01.002.02.002.03 0l.813.157.657.813-.748.593v.031l-.812.907-.532.531a.186.186 0 0 0-.062.062v.094l.188.844v.062l-.156.625-.688-.218h-.031a.215.215 0 0 0-.062 0h-.031l-.906.28a.199.199 0 0 0-.031.032l-.907.531a.164.164 0 0 0-.03.032.164.164 0 0 0-.032.03v.063l-.187.875a.184.184 0 0 0-.03.063l.124.906v.062c.01.012.02.023.031.032a.186.186 0 0 0 .062.062.187.187 0 0 0 .125 0l.531-.156-.218.531v.031l-.346.938v.031l-.594.844-.03.031-.72.875v.032l-.437.875-.03.03-.657.376a.184.184 0 0 0-.062.094.185.185 0 0 0-.031.093c.01.012.02.022.03.031l.25.907c.01.011.02.022.032.03.01.012.02.023.03.032.01.012.02.022.032.031l1 .625.875.532.03.03.876.594v.032l.875.53h.03l.376.813c.01.012.02.023.03.032a.188.188 0 0 0 .064.062l.875.531h.03l.407.157.063.03.844.782c.01.012.02.022.03.031h.032c.01.012.02.022.03.031a.182.182 0 0 0 .064-.03l.812-.157.844.5.906.625c.01.012.02.022.031.031l.844.25.063.031.906.657.031.03.781.876.062.062v-.125l.157.282v-.344l-.145.198.156 45.78h13.969l-.188 40.5v21.595l-.01-.01v-.125c-.39-.047-.806-.024-1.813-.313h-.03l-.782-.531v-.031l-.437-.875a.227.227 0 0 0-.031-.031l-.625-.969a.187.187 0 0 0-.063-.062.227.227 0 0 0-.031-.03l-.563-.22-.625-.78h.031l-.531-.876-.062-.782.5-.843a.227.227 0 0 0 .03-.031l.064-.282a.185.185 0 0 0 .03-.063l-.093-.906v-.03h-.031c-.413-1.112-.642-1.553-.938-2.095a.227.227 0 0 0 .031-.03h.031a.227.227 0 0 0 .031-.032.227.227 0 0 0 .031-.03v-.032a.227.227 0 0 0 .031-.03v-.064c-.01-.023-.017-.044-.03-.062l-.032-.03-.406-.876a.227.227 0 0 0-.03-.03l-.907-.907a.227.227 0 0 0-.031-.03l-.875-.72-.281-.53.687.061h.062c.023-.01.044-.017.062-.03a.185.185 0 0 0 .062-.094l.281-.907v-.062a.176.176 0 0 0-.03-.094.185.185 0 0 0-.094-.062l-.72-.281h-.123l-.907.375h-.03a.227.227 0 0 0-.032.03.227.227 0 0 0-.03.032l-.563.812h-.843c-.024.01-.045.017-.063.031l-.812.407h-.969c-.023.01-.044.017-.062.03h-.094l.188-.5.906-.812a.18.18 0 0 0 .03-.062.185.185 0 0 0 .032-.063l.062-.875v-.031l.187-.875v-.062l-.094-.969v-.03l-.187-.907v-.031c-.01-.023-.017-.044-.031-.062l-.781-.813v-.03l-.031-.032-.22-.843a.227.227 0 0 0-.03-.031.227.227 0 0 0-.031-.031c-.01-.011-.02-.022-.031-.031a.19.19 0 0 0-.062-.031h-.031l-.875-.094h-.062c-.023.01-.044.017-.063.03a.187.187 0 0 0-.062.064c-.486.76-.506 1.489-.625 2.218-.116.704-.347 1.432-1.094 2.344l-.75-.25h-.124l-.907.281-.875.282-.469.125.313-.594.406-.781h.812a.227.227 0 0 0 .031-.031h.031l.875-.438c.023-.01.044-.017.062-.03a.185.185 0 0 0 .031-.064.18.18 0 0 0 .031-.062l.156-.875v-.063l-.062-.906a.227.227 0 0 0-.03-.031v-.062l-.126-.187.22-.813.28-.969v-.03l.344-.844v-.031l.5-.813.969-.812a.302.302 0 0 0 .03-.031.227.227 0 0 0 .032-.031v-.031a.227.227 0 0 0 .03-.031.176.176 0 0 0-.03-.094l-.344-.97v-.03l-.156-.719.781-.5h.031l.031-.03a.19.19 0 0 0 .031-.063v-.124l-.437-.844-.094-.906c-.01-.023-.017-.044-.031-.062l-.438-.906-.03-.031a.185.185 0 0 0-.094-.062h-.094c-.023.01-.044.017-.062.03a.227.227 0 0 0-.03.032l-.345.344a.227.227 0 0 0-.03.03.19.19 0 0 0-.032.063v.093l.25.844-.312.78-.844.5a.302.302 0 0 0-.03.032c-.002.01-.002.02 0 .03l-.657.907a.19.19 0 0 0-.031.062l-.156.844-.47.812-.874.563h-.031l-1.781.875a.227.227 0 0 0-.031.03l-.875.626c-.023.01-.044.017-.063.03l-.532.626a.227.227 0 0 0-.03.03l-.532.876v.03l-.656.844-.031.031-.969.782a.193.193 0 0 0-.062.062v.03l-.281.907v.093c.01.012.02.022.03.031v.031a.19.19 0 0 0 .093.062l-.687.313-.53-.782a.227.227 0 0 0-.032-.03l-.844-.75-.28-.626.5.157a.19.19 0 0 0 .061.03.176.176 0 0 0 .094-.03.18.18 0 0 0 .062-.093.185.185 0 0 0 .031-.094.227.227 0 0 0-.03-.031l-.188-.875v-.063l-.438-.907-.187-.843v-.031l-.094-.188v-.03c-.01-.012-.02-.023-.031-.032l-.875-.875-.031-.03-.657-.782v-.031l-.094-.875v-.031a.227.227 0 0 0-.03-.031.227.227 0 0 0-.032-.031l-.906-.906-.03-.031-.907-.438a.227.227 0 0 0-.031-.031l-.844-.281-.781-.813.594-.687h.156a.176.176 0 0 0 .094-.031.187.187 0 0 0 .062-.063.227.227 0 0 0 .03-.031c.002-.01.002-.021 0-.031.002-.011.002-.021 0-.031.002-.01.002-.021 0-.031l-.061-.906a.227.227 0 0 0-.031-.031v-.031a.227.227 0 0 0-.031-.031c-.01-.011-.02-.022-.031-.031l-.906-.532a.227.227 0 0 0-.031-.03h-.812l-.062-.75v-.032c-.01-.01-.02-.022-.031-.03a.227.227 0 0 0-.031-.032l-.875-.906a.227.227 0 0 0-.031-.03c-.01-.002-.021-.002-.031 0-.01-.012-.02-.023-.031-.032h-.093c-.023.01-.044.017-.063.031-.609.441-1.074.6-1.438.594-.364-.01-.648-.183-.968-.406-.642-.449-1.337-1.18-2.532-1.125h-.03a.227.227 0 0 0-.032.03l-.875.438h-.03l-.72-.094-.874-.781h-.032l-1-.625a.227.227 0 0 0-.03-.031l-.876-.438-.906-.437a.302.302 0 0 0-.03-.031l-.876-.344h-.03c-.01-.01-.02-.022-.032-.03l-.01-.01h0a.176.176 0 0 0-.094.03.227.227 0 0 0-.03.031c-.87.628-1.68.674-2.563.625-.884-.049-1.816-.21-2.844-.03-1.54.174-3.093.127-4.563.5l.01.01Zm6.741-17.197.813.562.875.094h.937l.938.093.468-.625.813.75-.344.907-1.687 1.062h-.97l-.78-.437-.782-.72-.343-.843.062-.844Zm-.562.906.218.625.188.437.719.563-.625.25-.72-.313-.655.219.218-.844v-.656Zm28.656 11.187.844.157.937-.094-.719.937v.532l.938.562-.938.063-1.656-.407.094-1.03.5-.72Zm-3.125 103.97.469.093-.094.344-.375-.438Zm6.469 4h.937l.906.686.938.344.844-.312v.875l-.907-.25-.968.312-.875.75-.438-.344-.906.188-.875.125-.969-.094-.844-.719.47-.843.843-.282.969-.125.875-.312Z"/><path fill="#8cce55" stroke="#0f380f" stroke-opacity=".145" stroke-linecap="round" stroke-linejoin="round" d="m1377.874 616.236.677 1.021a.185.185 0 0 0 .093.062h.031a.162.162 0 0 0 .062 0 .164.164 0 0 0 .031-.03.188.188 0 0 0 .063-.063.199.199 0 0 0 .031-.031c.001-.01.126-.74.125-.75l.688.125c.01.011.77.897.78.906l.563.375.063.062c.027.019.06.03.094.031h.062a.17.17 0 0 0 .093-.062.184.184 0 0 0 .062-.094v-.062c-.01-.023-.017-.044-.03-.063l-.157-.312-.219-.75.72-.281a.17.17 0 0 0 .092-.063.185.185 0 0 0 .031-.093v-.094a.261.261 0 0 0-.03-.031.261.261 0 0 0-.032-.032l-.875-.812-.781-.813v-.03l-.031-.032-.219-.781.406-.813.157-.218.843-.25h.031a.184.184 0 0 0 .062-.094.164.164 0 0 0 .031-.031l.157-.907.156-.78.812-.438a.182.182 0 0 0 .063-.032l.782-.656h.03l.625-.094a.182.182 0 0 0 .094-.062.184.184 0 0 0 .062-.094v-.093a.261.261 0 0 0-.03-.032c-.01-.022-.018-.043-.032-.062l-.937-.813v-.687l.406-.063h.031a.164.164 0 0 0 .031-.03.188.188 0 0 0 .063-.063l.532-.844v-.031l.812-.375a.164.164 0 0 0 .031-.031.199.199 0 0 0 .031-.032.164.164 0 0 0 .031-.03v-.032l.219-.75.75.156h.03a.167.167 0 0 0 .064 0 .199.199 0 0 0 .03-.03.164.164 0 0 0 .032-.032l.219-.219.062-.031.843-.313a.164.164 0 0 0 .031-.03.184.184 0 0 0 .062-.094v-.094l-.125-.656c2.404.464 3.54.536 6.063.062h.124a.17.17 0 0 0 .062-.031l.906-.531a.164.164 0 0 0 .031-.032.184.184 0 0 0 .062-.094l.25-.874v-.031l.125-.907v-.03c-.01-.024-.017-.045-.031-.063v-.032h-.031l-.625-.906a.261.261 0 0 0-.031-.031.261.261 0 0 0-.031-.031h-.031l-.875-.375a.167.167 0 0 0-.063 0h-.093l-.781.312-.813-.719a.188.188 0 0 0-.063-.03l-.25-.094.47-.375.53.843c.01.012.02.022.031.032.028.018.06.029.094.03.011.002.021.002.031 0a.162.162 0 0 0 .062 0c.01.002.021.002.031 0a.164.164 0 0 0 .031-.03.164.164 0 0 0 .031-.032.199.199 0 0 0 .031-.03v-.845l.657-.093.656.781a.196.196 0 0 0 .062.062h.03l.188.063h.031l.031.031.844.688c.01.011.02.022.031.03.011.002.021.002.031 0a.162.162 0 0 0 .062 0c.01.002.021.002.031 0 .011.002.021.002.031 0a.164.164 0 0 0 .031-.03l.75-.532.344.47v.03l.437.875c.01.012.02.022.031.032.01.011.02.022.031.03.01.012.02.023.031.032h.031a.162.162 0 0 0 .062 0h.907l.906.344c.019.014.04.025.062.03h.906l.844-.093.844.688h.03l.688.375h.031l.875.437c.028.019.06.03.094.031h.031a.182.182 0 0 0 .063-.03l.781-.407.813.656.906.656c.027.02.06.03.094.032a.162.162 0 0 0 .062 0l.875-.188a.17.17 0 0 0 .062-.031l.875-.531h.031l.938-.25a.182.182 0 0 0 .093-.063l.25-.312-.03.125-.438.875v.155c.01.013.02.023.03.032a.196.196 0 0 0 .063.063c.028.018.06.029.094.03.01.002.02.002.03 0a.164.164 0 0 0 .032-.03l.844-.375.344.75c.01.011.02.022.03.03.01.012.02.023.032.032l.53.438c.01.011.02.022.032.03.01.002.02.002.03 0a.187.187 0 0 0 .095 0l.923-.157a.17.17 0 0 0 .093-.062.184.184 0 0 0 .062-.094l.156-.906.125-.813.532-.281.156.75c.01.023.017.044.03.062.01.012.02.023.032.032.019.014.04.024.062.03.01.002.02.002.03 0l.813.157.657.813-.748.593v.031l-.812.907-.532.531a.186.186 0 0 0-.062.062v.094l.188.844v.062l-.156.625-.688-.218h-.031a.215.215 0 0 0-.062 0h-.031l-.906.28a.199.199 0 0 0-.031.032l-.907.531a.164.164 0 0 0-.03.032.164.164 0 0 0-.032.03v.063l-.187.875a.184.184 0 0 0-.03.063l.124.906v.062c.01.012.02.023.031.032a.186.186 0 0 0 .062.062.187.187 0 0 0 .125 0l.531-.156-.218.531v.031l-.346.938v.031l-.594.844-.03.031-.72.875v.032l-.437.875-.03.03-.657.376a.184.184 0 0 0-.062.094.185.185 0 0 0-.031.093c.01.012.02.022.03.031l.25.907c.01.011.02.022.032.03.01.012.02.023.03.032.01.012.02.022.032.031l1 .625.875.532.03.03.876.594v.032l.875.53h.03l.376.813c.01.012.02.023.03.032a.188.188 0 0 0 .064.062l.875.531h.03l.407.157.063.03.844.782c.01.012.02.022.03.031h.032c.01.012.02.022.03.031a.182.182 0 0 0 .064-.03l.812-.157.844.5.906.625c.01.012.02.022.031.031l.844.25.063.031.906.657.031.03.781.876.062.062v-.125l.157.282v-.344l-.145.198.156 45.78h13.969l-.188 40.5v21.595l-.01-.01v-.125c-.39-.047-.806-.024-1.813-.313h-.03l-.782-.531v-.031l-.437-.875a.227.227 0 0 0-.031-.031l-.625-.969a.187.187 0 0 0-.063-.062.227.227 0 0 0-.031-.03l-.563-.22-.625-.78h.031l-.531-.876-.062-.782.5-.843a.227.227 0 0 0 .03-.031l.064-.282a.185.185 0 0 0 .03-.063l-.093-.906v-.03h-.031c-.413-1.112-.642-1.553-.938-2.095a.227.227 0 0 0 .031-.03h.031a.227.227 0 0 0 .031-.032.227.227 0 0 0 .031-.03v-.032a.227.227 0 0 0 .031-.03v-.064c-.01-.023-.017-.044-.03-.062l-.032-.03-.406-.876a.227.227 0 0 0-.03-.03l-.907-.907a.227.227 0 0 0-.031-.03l-.875-.72-.281-.53.687.061h.062c.023-.01.044-.017.062-.03a.185.185 0 0 0 .062-.094l.281-.907v-.062a.176.176 0 0 0-.03-.094.185.185 0 0 0-.094-.062l-.72-.281h-.123l-.907.375h-.03a.227.227 0 0 0-.032.03.227.227 0 0 0-.03.032l-.563.812h-.843c-.024.01-.045.017-.063.031l-.812.407h-.969c-.023.01-.044.017-.062.03h-.094l.188-.5.906-.812a.18.18 0 0 0 .03-.062.185.185 0 0 0 .032-.063l.062-.875v-.031l.187-.875v-.062l-.094-.969v-.03l-.187-.907v-.031c-.01-.023-.017-.044-.031-.062l-.781-.813v-.03l-.031-.032-.22-.843a.227.227 0 0 0-.03-.031.227.227 0 0 0-.031-.031c-.01-.011-.02-.022-.031-.031a.19.19 0 0 0-.062-.031h-.031l-.875-.094h-.062c-.023.01-.044.017-.063.03a.187.187 0 0 0-.062.064c-.486.76-.506 1.489-.625 2.218-.116.704-.347 1.432-1.094 2.344l-.75-.25h-.124l-.907.281-.875.282-.469.125.313-.594.406-.781h.812a.227.227 0 0 0 .031-.031h.031l.875-.438c.023-.01.044-.017.062-.03a.185.185 0 0 0 .031-.064.18.18 0 0 0 .031-.062l.156-.875v-.063l-.062-.906a.227.227 0 0 0-.03-.031v-.062l-.126-.187.22-.813.28-.969v-.03l.344-.844v-.031l.5-.813.969-.812c.01-.01.022-.02.03-.031a.227.227 0 0 0 .032-.031v-.031a.227.227 0 0 0 .03-.031.176.176 0 0 0-.03-.094l-.344-.97v-.03l-.156-.719.781-.5h.031a.302.302 0 0 0 .031-.03.19.19 0 0 0 .031-.063v-.124l-.437-.844-.094-.906c-.01-.023-.017-.044-.031-.062l-.438-.906-.03-.031a.185.185 0 0 0-.094-.062h-.094c-.023.01-.044.017-.062.03a.227.227 0 0 0-.03.032l-.345.344a.227.227 0 0 0-.03.03.19.19 0 0 0-.032.063v.093l.25.844-.312.78-.844.5a.302.302 0 0 0-.03.032c-.002.01-.002.02 0 .03l-.657.907a.19.19 0 0 0-.031.062l-.156.844-.47.812-.874.563h-.031l-1.781.875a.227.227 0 0 0-.031.03l-.875.626c-.023.01-.044.017-.063.03l-.532.626a.227.227 0 0 0-.03.03l-.532.876v.03l-.656.844-.031.031-.969.782a.193.193 0 0 0-.062.062v.03l-.281.907v.093c.01.012.02.022.03.031v.031a.19.19 0 0 0 .093.062l-.687.313-.53-.782a.227.227 0 0 0-.032-.03l-.844-.75-.28-.626.5.157a.19.19 0 0 0 .061.03.176.176 0 0 0 .094-.03.18.18 0 0 0 .062-.093.185.185 0 0 0 .031-.094.227.227 0 0 0-.03-.031l-.188-.875v-.063l-.438-.907-.187-.843v-.031l-.094-.188v-.03c-.01-.012-.02-.023-.031-.032l-.875-.875-.031-.03-.657-.782v-.031l-.094-.875v-.031a.227.227 0 0 0-.03-.031.227.227 0 0 0-.032-.031l-.906-.906-.03-.031-.907-.438a.227.227 0 0 0-.031-.031l-.844-.281-.781-.813.594-.687h.156a.176.176 0 0 0 .094-.031.187.187 0 0 0 .062-.063.227.227 0 0 0 .03-.031c.002-.01.002-.021 0-.031.002-.011.002-.021 0-.031.002-.01.002-.021 0-.031l-.061-.906a.227.227 0 0 0-.031-.031v-.031a.227.227 0 0 0-.031-.031c-.01-.011-.02-.022-.031-.031l-.906-.532a.227.227 0 0 0-.031-.03h-.812l-.062-.75v-.032a.302.302 0 0 0-.031-.03.227.227 0 0 0-.031-.032l-.875-.906a.227.227 0 0 0-.031-.03c-.01-.002-.021-.002-.031 0-.01-.012-.02-.023-.031-.032h-.093c-.023.01-.044.017-.063.031-.609.441-1.074.6-1.438.594-.364-.01-.648-.183-.968-.406-.642-.449-1.337-1.18-2.532-1.125h-.03a.227.227 0 0 0-.032.03l-.875.438h-.03l-.72-.094-.874-.781h-.032l-1-.625a.227.227 0 0 0-.03-.031l-.876-.438-.906-.437a.302.302 0 0 0-.03-.031l-.876-.344h-.03c-.01-.01-.02-.022-.032-.03l-.01-.01h0a.176.176 0 0 0-.094.03.227.227 0 0 0-.03.031c-.87.628-1.68.674-2.563.625-.884-.049-1.816-.21-2.844-.03-1.54.174-3.093.127-4.563.5l.01.01Zm6.741-17.197.813.562.875.094h.937l.938.093.468-.625.813.75-.344.907-1.687 1.062h-.97l-.78-.437-.782-.72-.343-.843.062-.844Zm-.562.906.218.625.188.437.719.563-.625.25-.72-.313-.655.219.218-.844v-.656Zm28.656 11.187.844.157.937-.094-.719.937v.532l.938.562-.938.063-1.656-.407.094-1.03.5-.72Zm-3.125 103.97.469.093-.094.344-.375-.438Zm6.469 4h.937l.906.686.938.344.844-.312v.875l-.907-.25-.968.312-.875.75-.438-.344-.906.188-.875.125-.969-.094-.844-.719.47-.843.843-.282.969-.125.875-.312Z"/></svg>