<svg width="1671.094" height="856.393" xmlns="http://www.w3.org/2000/svg" xmlns:usvg="https://github.com/RazrFalcon/usvg" usvg:version="0.8.0"><path fill="#3e73c5" fill-opacity=".429" stroke="#000" stroke-opacity=".247" stroke-linecap="round" stroke-linejoin="round" d="M265.521 665.07h29.229v19.813h-29.229ZM453.115 664.508c-.165-.958-.15-1.938-.062-2.906.057-.633.149-1.247.25-1.875.107-.67.216-1.342.312-2l-.906-.282v-.906l1.375-1.531c-.151-3.628 2.017-7.076.531-10.594v-1.906l.344-1.813-.438-2.875-.437-1.875-.188-1.812.188-.906-.469-.344.375-.281h1.063l.468-.157.813-1 .094-.812-.188-1 1.25-.625.375-.281v-.532l-.719-.53 1.25-1.345.813-.906.906-.719.063-.094-.157-.28v-.095l.813.094-.375-.625.094-.094.718-.094.532-.969-.97.094-.093-.375.25-1-.875-.343-.719-.907-.906-.718.094-.188.625-.875-.094-.75-.625-.719v-.875l.625-1.093.906-.72.094-.812.531-.906-.468-.812-.344-.875.531-.907v-2.25l.094-.906.906-.812.281-.813-1.469-2.875-1.968-3.156-.719-1.25.906-.094 1 .187.781.188 1-.094.188.094.719.437.906-.437.906-.813.969-.812.906.094.375.094.156-.375.813-.656v-8.22c-4.288-6.69-8.298-13.62-12.5-20.374l.719-.094h.187l.156-.094v-.344l.094-.094v-.094l.656-3.062.532-3.063v-.187l.53-3.032.532-2.968.094-.563.281-.531-.281-1v-.25l-.344-.469-.375-1.062-.094-.907-1.78-1.25-.282-1.093v-.094l.281-2.594 1.97-.469.812-.094.906.375.187-.53-.093-.72-.907-.718-2.156-.094v-2.97l1.25-.28.906.187h4.407l.906-.281-.188-.25.907-.094.906.531.875-.719.812-.906h.094v-2.531l-.719-.719h-.906c.11-.288.256-.52.406-.719.151-.199.3-.363.47-.5.251-.204.518-.354.75-.5v-2.5l-.626-.625-.344-.906-.093-.187-.375-.813v-.875l-.344-.469.25-.906v-.875l.094-.375.093-.281-.093-.531v-.907l.906-.718-.094-1.157.625-.625v-1.343l-.25-.188-.906-.281-.906.375h-.72l-.905.25-.907-.094-.53.187-1.813-.25-1.063.532-.906-.094-.438-.532-2-2.53-.25-.282-.562-.719-1.063.094-1-.531-.906-.094-1.687.437-.094.094-2.719-.25-.875.094-.625-.187-.469-.906-.187-.625-.875-.094-.188-.094-.187-.907.094-.875v-.718l.187-.188.25-.906-.25-.906h-.094l-1.093-1.157-.625-2.062.187-.094-.906-.469-.188-.344-.906.438h-.875l1.063-1.719.718-1.156.094-1 .375-1.781-.094-.188.625-.906.532-1.156.625-.907 1.093-.468 1.313-2.063 1.75-.687 1.594-.47 2.562-.124-1-2-3.687-26.844-.031-1.344-.813-1.125.625-1.03.281-.813-.562-.5.719-.532-.188-.968.125-1.344-1.094-2.47-2.78-11.3h23.561l-.156-116.262.906-.375.907-.094.437-.906-.437-1.156-.47-.532-.25-.094-.468.25-.344-.53.188-1.782-.094-.188-.375-.062-.531-.125-.906-.812.28-.438-.093-1.812-.093-1.344v-3.969l-.72-.53v-.095l-1.437-1.062-2.968.968-.72-.625c1.133-.306 1.803-.557 2.25-.812.14-.08.282-.168.376-.25.661-.575.345-1.245.781-2.625l.906-.281.438-.157h1.812l.625.438.281.187 1.532-.187.906-.344h.062l.282-.094 1.656-.437 1.906.187 3.125.844 2.594-.875 2.5-.813 3.219-1.062 1.156-.719.728-.268 4.277 9.735 3.892-.248 2.225-6.014-3.769-12.942-.312-.781-.094-.656-.25-.563.219-1.906.275-.461-.387-.49.356-.535.473-.508-.747-.547-.187-.41-.172-.511-.218-.5-.285-1.037-.152-.673-.501-.528-.163-.592-.003-.372-.394-.381-6.655-.156.438-.28-.532-1.782-1-.188-.25-.906.907-.719 1.78-.187-.624-.813.281-.875-.469-.906-.906-.281-.437.812-.907.625-.25 1.72.25 1.812v.875l-.187.187-.625 1-.25.906.344.625-1.438 1.063-.531-.875.187-.906-.812-.47-.625-.874-.906-.719-1-.187-.813.968-.625-.25-1 .25-.719-.875-.718-.375-.532.72-.625-.907.344-.875-.156-.719.156-1.812.469-.375-.906-.875-.813.968v.47l-.906.437-.906.28-.157-.093.094-1.25.438-.906-.094-1 .375-.907-.188-.156-.812-.906-.906-.281-.813-.438.281-.906-.28-.219-.438-.312-.625-.907.25-.906.812-.469.094-.062-.094-.156-.437-.75-.094-.906.531-.156 1.281-.375.875-.188-.875-.719-.656-.906-.344-.812h.813l1.156.812 1 .719.906-.156-.562-.907.281-.28v-.188l-.375-.344.281-.906-.53-.907.812.47 1.687 1.687 1.281.468.625.344.625.906h1.813l.437.188h.907l1-.281c.426.092.725.121.968.156l.813-.156c.05-.01.162.016.406.094l1.656.625.813.28 1-.812.625-1.812-.344-.875 1.688-1 .28-.094-.28-1-.875-.625-.563-.719-.906-.906v-.875l1.094-.563h-1l-.875-.25-.813-.562-.719-1.781h.438l.906-.094-1.094-1.813.188-.344.906-.718v-.907l.438-.625.375-2-.188-.875.094-.468-.813-.907v-.25l-.906-.28-.437-.907-.72-.719-.374-.25.906-.812.625-.907 1.25-.625-.969-.468-.093-.875 1.062-.375h.906l.188-1-.906-.157-.72.344-.905.531-.72-.875-.874-.094-.75-.28-.969.093.344-.906.906.187.531.282-.25-2.532.813-.906-.906-.094-1 .188-.188-1 .094-1.782.562-.187-.906-.438v-.28l2.668-4.068-1.92-1.645.212-2.196 1.79-3.29-2.102-3.156 2.716-3.051-.338-3.626 1.835-3.228-2.393-5.053-1.629-.798.985-4.2 4.168.409 1.532-.617 1.042-1.557.807-2.233 2.969-1.816 1.224-1.88 1.255-.886.076-1.796 1.974-1.03.962-2.614-5.354-5.44-4.893-1.438-1.659-2.09-2.706-1.097-.281-1.152-2.618-1.228-2.569.106-5.615-3.37-2.235-.374-.598-1.957 1.312-.935 2.352-.373-.237-1.64-.778-1.184-1.224-.797.521-1.757-.653-2.163-.984-1.666-1.896-1.396.032-1.937v-48.563l-3.219-.625h-.812l-.375-.719-1-.094-1.875-1.062-1.969-.657.156-.968 2-.469.97-.719.905-.25.907.156h1l1.062-.25-.719-1-1.78.438h-1.095l-1.968-.156-3.782-.813v-.906l.97-.906.905-.344h-.906l-2.594 1.781h-1l-.968-.25-.907-.719.907-.28-.907-.282h-1l-.906-.625.813-1 1-.25.906-.469 2.781-.437 2.344.093 5.75.625h1l1.875-.343 1.531.25v-.188l-1.531-.25h-.969l-.906.188-2.875-.282-1-.437 2.875-.906 3.969-.188.437.031v-1.5l-.094.032-3.937.343-.375-.875h-1l-.531.875-1.875.47-2.875-.813-.907-.094-1-.438 1.97-.562 1-.875-1 .344-1.876.28h-1l-.969-.468 1.97-1.062h.905v-.188l-1.812-.187-1.781.812-2.188.188-.875-.438.969-.75-.875.094-1-.531-.906.28-.907-.187-.968-.53-.813-.907-1-.188-1.875-1 .969-.437 1-.906-1-.344.625-1 .906-.906 2.875-.344 1-.563.906-.156 2.97.156.905-.875 2.875-.468v-.344l.344-.094 2.969-.281.906-.438 1-.187-.906-.906 2.875-.813 1.531-.25h.438l.5.125 1.937-.906V50.472l.625-.375.906-.187 1.907-.719.968-.531.907-.813 1-.53c2.57-.788 5.597-.836 7.656-2.876l-.188-.906c-4.67-.139-9.183 1.481-13.78 2.062v-.812l4.062-1-2-.531-2.063.093v-.53h.094l4.781-.282.969.094.906-.344.906.25 2.063-.531-2.969-.094 2-.281 1.781-.438 3.97.281 2.78-1 1-.53 1.875-.376 4.875-1.719 1.97-1.25 1-.187.905-.344.782-1-.157-1-.906-.625-1.344-.531h-3.156l-1-.438-1.062.094-1.907.781-1.062.094 1.062-.25.47-1-1.095-.625-.906-.812-.969-.532.97-.28.093-.907-1-.188h-1.063l-.906.094-1.062.469-1 .093-1.813-1 1-.093-1-.344-.969.156-.812 1-.906.188-1-.625-1.875.344-2 .625-.875.562-2 .156-.907.375h-.531v-1l2.438-.531 1.968-.719.719-.625-.969-.281-1.906-.187-1.156.187-1.094-.187v-27h-69.437 0v.003l.062 32.344-.156.125-10 .125-1.531-.094v.125h-.313v149.063l-5 4.312-14 25.313v38.156l-3.906 4.51.01 14.05h3.889l2.269 2.29v1.857l-2.251 2.305v1.702h-4.388v4.84l-2.286 1.237-1.373 1.63v1.41l1.238 1.545 2.21 1.59v7.798l-4.423 1.43-.154 1.199v2.869l4.695 1.687.564 1.395 1.625.094.344.094-1.875 4.125.625 3.031.875 1.469 1.28.062 1.032.875 1.094-.406h3.562l.344.937.969-.03.969.624.28.844.938.406.313 1.344 1 1.406 1.25.031 2.5 1.188-.906 1.406-3.282 8.344-.156 9.937 1.875.125h1.438v.281l.187.625-.906 1.063-.625.719-.531.28-.188 1.626-.625.969h-1.969c-.077.655-.085 1.419-.062 2.218.043 1.602.201 3.342.094 4.688-.04.503-.119.952-.25 1.312-.045.12-.1.244-.157.344-.05 1.194.477 1.76.407 2.469-.015.14-.053.28-.125.437-.14.325-.4.684-.907 1.157l1-.375 1.063-.188 1 .563.25 1.156 1 .281-.094.969.906.719.532-.813v-.156l1.093.812.25 1.063.657.906.875.438 1 .094 1 .375.437.718.531-.094.907-.094v.282l.375.343.625.813h.812l.344 1-.813.906.657 1.25-1 .531.093 1 .813.907-1.094.718-.531.625-1.906 2.875.093.094-.187.344-.344.188h-.531c.596 2.623 1.104 5.038 1.531 7.656.173.794.238 1.51.344 2.219.049.337.106.676.187 1.03v.157l.813 1.719v.094h.093v.094l.094.344v.094l.25.906a2.508 2.508 0 0 0-.906 1.437c-.002.01.002.022 0 .031-.005.02.004.042 0 .062-.124.562-.1 1.14.187 1.625l.094.188-.281 1.594.281.718.094.282.187.28v.157h-.093l.093.094.094.375.25.625.188.375v.062l-.188.375-.344.531-.093.47-.625 1.78.25.375.187.094v1.063l-.187.187-.438.188 1-.094 2.25-.906.063-.438h.375l.906-.562.906.094 1.594 1 1.187 1.78.907.72.25.468 1.812 1.157.531.906v1.812l-.625 1.875-.093.907-.282.53.563 1 .625-1-.375-.812.656.907.156.906-.25.344-.187.906.437 1.094v17.968H380.74v9.349h-5.451l-.033 1.096-.567.615-1.047.157-.448.538-.384.908-7.743 7.733v8.408l1.069-.15 1.007-.12 1.487-2.591 1.44.146 1.143 1.687h25.113v37.045l.976 1.96-.187.282-.813-.438-.437.157.156.28-.437 1v1.063l.906.563.094.156-.563.281-.344.375.344 1.063v.375l-.25.156-.187.094-.188.625h.094l.281 1.188.188.094 1.78 1.437v6.25l-.187 338.594h69.563v-16.407l-.922-.825-5.344-2.198-4.12.134-1.3-1.225-6.116-2.469-1.282.323-2.943-1.388-.464-.755-1.748-1.219-.499-.868-1.24-.841-.955-.825-1.073 1.004-.859-1.01-.57-3.047-1.579.213-1.558-1.963-.335-1.447-1.74-1.994-.041-2.604c-1.106-1.167-1.453-1.954-1.923-2.802l-.664-1.753.485-2.542-.64-2.594-.971-.7.643-1.542-.329-1.985a20.172 20.172 0 0 1-.914-6.984l.364-3.09-.707-10.341 4.351-17.771 1.832-1.845.584-1.472.235-1.206.12-3.065.69-1.767 1.013-2.065-.924-3.363 1.471-5.059.177-1.114.698-.056-.027-1.202 1.402-.796-.855-.851-.571-4.137.136-2.94-.802-1.268-.08-1.905h-35.81V667.61h51.245l.813-.875v-.907ZM445.178 86.1l3.843.625-.968.719-1.907.187-1.968-.718Zm4.562 0h2l2.969.438-.906.28-2.782.188-1-.562Zm6.688 8.375 1.062.531-1 .094-.969-.187v-.25l.907-.188h0Z"/><path fill="#8cce55" stroke="#0f380f" stroke-opacity=".145" stroke-linecap="round" stroke-linejoin="round" d="m453.375 25.736-2.969.156-1.906.906.906.532 1.969.812h-1.063l-1.906-.344-1.062-.625.25-1-1.063-.343h-1.094l-4.03.437-2.97 1.344 1.782 1.531 3.062.906-1 .188-1.875-.375-2.875-1.063-.812-.906-1-.719-.969-.375-2.094-.25-2.406.157-3.25-.25-1 .093-.906.25-3.125.094-1.188.625.906.375 1.094.188.969.53 1 .813 2.063.157-1.063.75 3.781 1.25-.906.187-1.906 1.156-.969.438.625-.969.969-.719-3.031-.718-2.907-2.344-2.969-.531-.968.437-.906-.094-1-.718-.907.093-1.062.625-.625-.906-1.094-.25-3.156.438-.969.375.875.78 2 .188-1 .094 1 .906 2.063.438 2.062.187 1-.093-.906.28-2.969-.093-2.156-.437-1 .437-.875-.906-1-.531-1.969-.282-2.25-.093.156.906 1 .469 1.875 1.25-.969.718-2-1-3.03-.53-.907.093-.188.906 1.875.813h1l.907.156-1.25.094-1-.188h-2.063l-.281.219-.156.125-.031.031-.625.344.093 1 3.781 1.531 2.97.719 1.874.906 2.906.531 2.97 1.438.968.906h-.969l-2.906-1.812-1.969-.063-.906-.469-.875-.093L400 36.517l-2.781-1.25-.906-.094-1.094.72.906.53.906.907 1.969.093 1.094.532-.906-.25-4.032-.282-.093-.906-.907-.437-.718-.907-1-.53-1.782-.47-1.094.094-2.062-.437-1-.375h1l.094-.344-1.532-.094v.125h-.312v4.969l.281.031h.125l.969.438v.906l-.438-.906-.625-.063v.625l.157.344-.157-.156-.03-.032-.282-.25v7.032l.281-.032h.125l.875.47-.969.187-.312.062v1.938l.281-.032 7.313-.625 2.875-.562 1.812.094-2 .562-1.875.094-1.969.344h-.03l-2.063.093-2.782.438-1.093-.063h-.157l-.312.063v5.687h.312l.907-.187 1.875.094 1.875-.188 1-.531.375-1.813.875-.437 1 .094-1 .906 1 .062 2.969-.53 2.875-1 1 .28-1 .625-1.063.375-2.063.25-1.906.657-.187.875h2l4.844-.532 3.78-.718 2.97-.813 2.875-1 .812-.875 1-.469-.469-.875 1-.656-.906-.344-.969-.718.875.437 1.906.531 1-.156.25-.906.907-.375 1.812-1.156 3.938-1.094 1.094.094-1.907.718-1.875.47-1 .905-2.875 1.875-.906.438-.344.906.188 1 3.937-.531 1.906-.094 1.875.25h2.063l1.094.469-5.313.156-2.062.281-3.063.532-3.969 1-.906.625h6.125l2 .28-.562.188-4.938.094-4.062.25-.969.531-.906.188-1.906.094-3.938.53h-1l-2.969.563h-1.094l-.875.72.875.812 3.782 2.25 1.906.343 1.063.375-.875.813-.188.875 1 .562.875.094 1.813.625 3.875-.562.968.093-.969.47-2.437.343-1 .375-3.063-.625-.968.156-1-.719-1.625-1.78c-7.959-2.562-4.503-5.273-13.031-4.25-.114.005-.206-.002-.313 0v7.03l.313.282.625.875.906.468.969.813.187.875.719.906 1.094.375 1.78.969 1 .281-1 .094-.874-.188-1.094-.625-1.906-.437-.969.437.25.907c2.459 1.09 5.184.716 7.75.812l1.969.531 1.906-.343 1-.907.875-.28 1-.095-1 .907-.531.906h-1l-1.969.344-1.875-.157-.906.532 1.875.718 1-.28.906.374-1 .625.719.906-1-.28-.969-.813-1.906-.532-.906-.53-.97-.188-1-.47-3.874-.25-1.781-.468h-.313v6.094l.281-.375v-.031h.031l.063-.094.375-.906.906-.907-.531.907-.094.906.188.062.781.188-.063.031-1 .344.282.906h1.781l.938.531-.313-.093-1.531-.344-1.781.344.156 1 1 .093 1-.28.875.093h-.875l-.906.469-1.25-.094-.313-.031v1.375h2.532l-2.22.187-.312.031v2.563l.281.094h.031l.344.093 1.938-.78-.844.687-.188.875h1.875l1.813.25.281.03.875-.343h.031l.97-.656 2.343-2.781.969-.438-.156-.906.968-.531.156.03.75.126c-.005.007.005.024 0 .031-.164.262-.362.493-.53.75-.467.713-.937 1.415-1.47 2.063-.243.296-.486.602-.75.875-.14.144-.291.27-.437.406-.13.121-.271.23-.406.344-.13.11-.271.21-.406.312-.03.022-.064.04-.094.063-.248.183-.484.374-.75.53-.101.06-.208.102-.313.157-.172.095-.351.198-.531.281-.275.129-.54.252-.844.344l.875.688h-.062l-1.844-.344-2.875.094.375.875v.03l-1-.28-.906-.532h-.188l-.28-.03V97.36h1.999l1.094-.281-1.969-.72-.812-.624v-.906l.812.468.875.813 2-.281-.469-1.907 1 .282.375 1 1.875.968h1.907l-.282-.875-.53-.906-.188-1 .906.813.625.906.031.156v.031c.026.227.081.45.156.657.003.008-.003.022 0 .03v.032l.969.438h1.906l.969-.907.094-.875-.907-.375-.875-.625-.187-1 .719.907.906.625 1.781-.25.188-.032-.188.094-.812.469.093.906c.635.12 1.27.232 1.907.344l1.875-.281 1 .187 1 .531-1.282 1.907.282.906c1.865-.465 6.47-1.86 8.093-1.719l.532-1 1.093-.625.532-.906 1 .094.093 1 1.875-.72.532-.905 1-.625.093-1-.187-.907-.813-.875-.875-.375-1 .375-.718.875-1 .657-.907-.188.094-.906-1.969.094 1.719-1.813-.813-.875-1-.281h-1.875l-2.343 1.156.625-.969-3.875-.625-3.781 1.063-.625-.906-.907-.438h2.875l.906-.625-.906-.187-.969-.532.344-.906-.812-1 2.875 2.063 1.906.812.969.281 2.812.375 1.25-.375 1.906.282.97-.094 1-.625 1 .437.874-.437 1-.719 1-.281.344-1 .906-.625-1-.906.188-.875-1.969-1.282.969-.625.906.438 3.875.094 1 .375.906-.375.969-.094 1-.531.906.093.969.375.906-.812.094-.906-3.781-.282-1-.812h2.812l1.781.281h1l1-1 .97-.625-1.876-.625-2.062-.281-1-.344-1.907-.375 1-.187 1.094.093.875.282h1.906l2.063-.188 1.906-.719-.906-.437.437-1.813-1.968-.625-.907-.093-4.78.187 2-.437.905-.563-.906-.25-1.906-.281h-2.063l-3.968.531-2.782 2 .625-.906 1-.813.813-.906-2.969-.344h-1.906l2-.187 1.969.187 1.968.532 2-.532 1.782-.187 2 .094.968-.282-2.875-.53-.968.093-2-.281-3.782-.188 2-.156 2.063.062.906.188 3.063-.188 1.875.094.906.906.906.375 4.406.438.907-.094-.469-.906-1-.625 1-.531h-5.937l-.906-.282-1.875-.187-3.782.187-1-.437-.906-.188-.875-.437.969.156h1.094l.906-.156-.281-.906 1.968 1 2.906.062.875-.25-.812-1-2.875-.187-.906-.344h1.906l2.063.25.906.656.906-.187 1.781.625 1 .093h1l-.093-.906.968-.094 1 .375h2l.875-.28v-.907l1 .562 1.969-.093.906-.47-.187-.874-.875-.813-1-.468-1-.094-.906-.25h-2.97l-.968-.563 1.969-.156 1-.281H437l1.969.531 2.969.188-.094.906 1.094.531 2.78.094.907-.281 1.063-.063 1.906-.656.969-.531.375-.907h-1.094l-.875.188.969-.813 1.812-.187.344-.094.562-.531.344-.438-.906-.53-3.063.624-3.937.156-.906-.156 1.968-.187-1.062-.72-1-.468 1.906.188.875.625.906.187 3.875-1 3.063.094.531-.875-1.969-.656.094-.97-1-.812.906.094.969.625-.063 1 2.97-.187.968-.282 1.719-1.78 2.062-1.376 2-.969.969-.28.906-.532 1-.375.344-.25.625-.375.906-.188 1.906-.718.97-.532.905-.812 1-.531c.322-.099.636-.201.97-.282.322-.078.67-.147 1-.218 1.015-.221 2.061-.433 3.03-.782.324-.116.631-.254.938-.406.613-.304 1.204-.677 1.719-1.187l-.188-.907c-1.752-.052-3.467.143-5.187.438-.584.1-1.168.195-1.75.312-1.134.229-2.274.49-3.407.72-1.142.23-2.288.448-3.437.593l-2.625.719-5.906 1-2.906.968h-.438l.969-.437-1.781-.281 8-1.438 2.968-.906 1.719-.438 4.063-1-2-.53-2.063.093h-.906l-4.031.437-.157-.03-.75-.126h.156l-.156-.031h1.063l-.906-.969-1.97-.719.907.094 2.875 1.25h.906l2.969-.469v.032h.094l4.781-.282.969.094.906-.344.906.25 2.063-.53-2.969-.095 2-.28 1.781-.438 3.969.28 2.781-1 1-.53 1.875-.375 4.875-1.72 1.969-1.25 1-.187.906-.343.781-1-.156-1-.906-.625-1.344-.532h-3.156l-1-.437-1.063.094-1.906.78-1.062.095 1.062-.25.469-1-1.094-.625-.906-.813-.969-.531.969-.281.094-.907-1-.187h-1.063l-.906.094-1.063.468-1 .094-1.812-1 1-.094-1-.343-.969.156-.812 1-.907.187-1-.625-1.875.344-2 .625-.875.563-2 .156-.906.375h-.531l-2.344.094-3.062.343.906-.53 1-.282 1.875-.281 1.625-.344 2.437-.531 1.97-.72.718-.624-.969-.281-1.906-.188-1.156.188-1.094-.188-.906-.187-.969.093-1 .375-1-.812-.875-.094-.906.375-1-.094-.907-.468-2.156.375-2.062-1.344h-1.969ZM385.75 66.955v1.093l.313-.125h.093l-.094-.25-.187-.656Zm48.625 5.937v.813l1-.657ZM385.75 84.955v1.125l.281-.125v-.032h.031l.594-.375-.594-.437h-.03v-.031l-.25-.125h-.032Zm17.75 13.468-.875.094-.094.281.969-.375Zm10.531.657-1.969 1.062-.906.906v.907l1-.47 1.781-.093-.875-.781.875-.563.375-.906-.28-.062Zm-15.75 2.687-1.969.438-.906.375h-1.875c-4.461-2.004-2.812 1.14-7.469.906l-.312.156v9.781l.031-.062.188-.875.093.437.094.438.969.75 1.906.062.969-.062.906-.281h1l1-.282.875-1.78-.875-.657.875-.063 1 .157.094 1.812 1 .813.875.187.906-.094 1.906.532h1.875l1.907-.813.875-.187 2 .187 1.875-.187.093-.875.375-.907-.906-.812 1.531.344 2.875-.438-.625-.906-1.094-.531-.906.187-1.156.531-1-.625 1.906-.625.969-.718.906-.282v-.906l.469-.906-1-.719h-2.344l1-.531v-.188l-.906-.625-.906-.187-1-.156H403.5l.562-1-1.906-.532h-1.969l-1.906-.28ZM385.75 120.58v1.468l.031-.03.281-.282.625-.625-.625-.344-.28-.187h-.032Zm21.531.343-1.875.094-.281 3.781.906.469 1.969.344.375.906v.906l.625.969.188.563.968.343.906.625 1 .188 1.875-.438c4.84-2.5 8.747.383 13.157-.562l-.719-.969-.094-.906-.906-.531-.344-1-.718-.907h-.907l-.812-.968-.906-.657c-6.974-3.442-6.49.588-12.5-1.875l-1 .094-.907-.469Zm34.313 20.72-.031-.188.187-.907-.906.625-.094-.968-.531.875.187.906.907.562.343-.093-.062-.813Zm-30.531-9.095.28.907-.093-.907h-.187Zm2.78.094.188.906 1-.375-.906-.531Zm29.094 6.75-1 .094.094.875.969-.063-.063-.906Zm-57.187 1.938v1.28h.031l.25-.093v.031h.031l.625-.281-.625-.812-.093-.094-.219-.031Zm.125 2.28-.125.032v.125l.125-.156Zm61.188.813-1.813 1.25.75.907 1.969-.625.906-.094.25-1-1.875-.25-.188-.188Zm6.125 3.969h.093l.656.719.063.156-.813-.875Zm-64.782 6.125-1 .156-.906-.093-.438.375-.312.218v5h.125l.188.188.718.625.969.437-.969-.093-.719.28.907.438-.906-.062-.313.219v.75l.313.187.906.094-.906.344-.313.03v14.282h.313l1.437-.187-.906-.063 1-.187.875.187-.531.063.906.375-.094 1 1 .718.906-.625.625.875-.093.907.906.28.719.907.875.344 1.812-1.438 1-.093.906-.532.875-.812.907.187.812-1.812.906-.438h.907l.812-1 .781-2.78-.718-.907-.97-.531-1.812-1.625-.718-.907.187-1 .438-.875-.907.782-.25-.875-.906-.563-.188-.875h-.437v-.906l1 .437H399l1.094.375.906-.906h.906l.969-.531.469-.906-.281-.907-.907-.187-1-.438-.875.094 1.781-1 1-.719-.375-.906-2.78-.531-.907.375c-.652-2.584-3.019-1.886-4.563-2.531l2.782.28-.375-.905.906-.188h1l-1-.094-.906-.437-1.875.156-.906-.156h-1.875l-3.782-1.344Zm8.531 0 .094.25.906.188-1-.438Zm13.938.438-1.688.625-1-.532-.906.094.094.875-1-.438-.875.282 1.875.625 1 .812.812.25V156.392l.907.187h.968l.907-.562-.188-.875-.906-.188Zm-18.25.093-.906.531.906-.343Zm25.188.438-1.875.812-.907.906.906.438 2.782-1.25Zm46.718.625-.906.812 1 .281.063-.03v-1l-.157-.063Zm-41.937 1.906-1.094.344-.094.906.188.906 1 .438h.906l.156-.875.906-.656-.093-.875-.906.156-.97-.344Zm-6.313.438-.906.375-1.25 1.78-.906.188-.813 1-.437.907.906.156 1.875-.813 1.531-1.78.906-.813-.187-.907-.719-.093Zm15.219 5.687-.906.531-.094.907 1.906 1.437h.813l-.375-.906-.094-.906-.344-.907Zm1.875.063v.906l1-.156Zm-17.719.375-1 .625.094.906.906-1.531Zm19.813 1.343-.094.813.969.906v-1l-.875-.719Zm-35.656.907-.907.093 1 .094-.093-.188Zm13.5 0-.344.28.156.97.906-.094.281-.875-1-.281Zm14.75.093-.875.344-.907-.25-1.906.719-.813.906-1.25 1.781-.437.907-.188.906.375.969v.906l.157.093.375.907.969.531.906.094 2.719-.282.968.094 1.906-.812.907-.532.875-.625.375-1-.531-2.78.53-.907-.374-.906-2.781-.97-1-.093Zm7.406 1.344-.906.813h-.907l-.187.906.625.906.906.531 1.906-.093 2.781.187.094-.906-.469-.906-.718-.094-2.782-.438-.343-.906Zm-49.063 9.906-.344.25-.312.219v3.563l-.656.562.969.344 2.343.812-.281-.906.094-.875.625.875 1-.156.875.719.906.437.094-.906-.532-1.063-.906-.906-.281-.906-.875-.281-.813-.97-.906-.562-1-.25Zm7.563 4.5.719.907.906-.282-.719-.093-.906-.532Zm-5.5 1.532.281.906.906.344.344.906.719.906.906-.375.094.906.906.094.906-.531-.906-.188-1-.531.281-.906-.906-.563-.625-.344-1.906-.625Zm-2.313.968-.906.282.094.906.25.906.906.438.531.906.906-.625-.906-1.813-.625-.906-.25-.094Zm11.813 15.72-.25 1.812.906.062.969-.156.906.531 1.813.438 1.875.812 2.687-1.781.906-.281-.719-.907-.906-.156.188-.906-.906-.719-.97.719-1.812-.625-1 .437-.875.188.813-.906-.469-1.813v-.875l-1.875-1.531-.906-.563-.906.188-1-.344-1.25-1-.907-.375-.625-.875-.906-.562-.969-.094-1.812-.438-.344-1-1.906-.625-.531 1-.907.25-.281-.875-.875-.718.719-.907-.656-.906-1.782-1.531h0l-.906.531-.906.813-.625 1.812-.344 1.875.156.906-.344.907.25.906-.875 1.875v2.719l.625.968-.906.813-1.812.719-.875.718-.906 1-.094.907 1 .343.875-.156.906-.75 1.906.188.907-.344.968-.094.375-.469.532 1-.282 1.813.094.906.469.969c2.761.305 4.433-1.173 5.75-3.406h.906l.906-.813.875-.531-.415-1.172 2.739-1.51-.379.797Zm-4.281-14.626-.97.375.97-.094v-.28Zm26.468 13.875-.906.625.906-.469Zm1.906 2.5-.906.094.531.906 1.813 1.063.969.28.093-.812-.625-.906-1-.437-.875-.188Zm-4.593 1.344-.906.281-.094.906 1.812 1.625.875.063 1-.438.375-.906-.656-.969-.875-.28h-.906Zm-18.281 3.875-2.782.281-.906.531h-.906l-.906-.343-.875.875-.282.906-1.531 1.437 1 1.813h.906l.969-.281.906.53 1.813-.968 1.687-1.812.906-.25.907-.75v-1.875l-.906-.094Zm52.28 1-.906.25.907.562.281.907 1.875.53.906-.53-.812-.907-.906-.375-.438-.25Zm-16.718.719v.53l.875.282 1-.375-1-.094-.875-.343Zm-13.188 1.28c-1.422.074-2.748.622-3.843 2.032l.093 1.906.813 2.25.906.188.906.531-.093.906-.906.157.187.906v1l-.469.906-.969.813-.093.875.906-.157v.532l.875.28-.25.876.906.469-.812.906 1.344 1.875-.907.375 1.813.437-.813.625.344.907-.906.718.906.813-.906-.719-.875.281-.625.875.25.907-.344.625-1.906 1.53-.188.907-.875.281.063.875.187.907 1.813 1.093.344.532 1.812.718 1.875 1.438 1.906 2.719 1.25 3.687v4.313l-.093.906-.72 1.875-1.687 1.719-.562.906-2.781 2.25-1.625.812c-2.078 1.558-4.897 1.639-7 3.125l.53.907.282.906.719.906.437.969.907.187-.375.907 1 .53-1 .72 1 2.812-.188.875.531.906-.25.532.25 1 .563.906.531.344.281.906.532.906-.625.438-2.094 2.812 1.469 1.438-1 1.062.28.906-.374-.093-.531-1.782-1.813-.812-.625.906-.281.156-.344.907-.187.906 1.437 1.625.375.906-.906-1.469-2.25-1.875-1.906-.375-.875.72-1.813 1.093 1.719-1.531.969-.438-.25-.906-1.094-1.906-.906-.625-.782-.907-.906-.156-.906-.906h-1l-.906.281.093-.375 1.625-.531-.344-.906-2.718-2.688-.532-.375.188-1.531.531-.906-.281-.907v-.968l.281-.907c-.512-3.805-2.701-.983-.375-6.375l-.437-2.25-1.782-.093-.906.093-.281.25-.906-.625-1.782-.343-.906.25-.906-.72-1 .376-.875-.188-.906.282-2.719-.188-.969.969-.469.906.094-.719.813-.906-.344-.875-.906-.656-.907-.875-.906-.375-.969-.188-.906-.156-.906-.562-1.875-.625-1.813-.344-1-.375-.53.094-.438-1.094-1.282-1.781-1.875-.907-1.812-1.343-.969-.282-.906-.281-3.781 4.344v14.05h3.889l2.269 2.29v1.857l-2.251 2.305v1.702h-4.388v4.84l-2.286 1.237-1.373 1.63v1.41l1.238 1.545 2.21 1.59v7.798l-4.423 1.43-.154 1.199v2.869l4.695 1.687.574 1.405 1.625.093.312.094h.031v-.031l.813-.625.625-.875v-.031l.187-.875.875-.657.75.157.157.03h.03l-.187.844 1.5-1.75v-.875h.032l.968-.093h.031l-.656 1.687.719-.781v-.031l.906-.25-.625-1.781v-.032l2.344.563 1.781.625h.031l.875.094.907-.188 2.781.719c.264.505.47.958.656 1.375.084.185.207.426.281.594.247.554.445 1.007.657 1.375.105.183.196.328.312.468.116.14.257.277.406.375.007.01.024 0 .032 0 .1.065.2.11.312.157.086.034.183.068.281.093.034.01.059.024.094.031.15.033.318.05.5.063.334.024.72 0 1.188-.031.4-.031.89-.084 1.406-.156.09-.013.155-.018.25-.032h.031l.344.907-.344.906v.437l.625.438.281.219.875.875h.031l-.812 1.812.875.438.906.187-.812.906v.97l.812.374 1.063-.094h.031l.187.907.688.187 2.625.688 1.875.375 2.687-.094.907.281h.187l1.625.156.969-.062h.031l.188.719 1.78.093 1.876.344h.031l1.063 1.625.718 1.063 1 .656.72.875v.094l.093.812v.031l.344.157h.03l.72.906h-.032l-.531.187-.531-.281v1.719h-.031l-.875.281-.907-.187-.593-.313-.313-.156-1.875-1.063.063-.906h-.875l-.094-.187h-.281l-.344-.907-1-.531-.875.188.969.625.718 1.156v.031l.094.25.281.625-.093.906-1.97 2.781.095 3.625-.563.97-1.812 1.28-.875.25h-.032a1.61 1.61 0 0 1-.218-.375 3.633 3.633 0 0 1-.157-.437 9.069 9.069 0 0 1-.187-.813c-.002-.01.002-.022 0-.03-.017-.089-.049-.16-.063-.25-.03-.203-.038-.417-.062-.626-.028-.199-.065-.395-.094-.593-.015-.106-.046-.208-.062-.313-.034-.21-.05-.397-.094-.594-.019-.09-.04-.163-.063-.25-.048-.185-.096-.368-.156-.531a2.577 2.577 0 0 0-.219-.437 1.608 1.608 0 0 0-.28-.313c-.011-.01-.02-.022-.032-.031-.1-.081-.22-.143-.344-.188-.112-.04-.24-.087-.375-.093h-.093c-.17 0-.354.035-.563.093-.417.116-.902.363-1.5.75l-.281.875v.032l-.906.812-1.063-.375-.281-.906c.64-.598 1.46-1.304 2.094-2.094.005-.01-.005-.025 0-.031.163-.205.302-.41.437-.625.042-.065.086-.121.125-.188a4.54 4.54 0 0 0 .219-.437c.095-.22.173-.435.219-.656.015-.072.022-.146.03-.22.019-.152.041-.312.032-.468a2.775 2.775 0 0 0-.094-.5 2.519 2.519 0 0 0-.156-.469c-.073-.161-.171-.305-.281-.468a3.607 3.607 0 0 0-.375-.5l.906-.282-.219-.312-.343-.563-.813-.906-1.156-.5-1.5-.656H390l-.532-.375-.343-.281h-.032l-2.156-.532-1.406 1 .5.875.031.032v.343h-.031l-.5-.093h-.031l-.969.468-.375 1.782-.625.906.094-.906-.625.875-.032.03v-1.78l-.593.875h-.031l-1.313.718-.813.907v1.906l-1.28 1.781.374.906-.375 1.875.375.907.875.906-.156.187.375 2.157-.188 1.812-.812 1.875-1.188 1.781v.032l-.718.53h1.437v.282l.188.625-.906 1.063-.625.718-.532.282-.187 1.625-.625.968h-1.969c-.077.656-.086 1.42-.063 2.219.044 1.602.202 3.342.094 4.688-.04.503-.118.952-.25 1.312-.044.12-.099.244-.156.344-.05 1.194.477 1.76.406 2.469-.014.14-.052.279-.125.437-.14.325-.4.684-.906 1.156l1-.375 1.062-.187 1 .562.25 1.157 1 .28-.093.97.906.718.531-.812v-.156l1.094.812.25 1.063.656.906.875.437 1 .094 1 .375.438.719.531-.094.906-.094v.282l.375.343.625.813h.813l.344 1-.813.906.656 1.25-1 .531.094 1 .812.907-1.093.718-.532.625-1.906 2.875.094.094-.188.344-.343.187h-.532c.597 2.624 1.104 5.039 1.532 7.657.13.6.178 1.145.25 1.687.022.165.061.332.093.5v.031c.017.113.044.23.063.344.037.227.07.45.125.687v.157l.812 1.718v.094h.094v.094l.094.344v.093l.25.907a2.508 2.508 0 0 0-.906 1.437c-.002.01.002.022 0 .031-.005.02.003.043 0 .063-.125.561-.101 1.14.187 1.625l.094.187-.282 1.594.282.719.093.281.188.281v.157h-.094l.094.093.094.375.25.625.187.375v.063l-.187.375-.344.531-.094.469-.625 1.781.25.375.188.094v1.062l-.188.188-.437.187 1-.094 2.25-.906.062-.437h.375l.906-.563.907.094 1.593 1 1.188 1.781.906.719.25.469 1.813 1.156.53.906v1.813l-.624 1.875-.094.906-.281.531.562 1 .625-1-.375-.812.657.906.156.906-.25.344-.188.906.438 1.094.625 1.437 1 .438-.531-.875.906.25.094 1.812 1.25-.625-.625.875.53 1.907.438.906-.093.094 1.812.718.813 1.782.906.718-.906.188.906.625.906-.094 1.781-.719.625-2.062.282-.281.343-.875.375-3.72-.093-.874-.188-.281-.156-1-.469-.344H408l-.438-1.906-1.812-3.938-.25-.906-.188-.906.906.625.157.906-.063.906.25.906.563.97-.75-1.782.093-1.813-1.437-2.25-.813-1.812-.812-1.781-.719-3.25-.438-.907v-2.593l.907-.72-.906-.812.906.282.187-.375-.281-.907.906-.625v-.906l.906-.156.157-.656.562-.97-.187-1.343.625.875h.906l-.094-.969h.907l.875-.468.562-.094.25-1.344.906.375.625-1 .907-.187.625-1.625 2.53-2.313.813-.562.094.093 1.781-.25.906-.28.094-.907.188.906.187-.906.625-.906.875-.72.719-.905 2.906-.625.875.093.906-.718.282-.72h-1.094l-.875.47-.906-.282-.188-.187h1.156l.72-.906-.438-.875-.907-.47h.907l.906-.53.25.906 1.187.094.813-.907.906-.375.25-.906-.25-.875-.906.156-.094.907-.187-.907-.906-.437-2.063.187-.25-.906.156-.906-.093.906 1 .531.812-.437.906-.188-.375-.906 1.813 1.094-.188-.906-.531-.907-.187-.625h.625l.562 1.813.781 1.875-.718-1.875-1.063-3.625-.906-.156-.625.156.094.281-1.532-1.062-.906-.907-.906-.468h-.907l-.156-.25-.031-.032.906.282.907-.094.906.469.719.906.906.25-.094-.875-.906-.469-.906-.906.656.469.875.343.719-.812-2.688-2.5-.531-.906-.906-.532.812.344.719.906 1.781 1.438.469-.906.344-.344-.875-.469-.813-.906-1.375-.25-1.156-.813-.438.094-.28-.469.093-.625.719-.625v-.187l.343-.438.094-.187-.156-.5v-.031l.093.062.157.094v.031l-.094.344v.094l-.094.093-.25.719-.718.906.906.25.969.813.187-.532.906.72.907.28-.375-.906-.625-.812-.094-.094-.094-.812.188.906.906.906-.281-1.906v-2.688l.812-.906-.187-.094.718-.437.625-.625H428l-.375.906-.907.875v.906l.282.282-.906.344.469.094.53.906h-.906l1 .437.344.657-.906-.282-.25.907.906.875.625.093.625.906-.187.907 1-.188-.375.906-1.063 1.875-.281.907.281.625.969-1.782.813-.906 2.25-4.219h.187l-.344-.906-.187-1-1.094-1.875-.188-.906-.625-.906-.093-.907.812-.875.907-.28-.094.093-.719.25-.625.906v.719l.813.906.906.531.906.282.156.906.563.25.625-.875.25-1 .906-.188.094-.906.625-.437.469-.907.156-.906.187-.344h.282l.343-1.906-1.343-.875.468-1h.157l.468-.437.438-.907.094-1.28-.282-.813.469.906-.094.906-.531 1.188.875-.375.719-1 3.687-1.344 2.344-.281 1.906-.25.438.187.906-.187.906-.47.344-1.78.906.437v.906l1.188-.187 1.437-1.063-.093.907h.906l.875-.375.906-.188.281.094.157-.906-.157-.875-.906-.563.625.906h.281v.625l-.906.375h-.906l-.531-.28-.72-1.782-.812-.906-.906-.094.531-.906.906-.719-.625-1.344.72-1.28-.188-.157 1.531-1.813.813-1.78 1.093-.907v.719l.813.187.156-.906-.344-.563.438-.625-.094.907.906.375.282-.907-.094.907.281.062.438-.875.906.25.531-.875.375-1 .063-.906.906-.719v.906l1.281 1-.094-1 1.782-.375.28.282.907-.438h.906l.97-.812.905-.375.907-.094.437-.906-.437-1.157-.063-.062-.25-.281-.125-.157-.031-.03-.25-.095-.469.25-.344-.53.188-1.782-.094-.188-.375-.062-.531-.125-.906-.813.281-.437-.094-1.813-.093-1.343v-3.969l-.72-.531v-.094l-1.437-1.062-2.968.968-.72-.625c1.133-.306 1.803-.557 2.25-.812.14-.08.282-.168.376-.25.661-.576.345-1.246.781-2.625l.906-.281.438-.157h1.812l.625.438.282.187 1.53-.187.907-.344h.063l.28-.094.095-.03.03-.032 1.688-.656.969.062 1.813-.25.718.344 1.813.469 1.875-1 .906-.907 1.344-.437.906-.531.094-.907-.907-.718h-.187l.187-.094-.437-.281.25-.188 1-.156c-2.319-2.398-5.963-2.47-9-1.906-2.793.78-8.846 2.706-10.969 4.5l-1.812.906-2.782 2.25-.562.906-.781.906-1.094.875c-2.22 3.448-2.86 2.828-4.375 3.407h-.031v.03a5.787 5.787 0 0 0-1.438.813l.969-1.093.906-.72 1-.53.531-.907.813-.906c1.214-1.536 2.66-1.327 2.781-4.031-1.736-1.189-3.96-1.284-5.937-1.813l.375-.187 2.781.562.906.438.906.187 1.438.813.969-.906 1.531-1.813.375-.875 1.25-.906 1.719-1.813h.625l.906-.437 2.688-.375 1-.344.625-1.906.718-.906.469-.875.625-.188.625-.906.438.094 1.812-.188.906-.531.875.187 1.906-.375 2.438.282 1.781-.375 1.094.375 1.781-.282 1.906.532h.063l2.203-.318 4.227.416.371.5.792.12-.312-.781-.094-.656-.25-.563.219-1.906.275-.461-.387-.49.356-.535.473-.508-.747-.547-.187-.41-.172-.511-.218-.5-.285-1.037-.152-.673-.501-.528-.163-.592-.003-.372-.574-.381-6.465-.142.438-.282-.531-1.78-1-.188-.25-.907.906-.718 1.781-.188-.625-.812.281-.875-.469-.907-.906-.28-.437.812-.906.625-.25 1.718.25 1.813v.875l-.188.187-.625 1-.25.907.344.625-1.438 1.062-.531-.875.188-.906-.813-.469-.625-.875-.906-.719-1-.187-.813.969-.625-.25-1 .25-.719-.875-.718-.375-.531.718-.625-.906.343-.875-.156-.719.156-1.812.469-.375-.906-.875-.813.969v.468l-.906.438-.906.281-.156-.094.093-1.25.438-.906-.094-1 .375-.906-.188-.156-.812-.907-.906-.28-.813-.438.281-.907-.28-.218-.438-.313-.625-.906.25-.906.812-.47.094-.062-.094-.156-.437-.75-.094-.906.531-.156 1.282-.375.875-.188-.875-.719-.657-.906-.343-.812h.812l1.156.812 1 .719.907-.156-.563-.907.281-.28v-.188l-.375-.344.282-.906-.532-.907.813.47 1.687 1.687 1.282.468.625.344.625.906h1.812l.438.188h.906l1-.281c.426.092.725.121.969.156l.812-.156c.05-.01.162.015.406.093l1.657.625.812.282 1-.813.625-1.812-.344-.875 1.688-1 .281-.094-.281-1-.875-.625-.563-.719-.906-.906v-.875l1.094-.563h-1l-.875-.25-.813-.562-.718-1.781h.437l.906-.094-1.093-1.813.187-.343.906-.719v-.906l.438-.625.375-2-.188-.875.094-.469-.813-.906v-.25l-.906-.282-.437-.906-.719-.719-.375-.25.906-.812.625-.906 1.25-.625-.969-.469-.093-.875 1.062-.375h.907l.187-1-.906-.156-.719.343-.906.532-.719-.875-.875-.094-.75-.281-.969.093.344-.906.906.188.532.281-.25-2.531.812-.907-.906-.093-1 .187-.188-1 .094-1.781.563-.187-.907-.438v-.281h-1.187l-.344 1.25.906.375-1.812-.375-.625.906.344.906.906.625h.093l.813.625-.906-.625-.907.532-.437.906-.906.375.906.719.906.437-.906-.187-.719.906-.906-.344.375.875-.094.094-.906-.157-.094.97.907.905-.375.907-.625.906.375-.656v-.875l-.532-.907-.906-.812-.906.281-.719 1.781-1.625.375-.906.625-1.875 1-.531 1.875-.094-.28.344-1.782-.813-1-.187.906-.875.531.875-1-.532-1.78-.906.624-.062.906-.813 1.782-.375.187-.531.375-1.906.438-1.782 1.093.531-.562.906-.438.344-.094 2.438-.812.531-.906.563-1.875-.625-.907-.094-.906-.813-.875-.906-.281-.906.187-.906-.187-.875.187-1.907 1.438-.906-.188-.625-.437-.906-.094.281-.094.906-.187.907-.719-.282-.906.907.812.343.907.625-.907.813-2.687-1.781-.469-.282-.875.907-.656-.375-1.781-.875-.625h-3.25l-2.438-.719 1.969.437h3.875l-.25-.437.875-.094.094-1-.532-.906-.281-.906.906-1.782 1-.812-.375-1-.875-.25-.719.875-.906.469-1.094-1.625-.906.375-.875-.094-.906-.188-.906-.468-1.813-.25-.875-.532-.906-1 .906-.187-.906-.625-.094-.281.907-.625-.907-.438-.906.531-1-.093 1-.438-1-.375v-.969l-1.875-.468.094.906-.906-.188.437-.343.469-.907-.625-1-.906-.093-1-.438-.907-.906-.875-.281-.906-.625-.906.375-.906.625-1.875.625-.907.093.531.907-1.78-1.094-1.188-.25h-.906l-1.782.969-.187-.094.469-.875c-2.244-.792-4.88-1.997-7.25-1.875Zm29.407 101.188.781-.687-.188-.094-.593.781Zm-40.156-100.062c-.436 0-.976.076-1.625.281l-1.094 1.531-.25.907.437 1.875.906.468.907.907c1.926-1.51 3.77-5.977.719-5.97Zm5.656 11.344-.906.28.906.188.906-.468Zm48.312 1.625-.875.562-.656.875-.25.906h.969l.906-.437.906-.906-.719-.907-.28-.093Zm-6.281 10 .719.906.093-.906h-.812Zm-43.125 3.156v.437l.906.375Zm-5.469 11.5.531 1-.28-1Zm2.813 2.312-.625 1.813-.813 1 .625-1.906-.437.906-.906.812-1.344 1.625v.25l.875-.156.812-.906-.093.906.906.25.625-.906.469-.969.187.969-.469.906.532-.906.375-.969.093-.906.094.906-.719 1.781.813-1.78.625-.907-1.625-1.813Zm-1.75 1.22-1.781.53-.375 1 .375-.093.906-.563.875-.875Zm3.875 0-.25.874.062.906.719-.906v-.875Zm7.281 5.03-.969.532-.906.812Zm-8.625 4.5-1.813.344-.875.563 2.782-.72-.094-.187Zm-10.344 10.97-2.781.374-.719.906.875.438 2.813.719.875.437 1.812.188-.281-1-1.594-1.782Zm9.25 7.03-.437.094-.719.906h.906l.25-1Zm70.469 13.22-1.781.28.875.72 1.906.718.906.625.531.906 1 .344L489 298.58l2.687.53h1.907l.187-1-3.976-2.19-3.493-1.31h-.03l-.626-.093-1.781-.25-1-.375ZM372.469 308.58l-1.813.343-.969.72-.187.905-.281-.468-.906.468-.875.813-1.813.906-1.875.063h-.031l-.156.187-.032.031.032.125.875 1.469 1.28.063 1.032.875 1.094-.407h3.562l.344.938.969-.031.969.625.28.843.938.407.313 1.343.5.72 1.156-1.595.281.938.782-.844h.03l.876-.094h.031l-.094.844.969-.5.719-.875v-.031l.906.094.875-.157h.031l1.875-.75 1.469.438.406.125h.031l.438.531.906-.344.969-.093 2.719.093-.657-1-.187-.062-.688-.188v-.03l.094-.876v-.031l-.719-.875-1.968.281-.907-.187v-.031h-.03l-.157-.438.156-1.156h-1.062l-.907.375-3.593.25-1.782 1.187-1.906-.468-.906.187-.875-.094h-.031l-.782-1.093-.562-.782-.625-.281-.25-.094H369.938l-.188-.906-.156-.344.812.344 1.782-1.625.28-.344.876-.187-.188-.063-.687-.187Zm56.5 16.812-.531.813-.532.625h-.031l-1.781 1.093.094.25.28.625.97-.187-.063.031h.063l-.97.719.282.906-.094.875h-.03l-.907.188-1.344 1.093-3.594.438-.968-.344-1.813-.375h-1.812l-1.875.375-1.72.531-.874.094-.75-.156-.156-.031h-.032l-.156-.907.438-.906 2.687-1.625 6.406-1.062.907.437 1.875.375.625-.906h-.907l-.25-.094-.718-.25h-1.25l.093-.031h-.125l.907-.25 2.78-.094h.032l3.594-1.187.437-.344.813-.719Zm34.75.719-.531.094.343.906.188-1Zm-50.219 7.656.813.344.093.906-1.719 1.781v.032l-1.812 1.25-4.125 1.968-3.688 1.282-1.812 1.343h-1.813l-1.843.532-.907-.344-.875.156.844-.437-.875-.094h-.031l-1.781-.906-.719-.063v-.031l-.094-.188 1.157-1.78.28-.907.345-.406.03-.032.876-.718.375-.907.719-.187v.437l.343.188.031.031.625.875-.906.281h-2.062l-.188.875v.032l.906.875.875-.25h.032l.875.437.53-.906 1.907-.813 1.781-1.437.907-.531h.03l.876-.282h.906l3.531.594-.53-.156-.22-.063c.092-.142.208-.26.313-.375.107-.117.224-.22.344-.312.113-.088.22-.182.343-.25h.032c.122-.066.243-.138.375-.188.067-.026.148-.04.218-.062h.031a6.606 6.606 0 0 1 1.625-.281c.49-.024.985-.024 1.47-.032.241 0 .483-.017.718-.03.235-.015.463-.03.688-.063.15-.023.289-.058.437-.094.138-.034.28-.079.406-.125Zm36.188 8.188-.188.906.344-.906Zm5.843 1.625-.906.343.906.094v-.437Zm-11.062 1.25-.906.53-.907.282-.906-.094-1.781.438-.906-.156-1 .718-.907.25-.156.907h.875l1.906-.438 1.156-.187 1.813-.532.906-.093 2.688-1.25-.906-.094-1.782.625.813-.906Zm-14.406 28.875.187.906-.188.906-.625.906h.438l.438-1.812Zm-3.344 4.437-.969.719-.563.875.72-.875ZM419 419.08l1.875.437.625 1 .563.906v.875l-.563.907.563.906.25-1.531.625-.907-.25-.906-1-.625-.907-.812-.906-.25Zm-3.344.625-.437.906-.906-.188.906.72.437-.282 1.813-.438.969-.53-1.875.155Zm9.375 6.656-.906.094h.906l.625.343.906.813.438.906v.906l.094-.906-.188-.906-1-.813-.875-.437Zm-17.125.437-.625 1-.812.907.906-.813Zm9.656.657v1.593l-.656.907v.906l.906.187.532.907.906-.657.375-.875-.906-1.812-.281-.906Zm11.688 2.593.906 1.813.094.906.25-.906-1.25-1.813Zm-9.531 2.063-.906.812.437.907.813.906.625-.813-.875-.906-.094-.906Zm7.906 2.875v.375l.906.281Zm3.344 0 1.062 2.812.906.907-.718-.907-.281-.906Zm-27.188 2.344-1.437.468-.906-.28h-3.063l-.969.437-1.906.468-.344-.187-.906.094-.906.53-1.719.563-1.781.875-.813.907-.375.906.625.906-.969-.094-1.812.813.625.187.906-.468.906.53.907-.437 1.781-1.25 1.188-.093 1.78-.72.813-.905 1.344-.813 2.719.188 1.156-.094.906.437v.282l-1.625 1.156 1 .562h1.781l.907.625.281-.906.719.906 2.437-.093.094-.375.156.562.563.625.875.344.468.562v-.187l3.938 1 1.375-.375.719.094.625 1.156.625 1.812 1.812 1.438.969-.094 1.344.188.906-.188.469.813.718.375-.093.531-.281.281-1.25.625-.907.813v.812l1.906-.375 1.157.094 3.687-.438 1.906.157 1.782.375.719-.094.28-.375-.093-.156h.438l-.25.156.343.375.907-.531 2.78-.282.626-.906-.875-.187-.906-.438-.907-.812-.093-.25-2.063-.563-.906-.093-.906.187-.875-.187.25-.875.375-.094-.375-.906-1.875.187-.907-.812-1.093-.094-1.875-.906-.282-.344-.906.344-.625-.813.906.281-.812-.906-1.781-.187-.907-.532-.812-.906-2.156-1.062h-.907l-1.187-.47-.875.095-1-.344-1.875-2.188-.906-.156h-1.907l-.906-.656-.719-.063-.875.157-1-.72Zm31.844 2.25 1 .375v-.375Zm1.281.28.625.907-1.344 1.25.532-.344.906-.906Zm-.719 2.157-.375.188-.093.187.469-.375Zm-19.718-1.531-.906.281.906.344Zm25.187.906 1 .344-.093-.344h-.907Zm-21.844 1.438-.906.28.906.532Zm-23.78.718-.876.282.063.906-.344.875.906.281.719-.187.906-.532-.469-.906Zm45.187 3.25-.906.532-1-.282-.875.47.062.905 1.813-.187.906-.531Zm1.531 5.75-.906.094 1.094.188h.437l-.625-.282Zm-1.906.625-.875.532.344.906.906.094 1.781.812-.344 1 .094.438.531 1.093.906.907.438.875h-.875l-.906.625-4.344-.72h-1.063l-.906-.343-.625-.094-.906.625-.094.907.906.187.907.438.812.906.25-.531.906-.47.907-.155 2.25.437 2.687-.281h1l.906.187.907.72.093.062-.03-1.032-.813-1.125.625-1.03.281-.813-.563-.5.72-.532-.188-.968.125-1.344-.313-.719h-.031l-2.156-.281-2.719-.813h-1.531Zm-37.25 2.782-.906.093v.375l.906-.468Zm37.906 2.187-.906.25.906.469.969.25-.094-.531Zm-22.156 1.875-.906.375-.72-.094-.968.907.094.156.875.187.906.625.906.907 1.719.093.344.188 2.343-.813.438.157h-.25l1.531.375.906-.625-.28-.47-.907-.53-.906-.25-.813-.47-1.781-.437-2.156-.28h-.375Zm28.875 28.813-1.781.875-.907.812-.437.906-2.25.907-.469.28-.25.345-1.188.625-.906.718h-2.312l-.906-.343-.907.718-.281 1.25-.719.907-.437-.094.187-.906.969-.25-.813.062-1.78-.625-.188.094-.719 1-.906.437v.47h-.344l-.906.53v1l-.375.438.093.906-.25 1.25.157.906-.625.907h-.907l-.78.718-.657.907-1.156 1.156-.907.719-.625.906.375 2.062-.906.438.438-.875-2.063-1.719-.375-.812h-.625l-.906-.907-.625-.906-.906-.719-.782-.156-1.812-.719h-1.344l-.906-.187.281-.375-.281-.094h-1.094l-.719-.156-.875.062-.812.907-.281.187-.094-.094v.188h-.437l-.813.625-1.812.531-1.438.906-1.625.47-1.594-.282-1.375-1.438.469.907-1.437.093-.813-.468.25-.907-.875-.156-.187-.906-.625-.563-.188.282-.812-.438-.438.156.156.282-.437 1v1.062l.906.563.094.156-.563.281-.344.375.344 1.063v.375l-.25.156-.187.094-.188.625h.094l.281 1.187.344-1.25 1.812-.281.72.094.53.718 1-.281.25.375 1.282.813v.53l.906.907.875.344v-1.344l.812-.094.282 1.344.718 1.906 1.25-.093.907-.375v-.25l1.718-.47-.187-.718-1.969-2.25.344-.969.812.094L410 507.08l.625-1.532.625-.25h.187l.344-.375h.906l1.25-.625-.093.907 1.812.968 1 1.813-.093-.906.343.375.907-.47.906 1.438-.625-.343-.906.25v.906l-.282.094-.343-.188.093.906 1.063 1.813 2.25 2.344.375.875.812.906.156.906-.437.906.906 1.782-.093.906-.907.375.469.906.156.875.188 2.531-.094.907.469.968-.906.375.187.907.875-.282-.25.907.906-.094-.375.281-.343.875-.47.563-.343.968-.281.188-.438.906-.906 1.156v.907h-.906l-.188.375-.968.093-1.813.438-.437.906.343 1.25-.625.625-1 .188.094.906.531.625-.343.906-.47.625-1.78.188-.907.343-.281.532-.875-.063-.812.344-.188.906.188 1.25-.188.906-.375.719-1.781 1.719.437.906.625.344h-.875l-.375.906-.906.438-.719.906.625.906-.25.906v.719l.344.969-.094.906-.718.625-.157-.094.438.72 1.156.562.906.812.907-.094 1-1.343v.625l.343.093h-.343v.625l.343-.187.282-1-.188-.719.094-.437.531-.438-.437.719.093.969.531.906-.437.906-.281 1.344-.344.719-.813.53H408c-2.914 1.558-2.189 2.597-4.75 4.438v.625l-.188.344v1.094l.625.719v.968l.282.907.906.812.25.906-.344.907h-.906l-.094.906c5.653 3.259 5.752 2.726 8.188 8.187l.437.625.907.813 1.28 1.781 1.438 3.594.532.906 1.25 3.438 1.718 2.875.532 1.25v.906l.906.625.906.906.344.906.187.97-.093.28 1.718 1.813 1.063 1.781.375.906 1.094 1.438.25.906-.094.813-.813.906.47.969 1.343 1.812.281.906 1.875 1.157 1.344 1.437.375.813c2.089 1.427 4.476 2.216 6.469 3.78l3.968 1.72.625.53.907.095.906.437 1.25 1.281.437.063.813.656.906.25.719.469.531.875v.906l1.813.906 2.687 2.344.375-.281h1.063l.468-.156.813-1 .094-.813-.188-1 1.25-.625.375-.281v-.531l-.719-.532 1.25-1.343.813-.907.906-.718.063-.094-.157-.281v-.094h-.03v-.906l.343-.782-.5.094h-.188l-.906.25-.875-.344v-.03h-.031l.281-.876-.969-.187h-.03l-.72-.907-.875.375h-.03v-.812h.03l.157.031.719.125-.344-.875.437-1.094.906.188 1 .531.094.281.094-.187.625-.875-.094-.75-.625-.719v-.875l.625-1.094.906-.718.094-.813.531-.906-.469-.813-.343-.875.531-.906v-2.25l.094-.906.906-.813.281-.812-1.469-2.875-1.968-3.156-.72-1.25.907-.094 1 .187.781.188 1-.094.188.094.719.437.906-.437.906-.813.969-.812.906.094.375.093.156-.375.813-.656v-8.219c-4.288-6.69-8.298-13.62-12.5-20.375l.719-.093h.187l.156-.094v-.344l.094-.094v-.093l.656-3.063.532-3.062v-.188l.53-3.031.532-2.969.094-.562.281-.532-.281-1v-.25l-.344-.468-.375-1.063-.094-.906-1.78-1.25-.282-1.094v-.094l.281-2.593 1.969-.47.813-.093.906.375.187-.531-.093-.719-.907-.719-2.156-.093v-2.969l1.25-.281.906.187h4.407l.906-.281-.188-.25.907-.094.906.532.875-.72.812-.905h.094v-2.532l-.719-.718h-.906c.11-.288.256-.521.406-.72.151-.198.3-.362.469-.5.107-.085.204-.147.313-.218.147-.097.303-.197.437-.281v-2.5l-.625-.625-.344-.906-.093-.188-.375-.812v-.875l-.344-.47.25-.905v-.875l.094-.375.093-.282-.094-.53v-.907l.907-.719-.094-1.156.625-.625v-1.344l-.25-.187-.906-.282-.906.375h-.72l-.905.25-.907-.093-.531.187-1.812-.25-1.063.531-.906-.093-.438-.532-2-2.53-.25-.282-.562-.719-1.063.094-1-.531-.906-.094-1.687.437-.094.094-2.719-.25-.875.094-.625-.188-.469-.906-.187-.625-.875-.094-.188-.093-.187-.907.094-.875v-.718l.187-.188.25-.906-.25-.906h-.094l-1.093-1.157-.625-2.062.187-.094-.906-.468-.188-.344-.906.437h-.875l1.063-1.718.718-1.157.094-1 .375-1.781-.094-.187.625-.907.532-1.156.625-.906 1.093-.469 1.125-1.75.188-.312 1.75-.688 1.344-.406.093-.063.094-.281.906-.906-.562-.969-1.625-.625Zm-34 18.625v.968l.187-.875-.187-.093Zm-16.188.968.094.188h.156l.094-.188h-.344ZM409 559.111l-1 .719.625.875.563-.875v-.72Zm44.063 102.5a13.78 13.78 0 0 0 0 0ZM493.563 308.673l-.032.032-.812.812.969-.531.75-.906-.875.593Z"/><path fill="#8cce55" stroke="#0f380f" stroke-opacity=".145" stroke-linecap="round" stroke-linejoin="round" d="m495.375 307.517-.906.25-.906.906.906-.718.906-.438ZM464.781 185.36l.719.813.906-.25h1.906l.344-.906-1.781-1.187-1.469-1.782 1-.187 1.188 1.156.875-.094-.875-.875.875.344-.25-.906-.906-.438-.907-.093.906-.188 1.875.469v-.906l.72.343.468.907.906.718.25.907.906.093.15.507.923.316 1.352-.4-1.083 1.456 5.143-1.574-.64 1.32 1-.468.343-.875.906-.657.907-.156-.907.531-.718.907-.344.906-1.906.625-.907.719.188.906.906.531.906-.469.969-.062-.875.156-1 .563.906.625.969-.813-.625.906-.906.25.187.813 2.813-.438-1 .532-.906.281.906.094-.906.156.906.469.25.906.906-.906.469-.907-.188.907.907.437.093.906.875-.187 1 .469.531.875 1-.813v-.875l.375-.906-.562-.906.906-.344-.906-.375.719-.906-.906-.344-.97-.188.97-.093.375-.907-.375-.875 1.375 1.875.875.282.28.343.282-.906.969.563-.625-.907 1 .188-.906-.906.906.343h1l-.188-.875-.906-.75-.906-.156-.438-.719.906.72h.875l.907.343 1-.094-.094-.875-1-.468-1.781-.438H490l.875-.375-.531-.969-.906.063.906-.156.719.093.906.719 1 .25.906-.313a2.78 2.78 0 0 1-1-.437 2.849 2.849 0 0 1-.781-.781c-.038-.056-.089-.102-.125-.157-.024-.04-.041-.083-.063-.125-.011-.02-.02-.041-.03-.062a3.017 3.017 0 0 1-.282-1.25c0-.85.382-1.599.969-2.125l-.157-.688-.875.094-.906.906.344.907-.813-.907-.875-.28-.187 1-.625 1.25.25-.907v-.969l-.906-.281-.125.062a2.87 2.87 0 0 0 .406-.437c-.006.005-.027-.006-.031 0-.01.012-.023.02-.032.031a2.803 2.803 0 0 1-1.344.969l-.374.625-.157-.5c-.12.015-.25.031-.375.031-.094 0-.19-.022-.28-.031l-.47.344-.906-.094 1-.094.125-.187.748-1.024-.013-1.132.637-.184.031-.768-1.28.618-1.837 1.759.93-2.362-3.31.843-.968 1.093.156-.906.906-.437 1.656-.25v-.094l-.75-.219-1.875.188 1.875-.438-1.875-.468 2.75.187a2.72 2.72 0 0 1 .282-.656l.093-.25-.875-.25h-1l.907-.188.625-1-.907-.093-.187-.907-.875.375v-.906l-1-.094-.375.907-.875-.532-.906.907.53-.907.282-.906.875-.625-.875-.719-.906.719-.906.25-.532.906.625.906-.906-.437.531-1.813-.875-.093-1.437 1.812-.188.906-.093-.906.28-1-.374-.437.719-.907-.594.282c-.003.01-.031 0-.031 0l-.316-.963-1.085 1.356-.303-.731-2.544.75-1.034-2.412-.312.093-.625 1-.906-.093.906-.094.469-1 .53-.094c.022-.075.037-.146.063-.219l-.593-.312-.907.187-1 .813-1-.188 1-.625 1.907-.468.718.312c.133-.263.297-.509.5-.719l-.343-.125-.875.47-.907-.657-.718.906-.188-.969-.906-.375-.344.907v-.907H464.688l-.5.094-.907-.437-1.812.156.906-.156-.906-.282-.906.188.906-.469 2.875.188-.969-.72-1.812-.187-1.813-.437-.969-.094.907-.281.875.281 1.812.188.438-.094v-.094H463l.375-.094-.219.094-.187.094-.094.187 1.813.313.093-.406.625.093-.625-.281h-.093l-1.22-.531-.905-.094.906-.094.969.282-.907-.813h-.968l.968-.281.907.187.25-.093h.093l.719-.188-.719-.625-.093-.03-.157-.157-1-.344-.875-.094-1.906.625-.437.907.093-.907 1.875-.812-1.062-.188.969-.156 1.812.25-.906-.625-2.781-.437-.907.25.906-.438 1.875.344 1.907.094.594.28h.093l1.281.626.875.28 1.907-.28 1.875.375.281-.907-1-.906-.875-.437-.906-.375h-1l-.907-.188-.968.281-.563-.187h-.094l-2.312-.812-.906-.188-2.875.75-1.875-.375-.906.375-.375-.094v-.187l.906-.188 2.781.188 1.813-.719h1.875l.906-.719.906-.468h.063l.093-.001.907-.062 1.906.531h.875l.187-1-.25-.906-.562-.438-.719-1-.906-.718-1.344-.813h0l-.094.094-.094-.125-.343-.125-.969.781.438.907-1.813 1-2.875.906-.906.906-.875-.281-.906.281-1 1.344v-.375l.562-.969.969-.469 1 .188.906-.813.969-.625 1.281-.53.625-.907-1-.375-.906-.094-2.781.563-.625.968.28.282-1.28.28-1.782 1.063.875-1 1.813-.343-.906-.438v-.187l.906-.72 1.875-.812 2.906-.468.531-.875.906.437.625-.906-.375-.969-1.78-.562-1.813-.907-1-.062-.875.062-1 .47-.906.624-1.782.188.531-.188.907-.437 1.25-1.094-.906-.281-1.782.562-2.812 1.344-1.438 3.687-.531.72.375-.907.063-.969.718-1.812-.969-.188-1 .531-.343.907-.719.812.438-.969h-1l.906-.375.812-.906.906-.344.97.157.906-.782.906-.468.437-.907.719-.968-.344-.907-1-.468-1.781.906-.281.906-.906.281-.97.094-1.906.625-.906.719-.969.531-.656.094.906-.375.72-.875-.876-.563-.906.188c3.114-.855 1.646-3.583 5.469-2.063l.656-.906.969-.719-.531-.906-.907-.906-.906-.438-3.781-1.093-.875.812-.906.375-.72.906.094.907-.468.25-.094.062.125-.031-.406.344-.344.968-.625.906.031-.093.094-.22-.219.313.469-1 .062-.875.094-.03.813-.345-.906-.53-.97.28-.812.875-.187.907-.906.28.812-.905.281-1 .906-.813-.718-.969-.094-.906-1 .438-.719 1.812-.812.906.187-.906.532-.906-1 .094 1-.375.375-.875.812-.907.25-.906-.969.094-.718.906-.375.906.093-.906-1-.281-.906.437-.875.907.438.906-.532 1-.906.812.625-1 .188-.906-1-.625.906-.344.812-.906h-.906l-1.875.969.969-.719-.969-.531 1.875-.281 1-.532 1.781-.437.469-1-.469-.906-.969-.25-1.812-.094-.813-.281-.812.906-1.875.625-.281 1-.719.906-.906.156 1-.625.531-.906.375-.969.906-.812c-2.88-.716-2.834.94-4.594 1.875l.97-.906.656-.875 1.875-.47h1.906l.969-.718-.25-.969-.563-.906-.969-.625-2-.656h-.906l-.25 1-.469-1-1.875-.344-1-.906-.906-.188-2.781-.093-.969.468-.906.094-1.906.906-.72.97.626.905 1.906.625 1.781.813 2 .281.906.438-1.53-.438-.907.094-1.906-.813-1.875-.468-.375.906-.531-.906-.907-.094-.719.906 2 .906.438.907 1 .343.906.907.875.468-.875-.093-.812-.907h-.906l.812.907.906.437-1-.281-.906-.875-.344-1-.906-.813-.906-.375-.281.907.812.906.906.625-1.875-.625h-1l.719-1.875.094-.906-1.907-1.094-.718.906-.907.531.47-.875-.532-1-1.281.438-.532.906.532.625 1 .531-.907-.062-1-1-.53.906-.188.906-.875.532-.907.25-1 .906.625-.906-.968-.438.968-.531.907.344-1-.907.093-.875.907-.812.625-.906-.969-.188-.906.531-1.906 1.532 1.718-1.782.906-.625 1-.468 1.063-1.782-.906-.468-.719-.875.188-.907v-1l-.907-.437-1.875-.656c.399-3.62-1.43-4.212-4.031-4.22-.867-.001-1.832.055-2.813.095l-.906.187-.906.531-.969.094-1.906.531-1 .469 1 .625.188.906-.907-.719-1.969-.187-.906.25-.531 1 .875.625-.969-.344-1-.906-.812.344-.219.281v.906l.219.125v.063l.093.093 1.907.625 1.875.438h.906l1 .375-2-.094-1.875-.281-1.813-.406v-.031l-.312-.094v1.062l.219.125v.063l1.343.719 2.72 1-.907-.094-.906-.438-1.875-.375-.282-.062v-.031l-.312-.094v4.5l.312-.094v-.03l.188-.063 1 .468h.969l-.969.094-.906.531.968.532 1.813 1.53.625.907-.906-.906-1.875-.969-.907-.656-.312-.031v5.093l.219.063v.031l.281.063 1-.25.875 1.78-.969.376-.281.906.531.906-.625.875.281.907-.906.625-.094-.907v-.062l-.03-.031-.282-.22v8.345h.031l.281-.094.532-.094.906.813h1.094l3.687.437 1.531-.437h1.157l2.781 1.25 1.906-.157.906.063-.28-.969-1.25-.906-2.813-1-.875-.625 1.781.719 1.906.53 1.625 1.095 1.875.718 1.906 1.344.875.094-.437-1-.906-.531-.531-.625h-1l-.907-.532c1.791-.608 3.929.081 5.688.532h1.25l.625.437.906.094.906.719 1-.344 2.781.094.625-1-.812-1.907-.813-.875-1 .156-.875-.437v-.906l.875.468.47-.906v-1l1 .188.874.625-.875-.282-.75 1h1l.906.72 1 .187.157.906 1 .344 1.812-.344.531.969.188 2.906h.875l1-.906.906-.375-.906.468 1 .157.906.375.094.906h-.906l.156.875 1 .187 1.812-.812-.906.562.281.97.97.624.905.188 1.907.906.531.906-1.813 1.25-1.875-.344-1 .157-.28.906.28 1-.28.906 1 .063 3.687-1.594.281-.906.906.093.875.719.656-.906.97-.625.905.344-1 .187.813.906-.969.625.969.282.469.875.812 1 .969.375.906-.188-.094-.906.907-.438.344.969-.625.906.093.907 1 .375.188.25.531-.188.906-.625-.469 1 1 .094.907.344.812 2.718.875.438-.062 1 .812.906.438 1.781.437.907-.812 1-.875.093-.906.719-.532.875v1l.875.281h1.906l1.782.156 1.906.563.906-.469.25-.875.625-.906.188-.906 1.812.718.625 1 .906.438 1.875.281 1.72.813.906.718.906-.375-1.813.907.906-.094.907.625-.906.469-.813.875-1.813-.438-1.062.375h-.906l-.906-.906-.438.906-.906.719-.813.875-.906.375v-.469l.906-.625-.906.094.531-.906.188-.875-.625-.907-.344-.906-3.719-1.094-1.875.094-2.781-.25-.906.438-.719.906-2.688 1.781-.906.469-.906.812 1.719 1.782 1.875 1.437.469 1-.094.906-.906-.437-1.907.344-.875.718-.906.375-.906-.375-1.438.094-.281.906-.969-.093-.906-.094-.906.281.906.625.813.906.968-.28-.437.905-.906.625.093.344-.719-.875.907-.375-.531-.906-.907-.25-.906-.813-.906-.187-.906-.438-2.782-.718h-1l-.25-.188-.906.25-.438 1 .625.906-2.78.907-.907.625.25.906-.625.969.813 1.718.812.907 1-.188.875.625.906.375.906-.093.907.28.906-.374.969-.188.906.188.906-.531 1-.188.875-.531-.531-.906h.906l1.875 1.062h.906l.907.375.906-.375.531-.875-1.812-1.625 1-.812-.188 1 .813.875.906-.063.906-.375-.093.906.906.25-.906.469.187.906.719-.906.187-.906.875.187.907-.187.906.437.094-.968.25.906-.875.781.875.469.718.906.906.625.282.906.906.344v1l.969.25.906-.437-.531.906 1.875.344.906-.25 2.438.968-.813.907-.906.468-1.781-.093.875.437.187.906.813.907.906.093.906.719v-.187l.875-.375.281.906 1 .625.906.093.875.625.907.282h1.625l.906-.282.906.188-.656.906 1.813 1.531.906.25 1.875.907 2.625.375h.156l1 .344.906-.094.875.187 1.813.907.906.093 1 .625.875.375h1.281l.156-.906-.53-.906 1-.375-1.907-.875v-.906l-.438.093-.28-.906-.907-.719-.875-.187-.719-.906-.906-.532-.813-.906-.906.469.469-.906-.906.625.718-.907-.906-.093-1-.344h-.093l-.875-.375-1.157-1.782-1-.468-.906-.719-.531-.906 1.781-.063 2.688 1.407.093.03.094.094.812.875.094-.875-.187-.906.906.719.719.906.906.625 1 .438.25-.907.187.907.344.812.906.906.375-.906-.562-1 .812.906.47 1 1.53.813-.375-.906 1.907 1.343.25-.906.468.906.907.282h.875l-.344.906.531.875.906-.156.094-.907-1.281-1.812.906.281.906.531 1-.187-1-1.781-1-.719h1l-.281-.906-.531-.907.375-.906-.906-.875.906.625.625.906.625 1.782 1 .093v-1.156l-.188-.906.094-.906-.906-.532-1-.187.281-.906.906-.532-1.906-.375-.344-.875-.906-.093v-.719h-.906l1.812-1.094-.187-1-.906.656-.97-.468-.093-.907.25-.875-1.781-1.093.719 1.812-.72-.906-1.093.625.094-.906-.719-.907-.906-.343-.719.906-.281-.906-.781-.532.78-1-.874.813v-.906l-1-.344-.531-.906.906-.469v-.344l-.906-.093-.282-.907-.906-.437h-.875l-.906.719.344-1.813h0l-.813.094h-.25l-.437-.906-.906-.907.906.375.156-.906-.875-.094-1-.718-.906.093 1.812-.343.906.812.438.875.063.063Z"/><path fill="#8cce55" stroke="#0f380f" stroke-opacity=".145" stroke-linecap="round" stroke-linejoin="round" d="m483.688 172.58-.282.093.094.907.687-.063c.007-.005.025.005.032 0 .043-.029.08-.067.125-.094l-.657-.843ZM490.25 176.11l-1.781.97.25.28 1-.374.531-.875ZM477.219 194.986l-1 .656-.094.875.906-.437.438-.907-.25-.187ZM480.813 201.11l-.907.188.438.907.906.53-.625-.905.188-.72ZM481.813 203.017l-.72.25.25.906 1 .72-.53-1.876ZM479.375 210.923l-.281 1 1 .157.906-.063.531-.906-.375-.188h-1.781ZM478.375 217.048l-1.781.344.781.906 1.906 1.344.813-.875.187-1-.906-.531-1-.188ZM491.438 187.36l-.625.438.875.438-.25-.875ZM478.375 215.423l-.813.188.813.906.906-.281-.906-.813ZM475.406 215.955l-.906.562.906-.375v-.187ZM465.406 155.86v.438h.094l-.094-.437ZM470.156 165.58a2.907 2.907 0 0 0 0 0ZM497.281 180.58a2.889 2.889 0 0 1-.437 1c.206-.306.36-.626.437-1ZM496.063 182.36c-.298.202-.637.36-1 .438.374-.076.694-.23 1-.437ZM376.969 450.392l-.375.906.187.344.719-.969ZM371.563 461.985l.093-.875-.906-1 .281-1.093 1-.25-.187.906.969 1.875 1.718-5.406-.718.531-.094-.719.719-.875-.907-.187 1-1.813v-.625l.47-.906.53-.875 1.063-1 .719-.906.187-.813v-1.344l-.437-.906-.907-.531-1 .719-1.962 1.37-.384.908-7.743 7.733v8.408l1.069-.15 1.007-.12 1.487-2.591 1.44.146ZM273.063 673.986a2.25 2.25 0 1 0 0 4.5 2.25 2.25 0 0 0 0-4.5Z"/></svg>