<svg width="1671.094" height="856.393" xmlns="http://www.w3.org/2000/svg" xmlns:usvg="https://github.com/RazrFalcon/usvg" usvg:version="0.8.0"><path fill="#3e73c5" fill-opacity=".429" stroke="#000" stroke-opacity=".247" stroke-linecap="round" stroke-linejoin="round" d="M675.719.517v29l1.875.719.906.156 2 .813.344.906-3.875 1.344-.532.906-.718.281v2.875h.343l1 .281.72.97.28 2.718-.53 1.875-.47.906-1.343 1.344v2.687l.906-.53 1.063-.532c2.08-.807 3.753-2.69 5.718-3.875.197-.119.391-.21.594-.313 1.015-.515 2.126-.82 3.406-.687l-.968.562-.188 1.97 1-.345.969-.656 2-.625 1.875.188.906.718 1.063-.187 1 .562 1.812-.187-.375-.906 1-.094.906-.438-1-.375.188-1 .968-.062 1.094.344-.625-1.782.969.157.906-.25 1 .093 1.063-.906 1 .25 1.906-.156 1.781.25 2.969-.25 2 .156 2.875.813 3.875.562.969.25.906.281 1.969 1.157.906.187v.906l-.906.532-2.875 1-.625.906-1.875.344-.907.906-1.093.625-.907.187h-2.875l-.968.188v.875l1.062.656-.187.875-4.844.625-.906 1-2.782.375-2.968-.469-1.969.094-.906-.531h-1l-.094.906-1 .156-.875.563-1 .156-3.063-.156-1.062-.281c-3.584-.695-3.542.565-5.25.937-.142.031-.3.046-.469.063-.508.05-1.166.04-2.031-.094l1 .281 1.063.625.906-.625 1-.187.875-.625 1-.188 1.906.188.969.343 2 .094 2.062.438 2.969-.25 1.969-.625 1.906.718 3.063.157.875.187-.625.906-.97.72-.905-.282.437.906-1.875.813-.906.187-3.875-.094-1.875.282-5.875-.813-.969.156-1.906 1.47-.969.25-.281.718.281.375-.281.531-.282 1 1.907.813.906-.375v-.188l-.906.188.25-.907.656-.906 2.063-.531.968-.531.907-.094c2.6.837 4.774-1.48 7.843.094l-.375 1.156-1.781 1.719-1 .625-.906.187-3.782-.531-.968.437-1 .813.187.906-.812.969.531.906-.188.906-.625.907.907-.907h1.968l.094.907-1-.47-.781 1-.906.626-1.344.281v.625l.437.625-.437.906-.469.188-1.875-.188-.906.094-1 .344-.906.719.468.906-1.906.375 1 .094 1.094.53-.813.907-1 1.875.375 1-.906.813-1-.094.906.719-1 .53-.343 1 .875-.437-.72.97-.874.905v.907l.969-.094 1 .531-.907.906 1-.53.438-.907.094-1 1.625-1.875 1-.375.968.812 1.907.72 2.156.562 1.875.25.906.53.813 1-1.875.376-2.97-1.281-.905-.157-1 .344-1-.187-.97.468.97.344 1.093.625-1 .188 1 .468-2.968-.375 1.875.532 2.906.468-.906.25h-1.907l1.907.282 1.78-.094 1 .281 1.97 1.156.656-.906.969-.25 2 .25.875.906.468 2.782-.468.906-.969.625h-.906l-1-.344-2.782-.375-1.906-.719-.781-.093-.563.187-2.875-.437-1 .437 1 .625-1.875-.156-2 .25 1.907.094 1.781.28-1.875.532-1 .531-.906.72-.875-.25-.813-1-1-.72-.906.094-.344.906-.187.157v.875l.187.03.625.907.719-.906 1 .187-.094.907.97.187-.97.438.97.187h-1.876l-.906.156.906.094 2.781-.156-.343.969-.094.906.969-.344 1.906.156 1 .47.875.812 1-.188-1.969-.719-.906-.906 1 .188 1.781.718 1-.28h1.625l.719.905-.375.907h-.969l-1.094.53-.906.188-1.969-.187-3.687.281-.907.156 3.782-.156 1.968.094.907.25 1 .094.312-.032a2.845 2.845 0 0 1 2.25-1.093 2.876 2.876 0 0 1 2.875 2.875c0 1.095-.629 2.015-1.531 2.5l.031.437-.25 1.781-.906.907-.906-.094-.97-.344v-1.094l-1-.343-1.905.437-1.875-.719-.907-1-.906-.53-2.875-1.063-.969.062.875.188 2 .812.875.813-1.875-.282h-1l-1.875-.343 1.782.437h1l1.906.281.875.72 1 .374.906.625 1 .344v.906c-2.819-.622-2.874.593-4.687 1.156l-1.907-1.062-.875-.188.97.47.718.874.906.281 1-.28 1.875-.97 2 .532-.562 1.875.718.906-.968.625-.907.187 3.782-.28.906.468.969.25.906-.25.906-.531.625.875 1 .812-.375.906-.625.907-.906.437-.969.094-1.625-.25-1-.75-.812-.875h-1.813l-1.969-.281-1.875.28-.906-.624-1-.469 1 .906-.187 1-.907.344-1.812.094c-.051 0-.105-.027-.156-.031-.123-.013-.252-.048-.375-.063-1.765-.22-3.658-.64-5.563-1.031h-.062l-2.157-.406c-1.279-.211-2.54-.364-3.718-.344h-.063l-1.406.219-.25.03c-.114.026-.23.035-.344.063l-1.781.594-.219.063-.187.093-3.344 1.782c-.082.053-.169.102-.25.156-.462.306-.915.614-1.344.937-2.105 1.762-3.856 4.18-5.312 7a36.662 36.662 0 0 0-1.032 2.188c-3.587 8.24-4.931 18.906-4.718 26.187l3.5-.718.468-.094.875.375 1-.188.907.532 1.875-.344.312.5 1.125-.219.282-.562.718-.907 1-.53.907.093.875.344.906-.094 2.781-1.156.906-.282h1l-.375 1 1-.625.907.344.906.094 3.781 1.281h.875c1.817.818 3.742.396 5.594.25.617-.049 1.215-.07 1.812 0l-.906.906h-.906v24.063h69.468V.517H675.72h0Zm9.093 35.906 1.063.47.813.905.906.625.906.97-1 .468-1.063-.281-1.906-1.532-.718-.906 1-.719h0Zm7.375 4.157h.907l1.875 1.25-.907.53-2.875-1.25 1-.53Zm-3.156 16.937c.897-.076 2.066.363 2.719 1.063l-3.875.968c-.368-1.385.26-1.955 1.156-2.03Zm9.094 10.875.719.875-1.969 1.188-.375-1 .813-.907.812-.156Zm-7.75 2.875 1 .531-.188.907-.968.187.25.438h-.969l-.906-.72 1.781-1.343h0Zm5.063.813h.625l-.094.875-.531-.875h0Zm-1.094 1.78.906.095-.906.625-1 .187 1-.906Zm-3.25 2.72.281.718-.906.157.625-.875Zm-2.25.343h.562l.157.907-.72-.907Zm2.812.532.875.28-1.437.626.562-.906Zm.625 1.625.438.093-.907.813.47-.906Zm-10.812 1.625h.625l-.625.906v-.906Zm3.875.28h1.906v.345l1.063.468h1.812l-.094.907-1.812-.282-.969-.28-.906-.438-1-.72h0Zm12.593.626.375.187.344.907-.531.875-1 .468h-.969l.157-.906.718-.906.907-.625Zm-6.187 11.531.969.063.906.812-.188 1.906.375 1.875-.093.907.531 1.437-.531.906-.094-.906-1-1.781-.094-1-1.062-1.906.437-.875 1-.282-.906-.28-.25-.876Zm51.188 50.281-.094 1-.906.625-.97.282h-1l-1.874 1.343.437-1 1.875-.718.657-.97 1.875-.562h0Zm-67.22 64.313v137.437h-44.28v27.188h44.28v85.281H654.75v23.688h20.969v374.562h69.468v-96.687h-34.812v-43.72h34.813V588.674h-37.22v-9.593h37.22v-52.47h-.094l-.906-.093-6.094-2.875-1.813-1.344-.718-.812-1.97-1.719-.28-.437-1.344-1.094-1.281-.344-.813-.469.188-.343h-.188l-1.25-.907-1.062-.437-.657-.906-.625-.375.094-.188-2.781-1.25-.907-.531-.093-.625.906-.375-.625.094-.906-.625-.281.093-1.782-1 .25-.718-.343-.907-.907-.156-.25-.906.875.531-.343-.281.187-.25.969-.375-.906-.094.093-.344h-.875l.157-.906h1l-.532-.437-.906-.375-.094-.72-.906-1.812-.531-.343-.188-.907-.343.47.25-.907-.094-.094-.531.438-1-.72v-.718h-1.063l-.906-.719-.813-1.625.094-.156-.906-.562.562-.97-1.53.25v-.905l-.907.468-.531-1 .25-.718-1.063.28.719-.905.875-.625-1.438.187.282-.906h1l.875.344h.375l-.375-.157v-.718l-2.5.343-.625.438-.907.187v-.906l.813-.25-1.094.094-.906.437-.031-.03-.938-.5.344-1 .594-.407.312-.219-.313.094-.843.25-.375.375-1.532-.625-.25-.375.72-.875h.812l-.657-.906-.53.156-.282-.531.094-.907-.25-.625-.094-.906.719-.437.531.906h1.813v-.625l1.875-.094.906-.281h.437l-.437-.188-1 .375-1.782.094-.906.438-1-.72v-.437l.375-1v-1l-.468.719-.532.281 1.094-1.625-1.438 1a4.483 4.483 0 0 0-.375-1.375c-.09-.2-.199-.386-.312-.562a5.234 5.234 0 0 0-.375-.5c-.136-.165-.288-.318-.438-.469-.133-.135-.266-.277-.406-.406-.301-.279-.606-.561-.906-.844l1-.437.438-.438 1.093-1.375 1.438-2.5c-.031-.324-.06-.61-.063-.906 0-.11-.002-.207 0-.313.002-.088.027-.164.031-.25.01-.2.01-.404.032-.593.014-.126.044-.254.062-.375.044-.29.09-.547.156-.813a10.7 10.7 0 0 1 .344-1.094c.19-.516.41-1.017.625-1.5.141-.319.274-.646.406-.968.034-.082.062-.168.094-.25.118-.299.218-.591.313-.907.003-.01-.003-.022 0-.03l.062-.22c.058-.214.115-.43.156-.656.007-.04.025-.083.032-.125.016-.1.022-.208.03-.312.015-.112.023-.229.032-.344.006-.074.027-.143.031-.219.003-.05-.002-.105 0-.156.008-.252.017-.509 0-.781l-.187-1.875-.313-1-.687-2.157-.875-.718v-.72l1.062-1.905.188-1.782-1.344-2.625-.563.47-1.156-2.063-.344-.282-.28.532-.282 1.187-.188-.906.813-4.688.469-.906.718-.906.907-.344.437-.906.188-.906.625-.97v-.812l.313-.53 1.312-2.188.188-.875-.907.78.625-.874 1.532-1.281 1.625-1.782.875-.718.562-.907.438-3.156 1.343-2.687.282-1.094 3.593-2.25.719-.906.281-.782-23.343-.093v-30.657l33.843-35.562 11.25-12.125-.593-.844 1.062-.906.281-.469-.375.375-.906.25 1-.969-1 .094.188-.906.468-.719-.906.344.094-.875.156-.188-.875.188-.375-.375.094-.281-.625-.875 1.875-1.438.906.063.906-.344 1.344-.281v-.438l-.188.094.47-.907.905-.625 1.75.188.125-49.688-.375.094-.53 1-.72-.281-.718.906-.907.25-.437-.625-.625.094.437.906-4.218 1.531-.907-.468-.906.28-.906-.187 1.812-.906-1.875.188-.718.375v-.47l1.593-.968-1.593.344h-.907l-.906-.438.719-.906 1.094-.281.968-.531-.968-.094-1.813.281.438-.906h2.343l-.25-.906 1.782-1.063 2.343-.562 1-.063-.906-.094v-.656l-.906.906h-1.875l-1.375.47 1.906-1.813.094-.907.531-.906 1 .094.344-.156-.344-.72-1.812.25-.532-.968-.906.531-1.062-.53-.657-.907.657-.094v-.469h1.437l-.906-.156.437-.906h.907l-.907-.625-.625-.188.188-.906-.281-.906-.25-.156v-.563l.968.281 1-.375.907.188.875.562.28.344.907-.906 1.875.562-.625-.906 1.344-.812h.375l.437-.188.375-.906h-2.718l.906-.813.906-.437-.625-1.094.719-.875 1.875-.187.906.187.375.875h.156l.375-.594v-.875l-.093-.312h.093v-52.781H675.72h0Zm27.907 273.062.531-.093-.437-.094-.094.187h0Zm4.656 3.063.469.187.344-.187h-.813Zm25.313-215.25v.719l-.907-.375.907-.344Zm-24.938 218.406-.718.188-.188.812.375-.094.531-.906h0Zm-.906 1-.188.094h.188v-.094Zm-.188.094-1.687-.281-.188-.375-.28.468-.22.031-.687.157.688.03 2.03.032.345-.062h0Z"/><path fill="#8cce55" stroke="#0f380f" stroke-opacity=".145" stroke-linecap="round" stroke-linejoin="round" d="M681.969 44.36c-.621.473-1.223.976-1.844 1.438.623-.466 1.221-.962 1.844-1.437Zm6 8.532a9.33 9.33 0 0 1 0 0Zm9 53-.907.75-1 .156-.906-.625-1.781.47.531.874-.437 1.906 1.781.344 1-.094.906-.25 1.875.094.907.625.718-1 .282-.906h-.907l-1 .656-1-.469-.343-1-.907.094 1-.25.907-.469-.72-.906h0Zm-11.625 3.25-.907.625.188.906v1l1 .532.969.187.656-.281.969-.813-.625-.906-.344-.062-.906.062.906-.531v-.344l-.906-.281-1-.094h0Zm8.906 3.156.906.72v-.626l-.906-.094h0Zm-1.875.438-1 .562 1 .532.875-.188.094-.437-.97-.47h.001Zm-28.594 1.375-1.406.219-.25.03c-.114.026-.23.035-.344.063l-1.781.594-.219.063-.187.093-.313.157-3.031 1.625c-.082.053-.169.102-.25.156-.462.306-.915.614-1.344.937-2.105 1.762-3.856 4.18-5.312 7a36.662 36.662 0 0 0-1.032 2.188c-3.587 8.24-4.931 18.906-4.718 26.187l3.5-.718.468-.094.875-.094.907-.344.906.344h1l3.688-1.781.906.25.968-.188.907-.343-.532-.907-.906-.187-1 .281-5.656.531-.906-.093.187-.875h-1l-1.781.437-1-.094.906-.343 1.875-.282.907-.718.906-.438.531-.906-.094-.906-1.875-.719.907.094.968-.188 1.813.188-.906-.625.187-.907.625.907.906.812h3.688l.906-.187.969-.625.906-.094 1.25-.625.719-.906 1-.375-.719-.969-.906-.813h-1.875l-1-.187-.906.187-1.875-.375-1.813-.625-.969-.093-2.812.531-.969-.156h.875l.906-.469.907.094 1-.344.968.062-.53-.875-.907-.468-.813-.907-1.968-.156-.907-.281v-1l-.906-.25 1 .094 1.813.968h.875l1 .47.812.905 1 .438.813.906.875.719.906.25 2.812-.344 2.157.438 2.687 2.093.906-.093.97.25 1.905 1.625.282 1.906.875 1.781 1 .719 1.906.906.875.188h1.906l.906-.625-.187-1.813.906-.531-.187.906.25.969.812.906.906-.375.907.656 1-.187.343-.906-.437-.907.093-.968-.468-.907v-.906l-.907.094 1-.906-1.968.375-.907-.094 2.875-.563v-.875l-.906-.468.907-.25.187-.907-.906-.906-1 .188-.875.531-.282.906-.812-.906v-1l.906-.344.907-.093.812-.907h-.906l-1.813.625.282-.875h-.907l-1.812.875.281-.875.906-.468.907-.72-.813-.905-1-.25h-.906l-.969-.907-.906-.375-.907.375.375-.906-.906-.438-1.906-.562-.875-.719-1.906.094-.907.281-.906.719-.781.906.344-1v-.906h-.907l-.968-.25h2.781l1-.188.875-.375.375-.875-.188-.906-1.875-.469-1.812-.718-1.875.906-1 .093-.906.813v-1l-.907.187h-.968l.968-.718-.906-.282-1.875.282-.906-.438.906.156 1.813-.343.875.187 1 .438 1 .187.906-.187.875-.719 1.906-.094.907-.28.812-.876-.906-.562-1.907-.25-1.875-.72h-2l-.875.813h-.906l-1-.28-1 .093-.531.906-.25-.906-1-.281h1l.875-.25 1.906.343 1-.343.063-.907-.875-.093-1.907-.625-.906-.907.907.094.906.719.906.437h1.875l1 .72h1.781l1-.626.532-.906 1-.438 1.812-.187-1.094-1.781-1.781-.907-.906-1 .968.375.907.72.906.437.375.906.969.437 1.906.282-.469-.907.625-1 .907-.343 1.812.625h.969l3.718 1.53 1.875-.53-1 .53-.968.095-3.782-1.438-1-.094h-.906l-.093.907.906.718 1.906 1.063.875.187.906.532 2.875.718 1 .094.907-.625 1-.437.875-.188 1-.719.906.188h2.781l.906-.656-.375-.97v-1l.907-.812-1-.531-.97.094-.905-.375-1-.157-2.688-1.093-1 .281v.969l.625.906.188.906-1-1.812-.72-.907-.874-.062-.906-.375.906-.188.969-1.875c-.582.02-1.182-.03-1.813-.093-.051 0-.105-.027-.156-.031-.122-.013-.251-.048-.375-.063-1.765-.22-3.658-.64-5.563-1.031h-.062l-2.156-.406a30.314 30.314 0 0 0-1.907-.25c-.075-.008-.143-.025-.218-.032-.043-.003-.083.003-.125 0-.499-.036-.99-.07-1.47-.062h-.062 0Zm17.157.625-1.97.719-.812.968.969.72 2.813.812 3.843-.625.907-.344-.907-.375-.531-.906-.969-.625-1.468-.344h-1.875Zm-16.813 9.25-.906.812.906.094 3.688.281 1.875.532.906.093 1-.469-2-.78-2.688-.563h-2.781 0Zm17.625 2.531-1 .344 1-.156v-.188Zm-9.438.625-1.906.375-2.781.25-.906.813 1.968-.094 1.813.375 2.781.187 1 .344.438.906 1.906.094 1.781-.281-.968-.906.968-.72-2.25-.718-1.875-.344h-.906l-1.063-.28h0Zm-7.656 1.438-.906.187-1 .438 1.906.375.438-.907-.438-.093h0Zm4.313.28-1.875.095-.282.968.094.907.813.906.875.187.906.719 2.875.906 1.812 1.063 1.813.812h.969l.375-.906-1.532-.969-.906-.187v-.906l.906.187h1l.875.438.282-.907-.907.094-.906-.906-.875-.157-.906-.625-1-.468-.625-.907h-1.969l-1.812-.343h0Zm-8 15.657-1 .188-1 .343-.875.532-1 .28-2.688.188-1 .813-.906.344-.906.812-.907.094-.437.906 1 .719 2.781-.375.907-.344 1.875.094.906-.375 1-.188.906.281.875-.437 1.906-.469.188-.906-.282-.875-.906-.906-.437-.719h0Zm-8.657 1.438-.968.343.343.907.907-.438 1-.719-1.282-.093h0Zm6.657 3.062-.875.531.968-.437-.093-.094h0ZM635.25 351.986a2.25 2.25 0 1 0 0 4.5 2.25 2.25 0 0 0 0-4.5Zm18.75 3.75a2.25 2.25 0 1 0 0 4.5 2.25 2.25 0 0 0 0-4.5Zm-5.5.75a2.25 2.25 0 1 0 2.25 2.281l.313.094-.313-.219a2.25 2.25 0 0 0-2.25-2.156h0Zm13.188 4.25a2.25 2.25 0 1 0 0 4.5 2.25 2.25 0 0 0 0-4.5Zm1.375 104.281a2.25 2.25 0 1 0 0 4.5 2.25 2.25 0 0 0 0-4.5Zm10.656 1.406a2.25 2.25 0 0 0-2.25 2.25c0 .787.42 1.473 1.031 1.875a2.25 2.25 0 0 0 .281 2.75c-.096-.013-.18-.03-.281-.03-.761 0-1.437.39-1.844.968-.09-.011-.188-.031-.281-.031-.917 0-1.68.557-2.031 1.343a2.214 2.214 0 0 0-1.438-.53 2.25 2.25 0 0 0 0 4.5c.918 0 1.681-.559 2.032-1.345.39.326.889.532 1.437.532.761 0 1.437-.39 1.844-.97.09.012.188.032.281.032a2.25 2.25 0 0 0 2.25-2.25c0-.606-.236-1.158-.625-1.562.097.013.181.03.281.03a2.252 2.252 0 0 0 2.25-2.25c0-.785-.42-1.44-1.031-1.843.22-.348.344-.777.344-1.219a2.25 2.25 0 0 0-2.25-2.25Zm-6.25.5a2.25 2.25 0 1 0 0 4.5 2.25 2.25 0 0 0 0-4.5Zm36.25 13.688-.094.187.531-.093-.437-.094h0Zm4.562 3.25.469.187.344-.187h-.813Zm.375 3.156-.718.188-.188.812.375-.094.531-.906h0Zm-.906 1-.188.094h.188v-.094Zm-.188.094-1.687-.281-.188-.375-.28.468-.22.031-.687.157.688.03 2.03.032.345-.062h0Zm-4.5-.906.625.906h.032l-.657-.906h0Zm6.125 6.375-.28.718.562 1-.532-1 .25-.718Zm9.625 12.062-.187.906h.031l.156-.906h0Zm-.187 1.719.281.906-.25-.875v-.031h-.031Zm2.531 3.937-.906.094-.094.281.907.281.906-.28-.813-.376h0Zm12.157 8.032.25.437h.03l-.28-.437h0Z"/><path fill="#3e73c5" fill-opacity=".429" stroke="#000" stroke-opacity=".247" stroke-linecap="round" stroke-linejoin="round" d="m742.928 143.414-1.875.562-.657.969-1.875.719-.437 1 1.875-1.344h1l.969-.281.906-.625.094-1Z"/></svg>