<svg width="1671.094" height="856.393" xmlns="http://www.w3.org/2000/svg" xmlns:usvg="https://github.com/RazrFalcon/usvg" usvg:version="0.8.0"><path fill="#3e73c5" fill-opacity=".429" stroke="#000" stroke-opacity=".247" stroke-linecap="round" stroke-linejoin="round" d="M258.521.506v73.252l-28.78 11.531-19.907 11.469-9.531 18.781-11.25 34.375-2.157-1.375-.906.813.188.906.906-.094-.094.906 1.813.438-2.813.469-.875.437c.77 2.288-.973 1.001-2.718 3.594l-1.063-.25v-.906l.719-.907-.906.72-1.875.187-3.344 1.156-1.531 1.812-.625 1-.907.813-.187-.906.281-.907-.531 1 .25-1-.625-.906.187 1-.625-1 .438 1-.813.906-.187-.906-.625.906.093-.906-1.78.188v.968l-.907.657-1.813.625-1.875 1.062.188.906.969.188.906.437-.906.188-1.875-.094-1 .53 1 .562-1.813-.717-.093-.908.906-.53.625-.908 1 .25.093-.875.907-1 .875.438.812-.904 1-.784.438-.904.906-.283 1.906-.094.875-.343.906.156 1-.625.907-.25.875-.813 3.875-1.625.375-.906-.625-.906-1.813 1.094h-.906l-.906-.375h-.969l-.906.28-.907.813-.187.438-.719.906-.344-.906-1.906.812-.875.625-.906.375-.906.188-.907-.281.907-.282-1 .188.093.906-1.875-.187-1.093 1.906-1.97.156-.905.656-.907.344-.968.188-.813.906-.906.344-.531 1 1.78 2.437-.25.063-1-.532-.718-.968-.906-.563-.906.375-.907-.375-.875.625.438 1 .906.531h-.375l-.156-.156-1.906-.656-.907-.625-1.343-.344-1.25-.094v9.813l.906.437.531 1.907-.187 1.25-.282 1.25.188.468 5.594-.093 4.937.093.094.875.187.282v.906l.625 1 .188 1.25-.719 1 .969.062.281 1-.719.907h.188l.969.812 1.812-.531.719.156 2.687.281-.968.532 1.53 1.812v.719l-.562.906-.875.625-1.187 1.25h.906l.906.813-.562.906v.281l-.438.875 1.813.625.969.656.375.438.906.281-.375.875.906.469.906-.625.907.156.875.656.375.97v.562l1.78 1.53 1.282.782-.187.906h.906l.625.563.719.875-.375.906-.344.281v.813l.719.875 1 .187-.47 1.282.282.968 1.063 1.344 1 .563-.282 1.78.282.282 1.812 1.156 1.063-.437 1 .812.718.907.907.53.187.532 1.781 1.438.532.093 1.28.188.72 1 .156.875-.25.906.094.469.625.875.187.906.813.188.968-.438.907.25.906-.625.531.438.906-.438 1.782.531 1.375-.437h.875l.906-.719 1 .813-.438.968.72.907 1.062.718.093.907 1.094 1.812-.187.25.906.281h17.719v17.719l-1.25.375-4.97-.094h-1.343l-3.406.438-1.094.625-.281.469.469 6.375v.187l.187 1.625-.375 1.875.188.469.093.094 2.063.093 1.625 2.406 1.156 1.438 1.437 1.281.625.344 3.438 2 .906.969.531 2.343.907.625-.563.72.656.905 1.157.532 2.25 1.437.906-.25.625.813.437 1.062v.188l-.437.531-1.094-.094-.969.188c.865 1.923 2.004 3.272 3.25 4.375.312.275.616.53.938.781.006.01.025 0 .031 0 .316.245.617.487.938.719.66.479 1.319.92 1.968 1.406.322.24.627.493.938.75.938.776 1.82 1.653 2.562 2.781.246.373.475.755.688 1.188.066.134.093.297.156.437.545 1.222.992 2.679 1.219 4.5l1.687 2.25.657 1.157-.188 1.093v.157l-.469 1.375v5.375l.375 1 1.344 1.625.188.906-.375.156.906.719 1 .469.531.718.906 1 .344.25v.282l.906.906.907.437h.187l.813.094-.47 1.875-.155 1.375.25.875.093.187-.53.907-.188 1-.438.343-.375.532-1.344-.625-.906-.344-1.437 1.062-1-.343h-.875l-1.375.25-.344-.875.094-.657-.094-.875-.719-.906-.625-.187-.906.906.906.437.625.907-.469.625-.53.906-.188 1-.625.812-.094.25-.156.907-.813.906-.375.812-.25.97v.374h-.656l-1.156-.719h-1.25l-.907.438-.718 1.187v5.75l.093 2.532.344.968h5.125v2.813h13.781v31.406l-.437.875-.906-.437-1-.188-.907.469v.344l.47 2.062v1l.25.469-.157 1.781v.094l.25.906.375.344v.094l.094.093.437.907 1.094 1.156-.813.906-.906.906v.344l.094.906-.281.625-.188.563-.625.875.188 1-.094.187.906.438.188.625-.375.812h-.344l-.469.094v.096l-.437 1-.094.093h-.375l-.094.094-.156.344-.188.437-.093.282.281.468v.063l.156 1.375 2.969 1.687.906.375.906-.625 1 .438.25.906.813.344.906.094.906.468.094.438-.187 1.906 1.53 2.688.095 1 .812 1.53.25.313v8.188l-7.812.031-4.063-2.5h-9v22.313l20.875.093v422.406h69.563l-.157-171 .157-19.812V472.257l-1.157-.093-1.53-1-2.25-.719-.72-.906-4.937-1.156-1-.72-4.875-1.718-2.781-2.156-1-1-.875-.25-.563.25-2.875-.719-.969-.531-2-.531c-4.875-7.052-5.878-.482-10.343-10l1.812-.907.156-.437-.093-.188v-.095l.093-.094.188-.25.906-.625.906-.469.875.469h.375l.094.062.188.282.875.625v-.344l.375-.906v-.375l-.094-.625.719-.094.625-.875-1.063-.563.156-.968.188-.375-.906-1.063-.532-.375.375-1 .094-.25-.094-.562-.625.093h-.093l-.813-.968-1.094.062-.53.281.437-1.062-.438-.906-.906-.375h-.906v-.625l-.97-.282-.093-.156-.375-.562-.25-.875-.281-.094-.375-1.188-.25-1.437-.188-.531-.906-.907-.969.47-.906-.47-.531-1.156-.188-.469-.906-.812-.531-.531-.281-1 .093-.625.282-.97.53-.655.62-.356-.176-1.265 1.164-.653-.068-.646.318-.145-.093-.65.61-.444.41-.365.368.76.584.58.573-.496.459.809 1.173.586 1.05-.756.259.746c.645-.127 1.29-.598 1.935.035l.47.69 1.585-2.426c.376-.059.688-.435 1.17.039l1.443.671-1.476-6.708 3.008-5.305-5.41-3.276-.881-3.775v-2.557c.072-.291.111-.575.156-.875.129-.858.188-1.761.187-2.656 0-1.207-.065-2.423 0-3.594h8.188l.281-.25v-4.406c0-.601-.008-1.212 0-1.812v-.407c.014-.734.054-1.486.094-2.218V370.193l.187-.437v-2.625h4.563v-4.032h2.437c-.05-.451-.06-.664-.093-1v-.093l-.094-2.532c.035-.25.091-.479.156-.812.003-.014-.003-.049 0-.063l.219-.656.094-1.062v-.438l.437-.812v-1.282l-.812-1.156h-2.344v-2.25h3.437v-.812l-.093-1.532v-1l.437-.968-.093-1.813v-1.531l-.72-1v-.875l2.095-.094.625-1.281v-.438l.187-1.25-.094-.906-.375-1.25.188-.656-.281-.875v-.375l-2.612.002v-4.656h.96v-1.08l.79-.108 1.955-.002 1.344-1.812-.094-.156-.093-.376-.72-.093-.905-1.875.28-.188h1l.157-1 .469-.25.187-.906v-1.094l-.906-.968.625-1.282-.625-.906h-5.035v-1.23l.65-.567.502-.336.862-.52.629-.087.707.242.607-.525.61-.477-.876-.969-.187-.468-1.25-.188v-.25l-.563-.719h1.282v-.718l-.375-1-1.625-.375-.125-.782c-.012-.038-.018-.06-.032-.093-.107-.272-.273-.364-.468-.375h-.031c-.297 0-.722.136-1.25.187h-.688c-.03 0-.062.01-.094 0l-.062-.031-1.125-.438-1.063.47-1.093-.095-.875-.375-1.813-.062h-.719l-.906.625-.719-.906v-.188l-.906-.812h-.344c-.004-2.31.022-4.598-.093-6.907h-27.625l.01-22.486h1.449l.19-.69.298-.427.354-.281.382-.489.51-.027.262.65.336.536.433-.336.21-.457.23-.239-.096-.33-.328-.207-.338-.338-.213-.43-.29-.28-.36-.376-.455-.287-.213-.58-.383-.103-.412-.178-.271-.43-.319-.261-.476-.18-.5-.125-.01-42.305h36.875c.355-3.224.35-6.793.28-10.406-.076-3.818-.16-7.171-.093-10.656v-30.323h59.205V159.29l-21.842-22.648-8.337-.057-4.104-5.744-18.629-5.156-4.375.724-2.387-1.502V49.194h21.344V.506h-69.562Zm7 664.564h29.229v19.813h-29.229V665.07Z"/><path fill="#8cce55" stroke="#0f380f" stroke-opacity=".145" stroke-linecap="round" stroke-linejoin="round" d="m314.156 147.767-.906.156.188.907.906.437h.969v-.875l-.97-.469ZM307.219 155.142l.375.438.906.375.875-.907.906.907 1.813.156.344-.875-.25-1.813-.282-1-1.812-.343-.875.187-.188-.906-.906-.469-.906.094-.469-.125h0l-.438-.125-.875-.813-1.906-.656-.531-.969-1-.53.094.874.906.469-.906.094-.907-.72h-.968l-.907-.812-.906-.468-1.531-1.875-.813-.282-1-.812.75-.906-.093-.875.875-.375-.344-1.782-.438-.906-.75-1-.875-.812-.187-.907-.719-.968.188-.907-1.281-1.812.093-.969-.969-1.906v-.906l-1.812-1.625-1.906-.625-.875-.72-1-.437-.907-.812-.812.093v.907h-.875l-1-.719-.906-.375-1.875-.281-.282.906.907.469-1-.094-.907.438.625 1-.062.718.437 1.875.188.188.094 1 .53.906.095.875.718.906-.28.907.812.906.375.906.875.719.375.875-.907.187-.906.532-.906.28.187.626-.906-.531-.969-.188-.28-.906.28-.875-.906-.656v-.97l-1-1.812-.094-1 .188-.875-.969-.562-.906.187.25-.968-.969-.375-.094-.375-1 .093-.906-.719-.437-.875-3.344-.75h-.969l-.094.907.532.625.906.093.906.72 1.531.187-.906.28-.906-.187 1.813 1.813-.907-.094-.906-.375 1.813 1.094-.907-.094-1.812-.906.093.906-.906-.281-.969-.531-1 .531-.437.906-1 .094-.906-.281-.438.906-.906.625.625-.906h-.906l.906-.719.906-.625.906-.906.157-1.063-2.875-1.25-1.875-.375-1-.437-1.875-.563h-.906l-.907.375-1.625 1.782.906.28-.906.813-1.875-.093-1.906.812-.625-.094-.188-.343.907-.47.469-.905.875-.344.656-.094-.281-.906.343-1.875-.437-.906-.906-.907-.907-.25-.969-.093h0l-4.312 1.53-.906.094-.906.438-1 .094-.907.437-.875.188-1.906.906-1.875.437-.906.907-3.781 2.25-.813 1 .906.812h1l.25.875-1.875.469-.906.625-.906.906-.813.969-.187.906.093.906 1 .907.907-.72.968.095.907.53.906-.624h1l.906.719-1 .343h-.906l-.906.563.906.781c2.1-.272 4.406.106 6.406-.719l2.875-.343 1.781-.438 1.907.531.906-.28-1 .468-1.906-.094-.875.156-.907.282.907.375-.907.343h-1l-.906.188-.969.281-.375.25-4.75.906-1.812.813-.625.906.812.969 1.782.906.718.906 3.782.188 2.718-.281.97.53.905-.155 5.688-.282.969-.437.906.062 1-.343c2.777.503 5.486 1.458 8.344 1.718l.75.875.625.282 1.875.187-.907.625-1.875-.094-.906-.187-1 .562-.875.157-2.906-.532-1.875.094-2.781-.437-2.813.343-1.875.094-7.469 1.156-1 .282-.875.437-.375.375.813 1.813.906.718.969.344 1.281 1.813 2.781 1.062 3.688.469 1-.281.875.187 1.906-.281.906.281h.907l1.875.531-.344.907.344.906-.188.875.281 1 .625.906.907.438 1 .718.875.094.906-.25 4.781-.375 1.781.094-.875-.281 1.782-.25 1 .156.906-.25.875.187.906-.375 1 .094 1.875-.188 1-.437h.906l.907-.281 2.781-1.719 1.875.094 2.812-.625.875-.907 1-.625v-.906l1-.531.532-.906 1 .375.531.906-.438.875.875.656c3.42-1.016 3.03.969 5.688.438l-.906.906.906.719 1.875.25.906-.532 1 .375 2.781.438.907.375.906-.563.969.375 1.812-.53.906-.72 1.313-.062.469-.03h.093l.813-.907.094-1-.907-.438h-.093 0l-.469.188h0l-.344.156c.13-.32.251-.646.375-.969.105-.226.29-.445.438-.656l.187-.25-.187-.094-.469-.187h0l-.25-.094-.969.093-.906.532-.906.281-.906.72-.72.905.376-.906v-1.781l-1.813-.75.906-.438 1.782 1 1-.093.531-.907-.813-1 1-.156.907-.469ZM325.594 154.517l-.906.719-.47.875.376.906.906.813-.906-.188-.906-.812.093 1.906-.906.437-.531.907-1.813.375-.969-.094-.906.531.188.906.906.907.969.062.906-.719.187.907 1.782.718.375-.906.437.906 1 .532.906.093.97.47.905.624h.907l.906-.375.906.563 1.688.53.906-.187.906-.812 1-.438 2.4-1.925-.63-.453-1.277.573-.624-.301-.213-1.675c-.058-.357-.144-.732-.218-1.094l-.532 1-.53-1.875-1.907-1-.969-.375-1.812-1.593-.907.343.094-.906-1.812-.875h-.875ZM336.281 156.486l-.875.437-.375.907.906.187.438-.906.188 1-.188.875 1-.156.438-.907-.438-.906ZM331.688 156.923l.906.907 1 .53.906-.343-.094-.906-.812.187-1.906-.375Z"/><path fill="#8cce55" stroke="#0f380f" stroke-opacity=".145" stroke-linecap="round" stroke-linejoin="round" d="m311.375 157.205-1 .28.719.876.531-.875ZM308.563 159.986l.28.906.626-.906ZM315.406 160.892l.188.906.906.25v-.156l-.094-1h-1ZM314.594 161.423l-.969.282v1.78l.875.47.906-.625.469-1-.906-.72ZM306.75 164.736l.469.125.562.156.875-.625v-.906l-.875-.344h0l-.562.281-.344.157-.125.093h0l-.875.625ZM366.285 159.548l-1.816 1.688-.469.906.281.906-.542 1.109-.632-.082-.678.713.067 1.042-1.572 1.38-.08-.756-.625-1.78.187-1.72-.625-1.875-2.781-1.812.875-.281v.469l.906.093.469-.906.875-.437.906-.094-.906-.719-.875.25-1.906-.625-.906.281.906-.718-.906-.375-.97.375-.468.437-.906.469-.875-.375-.844-.531-1.562-.747-2.624-.083 3.748-1.108.375-.219.907-.906.344-.094-.907-.718-.969.093.344-.906.906.094.907.437 1.875-.156-1.438-1.906-.906.531v-.969l-.875-.562.25-.969-1.875-.719-.906-.906-1.094-.469.563-.875.093-1.812-.281-.907-1-.906-.531-.875-1.813-.812-.344-1-1-.438-.906-.093-.875.437-.281-.906-.906.562.093-.906.375-.906-1-.344h0l-1.906.344-.531.906h1.813l.906-.187-.906.28-1.907.188-.812.875-1.781.813-.094.906.906.188.969-.094-.438.906-.093.906-.907-.187-1.156-.813-.906.094-1 .906-.531 2.688-.438 1 .531.875.907.812h.906l.875-.437-.719.906.906.344-.906-.25-.875.344-.375.906-.906.719-.156 1 .156.875.719.906 1.093.531.188.906.875.563.906-.094.906.625 2.782 1.063 1-.72.906.907.812.906 1.875.188.907-.719h1l-.094.875.719.281-1.813 1.438-.187-.906.906-.72-.906.376-.875-.094-1 .281-.375.875.906.657-.531.875-.907.656-.812.875.281 1 1.438-.188 1.812-1.062-.906.344.25-.97.719-.905.812.906.281.875-.812 1.906h.906l.094.438-2 .625-.875.625-.188 1-1.812.906-.906.906-1.782-.187-1 .093-.625.907-.093.875-.72 1 .907.53.813.907-.188.906.813.907-.72 1.343.123 1.392h28.327Z"/><path fill="#8cce55" stroke="#0f380f" stroke-opacity=".145" stroke-linecap="round" stroke-linejoin="round" d="m355.719 154.86-.875.282.875.531ZM361.938 158.205l-.813.062-.344.906h.969ZM359.688 159.08l.437.906.469-.719ZM363.188 162.767l-.344.375v.281c.2-.096.402-.17.625-.218ZM307.219 132.173l.281.094.344.906-.063.188.875.625.906.094.907-.375.906.28.625 1 1-.28.875.53 1.719 1.72 1.812 1.343 1.781 1.719.813 1.875h.906l.906.469.907.187.969-.187.906-.719.812-.906-.906-.906-.625-.907v-.875l.906-.562-.562.906.281.906 1 .25 1.875.188h.906l1-.344 1.875-1.281h1l.625-.875-.906.062.906-.78-1-.188 1-.72-.187-.905-.969-.813 1.875-1-.094-.875-.531-.906-.281-1-1.781.469-.907.625.282-.907-.36-.497-5.422-1.753-.625 1-.187-1-9.531-1.968.906.437.812.906.438.907-.969.53-.75-1 .094 1 .281.907-1 .156-1.25-.093-.906.562-.907-.094-.875-.718-.718-.907-.907-.437-.625-.906-.468-.188-.438-.187h-.031l-.969.187-.906.281-.344.969-.719.906v.907l1.875 1.343ZM157.031 155.767l-.093.969-.72.906h-2.25l-.874.375.062.969.282.562-1.813-.718v.906l-.875-.75.094.906.969.625-.97-.344-.905-.53v.874l.906.656 1.062.25-1.875.47.813.437h.969l.375-.532.968.344.906.281.907-.718.437.156v.031l.594.75.781 1.031.844.344-.344-.406-.437-.469-1.063-1.719.813-.718 2.875-2.594.625-1-.906.375-.97-.375-.28-1-.907-.344h0ZM185.656 147.923l-.437.907.969-.438-.532-.469ZM298.219 66.767l-5.844.719-1-.281-.969 1.812.094.969.969.469 2.812-.282v.907l-.906 1 .906.53.969-.53.562-1 1.782-.282 1 .657-1 .78-.094.813 1.906-.343.906.093-.093.907-2.094.437.906.344h1l.438.906-.969.188-2-.094-.906-.344-1.969-.187-1 .25-.531.562.719.906 2 1.438 1.78.156 1.094-.25.875-.469 3.875-.625v.907l1.094.53 1.781-.437.438.032V70.08l-.344.187h-.437l-.531.906-1 .72-.625-1 .53-.907-.812-.875-.531-.906-1-.532-1.875-.375-1-.437Zm-29.969 6.281-1.875.282-2.875.906-1 .719-1 .25-.969-.063-1 .156-2.875.813-.906.375-1 .812 1 .72c8.163-2.865 4.45 2.098 9.438-1l1.906.812 1 .093 1.969-.468 1 .28 1.875-.187.53-1.78-2.78-1.813-.532-.188Zm34.313 4.97-.907.624.438.906 1-.625v-.906Zm-34.313 1.624-.875.063-1 .375-1.813-.188c-3.138.873-7.077.195-9.718 2.438l.281.906.188 1.781 1.78 1.188 1-.094.72 1 1.906.344 3.844-1 .906.187 1-.344 1.969-.375.906-.437.281-.906.063-1-.97-.72-1.906.188-.718-.906 3.062-.344 2-.562.875-.875-.875-.656h-1Zm-18.156.344-1.625.469-1.813.875c2.173 1.677 4.399 3.71 6.844 1.093l-.906-.718-.969-.532-1-.28Zm55.781 1.906-.906.25.187.906 1 .625.594.188v-1.969Zm-16.813 1.25-.093.906 1.25 2.782 1.969 1.812.906.25 1 .625 1.156-.25.906-.562-.343-.97-1-.812-.907-.375-.343-.875-.813-.906-2.438-1.531Zm-49.156 2.063-1.875.28-1 .626 1 .625h1l-.906.719-1-.344-.906.531c-4.224-1.091-5.011-.514-8.625-.187l-.813 1-1.812 1.062-.875.906h-.281l-.813 1-1 .344-.25.906-2.875 1.094-.906.625-.719.906-.906.813h-1.969l-1 .156-.906.375-1.875 1.438-.563.906 1.813-.375.281.906-.813.906.97.532 1-.344.905-.656.97-.157 2.718 1.063 1-.531.25-1 .469-.907.969.282-.188 1 .906.53.625 1.813.906-.468 1 .187 1-.375.532-.875.25-1-.875-.375h.969v-.875l-.25-.906.906.437.625.907.969.718.906-.812v-.906l1-.157.437-.906-.906-.719-.25-1 .906.47.969-.376.469-1 .156-.875.906-.187 1-.47.281.907-.468 1v.906l-.438.875c1.251 1.627 2.992 1.987 4.75.907v-.907l-.25-.875.969-.187.906-.375 2-.25.875-.469.469-.875-.906-.906-.906-.563 1-.156.968.094v-.906l-.969-.282-.812-.906.906-.812.969-.157 1.906-.906-.906-.906L242 86.11l-1.094-.625Zm57.063 3.78-.281.907.906-.906Zm-45.813 2.688-1.781.188-1 .281.094 1 2.875.344 2.25-.281.375-.875-.907-.47-.906-.187h-1Zm24.75.375-.906.375-.969-.093-2.812 2.25-.063.875-1 .187-1 .469-.531.875 1.531 1.094 1-.094 1.781 1 .47.906-1.813.875-1 .094-.438.281v.25l1 .188.875.562 2 .438.875.343.656 1-1.812.907-3.594-.282-1.906.094-.969-.25h-.906l-1.906.437-.875-1 .25-.906-.906-.781-.97-.375-1 .281h-1l.907-.719 1-.093-.906-.813-.906-.375-.97-.156-.562-.906-1.969-1.281h-1.812l-2.875.718-.625-.968-.094-.907-.906-.906-.969-.187-.906.093-1-.25-1.969.625-1 .094-.875.531-.812 1 .969.438h2l1.875.625h.906l-.906.187-2.782-.375h-2l-1.062-.062-1.813.344-.812 1 .906.25-.906.656 1 .781h5.75l1.906-.25-1 .438-2.875.187-1.812.281-3.844.157-.906.812-.72 1c4.302 1.218 6.197-.571 10.345-.906l-1.907.906-.968.188-1.813.906-5.656.062-.906.657-.625.875.187 1 1.781.437h.907l1 .375.968-.625.907-.187v1l1-.188.437.906 1 .344h.906l.094-.969 1.875-.375-.188.907.907.625 1-.282 1.875-.875.469-.906-.907-.719.906.188.875-.375.282-.906h1l1.875-.344-1.875 1.156-.375.906h1l-1 .438 1 .906 1.875-.187.906-.438 1 .188.906-.375-.093-.907.906.469.875-.187 1 .625h.906l.906-.344.875.093 1-.375.907-.53 1 .187-1 .875-1.813.718-.969.813-1.812-.156-3.688.25-2.781 1.25-.906.093-2.875.907-.188 1 1.875 1.062 1.907.719 2.875.281 2.78-.281 2.813-.625 3.844-1.344.906-.437.282-1 .906.093.969-.468h.906l1.094-.25.968.093 3.782-1.906.906.375-.906.344 1 .187 1 .438.968-.063 1-.812.719-.813.375.907.875.625 2 .093 1.781-.718h.907l1.906-.375.875-1-.094-.875 1-.907.281-.906.094-1 .875-.812-.156-.875.094-1-.72-.907-.906-.625-2.718-.625h-.875l-.906.532-.563 1 1 .812-.906.344-.156.906-.657-.906-.25-.906-.906-.344h-1l-.875.187-1 .875-.094-.968 1-.563-.281-.875-1-.187-.875.187h-1l-.094-.906.907-.625.25-.906-.813-.906-.969-.188.25-.437-.156-.907-.906-.812.906-.25-.188-.906Zm21.406 1.813-1.25.156-1.062.469.25.906.906.781v1h1.969l1 .188 1.813-.281.875-.344.187-.906-1.969-.532-.906-.812-.906-.469Zm9.438 3.281-.156.75.156.031Zm-4.281.125-5.688.906-.625.438v.906l2.688.375h2.094l1.875-.281.906-.281.812-.907-.375-.968-.719-.188Zm-67.688 1.875-.906.094-1.781 1.281-1 .094-.906.437-2.875 2.157-.625 1 2.968.625.906-.094 1-.438.875-.906.907-.625.375-.906 1.531-1.813Zm68.938.375-2.781.625-1 .281-1 .813 1.906-.094 2.781-.531 1-.281.969-.813Zm2.062.906-1.875.344-1 .281-1.875 1.532 1.969.093 1.781-.468.656-.875 1.313-.344v-.531l-.063-.032Zm-94.219.532v.28l1-.187Zm7.657 0-.094.906-.437 1 .906-.813.156-1-.531-.093Zm87.531.406-.25.031-.969.563.969.25.25.437v-1.281Zm-7.625.031 1 .375.906-.375Zm6.031 1.469-1.875.875.781.906 1 .094.907-.282.781.063v-1.469l-.688-.187h-.906Zm-8.469 2.687-.875.282-1 .625-.375.906-.812.969.906.625 1 .28 1 .094 2.25-.375.875-.718-.531-.875-.281-1-1.594-.813h-.563Zm-80.812 8.282-2.781.625-6.656.53-3.782.563-.906.344.906.469.469 1.781.813.906.437 1 .906.157.875.468-.625.907-.437.968-.719.907-.906.375-.906 1.78-.97.907v.906l.876.344-.25.906-.906.094h-1l.28 1-.187 1.781-.906.625h-.25l-1.344 2.813-1.531 1.875 2.875-.188 2.781 1.438 2.781.906 1.907 1.719.625.906.344.969.656.906.875.719.906.093 1-.187.906-.719 1.875-.625 1.906-1.625.875.469.907.094 1.906-.375 1.781-.72.563-.905.062-1.875-.156-1 .875-.813.469-1-.281-.875 1 .344h.718l1.875-.813 1.094-1.875.281-.906c1.951-.666 3.558-1.797 5.563-2.344l1.812-1 2.875-.968 1.781-.907 3.72-1.156 1.968-1.094-.531-.906-.906-.812-.907-.25-4.687-3.344c-2.809-2.029-5.582-2.411-8.906-1.25l-.188.969-.781.906-1-.094.531-.969-.625-.906-1 .094-.906.719-.625.906-.25-.094.344-1 .906-.719-2.625-.343-2.781-.907-.907-.468-.875-.72-1-.343-1.906-.094Zm76.094 7.062c-.477-.032-1.061.053-1.844.313-2.851.05-4.678-.563-6.031 2.343l1 .094 2.781 1.344.531 1 1.813 1.593.906.657.25.437 1 .281.188-1 .812-.906.969-.812.906-1.875.281-1-.093-.907c-1.608-.362-2.038-1.467-3.47-1.562Zm-11.844 1.313-.969.437.969.188.906-.188.094-.437h-1Zm-76.938 30.5v-.188l-.968-.344ZM310 308.455a.618.618 0 0 0 0 0Zm-70.969-159.72-.093.188.968-.187h-.875Zm-.375.47v.156h1Zm21.063 1.156.093.281.907.344.968-.188-1.968-.437Zm-3.5.531-.906.094.906.093v-.187Zm37.062 14.125.438.906.906.47.906.062.188-.875-.906-.563Zm-26.562.563-.875.343.875-.187Zm5.406 2.062-.906.906.906-.718Zm23.844.438-.25.906.531-.906Zm-25.813.718-.906.563.906-.375Zm-3.781 1.188-.906.812.906-.625Zm-11.438.187-.968.25h.875l.093-.25Zm-4.312.438.906.094.094-.094h-1Zm28.156 1.875.281.906.438-.906Zm-.437.656.437.875-.25-.875Zm1.437.625-.906.625.906.438.188-.875Zm1.531 2.25.094.625h.906l-1-.625Zm-56.656 1.125h.031c.073.01.133.038.188.063.029.014.067.013.094.03.03.022.063.037.093.063.111.093.218.212.407.344.015.01.015.021.03.031.083.056.166.1.282.156.156.075.354.152.594.22.133.036.304.06.469.093.137.028.243.07.406.094h.062c.33.044.712.07 1.157.093l-.063.032h.094l-3.688 1.687h-.031l-.969.188-.906.812-.969.625.875.625h.907l.968.375h.031l1 .25.876-.25.906.156 2.781-.093 1-.344.875-.531.375-.907 1.875-.812h.031l-.094.906-.687.969 1.75-.25h.031l-.812.906-.282.906-.906.532.719.875v.03l-.844-.155-.156-.032-.875.907-.094.875.813.093h.093l.813-.312-.813.5.438.219.406.218.063.031h-.907l-.562.438h-2.688l-.906-.906-3.687-.094-.344.906h-.031l-1.063.532v.28l.875.72h.031l.97.187h.03l.5.969.032.031-1.907-.094-1.437 1.25-1 .532-.906.718-1.875.563-.875.781h-.032l-.687.094h-.031l-.688-.875-.031-.031 1.875-.344.469-.906 1.875-1.188.906-.875.375-.906-.969-.813h-.031l-.906-.093-.906.28-.97.438-.905.657-.97.343-.374.907.094.875-.907 1-.906.28h-.906l-.969-.28-2.781-.344h-.031l-.625-.188-1.47-.437-.062-.031.907-.532h1l.875-.28.562-.97-.187-.906h.03l1.845-1 .906-.812-.344-.875-.906-.282-.875-.53 1.781-.376.969.188h.031l.875.437h1.906l.875-.531-.969-.813-1.874-1.062h-.032l-3.75-.094h-.906l-.531.906-.906.188-.032-.031-.875-.344-2.78.437-1-.53-1.782.187.125.75.031.125v.03h-.875l-.187.907-.032-.031-.875-.781v-.031l-.625-.875-.03-.032.187-.875h1l.906-.187.906.281.875-.906.281.062.625.188.907-.063 2.78-1h.907l.906-.625h1.875l.907-.187 1.78-.531h.032l.969-.47.906-.093 1.813-1.25 1 .094.968-.281.907-.438h.968c.556-.236.92-.38 1.25-.5.31-.113.578-.19.75-.219.076-.012.161-.033.22-.03Zm55.469.5-.156.875.437-.875Zm-12.5 30.406h2.531l1.688.438h.031l.375.062 2.312.375v.032l.063.187.219.688h-.031l-.875.28-1-.53-.875-.094h-.032l-.968-.375h-.032l-.156-.031-1.156-.125h-1.906l-.907.437-.906.094-1.812.625-.97.812-.405.875 1.75-1.437 1-.063.875-.28h.03l.907.093.969-.813h1.812l.875.344.031.031-1.906-.093-.875.343 1.875.094.844.437h.031l.031.032-.906.343h-1.906l-.781.438.78-.094-.093.031h.125l-.812.375.875-.312.906.094.906-.25v.187l-1.781.97h-.031l-.875.093-.313-.063-1.5-.281-1.875 1.438-.906.437.094.906h-.031l-2.688 2.157-.875.906-.906.531h-.031l-.97.438-1.25.187h-.03l-.094-.344h-.969l-1.625.907-.344.25-.187.437v.031l.094.25.28.719h-.03l-.907.812-.875.094-.906-.281-1.875.719h-.094l-.812-.063-2.688.625-1.906-.187-.719.093-1.78-.625-.032-.03-.969-.595-2.718-.28-.782-.47h-.03l-.782-.875-.031-.03-.688-.282.969.187.562.344.313.219h.031l.25.062.625.188 1-.344.906-.906.907.375h.905l.907.531.969-.719-.375-.906h.031l.875-.531.281-.906.875-.907h.031l.875-.093.75.219.282.062.875-.281.906-.813-.281-.343-.375-.532-.313-.218-.563-.313v-.031l-.218-.313-.344-.562-.969-.188.156-.906-.156-.906-.969.094-1.812-1.25h-.031l-.25-.907h.344l.906.813h.031l.281.062 1.594.282.875.812.75.219.25.062h.031l.875.625.906.094.875-.375.375.094.032.03.625.876.875.469.812.875.906.562.875.063.907-.25h.03l.25.093 2.688-.28.907-.438 1.812-1.438.875-.375 1.906-2.687.907-.563 1.875-.719.906-.156Zm-8.813 199.5-.28.907.093.906.906.437.438-1.25-.25-1h-.907Zm-12.78 4.157-.72 1.437.907-.562Zm11.343 1.843-6.656.032.281.625.063.906.906-.813.187 1-.093.907-.344-.907-.906-.187-.907-.719-1 .281-.968-.093-.907.437c3.198 1.31 1.227 2.491 4.219 3.063l.094.28 1 .438.719.907.906-.094.875.187.656-1.187c-.876 4.537 6.991 1.394 4.656 10.375l.906.625.625.906 3.782 2.5 1.812 1.719.906.437.875.907.625 1.812.47.813h.624l1.875-1.47.188-.874-.344-.906-.906-.47-.531-1.78-1.532-1-.906-.094-.438.375-.375-.094-.906-.719-.25-.906.063-1v-.875l-.719-1-.531-1.812-.906-.875-.625-1v-.907l-.532-1.78-.469-.907-.625-.906-.875-.625-.093.906-.188-1.813-.718-.375-.72-.875-.28-.906-1.875-1.531-.188-.906v-.032Zm-13.906 12.938a2.25 2.25 0 1 0-.001 4.499 2.25 2.25 0 0 0 0-4.5Zm16.687.969-.187.875-.438 1 .719.906-.344-.906Zm6.656.437-.093.375.906.531-.812-.906Zm-23.562.813h.875l-.875.343Zm49.781 26.875a5.777 5.777 0 0 0 0 0Zm.594.562a4.219 4.219 0 0 0 0 0Zm1.594.781c.367.113.705.213 1.094.344-.376-.127-.74-.236-1.094-.344Z"/><path fill="#8cce55" stroke="#0f380f" stroke-opacity=".145" stroke-linecap="round" stroke-linejoin="round" d="m285.904 422.336.32-.144-.095-.65.612-.444.407-.366.37.76.584.58.572-.496.458.809 1.175.586 1.049-.757.26.747c.645-.127 1.29-.598 1.935.035l.469.69 1.585-2.427c.376-.058.689-.433 1.171.04l1.442.672-1.477-6.71 3.01-5.304-5.41-3.275-.882-3.776.01-2.545c.072-.292.111-.575.156-.875.129-.859.188-1.762.188-2.656 0-1.207-.066-2.424 0-3.594H302l.282-.25v-4.406c0-.602-.008-1.212 0-1.813v-.406c.013-.735.053-1.486.093-2.219V370.205l.188-.438v-2.625h4.562v-4.031h2.438c-.05-.452-.061-.664-.094-1v-.094c-.12-1.246-.17-1.986-.094-2.531.035-.25.092-.48.157-.813.003-.014-.003-.048 0-.062.08-.417.199-.927.312-1.719v-.437l.438-.813v-1.281l-.813-1.156h-2.344v-2.25h3.438v-.813l-.094-1.531v-1l.438-.969-.094-1.812v-1.532l-.719-1v-.875l2.094-.093.625-1.282v-.437l.187-1.25-.093-.906-.375-1.25.187-.657-.281-.875v-.375l-2.622-.01v-4.656h.96v-1.08l.79-.108 1.966.01 1.343-1.812-.093-.156-.094-.375-.719-.094-.906-1.875.281-.188h1l.156-1 .47-.25.187-.906v-1.094l-.907-.968.625-1.282-.625-.906H313l-3.795-.01v-1.232l.651-.566.502-.336.86-.52.63-.087.706.243.61-.527.618-.465-.875-.968-.188-.47-1.25-.187v-.25l-.562-.718h1.28v-.72l-.374-1-1.625-.374-.125-.781c-.012-.038-.018-.061-.031-.094-.005-.014-.026-.019-.031-.031l-.438-.344h-.031c-.297 0-.721.136-1.25.187h-.688c-.03 0-.062.01-.093 0l-.063-.03-1.125-.438-1.063.468-1.094-.093-.875-.375-1.812-.063h-.719l-.906.625-.719-.906v-.188l-.906-.812h-.344c-.004-2.31.022-4.598-.093-6.906h-27.625v-22.498h1.45l.19-.69.297-.428.353-.28.353-.49.54-.026.261.65.337.536.434-.336.208-.458.23-.237-.096-.331-.327-.206-.339-.34-.212-.43-.29-.28-.36-.374-.456-.288-.213-.58-.382-.103-.413-.178-.27-.43-.319-.261-.477-.18-.5-.125v-42.294h36.876l.187-51.375h25.938l.968.157.907-.532.906.72.906-.25.875.155.094-.968-.438-.907h-.906l.625-.906-.906-.344-.969.625-.906.25.187-.968-.906-.47-.719-.905 1.157-1.875 1.093-3.407h-.906l-1 .438-.25.906h-1l.906-1.906-.906.719-1-.438-.875-.094-.375-.906-.906-.906-.969-.063-1.812-.375.187 1.25-1.812.47-.907-.626-.968.25.812.906.875.72-.875.093.344.906 1 .906h.906l1.875-.562.906.719.907-.094.718 1.812-.625.532-1.906.093-1.781-1.156-1.906-1.812-.907-.625-.437.906.906.719-.906.812-.906.531-2.875-.812-1.907-.188-.25.094-.906-.25h-.906l-.906.344-.97-.188-.905.657-.907-.094-1.875.531-1-.187-.906-.532-.469.157-.437.125-2.781-.657-.97-.718-.905-.344-.813-1-1.906.469-.875-.188-.906.25-.907-.156-1-.281-.187-1-.875-.532-1-.343-.906-.094-.907-.719v-.906l-.437-.906-.094-.907-.906-.812-1.875-.719-1.969.719-1.906.469-1.813.718-1.875.438-1.812.094-.875.28-1.531 1.876-.563.906c2.901-.237 1.988 1.251 4.688.531l-.344-.906.968-.344.906.188.907.437 1.781-.906.906.188.281-.907.907-.343 1.875-.907 1 .094.437.906-.906.719-.875.25-1 .094-.719.906-1 .625-.344.531-1.906-.156-.906.625-.875-.094-.906.532-.469-.907-.25.907.906.28-1 .813-.437.907 1.594 1.593.375 1.907.437.906 1 .437-.094.907.719.968-.906-.531-.344 1-1-.469.531-.968-.875.187-.093.875.187.906.438.907.718 1 .907.812-.907-.375-2.437-2.687-1.25-.375.281-.907-.906-.437-.906-.719.906.344h1.875l.281-.875-.625-.906-1.812-1.094-.625-.906-.907.906H275l-.344-.344.188-.906-.375-1-1.813-.156-.968.25-.375-.907-.907-.531-.25.281v-1l-1.906.282-2.781 1.437-2.688.25-1-.156-.437.625-.906-.469-.907-.062-1 .53-6.468-.187-.907-.281-.906.094-.875-.438-1-.281-1.875.094-1-.625-.906-.094 1.812-.906-.28-.969 1-.188.874-.28-.344-.438 1.813-.188.875.281 1-.093.375-.906-.375-.907-1-.906-2.688-1.969-2.875-1-1.812-.437-.969.281-.906-.094.719.907-1.907.062-.875-.156-.906-.469-1 .375-1.812-.625-1.875-.281-2.782-1.156-.906-.72-5.656-.905c-4.353-1.02-2.479-3.198-9.563-3.875l-.968.187-.907-.187-1.906.187-.875-.281-.469.906-.187.906-.969.875-.469.907-.875.28h-2.968l-.907-.187.438-1 1.437-1.78h-1.875l.25-1.907-.093-1.156-1.875.187-1.625.531-.094.532 1-.532h1.719l-1.282.532-.53 1-.907.437h.906l.906.375-.906-.281-.906.469-.969.718.969.875-.969.282.875.625-.969.53-1.812-.53-1.781-1.063-1.907-1.719-.531-.906-.188-.906-1.718-2.688-.875-.812-.656-.438-2.157-1.375h0l-.906.813.188.906.906-.094-.094.907 1.813.437-2.813.469-.875.437c.138.411.197.714.188.938v.031a.617.617 0 0 1-.125.344c-.035.049-.078.084-.125.125a1.54 1.54 0 0 1-.344.25c-.416.218-1.012.443-1.656 1.094a5.59 5.59 0 0 0-.344.375c-.109.133-.204.275-.313.437l-1.062-.25v-.906l.719-.906-.907.718-1.875.188-3.343 1.156-1.532 1.813-.625 1-.906.812-.187-.906.28-.906-.53 1 .25-1-.625-.907.187 1-.625-1 .438 1-.813.907-.187-.907-.625.907.093-.907-1.781.188v.969l-.906.656-1.813.625-1.875 1.062.188.907.969.187.906.438-.906.187-1.875-.094-1 .532 1 .562-1.813-.719-.094-.906.907-.531.625-.906 1 .25.093-.875.906-1 .875.437.813-.906 1-.781.438-.907.906-.28 1.906-.095.875-.343.906.156 1-.625.906-.25.875-.813 3.875-1.625.375-.906-.625-.906-1.812 1.094h-.906l-.906-.375h-.97l-.905.28-.907.813-.187.438-.719.906-.344-.906-1.906.812-.875.625-.906.375-.906.188-.907-.281.906-.282-1 .188.094.906-1.875-.187-1.094 1.906-1.968.156-.907.656-.906.344-.969.188-.812.906-.906.344-.532 1 1.032 1.375.75 1.03v.032l-.25.063-1-.532-.719-.968-.906-.563-.907.375-.906-.375-.875.625.438 1 .906.531h-.375l-.156-.156-1.907-.656-.906-.625-1.344-.344-1.25-.094v9.813l.907.437.531 1.907-.188 1.25-.28 1.25.187.468 5.593-.093 4.938.093.094.875.187.282v.906l.625 1 .188 1.25-.72 1 .97.062.28 1-.718.907h.188l.968.812 1.813-.531.719.156 2.687.281-.969.532 1.532 1.812v.719l-.563.906-.875.625-1.187 1.25h.906l.906.813-.562.906v.281l-.438.875 1.813.625.968.656.375.438.907.281-.375.875.906.469.906-.625.906.156.875.656.375.97v.562l1.782 1.53 1.28.782-.187.906h.907l.625.563.718.875-.375.906-.343.281v.813l.718.875 1 .187-.468 1.282.28.968 1.063 1.344 1 .563-.28 1.78.28.282 1.813 1.156 1.062-.437 1 .812.72.907.905.53.188.532 1.781 1.438.531.093 1.282.188.718 1 .157.875-.25.906.093.469.625.875.188.906.812.188.97-.438.905.25.907-.625.53.438.907-.438 1.781.531 1.375-.437h.875l.907-.719 1 .813-.438.968.719.907 1.062.718.094.907 1.094 1.812-.188.25.907.281h17.718v17.72l-1.25.374-4.968-.094h-1.344l-3.406.438-1.094.625-.281.469.468 6.375v.187l.188 1.625-.375 1.875.187.469.094.094 2.063.093 1.625 2.407 1.156 1.437 1.437 1.281.625.344 3.438 2 .906.969.531 2.344.906.625-.562.718.656.907 1.156.53 2.25 1.438.907-.25.625.813.437 1.062v.188l-.437.531-1.094-.094-.969.188c.865 1.923 2.004 3.272 3.25 4.375.312.275.616.53.938.781.006.01.025 0 .03 0 .316.245.618.488.938.719.662.479 1.32.921 1.97 1.406.32.24.626.493.937.75.938.776 1.82 1.653 2.562 2.781.246.373.474.755.688 1.188.066.134.093.297.156.437.545 1.222.992 2.679 1.219 4.5l1.687 2.25.656 1.157-.187 1.093v.157l-.469 1.375v5.375l.375 1 1.344 1.625.187.906-.375.156.907.719 1 .469.53.718.907 1 .344.25v.282l.906.906.906.437h.188l.812.094-.468 1.875-.157 1.375.25.875.094.188-.531.906-.188 1-.437.344-.375.53-1.344-.624-.906-.344-1.438 1.063-1-.344h-.875l-1.375.25-.343-.875.093-.656-.093-.875-.72-.907-.624-.187-.906.906.906.438.625.906-.469.625-.531.906-.188 1-.625.813-.093.25-.157.906-.812.906-.375.813-.25.968v.375h-.656l-1.157-.718h-1.25l-.906.437-.719 1.188v5.75l.094 2.53.344.97h5.125v2.812h13.781v31.406l-.437.875-.907-.437-1-.188-.906.469v.344l.469 2.062v1l.25.469-.156 1.781v.094l.25.906.375.344v.094l.093.093.438.907 1.094 1.156-.813.906-.906.907v.343l.094.907-.281.625-.188.562-.625.875.188 1-.094.188.906.437.188.625-.375.813h-.344l-.469.093v.094l-.437 1-.094.094h-.375l-.094.093-.156.344-.187.438-.094.28.281.47v.062l.156 1.375 2.97 1.688.905.375.907-.625 1 .437.25.906.812.344.906.094.907.469.093.437-.187 1.906 1.531 2.688.094 1 .812 1.531.25.313.469.562.094.906.875.47.093.718.563.969.875.625.375.906 1.812 1.625.532.906.906.813.969.53.093-.624h.188l-.094.094 1.438.53-.532.907.344 1.063.813 1 .906.53 1.094.188.718 1.813.625.25h.907l.875.719.187 1 .531-.094-.437.469-.344.062-.562 1v.906l.187.532.906.812.625-.094.907.188.968 1.094.657.343.875.282 1.281.906.156.344-.25.906.531 1 1.094.438.438.53 2.156 1.626 2.969 3.344.469.875 1.968 1.718 1.156 1.625.375.907.094 1.78 1.25 1.907.625.25v1.813l-.719.906-.437.906.969.344v-.094l.093-.094.188-.25.906-.625.906-.468.875.468h.375l.094.063.188.281.875.625v-.344l.375-.906v-.375l-.094-.625.719-.094.625-.875-1.063-.562.156-.969.188-.375-.906-1.062-.531-.375.375-1 .093-.25-.094-.563-.625.094h-.093l-.813-.969-1.093.063-.532.28.438-1.062-.438-.906-.906-.375h-.906v-.625l-.969-.281-.094-.156-.375-.563-.25-.875-.28-.094-.376-1.187-.25-1.438-.187-.53-.907-.907-.968.469-.907-.47-.53-1.155-.188-.47-.907-.812-.53-.53-.282-1 .094-.626.28-.969.532-.656.61-.366-.176-1.267 1.163-.651Z"/></svg>