<svg width="1671.094" height="856.393" xmlns="http://www.w3.org/2000/svg" xmlns:usvg="https://github.com/RazrFalcon/usvg" usvg:version="0.8.0"><path fill="#3e73c5" fill-opacity=".427" stroke="#000" stroke-opacity=".247" stroke-linecap="round" stroke-linejoin="round" d="M1670.594 855.86H1649V617.018l5.991-2.327 1.116-2.679-1.563-13.618 1.786-7.814 2.903-5.804 4.241-10.716h7.12ZM1670.549 558.655h-20.693v-81.932h20.738ZM1669.725 403.944h-39.738v12.055h-10.269v-12.055h-5.53v-25.45h34.775v-73.226h21.631ZM1670.594 166.16l-5.346 2.857-16.53-20.221.474-148.28h21.402Z"/><path fill="#3e73c5" fill-opacity=".429" stroke="#000" stroke-opacity=".247" stroke-linecap="round" stroke-linejoin="round" d="M49.969 855.892H.5V607.696h5.469v42.944h18.513v15.23h25.487ZM.5 558.335h43.604l.237-10.14-9.883-8.455v-16.191h15.511v-47.032H.5ZM.5 403.236l49.469.28V305.24H.5Z"/><path fill="#3e73c5" fill-opacity=".427" stroke="#000" stroke-opacity=".247" stroke-linecap="round" stroke-linejoin="round" d="M49.969.517v144.719l-1.375.812-.875.344-4.688.563-.906.062-.906-.156.906-.813-1.875.532-1.813 1.25v.28l.72.72 1.906.437-1.813.188-.188 1 .094.906-.718-.906-.626.28.626-.905v-.375h-1l1-.344v-.625l-.813-.094-3.688 2.594-1.343.187-1.438.188-1 .437h-.906l.906-.28.188-.438-1-.188-.907.906-.875.625-.718 1.188-1.907 1.437-.187.907-.531.437-.344.344.156.906-.531.906-1.625 1.907-1.781 1.156-.907.375-1.28.25-5.657.531-1.813-.156-.874.156.156.906-1.135-1.638L.5 167.267V.517Z"/><path fill="#8cce55" stroke="#0f380f" stroke-opacity=".145" stroke-linecap="round" stroke-linejoin="round" d="M1663.615 611.178a2.254 2.254 0 0 0-2.25 2.25 2.253 2.253 0 0 0 2.25 2.25 2.253 2.253 0 0 0 2.25-2.25 2.254 2.254 0 0 0-2.25-2.25ZM1657.958 611.885a2.254 2.254 0 0 0-2.25 2.25 2.253 2.253 0 0 0 2.25 2.25 2.253 2.253 0 0 0 2.25-2.25 2.254 2.254 0 0 0-2.25-2.25ZM1661.494 634.866a2.254 2.254 0 0 0-2.25 2.25 2.253 2.253 0 0 0 2.25 2.25 2.253 2.253 0 0 0 2.25-2.25 2.254 2.254 0 0 0-2.25-2.25Z"/></svg>