<svg width="1671.094" height="856.393" xmlns="http://www.w3.org/2000/svg" xmlns:usvg="https://github.com/RazrFalcon/usvg" usvg:version="0.8.0"><path fill="#3e73c5" fill-opacity=".429" stroke="#000" stroke-opacity=".247" stroke-linecap="round" stroke-linejoin="round" d="m536.594 704.893-.532 1.156-.718.906-2.782 2.344-.468.625-.25.906-.813.906-.281.97-.906.468-.813.875-3.062 1.375-.875.062a9.744 9.744 0 0 1-.844-.218c-.585-.193-.975-.386-1.344-.5a2.186 2.186 0 0 0-.5-.094c-.081-.01-.16 0-.25 0-.178.01-.364.035-.593.094-.142.036-.331.098-.5.156-.136.047-.25.094-.407.156-.279.111-.608.24-.968.406l-1-.718-1.875-.438-1.813-1.344h-2.156l-.907.25-.343-.625-1.719-1.687-.625-.906-.094-.532.188-1.812.531-1.625-.625.094-.094.906-.437.906-.094.875.438 1.281v.625l.28 1-.093.157-.719.28c1.767 4.11 3.822 1.46 6.657 5.845l-1.094 1.812-.094.719.282.906.718.969.907.531 1-.156.062.093.375 1.344-.094 1.781-.718.907-1.063 1.812-1.625 1.875-.562.906-.063.907-.906.718c-4.351 2.538-10.754 3.526-15.75 4.032l-.906-.063-.907.156-.906-.25h-.969l-.906-.718-.906.531-.094.906.469.969.875.719-.875-.344.875.906-.438 1.781h-.625l-.625 2.157-.093.906.906.906v.906l-.563.907-2.78 1.25-1.876.281h-1.812l-.907-.656-2.687-.969-.906-.531H479l-.906.437-.156.906.094.907.718 1.781-.375 2.781 1 1 1.782.438-.157.906h1.875l.094-.969-1-.187 1-.188.906-.437.907.343.437.907c.014 2.134.008 3.324-2.625 2.875l-.25-.907-.719-.906-.906-.062-1.875.875.719.906 1.781 1.281-1.875.625-.906.719-.375.812-.813.875-.156.907.438 1.812-.188 1-.25.875-.625.906-.906.625-.188.907.438.906-.156.187-1.907-.28-.906.093-1.062.812-.907.344-.906.094-.906.906-1.344 1.813c-.148.186-.287.36-.406.53-.025.037-.039.09-.063.126l-.062.094c-.02.022-.048.037-.063.062-.044.07-.085.149-.125.219v3.406c.194.275.428.523.688.781.26.258.55.526.844.782.585.51 1.198 1.032 1.718 1.625l2.688.562.906-.187 1 .625.344.906-.344 1.781-.906.719-.906.469-.907.187.188.156 1.812-.625.813.907-.813 1-1 .53-.718.907-.907.344-2.781 1.625-.531.906-.906.625-.291.268-.532.625-.281 1 .094.875-.532 2.718-.718.875-.719.563-1 .25-.906-.813-.719-1.343-.438-.25.344.25.188.468-.25.72-.907.093 1.532.062.25 1.375-1.782.72-.718.905-.375.875-.438 1.907-.531.53.625-.343.812 2.688v.906l-.906.187-1-.093-.906.343 1.094-.25.906.625.969-.375 1 1.907 1.343 1.78.282.907-1 1.723 1.281 1.435.437.97-.906.28-.437.907.906.53h.875l.812 1.813 2.157 2.157.103.105.813.625 1.906 1.094.875.344.906 1 2.719 1.25.875.28h1l.906-.187.906.094-1 1.781-2.78-.156-.907.531h-.906l-.906.344-.907-.531-.01-.012v.969l.313 1.25.312 1.345.094 2.75-1.969 2.188-2.24.75v15.697h69.469v-151Zm-77.916 101.392-.282.188-.093.187.375-.375Zm2.062-6.375-.625.156h.344l.281-.156Zm33.674 5.498h18.738v10.96l-18.738.177v-11.137ZM467.125.517v27l1.094.188 1.156-.188 1.906.188.969.28-.719.626-1.969.719-2.437.53v1h.531l.906-.374 2-.156.875-.563 2-.625 1.875-.344 1 .625.907-.187.812-1 .969-.156 1 .343-1 .094 1.813 1 1-.094 1.062-.468.906-.094h1.063l1 .187-.094.907-.969.28.969.532.906.813 1.094.625-.469 1-1.062.25 1.062-.094 1.907-.781 1.062-.094 1 .437h3.156l1.344.532.906.625.157 1-.782 1-.906.343-1 .188-1.969 1.25-4.875 1.719-1.875.375-1 .53-2.781 1-3.969-.28-1.781.437-2 .281 2.969.094-2.063.531-.906-.25-.906.344-.969-.094-4.781.282h-.094v.53l2.063-.093 2 .531-4.063 1v.813c4.598-.581 9.11-2.201 13.781-2.063l.188.907c-2.059 2.04-5.086 2.087-7.656 2.875l-1 .53-.907.813-.968.532-1.907.718-.906.188-.625.375v18.562l-1.937.907.5.125.906-.532.531-.093 1.281-.25.97.25h1l.905-.344h.875l1.094.344 1.094-.188.969-.719.906-.968 1.875-1 1.469-1.813-.813-.875.094-1-.188-1.812-.281-.875.906-.375 2.157-.344.906-.656 1.969-.157-.97-.093-.905-.375-.907.625-1.093.375-1.782.28-1-.187-2.968.813-1-.094-.97-.719-.905-.093-1.97.343-1.905-1.062-.72-.906v-.907l2.876-1.343.375-1 2.969-.72.968-.624 1.907.094-.907-.344.906-.469 1.97-.531.28-.906 1-.344.25-.906 1-.094 2.97-.813 1-.812.874.281.906 1.781.907.813.719.906.906.375-1.813-1.812-.531-1-.375-.907.469-.875.969-.375.906-.093 1.094.28 1.875.095 2.968 1.343 1-.437.906-.094.907-.469-.813-.875-.469-.906.72-1 1-.437-.282-.907-1.875-1.53-.531-.907.875-.625 2.812-1 2.688-.438 1.812.438 3.125.281 1 .438.188 1 .719.906.906.344 1.875.468 1 .094 1.968.875.813.906 2.969.625-.907-.437-.968-.188L515 44.08l-.906-.813-1.969-.969-1-.093-1.063-.657-1.53-1.875-2.782-.812-1-.625 2.875-.719.906-.375 2.875-.437 2.969-.282 2.969-.53h1l.968.53.563-.875.969-.187 1.906.344.906.562.969.156-.531-.875-.907-.375h-.906c5.384-.91 5.927-1.87 9.469 1.97l-.281.905.531 1-.156.907-1.375 1.875.187.906.469 1 .875.062-.094-1.78 1-.813.907-.438.812-.906-.094-.906.282-1 1.78.468v-.468l-2.78-.72-.907-.812-.093-.875 1-.812h1l.875.25.718.906.188.094V.517h-69.469ZM456.25 629.642l1.25-.625.375-.281v-.532l-.719-.53 1.25-1.345.813-.906.906-.719.063-.093-.157-.281v-.094l.813.094-.375-.625.094-.094.718-.094.531-.969-.968.094-.094-.375.25-1-.875-.344-.719-.906-.906-.719.094-.187.625-.875-.094-.75-.625-.719v-.875l.625-1.094.906-.718.094-.813.531-.906-.468-.813-.344-.875.531-.906v-2.25l.094-.906.906-.813.281-.812-1.468-2.875-1.97-3.157-.718-1.25.906-.093 1 .187.782.188 1-.094.187.094.719.437.906-.437.906-.813.97-.812.905.093.375.094.157-.375.812-.656v-8.219c-2.111-3.294-4.155-6.639-6.187-10l-.094-.156c-1.02-1.687-2.04-3.378-3.063-5.063-.012-.019-.019-.042-.03-.062a533.42 533.42 0 0 0-3.126-5.094l.719-.094h.187l.157-.093v-.344l.093-.094v-.093l.657-3.063.53-3.062v-.188l.532-3.031.531-2.969.094-.562.281-.532-.28-1v-.25l-.345-.468-.375-1.063-.093-.906-1.782-1.25-.28-1.094v-.094l.28-2.593 1.97-.47.812-.093.906.375.187-.531-.093-.719-.907-.719-2.156-.093v-2.969l1.25-.281.906.187h4.407l.906-.281-.188-.25.907-.094.906.532.875-.72.812-.905h.094v-1.594l.594.469v.468c-.002.151.03.3.094.438l.312.656c-.002.151.03.3.094.438l.312.593v.031l.25.782.031.093v.032l.188.843v.032l.219.812a1 1 0 0 0 .375.563c.752.562 1.282 1.02 1.656 1.375.416.395.653.679 1.156.906.195.088.518.16.813.125.294-.035.524-.111.75-.219.362-.172.87-.52 1.406-.875l.344.218c.146.336.479.561.844.594a.972.972 0 0 0 .906-.438l.031-.03.719-.438a1 1 0 0 0 .219-.157l.062-.062c.011-.02.021-.041.031-.063l.625-.718.063-.031.125-.032.062-.03.063-.032.625-.188.093-.03a1 1 0 0 0 .5-.22l.563-.53.437.062a1 1 0 0 0 .75-.219l.75-.594a1 1 0 0 0 .344-.531l.156-.656.032-.031.25-.532.375-.03a1 1 0 0 0 .5-.188l.843-.594h.032a.986.986 0 0 0 .156-.094v-.031l.531-.313a1 1 0 0 0 .438-1.125l-.157-.562a1 1 0 0 0-.875-.719l-.687-.062a1.464 1.464 0 0 0-.094 0H485a1.464 1.464 0 0 0-.094 0l-.719.062-.156-.062.063-.188a1 1 0 0 0-.063-.687l-.375-.875a1.002 1.002 0 0 0-.125-.188l-.031-.062a1.254 1.254 0 0 0-.031-.063l-.031-.031-.375-.531v-.656l.093-.72a1 1 0 0 0-.125-.593l-.406-.781a1 1 0 0 0-.344-.375l-.718-.438-.125-.156.375-.031.53.156.72.656a1 1 0 0 0 .812.25l.656-.093.563.25a1 1 0 0 0 .781 0l.438-.22.468.438.094.094.594.719a1 1 0 0 0 1.062.344l.563-.157a1 1 0 0 0 .719-.968v-.875h.093a1 1 0 0 0 .625-.22l.5-.405.531.187c.19.07.398.081.594.031l.813-.25a.99.99 0 0 0 .187-.093l.563-.313H494.437a1 1 0 0 0 .625-.219l.844-.718.75-.282h.031l.532-.062a1 1 0 0 0 .718-.469l.375-.594.625-.312a1 1 0 0 0 .47-.469l.343-.687a1 1 0 0 0-.063-1l-.5-.75a1 1 0 0 0-.125-.157l-.03-.03-.876-.876a.972.972 0 0 0-.094-.062 1.023 1.023 0 0 0-.062-.063l-.594-.782a1.023 1.023 0 0 0-.062-.062l-.75-.813-.063-.062a1.254 1.254 0 0 0-.03-.063c-.006-.005-.026.005-.032 0v-.031l-.062-.094.03-.03.032-.032a1 1 0 0 0 .125-.156l.656-.625a1 1 0 0 0 .25-.938l-.156-.75-.063-.312.188-.032h.094a.97.97 0 0 0 .156-.03l.875-.188a.97.97 0 0 0 .156-.031l.844-.344.75-.313a1 1 0 0 0 .531-.5l.313-.625a1.002 1.002 0 0 0-.063-1 1.01 1.01 0 0 0-.906-.437l-.25.031-.063-.25a.995.995 0 0 0-.062-.156l-.031-.063a1 1 0 0 0-.094-.156l-.281-.375.281-.313.656-.406.094-.031.031-.031.063-.031h.03l.032-.032.063-.03a.997.997 0 0 0 .218-.157l.282-.281.03-.031c.022-.02.043-.041.063-.063l.688-.406c.067-.035.13-.077.187-.125l.188-.188.031-.03c.049-.059.09-.121.125-.188l.156-.282.344-.25a1 1 0 0 0 .156-1.406l-.437-.531-.032-.032v-.03a1 1 0 0 0-.718-.907l-.907-.25a1.002 1.002 0 0 0-.437-.031l-.906.156c-.122.02-.238.063-.344.125l-.438-.156a.997.997 0 0 0-.375-.031l-.906.062h-.062l.312-1.062.938-1.032c.183-.2.267-.479.25-.75a.966.966 0 0 0-.344-.687l-.906-.813a.999.999 0 0 0-.657-.25h-.625l-1.468-.906a1 1 0 0 0-.532-.156h-.843l-.094-.094a1 1 0 0 0-.219-.187l-.906-.563a1 1 0 0 0-.531-.156h-.375a.998.998 0 0 0-.5.125l-.532-.563h.282c.185.008.369-.035.531-.125l.906-.53.594-.22h.062l.157-.062c.494-.164.778-.682.656-1.188a.997.997 0 0 0-1.125-.75l-.813.157-2.625-.25a.98.98 0 0 0-.28.03l-.72.157-.812-.094a.99.99 0 0 0-.344.032l-1.594.406-.468-.094c.064-.137.095-.286.093-.437v-.907c0-.384-.216-.74-.562-.906a1.008 1.008 0 0 0-1.063.125l-.718.594-.75.125a.995.995 0 0 0-.782.812c-.062.409.142.826.5 1.032l.344.187a1 1 0 0 0-.312.531l-.313.125c-.032.01-.063.02-.094.032l-1.812 1.062a1 1 0 0 0-.281.25h-1.125l-1.875-.531a.992.992 0 0 0-.219-.031l-.531-.032-.907-.78-.062-.25a1 1 0 0 0-.781-.688l-.907-.188a.969.969 0 0 0-.187-.031h-2.25a1.019 1.019 0 0 0-.156 0l-4.063.625h-1.344l-.25-.156.094-.313a1 1 0 0 0-.094-.844l-1-1.53a1.001 1.001 0 0 0-.28-.313l-1.782-1.188a1.003 1.003 0 0 0-.5-.156l-3-.219-.406-.25-.188-.469-.062-.75a1 1 0 0 0-.25-.562l-.813-.906a1 1 0 0 0-.906-.344.998.998 0 0 0-.25.094l-1 .437a1 1 0 0 0-.563.625l-.187.656a.997.997 0 0 0-.031.375l.093.875a1 1 0 0 0 .125.407l-.03.187c-.018.16.004.32.062.469l-.656.25-1.657.344a.998.998 0 0 0-.281.093l-2.281 1.219a1 1 0 0 0-.281-.375l-.72-.625-.156-.438.125-.625a1.03 1.03 0 0 0-.125-.718l.407-.157 1.344-.406.25-.062 2.562-.125-1-2-3.688-26.844v-.313l-.03-.718v-.313l-.813-1.125.625-1.031.25-.688v-.03l.031-.095-.031-.03-.281-.22-.22-.218-.03-.031.03-.032.47-.343.218-.157-.187-.968.031-.313.094-.907v-.124l-.063-.125-1.031-2.344-2.79-11.313h23.571l-.156-116.25.906-.375.906-.093.438-.907-.438-1.156-.468-.531-.25-.094-.47.25-.343-.531.188-1.781-.094-.188-.375-.062-.531-.125-.907-.813.282-.437-.094-1.813-.094-1.344v-3.968l-.719-.532v-.093l-1.437-1.063-2.969.969-.719-.625c.495-.134.904-.257 1.25-.375a5.642 5.642 0 0 0 1-.438c.022-.012.042-.018.063-.03.117-.071.23-.147.313-.22.656-.574.346-1.248.78-2.624l.907-.282.438-.156h1.812l.625.438.281.187 1.531-.187.907-.344h.062l.281-.094 1.657-.437 1.906.187 3.125.844 2.594-.875 2.5-.813 3.219-1.062 1.156-.719.719-.281 4.275 9.734 3.893-.248 2.224-6.014-3.767-12.94-.313-.782-.094-.656-.25-.563.22-1.906.274-.461-.386-.488.355-.537.473-.508-.746-.547-.188-.41-.172-.512-.218-.498-.285-1.037-.153-.674-.5-.527-.162-.592-.004-.373-.394-.381-6.645-.143.438-.28-.532-1.782-1-.188-.25-.906.906-.719 1.782-.187-.625-.813.281-.875-.469-.906-.906-.281-.438.812-.906.625-.25 1.72.25 1.812v.875l-.187.187-.625 1-.25.906.344.625-1.438 1.063-.531-.875.187-.906-.812-.47-.625-.874-.906-.719-1-.187-.813.968-.625-.25-1 .25-.719-.875-.719-.375-.53.72-.626-.907.344-.875-.156-.719.156-1.812.469-.375-.906-.875-.813.968v.47l-.906.436-.907.282-.156-.094.094-1.25.437-.906-.093-1 .375-.907-.188-.156-.812-.906-.907-.281-.812-.438.281-.906-.281-.219-.438-.312-.625-.907.25-.906.813-.469.094-.062-.094-.156-.438-.75-.093-.907.531-.156 1.281-.375.875-.187-.875-.719-.656-.906-.344-.813h.813l1.156.813 1 .718.906-.156-.562-.906.281-.281v-.188l-.375-.344.281-.906-.531-.906.812.469 1.688 1.687 1.281.469.625.344.625.906h1.813l.437.187h.906l1-.28c.427.092.725.12.97.155l.812-.156c.049-.007.162.016.406.094l1.656.625.813.281 1-.812.625-1.813-.344-.875 1.687-1 .282-.094-.282-1-.875-.625-.562-.718-.906-.907v-.875l1.093-.562h-1l-.875-.25-.812-.563-.719-1.78h.438l.906-.094-1.094-1.813.188-.344.906-.718v-.907l.437-.625.375-2-.187-.875.094-.468-.813-.907v-.25l-.906-.281-.438-.906-.718-.719-.375-.25.906-.812.625-.907 1.25-.625-.969-.468-.094-.875 1.063-.375h.906l.188-1-.907-.157-.718.344-.907.531-.718-.875-.875-.093-.75-.282-.969.094.344-.906.906.187.531.282-.25-2.532.813-.906-.907-.094-1 .188-.187-1 .094-1.781.562-.188-.906-.437v-.282h-1.188l.323-1.836 3.523-2.244-1.92-1.644.211-2.198 1.791-3.289-2.101-3.156 2.714-3.05-.337-3.628 1.835-3.226-2.394-5.055-1.629-.797.986-4.2 4.168.41 1.532-.618 1.043-1.557.806-2.232 2.969-1.816 1.225-1.881 1.253-.887.077-1.795 1.974-1.031.961-2.613-5.353-5.438-4.893-1.44-1.658-2.09-2.707-1.097-.281-1.152-2.618-1.229-2.57.106-5.613-3.367-2.236-.375-.598-1.957 1.312-.936 2.352-.373-.236-1.639-.78-1.185-1.222-.797.52-1.758-.653-2.162-.985-1.666-1.896-1.397.043-1.923v-48.563l-3.219-.625h-.812l-.375-.719-1-.093-1.875-1.063-1.969-.656.156-.969 2-.469.969-.718.906-.25.906.156h1l1.063-.25-.719-1-1.781.437h-1.094l-1.969-.156-3.78-.812v-.907l.968-.906.906-.344h-.906l-2.594 1.782h-1l-.969-.25-.906-.72.906-.28-.906-.282h-1l-.906-.625.813-1 1-.25.906-.468 2.781-.438 2.344.094 5.75.625h1l1.875-.344 1.531.25v-.187l-1.531-.25h-.969l-.906.187-2.875-.281-1-.438 2.875-.906 3.968-.187.438.03v-1.5l-.094.032-3.937.344-.375-.875h-1l-.531.875-1.875.469-2.875-.813-.907-.094-1-.437 1.969-.563 1-.875-1 .344-1.875.281h-1l-.969-.468 1.969-1.063h.906v-.187l-1.812-.188-1.781.813-2.188.187-.875-.437.969-.75-.875.093-1-.53-.906.28-.907-.187-.969-.531-.812-.907-1-.187-1.875-1 .969-.438 1-.906-1-.344.625-1 .906-.906 2.875-.344 1-.562.906-.156 2.969.156.906-.875 2.875-.469v-.344l.344-.093 2.969-.282.906-.437 1-.188-.906-.906 2.875-.812 1.531-.25.281.437 7.563 12.063 9.25 14.125.469.812.156-.375.719 1.906h1l.906-.53.906-.907.969-.625 2 .531.968.531h.907l1-.25.906.532 1.875.437 1 .188.906-.188 1.875.563.188.875h2.875l.906.562v.344l.969-.25.906.437-.906.72.906.187 1-.47h.906l-.375.907 1 .188.969.437.906-.25 1 .094 1.063 1.781-.157.906-2 .625 1.907-.281-.813.906.906.813.907.187-.282.907 3.407 1.53 1 .157 1 .656-.907.438.532 1 .906.093 1 .344.969.906.906-.093-.906.812-1.875.188 1 .344h1.875l-.907.468-.968.063.875.375-1.875 1-1.813.437 1 .188 1-.094.875-.281 1.906-.969-.625 1.781.97.375.655.907.875.437-.625.906 1 .625-.906-.187-1 .719 2 .718.531.907 1.875.812.188.344-.969-.156-.719.875.97.28-1.876 1 1.781.813 1-.187.907.344.625.906.187.906-.906.188 1 .25-.563.906-.968.719.968.562.907.25.906-.187-.906.28-3.688-.28-.906.28 1.812.907.907-.469.968.563-.53.906-.907.531-1.688 1.97.97.374 2-.281.874-.625.625-.906-.344 1-.906.625-.906.437h-.969l-.906.188.437.906-.968-.281-1.907 1.093 1 .438.438 1 .906.906.906-.562 1 .28.875.626h1l.907-.094 1.78-.531.657-.906-.469-.97.907.063-.188-.875.906-.093.907-.72-1-1.905-.907-.72-.093-1.312.375.782.718.906.907.719.093.906.875.812.907-.187-.25.437-.907.72.97.187h1.812l.625.312v.844c-.02 0-.043-.01-.063 0-.149.034-.285.103-.437.156a3.82 3.82 0 0 0-.438.188c-.072.035-.145.084-.219.125-.029.015-.065.014-.093.03-.071.045-.147.076-.22.126l-.093.062c-.012.008-.019.022-.031.032-.185.134-.36.278-.563.468l2.157.188v.406l-.188-.062-1.875-.344-.906.344v.812l.906.906.907-.187 1.156-.719v4.625l-.813-.312-1.875-.25-1.906.062-.875-.25-1.906-.281-1 .281-.875.438.062 1 2.907 2.062 2.78.282.907.25 1.969.718.625.625v2.188l-.719-.188-.906-.718-.813-1-1.78-.907-3.782-.718h-1l-.906.375-.875.812.093.906.782.532 1.812.718-1.875-.437-.906.156-.375.906 1 .469.906.625-.906-.375-.907.719.907.625.906.187 1.875.094 1.906.719.969-.719.563.906h-1l-.907.188-1-.188-.875.719.875.25 1 .562 1.25.094 4.688-1.375v5.688h-.25l-1.813.53.907.188 1.156-.125v.97l-.344.155.344-.03v.25l-1.344.75-1.875.562.969.062.906-.25h.906l-.906.438 1-.094.344.313v.593l-.344-.187-.906.281 1.25.5v.063l-3.219-.844-.906.187.906.188 1.875 1.25 1.344.187v.25l-.344.031-1-.375-.906-.53-.907.093.907.344-.907.187-.437.906-.906-.187.906.437-.906.188-.907-.094.563.906-.906.72.906.624.969-.437 1.812-1.438 1.813-.281.25-.125v.469l-1.344.125h.906l-1.812.343-1.875 1.438-.907.281-1 .531-.156.907.875.531 1.813-.719 1 .281 2.5-.656v.469l-.969.094-.906.25-2.719.187-1.781.719.906.469H532l-.875.156.875.469.906.093-1.781.094.875.625 1.906-.184 1.875.187.812-.5v.938l-.812-.094-.907.282h.907l-.907.625H534l.875.187.907-.094-.907.438-1.875-.094-.906.656.906.344.907.094.906-.188 1.781.188v.031l-.812.156-.907-.187-1.875.375-.906-.094-.906.875.093.906.907.188.906-.188-.906.282-.907.812 1.094.25 1.781-.625 1.907-1.437.531-.282v.188l-.531.375-.907.906-2.78 1.25.905.281-.906.25.906.375.875-.468-.875.562.875.344 1.813-.719.625.344v.344l-.813-.407-1.875.97h.907l-.907.562.907.437.875-.906-.25 1.812.906-.187-.188.906.438.094v90.219h-11.438l-3.195 2.11.893-7.568-2.442-3.144-2.918-1.73-2.154.484-.484 1.424-1.532 1.468v1.774l1.532 1.629v10.275l-10.7 7.153v20.687h12.813v.125h3.437v-.125h16.188v209.156l-2.063-1.968-.28.093-2.25-.531-.876-.656-.906-.157-.906 1.532-.375.25.562-.907.25-.875-.969-.625-3.687-.562v.625l-.656.187-.969-.625-1.813-.093-.906.469.188.156-.094.812-.906-.812-1.781-.438-2.344-.281-.094.188h-.25l-.281 1.25-.531.906-.094.187.156.907.094.156-.344.906c-4.089.149-1.819 1.801-3.594 4.063l.25.906 1.344 1.781.375 1h1.438l.53 1.531v.907l.563.437.97 1.906.905 1.438.99.332-.742.326-3.691-.2-1.006 1.155-4.793 1.33.033.656-1.406.426-.754-.55.518 7.968.652.207.143 1.154.609.297.666.498.047.836.605.348.524.521.697.612.682.289.797.547.53.279.7.291.836.106.426.501.514.096.152.705.65.239.795.193.069.627 1.062-.12.83.434-.512.547-9.064 19.549-.592.447.233.664.345.803.713.445.307 1.3.539.454.387.856.406.851.023.692.365.697.504.244-.04.75-.108.565.154.699.508.728 1.031.448.118.437 1.068.504.119.82.52.004.828.5.568-.002 1.04.235 29.27 1.804-.27.73-.876 2.157-.562.906v1.97l-.532 1.343c.036.459.06.919.094 1.375l-.094.437.188.532v.03c.009.125.022.252.031.376.003.115-.008.23 0 .344l-.031.343.094.313c.038.508.081 1.018.125 1.531l-.032.5.157.969.562.187-.469 2.063-.906 1.812-.25.188v1.781l-.375.281-.25.813v.906l-.375 1.344-.187.531-.625.438h-.907l-.53.468-.532.907-.813 1.968v.188l-.906.625-.969.093h-.093v.094l-.282.438-.906.75-.719.593v1.344l-.718.906-1.063.907-.469.906-.187 1-.156.437-.094 1 .906 1.782v.906l.25.906 1 .344-.531.906.156.188 1.438.093h.375l3.687 1.97 1.094.187.875.53 1 .376.375.625-.281.906v1.594l.093.469-.718 1-1 .437-.813.906-.344.97v.374l-.375.438-.812 1.187.094.625-.625.906-.438.344-.281.906v.094l-1.094 1.531-.094.188-.53.312-1.345.844-.906.719-.719.906-1.968.813-.282.625-.25 1.093v.063l-.093.187-.375.375-.625.25c-.785 1.457.02 2.2-1.625 3.25l-.094.907.188.53-.907 3.157-.187 1.156-.531.907v.812l-.188.375.188.719-.25 2.156-.282 1.063-.375 1-.875.625-1 .906-.187-.094-.906.281-.72.97-.437.905-.437.282-.813-.563h-.906l-.813 1.094-.906-.438h-.531l-1.906.063-1.156-.156-2.688-.72h-2.906l-.438.095-.281-.657 1.438-1.437.812-1.438v-.718l.094-.813.562-.875.25-.187.375-.282.438-.906.531-.875.656-.906-.562-.906-.188-.094-.062-.188-1-.812-.907-.344-1-.094-.343-.437-1.813-.656-1.062-.72-1-.437-1.719-1.343-1.688-1.094-1.437-.094h-.094l-2.062-.719-1-.25-.625-1.093-.906-.625-1.907-1.094-.875-.875-.469-.813-.812-.904-.25-1-.375-.187-.25-.063-.906-.656-.281-.438-.72-1.156-4.124.156-.094.094-.469-.187-.968.718-.47.907-.187.468-.25.344-.531 1.813-.375-.813-.187-.906-.97-1.719-1.53-.437-.813.093h-.094l-1.906-.093v.093l-.875-.093-.906-.813-1.094-.625-.625 1.625-1.812.531-.063.625-1.719 1.72-.28.53.812.813-2.043 1.062-3.197-.13.063-1.27-1.596-6.257-1.458-1.531.19-1.398-1.274-1.313-.093-1.573.956-.72-.566-.758c.251-.491.771-1.135 1.257-1.508l-2.573-2.208-.43-4.36-1.249-.412-.924-2.192Z"/><path fill="#3e73c5" fill-opacity=".429" stroke="#000" stroke-opacity=".247" stroke-linecap="round" stroke-linejoin="round" d="m445.188 86.11-1 .813 1.968.72 1.906-.188.97-.72ZM449.75 86.11l.281.345 1 .562 2.781-.187.907-.282-2.969-.437ZM456.438 94.486l-.907.187v.25l.969.188 1-.094ZM517.063 113.642l.906.281-1 .438h-2.875l.093-.25 1.907-.188.968-.28ZM517.969 119.673l1.906.282-.906.812-1.907-.812ZM520.688 122.642l.437.438 1 .28.156.907-.875-.625ZM524.188 129.11l1 .376-2 1.719-.907-.094-.968-.375.968-.906 1.907-.72ZM521.469 129.673l.562.094-1.906 1.063.375-.907.969-.25ZM525 133.173l-1.281 1.625-.875.438-1-.344.343-1 .907.094 1.906-.813ZM522.656 137.048l-.093 1-1-.28 1.093-.72ZM533.094 139.298l1.875.188-1.688 1.062-.906-.187-.281-.969 1-.094ZM531.656 142.455l.625.968.188.907-1 .437-.907-.25-.625-.906ZM525.188 149.36l.968.376-.968.437ZM534.25 165.673l.094.063.28.906-.905-.094.53-.875ZM534.344 187.892l-.188.906-.719-.28ZM459.375 488.86a.744.744 0 0 1 .344.063l.219.094.78.281a.75.75 0 0 1 .22.094l.906.719c.296.22.39.61.219.937a.759.759 0 0 1-.907.375l-.906-.28a.75.75 0 0 1-.25-.126l-1-.812a.777.777 0 0 1-.281-.813c.082-.296.35-.5.656-.531ZM510.219 702.642l-.063.531.344 1.875-.344.813.625-.344ZM510.156 705.86l-.281.188.281-.093v-.094Z"/><path fill="#8cce55" stroke="#0f380f" stroke-opacity=".145" stroke-linecap="round" stroke-linejoin="round" d="m464.25 69.83-1.531.25-2.875.812.906.906-1 .188-.906.437-2.969.282-.344.093v.344l-2.875.469-.906.875-2.969-.156-.906.156-1 .562-2.875.344-.906.906-.625 1 1 .344-1 .906-.969.438 1.875 1 1 .187.813.907.968.53.906.188.907-.28 1 .53.875-.093-.969.75.875.437 2.188-.187 1.78-.813 1.813.188v.187h-.906l-1.969 1.063.969.468h1l1.875-.28 1-.345-1 .875-1.969.563 1 .437.906.094 2.875.813 1.875-.47.532-.874h1l.375.875 3.937-.344.094-.031.812-.25.813-.906 1.875-.625 1 .718.906.188.906.906.094 1h-1.906l-.094.875 1 .656-1-.093-.906-.657-3.5-.312-.438-.031-3.968.187-2.875.906 1 .438 2.875.281.906-.187h.969l1.531.25 3.156.468 2.781-.468-.906.468-1.875.25-3.156-.53-1.531-.25-1.875.343h-1l-5.75-.625-2.344-.094-2.781.438-.906.468-1 .25-.813 1 .906.625h1l.906.282-.906.28.906.72.97.25h1l2.593-1.782h.906l-.906.344-.969.906v.907l3.781.812 1.97.156h1.093l1.781-.437.719 1-1.063.25h-1l-.906-.156-.906.25-.969.718-2 .47-.156.968 1.969.656 1.875 1.063 1 .093.375.72h.812l3.219.624 3.25.531.906-.25-.906-.468-1-.72-.813-.874 1-.656 1.875 1.375.907.156.093-.875.907-.813 1 .157.875-.063.906.344-.906.625-.094.906 1 .438h.906v-.97l1.813.157.344-.625 1 .188.437-.907h.906l.281-.53-.468-.813-9.25-14.125-7.563-12.063-.281-.437Z"/><path fill="#8cce55" stroke="#0f380f" stroke-opacity=".145" stroke-linecap="round" stroke-linejoin="round" d="m445.188 86.11-1 .813 1.968.72 1.906-.188.97-.72-3.844-.624ZM449.75 86.11l.281.345 1 .562 2.781-.187.907-.282-2.969-.437h-2ZM456.438 94.486l-.907.187v.25l.969.188 1-.094-1.063-.531ZM536.094 140.517a3.852 3.852 0 0 0 0 0ZM479.563 225.58l.625.906.718.281.438-.469-.906-.718h-.875ZM479.906 226.486l-.906.625-.25.906-.563.906h1.188v.282l.906.437-.562.188-.094 1.78.188 1 1-.187.906.094-.813.906.25 2.532-.531-.282-.906-.187-.344.906.969-.094.75.282.875.093.719.875.906-.531.719-.344.906.157-.188 1h-.906l-1.062.375.093.875.969.468-1.25.625-.625.907-.906.812.375.25.719.719.437.906.906.281v.25l.813.907-.094.468.188.875-.375 2-.438.625v.907l-.906.718-.188.344 1.094 1.813-.906.093h-.438l.719 1.781.813.563.875.25h1l-1.094.562v.875l.906.907.563.718.875.625.28 1-.28.094-1.688 1 .344.875-.625 1.813-1 .812-.813-.281-1.656-.625c-.244-.078-.357-.1-.406-.094-.166.022.232.348-.875.188l.062-.031c-.244-.035-.542-.064-.968-.157l-1 .282h-.907l-.437-.188h-1.813l-.625-.906-.625-.344-1.281-.469-1.687-1.687-.813-.469.531.906-.281.907.375.343v.188l-.281.281.562.906-.906.157-1-.72-1.156-.812h-.813l.344.813.656.906.875.719-.875.187-1.281.375-.531.157.094.906.437.75.094.156-.094.063-.813.468-.25.907.625.906.438.312.281.219-.281.906.813.438.906.281.812.906.188.157-.375.906.093 1-.437.906-.094 1.25.156.094.907-.282.906-.437v-.469l.813-.968.906.875-.469.375-.156 1.812.156.719-.344.875.625.906.531-.719.72.375.718.875 1-.25.625.25.813-.968 1 .187.906.719.625.875.812.469-.187.906.531.875 1.438-1.063-.344-.625.25-.906.625-1 .187-.187v-.875l-.25-1.813.25-1.719.906-.625.438-.812.906.281.469.906-.281.875.625.813-1.781.187-.907.72.25.905 1 .188.531 1.781-.437.281 6.645.143.394.381.002.371.164.593.501.528.151.673.286 1.038.217.499.173.511.186.41.748.546-.473.508-.356.537.387.49-.275.46-.22 1.906.25.563.095.656.312.781 1.813-.437 1.78-.188h1.876l1.812-.344.907.094.437-.281.625-.906.906-.25.719-1.094.906-.438.907-.187.625-1.344.906-.719.156-.906 1.813-.531.906.25 1.781-.906h.906l1.388-.344v-8.272l-1.531-1.63v-1.773l1.53-1.468.485-1.423-1.34-1.997-1.876-.28-.906-.25h-.906l-.875.187.875.437.906.188-.906.093-2.688.875-.906.625-.531.907-.906.28-1.781.907-1-.094v.625l-1.531.907-1 .187.906-.281.375-.906-.906-.907-1-.53-1.813-.282.281-.719 1 .656.907.25.875.625.906.282v-.907l.375-.53 2.781-.47 2.781-1.25h.907l.812-.906-3.687 1-1.344.188.156-.282 1-.093 1.813-.532.906-.093.969-.438.906-.187.906-.719h1.781l1-.625-1 .094.563-.188.875-.719-2.688-.906h-.906l-.969-.344-1.812-.187-1.438-1.813-.906.188.469-.906-.906.812-1.906 1.25-.813.906.625-.906.906-.719.094-.968-.906-.188-.094-.906-.875.531-.469.656-.875.782.531-.625.438-.875-.906.156-1.875 1.437 1.875-3.218-.875.906.062-.906-.25-.907.813-.906-1 .375-.531.875-.375-.875-.97-.187.438-.625H497l-.906-.813-.969-.375.969-.156h-.969l-.281-1-1.438-.094-.906-.531.906.25.906-.344-1.812-1.281.906-.438-1.875-.28 1.438-.063-1.813-.47-.187-.25-.625-.187.031-.03.312-.157-.25-.375 1.782.187h-.907l-.593.188.125.219.125.125v.03l2.156.626 1-.094-.813-.906.907-.188.531-.906.906.094v-.531l-.625-.907-1.812-.812-.188-.875-.875-.281-.906.187-1-.469h1l.906-.25.875-.906-.875-.719-.562-1-.969.47-.375-1 .906-.188-.906-.907-2.344.625-.875.094.781-.625.907-.094 1-.53-.907-.095.907-.625-.438-.906-.906.188-.906-.094-.907.281-1 .531.563-.906.906-.094.969-.437-.188-.906.282-.907-1 .094-.438-.906-.094-.875-1.343.344-1.875-.094 1.781-.094 1-.625-.094-.906-1 .469.094-.906-.906-.094-.625-.344.906-.469-.719-.969-.906.532.375-.907-1-.375.344-.875v-1h-1.5l-.281-.375-.907.375h-.344l1.594-.812-.25-.906H480l.906-.344Z"/><path fill="#8cce55" stroke="#0f380f" stroke-opacity=".145" stroke-linecap="round" stroke-linejoin="round" d="m482.781 230.017.563.875-.188-.875h-.375ZM495.563 249.892l-.907.094-.344.906.907.875.25-.875h-.906l.906-.562.093-.438ZM494.656 252.236l.906.719h.907l-.906-.188-.907-.531ZM496.813 254.736l-.438.906 1 .094-.375-.906-.188-.094ZM511.219 262.86l-.906.72.906.25.187-.97h-.187ZM472 305.142l-.906.188-.469.187h-.438l-.28.094h-.063l-.906.344-1.532.187-.281-.187-.625-.438h-1.813l-.437.156-.906.282c-.435 1.376-.125 2.05-.781 2.625a2.295 2.295 0 0 1-.313.218c-.021.013-.041.02-.063.031a5.642 5.642 0 0 1-1 .438c-.346.118-.755.241-1.25.375l.72.625 2.968-.969 1.438 1.063v.093l.718.532v3.968l.094 1.344.094 1.813-.282.437.907.813.53.125.376.062.094.188-.188 1.78.344.532.469-.25.25.094v-.031l.28.187.282.281.875.282.906-.094 1-.469.907.094.53-.156-.093-.907.906-.718-.375.968.563.375.969-.187 2.718-1.531 1.782-.532.625-.906.093-.906-.53-.875 1.25 1.781.905-.437v.437l-2.687 1.813.437.906 1-.656.907.187.875-.187h1.906l1.812.28-1 .282h-.906l-1.812.875.28.906h-.28v-.343l-.875-.563-.094-.875-.906.531-1 .282-3.594 2.062-.906.813.906-.282-.906.625-.157-.437-.906.625-.812.906.906-.469-.719.907-.281.906.094 1.875.625.906.187-.812 1.781 1.625.907.093.375-.906h.875l.468-.156.532-.906.906-.563.437-.875.907-.562.53-.875.188-.094.282-.906.906.187.625-.906-.281 1 1 .25.906-.438-.375-.906.625.531.906-.093.438-.344.906-.094 2.812-1.156 1.782-.562 1.625-.907.906.094 1.781-1.156-.875.093-.812-.375.875-.343-.532-.813 1 .094.907-.188.875.094 1.812-.375 1.719-1.25.875-.375-.063-.875-.812-.625h-.906l-.907-.562-.906.906.906-.469v.031l-.812.875-.969.719h.875l.906-.344-.906.719-.625.875v.031l-1-.187-.875.375.031-.063-.062.031.719-.968h.03l.782-.47h-.875l.875-.718.906-.344.094-.093.812-.907-.906.563.906-1.813.094-.906.469-1-.906-.344h-1l-.907.72-.906 1.812-2.156 2.593.469 1.813.343.531-.53-.437-.907.343-.906-.53-.344-.907-.906.719-.907.437h-.906l-.969.281.438-.625-.906-.28-1.782-.157-.906-.375-1 .281-.875-.656-.906-.344.187-.281.875-.531-.718-.282-1.782-.156-1-.469-.625-1.78-.718-1-.094-.907.281-.906-.906-.063-.906.25-.719-.187 1.062-.625.813-.907.719-1.875-.157-.906-.906-.187-.906.187-1.875 1.188-.375-.813-.625-.906-.906-.188-1.875-.718Z"/><path fill="#8cce55" stroke="#0f380f" stroke-opacity=".145" stroke-linecap="round" stroke-linejoin="round" d="m482.531 311.61-1.094 1.813.907.188.437.906 1.906.625.094.531.875.375.906.25 1-.53 1 .53-.093.907.969.187.906-.094.093-1 .375-.906 1.782-.719-.907-.25h-.718l-3.688.25-1.781-.625-.906.282-1 .093.281-.906-.906-.719.437-.906-.875-.281ZM515.938 314.205c.286.132.6.218.937.218.215 0 .428-.037.625-.093h-.531v-.125h-1.032ZM470.375 324.142l-.281.906.469-.906h-.188ZM479.938 389.61a2.25 2.25 0 1 0 0 4.501 2.25 2.25 0 0 0 0-4.5ZM448.688 453.36l-.907.282-.344.625h-.156l.25.594.063.125v.124l-.094.907-.031.313.187.968-.218.157-.47.343-.03.032.03.03.22.22.28.218.032.031-.031.094v.031l-.25.688-.625 1.031.812 1.125v.313l.031.718.438.375.438.907.906.375 1.25-2v-.875h.562l.906-.282.875.375 1.907.157.812-.907.531-.25 1.72.344.906-.25 1.5.25.906.563.906-.47.188.095.906-.813-.375-.906-1.781-1.344-.907.094-.906-.188-1.906-.906h1.281l.906-.438h-2.719l-1.156-1.812-.469.281-.968-.187-.906-.532-.907-.187-.906-.438h-.906l-.875.282-.906-.282ZM468.938 460.017l-.625.906.53 1.782c2.544-.265 3.272-.054 5.5-.063l.438-.281.906-.906-.468-.907-.875-.25-5.406-.28ZM461.281 461.736l.906.25v-.156l-.906-.094ZM488.625 465.61l.906.626.094-.281-1-.344ZM494.844 469.736l-.094.906.094.344.906-.531-.906-.72ZM494.5 470.642l-.906.25.187.906.875-.156v-.906l-.156-.094ZM495.031 473.955l.531 1.812.532-.625-.156-.906-.907-.281ZM496.188 477.486l.812 1.781.906.281.094-.093-.281-1-.625-.875-.907-.094ZM497.469 480.986l-.563 1 .563.875.25-.875-.25-1ZM503.5 485.048l.531.875.344-.53-.875-.345ZM496.813 496.455l-.875.093-1 .813.093.906-.187.906-1.813.875 3.344-.062.906-.813-.187-1.812-.282-.906ZM503 508.174a.25.25 0 0 1-.063.187.249.249 0 0 1-.062.032l-.594.437-.031.031-.187.375a.22.22 0 0 1-.032.031l-.28.282a.249.249 0 0 1-.063.03l-.844.5-.031.032-.313.344a.249.249 0 0 1-.062.031l-.188.094-.812.468-.063.063-.531.687.5.75c.013.02.024.04.031.063l.219.719.687-.063a.25.25 0 0 1 .156.031l.282.188a.25.25 0 0 1 .094.281v.031l-.47.907a.242.242 0 0 1-.03.062.246.246 0 0 1-.094.031l-.781.375h-.032l-.875.375a.218.218 0 0 1-.062 0l-.906.188-.782.094-.062.062.156.813.188.906a.25.25 0 0 1-.063.187.214.214 0 0 1-.031.031l-.875.875v.032l-.313.343.407.563.812.906.781.969.032.031.78.813a.233.233 0 0 1 .063.029l.032.031c.01.01.023.02.03.031l.626.907c.013.019.024.04.031.062a.25.25 0 0 1 0 .125.218.218 0 0 1 0 .063l-.469.906a.25.25 0 0 1-.093.094l-.844.437-.5.813a.25.25 0 0 1-.125.125.218.218 0 0 1-.063 0l-.75.093-.843.313-.063.031-.906.781a.25.25 0 0 1-.156.063h-.907l-.78.406a.245.245 0 0 1-.063.031l-.875.25a.25.25 0 0 1-.157 0l-.875-.312-.78.627a.214.214 0 0 1-.032.031.246.246 0 0 1-.094.031h-.687v1.563a.25.25 0 0 1-.063.156.214.214 0 0 1-.031.031.246.246 0 0 1-.094.031l-.875.282a.246.246 0 0 1-.093 0 .25.25 0 0 1-.188-.094l-.781-.938-.031-.03-.75-.688-.844.375a.214.214 0 0 1-.031.031.25.25 0 0 1-.125 0h-.031l-.782-.344h-.03l-.876.094a.248.248 0 0 1-.094-.031.239.239 0 0 1-.062-.031.22.22 0 0 1-.031-.032l-.907-.78-.78-.22h-.032l-.781.094a.25.25 0 0 1-.188-.062l-.25-.188-.062.469.687.75.906.531c.044.03.077.074.094.125l.438.875c.013.02.024.04.03.063a.246.246 0 0 1 0 .093l-.093.875v.781l.594.875a.22.22 0 0 1 .031.032l.438 1a.25.25 0 0 1 0 .156l-.188.719.625.312.938-.094h.03l.907.094c.047.01.09.03.125.063a.22.22 0 0 1 .031.03.22.22 0 0 1 .031.032c.014.02.024.04.032.063l.281.906a.248.248 0 0 1-.031.156.242.242 0 0 1-.031.062.214.214 0 0 1-.032.032.214.214 0 0 1-.03.03l-.876.532h-.031l-.875.625a.245.245 0 0 1-.063.031.243.243 0 0 1-.062.03l-.75.062-.375.719-.031.062-.25.844a.254.254 0 0 1-.063.125l-.906.719a.225.225 0 0 1-.031.031.248.248 0 0 1-.156.031l-.813-.093-.812.75a.25.25 0 0 1-.094.062l-.875.25-.344.125-.031.031-.781.875a.249.249 0 0 1-.063.032l-.812.468-.532.875a.25.25 0 0 1-.125.125.25.25 0 0 1-.125 0 .248.248 0 0 1-.093-.03.24.24 0 0 1-.063-.032.25.25 0 0 1-.062-.156l-.094-.782-.719-.468c-.712.484-1.254.84-1.656 1.03-.434.207-.82.246-1.156.095-.336-.152-.594-.427-1-.813-.4-.379-.934-.884-1.719-1.469-.013-.007-.02-.022-.031-.03-.026-.016-.044-.04-.063-.063-.008-.012-.025-.019-.03-.032-.003-.01 0-.018 0-.029l-.282-.906-.188-.906h.032l-.282-.844v-.031l-.437-.875a.249.249 0 0 1-.031-.063c-.001-.043.01-.087.03-.125a.242.242 0 0 1 .032-.062l-.375-.719a.249.249 0 0 1-.031-.063.218.218 0 0 1 0-.062v-.781l-.813-.657h-.03l-.25-.28v2.312h-.095l-.812.906-.875.719-.906-.532-.907.094.188.25-.906.281h-4.407l-.906-.187-1.25.281v2.969l2.156.092.907.718.093.72-.187.53-.906-.375-.813.094-1.969.469-.28 2.594v.093l.28 1.094 1.782 1.25.093.906.375 1.063.344.469v.25l.281 1-.28.53-.095.563-.53 2.97-.532 3.03v.188l-.531 3.062-.657 3.063v.094l-.093.093v.344l-.157.094h-.187l-.719.094c1.05 1.688 2.091 3.39 3.125 5.093.012.02.02.044.031.063 1.022 1.684 2.043 3.376 3.063 5.062l.094.157c2.032 3.36 4.076 6.705 6.187 10v8.218l-.812.657-.157.375-.375-.094-.906-.094-.969.813-.906.812-.906.438-.719-.438-.187-.094-1 .094-.782-.187-1-.188-.906.094.719 1.25 1.969 3.156 1.468 2.875-.28.813-.907.812-.094.906v2.25l-.531.907.344.875.468.812-.53.908-.095.813-.906.719-.625 1.093v.875l.625.72.094.75-.625.874-.094.188.875.718h.031l.72.907.874.343-.25 1 .094.344.969-.094v.032l-.532.968-.718.094-.094.094.375.625h-.031l-.782-.094v.094l.157.281-.063.094-.906.718-.813.907-1.25 1.343.72.532v.531l-.376.281-1.25.625.188 1 .924 2.192 1.25.412.43 4.36 2.571 2.208a5.052 5.052 0 0 0-1.255 1.508l.564.758-.955.718.092 1.575 1.275 1.312-.19 1.399 1.458 1.53 1.595 6.257-.062 1.271 3.197.13.885 1.034.096 1.494 1.062-3.593-.812-.813.281-.531 1.719-1.719.062-.625 1.813-.531.625-1.625 1.093.625.907.812.875.094v-.094l1.906.094h.094l.812-.094 1.531.438.97 1.719.187.906.375.812.53-1.812.25-.344.188-.469.47-.906.968-.719.469.188.093-.094 4.125-.156.72 1.156.28.438.907.656.25.062.375.188.25 1 .812.904.469.813.875.875 1.906 1.094.906.625.625 1.093 1 .25 2.063.719h.094l1.437.094 1.688 1.093 1.718 1.344 1 .438 1.063.718 1.812.657.344.437 1 .094.906.344 1 .812.063.188.187.093.563.907c-.4.614-.802 1.194-1.188 1.78l-.437.907-.375.281c-.259.36-.526.713-.813 1.063l-.093.812v.72l-.813 1.437-1.437 1.437.28.656.438-.093h2.907l2.687.718 1.156.157 1.907-.063h.53l.907.438.813-1.094h.906l.812.562.438-.28.437-.907.72-.969.905-.281.188.094 1-.907.875-.625.375-1 .281-1.062.25-2.156-.187-.72.187-.374v-.813l.531-.906.188-1.156.906-3.156-.187-.532.093-.906c1.647-1.05.84-1.794 1.625-3.25l.625-.25.375-.375.094-.187v-.063l.25-1.094.281-.625 1.969-.812.719-.906.906-.72 1.344-.843.531-.312.094-.188 1.093-1.531v-.094l.282-.906.437-.344.625-.906-.093-.625.812-1.188.375-.437v-.375l.344-.969.812-.906 1-.438.719-1-.094-.468v-1.594l.282-.906-.375-.625-1-.375-.875-.532-1.094-.187-3.688-1.969h-.375l-1.437-.094-.156-.187.53-.906-1-.344-.25-.906v-.907l-.905-1.78.093-1 .157-.438.187-1 .469-.907 1.062-.906.719-.906v-1.344l.719-.594.906-.75.281-.437v-.094h.094l.969-.093.906-.625v-.188l.812-1.969.532-.906.531-.469h.906l.625-.437.188-.531.375-1.344v-.906l.25-.813.375-.281v-1.781l.25-.188.906-1.812.469-2.063-.563-.187-.156-.97.031-.5c-.044-.512-.085-1.023-.125-1.53l-.094-.313.032-.344c-.008-.113.003-.229 0-.343-.01-.125-.023-.251-.032-.375v-.032l-.187-.53.094-.438c-.034-.456-.059-.916-.094-1.375l.531-1.344v-1.969l.563-.906.875-2.156.271-.733-29.271-1.803-1.04-.234h-.568l-.828-.498-.52-.004-.119-.82-1.068-.506-.117-.436-1.031-.447-.508-.728-.154-.7.107-.564.041-.75-.504-.246-.365-.696-.024-.693-.406-.85-.386-.857-.54-.455-.306-1.297-.713-.445-.346-.803-.232-.666.592-.445 9.064-19.55.512-.546-.83-.434-1.063.12-.068-.627-.795-.194-.65-.24-.153-.705-.514-.094-.425-.502-.836-.107-.7-.29-.53-.278-.798-.55-.681-.286-.698-.612-.523-.523-.605-.346-.047-.836-.666-.498-.61-.297-.142-1.154-.653-.209-.517-7.967.754.551 1.406-.426-.033-.658 4.793-1.328 1.006-1.154 3.691.197.742-.324-.99-.332-.906-1.438-.97-1.906-.562-.438v-.906l-.53-1.531h-1.438l-.375-1-1.344-1.781-.25-.907c.258-.329.412-.637.531-.937l.281-1.375c.016-.137.038-.283.063-.406.119-.63.478-1.063 1.719-1.25l.718-.094h.282l.343-.906-.093-.157-.157-.906.094-.187.344-.907v-1.78l-.719-.907h-.906l-.906-1.25-1.25-1.188-.907-.093-.437-.344-.719.094-.531.875-.281 1.187-.344.188.344-1v-.907l.437-.906.188-.719v-.718l-.532-.907c-.973-1.3-3.158-3.46-4.875-3.687l.907.656-1.47-.811ZM492.156 737.83l.969.718v-.625l-.969-.093ZM485.094 757.517c-.046.166-.137.31-.219.438.089-.132.17-.264.219-.438Z"/></svg>