<svg width="1671.094" height="856.393" xmlns="http://www.w3.org/2000/svg" xmlns:usvg="https://github.com/RazrFalcon/usvg" usvg:version="0.8.0"><path fill="#3e73c5" fill-opacity=".429" stroke="#000" stroke-opacity=".247" stroke-linecap="round" stroke-linejoin="round" d="M745.188.517v176.969h-81.094v30.25h81.094v52.781h-.094l.093.313v.875l-.375.593h-.156l-.375-.875-.906-.187-1.875.187-.719.875.625 1.094-.906.438-.906.812h2.718l-.375.906-.437.188h-.375l-1.344.812.625.907-1.875-.563-.906.906-.281-.343-.875-.563-.907-.187-1 .375-.968-.282v.563l.25.156.281.906-.188.907.625.187.907.625h-.907l-.437.906.906.157h-1.437v.468l-.657.094.657.906 1.062.532.907-.532.53.969 1.813-.25.344.719-.344.156-1-.094-.531.907-.094.906-1.906 1.812 1.375-.468h1.875l.906-.907v.657l.907.093-1 .063-2.344.562-1.781 1.063.25.906h-2.344l-.438.906 1.813-.281.969.094-.97.531-1.093.281-.719.906.907.438h.906l1.594-.344-1.594.969v.469l.719-.375 1.875-.188-1.813.906.906.188.907-.281.906.468 4.219-1.53-.438-.907.625-.094.438.625.906-.25.719-.906.718.281.532-1 .375-.093-.125 49.687h.125l.906.625.969.25.28.375.907-.469.531.188 3.063-.094.906-.344.906.438c2.54-.159 5.009 1.555 7.563.625l.062.187c2.252-1.455 3.207.374 4.688.375l.375-.468.875-.25 1.531.812.906.063 1.094-.063.969-.281.906-.469c1.984-4.097 1.411-7.36 2.063-11.594l.906.094.812.906.188.969.718.813.188.625-.094-.625-.53-.907-.188-.968-.47-.907-.874-.718-.906-.532h-.282l.625-.468.188-.907-.281-1.781.093-.469h-.875l-.906-.53-.719-.188-.562-.438-.625-.906-.969-.906.625-1.157-.906-.53.187-.907h.907l.968.437-.906-.53h-1.156l-.907.093-.343-1 .437-.344h-1.875l-.906-.719-.625.907-.469-.907-.906-.625-2.969-.656-.875.281-.906-.906-.906-.437-.532-.094 1.782-.375-.875-.531-.094-.907.969.375-.094-.625-1.781.344-.094-.906.906-.719.907-.344 1.78-.375 1.626.282.719-1 .906.093.906-.25 1.531 1.782.875-.094 1.188-.625 1.437.719.188.375.094-.188-.188-.187 2.781-.438-.812-.812.094-.907-.532-1.875-.718-.906-.625-1.812 1.5.28 1.375-.28.093.906.782 1.25 1-.344.906.25h.906l1.781.375 2-.812.813-.188.156-.156-1.063.156-.625-.906c2.803-2.975 4.236-.374 6.47-3.688l.53.188-.437-.906.281-.157-.187-1.812.187-.906.875-.907 3.157-.625 2.968-1.53 2.063-.532.906.375.906-.188 1.344.094.281.531-.281-.625-1.063-.468-.906.375-.906-.375-.375-.875 1.531-.094.907.625.906.344-.188-.438-.906-.281.813-.156-.438-.375-.813.093-.53-.625H798l1 .532.438.093.906-.375 1.093-.156h-1.093l-1.438-.719-.343-.906H799l1.625-1.812.625-1.25.281-1.813.25-.812 1-.063 1.25-.656.907-.625.093-.344 1-.906 1.688-.531 1.718-.094 1.813-.375.875.906 1.281.531.719-.343-.625-.282-1-.187.094-.875.718-.906.907-.282.53.094v-28.25l-1.187-.187-.968-.438-1.813.156.469-.875.875-.562-.531.281-1.97-.187-.28-.25-.907-.282-.968-.718-.907-.438-.812-.906-.281-.563.562-.968.25-.907.906.625.907.188.53.281.532-1 1-.281-1 .187-.969.719-.28-.531-.188-.906.906-.813 1-.531-1 .344.437-.438-.875-.375.344-.25-.906-.187.906-.188-1.875.094.438.906-.907.344-.156-.969-.656.969-.719-.625-.094-.813.188-.875.906-.187-.625.968.906-.343.157-.813.906.438.562-.875h.72l.968-.719-.969.531-.906-.093-.813-.375.344-.625.906-.438-.093-.094 1-.718.093-1 .907-.813.875-.437.093.906-.156.906.875-1.812.906-.375-1.968.187-.907.375-.718.906-.907.344-.53 1.531h-.532l.156-1.437-.875.187.063-.906-.875 1-.907-.656-.187-.875.812-.906.907.53.093-.093-.812-.437.906-.813.438.719.187-.281.25-.907h-.969l-1.437.907-.375-.907-1-.718 1.281.375.906.437-.468-.875.906-.375-1.188.281-.875-.093.438-1 2.781-1 3.344.187 1-.437.875.53v.907h.906l-.344-.906 1.063-.438.906.25.094-.093v-.563l-.094.031-.281-.093-.344-.532.531-.906-.906.813.469.906-.906.187h-1l.562-.468h-1.906l-.188-.094.47-.781-1.282 1.5-.875-.531h-1.906l-1.875.812-1-1-.907-.437 1-.438 1.782-.187-1.875.093-.907-.281 1.907-.531.875.187.906-.093h-.906l-1.782-.375.907-.25-1-.282 1 .094-1-.188-.907.094 1.813-.375-.906.094-.907-.25c1.25-2.064 2.588-2.275 4.313-.563l1.906-.718.906.187.97-.344c-2.818.29-4.576-.385-7.376-.562l.906-.625-1-.531.907-.282.718.907-.25-.907 1.782-.343.468.875 1.782-.063-.907-.375-.53-1 .905-.531 1 .094.625 1-.187-.625.094-.907.906-.375.969.72.375 1v.437l.343-.875 1-.094h-.906l-.719-.906-.906-.375-.969.187-1.187-.187 1.094-.532-1.094-.343 1.906-.282.969.282.906-.188.906.094.813.344v-1.25l-.281-.094.28-.125v-.094l-1.25.313-.905-.532.906-.28-1-.72 1-.437.875.25h.094l.28-.188V.517h-69.562Zm-47.063 67.875-.813.156-.812.907.375 1 1.969-1.188Zm-7.75 2.875-1.781 1.344.906.719h.969l-.25-.438.968-.187.188-.907Zm5.063.813.53.875.094-.875h-.625Zm-1.094 1.78-1 .907 1-.187.906-.625Zm-3.25 2.72-.625.875.906-.157Zm-2.25.343.718.907-.156-.907Zm2.812.532-.562.906 1.437-.625Zm.625 1.625-.468.906.906-.813Zm-8.812 1.53-1 .376-1.625 1.875-.094 1-.437.906-1 .531.906-.906-1-.531-.969.094v-.375a4.996 4.996 0 0 0-.781.375 5.149 5.149 0 0 0-.625.468c-.018.015-.045.016-.063.032a6.109 6.109 0 0 0-.53.53c-.03.033-.065.062-.095.095a7.673 7.673 0 0 0-.437.562v7.563l.187-.157.344-.906.906-.094 1 .72.813 1 .875.25.906-.72 1-.53 1.875-.532-1.781-.281-1.906-.094 2-.25 1.875.156-1-.625 1-.437 2.875.437.562-.187.781.093 1.907.72 2.78.374 1 .344h.907l.969-.625.469-.906-.47-2.782-.874-.906-2-.25-.969.25-.656.906-1.969-1.156-1-.281-1.781.094-1.907-.282h1.907l.906-.25-2.906-.468-1.875-.532 2.968.375-1-.468 1-.188-1.093-.625-.969-.344.969-.468 1 .187 1-.344.906.157 2.969 1.28 1.875-.374-.813-1-.906-.531-1.875-.25-2.156-.563-1.907-.719Zm-2 .095v.906l.625-.906Zm3.875.28 1 .72.906.437.969.281 1.812.282.094-.907h-1.813l-1.062-.468v-.344h-1.906Zm12.593.626-.906.625-.718.906-.157.906h.969l1-.468.531-.875-.343-.907Zm-6.187 11.531.25.875.906.281-1 .282-.437.875 1.062 1.906.094 1 1 1.781.094.906.53-.906-.53-1.437.093-.907-.375-1.875.188-1.906-.906-.812Zm-16.031.938v6.562l.03.031c.174.166.346.324.532.47.03.022.064.04.094.062.21.157.431.303.656.437.097.058.213.103.313.156.125.067.245.158.375.22.272.128.555.239.843.343.055.019.102.044.157.062.216.074.432.126.656.188.195.053.393.11.594.156.255.058.518.11.78.156.166.03.333.039.5.063.252.037.495.096.75.125h.126c.568.06 1.137.093 1.719.125.592.033 1.186.075 1.78.094.468.014.945.016 1.407.03.186.01.378.025.563.032.613.023 1.224.048 1.812.094l.094.25.719 1 .03.468c.903-.484 1.532-1.404 1.532-2.5a2.876 2.876 0 0 0-2.875-2.875c-.917 0-1.724.425-2.25 1.094l-.312.031-1-.093-.907-.25-1.968-.094-3.782.156.907-.156 3.687-.281 1.969.187.906-.187 1.094-.532h.969l.375-.906-.72-.906h-1.624l-1 .281-1.781-.719-1-.187.906.906 1.969.719-1 .187-.875-.812-1-.469-1.907-.156-.968.344.093-.907.344-.968-2.781.156-.906-.094.906-.156h1.875l-.969-.187.969-.438-.969-.187.094-.907-1-.187-.719.906-.625-.906-.187-.031Zm132.375 117.843.343.438-.968.469Zm-1.907.72.907.093v.531l-.907-.625Zm-3.312 2.874.969.188v.343l-.875.375-.094-.906Zm.438 5.5.093.063-1 .187.906-.25Zm0 3.844.906.094h-1l.093-.094Zm.093.281.813.906-1-.812.187-.094Zm-.281 1 .719.344.093 1-.875-.438.063-.906Zm3.344 2.406v.375h-.907Zm-1.625.657.812.53-.344 1-.562-.562.094-.968Zm-.344.968.438.907h-.907Zm-.188 2.875.25.188.094.469-.625.875.281-1.532Zm-70.718 35.563-.907.344.907.375Zm65.125 13.781 1.375.781h-.813l-.906-.718Zm-25.625 33.656.875.063v.187Zm.531 1.344.906.344-.187.562ZM754 372.455l-1.875-1-1-1.157.188-.625-.282-.375-.906-.53.906-1.095-1.343-.437-1.813-1.063.188-.562h-.438l-1.812.562-.188-.28-.062-.188-.375-1.438-.094-.094 1.25-2.062v-.188l.187-.187 1-.156.25-.907-.718.094-.72-1.094-.343-.25.094-.187-.094-.094c.523-2.472.804-.68 1.719-2.969h-.094l-.281-.468-.344.093-.656-.875.094-.093-.344-.47.094-.53-.47-.188-.718-.906h2.25l.188-.063.187-.718v-.094h.156l.282-.906-.625-1 .343-.438.375-.094.188-1.718v-.094l.094-1.437-.47-.72-.093-.093v-.094l.469-.062.625-.906.906-.375.094-.188.969-.969.28-.468-1.624-.97-.094-.905-.906-.375-.813.093-.156-.093-1-.063-.094.531-.968.438-.532-.25v.062l-1.187-.187-.469.031-.719.25h-.125l-.28.094-.063-.094h-.063l-.094-.25h-.093l.03-.062v-.032l.438-.843-.5-.563-.53.188-.345.125-1.156.187-.437.531-.031-.03-11.25 12.124-33.844 35.563v30.656l23.344.094-.282.78-.718.907-3.594 2.25-.281 1.094-1.344 2.687-.438 3.157-.562.906-.875.719-1.625 1.78-1.531 1.282-.625.875.906-.781-.188.875-1.312 2.187-.313.532v.812l-.625.969-.187.906-.438.906-.906.344-.719.906-.468.907-.813 4.687.188.906.28-1.187.282-.531.344.28 1.156 2.063.563-.468 1.343 2.625-.187 1.78-1.063 1.907v.719l.875.719.688 2.156.312 1 .188 1.875c.017.273.008.53 0 .781-.002.051.003.106 0 .156-.002.032.002.062 0 .094-.003.041-.028.084-.031.125-.02.224-.028.446-.063.656a9.003 9.003 0 0 1-.406 1.532c-.786 2.224-2.175 3.99-1.844 7.468l-1.437 2.5-1.094 1.375-.438.438-1 .437c1.2 1.13 2.58 2.053 2.813 4.157l1.437-1 .094-.188.438.094-.532.093-1.093 1.625.53-.28.47-.72v1l-.375 1v.438l1 .719.906-.438h.125l1.656-.093 1-.375.438.187h.812l-.344.188-.468-.188h-.438l-.906.281-1.75.094h-.125v.625h-1.813l-.531-.906-.719.437.094.906.25.625-.094.907.282.531.53-.156.657.906h-.813l-.718.875.25.375 1.531.625.375-.375.844-.25.312-.094-.313.219-.593.406-.344 1 .938.5.03.031.907-.437 1.094-.094-.813.25v.906l.906-.187.625-.438 2.5-.343v.718l.375.157h-.375l-.875-.344h-1l-.28.906 1.437-.187-.875.625-.72.906 1.063-.281-.25.718.532 1 .906-.468v.906l1.531-.25-.562.969.906.562-.094.156.813 1.625.906.72h1.063v.718l1 .719.53-.438.094.094-.25.906.344-.469.188.907.53.343.907 1.813.094.719.906.375.531.437h-1l-.156.906h.875l-.094.344.907.094-.97.375-.187.25.344.281-.875-.531.25.906.906.156.344.906-.25.72 1.781 1 .282-.094.906.625.625-.094-.906.375.093.625.907.531 2.78 1.25-.093.188.625.375.656.906 1.063.437 1.25.907h.187l-.187.343.812.47 1.282.343 1.343 1.094.282.437 1.968 1.719.72.812 1.812 1.344 6.093 2.875.907.094h.093v52.469H707.97v9.593h37.218v126.813h-34.812v43.719h34.812v96.687h69.563V556.08h-11.781v-4.75h14l-.032-16-2.187-.438v-9.375h-.719l-.469.188-.718-.532-.25.907-.094-.907-.531-.093.343 1-.53.25-.376-1.782v2.157l-.343-.375.093-.875-.093.25-.72.187-.53.813-.907.187v-.906l-.625 1-.281-.656-.281.093-1.25-.625-1.157-1.718v-2.063l.532-.187.187-.72-1.093.657-.375-.812.906-.094-.907-.188.094-.437-.875.531-.093-.906.812-.438-.656.25-.719-.093-1.531-1.532-1.594-.875-2.438-.28-1 .093-.906-.188-.343.375-3.97.157-2.437.28-1.343.282-.094-.094.812-.187-.093-.438-.532-.906-.343-.625v-.906l-.188-.469h.438c.096-3.234-.031-6.449-.157-9.687l-.75-.907-.062-.093-.188-.625-.093-.282v-.812l-.094-1.156v-.47c-.97-.548-1.756-.978-2.594-1.78l.063-1.532.375-.906.187-.437.156.062v-.25l.907-.562v-.157l.906-.468.094-.438.28-.281.876.281 1.094-.281.187.094h.531l.344-.25 1.094-.907.375-1-.375-.53-.188-.282-.718-1 .625-.875-.532-1.094-.437-.094-1 .47-1.156-.095-1.188-1-.969-.812-.562-.094-.094-.25v-.906l.656-.188h.25l.532-.187-.72-.25-.874-.813-1.531-.718v-.188l-.657-.812-.53-.907-.095-.906-.53-.437-.095-1-.093-.969.281-.188v-.187l-.094-.344h1.344l.906.25.188-.094 1.156-.156 1.437-1.375 3.438-.156 2.875-.188.906.094.719-.469 1.343.188.532.094.281.093.719-.906.906-.531.156-.188.657-1.437-.094-.188.25-.906.719-.875c.322-4.338.137-8.715.187-13.063l-2.062.375-2.157.438-1-.906.72-1.063-.25-.906-.188-1.25-1-.563-1.157-.25-.906-.093-1.25-1.188-.906.188-1.188-.344-.625-.906-.718-.625-1-.656-.438-.875v-.375l-.094-.438-5.5-3.531c-8.4-6.332-17.306-12.325-26.156-18.063v-.093l-12.969-8.094-1-.656v-7.094c1.623-1.146 3.344-2.153 4.875-3.438l.907-.062.437-.375.906-.719 1.438.094.906.187.719-.906v-.437l.156.062.906.094.907-.157 2.062-.375 1.188-.437.875-1 .718-1.188.907-.625 1.28-.437h.438l1-.531.25-.188.907-.719 1.437-.28-.094-.907-.53-.438.28-.906-.468-.969v-.375l1.812-.187.906-.25.813-.281.437-.188.188-.906 1.687-.531.907-.188 2.156.188 2.437.093.813.094.094-.094-.375-.28h-.094l.187-.345.532-1.812-.72-.625-.968-.906.094-.875-.656-.813-.157-1 .25-.906-.25-.531-.375-.188.375-2.062-.28-.907.187-1.062-.532-.906-.093-.625-.094-.094-1.438-1.094v-.093l-.28-.344h-.001l-.625-.188-.906.188-.906-.188-.875-.812-.094-.281-1.906.718-1.782-.437-.281.375-1.8-.188-.981.438-1.438-.25-1-.563-1.625-1.625-.343-.968.062-.47-.25-.155Zm41.656 144.343h.657l.875-.718Zm-87-29.78-.531.905-.375.094v.094h-.188l-.343.062-2.032-.031-.687-.031.688-.156.218-.032.282-.468.187.375 1.688.28.187-.093.188-.812.718-.188Z"/><path fill="#8cce55" stroke="#0f380f" stroke-opacity=".145" stroke-linecap="round" stroke-linejoin="round" d="m698.125 68.392-.813.156-.812.907.375 1 1.969-1.188-.719-.875ZM690.375 71.267l-1.781 1.344.906.719h.969l-.25-.438.968-.187.188-.907-1-.53ZM695.438 72.08l.53.875.094-.875h-.625 0ZM694.344 73.86l-1 .907 1-.187.906-.625-.906-.094ZM691.094 76.58l-.625.875.906-.157-.281-.718ZM688.844 76.923l.718.907-.156-.907h-.562ZM691.656 77.455l-.562.906 1.437-.625-.875-.281ZM692.281 79.08l-.468.906.906-.813-.438-.093ZM683.469 80.61l-1 .376-1.625 1.875-.094 1-.437.906-1 .531.906-.906-1-.531-.969.094v-.375a4.996 4.996 0 0 0-.781.375 5.149 5.149 0 0 0-.625.468c-.018.015-.045.016-.063.032a6.109 6.109 0 0 0-.53.53c-.03.033-.065.062-.095.095a7.673 7.673 0 0 0-.437.562v7.563l.187-.157.344-.906.906-.094 1 .72.813 1 .875.25.906-.72 1-.53 1.875-.532-1.781-.281-1.906-.094 2-.25 1.875.156-1-.625 1-.437 2.875.437.562-.187.781.093 1.907.72 2.78.374 1 .344h.907l.969-.625.469-.906-.47-2.782-.874-.906-2-.25-.969.25-.656.906-1.969-1.156-1-.281-1.781.094-1.907-.282h1.907l.906-.25-2.906-.468-1.875-.532 2.968.375-1-.468 1-.188-1.093-.625-.969-.344.969-.468 1 .187 1-.344.906.157 2.969 1.28 1.875-.374-.813-1-.906-.531-1.875-.25-2.156-.563-1.907-.719-.968-.812Z"/><path fill="#8cce55" stroke="#0f380f" stroke-opacity=".145" stroke-linecap="round" stroke-linejoin="round" d="M681.469 80.705v.906l.625-.906h-.625ZM685.344 80.986l1 .719.906.437.969.281 1.812.282.094-.907h-1.813l-1.062-.468v-.344h-1.906 0ZM697.938 81.61l-.907.626-.718.906-.157.906h.969l1-.468.531-.875-.343-.907-.375-.187ZM691.75 93.142l.25.875.906.281-1 .282-.437.875 1.062 1.906.094 1 1 1.781.094.906.53-.906-.53-1.437.093-.907-.375-1.875.188-1.906-.906-.812-.969-.063ZM675.719 94.08v6.562l.03.031c.174.166.346.324.532.47.03.022.064.04.094.062.21.157.431.303.656.437.097.058.213.103.313.156.125.067.245.158.375.22.272.128.555.239.843.343.055.019.102.044.157.062.216.074.432.126.656.188.195.053.393.11.594.156.255.058.518.11.78.156.166.03.333.039.5.063.252.037.495.096.75.125h.126c.568.06 1.137.093 1.719.125.592.033 1.186.075 1.78.094.468.014.945.016 1.407.03.186.01.378.025.563.032.613.023 1.224.048 1.812.094l.094.25.719 1 .03.468c.903-.484 1.532-1.404 1.532-2.5a2.876 2.876 0 0 0-2.875-2.875c-.917 0-1.724.425-2.25 1.094l-.312.031-1-.093-.907-.25-1.968-.094-3.782.156.907-.156 3.687-.281 1.969.187.906-.187 1.094-.532h.969l.375-.906-.72-.906h-1.624l-1 .281-1.781-.719-1-.187.906.906 1.969.719-1 .187-.875-.812-1-.469-1.907-.156-.968.344.093-.907.344-.968-2.781.156-.906-.094.906-.156h1.875l-.969-.187.969-.438-.969-.187.094-.907-1-.187-.719.906-.625-.906-.187-.031h0ZM704.844 181.236l-1.782.375.625 1.781-.718 1.281-2.157-.906-.906.438-1.343 1.812-1.813-1.812-1.781-.094.062 1 .719.906.375.906v1.157l-.375-.438-.25-.906-.625-.906-1.813-1.72-.906-.187-.718.188-.157.625h-.906l-.906.906.437.906-.156.907-.563-.094-.53-.625-.907-.719-1.156-1.531-.469.094-.875.718.625 1.782v.906l-.188.094-.375.906-.343.25-.375-.063-.157-.656-.906-.437-.906.906-.531.906v1.875l-.469-1.812-1.156-1.782-.907-.093-.625-.907.907.532.906-.157.438-.906-.438-.906-.656-.188.906-.156-.906-.562h-.875l-.282-.907-1.156-.625h-.906l-.563-.875-.875-.562-.906.187-.906-.093-1 .187.375.906.906-.375.907.47.968.25-.968.093-.907.625 1.782.719-.813 1.906.281-1.281-.906.187-.906-.437-.782-.907-.906-.375-.906.094-.281.281.906.375-.906.063.906.719-.906-.438-.875-.094.531.907 1.875.718-1.875-.437-.906.062.625.907 1.812.28-.906.188 1 .344-1 .375-.906-.719-1.782-.562.72 1.812-1-.437h-.907l-.438.969h1.782l1 .562 2.531-.656 1.781-.719.094.188.906.468-.093-.906h.906l.968.719.907-.281-.719.906.906-.531.907.53h1l-1.282.345-1.781.906-.094.906.907.281 1.78.094-.905.625-2.063-.187-.906.437-.875-.156-1.813.062-1.906.72-.875-.063-.906.718.906.72.875-.563 1.813-.063 2.78.344 1-.281.188.906.157-.094-.063 1 .875.813 1.188-.813 1.53-.719.25.094-.343.438-.531-.094-.907.656-.53.625.343.875.906-.531h.625l-.906.625.375.906-.375.281-.906-.187.375.375-.907.531-1.78.438-.907-.25-.094.968.907.47.875-.282.906.187 1.812-.28.907.28.875-.093.562-.72h.906l-.187.626.906.375.875-.469-.25.719.906.469.72-.907.437.72-.625.25.812.905 1.25.282h.906l2.344.718 2.781.344.907-.25.906-.812 1.156.28 1-.75-.562-.155.468-.813.907.094 1.687-.469 1.438-.094.093-.875.282.875 1.875-.718.906-.625-.094-.188.906-.344.907-.625 1.78-.718.813-.907.563.344.875.094 2.625-1.156.093-.188-.187-.906 1-.813h.906l.969-.718h.375l-.563-.875 1-.188-1-.531-.875-.094.97-.187.905.437.907-.344.093-1-.906-.187-1.344.094 1.063-.188 1-.437-.531-.282h-.907l.907-.625.25-.968-.875-.094-.907-.563-.906-.25-.812.188-.907.875 1.188-1.25-.625-.906-1.813.375.188-.72.906-.905-.812-.907-.907.094-.093-.906.187-.094.094-.875.969-.562-.97-.157-.905.875-.907.094-.28.906-.813-.718-.97-.375v-.97l-.905-.812-1-.187h0ZM747.875 212.892l.469.906.812.625-.375-.875-.906-.656ZM746.531 213.08l.469.906 1.781 1.344.094-.25-.531-.907-.907-.906-.906-.187ZM746.625 213.892l-.906.281.906.532v-.813ZM749.156 215.86l-.906.282.906.531v-.812ZM747.969 217.767l.375.906.718.532-.187-.907-.906-.53ZM776.312 223.33l-.718.906h.468l.25-.906ZM773.969 224.61l-.875.72.437.906-1 .531.469 1 .969-.469.093.907-.25.718.094.907.531-.907v-1.812l.344-.875-.812-1.625h0ZM775.25 224.705l-.563.875h.188l.375-.875ZM807.531 230.736l-.531.875.562-.875h-.03 0ZM765.719 233.61l.875.626v-.375l-.875-.25ZM765.344 234.955l-.907.187.47.906 1.968.625.344-.625-.875-.281-.907.094-.093-.907h0ZM764.969 236.58l-.875.187.875.625v-.812ZM764.437 238.205l-.812.343-.625-.187-.906.469-.875-.188-.907.438-.906.187-1.719-.437-.906-.47v1.282l-.719.344.657.906h-1.72l.532.906-.187.907.28.875-1.812-.157-.625.875.188 1 .281.532-.906.093.719 1 .906-.093-.906.53h1l.343.47-1-.094.188.625.906.187h-.812l-.907.344.907.469-.907-.188.094.907-.437.906-.47-.281-.874.625 1.781-.188 1 .188-1-.094-.719.906.907.281 1-.375 1.78-1.625-.25.907.782-.188-1.437.469-.344.531v.719h.906l-.906.094-.813.625v.906l-.28.906-.157 1.438.156.906-.437.875-.188 1.812h.188l.812-.906.438-1 .28-2.687.907-.907.875-.625-1.25 1.188.531.875.188-.531.531.906.906-1.906.188.906.906.531-1.094-.156-.187.094-.156.875.093.906.875.719-.25.906-1.28 1.812-.157.969.156.563-.437-.657H756v.719l1.437 1.719v-.281l-.468-.875 1-.094.906.531.875-.187-.156-.875.625.437h.906l.094.438h.437l1.813-1.438 2.5.188-1.063.437-.812.813-.625.906-.282.906.907.906.968.625.375 1.157.438-.97.093.157.907-.062-.188 1.5-.906.906.719.625-.344.187-.531.907.437 1-.344-.188v1.156l-1.375-.718-.875.375-.906-.094-1.906.531v-.437l-.906-.813-.969.906.969.97.75-.532-.813 1.187-.906.532-.906.906 1.156.062.907-.718.906.187.437.906-.156.188.531.906-.531.25-.188.813-.812.906-1.813.906-1.875.438-.625.906-.093.906 1.437.156h-.375v.563l1.188-.281.906-.532.875-.28.281.718 1.094-.094v.188l-1 .53h.906l.72-.25.812.438.812.72.531.187h.907l1.343-1.094.282.187.968-.28 1.438-1.25-1.438 1.718-.53.281-.72.875-.093.625-1.532.188-.906-.25-2.25.062-1.25 1.188h-.906l-.719 1.718-.812.875-.907.282-.062.437-.813.906-.906.563-.906.25-.281.906.906-.437c2.385 2.195.201-.79 5.687-1.72l.094-.374.063.469 2 .968 1.156-.968.187-1.813.344.469 1.094-.469 1.437-.25 1.813.719.875-.094 1.094-.625.375.063 1.968-.25.907-.625 1.875.062.53.75 1-.469 1.813-.187 2.25.469.875-.563 1.813-.437.719-.72.906-.343.906-.812-.281-1-1.875.28-1.813-.468.188-.437-.906.25.53-.344 1.532-.281-.344-.907.094-.25.969-.468.906.093.375-.875-.906-.093 1.687-.47.813-.905.656-1.782-.094-1-.375-.906-1.875-1.062-1.812-.188h-.906l-.907.375-.437.875-1.813-.719 1.625-1.625-.093-.875-.532-.906-2.593-1.812-.625.187-1.094-.094.437-.25.907.157.375-.094 1.593.563.75.093-1.28-1.531-.345-.906v-.907l-1.812-2.156-.906-.437-1.688-.282c-.985-1.913-2.021-3.906-2.187-6.125l-.875-.53-1.625-1.907-.907-.156-1.062-.563-.907-.156-.906.625-2.625-.281-.875-.282-.468-.437c3.658 1.827 2.53-.903 4.875-.531l.156-.907-.875-.718-1.438.625-.375-.094 1.625-.625 1-.094.969-.625.563-1.156 1.156-1.188.812-2.25.719-.906.281-.969-.562-.906h-2.782l-1.812-.187-.875.28-1.375-.374-2.063.812h-.906l-.875.72.157-1.157 1-.281v-.907h-.907l-.531-.25 1-.562h.438l3.968-2.781-.187-1.813-.907-.062h0ZM751.219 239.36l-.907.282-.906.531-.875.813-.375.906-.906-.812-.188.906.375.875.907.375.718-.094v-.906l.094.906.875-.281-.062-.969.875-.625.468-.906-.093-1h0ZM747.969 243.236l-.907.625.907.375.468-.906-.468-.094h0ZM746.437 244.767l-.875.719.875.437-.343-.25.343-.906Z"/><path fill="#8cce55" stroke="#0f380f" stroke-opacity=".145" stroke-linecap="round" stroke-linejoin="round" d="m750.219 245.017.28.906-.905-.25-.907.344.375.906.907.344.812.906.875.188.906-.188-.437.907.969-.72.375-.905h-1l-.97-.532v-.906l-.374-1h-.906ZM745.625 246.923l-.063.907.875.812-.093-.469.187-.906-.906-.344h0ZM751.562 251.517l-.343.906.906.157-.281.906-.907.625 1.532-.438.906-.093v-.907l-.906-.25-.907-.906h0ZM753.562 254.923l-.906.469-.719.875.344.906.094-.343.719-1 .468-.907h0ZM756.062 256.455l-.062.28.719.907.062-.281-.719-.906ZM750.937 256.548l-.906.531-.156.907.906-.25.063.875.718-.344.282-1-.907-.719ZM755.437 257.736l-.343.875.906.906.344-.906-.907-.875ZM746 260.423l-.813.094h-.093l.093.312.188.594-.188.281-.375.594h-.156l-.375-.875-.906-.187-1.875.187-.719.875.625 1.094-.906.437-.906.813h2.718l-.375.906-.437.188h-.375l-1.344.812.625.906-1.875-.562-.906.906-.281-.344-.875-.562-.907-.188-1 .375-.968-.28v.562l.25.156.28.906-.187.906.625.188.907.625h-.907l-.437.906.906.156h-1.437v.47l-.657.093.657.906 1.062.531.906-.53.532.968 1.812-.25.344.719-.344.156-1-.094-.531.906-.094.907-1.906 1.812 1.375-.469h1.875l.906-.906v.656l.907.094-1 .063-2.344.562-1.782 1.063.25.906h-2.343l-.438.906 1.813-.281.968.094-.968.53-1.094.282-.719.906.907.438h.906l1.593-.344-1.593.969v.469l.718-.375 1.875-.188-1.812.906.906.188.907-.281.906.468 4.218-1.53-.437-.907.625-.094.438.625.906-.25.718-.906.72.281.53-1 .375-.094 1-.187.438.094.906-1 .25 1.093.907-.625 1 .188.906-.094-.719-.906h.438l.906-1.531.281-1.094.531-.969v-.906l-.281-.906-.625-.813.438-.437-.063-.375.156-.188-.718-1.437v-.531l-.532-.907.532-.968 1.093.343.719-.906 1.531-1.062-.468-.625.375-.375.093.906.344-.094v-.906l-.438-.906h-.53l-.907.28-.188-.187 1.094-.718-1.437-1.532v-.343l-.282-.188-.437-.906h-1.813l-1 .375-.968-.094-.907.906h-.468v-.187l.468-.438.188-.906-1-.094h0ZM759.75 266.08l-.875.468-.719.906-.375.875 1.344-.437.719-.906-.094-.907h0Z"/><path fill="#8cce55" stroke="#0f380f" stroke-opacity=".145" stroke-linecap="round" stroke-linejoin="round" d="m733.594 268.61-.907.344.907.375v-.718ZM787.375 288.58l-.156.906.187-.907h-.031 0ZM787.219 289.486l.156 1.812h.031l-.187-1.812h0ZM774.062 288.86l-.968.626.875.531 1-.813-.907-.343ZM741.906 339.11l-.531.188-.344.125-1.156.188-.438.531-.375.344-.25.25.157.843.625 2.813.28.156-.28 2.625.28-1v.906l-.624 1-.375 2.157-.969 2.687-1.281 1.813v.531l-.344.906-.093.906.28.875h.876l.468-.437.532-.906.281 1-.906.718-.375-.187.093.906 1.813.188.281-.532-.375.875.094 1-.375 1.438.469 1.156-.188.656v.875l-.531 1.47v.874l1.781-.719.719.282h.906l.906.343.907-.062 1.718-.813v-.375l-.375-1.437-.093-.094 1.25-2.062v-.188l.187-.187 1-.156.25-.907-.719.094-.718-1.094-.344-.25.094-.187-.094-.094c.522-2.472.803-.68 1.719-2.969h-.094l-.281-.468-.344.093-.656-.875.093-.093-.343-.47.093-.53-.468-.188-.72-.906h2.25l.188-.063.188-.718v-.094h.156l.281-.906-.625-1 .344-.438.375-.094.188-1.718v-.094l.093-1.438-.468-.718-.094-.094v-.094l.469-.062.625-.906.906-.375.094-.188.968-.969.282-.468-1.625-.97-.094-.905-.906-.375-.813.093-.156-.093-1-.063-.094.531-.969.438-.53-.25v.062l-1.188-.187-.47.031-.718.25h-.125l-.281.094-.063-.094h-.062l-.094-.25h-.093l.03-.063v-.03l.438-.844-.5-.563h0ZM755 372.83l-1.438.53-.906.095-.437.906-1.532 4.219-2.343 4.125-.907.812-1.625.906-5.406 2.344-1.437 1.813-1.875 1.687-.094 1.906-.375.907-1.156 1.25-1.094 1.875.094 2.812-.25.875.812.906.344.813-.094.906-.718 1.719-.97 1.062-1.187 1.813-.812.906-.906.719-1.782.969-1.343 1.28-.72.876-2.718 1.281-3.781.625-.719.906-.719.532-.25.906-.75 1.437-.25 1-.28.782-.72.906-3.593 2.25-.282 1.094-1.343 2.687-.438 3.156-.562.907-.875.718-1.625 1.782-1.532 1.28-.625.876.907-.781-.188.875-1.312 2.187-.313.531v.813l-.625.969-.187.906-.438.906-.906.344-.719.906-.469.906-.812 4.688.187.906.282-1.187.28-.532.345.282 1.156 2.062.562-.469 1.344 2.625-.187 1.782-1.063 1.906v.719l.875.718.688 2.157.312 1 .188 1.875c.016.272.008.53 0 .78-.002.052.003.107 0 .157-.002.032.002.062 0 .094v.062c-.007.022-.03.041-.032.063-.018.225-.027.445-.062.656a9.003 9.003 0 0 1-.406 1.531c-.196.555-.42 1.094-.657 1.625-.013.03-.018.064-.03.094-.202.453-.416.89-.595 1.375a10.01 10.01 0 0 0-.562 2.375c-.018.174-.023.347-.031.531-.004.086-.03.162-.031.25-.009.383.02.787.062 1.219l-1.438 2.5-1.093 1.375-.438.437-1 .438c1.199 1.13 2.58 2.052 2.813 4.156l1.437-1 .094-.187.437.093-.53.094-1.095 1.625.532-.281.468-.719v1l-.375 1v.438l1 .718.907-.437 1.78-.094 1-.375.438.188h.813l-.344.187-.469-.187h-.437l-.906.28-1.875.095v.625h-1.813l-.531-.907-.719.438.094.906.25.625-.094.906.281.532.532-.157.656.907h-.812l-.72.875.25.375 1.532.625.375-.375 1.156-.344-.313.219-.593.406-.344 1 .938.5.03.031.907-.437 1.094-.094-.813.25v.906l.906-.187.625-.438 2.5-.343v.718l.375.157h-.375l-.875-.344h-1l-.28.906 1.437-.187-.875.625-.72.906 1.063-.281-.25.718.532 1 .906-.468v.906l1.531-.25-.562.969.906.562-.094.156.813 1.625.906.72h1.063v.718l1 .719.53-.438.094.094-.25.906.344-.469.188.907.53.343.907 1.813.094.719.906.375.531.437h-1l-.156.906h.875l-.094.344.907.094-.97.375-.187.25.344.281-.875-.5.25.875.906.156.344.906-.25.72 1.781 1 .282-.094.906.625.625-.094-.906.375.093.625.907.531 2.78 1.25-.093.188.625.375.656.906 1.063.437 1.25.907h.187l-.187.343.812.47 1.282.343 1.343 1.094.282.437 1.968 1.719.72.812 1.78 1.344h.032l6.093 2.875.907.094h.093l.813-.375.625-.438 6.219-2.343 1.78-.25 2.157-.188-.969-.375-.906.281.625-.375h1.25v.375h1l3.594-.437-.25-.188h.531l-.094-.187.907.187v.188l-.813-.094.906.344.157-.188.812.375.906.094.47-.906.25-.188.187.907 1.093.28-.812.094 3.594.813 1.062.781 1.906-.969.25-.28 3-.907.875-.094 2-1.25 1.594-.531.906-.531 1.907-.188.187-.375-.656-.906h-.813l-.53-.25 1.437.188.468.343.344.907.907.093.718-1 .719-.53.906-.376 1.157-.25-.094-.094.812-.187-.093-.438-.532-.906-.343-.625v-.906l-.188-.469h.438c.096-3.234-.031-6.449-.157-9.687l-.75-.907-.062-.093-.188-.625-.093-.282v-.812l-.094-1.156v-.47c-.97-.548-1.756-.978-2.594-1.78l.063-1.532.375-.906.187-.437.156.062v-.25l.907-.562v-.157l.906-.468.094-.438.28-.281.876.281 1.094-.281.187.094h.531l.344-.25 1.094-.907.375-1-.375-.53-.188-.282-.718-1 .625-.875-.532-1.094-.437-.094-1 .47-1.156-.095-1.188-1-.969-.812-.562-.094-.094-.25v-.906l.656-.188h.25l.532-.187-.72-.25-.874-.813-1.531-.718v-.188l-.657-.812-.53-.907-.095-.906-.53-.437-.095-1-.093-.969.281-.188v-.187l-.094-.344h1.344l.906.25.188-.094 1.156-.156 1.437-1.375 3.438-.156 2.875-.188.906.094.719-.469 1.343.188.532.094.281.093.719-.906.906-.531.156-.188.657-1.437-.094-.188.25-.906.719-.875c.322-4.338.137-8.715.187-13.063l-2.062.375-2.157.438-1-.906.72-1.063-.25-.906-.188-1.25-1-.563-1.157-.25-.906-.093-1.25-1.188-.906.188-1.188-.344-.625-.906-.718-.625-1-.656-.438-.875v-.375l-.094-.438-5.5-3.531c-8.4-6.332-17.306-12.325-26.156-18.063v-.093l-12.969-8.094-1-.656v-7.094c1.623-1.146 3.344-2.153 4.875-3.438l.907-.062.437-.375.906-.719 1.438.094.906.187.719-.906v-.437l.156.062.906.094.907-.157 2.062-.375 1.188-.437.875-1 .718-1.188.907-.625 1.28-.437h.438l1-.531.25-.188.907-.719 1.437-.28-.094-.907-.53-.438.28-.906-.468-.969v-.375l1.812-.187.906-.25.813-.281.437-.188.188-.906 1.687-.531.907-.188 2.156.188 2.437.093.813.094.094-.094-.375-.28h-.094l.187-.345.532-1.812-.72-.625-.968-.906.094-.875-.656-.813-.157-1 .25-.906-.25-.531-.375-.188.375-2.062-.28-.907.187-1.062-.532-.906-.093-.625-.094-.094-1.438-1.094v-.093l-.281-.344-.625-.188-.906.188-.906-.188-.875-.812-.094-.281-1.906.718-1.782-.437-.281.375-1-.188-1.781.438-1.438-.25-1-.563-1.625-1.625-.343-.968.062-.47-.25-.155ZM701.375 387.173a2.25 2.25 0 1 0 0 4.5 2.25 2.25 0 0 0 0-4.5ZM716.563 406.048a2.25 2.25 0 0 0-2.25 2.25c0 .426.107.817.312 1.157a2.253 2.253 0 0 0 .156 4.5 2.25 2.25 0 0 0 2.25-2.25c0-.432-.164-.814-.375-1.157a2.25 2.25 0 0 0-.094-4.5ZM697.313 407.955a2.25 2.25 0 1 0 .968 4.28c-.099.199-.15.4-.187.626a2.24 2.24 0 0 0-1-.25 2.251 2.251 0 0 0 0 4.5c1.117 0 2.012-.806 2.187-1.875a2.226 2.226 0 0 0 2.906-.781c.27.113.565.156.875.156a2.25 2.25 0 1 0 0-4.5c-.801 0-1.507.432-1.906 1.062a2.226 2.226 0 0 0-.843-.187c-.37 0-.724.092-1.032.25.16-.31.282-.66.282-1.031a2.25 2.25 0 0 0-2.25-2.25Z"/><path fill="#8cce55" stroke="#0f380f" stroke-opacity=".145" stroke-linecap="round" stroke-linejoin="round" d="M707.5 411.673a2.25 2.25 0 1 0 0 4.5 2.25 2.25 0 0 0 0-4.5ZM708.656 487.017l-.531.906-.375.094v.094h-.188l-.343.062-2.032-.031-.687-.031.688-.156.218-.032.282-.468.187.375 1.688.28.187-.093.188-.812.718-.188h0ZM797.188 516.08l-1.532.718h.657l.875-.718ZM810.969 543.486a2.25 2.25 0 1 0 0 4.5 2.25 2.25 0 0 0 0-4.5ZM713.375 581.705a2.25 2.25 0 1 0 0 4.5 2.25 2.25 0 0 0 0-4.5ZM752.438 619.61a2.25 2.25 0 1 0 0 4.501 2.25 2.25 0 0 0 0-4.5ZM722.75 724.923a2.25 2.25 0 1 0 0 4.5 2.25 2.25 0 0 0 0-4.5ZM735.563 742.11a2.25 2.25 0 1 0 0 4.5 2.25 2.25 0 0 0 0-4.5Z"/></svg>