<svg width="1671.094" height="856.393" xmlns="http://www.w3.org/2000/svg" xmlns:usvg="https://github.com/RazrFalcon/usvg" usvg:version="0.8.0"><path fill="#3e73c5" fill-opacity=".427" stroke="#000" stroke-opacity=".247" stroke-linecap="round" stroke-linejoin="round" d="M1670.594 574.059h-7.12l-4.241 10.716-2.903 5.804-1.786 7.814 1.563 13.618-1.116 2.679-5.991 2.327v53.126h-35.688l12.313-26.771v-26.355h13.43v-12.471l-17.018-22.212V558.62l48.557.035Z"/><path fill="#3e73c5" fill-opacity=".429" stroke="#000" stroke-opacity=".247" stroke-linecap="round" stroke-linejoin="round" d="M44.104 558.335v15.556H.5v-15.556Z"/><path fill="#8cce55" stroke="#0f380f" stroke-opacity=".145" stroke-linecap="round" stroke-linejoin="round" d="M1649.473 585.015a2.254 2.254 0 0 0-2.25 2.25 2.253 2.253 0 0 0 2.25 2.25 2.253 2.253 0 0 0 2.25-2.25 2.254 2.254 0 0 0-2.25-2.25ZM1651.594 565.216a2.254 2.254 0 0 0-2.25 2.25 2.253 2.253 0 0 0 2.25 2.25 2.253 2.253 0 0 0 2.25-2.25 2.254 2.254 0 0 0-2.25-2.25ZM1656.898 565.57a2.254 2.254 0 0 0-2.25 2.25 2.253 2.253 0 0 0 2.25 2.25 2.253 2.253 0 0 0 2.25-2.25 2.254 2.254 0 0 0-2.25-2.25Z"/><path fill="#8cce55" stroke="#0f380f" stroke-opacity=".145" stroke-linecap="round" stroke-linejoin="round" d="M1656.898 562.388a2.254 2.254 0 0 0-2.25 2.25 2.253 2.253 0 0 0 2.25 2.25 2.253 2.253 0 0 0 2.25-2.25 2.254 2.254 0 0 0-2.25-2.25ZM1639.927 566.984a2.254 2.254 0 0 0-2.25 2.25 2.253 2.253 0 0 0 2.25 2.25 2.253 2.253 0 0 0 2.25-2.25 2.254 2.254 0 0 0-2.25-2.25ZM1643.463 559.913a2.254 2.254 0 0 0-2.25 2.25 2.253 2.253 0 0 0 2.25 2.25 2.253 2.253 0 0 0 2.25-2.25 2.254 2.254 0 0 0-2.25-2.25Z"/><path fill="#8cce55" stroke="#0f380f" stroke-opacity=".145" stroke-linecap="round" stroke-linejoin="round" d="M1655.13 558.852a2.254 2.254 0 0 0-2.25 2.25 2.253 2.253 0 0 0 2.25 2.25 2.253 2.253 0 0 0 2.25-2.25 2.254 2.254 0 0 0-2.25-2.25Z"/><path fill="#8cce55" stroke="#0f380f" stroke-opacity=".145" stroke-linecap="round" stroke-linejoin="round" d="M1653.716 562.388a2.254 2.254 0 0 0-2.25 2.25 2.253 2.253 0 0 0 2.25 2.25 2.253 2.253 0 0 0 2.25-2.25 2.254 2.254 0 0 0-2.25-2.25Z"/><path fill="#8cce55" stroke="#0f380f" stroke-opacity=".145" stroke-linecap="round" stroke-linejoin="round" d="M1651.24 558.852a2.254 2.254 0 0 0-2.25 2.25 2.253 2.253 0 0 0 2.25 2.25 2.253 2.253 0 0 0 2.25-2.25 2.254 2.254 0 0 0-2.25-2.25ZM1643.463 618.956a2.254 2.254 0 0 0-2.25 2.25 2.253 2.253 0 0 0 2.25 2.25 2.253 2.253 0 0 0 2.25-2.25 2.254 2.254 0 0 0-2.25-2.25ZM1634.27 616.481a2.254 2.254 0 0 0-2.25 2.25 2.253 2.253 0 0 0 2.25 2.25 2.253 2.253 0 0 0 2.25-2.25 2.254 2.254 0 0 0-2.25-2.25ZM1641.695 629.916a2.254 2.254 0 0 0-2.25 2.25 2.253 2.253 0 0 0 2.25 2.25 2.253 2.253 0 0 0 2.25-2.25 2.254 2.254 0 0 0-2.25-2.25Z"/><path fill="#8cce55" stroke="#0f380f" stroke-opacity=".145" stroke-linecap="round" stroke-linejoin="round" d="M1642.049 633.098a2.254 2.254 0 0 0-2.25 2.25 2.253 2.253 0 0 0 2.25 2.25 2.253 2.253 0 0 0 2.25-2.25 2.254 2.254 0 0 0-2.25-2.25Z"/><path fill="#8cce55" stroke="#0f380f" stroke-opacity=".145" stroke-linecap="round" stroke-linejoin="round" d="M1638.513 632.391a2.254 2.254 0 0 0-2.25 2.25 2.253 2.253 0 0 0 2.25 2.25 2.253 2.253 0 0 0 2.25-2.25 2.254 2.254 0 0 0-2.25-2.25ZM1640.634 637.694a2.254 2.254 0 0 0-2.25 2.25 2.253 2.253 0 0 0 2.25 2.25 2.253 2.253 0 0 0 2.25-2.25 2.254 2.254 0 0 0-2.25-2.25Z"/><path fill="#8cce55" stroke="#0f380f" stroke-opacity=".145" stroke-linecap="round" stroke-linejoin="round" d="M1637.099 638.755a2.254 2.254 0 0 0-2.25 2.25 2.253 2.253 0 0 0 2.25 2.25 2.253 2.253 0 0 0 2.25-2.25 2.254 2.254 0 0 0-2.25-2.25Z"/><path fill="#8cce55" stroke="#0f380f" stroke-opacity=".145" stroke-linecap="round" stroke-linejoin="round" d="M1635.685 641.23a2.254 2.254 0 0 0-2.25 2.25 2.253 2.253 0 0 0 2.25 2.25 2.253 2.253 0 0 0 2.25-2.25 2.254 2.254 0 0 0-2.25-2.25ZM1638.16 645.826a2.254 2.254 0 0 0-2.25 2.25 2.253 2.253 0 0 0 2.25 2.25 2.253 2.253 0 0 0 2.25-2.25 2.254 2.254 0 0 0-2.25-2.25ZM1630.735 651.13a2.254 2.254 0 0 0-2.25 2.25 2.253 2.253 0 0 0 2.25 2.25 2.253 2.253 0 0 0 2.25-2.25 2.254 2.254 0 0 0-2.25-2.25ZM1619.421 657.847a2.254 2.254 0 0 0-2.25 2.25 2.253 2.253 0 0 0 2.25 2.25 2.253 2.253 0 0 0 2.25-2.25 2.254 2.254 0 0 0-2.25-2.25ZM24.219 156.392l-.375.063-.125.78.312.407-.156-.906ZM8.469 166.298l-1.344.438h.438ZM29.469 177.173c-.235.017-.443.046-.657.063.205-.018.428-.047.657-.063ZM28.813 177.236a1.664 1.664 0 0 1 0 0ZM9.906 226.298l-1.781.094H9ZM11.781 226.767l.094.875.188.656-.157-.625-.094-.906ZM5.313 228.923l2.343 1 1.907.094.624-.094-.656.063-.969-.094h-.906l-.906-.437-.813-.532h-.625ZM35.094 237.11l-.094.063-.438.875-.843.75.031.032.906-.813.438-.906ZM1661.594 251.86l.906.47v-.47ZM35.188 259.705l-.094.062.718.969.094-.031-.718-1ZM40.5 260.767v.063h.094l-.032.468.032.47.093-1ZM38.438 261.142l-.813.813-.094.906.907-.906ZM21.063 261.955l-.094.03.906.094.625 1 .531.907.594.343.406.125-.875-.53-1.187-1.876-.907-.093ZM17.375 263.017l-.031.063h.906l.125-.063ZM16 264.736l-.25.094v.03l.188-.062.062-.062ZM19.125 264.923l-.688.313-.843.844h.062l.907-.875ZM25.656 265.642v.094l.719.281.188-.031ZM12.156 267.08l.063.125.75.28-.375.5.031.095.438-.625-.907-.375ZM11.094 267.36l-.063.063.844.594-.781.5.875-.531ZM7.313 268.798l-.907.094-.062.031.843-.093.532.906.093-.094ZM8.75 268.892l-.125.094.094.843-.813.907.125-.063v-.031l.813-.875-.094-.875ZM9 270.142l-.094.031-.031.031-.5.875.094-.03.531-.907ZM5.781 270.955v.03h.782l-.032-.03ZM1670.594 271.298l-.438.094-1.343.281-.907.906.094.875-.906-.062-1 .719-.25.875-.656.906.906-.344 1-.625.906-.656.875-.875 1.281-.562.438-.157v-1.375ZM7.531 271.33l-.062.03-.438.844h.094l.406-.875ZM4.594 272.298l-.969.282.875-.22ZM6.406 272.298c-.427.033-.778.073-1.062.157ZM4.969 272.61a9.28 9.28 0 0 0-.938.47ZM3.656 273.267c-.102.044-.193.09-.312.125h.094ZM1653.688 556.798a2.253 2.253 0 0 0-2.25 2.25 2.253 2.253 0 0 0 2.25 2.25h.061c-.361.4-.593.918-.593 1.5 0 1.243 1 2.25 2.25 2.25a2.253 2.253 0 0 0 2.25-2.25 2.253 2.253 0 0 0-2.25-2.25h-.062c.36-.399.593-.92.593-1.5 0-1.242-1-2.25-2.25-2.25ZM1642.375 559.986a2.253 2.253 0 0 0-2.25 2.25 2.253 2.253 0 0 0 2.25 2.25c1.25 0 2.25-1.008 2.25-2.25 0-1.243-1-2.25-2.25-2.25Z"/><path fill="#8cce55" stroke="#0f380f" stroke-opacity=".145" stroke-linecap="round" stroke-linejoin="round" d="M1650.563 560.236a2.253 2.253 0 0 0-2.25 2.25 2.253 2.253 0 0 0 2.25 2.25c1.25 0 2.25-1.008 2.25-2.25 0-1.243-1-2.25-2.25-2.25ZM1652.531 565.455a2.245 2.245 0 0 0-2.25 2.25c0 1.242 1 2.25 2.25 2.25a2.253 2.253 0 0 0 2.25-2.25 2.253 2.253 0 0 0-2.25-2.25ZM1647.844 565.61a2.245 2.245 0 0 0-2.25 2.25c0 1.243 1 2.25 2.25 2.25a2.254 2.254 0 0 0 2.25-2.25 2.254 2.254 0 0 0-2.25-2.25ZM1636.75 566.548a2.253 2.253 0 0 0-2.25 2.25 2.253 2.253 0 0 0 2.25 2.25c1.25 0 2.25-1.007 2.25-2.25 0-1.242-1-2.25-2.25-2.25ZM1649.438 609.58l-.876.187h-.718l.625.906.906.438h.969v-1ZM1652.063 611.205l-1 .53 1 .376 1.812.25v-.344l-.906-.531ZM1651.334 586.007a2.245 2.245 0 0 0-2.25 2.25c0 1.243 1 2.25 2.25 2.25a2.253 2.253 0 0 0 2.25-2.25 2.254 2.254 0 0 0-2.25-2.25ZM1654.459 589.914a2.245 2.245 0 0 0-2.25 2.25c0 1.242 1 2.25 2.25 2.25a2.253 2.253 0 0 0 2.25-2.25 2.254 2.254 0 0 0-2.25-2.25Z"/></svg>