<svg width="1671.094" height="856.393" xmlns="http://www.w3.org/2000/svg" xmlns:usvg="https://github.com/RazrFalcon/usvg" usvg:version="0.8.0"><path fill="#3e73c5" fill-opacity=".429" stroke="#000" stroke-opacity=".247" stroke-linecap="round" stroke-linejoin="round" d="m745.022 340.695.531.25.969-.438.094-.531 1 .062.156.094.813-.094.906.375.094.907 1.625.968-.281.47-.969.968-.094.187-.906.375-.625.907-.469.062v.094l.094.094.469.718-.094 1.438v.094l-.188 1.718-.375.094-.344.438.625 1-.28.906h-.157v.093l-.188.72-.187.062h-2.25l.719.906.468.187-.094.532.344.468-.094.094.656.875.344-.094.281.47h.094c-.915 2.288-1.196.495-1.718 2.968l.094.094-.094.187.343.25.719 1.094.719-.094-.25.906-1 .157-.188.187v.188l-1.25 2.062.094.094.375 1.437.062.188.188.281 1.812-.562h.438l-.188.562 1.813 1.063 1.344.437-.907 1.094.907.531.28.375-.187.625 1 1.156 1.875 1 1.01.386.25.156-.062.469.343.968 1.625 1.625 1 .563 1.438.25 1.781-.438 1 .188.281-.375 1.782.437 1.906-.718.094.28.875.813.906.188.906-.188.616.178c.454.651 1.127 1.116 1.719 1.53l.094.095.094.625.53.906-.187 1.062.282.907-.375 2.062.375.188.25.53-.25.907.156 1 .656.813-.094.875.969.906.719.625-.532 1.812-.187.344h.094l.375.281-.094.094-.813-.094-2.437-.093-2.156-.188-.907.188-1.687.53-.188.907-.437.188-.813.28-.906.25-1.812.188v.375l.468.97-.28.905.53.438.094.906-1.437.281-.906.72-.25.187-1 .53h-.438l-1.281.438-.906.625-.72 1.188-.874 1-1.188.437-2.062.375-.906.157-.907-.094-.156-.063v.438l-.719.906-.906-.187-1.437-.094-.907.719-.437.375-.906.062a28.442 28.442 0 0 1-2.407 1.782c-.824.555-1.657 1.083-2.468 1.656v7.094l1 .656 12.968 8.094v.093c8.85 5.738 17.755 11.731 26.157 18.063l5.5 3.531.094.437v.375l.437.875 1 .657.719.625.625.906 1.187.344.907-.188 1.25 1.188.906.093 1.156.25 1 .563.188 1.25.25.906-.72 1.063 1 .906 2.157-.438 2.063-.375c-.037 3.24.052 6.506-.031 9.75v.032a68.616 68.616 0 0 1-.157 3.28l-.718.876-.25.906.094.188-.657 1.437-.156.188-.906.53-.719.907-.281-.094-.531-.093-1.344-.188-.719.469-.906-.094-2.875.188-3.438.156-1.437 1.375-1.156.156-.188.094-.906-.25h-1.344l.094.344v.187l-.281.188.094.968.094 1 .53.438.095.906.531.906.656.813v.187l1.532.72.875.812.718.25-.53.187h-.25l-.657.188v.906l.094.25.562.094.97.812 1.187 1 1.156.094 1-.469.437.094.532 1.094-.625.875.718 1 .188.28.375.532-.375 1-1.094.906-.344.25h-.53l-.188-.093-1.094.28-.875-.28-.281.28-.094.438-.907.47v.155l-.906.563v.25l-.156-.063-.188.438-.375.906-.062 1.531c.838.803 1.624 1.233 2.594 1.782v.468l.094 1.157v.812l.094.281.188.625.062.094.75.906c.094 2.43.186 4.83.187 7.25v.032c0 .796-.01 1.608-.03 2.406h-.438l.187.469v.906l.344.625.531.906.094.438-.812.187.094.094 1.344-.282 2.437-.28 3.969-.157.344-.375 1.53-.719-.874.719h-.656l.906.187 1-.093 2.437.281 1.594.875 1.531 1.531.72.094.655-.25-.812.437.094.907.875-.532-.094.438.906.187-.906.094.375.813 1.094-.657-.188.72-.531.187v2.062l1.156 1.719 1.25.625.281-.094.282.656.625-1v.907l.906-.188.531-.812.719-.188.094-.25-.094.875.344.375v-2.156l.375 1.781.53-.25-.343-1 .531.094.094.906.25-.906.72.531.468-.187h.719v9.375l2.187.437.031 16h-14v4.75h11.781v299.813h69.47v-144.97l-.282.064h-.906l-2.063 1.625-2.687.187-1-.28-.907.187.282.375-1.25-.094-2.813 1.968-.875-.343-.906-.094-.906-.72-.344-.093-.188-.907-1-.343-.718.062-.344-.531-.094-.813-.719-.187-.719.094-.375.468.282.907-.563-.657-.156-1.25.437-1.25-.812-1.625-.719-.906.094-.344-.438-.906-.812-.531.344-1 .906.344.719-.72.281-.874.094-.906-.469-2.157-.343-1-1.375-1.812-1.438-2.25-1.344-2.688-.906-2.593-.156-.907-1.094-2.812-1.156-1.781-.375-.907.812-.625.438-.375.375-.875.625-.718.906.156.094.281.813.813-.188.906.531 1.062 1 .375h1l.875.438 1.813.094.906-.188h.813l.875.375h.906l.375-.094.094-.906.719-.094.437-.906 1.094-.156.875-.375c.028-1.8.054-3.603.062-5.407.02-3.495.01-7.005 0-10.5v-7.937c0-2.643 0-5.27.03-7.906h4.595V632.6c.853.028 1.69-.061 2.53-.188.032-.005.064.005.095 0 1.285-.199 2.574-.502 3.875-.781.094-.02.187-.043.281-.063l.156-.03c.02-.005.042.003.062 0a26.448 26.448 0 0 1 1.594-.282c.216-.032.439-.07.656-.094.454-.05.911-.089 1.375-.093l.344.625.719.812.469.906 1.25-1.062.375-.469 1.781-.969.812.438.907-.719.375-.281.875-.094 1.281-.062-1.281-1.094-.094-.094-.875-.281-2.25-.063-.282-.093-3.5.719-1.28-.625-3.313-3.25-1.094-1.094-1.156-1.969v-.094c.042-2.437.01-4.883-.031-7.312v-.031c-.02-1.22-.05-2.44-.062-3.657-.014-1.22-.01-2.432 0-3.656.137-.043.294-.063.469-.094.174-.03.365-.07.562-.093.392-.046.84-.078 1.313-.094.67-.022 1.39-.01 2.125 0 .517.007 1.031.02 1.53.031.344.007.714-.005 1.032 0 .385.005.759.004 1.094 0 .334-.005.626-.009.875-.031l-.188-.906.188-.719.344-.906.094-.875-.157-.281v-2.438l.157-.906V598.6l-.094-.093-.063-1.188-.907.656-1-.093-.906-.094-.875.531-.469.094-.906-.188-.875.188-.656-.281-.344.375-.094.093-1.094.532v-.094l-.343-1.781.437-.282.281-.437v-.094l-.094-.281v-.906l-.437-1.25-.094-.72-1.344-1.53-.281-.907.094-1.437-.094-.281.094-.72.344-2.5-.063-.468-.75-1.781.094-.375.28-.969.095-1-.375-.719h-5.75l.094-.812.344-.906h-1.063l-.906.375h-1.063l-.375-1-.718-.907-.282-1.875.563-.562.969-.438.468-.625.344-.906-.187-1.156.187-.906-.187-.907-.438-1.343.281-.907-.375-1 .094-.062.281-.094.875.531.47-.437h.187l.156-.094.906-.562-.094-3.313.469-1.906.438-.906.53-.625.188-.969 1.25.094.907-.813 1.718.875.282-.156.625-.469 1.062-.25-.437-1.906 1.156.187.375-.28.625-.438 1.437.718.532-.187 1 .625 2.25-.625.906-.719 2.156.094-.187-1.156-.813-.657-.906-.25-2.781-2.156.094-.625.906-.469-.813-.906-2.062-.25 1.875-.906-.625-.906-1.344-1.875-.187-.72-.344-.562c-.086-.309-.167-.65-.25-1-.018-.074-.044-.144-.062-.218-.01-.032-.024-.063-.031-.094-.01-.022-.026-.04-.031-.063-.037-.166-.041-.337-.094-.5-.018-.054-.043-.102-.063-.156-.051-.146-.124-.3-.188-.437v-.031a3.01 3.01 0 0 0-.312-.5 1.934 1.934 0 0 0-.281-.313c-.038-.034-.084-.063-.125-.094-.323-.234-.744-.386-1.282-.375l.907-.968.094-.47.094-.437.343-.625-.094-.28.657.28.25.094 1-.719 1 .157.156-.157.906-.281.906.281-.281-1-.969-.625h-.187l-.906.094-.625-.906.437-1.907-.906.375-.438-.28v-1.876l1-.187.907-.625.875.187.094-.187.53-.719h-.78l-.563-.188h-1.781l-1.344-1.156-.281-.062-.188-.031v-.094l.188-.281.437-.625v-.532l.625-.718.563-.47 1.437-.093.907.656c.47-.297.91-.517 1.343-.687.424-.166.84-.307 1.25-.438.01-.003.022.003.031 0 .629-.2 1.242-.401 1.907-.78a7.16 7.16 0 0 0 .687-.438c.221.17.396.296.563.406.17.112.31.19.437.25.132.062.244.106.344.125.065.012.13.033.187.031.02 0 .043.002.062 0 .041-.005.085-.021.125-.031.103-.026.2-.078.313-.125.184-.074.368-.144.687-.188.165-.023.364-.039.594-.03l.906-1.438.907-.282.343.375 1 .344h1.25l.47.188.968.468.812.063.907.094.812-.532h.906l.907.375.156.25.187.094-.718-1-.282-.781.094-.906-.718-1-.97-.438-.468-.375-.187-.094-.97-.187-.374-.875-.813-1.094.469-.812-.906-.532-.719-1-1.25-.906-1.906-.875-.813-.906.469-.625-.281-.906-1-.375-.094-.157-.625-.906-1.875-.469h-.907l-.375-.156v-1.812l-.968-.094h-1.282l-.875-.25-.094-1-.094-.625.532-.375.375-.969.094-1.812-.47-1-1.343-2.157-1.719-1.718-.187-.438.375-1.812-.531-.438-.907-.437-.437-.907.062-.468.187-.875-.53-.25-.095-.032v-.906l-.281-1.25-.531-.906-.907.187-.968-.093-.282-.625.375-.906 1.063-.907.719-.906-.282-.344-.437-.906v-.906l.281-.438.875-.531.469-.562.281-.344h-.281l-.188-.906.188-1 .625-.157.281-.187.344-1.344.187-.187.625-.375.282-.875-.375-1.094.906-.906 1.25.187 1-.375h.906l.969.281v-18.187a592.301 592.301 0 0 0-9.188-4.969c-.627-.333-1.246-.669-1.875-1a783.7 783.7 0 0 0-7.343-3.812c-1.26-.648-2.519-1.296-3.782-1.938a949.276 949.276 0 0 0-5.5-2.781c-.01-.004-.023.004-.03 0-3.107-1.557-6.213-3.111-9.344-4.656-1.636.697-2.99 1.47-4.688 2.156v.093l-.25.094-.906.531-1 .47-.906.53-.97-.187-.468-.438a20.345 20.345 0 0 1-.969-.812l-.187-.156c-.071-.064-.221-.195-.281-.25l-.438-.407-.094-.062c-.174-.13-.383-.224-.656-.313l-.156-.093h-.094c-.047-.013-.167-.05-.22-.063-.37-.096-.812-.19-1.562-.375-.513-.12-.841-.192-1.25-.281-.06-.013-.129-.019-.187-.031-.3-.07-.605-.124-.906-.188-.712-.144-1.166-.24-1.532-.312l-.781-.219-.062-.031c-.035-.02-.067-.038-.094-.063l-.253-.406c-.083-.213-.216-.576-.437-1l-.47-.812c-.013-.022-.047-.04-.062-.063l-.094-.156-.281-.469-.813-1-.25-.093-.906-.282-.125-.03c-.031-.01-.062-.023-.094-.032-.32-.094-.65-.175-.969-.281l-.25-.094h-.094l-.906-.281-.906.375-.97-.469-.468-.969-.25-.093-.094-.094-.281-1v-.906l-.281-.875-.438-.72c-.054-.08-.101-.169-.156-.25-.017-.023-.046-.038-.062-.062-.686-1-1.432-1.963-2.125-2.937l.531-.906.906-.438 1-.906-.094-.438-.187-.906-.094-.187-.156-.907-.282-.906v-.156l.188-.469.344-.906h.094v-.063l.094-.375.28-.625-.187-.812-.375-1-.062-.094-.094-.875.156-.906.094-.375v-.094c.058-.327.088-.669.094-1v-.031c.013-1.024-.2-2.041-.53-3l-.376-1-.531-.906-.719-.875-.094-.188v-.719l.719-.375.125-.062c.39-.176.596-.238.781-.281.314-.074.473-.051.625-.188.098-.088.315-.41.531-.719l.657-.906.625-.906v-.625l-.188-.906-.281-.875-.156-.907.625-.906.187-.187.875-.157.188-.187.437-.906.188-.094.562-.187.344-.438c.151-.162.298-.323.469-.437l.72-.345c.02-.009.04-.022.061-.03l.188-.095.656-.25c.077-.03.172-.06.25-.093l.25-.125a4.96 4.96 0 0 0 .469-.25c.023-.36-.325-2.36-.188-2.782v-.187l.094-.438.094-.187V387.226c3.489 1.161 3.991 3.045 8.188 1.344l1.25.531 1.718.188 1.438.53.906.72 1.719.437c1.298-.036 1.883.302 2.187.844.102.18.163.375.22.594.222.874.215 2.013 1 2.968l.812.907 1.78.812 1.72.188.906-.094 2.969.719 3.875 1.531 2.062 1.625 2.156 1.062 1-.062 1.782-.813c3.096-3.085 2.496-3.173 1.375-6.125l-.094-1.28.343-.97.813-1 1.812-1.53.969-.345.906-.562 1.813-.156.812-.563.907-.25 1.25.094 1.062.156 1.188.469v-19.438l-.813-1.343-.906-.907-.094-.562-.812.906-.875.281-.72-1.437.438-1.719-.625-.906-.468-.156-.72-1-.343-.907.719-1 .906-.093.875-.72.906-.25 1 .626 1.063.437.469.094v-1.187l-.532-.344-.906.375-.906-.375-2.344.562-.625-.906v.188l-.906.718-.719-1.812-1.156-.813.094-.906.875.094.281.187.438-.719-.875-.187-.47-.281-.343.812-1.281-1.687-.719-.094-.812-1.812-.625-.344.468.093.532.157.343-.875h.563l-.281-.469.187-.531.281-.469h.625l.157-.063.656-1.375.062-.53.906-.438.282-.469v-.531l-.282-.532v-.375h.719l1.375-.25h.156l.907.063.625-.156.562-.813v-.093l.875-.282.469-.156.625.156.719.094v-.094h.281l.875-.156.094-.375v-.437l.531-.094h.281l.094-.281v-.72l.188-1-.188-.53-.28-.438-.095-.625-1.437-.812-.25-.188-.094-.125-.188-.25-.437-.531.625-.406.187-.125-.187-.407-.188-.406v-1.344l-.094-.093.281-.157.094-.03.532-.188.187.093.813-.718.718-.907v-.156l-.281-.094-.812-.906-.344-.187-.906-.907v-.156l-.375-.656a1.904 1.904 0 0 1-.125-.875c0-.031-.01-.064 0-.094 0-.023.026-.04.03-.062.019-.088.03-.171.063-.25.01-.02.023-.04.03-.063.014-.028.017-.066.032-.093a.69.69 0 0 1 .062-.094c.01-.012.023-.02.03-.031.065-.097.14-.19.22-.282.014-.017.014-.045.03-.062.056-.063.128-.125.188-.188.097-.1.183-.204.281-.312.157-.17.308-.344.438-.563l-.375-.437h-.094l-.344-.438-.094-.28-.188-.188.188-.094.719-.344.187.094.344-.188-.906-.437-.344-.125-.531-.156-.47.437-.905.469-.25-.281v-.188l-1.625-.344-.282-.28v-.095l-.531-.25h-.437l-.188-.28.313-.157.593-.281-.718-.375-.188-.188.281-.156.157-.906-.813-.282h-.156l-.094-.093-.906-.344-.813-.719-.094-.187-.281-.188.187-.187-.187-.25.094-.563-.438-.531-.187-.188-.25-.53-1.094-.438-.281-.563-.25-.344.094-.187.968-.188.907.188h.094l.094-.094.344-.531h1.375l.718-.906.157-.25.187-.906.719-.375v-.438l.094-.094.437-.53.282-.907.625-.625v-.094l.187-.469.563-1.125.25-.468.094-.188.437-.281.281-.188.25-.53.907-.345.28-.093 1-.375.876-.72-.25-.812-.094-.093h-.906l-.188-.344-.344-.438h-.281l-.906-.718v-.094l-.344-.187h-.187v-.188l.094-.719.437-.531.625-.906.188-.719.28-.5.282-.5 1.5.469-.062-.375-.656-.906.094-.625-.25-.907v-.625l.531-.625.094-.093.344-.438.187-.094.094-.093.719-.907c.387-.405.753-.742 1.125-1.062.186-.16.36-.32.562-.469.204-.148.423-.295.657-.437l.343-.532.907-.187.906-.719.094-.375v-.344l-.719-.906.907-.437-1-.813-.532-1.187h-.094l-.468-.532-.062-.718-.375-.907-.188-.093-.094-.625.187-.719h.094l.282-1.719-.094-.156v-.094l-.282-.187-.343-.188-1.532-.906.25-.437.563-.625.062-.094.094-.188.375-.25 1.781-.718.375-.75v-1.063l-.281-.906.187-.188c-.865-1.882-1.898-3.805-1.875-5.937v-.156l-.375-.563-.906-.531-.437-.375-.72-.438-.905.188-1.344.094-1.531.093h-.813c-2.34.025-3.73.013-6.125-.187l-.25-.094-1.281-.187h-.25l-1.188-.094c-.3-.041-.769-.043-1.062-.156l.969-.813.718-.187 1-.532-1.718-.28-.72.905-.905.813-.157-.094 1.157-1.094.468-.906-.187-.875.344-.187.906-.094.906.094.719-.375 1-.875.812-.907.532-.906.25-1.875-.25-.906v-1.531l-.375-.907.094-1.968.28-1.813.907-.812.719-.907v-.906l.344-.875.625-.906.906-.813.906-.093 2.25-1v-3.313h-.094l-.906.344-.25.906-.906 1 .25-1.812-.875-.532.437-.906-.281-.906.906.187.906-.53.813-.25v-1.22l-.188-.25-1.875-.718 1.875-.25.188-.157v-7l-.094.032h-.281l-.094-.375.469-.532V226.102l-1.094-.156-.969-.281-.187-.25-.907.093-.437-.906-.625.344v-.156l-.906-.563.343-1.781-.094-.906.469-.907.188-1-.188-1.78.813.25-1-1.97-.813-1-.094-.343.375-.907.094-.906-.469-.969-.343.344-.282-.906.375-.875-.187-.906.25-1 .906-.625.469-1v-.907l.156-.625 1 .625.906-.343-.187.343 1.906-.53.25-.25-.25-1.095.438-.906.094-.094.718-.812 1.063.562 1.094-1.812.28.094.876-.375.094-.875 1 .093.718-1.093.907-.625.343-.907 1-.718c1.383-1.864 2.7-4.283 5.313-2.688l-.719-.906h.906l.094-.375h.157l-1.063-.813.25-.875-.062-.656.25-.875-1.625-1.437-.875-.188-.906-.469-.187-.625-.094.094-1.625-.094-.094-.187-.062-.063v-.187l-1.188-2.438-1-.812v-1l-.062-.531.969-.813.094-.969.53-.906-2.062-2.875v-.375l1.094-1.062-.906-.72-.906-.28.53-.907-.155-.906v-.094l-.094-.53.906-1.157-.656-.563-.813-.875-.875-.468-.375-.907-1.875-.875-.906-.28-.906-.376-.094.094-.97-.156-.655-.657-1.97-.875-.905-.906-1.875-1.094v-.531h-.094l-.47-.187-.624-.188.625-.531 1.812.093-.343-1.156 1.062-.562 1.531.281 1.25 1.437.188.282.375.343.719.563.875.969.187.906.281-.031 5.542-.21.612-.767 4.927 2.175 2.303-2.607.972-.051 1.446-6.07 2.932-2.426 3.405-.34 1.901-.838 2.594 1.644 3.755 1.944.724 1.008-1.666 2.134.158 1.676.625.424h.375l1-.906.343-1.531 1-.094.907-.344.968-.281 1.094-1.688v-.003l-.094-.371h.094l.906.625.969.28h.906l.438-.905-.25-.907-.094-.343.26-.47 3.039-3.002-1.805-2.97-1.492-.697-2.188-1.35-2.176-.54-3.223-1.12-1.992-.744-1.962-1.091-1.882-.147-2.539-.323-3.64 1.514-1.5-1.052-1.555-.593-2.789-.172-2.561.15-5.995 1.182-4.792 2.125v-40.96h53.913V48.947h-53.913V.508H814.74h0v207.156l-.281.187h-.094l-.875-.25-1 .438 1 .718-.906.282.906.53 1.25-.312v.094l-.281.125.28.094v1.25l-.812-.344-.906-.094-.906.188-.969-.282-1.906.282 1.094.343-1.094.532 1.187.187.97-.187.905.375.72.906h.905l-1 .094-.343.875v-.438l-.375-1-.97-.719-.905.375-.094.907.187.625-.625-1-1-.094-.906.531.531 1 .907.375-1.782.063-.468-.875-1.782.343.25.907-.718-.907-.907.282 1 .531-.906.625c2.8.177 4.558.851 7.375.562l-.969.344-.906-.187-1.906.718c-1.725-1.712-3.063-1.5-4.313.563l.907.25.906-.094-1.813.375.907-.093 1 .187-1-.094 1 .282-.907.25 1.782.375h.906l-.906.093-.875-.187-1.907.531.907.281 1.875-.093-1.782.187-1 .438.907.437 1 1 1.875-.812h1.906l.875.53 1.28-1.5-.468.782.188.094h1.906l-.562.469h1l.906-.188-.47-.906.907-.813-.531.907.344.53.28.095.095-.032v.563l-.094.094-.906-.25-1.063.437.344.906h-.906v-.906l-.875-.531-1 .437-3.344-.187-2.781 1-.438 1 .875.093 1.188-.28-.906.374.468.875-.906-.437-1.281-.375 1 .718.375.907 1.437-.907h.97l-.25.907-.188.281-.438-.719-.906.813.812.437-.094.094-.906-.531-.812.906.187.875.906.656.875-1-.063.906.875-.187-.156 1.437h.531l.532-1.53.906-.345.719-.906.906-.375 1.969-.187-.907.375-.875 1.812.157-.906-.094-.906-.875.437-.907.813-.094 1-1 .718.094.094-.906.438-.344.625.813.375.906.093.969-.53-.969.718h-.719l-.562.875-.906-.438-.157.813-.906.344.625-.97-.906.188-.188.875.094.813.72.625.655-.969.157.969.906-.344-.438-.906 1.875-.094-.906.188.906.187-.343.25.875.375-.438.438 1-.344-1 .531-.906.813.187.906.282.531.968-.719 1-.187-1 .281-.53 1-.532-.281-.906-.188-.907-.625-.25.907-.562.968.281.563.813.906.906.438.969.718.906.282.281.25 1.969.187.531-.281-.875.562-.469.875 1.813-.156.969.438 1.188.187v28.25l-.531-.093-.906.28-.72.907-.093.875 1 .188.625.28-.719.345-1.281-.532-.875-.906-1.813.375-1.718.094-1.688.531-1 .906-.094.344-.906.625-1.25.656-1 .063-.25.812-.281 1.813-.625 1.25-1.625 1.812h-.438l.344.907 1.437.718h1.094l-1.094.157-.906.375-.437-.094.437.375-.812.156.906.281.187.438-.906-.344-.906-.625-1.531.094.375.875.906.375.906-.375 1.063.469.28.625-.28-.532-1.344-.093-.906.187-.907-.375-2.062.531-2.969 1.532-3.156.625-.875.906-.188.906.188 1.813-.281.156.437.906-.531-.187c-2.234 3.313-3.666.712-6.469 3.687l.625.906 1.063-.156-.157.156-.812.188-2 .812-1.781-.375h-.907l-.906-.25-1 .344-.781-1.25-.094-.906-1.375.281-1.5-.281.625 1.812.719.907.53 1.875-.093.906.812.812-2.781.438.188.187-.094.188-.188-.375-1.437-.719-1.188.625-.875.094-1.531-1.781-.906.25-.907-.094-.718 1-1.625-.281-1.782.375-.906.343-.906.72.094.905 1.78-.343.095.625-.969-.375.094.906.875.531-1.781.375.531.094.906.437.907.907.875-.282 2.968.657.907.625.468.906.625-.906.907.718h1.875l-.438.344.344 1 .906-.094h1.156l.907.532-.97-.438h-.905l-.188.906.906.532-.625 1.156.97.906.624.906.563.438.718.187.907.532h.875l-.094.468.28 1.782-.187.906-.625.469h.282l.906.53.875.72.469.906.187.969.531.906.094.625-.187-.625-.719-.813-.188-.968-.812-.907-.906-.093c-.652 4.233-.08 7.496-2.063 11.593l-.906.47-.968.28-1.094.063-.906-.063-1.531-.812-.875.25-.375.469c-1.481-.001-2.436-1.83-4.688-.375l-.062-.188c-2.553.93-5.023-.784-7.562-.625l-.906-.437-.907.343-3.062.094-.531-.188-.907.47-.281-.376-.969-.25-.906-.625h-.125l-1.74-.177-.907.625-.468.906.187-.094v.438l-1.344.28-.906.345-.906-.063-1.875 1.438.625.875-.094.28.375.376.875-.188-.156.188-.094.875.906-.344-.468.719-.188.906 1-.094-1 .97.906-.25.375-.376-.28.469-1.063.906.593.844.469-.5 1.156-.188.344-.125.531-.187h0l.5.563-.437.843v.031l-.031.063h.093l.094.25h.062l.063.094.281-.094h.125l.719-.25.469-.031 1.187.187Z"/><path fill="#3e73c5" fill-opacity=".429" stroke="#000" stroke-opacity=".247" stroke-linecap="round" stroke-linejoin="round" d="M877.803 257.726c.505 1.968-.944 3.504-2.407 4.563l.157.468 1.812.25.906-.718-.094-.875.438-.907-.156-.375-.094-.906-.563-1.5ZM798.99 283.445l-1-.531h-.344l.532.625.812-.094ZM894.834 192.289l.969.187v.156l-1.438.563-.531-.563ZM886.178 201.476l.094.531-1-.281.906-.25ZM877.896 205.507l.907.469-.282.438ZM808.084 211.914l-.625.906.969-.469ZM806.178 212.632l.906.625v-.531l-.906-.094ZM802.865 215.507l.094.907.875-.375v-.344ZM803.303 221.007l-.907.25 1-.187-.094-.063ZM803.303 224.851l-.094.094h1l-.907-.094ZM879.084 224.851l.625.281h-.719l.094-.281ZM803.396 225.132l-.187.094 1 .812-.813-.906ZM803.115 226.132l-.062.907.875.437-.094-1-.719-.344ZM871.865 226.226l1.719.25.281 1h-.906l-.281-.531.187.968-.187.282h-.532l-.906-1 .906-.094-.28-.875ZM883.928 226.226h.187l-.281.156.094-.156ZM882.678 226.757l1 .094-.563.25.188.469-.282-.282.094-.187-.437-.344ZM872.678 228.382h1.093v.531h-.53ZM806.459 228.538l-.906.375h.906ZM804.834 229.195l-.094.968.562.563.344-1-.812-.531ZM804.49 230.163l-.469.907h.907ZM804.303 233.038l-.282 1.532.625-.875-.094-.469-.25-.188ZM798.709 282.382l-.344.063.906.718h.813ZM773.084 316.038l.875.25v-.187ZM773.615 317.382l.719.906.187-.562ZM871.959 351.85v.876l.375.906.343.281v.282l-1.625-1.813ZM875.927 357.226l.094 1.094-.468-.907.375-.187ZM875.115 359.663l1.25 1.625-1.781-.437-.094-.906.625-.282ZM876.552 362.632v1l-.906-.812Z"/><path fill="#8cce55" stroke="#0f380f" stroke-opacity=".145" stroke-linecap="round" stroke-linejoin="round" d="m889.75 163.61.612-.766 4.927 2.175 2.303-2.607.972-.05 1.446-6.071 2.932-2.426 3.405-.339 1.901-.839 2.594 1.644 3.755 1.944.724 1.008-1.666 2.134.158 1.676.625.424h.375l1-.906.343-1.531 1-.094.907-.344.968-.281 1.094-1.688v-.093l-.094-.282h.094l.906.625.969.282h.906l.438-.907-.25-.906-.094-.344-.906-.187-.813 1-.25-.906-.906-.625v.968l-.375.72-.719-.157v-.469l-1.062.094-1 .281 1-.719-.563-.906-.875.188.344-.907-.906-.187-.969-.438-1.906-.28 1-.345 3.875.625h1.969l1-.53.906-.813 1.875-.375.281-.907-2.812-1.437-.875.281h-.907l.907-.375-.094-.875-1.188-.281-.968.719v-1l-1.094.28-.906.438.28-.968-1-.657-.968-.343-.906.28-.906.876-.375.906-.157 1-1 1-.28.969.093-.969.719-1-1.782.344.875-.875.657-1-2.094.625-.969.094.969-.188.906-.437-1.062-.563.968-.531.469.281 1.688-.906-.438-.906-1 .28.281-.905h-1l-.906.187-.875-.281-.906.625-1 .094.187.906 1 .719-.906.625-.906.28.375.907-.907.094.625.968-1-.093-1.875 1 .344-.906.094-.907-.531-.875.906-.468-.188-1.782-.906.532-1.875 1.53-.375.907-.906.625-.875.906-.188.875-.906.907-.906.468h-.969l.531-.906.188-1 .875-.812-.875-.094.344-.531 2.781-2.063.094-.906-.907.094-.875-.282-.718.907-.47-.907h-.905l-.875-.531-1 .094.718.906-1.093.344-.875.093.968.532.907.812-1.782-.156-.75.875.907.719-1.532-.25-.875.25-.906.656-.187.969-1 .093-.25.907-.375 1 .906.156.344.281-1.438.344-.25-.344-.562-.281-.25-.875-.907.344-1.343.156 1.25-.25 1-.812-2.25-.25h0l-.625-.094.531.906-.906-.469-.719-.906-.906-.156-.625.969-.813-.97-1.875.782.969.469 1 .719.906.093 1-.281-.906.469 1 .156.063.281-.72.344v.906l.47.907-.563-.907-.781-.437-1.282-1-.906.187v1.25l-.968.563-.625-.719.875-.812-.875.343-.72 1-.905.719.187.906.875.719-.969-.281-.906.437-.813.907-1 .812v-.187l.907-.813.906-1.875-.188-.906.282-.969-.375-.906-.438.906-.906.531-.188-.375-.625 1 .282.907.343.156-.968-.156-.094.968-.906.72.906-1.782-.094-1-.906-.438-1 .188-.875.25-.656.812v.907l1-.282-1 .625.562 1 .907-.093.625 1-.907-.72-1-.187-.53-.906-1.095-.437-.875.187.532.875 1.875 1-.97-.344-1 .157-.437.718.063-.437-.344-1-1-.625-.969 1.906.532.813-1.813.156-.906.906-.156.906h.968l-.343.907-.907-.188-.53.281 1.53.782-1.906-.438-.969.094-1.906.625-.188.719.375.812h1.97l1-.187 1.968.28-1.25.282-.813.438v.28l.438.876-.625-.875v-.281l-.906-.188-.969.281-.906-.625-.907.157.375.812.97.906-.97-.718-1.093-.344.906.531-.281.438 1 .812h-.907l.375.906-.906-.343.625.875-.906-.875-.094.875-.343-.72-.532-1.874-.906.25-.531.812-.656-.343-.875.187-.188.875.906-.531.875.281.094.094h.094l.718.531h-.906l-2.781.625h-.906v1.094l-.875.625.875.093 2.093-1.437.875.437.907.72-.907-.438-.875.093.875.438-.875-.188-.906.625.906.72 1.782-.25-.97.437.532 1h-.719l-.812-.907-1-.28-.906.374.906-.531-.906-.188-.97.532.97.468v.157h-.875l-2.094 1.281 1.906-.281.094.437 1.875-.625.906.625 1.625.094h-1.094l-.093 1-.969-.719-.906-.187-.375.281v-.469l-2.063.563-.906.719 1 .156h-1l-.813.469h-.875l-.906.437-1 .281 1.907.907-.907-.094-.906.344h.906l-1 .187.188.281 1-.093-.907.187h-1l.094.25-.906-.094.187.907 1-.094.875.375-.968-.188-.907.72-.906-.72.375.907v.906h1.875l-1 .062-.875.813.969-.438.906-.187.906.094 1.875-.532-1.53.907-.876.25.438.093-.813.47-.625-.907-1.625.625-.906.094-.875.812 1.531-.281-.093.906.25.188-.72-.282-.905.282-.344 1.78-.907.095-.093 1 .906-.094.281 1.156-.906-.437-.812-.907.28 1-.905.813.093.906.969-.562-.094 1 .813.187 1.812-1.187-.906.812-1.875.906-.906.094 1.062-.375-1.875-.25-.906.875 1-.344-1 .438-.625.093-.906.563 1.094.156-1.907.563 1 .343.907-.625 1.78-.812.72.187-1.063.094-.906.344-.531.531.718.281-1.906.532.375.906h1.063l-.875.906h.625l-.625.094-1.282.719-.437-1h-1.875l.344.906-.907-.094-.968.625-.188 1-1-.094-.344 1-.656.72 1-.282-1 .469v.156l1-.25-2.781 1.25h1l-1 .812 1.781-.625v.157l-.625.75.625.968 2.25-.718 1-.625 1-.375.969-.875-.969-.188-.906.188 2.969-1.438.906.094-.281.25-.813.094-.812 1 1 .625-.907.343-.968.188-.907.906.97-.094-.345 1h-3.156v.907l-1-.282-.625.282.625-.657v-.25l-1.5-1.343-1.812 1.25.906-.094-.906.625h.906l-.906.281-1 .531.625-1-1.875-.156-.625.813.093.875.875-.094-1.531.281-1.5.375.969.625h.906l-.438.907.97.437-.97-.375-.906-.719-.812-.875-.625.157 1.156 1.906.906.344.282.468-1.532-.906-.718-.906-.907.187-1.531-.187h.625v-.625l-.625.437-.281.188h-.094l-.875-.25-1 .437 1 .719-.906.281.906.532 1.25-.313.625-.156-.625.25-.281.125.281.094.719.187 1.781-.562-2.219.812.875.625-.093.094-.875.187-.188-.093-.812-.344-.907-.094-.906.188-.969-.282-1.906.282 1.094.343-1.094.532 1.188.187.968-.187.907.375.718.906h.907l-1 .094-.344.875v-.438l-.375-1-.969-.719-.906.375-.094.907.188.625-.625-1-1-.094-.907.531.532 1 .906.375-1.781.063-.47-.875-1.78.343.25.907-.72-.907-.905.282 1 .53-.907.626c2.8.177 4.558.851 7.375.562l-.968.344-.907-.187-1.906.718a6.086 6.086 0 0 0-.656-.562c-1.429-1.079-2.563-.681-3.656 1.125l.906.25.906-.094-1.812.375.906-.094 1 .188-1-.094 1 .281-.906.25 1.78.375H807l-.906.094-.875-.187-1.906.53.906.282 1.875-.094-1.781.188-1 .437.906.438 1 1 1.875-.813H809l.875.532 1.281-1.5-.468.781.187.094h1.906l-.562.468h1l.906-.187-.469-.906.907-.813-.532.906.344.532.281.093.094-.03.813-.157-.813.719-.094.093-.906-.25-1.062.438.343.906h-.906v-.906l-.875-.531-1 .437-3.344-.187-2.78 1-.438 1 .875.093 1.187-.28-.906.374.469.875-.907-.437-1.28-.375 1 .718.374.907 1.438-.907h.968l-.25.907-.187.28-.438-.718-.906.813.813.437-.094.094-.906-.531-.813.906.188.875.906.656.875-1-.063.906.875-.187-.156 1.437h.531l.532-1.531.906-.344.719-.906.906-.375 1.969-.187-.907.375-.843 1.718-.063.094.188-.906-.094-.906-.875.437-.906.813-.094 1-1 .718.094.094-.907.438-.343.625.812.375.906.093.97-.531-.97.719h-.718l-.563.875-.906-.438-.156.813-.907.343.625-.968-.906.187-.187.875.093.813.719.625.656-.969.157.969.906-.344-.438-.906 1.875-.094-.906.188.906.187-.343.25.875.375-.438.438 1-.344-1 .531-.906.813.187.906.282.531.968-.719 1-.187-1 .281-.531 1-.531-.281-.907-.188-.906-.625-.25.907-.562.968.281.563.813.906.906.438.968.718.907.282.281.25 1.969.187.531-.281-.875.562-.469.875 1.813-.156.968.438 1.188.187h.625l1.813-.625.156-.375.718-.094 1.813-.906.625-.781 3.063-2.344.437-1 .906-.344v-.562l-.25-.531.25.343.719.282.625.468.281-.562 1-.531.719-.907.438-1-.907-.875.657-.562.875.281-.438-.906-.188-.719.72-.719.624.532-.812.906.468 1.437-.093.907.281.906.813.094.875.343.468.469-.375.906.532.875-.063 1 .344 1.813.625.875.625-.875-.25.875.969-.156.28.53-.53-.093-.907.438.907.562.625-.812.187.25-.094 1-.625 1.343.72.188v.906l.343.625-.094.906h.906l.532 1.875.468.907.625.906h.188l.344.344.562.906.781.281.375.719-.187.625-.906-.188.375 1.72-.907-.376v1l.47.531.968 1.907.375.906-.094.875.906.75.97.156 1.905-.531 2.063.094.719-1-.72-.907v-.875l.532-.656.906-.719.907.282-.188-1 1.344-.094 1.906.187.906-.437.344.094.906.812.719-1 .625-1.625 1.094-1.437.343-1.813-.093-.156.562-.813-.281-.28-.094-.72.72-.906.093-2.594-.719-.812 1.156.187-.343-.718.25-2.72-1.438-.624 1 .281h1l-.281-.906-1-.375-.875.281.968-.375 1.813.188.531-.97.907.25.906-.343.718-.906-.28-.375.374-.875.719 1.875.625-1 1.25-1.063.906-.187-.437-.906.875.468.375-.28-.282-.907-.875.094-.906.375-.093-.907.906.438.812-.969.875-.562.375-.532.813-.281.187-.875-.562-1.094-.906-.906h-.532l-.343-.531-.094-.906-1-.282-1.813-1.437-.968.281-.907-.719-1.25-.281.25-.875-.437-1 .187-.906v-1.344l-.375-.812.282-1 .343-.438-.25-.906.907-.188v-.968l.968-2.625-.906-.438.188-1.625.468.531.875-.343.907-.563.375-.875-.563-1.375-.531-.437v-1l.719 1.375.718.718 1.813-.906-.188-.906.907-.438.437-.906 1 .094-.281-.469.906.281 1-.625.094-.906h.437l.907-.438.906-.093 1.781-.813.813-.906h.906l1-.437.969-1.907.718-.906 1.813-1.437.25-.97-.875-.468-1-.812.625.375-.188-1-.968-.532.906-.093.781-1 .813-.438v-1l.656-.906-1-.063.344-.75.906.188 1.094-.094-.625-.875.875-.469.656.188.875-.531-.344-1.375 1.781.468.094-1 .906.813.907.437h.906l-.625-.875.781.532 1.906-.375h1.875l-.062-.063h-.031v-.187l-1.157-2.438-1-.812v-1l-.062-.532.969-.812.093-.969.532-.906-2.063-2.875v-.375l1.094-1.063-.907-.718-.906-.282.532-.906-.157-.906v-.094l-.093-.531.906-1.156-.656-.563-.813-.875-.875-.469-.375-.906-1.875-.875-.906-.281-.907-.375-.093.094-.969-.157-.656-.656-1.969-.875-.906-.906-1.875-1.094v-.531h-.094l-.469-.188-.625-.187.625-.531 1.813.093-.344-1.156 1.063-.563 1.53.282 1.25 1.437.188.281.375.344.72.563.874.968.188.907Z"/><path fill="#8cce55" stroke="#0f380f" stroke-opacity=".145" stroke-linecap="round" stroke-linejoin="round" d="m898.969 143.61-.907.72-.875.437h.97l.905.75 1.344-.375.907-.187h-.907l.469-.907-.906-.062ZM890.969 144.767l-.094.375 1 .438-.906-.813ZM884.219 149.205l.718-.375.907.187 2.781-2 .344-.344-.875-.375-.625.907-1 .562-.907-.75.282.906-.907-.343h-.718 0-.188 0l-1.875.968.969-.062-.094.875.907-.094.28-.062ZM889.781 147.205v.906l.375.906 1 .094.25-.375.282-.906-.907-.438-1-.187ZM889.344 148.205l-.907.718-1.875.532-.187.906 1-.344.438.969 1-.906.906-.532-.282-1-.093-.343ZM884.219 150.736l.625.531h.906l.906.094-.906-.907-.906-.28h0l-.625.093h0l-.375.094.375.375ZM919.031 154.236l-.968.906h.968v-.375ZM739.437 340.142l.438-.531 1.156-.188.344-.125.531-.187h0l.5.563-.437.843v.031l-.031.063h.093l.094.25h.062l.063.094.281-.094h.125l.719-.25.469-.031 1.187.187v-.062l.532.25.968-.438.094-.531 1 .062.156.094.813-.094.906.375.094.907 1.625.968-.282.47-.968.968-.094.187-.906.375-.625.907-.469.062v.094l.094.094.468.718-.093 1.438v.094l-.188 1.718-.375.094-.343.438.625 1-.282.906h-.156v.093l-.187.72-.188.062H745l.719.906.469.187-.094.532.344.468-.094.094.656.875.344-.094.281.47h.094c-.915 2.288-1.196.495-1.719 2.968l.094.094-.094.187.344.25.719 1.094.718-.094-.25.906-1 .157-.187.187v.188l-1.25 2.062.094.094.375 1.437.062.188.188.281 1.812-.562h.438l-.188.562 1.813 1.063 1.343.437-.906 1.094.906.531.282.375-.188.625 1 1.156 1.875 1 1.25-.812.656-1.25.875-.469.719-.156h.906l.907-.906.437-.281h3.875l1.813-.157 1.343.344h.907l.906-.719h.718l.907.375.718-.906.438-.906.094-.906 1.968-1.25.907-.375h.906l.906-.625.531-1.344.25-1 1.188-1.625 1.781-1.156 1-.438-1.625-1.437-.437-.907-.438-1.53.781-1.72.72-.906.28-.625 1.625-1.781.532-1 .625-.188 1-.625v-.187l-.72-.531.907-.907 1.531-.718 4.22-1.157.28-.375.907-.625 2.5-1.25.906-.718.281-1-.375-.907.813-.343-1.157-2.25v-.907l-.28-.187.187-.281.093-.97 1.157-.905.906-.188 1.781-1.25 1-.375.719.469.719.094.812.437.906-.094-.187-.906.375.906 1.062-.093-.093.093.375.375.906-.187.875.906.906.094.094.156 1 .188.906.437 1.781-.719.907-.531.343-.906 2-1.344 1.157-.531.28-.031.72-.063 1.25-.375.906-.531 1.625-2.063 1.156-.625h.906l1.813.532 1.531 1.093.875.094.375.25.531.094.532.437.562.813.094 1.375 1.062 1.781.094 1.812.906.094.344.875 1.438 1.094.656.906 1.531.531.719.907.156.437.813.375.906.625.375.906 1.062.625.625.72 1.813 1 .906.25h.875l1 .374.719-.187.812 1.156 1.188 1.281.875.094.375.875.344.094.906-.344.906.719.438.906v.875l.718.375.907.813 1.343-.282.657.813.062 1 .375.906.625.875.375 1.813.625.906-.562.906-.875.156-.094 1.375-1.25 1.782.438.906h1l.875-.281.28-.907 1.813-1.593v-1.813l2.688-1.344v-.906l-.625-1.531-1.344-.719-.906-.281-.094-.875.438-.906.187-.72.469-.468.531-.969.719-.625h1.062l.094.157h-.156l.625.718 1.781.282.813.625.28 1 .907.812.875.094.563-1.375-.188-.969-.813-.906-1-.625-.53-.625-2.688-1.375-.907-.719-2.718-.969-3.032-1.53.063-.907.906-.625-.093-.906-4.563-.094-.812-.438-1.094-.375-3.313-3.218-1.28-3.625-.813-1.594-.907-.375-1.968-1.344-.907-.469-1.687-1.5-.469-1.28v-.907l-.188-.25 1-1 .375-.719-.375-.187-.625-1.063-.437-.187-.094-.282-.28-.093v-.157l.28.094.344-1h1.094l.969-.375.812-.531.906-.188-.093-.343.906-.188.531.188.094-.094-.094.281.906-.562.375.187.25.906v.25h-.343l-.282.375-.343.094.437.906-.094.094.625.875v.813l.907 1.28.28-.374.345-1.063.187.157h.375l.719-2.063 1.344.719 1.343 1.344-.093 1.53.53.907.47.281 1.062 1.063.906.469.094.156h.375l-.094.469-.468-.47-1.063-.53-.469.906 2.25 2.062 1.282.719.343 1 1.72-.281 1.437.625 1 .187.78.907 1.813 1.156.907.812-.907-.156-.906-.562h-.969l1.782.812 1.906.469 2.687 1.875 1.438-.188.094.375-.375-.187-.625.187 1 .813.906.437.812 1.25 1.063.657.719.062.187.469v1l-.719 1.25.282.906-.188.875.094.813-.625 1.28.625.72-.094.093.188.875-.094.094-.531-.344.53.906 1.782.875.813 1.094v.906l.468.094.532.156.343-.875h.563l-.281-.468.187-.532.281-.468h.625l.157-.063.656-1.375.062-.531.907-.438.28-.468v-.532l-.28-.53v-.376h.718l1.375-.25h.157l.906.063.625-.157.562-.812v-.094l.875-.281.47-.156.624.156.719.094v-.094h.281l.875-.156.094-.375v-.438l.531-.094h.281l.094-.28v-.72l.188-1-.188-.53-.281-.438-.094-.625-1.437-.813-.25-.187-.094-.125-.188-.25-.437-.532.625-.406.187-.125-.187-.406-.188-.406v-1.344l-.093-.094.28-.156.095-.031.53-.188.188.094.813-.719.719-.906v-.156l-.282-.094-.812-.906-.344-.188-.906-.906v-.156l-.375-.656a1.905 1.905 0 0 1-.125-.875c0-.032-.01-.065 0-.094 0-.024.026-.04.031-.063.018-.087.03-.17.063-.25.01-.02.023-.04.03-.062.014-.029.017-.066.032-.094a.694.694 0 0 1 .063-.094c.01-.011.023-.02.03-.03.065-.098.14-.191.22-.282.014-.017.015-.045.03-.062.057-.063.128-.126.188-.188.097-.1.183-.205.281-.312.158-.17.308-.344.438-.563l-.375-.437h-.094l-.344-.438-.093-.281-.188-.188.188-.093.718-.344.188.094.344-.188-.907-.437-.343-.125-.532-.157-.468.438-.907.469-.25-.282v-.187l-1.625-.344-.28-.281v-.094l-.532-.25h-.438l-.187-.281.313-.156.593-.282-.718-.375-.188-.187.281-.156.157-.907-.813-.28h-.156l-.094-.095-.906-.343-.813-.72-.093-.187-.282-.187.188-.188-.188-.25.094-.562-.437-.531-.188-.188-.25-.531-1.094-.438-.28-.562-.25-.344.093-.187.968-.188.907.188h.093l.094-.094.344-.531h1.375l.719-.907.156-.25.187-.906.72-.375v-.437l.093-.094.437-.531.282-.907.625-.625v-.093l.187-.469.563-1.125.25-.469.093-.187.438-.282.281-.187.25-.532.907-.343.28-.094 1-.375.876-.719-.25-.812-.094-.094h-.906l-.188-.344-.343-.437h-.282l-.906-.72v-.093l-.344-.187h-.187v-.188l.093-.719.438-.53.625-.907.188-.719.28-.5.282-.5 1.5.469-.063-.375-.656-.906.094-.625-.25-.907v-.625l.531-.625.094-.093.344-.438.187-.093.094-.094.719-.906c.149-.157.293-.268.437-.407l.063-.062.406-.438.219-.156c.185-.16.36-.32.562-.469.116-.084.249-.166.375-.25l.094-.093.187-.094.344-.531.906-.188.907-.719.093-.375v-.343l-.719-.907.907-.437-1-.813-.532-1.187h-.093l-.469-.531-.062-.719-.375-.906-.188-.094-.094-.625.188-.719h.094l.28-1.718-.093-.157v-.093l-.281-.188-.344-.187-1.531-.907.25-.437.562-.625.063-.094.094-.187.375-.25 1.78-.72.376-.75v-1.062l-.281-.906.187-.187c-.865-1.883-1.898-3.805-1.875-5.938v-.156l-.375-.563-.906-.53-.438-.376-.718-.437-.907.187-1.343.094-1.532.094h-2.531c-.404.002-.85-.027-1.281-.032h-.094a22.617 22.617 0 0 1-2.375-.125h-.031c-.226-.016-.38-.01-.625-.03l-.25-.095-1.281-.187h-.25l-1.188-.094c-.301-.041-.769-.042-1.062-.156l-.469.343-2.063.719v-.438l.907-.187.968-.531-.156-.094-.906.531-1.813.281-1.156-.187-.531-.281-1.094-2.344.907.375-.813-.438-.906-.28-1.813.093-2.687.531-1.782.906-1.812.438-.188.375-1.343 1.25-3.688.719-4.937 1.53-.469-.093-1.063-.719-.28.907-.438.343.968-.156.813.094.563.344.343-.344-.281-.094 1.281.156-.468.907.28.718-.905-.53-.532-.095-1.906-.812-.156-.188-.094-.062-.469-2-.906.281-.062.281-1.813-1.28v-.188l-1-.532h-.875l-1 .47v-.376l.906-.281.875.094-1.78-.344-.532.906-.906.625-.375.813-.094-.563-.875.188h-.906l-.907.906-.28.719-.876-.188-.906-.437-.813.25.094-.875.813-.907.156-1-.969.188-.906.437-1.906-.875-.72.532-.718-.72.188-1.28H826l.25-.25-1.594-.72h-.906l.625-.53.719-.188-1.156-1.437.875-.72-.813-1.437.906-.28.47-.626-1-.531 1 .25.874-.188v-1.156l1.188-.187v-1.782l1.062-.375.281.907.438-.813.906-.281.469-.875-.719-.906-.906.156-.906-.25-.907.531.72-1-.97-.625h.97l-.25-.906-.376-.875-1-.625.094-.094.906.625.906-.625.625-.906-.093-1.625-.344-.906.719-.907h0l-1.813 1h-1l-1.063 1.094-.53.969-.907.812-1 .188-.906-.094-.875.281-.907-.093-.375.28-.906.876-.625.906.813.906 1.343-1.906 1.813-.437.094-.188.812.375-.469 1.156.657 1-.188.907-.906-.813-.438-.906-.906.719-.281.906h-2.063l-.437-.906-.375.906-.094 3.594.907-.282.437 1-.25.188-.906-.531.093 1.687-.28 1 1-.281.624.812.906.625v.813l-.375.562.47 1.438-.376.156-.906-.719h-.156l.437.907.906-.094v.375l1.532 1.875-.094.094-.813.625-.625.906.813-.094.531.906-.375.907.907.625 1.28.281 1.595 1.781.718.188-.062.093-1.188-.375-.718-.875-.907-.812-.906.156h-.875l-.375-.156-.906.25-.344.906.344 1-.25 1.063-.282-1.344-.906-.188.282 1h-.907l.094-.906-1-.906-1.531.281h-.344l-.531-.094-.907.282-.718.906-.094.875 1 .187.625.282-.719.343-1.281-.53-.875-.907-1.813.375-1.718.094-1.688.53-1 .907-.093.344-.907.625-1.25.656-1 .063-.25.812-.28 1.813-.626 1.25-1.625 1.812h-.437l.343.906 1.438.72h1.094l-1.094.155-.906.375-.438-.093.438.375-.813.156.906.281.188.438-.906-.344-.907-.625-1.53.094.374.875.906.375.907-.375 1.062.468.281.625-.281-.53-1.344-.095-.906.188-.906-.375-2.063.531-2.968 1.531-3.157.625-.875.907-.187.906.187 1.812h-.03l-.25.157.437.906-.532-.188c-2.233 3.314-3.666.713-6.468 3.688l.625.906 1.062-.156-.156.156-.813.188-2 .812-1.78-.375h-.907l-.906-.25-1 .344-.782-1.25-.093-.906-1.375.28-1.5-.28.625 1.812.718.906.532 1.875-.094.907.812.812-2.78.438.187.187-.094.188-.188-.375-1.437-.72-1.188.626-.875.094-1.53-1.782-.907.25-.906-.093-.72 1-1.624-.282-1.781.375-.907.344-.906.719.094.906 1.781-.344.094.625-.969-.375.094.907.875.53-1.781.376.53.094.907.437.906.906.875-.28 2.969.655.906.625.469.907.625-.907.906.72h1.875l-.437.343.343 1 .907-.094H771l.906.531-.968-.437h-.907l-.187.906.906.531-.625 1.157.969.906.625.906.562.438.719.187.906.531h.875l-.093.47.28 1.78-.187.907-.625.468h.282l.906.532.875.718.469.907.187.968.531.907.094.625-.188-.625-.718-.813-.188-.969-.812-.906-.907-.094a36.757 36.757 0 0 0-.343 3c-.07.966-.095 1.916-.188 2.844-.046.464-.112.91-.187 1.375-.15.931-.368 1.896-.719 2.875-.175.49-.377.988-.625 1.5l-.906.469-.969.281-1.094.063-.906-.063-1.531-.812-.875.25-.375.468c-1.481 0-2.437-1.83-4.688-.375l-.062-.187c-2.554.93-5.024-.784-7.563-.625l-.906-.438-.906.344-3.063.094-.531-.188-.906.47-.282-.376-.968-.25-.907-.625-.125-.062v.062l-1.75-.187-.906.625-.468.906.187-.094v.438l-1.344.28-.906.345-.906-.063-1.875 1.438.625.875-.094.28.375.376.875-.188-.156.188-.094.875.906-.344-.468.719-.188.906 1-.094-1 .97.906-.25.375-.376-.28.469-1.063.906.593.844Z"/><path fill="#8cce55" stroke="#0f380f" stroke-opacity=".145" stroke-linecap="round" stroke-linejoin="round" d="m824.75 365.36-2.719.876-.812.719-1.25.468-1 .188-.907-.281-.875.437-.906.094-1.531-.813-.625-.343h-.469l-.968.812h-.907l-.906-.187-.906-.72-.907.345-.156.562-.906.344-1.813.375-1.062.719h-.906l-.719-.375-.375-.438-.875-.469-4.5-.062-1.813.719-.906-.188-.343.344-.907-.344-1.812 1.156-.875-.156-5.938.719-3.625 1.531-.968.781-.657 1.094-.437.281-1-.468-1.782.812h-.906l-.906.531-.719.907-.531.718-.906.282-.907.718-1.437.282-.625-.094.281.344v.093l1.438 1.094.093.094.094.625.531.906-.187 1.062.281.907-.375 2.062.375.188.25.531-.25.906.156 1 .657.813-.094.875.969.906.718.625-.53 1.812-.188.344h.093l.375.281-.093.094-.813-.094-2.437-.093-2.157-.188-.906.188-1.687.531-.188.906-.437.188-.813.281-.906.25-1.813.188v.375l.47.968-.282.907.531.437.094.906-1.438.282-.906.718-.25.188-1 .531h-.437l-1.282.438-.906.625-.719 1.187-.875 1-1.187.438-2.063.375-.906.156-.906-.094-.156-.062v.437l-.72.906-.905-.187-1.438-.094-.906.719-.438.375-.906.062a28.44 28.44 0 0 1-2.406 1.782c-.825.555-1.657 1.083-2.469 1.656v7.094l1 .656 12.969 8.094v.093c8.85 5.738 17.755 11.732 26.156 18.063l5.5 3.531.094.438v.375l.437.875 1 .656.72.625.624.906 1.188.344.906-.188 1.25 1.188.906.094 1.156.25 1 .562.188 1.25.25.906-.719 1.063 1 .906 2.156-.437 2.063-.375c-.037 3.24.051 6.505-.031 9.75v.03a68.55 68.55 0 0 1-.157 3.282l-.718.875-.25.906.093.188-.656 1.437-.156.188-.906.531-.72.906-.28-.093-.532-.094-1.343-.188-.72.47-.905-.095-2.875.188-3.438.156-1.437 1.375-1.157.156-.187.094-.906-.25H781l.094.344v.187l-.282.188.094.969.094 1 .53.437.095.906.53.907.657.812v.188l1.531.718.875.813.72.25-.532.187h-.25l-.656.188v.906l.093.25.563.094.969.812 1.187 1 1.156.094 1-.469.438.094.531 1.094-.625.875.719 1 .187.28.375.532-.375 1-1.093.906-.344.25h-.531l-.188-.093-1.094.281-.875-.281-.28.281-.095.437-.906.47v.155l-.906.563v.25l-.156-.063-.188.438-.375.906-.062 1.531c.837.803 1.624 1.233 2.593 1.782v.468l.094 1.157v.812l.094.281.187.625.063.094.75.906c.094 2.43.186 4.83.187 7.25v.032c0 .796-.01 1.608-.03 2.406h-.438l.187.469v.906l.344.625.531.906.094.438-.813.187.094.094 1.344-.281 2.437-.282 3.969-.156.344-.375 1.531-.719-.875.72h-.656l.906.187 1-.094 2.438.281 1.593.875 1.532 1.531.718.094.657-.25-.813.438.094.906.875-.531-.094.437.906.188-.906.093.375.813 1.094-.656-.188.718-.531.188v2.062l1.156 1.719 1.25.625.282-.094.28.657.626-1v.906l.906-.188.531-.812.719-.188.094-.25-.094.875.344.375v-2.156l.375 1.781.531-.25-.344-1 .532.094.093.906.25-.906.719.531.469-.187H814.843l.094-.625.094.625.875.375 1.906-.281.906-.25-.812-1.72.812.907.25-.281.813.187-.344.907.812.53-.187-.905.719.468.187-.187.531 1.781.719 1.094 1-.094v.531l.531-.53.188.187.062-.094-.25-.281h1.063l.093-.157-.093.25.187.907-.187.187-.156.906h.812l-.187.875.718.813.188.906-.469.906-.437 3.407.187.906-.812 1.625h.437l-.531.094-.813.906-.375.875.907.469.906-.094.187.437-.906-.093.094 1.906-.907-.188-.093.907.906.906 1 .437h.781l-1.781.188-.906-.281-.438 2.156-.906 1.906-.531.906-.375-.906v.281l-.188-.093-.156.812.438.344-.094.187.531 1.438.469.094 1.062 1.062.907.188-.907.093-.968-.718-.72-.813 1.157 1.813.375.875.875.468h-.25l.719 1.875.906.188.781.531v.375l-.875-.531.72.875 3.124 2.812.094.25 2.25 2.72 2.625 2.405.25.907 1.094 1.625h.625l-.094.812.375.906-.094.907.281.968.25.47.907.718.906-.281.906-.625 1.438.093-.47.094-.968.531-.906.094-1.813.531.47.906 1.062 1.875.812.907.281.718v.47l.72 1.874 1.687 3.5v1.188l-.25.812-1.344 1.438.094.531.437.719.281.906.063.906 1.625 3.406.812.907.532 1.968-.438 4.157-.812 1.781-.532.812-.906.375-1 .625-.969 1.875-.906.72-.625.905v1.438l-.562 1-.532 3.594-.906 2.25-.25.906v.625l-1.281 1.812.281 3.688-.437 3.687.093 1.782.157.906.656.906.344.906 1.625 1.782.906 1.437 2.344 4.5.625.906.875 2.72.906 1.78.906 1.282 1.25 2.25 1.094 1.156 1 1.875.25.906v1.188l-.531.906.375 1.25-.094.906.156 1.781-.25.907.719 1.812.187.969.625.906.157.906-.063 1.782.344.906-.281.906.718 1.906-.062.875.625.563.25.875-.156.906.53.906.282 1.813 1.688 2.687.468 1 3.063 2.782.344-.094.812-.625.438-.375.375-.875.625-.719.906.157.094.28.812.813-.187.907.53 1.062 1 .375h1l.876.438 1.812.093.907-.187h.812l.875.375h.906l.375-.094.094-.906.719-.094.437-.906 1.094-.156.875-.375c.028-1.8.055-3.603.063-5.407.02-3.495.01-7.005 0-10.5v-7.937c0-2.643 0-5.27.03-7.906h4.594v-17.75c.854.028 1.692-.062 2.532-.188.03-.005.063.005.093 0 1.285-.199 2.574-.502 3.875-.781.094-.02.187-.043.282-.063l.156-.03c.02-.005.042.003.062 0a26.438 26.438 0 0 1 1.594-.282c.216-.032.439-.07.656-.094.454-.05.911-.089 1.375-.094l.344.625.719.813.469.906 1.25-1.062.375-.469 1.78-.969.813.438.907-.719.375-.281.875-.094 1.28-.062-1.28-1.094-.094-.094-.875-.281-2.25-.063-.281-.093-3.5.718-1.282-.625-3.312-3.25-1.094-1.093-1.156-1.97v-.093c.042-2.438.01-4.883-.031-7.312v-.032c-.02-1.22-.05-2.439-.063-3.656-.014-1.22-.01-2.432 0-3.656.137-.043.295-.063.469-.094.174-.03.365-.07.563-.093.392-.046.84-.078 1.312-.094.67-.023 1.391-.01 2.125 0 .517.007 1.032.02 1.531.031.343.007.713-.005 1.031 0 .386.005.76.004 1.094 0 .335-.005.627-.009.875-.031l-.187-.906.187-.72.344-.905.094-.875-.157-.282v-2.437l.157-.906v-1.688l-.094-.094-.063-1.187-.906.656-1-.094-.906-.093-.875.531-.469.094-.906-.188-.875.188-.656-.282-.344.375-.094.094-1.093.531v-.093l-.343-1.782.437-.281.281-.438v-.093l-.093-.282v-.906l-.438-1.25-.094-.719-1.343-1.53-.282-.907.094-1.438-.094-.28.094-.72.344-2.5-.094-.468-.719-1.782.094-.375.281-.968.094-1-.375-.72h-5.75l.094-.812.343-.906H874.5l-.906.375h-1.063l-.375-1-.719-.906-.28-1.875.562-.563.968-.437.47-.625.343-.906-.188-1.157.188-.906-.188-.906-.437-1.344.281-.906-.375-1 .094-.063.281-.093.875.53.469-.437h.187l.157-.093.906-.563-.094-3.312.469-1.907.438-.906.53-.625.188-.969 1.25.094.907-.812 1.718.875.282-.157.625-.468 1.062-.25-.438-1.907 1.157.188.375-.281.625-.438 1.437.719.532-.188 1 .625 2.25-.625.906-.718 2.156.093-.188-1.156-.812-.656-.906-.25-2.782-2.156.094-.625.906-.47-.812-.905-2.063-.25 1.875-.907-.625-.906-1.343-1.875-.188-.719-.344-.562c-.086-.31-.167-.65-.25-1-.018-.074-.044-.144-.062-.219-.01-.031-.024-.062-.031-.094-.01-.022-.027-.04-.031-.062-.037-.167-.041-.338-.094-.5-.018-.055-.043-.103-.063-.156-.05-.147-.124-.301-.187-.438v-.031a3.009 3.009 0 0 0-.313-.5 1.934 1.934 0 0 0-.28-.313c-.039-.034-.085-.063-.126-.093-.323-.235-.744-.387-1.281-.375l.906-.969.094-.469.093-.437.344-.625-.093-.282.656.282.25.093 1-.718 1 .156.156-.156.906-.282.907.282-.282-1-.968-.625H888l-.906.093-.625-.906.437-1.906-.906.375-.437-.281v-1.875l1-.188.906-.625.875.188.093-.188.532-.719h-.782l-.562-.187h-1.781l-1.344-1.156-.281-.063-.188-.031v-.094l.188-.281.437-.625v-.531l.625-.72.563-.468 1.437-.094.907.657c.47-.298.91-.518 1.343-.688.424-.166.84-.306 1.25-.437.01-.003.022.003.031 0 .63-.201 1.242-.402 1.907-.782.221-.126.456-.268.687-.437.222.17.397.297.563.406.17.112.31.19.437.25.132.063.244.107.344.125.065.012.13.034.187.031.02 0 .044.002.063 0 .04-.005.085-.02.125-.03.102-.027.199-.079.312-.126.185-.074.368-.143.688-.187.165-.023.364-.04.594-.031l.906-1.438.906-.281.344.375 1 .344h1.25l.469.187.968.469.813.062.906.094.813-.531H906l.906.375.156.25.188.093-.719-1-.281-.78.094-.907-.72-1-.968-.438-.469-.375-.187-.093-.969-.188-.375-.875-.812-1.094.468-.812-.906-.531-.719-1-1.25-.907-1.906-.875-.812-.906.437-.625-.25-.906-1-.375-.093-.156-.625-.907-1.875-.468h-.907l-.375-.157v-1.812l-.968-.094h-1.282l-.875-.25-.093-1-.094-.625.531-.375.375-.969.094-1.812-.469-1-1.344-2.156-1.718-1.72-.188-.437.375-1.812-.531-.438-.906-.437-.438-.906.063-.47.187-.874-.531-.25-.094-.031v-.907l-.281-1.25-.531-.906-.907.188-.968-.094-.282-.625.375-.906 1.063-.906.719-.907-.282-.343-.437-.907v-.906l.281-.437.875-.532.469-.562.281-.344h-.281l-.188-.906.188-1 .625-.156.281-.188.344-1.344.187-.187.625-.375.282-.875-.375-1.094.906-.906 1.25.187 1-.375h.906l.969.282v-18.188a592.299 592.299 0 0 0-9.188-4.969c-.627-.333-1.246-.668-1.875-1a783.717 783.717 0 0 0-7.343-3.812c-1.26-.648-2.519-1.296-3.782-1.938a949.283 949.283 0 0 0-5.5-2.781c-.01-.004-.023.004-.03 0-3.107-1.557-6.214-3.11-9.345-4.656-1.635.697-2.99 1.471-4.687 2.156v.094l-.25.093-.906.532-1 .468-.907.532-.968-.188-.47-.437a20.324 20.324 0 0 1-.968-.813l-.188-.156c-.07-.064-.22-.195-.28-.25l-.438-.406-.063-.032-.03-.03-.657-.313-.156-.094h-.094l-.219-.063-.594-.093c-.744-.185-1.473-.387-2.218-.563-.061-.013-.13-.019-.188-.03-.3-.07-.605-.125-.906-.188-.712-.145-1.165-.24-1.531-.313l-.782-.219-.062-.03c-.035-.022-.067-.039-.094-.063l-.25-.407c-.083-.213-.216-.577-.438-1l-.468-.812c-.014-.022-.048-.04-.063-.063l-.093-.156-.282-.469-.812-1-.25-.094-.906-.28-.125-.032c-.031-.01-.062-.022-.094-.031-.321-.094-.65-.175-.969-.282l-.25-.093h-.094l-.906-.281-.906.375-.969-.47-.469-.968-.25-.094-.093-.093-.282-1v-.907l-.28-.875-.438-.718c-.054-.081-.102-.17-.157-.25-.017-.024-.046-.04-.062-.063-.686-1-1.432-1.963-2.125-2.937l.531-.907.906-.437 1-.907-.093-.437-.188-.906-.094-.188-.156-.906-.281-.906v-.157l.187-.468.344-.907h.094v-.062l.093-.375.282-.625-.188-.813-.375-1-.062-.093-.094-.875.156-.907.094-.375v-.093c.058-.327.088-.67.094-1v-.032c.013-1.023-.202-2.04-.532-3l-.375-1-.53-.906-.72-.875-.093-.187v-.719l.718-.375.125-.063c.39-.175.597-.237.782-.28.313-.074.473-.052.625-.188.098-.089.314-.41.531-.719l.656-.906.625-.907v-.625l-.187-.906-.282-.875-.156-.906.625-.906.188-.188.875-.156.187-.188.438-.906.187-.093.563-.188a2.84 2.84 0 0 1 .312-.437c.01-.006.027.006.031 0 .152-.162.299-.323.47-.438l.718-.344c.021-.009.042-.022.063-.031l.187-.094.656-.25c.077-.03.173-.06.25-.094l.25-.125a4.96 4.96 0 0 0 .469-.25c.023-.36-.325-2.36-.188-2.78v-.188l.094-.438.094-.187v-.282l-.094-.093-.812-.438h-.907l-.156-1-.375-.875h-.344l-.906.782-.187-.875h-.907l-1.156-.563-.812-.969-.375-.906v-.375l.812-.875 1.813-1 1.53-1.906.907-1.875-.375-1.625-.906-.813-.625-.343-.719-.907-.344-1.187.25-.969 1-.469 1.344-1.781.281-1-.906-.187-2.156 1.53-.625-.25v-.187l-.094.094.344-.563-.25-.156-.469-.906.094-.188-.906-.625-.625-.093v-.188l-.97-.156Z"/></svg>