<svg width="1671.094" height="856.393" xmlns="http://www.w3.org/2000/svg" xmlns:usvg="https://github.com/RazrFalcon/usvg" usvg:version="0.8.0"><path fill="#3e73c5" fill-opacity=".429" stroke="#000" stroke-opacity=".247" stroke-linecap="round" stroke-linejoin="round" d="m1448.158 134.33.094-.157.812-.093h.094l1.063.468h0c7.687-2.293 21.451-1.564 24.098.634.571 1.957 2.145 3.58 3.69 5.212l1.99 1.025 1.884.524 2.212 3.085 2.767 1.49 15.155-2.501 7.862.426V.518h69.558l-.032 135.937.199 16.688-9.216-1.07-3.19-.83-3.15 2.77-4.204-.945-1.496.68-3.4 2.999-8.572-.174-6.294-1.517-4.353.711 1.995 4.577-.28 3.005-1.04 3.644-1.072.008-1.487-1.653-3.099 2.125-3.222-.771-5.616 2.13c-1.556.851-3.113.107-4.67-.122l.159 2.416-2.437-.37-.09 4.741 7.34 2.773-1.896 2.891-1.35 3.646-5.466.146.94 2.346-3.257-1.842-1.526-2.435-.3 2.726-4.985-1.297-2.305.104-1.647-1.68-2.112 1.978 2.345 2.162-2.032.978-1.362-1.973-2.862-.295 1.676 2.261-1.166 1.53 1.624 1.322-5.396.447 1.551 1.63-2.343.505 1.758 2.173-1.856.552-.166 2.585-1.423-.081-.457-2.622-2.119-.134-.664 2.448-4.217-1.035 1.044 3.304-1.832-.176-1.485-1.076.528-3.305-1.94-.534-.328 2.496-3.832.662-2.595-2.122-1.71 1.434 2.888.816-2.088.555.283 2.136-1.714.574-1.278-2.874-1.948 2.107c-1.071-2.823-2.141-1.802-3.212-2.033l-2.285-2.094-2.713-.503-.788-.119-2.32.035-.659-.66c-.418-.297-.835-.398-1.253-.225l-.863.002-.806-.62.68-.933-.637-.702-1.486-.732-1.064-.101-1.156-.339-.75-1.07-2.556-.224.17-.698-4.737-.57-.038-.562-1.558.072-2.45-.739-.968-.756-1.686.579-.877.141-1.023.347h.01l-.718-.907.531-.468-.094-.875-.875-.72-.188-.905-.906-.47-.437-.874.812-.906.532-.375.718-.157 1 .25.719-.812-.625-.906-1.813-.625-.28-.875-1.876-.188-.718-1.437-.907-.907-.906-.281-1.344-.812.907-.625-.375-.97.094-.905.718-.188h1.907c2.399-2.624 5.855-1.559 8.53-1.906l-.874-.719.062-2.594-.531-.906 1-.812.968.093 1-.344.282-1 .906-.28.062-.72-.25-.906-1.375-1.875-.438-1 1-.344 1.813.094.969-.281 1 .187.625-.906-.094-.906-1-.906-1.5-.532.625-1 .25-.875-1-.28h-.625l-.875.28-1.813-.906-.906.094-.969-.188-.375-1.812.906-.969 1.157-1 1.812-1.812 1.156-2.157 1.907-.53.875-.813.375-.907-.188-.437-.438-.906.813-1.875.531-.907 1-.468 1.25-1.782.625-.53 1.813-1.72.781.157.188.03 1-.187Z"/><path fill="#3e73c5" fill-opacity=".427" stroke="#000" stroke-opacity=".247" stroke-linecap="round" stroke-linejoin="round" d="m1493.16 582.58 16.563 17.313v8.624h.156v247.344h69.562v-37.375h-34.687v-76l34.656-52.813V553.548h-37.404v-49.013h-20.502v-51.8h57.906V282.33l-12.312-7.532-20.22 18.625-37.155.407.156 206.468h-16.719v46.438Zm21.277 112.437h5.063v5.063H1514.438v-5.063Z"/><path fill="#8cce55" stroke="#0f380f" stroke-opacity=".145" stroke-linecap="round" stroke-linejoin="round" d="M1495.875 506.955a2.253 2.253 0 0 0-2.25 2.25 2.253 2.253 0 0 0 2.25 2.25c1.25 0 2.25-1.008 2.25-2.25 0-1.243-1-2.25-2.25-2.25ZM1512.438 512.423a2.253 2.253 0 0 0-2.25 2.25 2.253 2.253 0 0 0 2.25 2.25c1.25 0 2.25-1.007 2.25-2.25 0-1.242-1-2.25-2.25-2.25ZM1505.469 577.455v.906l1.437 1.437.907.72 1.812.718-1.438-1.875-2.718-1.906h0ZM1515.094 581.955l-.094.906 2.344 1.625 2.718 1.344 1 .718-.468-.906-.813-.906-1.094-.875-.875-.188-.906-.468-.906-.813-.906-.437h0ZM1506.563 582.58l-.907.187.532.906.374-1.093ZM1508.25 583.392l-.875.625.875.625.281-.344-.281-.906ZM1509.438 584.017l-.72.906 1.782.813.75.906.25-1-.875-.625-.188-.906-1-.094h0ZM1524.188 585.455l.624.906-.156.906.907 2.063 1.78 1.625-.187-1.813-.437-.875-.813-.906-.094-.906-.718-.907-.907-.093h0ZM1509.531 586.173l-.906.282.531.625.375-.907ZM1512.688 586.36l-.907.282.438.906.375-.28.094-.907h0ZM1519.688 590.048l.093.907.47.906 1.25.625.906-.094 1.875.531.906-.156-.625-.906-.907-.906-.906-.375-1.25.093-.906-.625h-.906 0ZM1527.875 590.517l.094.875.719.906v-.906l-.813-.875h0ZM1528.156 594.298l.282.875.53 1 1.094.625 1.782.282-.094-.907-.906-.625-.907-.187-1.781-1.063h0ZM1548.844 596.455l-.094.875 1-.875h-.906 0ZM1521.5 600.142v.531l.906.375.907.625.874.094-.874-.719-1.813-.906ZM1551.813 615.33v.906l.562 1.812v.907l.875.78.906-.062.907-.468-.188-.907-.438-.875-.562-.906-.875.531-.281-.906-.907-.812ZM1559 616.86l.188 1.813h.187l.094-.906-.469-.906h0ZM1559.188 619.736l.374 1.812.188-.906-.563-.906ZM1555.594 621.455l-.907.187.907.813.468 1.78.157.095.906-.344.188-.906-.907-.72-.812-.905h0ZM1559.563 622.36l-.907.095.625.812.282-.906h0ZM1559.281 624.423l.532 1 .906.188-1.438-1.188h0ZM1560.375 628.923l-.906.47.906.874.906-.531-.906-.813ZM1563.5 634.048l-.25 1 .906.625.344-.906-1-.719ZM1540.031 641.267l.719.969.094.906.812.906.532.813.906.437.625.625.625 1 .906.47.719.874.906.281.094.282.906.437.25-.094.907.907.906.187.437.875.907.094 1.437 1 .906.094.344-.907-.719-.906-.875-.437-1.093-1.094-1.813-1.25-.875-.188-.094-.25-.906-.375-.906-.906-1-1.594-1.063-.375-2.687-2.062h-1l-.907-.719h0ZM1554.344 644.142l.343 1.781.907.47.187-.907-.531-.906-.906-.438h0ZM1558.313 647.298l-.282.97.532.468.624-.906-.874-.532ZM1525.563 515.705a2.253 2.253 0 0 0-2.25 2.25 2.253 2.253 0 0 0 2.25 2.25c1.25 0 2.25-1.008 2.25-2.25 0-1.243-1-2.25-2.25-2.25ZM1418.469 140.017l-2.782.281.438.875 1-.156.875.531 1.375-.812ZM1535.729 155.767l-1.731.437-.907-.187-.343.094h.01l-2.156.375-.813-.281-1.093.187-1.782.813-1.718-.813-1.813-.375-.438.282-1.437-.907-.906-.093-.532-.969.438-.469.438-.625-.063-.25-.28-.469.905-.718.438-.907-.25-.875-.563-1.093-.812-.907c-4.97-3.847-11.851-3.93-17.813-3.78l-7.562 1.093-2.781.969-.969-.157-3.719.25-1.875-.343-2.781-.907h1.875l.094-.53-1.906-1.813-.875-.625-1-.094-.906-.344-.907.157-.875.656-.906-.094-1 .25-1.156.563 1-.657.875-.343.906-.813-1-.812h-.969l-1.531.437.344-.875-1-.656-2.875-.438-.875.188-.281-1 1 .187.906-.625.875-.187 1.25.812.906-.437.656-1-1.812-1.719-2.875-.906-2.813-.625-1.875-.188h-3.781 0l-2.781 2.25-1.25 1.531-1 .656-1.875.782h-.938l-.968.562-.907-.281h-.906l.906-.906-.531-.907.906-.156.969.344 1.813-.438-.813-2.718.906.187.625.906 1-.375v.907l-.906.906-.094.906 1.813-1.25 2.687-2.719h-2.781l-5.782.469-1.875.344-1 .375-.906-.281-.437-.375-.094.468-1 .188-.188-.031-.781-.157-1.813 1.72-.625.53-1.25 1.782-1 .468-.53.907-.813 1.875.437.906.188.437-.375.907-.875.812-1.907.531-1.156 2.157-1.812 1.812-1.157 1-.906.969.375 1.812.969.188.906-.094 1.813.906.875-.28h.625l1 .28-.25.875-.625 1 1.5.532 1 .906.094.906-.625.906-1-.187-.969.281-1.813-.094-1 .344.438 1 1.375 1.875.25.906-.062.72-.906.28-.282 1-1 .344-.968-.094-1 .813.531.906-.062 2.594.875.719c-2.676.347-6.132-.718-8.531 1.906h-1.907l-.718.187-.094.907.375.968-.907.625 1.344.813.906.281.907.906.718 1.438 1.875.187.282.875 1.812.625.625.907-.719.812-1-.25-.718.156-.532.375-.812.907.437.875.907.468.187.907.875.718.094.875-.531.47.719.905h-.01l1.022-.346.877-.141 1.686-.579.968.756 2.45.739 1.558-.072.038.561 4.738.57-.17.7 2.554.224.751 1.07 1.156.338 1.064.101 1.486.732.636.702-.679.932.806.621.863-.002c.418-.173.836-.072 1.254.225l.658.66 2.32-.035.788.12 2.713.502 2.285 2.094c1.07.23 2.141-.79 3.212 2.033l1.948-2.107 1.278 2.874 1.714-.574-.282-2.136 2.087-.555-2.888-.816 1.71-1.434 2.595 2.121 3.832-.661.328-2.496 1.94.534-.527 3.305 1.485 1.076 1.831.176-1.044-3.304 4.217 1.035.664-2.448 2.119.134.458 2.622 1.422.081.167-2.585 1.855-.552-1.758-2.173 2.343-.504-1.55-1.631 5.395-.447-1.624-1.322 1.166-1.53-1.676-2.261 2.862.295 1.362 1.973 2.032-.979-2.344-2.162 2.111-1.977 1.647 1.68 2.305-.104 4.986 1.297.3-2.726 1.525 2.435 3.257 1.842-.94-2.346 5.467-.146 1.35-3.646 1.895-2.89-7.34-2.774.09-4.74 2.437.369-.158-2.416c1.556.23 3.113.973 4.67.121l5.615-2.13 3.222.772 3.1-2.125 1.486 1.653 1.072-.008 1.041-3.644.279-3.005ZM1524 145.58l-.25 1h1.063l-.813-1ZM1560.811 684.972a2.226 2.226 0 1 1-4.452 0 2.226 2.226 0 0 1 4.452 0ZM1496.844 572.048l.281.907v.906l.344.906 1.906 1.688-.281.562v.156l.906.907.875.468 1-.187.906-.375-.187-.875-.719-.906-1-.563-.813-1.156-.968-.906-.469-.907-.875-.156-.906-.469ZM1496.313 570.267v.875l.343 1 .375-.906-.718-.969Z"/></svg>