<svg width="1671.094" height="856.393" xmlns="http://www.w3.org/2000/svg" xmlns:usvg="https://github.com/RazrFalcon/usvg" usvg:version="0.8.0"><path fill="#3e73c5" fill-opacity=".427" stroke="#000" stroke-opacity=".247" stroke-linecap="round" stroke-linejoin="round" d="M1509.717 293.423h37.156l20.657-18 97.718-86.844v-19.562l-16.53-20.221.474-148.28-34.765.001h-34.99 0l-.032 135.938.199 16.688-9.216-1.07-3.19-.83-3.15 2.77-4.204-.945-1.496.68-3.4 2.999-8.572-.174-6.294-1.517-4.353.711 1.995 4.577-.279 3.005-1.041 3.644-1.072.008-1.487-1.653-3.099 2.125-3.222-.771-5.615 2.13c-1.557.851-3.114.107-4.67-.122l.158 2.416-2.437-.37-.09 4.741 7.34 2.773-1.896 2.891h0l3.362 1.155-2.345 4.958 7.482.628-1.866 5.28 7.16-.675 4.268 2.534 4.771 2.285-5.345 2.73.793 6.239-3.615.587 6.42 2.102-.972 3.922-4.43 2.367h0l-.109 5.124-44.545 31.73 6.88 29.89 11.487 11.702ZM1579.531 282.423l-.125.094v170.219H1521.5v51.799h20.506v49.013h37.4v136.125l-34.656 52.813v76h34.688v37.375H1649V670.142h-35.688l12.313-26.77v-26.355h13.43v-12.47l-17.018-22.214v-23.712l27.47.035V429.63h-35.32v-51.136h34.776v-73.227l-34.775.25-34.657-23.094Zm45.969 477.375h11.594v10.094H1625.5v-10.094Z"/><path fill="#8cce55" stroke="#0f380f" stroke-opacity=".145" stroke-linecap="round" stroke-linejoin="round" d="m1618.938 139.923-1.97.375-1.78-.093-2.813.968-1.813 1.282-.968.437-1.813 1.719.813 1.781 1.812-.344 1.969-.093 1.813-.907 1.53.375.907.438 1.063-.094 2.968-.531 1-.375 1.969-.25 1.094-.281.906-.719v-1l-.906-.344-1.813-1.344-1.093-.562-2.876-.438h0ZM1559.75 153.236l-.469.187-.968.532-.813.906 1.875 1.094.906.343 1.875.532 1.813.093 1.25-1.875-.969-.812-.906-.094-2.719-.719-.875-.187h0ZM1649 194.017l-.906.875 1 .094.906-.344-1-.625h0ZM1542 234.517l-.969.625-.906.344-.906.094-.532 1.906-.718.875-.719.469.875-.188 2.813-1.625.906-.25.968-.094.376-.906-.282-.906-.906-.344h0ZM1549.563 260.142l-.97.188.876.906.468.969.813.906.875.375.75.906-.094-.906-.906-.906-.625-.907-.375-.968.094-.47-.907-.093h0ZM1555.969 263.205l.906.906.969.531.906.719-.813-.969-1.812-1.187h-.156ZM1547.125 489.923a2.253 2.253 0 0 0-2.25 2.25 2.253 2.253 0 0 0 2.25 2.25c1.25 0 2.25-1.007 2.25-2.25 0-1.242-1-2.25-2.25-2.25ZM1531.344 492.017a2.245 2.245 0 0 0-2.25 2.25c0 1.244 1 2.25 2.25 2.25a2.253 2.253 0 0 0 2.25-2.25 2.254 2.254 0 0 0-2.25-2.25ZM1553.125 492.58a2.245 2.245 0 0 0-2.25 2.25c0 1.242 1 2.25 2.25 2.25a2.253 2.253 0 0 0 2.25-2.25 2.253 2.253 0 0 0-2.25-2.25ZM1549.781 496.798a2.245 2.245 0 0 0-2.25 2.25c0 1.243 1 2.25 2.25 2.25a2.253 2.253 0 0 0 2.25-2.25 2.253 2.253 0 0 0-2.25-2.25ZM1548.219 502.11a2.245 2.245 0 0 0-2.25 2.25c0 1.243 1 2.25 2.25 2.25a2.254 2.254 0 0 0 2.25-2.25 2.254 2.254 0 0 0-2.25-2.25ZM1573.219 511.486a2.245 2.245 0 0 0-2.25 2.25c0 1.242 1 2.25 2.25 2.25.188 0 .356-.05.531-.094a2.253 2.253 0 0 0 3.906-1.531 2.253 2.253 0 0 0-2.25-2.25c-.192 0-.384.017-.562.062a2.254 2.254 0 0 0-1.625-.687h0ZM1598.125 514.205a2.253 2.253 0 0 0-2.25 2.25c0 .776.37 1.44.969 1.843-.922.28-1.594 1.11-1.594 2.125a2.253 2.253 0 0 0 2.25 2.25c1.25 0 2.25-1.007 2.25-2.25 0-.776-.402-1.44-1-1.843.933-.276 1.625-1.106 1.625-2.125 0-1.243-1-2.25-2.25-2.25ZM1602.5 516.705a2.253 2.253 0 0 0-2.25 2.25 2.253 2.253 0 0 0 2.25 2.25c1.25 0 2.25-1.008 2.25-2.25 0-1.243-1-2.25-2.25-2.25ZM1566.344 516.955a2.245 2.245 0 0 0-2.25 2.25c0 1.242 1 2.25 2.25 2.25a2.254 2.254 0 0 0 2.25-2.25 2.254 2.254 0 0 0-2.25-2.25ZM1582.75 530.86a2.253 2.253 0 0 0-2.25 2.25 2.253 2.253 0 0 0 2.25 2.25c1.25 0 2.25-1.007 2.25-2.25 0-1.242-1-2.25-2.25-2.25ZM1582.812 536.86a2.253 2.253 0 0 0-2.25 2.25c0 .994.64 1.828 1.531 2.126a2.228 2.228 0 0 0-.812 1.719c0 1.242 1 2.25 2.25 2.25a2.253 2.253 0 0 0 2.25-2.25c0-.987-.65-1.822-1.532-2.125a2.232 2.232 0 0 0 .813-1.72c0-1.242-1-2.25-2.25-2.25h0Z"/><path fill="#8cce55" stroke="#0f380f" stroke-opacity=".145" stroke-linecap="round" stroke-linejoin="round" d="M1586.093 544.455a2.253 2.253 0 0 0-2.25 2.25 2.253 2.253 0 0 0 2.25 2.25 2.254 2.254 0 0 0 2.25-2.25 2.254 2.254 0 0 0-2.25-2.25ZM1589.468 548.36a2.245 2.245 0 0 0-2.25 2.25c0 1.243 1 2.25 2.25 2.25a2.254 2.254 0 0 0 2.25-2.25 2.254 2.254 0 0 0-2.25-2.25Z"/><path fill="#8cce55" stroke="#0f380f" stroke-opacity=".145" stroke-linecap="round" stroke-linejoin="round" d="M1592.28 552.11a2.245 2.245 0 0 0-2.25 2.25c0 1.243 1 2.25 2.25 2.25a2.253 2.253 0 0 0 2.25-2.25 2.253 2.253 0 0 0-2.25-2.25ZM1599.156 552.11a2.245 2.245 0 0 0-2.25 2.25c0 1.243 1 2.25 2.25 2.25a2.253 2.253 0 0 0 2.25-2.25 2.253 2.253 0 0 0-2.25-2.25ZM1596.5 556.955a2.253 2.253 0 0 0-2.25 2.25 2.253 2.253 0 0 0 2.25 2.25c.781 0 1.44-.402 1.844-1 .159 1.087 1.092 1.937 2.218 1.937 1.25 0 2.25-1.007 2.25-2.25 0-1.242-1-2.25-2.25-2.25-.758 0-1.435.39-1.843.969a2.229 2.229 0 0 0-2.219-1.906ZM1614 588.11a2.253 2.253 0 0 0-2.25 2.25 2.253 2.253 0 0 0 2.25 2.25c1.25 0 2.25-1.007 2.25-2.25 0-1.242-1-2.25-2.25-2.25ZM1612.75 593.173a2.245 2.245 0 0 0-2.25 2.25c0 1.243 1 2.25 2.25 2.25a2.253 2.253 0 0 0 2.25-2.25 2.253 2.253 0 0 0-2.25-2.25ZM1617.844 594.986a2.245 2.245 0 0 0-2.25 2.25c0 1.242 1 2.25 2.25 2.25a2.254 2.254 0 0 0 2.25-2.25 2.254 2.254 0 0 0-2.25-2.25ZM1623.156 611.08a2.245 2.245 0 0 0-2.25 2.25c0 1.242 1 2.25 2.25 2.25a2.253 2.253 0 0 0 2.25-2.25 2.253 2.253 0 0 0-2.25-2.25ZM1618.625 619.517a2.253 2.253 0 0 0-2.25 2.25 2.253 2.253 0 0 0 2.25 2.25c1.25 0 2.25-1.007 2.25-2.25 0-1.242-1-2.25-2.25-2.25ZM1614.375 622.173l-.656.282-.782.093-.906.344-.906.625-1.813.281-.874.719h-.907l.719 1.813.875-.72.906-.187h1.813l1.875-.531-.094-.906-.875.719-.906.28.53-.905 1.345-1.282.656-.625h0ZM1606.188 627.955l-2.344.25-.907.468-1.437 1.782.188.906.874.531.188-.094 1.813.563.874-.094 1.813-.719.281.094.157-1-.063-.906-1.437-1.781h0ZM1606.344 633.83a2.245 2.245 0 0 0-2.25 2.25c0 1.242 1 2.25 2.25 2.25a2.254 2.254 0 0 0 2.25-2.25 2.254 2.254 0 0 0-2.25-2.25ZM1619.406 643.267a2.245 2.245 0 0 0-2.25 2.25c0 1.243 1 2.25 2.25 2.25a2.253 2.253 0 0 0 2.25-2.25 2.253 2.253 0 0 0-2.25-2.25ZM1619.312 657.267a2.253 2.253 0 0 0-2.25 2.25 2.253 2.253 0 0 0 2.25 2.25c1.25 0 2.25-1.007 2.25-2.25 0-1.242-1-2.25-2.25-2.25ZM1624.5 683.923a2.254 2.254 0 0 0-2.25 2.25 2.253 2.253 0 0 0 2.25 2.25c1.25 0 2.25-1.006 2.25-2.25 0-1.242-1-2.25-2.25-2.25ZM1620.969 690.236a2.253 2.253 0 0 0-2.25 2.25 2.253 2.253 0 0 0 2.25 2.25 2.253 2.253 0 0 0 2.25-2.25 2.253 2.253 0 0 0-2.25-2.25ZM1619.031 695.798a2.245 2.245 0 0 0-2.25 2.25c0 1.244 1 2.25 2.25 2.25a2.253 2.253 0 0 0 2.25-2.25 2.253 2.253 0 0 0-2.25-2.25ZM1580.344 712.892l2.062 2.875.282 1.813.624.968.907-.812-.719.906 2.781 3.875v-.812l.907.625 1-.438.343.625-.968.281.78.907-.906-.282-.156.188 1.157 2.156 1.812.813-.563.875.282.75-.094.875.281 1-.187.906.094.906-.813 2.156v1.532l-.437.875-.907.562-1.343.438-1 .625-.25 1 .343.718.907.438 1 .281.875.813.906.437 1.156.188.813.718.625.907.187.625-.25 1.968-.719 1.282-.718.906.062.344-.97.718.532.094.438.906 1.187-.281.25.906.906.188 2-1.094.782-.969 1.28-2 .095-.343 1.156-1.375.531-.97.813-.905.906-2.157-.719-1.812.563-.906.969-.875 1.093-.375h1.438l.875.718-.25-1 .25-1.593.656-.094.969-.906.281-1 .094-1.875.188-.907.624-.812-1.812-.625-1.969.812-.812 1.157-.907.375-1.156.093-3.343-1.437-1.063-.281-.813-.438-.093-.906-.376-1 .094-.906-.25-.97-.906-.812-.906-.562-.094.906.469 1.906-.906.094-1-1.375-.907-.156-1.25-.282.375-.187.062-.719.188-.25-.094-.906.187-.906-.812-.719-1.344-1.906.906.375-.281-1.813-.531-.875-.907-.375-.906-.812-.906-.532-.969-.468-1.812-.438-1.157-1.812-1.093-.344h0Z"/><path fill="#8cce55" stroke="#0f380f" stroke-opacity=".145" stroke-linecap="round" stroke-linejoin="round" d="m1592.844 721.36-.094.095.562.875-.468-.97h0ZM1580.969 745.298l-.907.532-.874.28-1 .72-.532.812.094 1.875-.75 1.25-.812.906-1.5.72-.813 2.78-.469 1-.25.532-.906.906-.531.812-1 .625-.906.375-1.063 1.063-1.812 1.094-.907 1-.968.156-2.625 1.812-1.813.344-.875.813-.75 1-.875.625-.375.906-.875.437-1 1.625-1-.093-.719.906-.187 1 .656.969-1-.625-.906.718 1 .375-1 .532h1l-.906.53h.906l-1.813.563-.437.97.094.187.875-.438-.438.906.907-.28-.469 1 2.531.25 1-.532.907.281.437.875 1.438-.062 1.187.625.156.875h1.094l.719-.157.969.438 1.625-.094 1.906-.719.437-.906 1-.625 1.625-1.781.969-.188.281-.906.907-1.875.187-.906 1.344-1.906c.126-4.712 1.456-4.063 5.562-6.094l3.594-.375-.813-1-.874-.344c-.948-2.422 1.288-2.484 2.5-3.687l1.187-2.438 1.781-1.719v-.25l.657-1 .812-.906-.375-1-.625-.875.813-1.094-.907.188-.094-.281.907-.157.28-.906h-1l-.187.906-.906.344.281-.281-.28-.969.905-.719-1.875.813-1.375 1.062h-.875l-.375-.906.188-.719-.282-.968-.906.156-.625-.719.72-.969h-.001ZM1557.563 780.298l-.25 1.97-.813.905h.906l1.875-.375.188-.968h-.907l-.093-.282.093-.968-1-.282h0ZM1549.844 803.33l-.719 1.812.906-.719.625-.906-.812-.187h0ZM1550.125 805.298l-.906.188h.906v-.188ZM1564.25 815.017l-1 .656 1-.468v-.188ZM1552.6 454.554a2.254 2.254 0 0 0-2.25 2.25 2.253 2.253 0 0 0 2.25 2.25 2.253 2.253 0 0 0 2.25-2.25 2.254 2.254 0 0 0-2.25-2.25ZM1563.206 477.181a2.254 2.254 0 0 0-2.25 2.25 2.253 2.253 0 0 0 2.25 2.25 2.253 2.253 0 0 0 2.25-2.25 2.254 2.254 0 0 0-2.25-2.25ZM1568.51 491.323a2.254 2.254 0 0 0-2.25 2.25 2.253 2.253 0 0 0 2.25 2.25 2.253 2.253 0 0 0 2.25-2.25 2.254 2.254 0 0 0-2.25-2.25Z"/><path fill="#8cce55" stroke="#0f380f" stroke-opacity=".145" stroke-linecap="round" stroke-linejoin="round" d="M1566.742 494.505a2.254 2.254 0 0 0-2.25 2.25 2.253 2.253 0 0 0 2.25 2.25 2.253 2.253 0 0 0 2.25-2.25 2.254 2.254 0 0 0-2.25-2.25Z"/><path fill="#8cce55" stroke="#0f380f" stroke-opacity=".145" stroke-linecap="round" stroke-linejoin="round" d="M1564.62 498.394a2.254 2.254 0 0 0-2.25 2.25 2.253 2.253 0 0 0 2.25 2.25 2.253 2.253 0 0 0 2.25-2.25 2.254 2.254 0 0 0-2.25-2.25ZM1567.095 505.819a2.254 2.254 0 0 0-2.25 2.25 2.253 2.253 0 0 0 2.25 2.25 2.253 2.253 0 0 0 2.25-2.25 2.254 2.254 0 0 0-2.25-2.25ZM1559.317 508.647a2.254 2.254 0 0 0-2.25 2.25 2.253 2.253 0 0 0 2.25 2.25 2.253 2.253 0 0 0 2.25-2.25 2.254 2.254 0 0 0-2.25-2.25ZM1554.72 504.405a2.254 2.254 0 0 0-2.25 2.25 2.253 2.253 0 0 0 2.25 2.25 2.253 2.253 0 0 0 2.25-2.25 2.254 2.254 0 0 0-2.25-2.25Z"/><path fill="#8cce55" stroke="#0f380f" stroke-opacity=".145" stroke-linecap="round" stroke-linejoin="round" d="M1554.72 501.223a2.254 2.254 0 0 0-2.25 2.25 2.253 2.253 0 0 0 2.25 2.25 2.253 2.253 0 0 0 2.25-2.25 2.254 2.254 0 0 0-2.25-2.25ZM1559.317 518.9a2.254 2.254 0 0 0-2.25 2.25 2.253 2.253 0 0 0 2.25 2.25 2.253 2.253 0 0 0 2.25-2.25 2.254 2.254 0 0 0-2.25-2.25Z"/><path fill="#8cce55" stroke="#0f380f" stroke-opacity=".145" stroke-linecap="round" stroke-linejoin="round" d="M1561.438 522.79a2.254 2.254 0 0 0-2.25 2.25 2.253 2.253 0 0 0 2.25 2.25 2.253 2.253 0 0 0 2.25-2.25 2.254 2.254 0 0 0-2.25-2.25ZM1504.313 288.58l-.282.906.813.281.375-1-.907-.187h0ZM1503.063 288.86l-.75 1-.438.876-1.875.906-.469.906.532 1 .906-1 .906-.093.906-1 .719-1.782-.438-.812h0ZM1497.813 295.955l-.876.812-.468 1h.906v-.906l.438-.906ZM1494.5 300.548l-.906.375v.188l.906-.563ZM1508.375 286.236l-2.344 1.781v.031l2.344-1.812h0Z"/><path fill="#8cce55" stroke="#0f380f" stroke-opacity=".145" stroke-linecap="round" stroke-linejoin="round" d="m1540.427 212.906.971-3.922-6.419-2.102 3.615-.587-.793-6.24 5.345-2.73-4.77-2.284-4.269-2.534-7.16.675 1.866-5.28-7.482-.628 2.345-4.958-3.362-1.155h0l1.896-2.89-7.34-2.774.09-4.74 2.437.369-.158-2.416c1.556.23 3.113.973 4.67.121l5.615-2.13 3.222.772 3.1-2.125 1.486 1.653 1.072-.008 1.041-3.644.279-3.005-1.995-4.577h1.237l.907.25.906-.063.969-.468.906.187.906.625 1 .375 1.781.156 3.344-.093 1 .187.875.469h2.813l.968.156 1.907-.875 1.875-1.375.906.282.625 1 1 .437v1.906l.719.875 1.875.188 1.906.812.969.719.094 1 .718.906 3.782-.281 1 .438-.532-.97.969.532v-1.094l1.906-.718-.718-.875-.188-1-1.719-2.782-.875.063-.906-.625 1.781-.875-.25-2.969h0l.875.25 3.781.469 1.906.437 3.313.281.906.532 1 .28.906.72.969-.563-.875-.719.875-.187 1.906.812 1.875-.156 1 .156 3.875.094 1-.344 1.875-.093 1 .187.875.875.906.281.907.532 1 .28 1.781.188 3.781 1.25.906-.093 1 .187.907.344.968.719-.906.375h1.906l1.97 1.156.812.906-.907-.437.907.718 1 .094 1.625.531.968-.093.532.906 1.906.344.906.656.906.812-1-.375.532.907 1 .187 1.812.625.531.969.907-.344-2.813-1.531 3.781 1.969-.968.093.343.72.907-.532 1 .344 7.375 3.53 1.437.907.531 1.531-.718.875.906-.093.969-.625.812.906-.625.906-.187 1 .906 1.781-.531.907.094 1 .906.156 1.25 1.812.906-.906.969.188-.25.906.094.906 1.063-1.469-.625-.875-1.72-.562.907-.438.469-.906-.281-.906-.532-.969-1.906-.719 4.781-.093 1.875.344-.875.812v.906l.875-.187-.25-.969.875.438.907.187.906-.562-.906-.157-.97-.468 1.595.187.903.281-.906-.094 1.812.344 1.906.094.875.187.282.907.906.812 1.875 1.25 1 .438.906.812.875.563-.875.625.875-.563 1 .375.094.906.906-.093v-.282l1.438.563-.469.969-.969-.344-.531.094-1 .53-.906.907v.875l-.438.813-.906-.063-1.906-.906-.907-.188.907.907.906.343-.344.907-1-.344-1.812.062-.969-.062-.906-.281-1 .093-.438-.906-1-.281-.906.187 1.906 1 .344.906.906-.375-.437 1 .094.907-.469-.282-.906.344h1l.812.906-.812.907-.907.437-1.875.375-.906.625.907-.344.28.875-.906.47.97.187 1.812.625.718.875-1 .187h-1.78l-.47.906-.906.188-1.062-.813.531-.906-.438-1 .157.719-.438.906-.906.469-1.969-.719-.375-1-.53-.625-.813-.093-1.876-.813-1.906-.094-1.875-1.062-.906-.75.469-.875-.657-1-.094-.906-.875-.625-1-.094-.906-.344-1.875-.469h-.906l-1.875.813-.906.094h-2.907l-.968-.282.343-.875-.25-.906-.906-.625-.625-.906.906-1 .875-1.781-.968.25-.907.812-.906-.437v-.907l-.906.438.094.906-.969.375h-.906l-.656.969.125 1 .687.906 1 .625.563 1-1 .719h-.907l-1.343.344v.562l1-.469.875-.093.281.906-.531 1-.907.437-1 .282-1.875 1.53-1.812.532-1.875 1-.906.156.906-.53-2 .28-1.875-.375h-.906l-.907-.718-.343-.907-.907-.156-1-.812-.906-.188-.969.344-.906-.063.906.25.907-.25.968.25.907.72-.188.905h-.875l-1-.437-.906.094-.906-.188-1-.469-.969.094.625.094.906.718.438.907-.907.531 1.813-.438.906.625 1-.906 1.781-.531.344.906-.344.969.532.906 1 .813.906.468.969-.28.906-.532 1 1.781.094.906.719.907.281.968-.094.907-.906-.094-1 .656 1-.375.906.438-.094 1 .344-1 .625 1 .094.625 1.906.906-.375.906.094 1 .906.25.438.907-1.344 1.812-.906.344.187.906-5.593-1.625-.875-.187h-1l-1-.72.094-.905-.907.468-.687-.906-.281 1.25.812.906-.906.188h-1l-1.875 1.625-2 .531-1.875.719-1-.094-.188.906-1.875.625-.906-.25.281.875-.906.282-.719-.094-.906.281-.969.625-.906-.094-.906.375-1.625 1.782-1-.282-.875.282.625.906-.906-.281-.282.906-.875-.188-.906.563.531.875-.906-.063-.344.875-.375.282-.875.187-1 .625-1 .188-.812.968-1.875.563-.906.625-.532.969-.468 1.812-.438.531-1.812-1.25v-1l-.907-.53-.687-1-.563-.157-.875-.906-.937.343-1.781.188-.907-.344-1 .063-.968.187-2.875 1-.907.438-.906-.25-.531.968-2.875 2.813-.906-.094.187-1.531.625-.906-.375-1.907-.969.375-.906.813-2.781 1.531-.906.094.906.531-1.094 1.156-.906-.156-.438-1-.562-.531-1.344.719-.969.718.188-.906-.281-.187-.907-.188-.906.375.188.813-1 .093-.532.907.094.875-.906.375.531.906-.094.906-.875.156-.094.907-.906.093.719.907c-2.603 1.29-8.165 7.2-2.532 8.375v-1l.907-.47 1.906.907.875.719-.438.906-1.874 1.625.156 2.25-.157.906.344.907h.907l1 .343-.095.907.438 1.78-.625.907-1 .719-.906-.344-.875-.906.531-.906 1-.344.344-.906-1 .53-.875.188-.907.438.344.906-1.5.719-1.625 2.719-.375.968.094 1.813.282.969 1.624 1.812-.562.906-.969.72-.906.437-1 .187c-2.505-1.732-4.701.975-6.563 2.344l-.624 1.719-.095.968.532.907-.438.906.72 1.062-.095.907-1.437-.813h-.907l-1.875.813-1.812 1.187-.813-.906-.343.906.875.438-.532 1.812.094.875-1.093 1.906-.063.907-1.624 1.78-.907.72-1 .468-.156.188-.031.031-.531.688-.97.875-2.343 1.78.344-.874-.094-.906-.906-.875-.157-.907.095-1.906-.188-1.781-.563-1.813.282-1-.906-.625-.344-.968-.906-6.407-.375-1.78-.344-.907a28.363 28.363 0 0 1-.469-1.938 26.05 26.05 0 0 1-.469-3.906 24.856 24.856 0 0 1 .157-3.937c.078-.64.179-1.274.312-1.907v-.03a21.77 21.77 0 0 1 .5-1.907c.195-.634.43-1.254.688-1.875l1.625-1.781 1-.72.875-.374 1.375-2.688-.188-1-.906-.906.906-.625.875.469 1-.094.625-.469.281-.156.532-1 .906.281h.906l1-.468 1.781-1.438 1.907-1.062 1.687-1.72 1.531-1.905.188-.875 2.719-2.188.437-.875 1.813-.625 1.78-1.625.72-1 1.875-1.156.468-.906.282-1 3.593-1.438.907-.906 1.875-.188 1.812-.875-.906-.906 1.781-1.625.188-.906-.907-.625.375-1 .907-.625v-1.875l.187-1.813 1.875-1.343.906-.282.907.375h.968l.907.532-.282-.907 1.907.188-1-.281-1.813-.157-2.781-1.375Z"/></svg>