<svg width="1671.094" height="856.393" xmlns="http://www.w3.org/2000/svg" xmlns:usvg="https://github.com/RazrFalcon/usvg" usvg:version="0.8.0"><path fill="#3e73c5" fill-opacity=".429" stroke="#000" stroke-opacity=".247" stroke-linecap="round" stroke-linejoin="round" d="M953.771.508v48.437h-9.44V70.66h9.44v91.608l-5.001-2.524-4.764-1.623-3.6-.193-1.465-.795h-2.52l-1.308-2.299-3.814-1.27-5-1.988-3.309 3.463.094.344.25.906-.438.906h-.906l-.969-.28-.906-.626h-.094l.094.281v.094l-1.094 1.688-.968.28-.907.345-1 .093-.343 1.531-1 .907h-.375l-2.5 1h-.188l.188.093h.906l.437.875-1.437 1.907.094.187.093.156.813 2 .875.625 2 .532.906.906.719 1 1.687 1.156v.281l-.25 1.25-1 .813-.906.812-2.156 2.782v.718l1.437 1.813c1.096 2.625 3.379 4.469 3.438 7.375l-.563-.094-.968.188-.282 2.437-.375.875h.907l-.25.906-.907.72.344.905.906.72.625-.094.907.812-.907.719-.093.375.093.156.188.188.531 1.093.906.25.907.563.187.875-.094.656-1.718 1.781-.438.188-.562.187.562.532.438.437.906.469.906.719.969.343 1 .813 1 .562.344.875 1 .813.25.562-1.344 2.688-.719.719-.906.906-1.438 1.062-2.687 2.719-.188.344-1.78 1.625-.376.093-.094.094-1.062 1.25-2 1.344h-.094l-1.156 1.094h-.281l-.157.093-.718.625-.907.813-1.187 1-.344.344 1.063.187 1-.375 1.906-1.156.25.25-.25.812.062.907-.875-.344.625.875 1.97 1.375h1.905l.97-.094.905.344.625.906.72.094.28.625-.095.281-4.781-.906-.72 1-.874.531-.906-.281-.907.094-.187.906-.906-.375-.875-.063.25.875-.25.907.437.375.375.25v.28l-.469.376-1 .156-.06.719-.563 1.187-.625.344-.531.469-.188.969.375 1.812.094.281-.375.97.906 1.812h.094l-.094 1.156-.28.094-.345.28-.562.907-.156.719.437.093.906.875.72.47.187.874-.188.281-.281.094-.094.906-.437.97.53-.063.376-.094.25.906.562.875h.094l.625.906.094.47v.062l.156 1-.25.531.068.154-.68-.24-.853.254-.82.836-.479.312-.074.592-3.113.104-.55.697-1.071.256-.762 2.334 1.182.467-2.574 1.677-1.702.85-1.035 3.508.871.947-.976.06-.295-.892-1.807.961-1.101-.023-.278 1.023-1.656.541-2.242-.342-1.762.028c.045.543.36 1.267.469 1.718v.032c.223.74.552 1.447.875 2.156v.031c.214.47.444.944.656 1.406l-.187.188.28.906v1.063l-.374.75-1.781.718-.375.25-.094.188-.063.093-.562.625-.25.438 1.531.906.344.188.281.187v.094l.094.156-.281 1.719h-.094l-.188.719.303.73 1.858-.56 1.529-1.538 5.338-.24 9.71 1.963.01.637.25.033.69-.795 1.815-.27 2.117 1.52.441-.832 1.186-.504.365.164 1.043 1.383 3.844-.656 1.646 1.414.45-.897-.358-1.562 1.912-2.645 4.008-.22.99.332.906-.063.72-.906.187-.188v-.53l.875.093.812.344h.906l.907-.438.53-.281.813.094h.282l.156.187.094.25.906-.531c.355.182.61.328.812.469 1.444.995-.392 1.153 2.157 2.875l-.813.875h-.156l-.281.28.343.438.282.907.187.375h.094l-.281.625-.188.093c.655-.074 1.061-.038 1.344.031.141.036.25.077.344.125.278.147.401.313.78.313.12 0 .29-.022.47-.063.197-.046.452-.11.75-.218l.562.437.063.156c.024.027.037.067.062.094l.031.031c.176.202.37.398.532.625l.062.094.125.156.281.47c.023.038.042.086.063.124l.375.781v.094l-.156.875.718.906.532.469.718-.469.813-.093.906.562.344.438.562-.188.875.625.907-.625.187-.094.438-.093h.812l.906-.532.907.532.625.906.437.625.906.375.094.187.094.063.28.469.782-.532-.06-.093.78.093.907.25.906.375.907.532h.25l.906-.438.906.875h.906l.532.813.906.281.437-.281.094-.094.625.094-.344.906.282.375.156.531-.719.906-.969.625-.093.813.875.25.187-.063.188-.093.187.156-.375.375-.906-.094-.531.907-.096.187v.25l.906.469.281.906-.375.156.188.188.096.094h.187l.06-.094h.188v.375l-.094.062-.625.907.094.093-.344.375v.875c-1.54.018-2.832.038-4.343-.062l-.438.875-.375.093-.06.094-.907.281-.906.907-.375.875.094 1 .094.28-.625.157-.907-.062-1.78.25-.095.093v9.875l-.53.125-1.188-.093-1.25-.532-.907.438 1.094.531-.906.281.156.532 1.906.625 1.532 1.812.093.031v20.375l.188.094.875-.531.375.531 2.344.563 1.78-.094.626-.375 2.531-.438.906.344 1.97.281.624.375 2.438-1 .906-.53.906-.282 1.25-.719 1-.906.006.006.996-1.432.063-.531-.532-1.813-.53-1.062-.095-.906-.468-1-.875-.25-.813-.907-1-.625-1.781-.375-.906-.812-1.188-.625-.156-.094.066.022 1.301.408 1.346-.156 3.96 1.287 3.128.305 1.242-.317 1.834.664 1.176 1.91.718.287 1.922.805-.207.426 1.57.754 1.253-.75.261-.494 1.283-.09.827.685.466-.597 1.747.992 2.125.406-.213 1.037 4.222.782.002-.002 2 1 .719.875.969.718.562.907 1.688.375.902-.622v-.004l.715-.902v-.004h.188l1.341-.623.092-.185.531-.907.095-.187v-.004l.062-.031-.063-.063h-.094v-.094c-.434-.028-.386.1-.625-.187l-.093-.094-.095-.094v-.062l-.093-.188v-.187l-.063-.188h-.094v-.093l-.093-.094-.095-.062h-.093v-.094l-.095-.092v-.094l-.096-.093v-.094l-.06-.094v-.093l-.125-.063-.062-.094v-.093l-.094-.094v-.094h-.093v-.093l-.188-.094h-.094v-.094h-.096l-.06-.094v-.062l-.094-.094h-.096v-.093l-.094-.094v-.094h-.094v-.187h-.094v-.157l-.094-.093v-.094h-.094v-.094l-.094-.093h-.25l-.094-.094h-.096l-.094-.094v-.156l-.094-.094v-.281h.094v-.187l-.094-.094v-.344l-.062-.094-.188-.093h-.093v-.094h-.095l-.093-.188v-.062h-.282l-.062-.188h-.094v-.093h-.094l-.094-.094v-.531h.094v-.281l.094-.094-.094-.094v-.062l.094-.094.094-.094h.062v-.093h.094v-.094h.094v-.094h.094v-.187h-.094v-.094h-.094v.094h-.094v.093l-.156.094v-.719h-.094v-.093l.094-.188v-.156h.094v-.094h.062l-.062-.094v-.28h.062v-.25h.094v-.282l.094-.092.094-.187.094-.25v-.094l.096-.188v-.093h.094v-.094l.061-.094h.125v-.062h-.125l-.061-.094v-.094h-.188l-.094.094h-.096l-.093.094-.095.062v.563h-.062v.25h-.093l.093.094v.093h-.093v.188h-.095v.344l-.093.093v.375h-.094v.094h-.094v-.094h-.094v-.187l-.062-.094v-.094l-.125-.093v-.157l.125.094h.062v-.094h.094v-.187l.094-.094.094-.094-.094-.093v-.188l.094-.062h.093l.095-.094v-.281l-.095-.094h-.093v.094h-.094v-.094h.094v-.25h-.188v-.281l-.094-.094-.062-.094v-.187h-.125v-.25h-.06l-.096-.094-.094-.093-.094-.094v-.188l-.094-.093v-.157l-.093-.187v-.188h-.157v.094h-.125v.094h-.062v-.094h-.188v-.094h-.093v-.093h-.094v-.094h-.094v-.25l-.093-.094v-.187h-.063l-.094-.094h-.375l-.093-.094h-.188l-.062-.093h-.188v.093h-.187l-.094-.093v-.063h-.156v-.093h-.125c.03-.532-.09-.202-.063-.625h.188v-.094l-.125-.094v-.094h.125v-.375h.156v-.156l.094-.094h.281l.094-.093v-.094l.062-.094h.094l.094-.093.093-.094.096.094h.094v-.157l.093-.093.094-.094-.094-.187v-.375h.094v.375h.094v.187h.062v.094l.094.156v-.063l.094-.093v-.188h.093v-.531l-.093-.094h.187v.094h.094v-.094h.094v-.093h.187v-.094l.063-.094v-.281h.093v-.156h.094v-.188l.094-.093v-.344h.343v.062h.125v-.718l.063-.094v-.063h.094v-.187l.093-.092h.096v-.094l-.096-.093-.093.093h-.094v-.093h-.063v-.094h.532v-.344h.096v-.094h.06v-.093h-.06v-.188h-.096v-.093l-.094-.063h.19v.156l.06.094h.094v-.094h.096v-.156l-.096-.094v-.093h-.094l.094-.094v-.094h-.157v-.093h-.28v-.094h-.188v-.188h-.094v-.062l-.06-.094v-.094h.156v.094h.281l.094.094-.094.062h-.096l-.094-.062v.156h.094v.094h.096l.186.094h.156l.094.093v.094l.094.094v.093l.094.094v.063l.094.093h.094v-.156h-.094l.094-.094v-.187h-.188V319.234h.094l-.094-.062h-.094v-.188h-.094v.094h-.094v-.188h.282v.094h.093v.094h.095v.156h.25l.093.094h.188v.187l.094.188h.094v.093h.096l.061-.093v-.094h-.061v-.094l.061-.094v-.25h.188v.157h.094v-.094l.096-.062h.187v-.094h.094v.094l.094.062h.062v-.062h.188v-.188h.187v.094h.094l.094.093v-.093h.344v.093h.094v-.093l-.094-.094v-.094h.281v-.187l.094-.094v-.156l.094.062v-.062h.062l.094.062h.281v-.062h-.187v-.094h-.094l.094-.094h.187v-.187h.094v-.094h.094v-.093h.25l.094-.094h.096v-.063h.094l.094.063h.094v.094l.094.093v.094h.062l.125.094.062.093v.188l.094.062v.094h.094v-.156H1006.14v.062l.094-.062-.094-.094v-.094h-.094v-.093l-.094-.094v-.094h.094v-.093l-.094-.157h-.282l-.061.063h-.125v-.063h.125v-.093h.25v-.282l-.095-.093v-.094l-.28-.094h-.063v-.093l.062.093h.125v-.156l.062-.094.094.094v-.094h.094l.094.094h.094v.063h.094l.094.093v.094l.062.094.094-.094-.094-.094v-.156h-.062v-.094h.062v.094h.094v.156h.188v-.093h-.094v-.157h-.094v-.093h.094v.093h.094v-.187h.094v.094h.094v.25h.096v.093h.094v-.25h-.094v-.093h.094v-.094h.094v-.094h.25v-.187h.094v.093h.094l.094.094v.094l.094.093.062-.093-.062-.094v-.437h-.281l.094-.094v-.094h.19v-.094h.06v-.187h.188v.094h-.06v.187h.155l.094.094h.282v.094h.156v-.094h-.062v-.094h-.094l-.094-.094v-.093h-.094v-.344h-.094v-.094h-.188v-.093h.125l-1.375-.875-.375.093-.437-.468-.719-.25-.531-.375.094-.188.968-.437.907.437.187-.969-1.094-1.437-.812-1.813-.875-.812-.375-.625-.906-.719-1.875.094-.469-.188-.344-.187-.187-.094-.188.094v.093l-.25.625-.281-.156-.187-.094-.344-.625v-.187l-.281-1.813.093-.25-1.781-.718-1-.282.437-1.53c.184-.463.359-.812.5-1.095.15-.298.264-.505.375-.656.1-.134.174-.225.25-.281.044-.035.087-.044.125-.063.171-.071.29-.037.407-.187.048-.061.104-.16.156-.313.052-.151.124-.368.187-.656l-.468-.344-.532-.375-.093-.437.187-1 .438-1.875 1.437-.719.282-1.812.53-.438.907-.469 1.531 1.438.813.906v.375l.906.813 1.156-.094.188-.094 1.156-.562v-.063l.188-.28-.907-1.813-.187-.97-.438-.905 1 .28 1.063-.562.906-.625.906-.343-.187-1 1-.532h.906l.625-.656.344-.156.906-.188 1.625-1.25.25-.906.906.188-.094-.563v-.531l.219-.188-.188-.656-.906-.469-.812-.25h-.438l-1-.812-.156-.281h-.906l-.813-.907-.531-.25h-.906l.094-.562-.907-.094h-.28l-.907.469-.688-.906-.28-.532-.907-.28-.188.093-.437-.094v-.187l.375-.344.687-.531-.343-.72-.188.063-.625-.062-.096-.094-.531-.906-.281-.188-.188-.187-.625-.875.18-.473.906-.25h.531l.282-.906-.188-.094.094-.375h.625l.094-.156-.281-.469 1 .188.906.094.531-.625.375-.282h.062l.813.188.906-.188.906.282.625-.375 1 .375h.094v-1l.907-.375.062-.875.093-.282v-.718l-.343-.625-.344-.47-.062-.03.031-.032.031.063.844.25.906.719.094-.094 1-.375v.094h.875l.188-.094.437-.969 1-.469.375-.25.625.25.906.563.907.062.625.813.875-.156.906-.282.281.188.469.562-.062.032.03.03h.626l.906.532.375-.281.156-.156.375.343-.437.907.156.437 1.906.188-.187-.97-.375-.905.375-.907v-.093l.531-.907.281-.625v-.625l-.375-.28-.53-.813h-.438l-.096-.094-.094-.063v-.187l-.282-.094v-.093l-.343-.344.343-.094.72-.375 1 .094 1.718-1.813.187-.437.875-.531-.343-1h-.625l-.375-.625-.532-.094-.625-.188-.468.094-1.157.375-.437-.562.875-.438.469-.812-.094-.907-.907.188-.343.812-.907-.531-.187-.375v-.906l.344-.875h-.062v-.094h-.375v.156h-.25l-.125.094.468.188v.093l-.28.281-.72.25-.437.907.344.093.096.72-.907.374-.25.063-.906-.157-.437-.093.094.906-1-.094-.813.25-.906-.25-.906.25-.188-.437 1.094-1.094-.906.094-.532.468-.625-.468-1-.344-.094-.094-.25-.531-.562-.375-.344.094-.906-.907v-.187l-.188-.813-.875-.156-1 .156.094-.718-.375-.875-.968-.188-.375-1.187-1.813.187-.875-.906.188-.344-.907.813-.468.187-.907-.656-.875.281-.906-.187-.187.187-.625.906h-1.188l-.812-.093-.875.906h-.282l-.968.25-.907-.531-.718-.094-.813-.25.25-.562-.187-.907.562-.156-.812-.906.437-.906.188-.25.906.156.094.094.875-.344.906.093.656-.812v-.188l-.094-.093.625-1.813-.906-.156-.719-.281h-2.781l-1.438-.094-.28-.281v-.438l.53-1.25.094-.093.188-.282.187-.093.156-.875.094-.282 1-.093.906-.438.531-.906h.72l.28-.906.97-.625-.532-1-.813-.344-.093-.906-.813-1 .188-.907.093-.968-.906-.719.281-1v-.094l.094-.718-1 .375h-.906l-.906-.282-.157-.187.094-.906.969-.063.906-.281.719-2.344.187-.187v-.094l.438-.875-.094-.094-.156-.187.719-1.25.875-.188h.75l1.343.281.907.97 1.78.187.095.28.375.97.437 1.625-.094.28h.438l-.344.907-.719.969.188.906v1l.437 1.063.532.093 1.093.188h.625v.531h-.094l-.094.719h1l.438.469.906.343.094.907.906.093.25-.468v-1.875l.907-.813v-.719l.375.094 2.78-.719.907-.375.531-.531.907-.375.812.375.969.187.187-.187.907-.813.468-.906.782-.437 1 .531.187-.531v-.188l-1.906-1.625-.531-.969.28-.718.876-.375.187.093.907.094.53-.906.376.031 1 .063.812-.907 1.782.282.343.906.907.344 1 .093.437-.906 3.969.625 1 .188.344-.094.28-.906 1.813-.72.97.188.718-1 .719-.062 1 .156.812-1.25 1.875-.906.656.094.97.187.905-.187h6.375l1.813-.625.25-.282 1-.343-.062-.907.687-1.343-.343-.907.906-1.812.187-.719-.812-.875-.375-1 .375-.906-.094-.531-.907-.47.25-.968.126-1.625.78-1.812v-.907l.376-.875.531-1 .719-.906-1.157-.969.188-.906-.656-.906.906-1.531-.094-.907 1.531-1.343.907-.72.906.094 1.25 1.157.531-.907 1-.156.531-.906.813-.625.375-.906.625-.907.906-.718.719-.813.812-.187 2.688-1.063.906-.093.344-.813.187-.906.438-.875 1-.281.094-.532.625-.906 1.812-.812.906-.907h.157l.906-.093 1.906-1.063.906-.187.688-.375.75-.438-.188-.719.438-1 1.906-1.062.531-.813h1l.875-.625-.968-.718-.375-.563 1.906-.625-.906-.906.28-.875h-2.343l-.906-.188-.438-1.812.344-.969.531-1 .813-.906-.906-.813-.625-.906-.094-.344-.875-.093-.907-.532-.906.157-.906-.344v-.625l1.438-1.438.374-.28.532-.72.125.063V145.23l22.968-28.125V32.7H1023.137V.513ZM922.99 530.57v.906l-.376.719.469 1.25-.469 1-.25.875.906.562.063-.187.47.187 1.062.813.375-.375.53-.719v.187l-.53.532.28 1.531-.374.625-.813.906-.906.344-1.25 1.812-.687-.812-.031 1.344-.282-.969-.718.344-.438.531-1 .812h-.094l-.062.094-.281 1.906-.906 1.688.094.281c-.473 1.723-.127 3.035-.813 4.688l.094.718.094.532v.468l.625-.187.438-.094.375.719.437-.094 1.438-1.437.094-.094.187-.281h.438l.718 1.469.282.062.281.281v.282l.094.156.156.187.094.282v.812l-.094.438v.093l.094.094.282.437-.47 1.438v.094l-.061-.094-.906.187-.625 1.188h.437l-.437.437.156.907 1.719.093-.188.344.094.281-.531.907-.375.343-.438.532-.343.28-.282.72v.375l-.468.343-.532.907-.812 1.093-1.063.532v.187h-.562l-.25 1.875.719.719.25.906-.157.719.157.906.468.875v.906l-.906.907.375 1 .875.718 1 .188 1.438 1.781.375 1.906v.875l1.437 2.344.25.906.813.907.187.906h.906l.532.344.375.093.437.907.375.187.25-.187.906.906.438-.094 1.906.531.188.375.875.063.187.187v.094h.094l.719.375h.375l1.781.719.906.156.72-.094.718.657.281-.47.813-.187.875.75.562.782.25.468.094.188v.156l.094.281.094 1.907.281.25.062.906-.156 1.156.344.719.906.906.375.906h2.063l.187.094h.719l.875-.719 1.719.72 1.812.718.156-.094h.188l.906-.719.906-.093.25.375.907.343.906.094.187-.281.907-.344 1.25-1.531.625-.094.906.281.906.532.625-.625 1.344-.532.906-.093.969-.188.906-.625 2.25-.812.906-.813.813-.437.281-.281.344.343-.094 2.719-.625.969.438.656-.062.875.343.813-.094 1.906.375.719-.094.906.25.969-.875.625.72.906-.188 1.812.343.282-.062.968.25.907-.437.906.437.906.094.875.719-.156.094.875-1.094 2 .375.625-.437.906-.813.875-1.906 2.813-1.062.53-.282.907-1.812 1.063-1.531 1.187-.625.25h-.875l-.657.469-.875.281-3.531 1.594-.344.187v226.875h69.469v-73.53h-16.375v-12h16.375V597.944H988.4v-14.188h34.844v-88.281h11.562V481.32h-11.562V470.1l2.781-1.187v-.282l-1.25-2.781-.375-.187v-.063l-.094-.187-.875-2.063-.094-.094-.094-.218-.719-1.782-1.53-3.593 2.25-.782 11.593-4.062 2.969-9.281-.25-1-1.719-2.875-1 .375-11.156-1.438-.438-.562-1.437-1.875-1.25-1.438-.563-.812-.187-.094-.719-1-.094-.719v-.531l.906.812.094.907.625.343 2.25-.437.375-.344v-16l.219-.719-1.844-1.218-2.875-.875-1.531-2.25-1.156-2.813-1.282-2.5-1.78-2-1.907-1.875-3.406-.469h-3.782l-.03-.03-.157-.313-1-.625-.156-.375.062-1.875-.719-.563-.906-.344v-.906l.125-1 .062-.344.469-1.093.094-.063-.47-.906-.718-1-.437-.719-.563-1.094-.875-.062-.719-.281-.187-.282-1.906-1.343-.72-.438-.437-.187h-1l.094-.907.282-.25-.907-1.53-.187-.095-.094-.28-.875-.438-1.625-1.813.281-.344.438-.812-.438-.906-.125-.282.375-.906.907.281-.282-1 .563-.875.437-.468.25-.344.094-.188h1l.094-.375-.187-.625-.625-.906.094-.812.906-.532v-.437l-1-.188-.906.094-.438-.375-.375-.437h-.156l-.187-.094-.188-.094-.187-.093-.25.187h-.375l-.094-.094v-.968l-.25-.907-.907-.562-.094-.156-.187-.188.281-.719-.375-.437-.625-.188-.094-.093.188-.907-.438-.906-.094-.156-.812.062-.907.563-.906-.094.094-.375-.625-.906-.625.281-.812.188-1-.188-.907-.344-.968-.28-.907.28-.906-.28-.004-.001h0l-.812 1.156-1.062.281.094.281c-.626.606-1.048 1.03-1.375 1.344h-.062l-1.157.938h-.03c-.181.092-.429.2-.688.312l-.469.094-1 .531-.281.906-.062.72.156.905.375 1.25-.281 1-.188.188-.343 1.875v.812l.094 1v.094l-1 1.781v.094l-.282.188-.812.437-1.688.906-.094.094-.281.094h-.094l-.25.187-.281.156h-.094l-.094.094-.532.281-.187.094-1.25.719-3.781 1.969c-.18.089-.353.194-.532.28l.875 3.313.375 1.188-.094.094-.187.093h-.094l.094.156v.188l1 .281h.094l.28.531v.094l-.655.531-1.156.72-.188.093-1.25.281-.375.156-1.25.282-.094.093-1.156.282c-.01.002-.021-.002-.031 0-.262.066-.522.151-.782.218l-.187.032c-.063.016-.124.046-.188.062l-1.062.281v.031c-.426.118-.85.213-1.281.344l-.062.094h-.188l-.375.094-.25.28c.68.793 1.41 1.599 2.156 2.407.021.022.042.04.063.063.768.833 1.55 1.666 2.282 2.468l-1.188.625-.719.907-.437.906-.094.187h-.375l-1.157.25-1.25.282-1 .625-.718 1.156-1.094.906v.094l-.969.719-1.187-.188-1.25-.156-1.188-.281-1.156-.188h-.344l-.812 3.25.094.719-.656 1.812-.438.532.281.343 1.688-.343.906.25.188.468.718.907 1 1.875.875.906.375 1 1.532 1.875 1.53 2.687.72 1-.094.094.906.906 1.781 2.782.094.625-.437 1 .718.906.72 1.344h.093v11.553l-3.163.04h-24.956l-.166-.883-.764.64-29.228.415v9.598l-4.276.207v20.19l-.969-.28h-.906l-1 .374-1.25-.187-.907.906.375 1.094-.28.875-.626.375-.187.187-.344 1.344-.281.187-.625.157-.188 1 .188.906h.281l-.281.344-.469.562-.875.531-.281.438v.906l.437.906.282.344-.72.906-1.062.907-.375.906.282.625.968.094.907-.188.53.906.282 1.25v.907l.094.03.531.25-.188.876-.062.468.437.907.907.437.531.438-.375 1.812.187.438 1.72 1.718 1.343 2.157.469 1-.094 1.812-.375.969-.531.375.093.625.094 1 .875.25h1.281l.97.094v1.812l.374.156h.906l1.875.47.625.905.094.157 1 .375.281.906-.468.625.812.906 1.906.875 1.25.906.72 1 .905.532-.468.812.812 1.094.375.875.969.187.187.094.47.375.968.438.719 1-.094.906.281.781.719 1-.188-.094-.156-.25.337 1.076.735.408.362.92 2.877 1.407 1.247-.62 2.657.5.887-.817 1.768-.077.027.801 1.795 1.87 1.662.517-.033 1.095 1.398.6ZM953.771 32.695v16.25"/><path fill="#8cce55" stroke="#0f380f" stroke-opacity=".145" stroke-linecap="round" stroke-linejoin="round" d="m978.156 365.08-.812 1.156-1.063.281.094.281c-.626.606-1.047 1.03-1.375 1.344-.491.474-.777.704-1.219.938h-.031c-.18.092-.428.2-.688.312l.157-.031c-.39.171-.894.345-1.625.656l-.282.906-.062.72.156.905.375 1.25-.281 1-.188.188-.343 1.875v.812l.093 1v.094l-1 1.781v.094l-.281.187-.813.438-1.687.906-.094.094-.28.094h-.095l-.25.187-.28.156h-.095l-.093.094-.532.281-.187.094-1.25.719-3.781 1.969c-.179.089-.353.194-.532.28l.875 3.313.375 1.188-.093.093-.188.094h-.093l.093.156v.188l1 .281h.094l.281.531v.094h-.031l-.625.531-1.156.72-.188.093-1.25.281-.375.156-1.25.282-.093.093-1.157.282c-.01.002-.021-.002-.03 0-.262.066-.523.151-.782.218l-.188.031c-.063.017-.124.046-.187.063l-1.063.281v.031c-.425.118-.85.213-1.28.344l-.063.094h-.188l-.375.094-.25.28c.68.793 1.41 1.599 2.156 2.407.021.022.042.04.063.063.768.833 1.55 1.666 2.281 2.468l-1.187.625-.72.907-.437.906-.093.187h-.375l-1.157.25-1.25.282-1 .625-.718 1.156-1.094.906v.094l-.969.719-1.187-.188-1.25-.156-1.188-.281-1.156-.188H942l-.812 3.25.093.719-.656 1.812-.437.532.28.343 1.688-.343.907.25.187.468.719.907 1 1.875.875.906.375 1 1.531 1.875 1.531 2.687.72 1-.095.094.907.906 1.78 2.781.095.625-.438 1 .719.907.719 1.343h.093l.813.282.812.625 1.438.812 1.25.969 1.094 1.906.53 1.781.813.907.532 1.531.187.906-.375 1-.094.875.094.906.625 1.813-.156.906.437.969.719.907 1.156 1.813.907.718 1.718.625.907.625 1.875 2.157 1.718 2.718.282 1.782.968 1.25.282.906.437.562.469.875 1.875 1.375.812.875.375 1.813.438.094.468.906.782.969.562 3.156-.656 1.719.375.906.094.875-.907.093.094.188.906.187.813 2.594v.906l.344.907.093.906.625.969.282.906-.188 1.969 1.094 1.906.188.625.875-.094.906.47 1.812-.095.907-.625.968-.093.907.25v-.25l.437-.188.094-.187-.094.468.563-.906 1.062-.375.906-.906.907-.625.875-.156 3.625-.188.968-.469 1.625-.343.907-.375.906-.875 1.781-.813.906.25 1.969-.25.906-.719.719-.906.906-.812 1.813-.907 1.781-.437h1l1.813-1 2.406-.531 1.093-.282 2.688-1.437.906-.281.469-.719-.188-.875.188-.906.25-.563.906-.781h.094l2.781-1.188v-.28l-1.25-2.782-.375-.188v-.062l-.094-.188-.875-2.062-.094-.094-.094-.218-.718-1.782-1.532-3.593 2.25-.782 11.594-4.062 2.969-9.281-.25-1-1.719-2.875-1 .375-11.156-1.438-.438-.562-1.437-1.875-1.25-1.438-.563-.812-.187-.094-.719-1-.094-.719-.875-.25-.094.094.094-.906-.375-.188-.437-.531.875-.094.906-1.812v-1.157l-.344-.718-.187-.813.437-.625v-1.094l-.344-.25h-.375l-.343-.75h-.907l-.812.907v.468l-.344.532v.906l-.469.187-.156-.093v1.968l.438 1.532v.187l-.188.094-.344-.094-1.187-2.969-1.625-1.812-.156-.906-.563-.344.094-.813.906-.093.094-.375-.28-.875-.72-.72-.094-.562.094-.343.188.343.094-.093.437.281-1-1.063h-.343l-1-.718-.344-.907-.281.25-.625-.093.094-.25-.438-.282-.906-.906v-.531l-.188.093-.437-.437-.657.062-.25-.718.25-.25.095.25v-.532l-.438-.343v-.47h-.188l-.906-1.968-.53-.719-.095-.906-1.156-1.531-.281-1.344-1-.187-.157-.907.907-.437.53-.094-.624-.906-.281-.969v-.562l2.343.906.344-.188-.344-.156-.625-1.375-.03-.031-.157-.313-1-.625-.156-.375.062-1.875-.719-.562-.906-.344v-.906l.125-1 .062-.344.468-1.094.095-.062-.47-.906-.718-1-.438-.72-.562-1.093-.875-.062-.719-.282-.187-.28-1.906-1.345-.72-.437-.437-.188h-1l.094-.906.281-.25-.906-1.531-.188-.094-.093-.281-.875-.438-1.625-1.812.281-.344.438-.812-.438-.907-.125-.28.375-.907.906.281-.281-1 .563-.875.437-.469.25-.343.094-.188h1l.093-.375-.187-.625-.625-.906.094-.813.906-.53v-.438l-1-.188-.906.094-.438-.375-.375-.438h-.156l-.188-.093-.187-.094-.187-.094-.25.188h-.375l-.094-.094v-.969l-.25-.906-.906-.563-.094-.156-.187-.187.281-.72-.375-.437-.625-.187-.094-.094.188-.906-.438-.906-.093-.157-.813.063-.906.562-.906-.093.093-.375-.625-.907-.625.282-.812.187-1-.187-.906-.344-.97-.281-.905.281-.907-.281h0Z"/><path fill="#8cce55" stroke="#0f380f" stroke-opacity=".145" stroke-linecap="round" stroke-linejoin="round" d="m1003 403.58.375.28-.656.532.468.906.875-.343-.25-.72-.562-.655h-.25ZM1013.25 407.205l-.188.093.094.156.094-.25h0ZM1010.094 416.923l-.97.157 1.063-.063-.094-.094h0ZM1013.812 422.673v1l.532.875.156-.78v-.907l-.688-.188h0ZM973.844 467.205l.53.906-.343-.906h-.187ZM973.562 468.298l.907.625.906.375v-.562l-1.813-.438ZM965.375 472.517v1.281l.625.094.906-.281-.906-.188-.625-.906h0ZM1027.844 487.642l-.563.906.906.625.907.282 1.437-.188 1.906-1-1.906-.625-.906.188-1.781-.188h0ZM1021.625 489.986l.906.281v-.281h-.906ZM964.75 569.548l-.906.438.28.906h-.374l.656.969.25-.875.094-1.438h0ZM962.406 573.673l-.437.375-.375.719.093.875.375.188.813.906.437-.188-.187-.906-.625-.969-.094-1ZM980.406 599.955v1.812l1 .625v-.625l-1-1.812ZM1007.75 602.923l-.062.907-.813.968-.906-.25.531.907.282.875-.188 1-.281.375v.875l-.875.812-.906.469-.532.906-1-.656h-.906l-.281.906.656.906.094.438-.562.812-.875.625.343 1 .907.188v.719l-.47-.532-.905.25-1.344 1.907.469-1.907-.907.625-.343.907-.813.906.813.906-.188.188h-.281l-.188.156-.343-.344-.375-1-1.875 1.25-.907.813-.093.906.718.625-.344-.094-.281.188-.282-.344-.25-.906-.906.625-1.343-.282-1.813 1.438-.906-.438-.907.907-.437.187-.906-.187H986l-.281.906.187.875-.187.812-1.157 1.813-1 1.875.438 1.375-.063.969.157 1.812.906 1.875-.094.906.188.907.531.812.281.188.157.875-.25.562-.094.813.187.156.157.719-.063.28-.906 1.188-1 1.97-.719.905-.187.875-.532 1-.53-.093-.626.562-.094.875-.53.906-.563 1.532.28.625-.093.906.375 1.812.438.97.718.905.094.907.625 1.25-.531.625.094 2.812 1.25 1.781.187 1 .531 1 .907.438 1 .719 1.156.187 1.781 1.344 1.906-.094 1.344-.906 1.813-.875 2.5-.281.906-.47.812-.874.813-1.813.187-1 1.063-2.5.094-.906.718-2.062.907-4.157 1.437-3.406 1.625-6.031.813-1.906-.188-.157h.281c.77-4.497 4.02-8.462 3.063-13.156l.625-1.437 1.156-1.875-.094-.907-.719-1.53.094-.907-.187-.906.469-.97.718.626.438.906.625.813.812-.375.375-1 .344-.875.094-.907-.906-1.625-.25-.906-.188-.906.094-.969-.281-.906-.187-1.813-.875-2.687-.094-.906-.532-.907-.906-.718-.187-.907-.72-.875-.905.094.625-.906-.907-.188h0ZM986.25 603.455l-.875.28.875.72v-1ZM982.312 604.267l.875.188v-.188h-.875Z"/><path fill="#8cce55" stroke="#0f380f" stroke-opacity=".145" stroke-linecap="round" stroke-linejoin="round" d="m1011.719 624.892-.157.25-.281.906.438-.906v-.25ZM955.5 778.423c-.691 0-1.306.322-1.719.813v2.875c.413.49 1.028.812 1.719.812a2.25 2.25 0 1 0 0-4.5ZM958.906 462.455l-1.344-.907-1.906-1.812-.906-.625-.875-.156-.094-.188-.375-.719-.719-2.812v-.875l-.437-2.438v-.906l.25-1-.531-2.687.718.437-1.25-1.781-.468-1-.36-1.73h-24.956l-.166-.883-.764.64-29.228.415v9.598l-4.276.207v20.19l-.969-.28h-.906l-1 .374-1.25-.187-.907.906.375 1.094-.28.875-.626.375-.187.187-.344 1.344-.281.187-.625.157-.188 1 .188.906h.281l-.281.344-.469.562-.875.531-.281.438v.906l.437.906.282.344-.72.906-1.062.907-.375.906.282.625.968.094.907-.188.53.906.282 1.25v.907l.094.03.531.25-.188.876-.062.468.437.907.907.437.531.438-.375 1.812.187.438 1.72 1.718 1.343 2.157.469 1-.094 1.812-.375.969-.531.375.093.625.094 1 .875.25h1.281l.97.094v1.812l.374.156h.906l1.875.47.625.905.094.157 1 .375.281.906-.468.625.812.906 1.906.875 1.25.906.72 1 .905.532-.468.812.812 1.094.375.875.969.187.187.094.47.375.968.438.719 1-.094.906.281.781.719 1-.188-.094-.156-.25.337 1.076.735.408.362.92 2.877 1.407 1.247-.62 2.657.5.887-.817 1.768-.077.027.801 1.795 1.87 1.662.517-.033 1.095 1.398.6.375-.304v.906l-.375.719.469 1.25-.469 1-.25.875.906.562.063-.187.469.187 1.062.813.375-.375.531-.72v.188l-.53.532.28 1.53-.375.626-.812.906-.906.344-1.25 1.812-.688-.812-.031 1.344-.281-.97-.719.345-.437.53-1 .813h-.094l-.063.094-.28 1.906-.907 1.688.094.281c-.296 1.077-.3 1.998-.407 2.938.034-.188.061-.374.094-.563-.029.374-.083.75-.156 1.125-.018.094-.04.186-.063.281a5.726 5.726 0 0 1-.281.907l.094.718v.031l.093.5v.47l.625-.188.438-.094.375.719.437-.094 1.438-1.437.094-.094.187-.281h.438l.718 1.468.282.063.28.281v.281l.095.157.156.187.093.281v.813l-.093.437v.094l.093.094.282.437-.469 1.438v.093l-.063-.093-.906.187-.625 1.188h.438l-.438.437.156.907 1.72.093-.188.344.093.281-.53.906-.376.344-.437.531-.344.282-.281.718v.375l-.47.344-.53.906-.813 1.094-1.062.531v.188h-.532l-.28 1.875.718.719.281.906-.187.719.187.906.438.875v.906l-.907.906.344.97.031.03.875.688 1 .187v.032l1.438 1.78.375 1.907v.875l1.437 2.344.282.906.812.906.125.75.031.125v.032h.907l.53.343.376.094.437.906.375.188.25-.188.907.907.437-.094 1.906.531.188.375.875.063.187.187v.094h.094l.719.375H933l1.781.719.906.156.719-.094.719.656v-.03l.25-.438h.031l.781-.188.406.344.22.156.28.219v.031l.22.313.343.468.25.47.094.155v.188l.093.281.094 1.875v.031l.125.125.125.125h.031l.063.906-.156 1.157.343.718.907.907.375.906h2.062l.188.094h.718l.875-.72 1.719.72 1.813.718.156-.093h.187l.907-.719.906-.094.25.375.906.344.906.094.188-.282.906-.343 1.25-1.532.625-.093.906.281.907.531.625-.625 1.343-.531.907-.094.968-.187.907-.625 2.25-.813.906-.812.812-.438.282-.28-.563-1-1.437-.72-.188.375-.625-.906h-.437l.28-.906-.655-1.531-.062-.906-1.188-1.875-.344-1.813-.093-1.062.625-.907.093-.375-.187-.968-.719.156.281-1.781.25-.72.813-.905v-.438l-.907-.719h-.25l-.468-1-1.532-1.25v-.906l-.25-.906.438-1.531.813-1.97.093-.905.625-1-.093-.625 1-.532.625-.906.375-.906v-.625h.156l.281-.344.531-1v-.531l.469-1 .875-1.25.188-1.813.906-.906.625-.094.906-.343 1.438-2.625.906.187.906-.344 1.969-2.718v-.438l.531-.906v-.375l1.438-1.063 1.53-1.812 1.438-1.344 2.719-2.969 2.5-2.062 1.813-1.719 2.687-1.875 1.531-.719 3.063-1.812 3.531-3.406 5.563-6.032 1-1.906 3.125-4.312 1-1.907.375-1.78.875-1.813 1.375-1.782.625-1.187.343-.906-.094-.344.188-.438 1-.75.437-.968.719-1 .656-1.72.875-.874.094-.656.813-.875-.188-.813.469-1.812v-1l.344-.782.906-.28.906.28-.906-.375-.719.094.625-.906-.343-2.688.062-.906.75-1.812-1.813-.813h-1l-.719.906-1.781 1.094-1.813.25-3.593 1.094-1.188-.375h-.875l-1.812.812h-1l-.906.188-.875-.344-1 .156-2.688 1.72-.906.28-1-.093-1.781-.47-1.094.188-.906.532-.97.28-1.28.813-1.782.188-1.281-.094-.531-.281-2.531-2.156-1.063-1.875-1.625-1.094-2.156.187.719-.906 1.437-.437.375-.47.969-.343.187-.531-.281-.906-.438-1-.718-.907-1.25-.625-.563-.906-1.781-1.781-.469-1-1.875-1.156-.906-.72-1.813-2.437-.875-.53-.906-.282-1.531-1.344-1.344.25-.468-.25-.438-.906-.188-.906-.968-.344-.094 1.875-.281-1-.438-.875-.906-.656.188-.25-1-2-.532-3.22-.812-2.718ZM1040.627 418.611l-1.906.281-.625.813-.907.343-.906.813 3.688-1.344.906-.719ZM1029.533 432.205l-.25.562.531-.093-.281-.47ZM1052.502 450.205l-.75.906v.906l.75-.906ZM1094.094 90.455a6.392 6.392 0 0 0-.938.062h-.281l-.188.063c-.91.158-1.864.457-2.812.812l-.844.219-1.906.937c-.762.327-1.445.589-1.969.75l.438 1.907-1.782-.532-1.093.72-.907.343-.874-.188-3.688 1.625-1-.28h-1l-.906.468-1.875.625h-1.969l-1 .531-1-.719h-1l-1.781-.53-2.875.437-.532.906.438 1-1.875.094.875-.625h-1.781l-.907.25v1l-1 .093-1.062.438h-.906l-1.969.719-1-.094-.906.469-.719.906-2.781.531.156.906-1.875.438.188.906-.376.906-.874-.468h-1.907l-.906.562.438.875-1.876 1.375-.812-.906-.906-.281-.907.187-.437.906.906.875 1-.25.969.625 1 .094-2.875.813-.906.53 1 .188.968-.187 1.813 1h1l-.906.094-1.969-.188-2.875.344-.563.906.907.375.968-.187 1 .718-2.968.282-.907.718 1 .063.907.75-1-.188-1.782.25 1.876.469.906.813-2.875-.47-1.907 1 .095.907c-2.256-.014-2.13 1.083-3.813 1.719-.24.09-.518.183-.844.25l.875.719 1 .468.907-.093.968-.625.907-.188 1 .188.968-.094-2.78.875-.907.656-.062.875-.375 1 1.531-.531 1.344-.531.906.062 1.906.813.875-.094.907.187 1-.625.343 1 2.875.25.094-.968 1 .25.907-.72.094-.905-1-.438-.907-1 1 .813 1 .28.875-.187 1-.718-.812-1-1-.438-2.875-.531 3.781.437.906.813 1-.094.344-.969-.625-.906-.906-.719-.875-.375.875-.718.625 1 .906.437 1-.625.906-.187.875-.438-.875-.437 1.875-.657-1-1.875-.875-.906 1.97.625.905.469.875-.625.375-1-.094-.906 1.907 1.093.875-.093v-.906l-.969-.72.969.438 1 .188 1.343-.344.375-.906.907-.094.187-.906h-1.906l-.906-.188v-.156l1.718-.094.97-.28 2.812-1.72.906-.968.094.875.969-.344 1.812-1.438.907-.093 1.875-.72.906-.187.969-.437h.906l1-.281.812-1 .969.656 1.906-.719 3.688-.719 1.906-.812 1.875-.469 1-.094.969-.437.906-.094 1-.531 1.875-.375 2-.906 1.875-.625 1-.157.906-.562.907-.906.968-.625.282-.97.625-.905v-.907l-.532-.906-2-.812-.968-.094-.532-.25c-.048-.018-.107-.015-.156-.031l-.313-.157h-.124a4.537 4.537 0 0 0-.657-.062h0Z"/><path fill="#8cce55" stroke="#0f380f" stroke-opacity=".145" stroke-linecap="round" stroke-linejoin="round" d="m1032.781 124.36-1 .626-.906.344-1.875-.25-1 .625-.875.093-.469.282-.281.968.906.625-.968.469.874.719-1.874-.375-1 .281-.876.625-.375.906 1 .344.876-.062 1 .156-.876.625.876-.063-1.876 1.344.813.906-1 .344-1 .094.281 1-.468.875-.875-.438-1 .094-.907-.188-.906.532-.531.906-.282.906.095 1 .906 1.875.906.531 1-.062.906-.813 1.97.157.437 1 1 .187 1.78-.906-.155 1 .906.906.812-.906.875-.094-1 .438-.875.906 1 .437 1.782-.156.468.969-.906-.25-2 .812.906.875-.906.47-.969.187.97.062.905.469 1 .094.875.25h1l.907.656.906.062-.625-.875.875.875 1.906.813.281-.875.875-.563.907 1 1.812.344-.906-.875 1.875.625.906.531 1-.343-1.969-1.282h.97l.905.625 1 .47 1.875.25-1.875-.72h.875l1.094.375.906-.28.25-.907-2.78-1.156-3.126-2.47c-.284-.292-.583-.56-.844-.874l-.25-.531-1.125-1.469c-.445-.72-.874-1.453-1.219-2.219l-.187-1-.438-.875.188-.906.531-.906-.531-1-.282-.875-1-.281 1.813-.094-.531-1 .968-.063v-.906l1-.375-1.968-.344 1.875-.187.906.281 1-.812-.375-1-.906.28-.969-.28 1.875-.282.906-.437-1.906-.188 1.906-.25.969-.468-.969-.72-1.812-.343-.907-.469h-1.874l-1.094-.53-.875-.282-1.813.375h0ZM1053.375 149.455l-.875.375-1 .812.906.719-.906-.094.188 1.781.343.375 1.813 1.157.906-.25.969.25.281.906 1 .469 1.063-.188.906.25.906-.344.531-.906-.343-1-.907-.344-1.093-.906-1-.187-.97-.625-.812-.907-1.906-1.343h0ZM1053.031 159.173l1.532 1.344-.626-.969-.906-.375ZM1007 157.517c-2.22.148-3.976 1.646-3.469 5l1.907 1.25 1.875-.187 1.812-.438.969-.437 1.625-1.813.906-.281-.188.906.813-.906c-1.34-2.056-4.03-3.242-6.25-3.094ZM1017.406 165.673l-.906.157-.906.562.094.156 2.687-.812-.968-.063h0ZM1054.375 40.048l-4.938.344-.906.375.907.156-.376.907 2.813-.532h2.875l.625-1-1-.25ZM1073.188 41.486l-2.063.25-1-.188-2.063.375.095.188c2.26.451 4.69 1.429 7 .625l-.094-.906-.97-.282-.906-.062ZM1066.25 42.736v.344l.906.375 1.094-.282-2-.437ZM1047.094 43.267l-1 .375-.969.094-.906.25-1 .625 1.968.187 1-.093.907.468 2.062.25.813-.093 1.093-.72-.906-.343-1-.094-1.093-.375-.97-.53ZM1052.844 45.08l-1.875.625v.187l.968.25 1.907.188.906-.907-.906-.343h-1ZM1042.406 45.173l-.968.532.53 1-2.906-.72-.874-.093-.907.156.188 1 .094.188 1.875.094 1-.282 1 .532 4.75-1.157h1.093l.97-.187-.876-.344-.906.156-2-.718h-1.063l-1-.157h0ZM1048.344 46.86l-1.875.188-1.907.47.376.343 1.968.187.907-.28.53-.907ZM1078.688 47.423l-.907.25-.375 1-.531.907-4.063.187-.968.625-1.907.719-.25.437 2.97 1.344c3.248-.99 8.255.289 10.593-2.969l-.062-.875-.75-.906-.875-.469-.906-.25h-1.969 0ZM1014.438 47.673l-.907.47.094.905-.187.157 1.812-.72.969-.187-.906-.625h-.875 0ZM1063.281 48.142l-1.875.25-2 .563-.906.437.188.375 1 .344 2.874.281.907-.281 1.906-1v-.969h-2.094ZM1033.063 48.236l-.813.969.094.28 2.969.438.875-.093 1 .656.906.156.906.469 2.875.344 2.875 1.343 1.875-.53.281-1-3.78-.782-1-.813-2.063-.625-1.969.25H1037l-.875-.437-3.062-.625h0ZM1039.969 48.298l.812.375 2.094.438.969.719 1 .093.968.813 1.907.375 1.968-.906-1.968-.375-.907-.72-1.968-.25-1.907-.468-2.968-.094h0ZM1048.969 48.298l-.907.75 2.376.97.968-.095.469-.875-1.906-.656-1-.094ZM1012 50.392l-1 .156-1 .563-2.781.719.906.53.906.282.907-.187.062.906-1.063-.094-.719.906-1 .438-.968.281-1-.187-1-.532-1 .344-.875-.094-2.813.907 1.906-.188 1.094.094.969.469-2.063.062 1 .656-1 .438h-2.781l-1-.531-1 .343.281.907 1.094.812 1.875-.719.906-.093h.969l1 .437-1 .281-.875.532-.188.28.907.188 1.875-.468 1 .187.187-.906 1.969.562.531-1-.968-.437-.188-1H1010l.906-.375-.344-.875 1.875-.375 2.969-.094 1-.187 1.094-.875h.875l1-.375-1-.813-.97-.437-1.905.25h-1l-.97.468.345-.906 2.062-.375-.156-.875-2.969.625h-.906l1-.469-.906-.156ZM1035.313 50.548l-1 .657-1-.282-.876.188-1.093-.094-1.094.25.469.563h1.968l1 .53.907.095 1.875-.438 1.906-.187 1.063-.282-4.126-1ZM1052.313 50.548l-1.876.188-1.906.531-.094.563 2.782.343 1-.343h.906l.094-.907-.907-.375h0ZM1066 50.642l-3.156.719-2.875.281-1.907-.187.907-.344h-1l-.969.25-1.906 1.187-.438.907.157.968v.375l1.906.813.906-.094 1.969-.531 2.718.781.97-.156.906-.813 1.062-.187 1-.813.906-.093 1.438-1.782-.719-.906-.906-.281-.969-.094h0Z"/><path fill="#8cce55" stroke="#0f380f" stroke-opacity=".145" stroke-linecap="round" stroke-linejoin="round" d="m1000.125 51.017-1 .188-1 .718-.969.25h-1l-1.906.625-5.938.657.188.343 1 .094 1.875.625 1-.187 1 .28.188.907.875-.187 1.906-1.063h1.062l1.907-.906.718-1 .969-.344 1.906 1.156 2.875.438-.531-.875-.188-.906-1-.375-1.968.187-1.969-.625ZM1040.938 51.736c-1.329.084-2.749.676-3.75.719l.562.718.969.282h1.093l.97-.188 2 .188.968-.282c-.575-1.026-1.364-1.381-2.25-1.437a4.454 4.454 0 0 0-.563 0ZM1030.438 53.798l-.907.094-.094 1 .282.344 1.906.469.718-.907-1-.906-.906-.094h0ZM1045.563 54.986l-1.094.344.906.718-.094.907.188.906.718.969.907.187 1.625.094-.188-.906h.906l.875-.532-.875-.437 1-.375h.875l.907-.281 1.093.093.875-.53-3.75-1-2-.157h-2.875 0ZM1026.844 55.767l-1.782.094-.75.906-.968.375-.907.719 1.625.531 2.97-.187.968-.188.75-.875-.906-.375-1-1ZM1043.313 56.33l-1 .437-2.063-.25-.906.875.187.906-.906.532.094.375 1 .187 3.969.094.875-.281.094-.907-.281-1.875-1.063-.093h0ZM1011.813 57.673l-1 .282-.625.968.906.563.094.062.906-.718.719-.97-1-.187h0ZM1055.469 58.923l-1.813.47-1 .812 1 .25.907.53 2.062-.25 1-.53-.375-.188-.719-.906-1.062-.188ZM1016.406 59.11l-1 .438-.906.657-.25.156-1.094-.156-.906.343 1 .188 3.969.25.968-.25-.875-.531.095-.657-1-.437h0ZM1024.938 141.798l-1.876.094-.906.813 1.907.625.624 1 .907.906.906-1.438v-1l-.906.094-.813-1 .907.812-.75-.906h0ZM1043.5 148.548l.875.657v-.47l-.875-.187ZM927.838 153.861l.719 1-.875-.187-.813.906-.906.375-1 .625.469-.906-2.438-.625.094.344.25.906-.438.906h-.906l-.969-.281-.906-.625h-.094l.094.281v.094l-1.094 1.687-.968.282-.907.343-1 .094-.343 1.531-1 .906h-.375l-2.5 1h-.188l.188.094h.906l.437.875-1.437 1.906.094.188.093.156.813 2 .875.625 2 .531.906.907.719 1 1.687 1.156v.281l-.25 1.25-1 .813-.906.812-2.156 2.781v.72l1.437 1.812c.247.59.547 1.123.875 1.656.037.06.057.128.094.187.3.479.607.94.906 1.407l.094.125c.768 1.212 1.438 2.467 1.469 4l-.563-.094-.969.187-.28 2.438-.376.875h.906l-.25.906-.906.719.344.906.906.719.625-.094.906.813-.906.719-.094.375.094.156.188.187.53 1.094.907.25.906.563.188.875-.094.656-1.719 1.781-.437.188-.563.187.563.531.437.438.344.187.563.282.53.437.376.281.344.125.625.219.53.438.47.375 1 .562.343.875 1 .813.25.562-1.343 2.688-.72.718-.905.907-1.438 1.062-2.687 2.719-.188.344-1.781 1.625-.375.093-.094.094-1.062 1.25-2 1.344h-.094l-1.156 1.093h-.281l-.157.094-.718.625-.907.813-1.187 1-.344.343 1.063.188 1-.375 1.906-1.156.25.25-.25.812.062.906-.875-.343.625.875 1.969 1.375h1.906l.969-.094.906.344.625.906.719.094.281.625-.093.28-4.782-.905-.718 1-.875.53-.907-.28-.906.093-.187.907-.907-.375-.875-.063.25.875-.25.906.438.375.375.25v.282l-.469.375-1 .156-.062.719-.563 1.187-.625.344-.531.469-.188.968.375 1.813.094.281-.375.969.906 1.812h.094l-.094 1.157-.281.093-.344.282-.562.906-.156.719.437.093.906.875.719.469.188.875-.188.281-.281.094-.094.906-.437.969.53-.063.376-.093.281.906.531.875h.094l.625.906.094.469v.062l.156 1-.25.532.059.144-.68-.24-.854.254-.818.836-.48.312-.075.592-3.113.104-.55.697-1.071.256-.762 2.334 1.182.467-2.574 1.677-1.701.85-1.036 3.508.871.947-.976.06-.295-.892-1.807.961-1.101-.023-.278 1.023-1.654.541-2.244-.342-1.762.028c.045.543.36 1.267.469 1.718v.032c.223.74.552 1.447.875 2.156v.031c.215.47.444.944.656 1.406l-.187.188.281.906v1.063l-.375.75-1.781.718-.375.25-.094.188-.062.093-.563.625-.25.438 1.531.906.344.188.281.187v.092l.094.156-.281 1.719h-.094l-.187.719.302.732 1.858-.56 1.529-1.537 5.338-.24 9.71 1.962.01.637.25.033.69-.795 1.815-.27 2.117 1.52.443-.832 1.184-.504.365.164 1.043 1.383 3.844-.656 1.648 1.414.448-.897-.358-1.562 1.912-2.647 4.008-.218 1 .343.906-.062.719-.906.188-.188v-.531l.875.094.812.343h.906l.907-.437.53-.281.813.093h.282l.156.188h.031l.063.25.906-.531c.355.181.61.327.812.468 1.444.996-.392 1.153 2.156 2.875l-.812.875h-.156l-.282.282.344.437.281.906.188.375h.094l-.282.625-.187.094c.655-.074 1.061-.039 1.344.031.14.035.25.077.343.125.279.146.402.313.782.313.118 0 .288-.022.468-.063.198-.046.452-.111.75-.218l.563.437.062.156c.024.027.038.067.063.094l-.031-.094c.211.232.401.48.593.75l.063.094.125.156.281.469c.023.039.042.087.063.125.15.268.31.544.406.781v.094l-.188.875.72.906.53.469.72-.469.812-.094.906.563.344.437.562-.187.875.625.906-.625.188-.094.438-.093h.812l.906-.532.906.532.625.906.438.625.906.375.094.187.094.063.28.469.782-.532-.062-.093.78.093.907.25.906.375.907.532h.25l.906-.438.906.875h.906l.532.813.906.28.437-.28.094-.094.625.094-.344.906.282.375.156.531-.719.906-.969.625-.093.813.875.25.187-.063.188-.093.187.156-.375.375-.875-.094-.562.906-.094.188v.25l.906.469.281.906-.375.156.188.188.094.093h.187l.063-.093h.187v.375l-.094.062-.625.906.094.094-.344.375v.875c-1.54.018-2.832.038-4.343-.062l-.438.875-.375.093-.062.094-.907.281-.906.907-.375.875.094 1 .094.28.375-.093.968-.562.907-.157-.907.344.657.281.875-.187.906-.625.906.187.094.72.531.093-.531.625-.906-.094-1.875.906h-.907l-.468.907.906.343-1.781-.187-1.813.812.906.813.907.375 1.687 1.781-.875-.25-.906.156-.469.907-.156-.907-1.094 1.813-.906.437.469.907-.563.906-.344.062-.531.125-1.188-.093-1.25-.532-.906.438 1.094.531-.906.281.187.532 1.875.625 1.532 1.812.093.031.813.157.906-.282 1.687 1.813 1.813.344 1.875 1.343 1.812 1.532.813.906 1.719 1.437.066.022 1.3.408 1.347-.156 3.96 1.287 3.127.305 1.243-.317 1.834.664 1.175 1.91.72.287 1.921.805-.207.426 1.57.754 1.252-.75.262-.494 1.283-.09.826.685.467-.597 1.746.992 2.125.406-.213 1.037 4.223.782-.002.002 2 1 .719.875.969.718.562.907 1.688.375.906-.625.719-.907h.187l1.344-.625.094-.187.531-.906.094-.188.047-.023-.029-.057h-.121v-.094c-.169-.007-.28.002-.344 0-.017-.002-.048.007-.06 0-.023-.009-.039-.04-.063-.062a.743.743 0 0 1-.125-.125h-.03l-.062-.094h-.03l-.06-.093h-.032v-.063l-.094-.187v-.188l-.096-.187h-.059v-.092l-.095-.063-.062-.093h-.119v-.094l-.062-.094h-.03v-.094l-.062-.093h-.029v-.094l-.062-.094h-.027v-.091l-.062-.063h-.03l-.095-.094v-.093l-.06-.094h-.03v-.094H1003.01v-.093l-.158-.094h-.12v-.094h-.091l-.062-.094h-.031v-.062l-.094-.094h-.092v-.093l-.062-.094h-.029v-.094h-.062v-.187h-.087v-.157l-.061-.093h-.031v-.094h-.093v-.094l-.059-.093h-.28l-.062-.092h-.124l-.064-.094h-.027v-.156l-.06-.094h-.032v-.281h.092v-.156l-.098-.125-.06-.063-.22-.469h-.087v-.093h-.062l-.093-.188v-.062H1000.418l-.093-.188h-.094v-.094h-.088l-.063-.093h-.029v-.531l-.062-.063c.15-.613.154-1.135.156-1.656v-.092c0-.29.014-.591.061-.906h-.03l-.062.092v.375h-.091v.093h-.124v-.093h-.094v-.188l-.063-.092h-.031v-.093l-.063-.094h-.03v-.156h.03l.094.062h.063v-.062h.03v-.032h.063v-.156h.031l.063-.094.063-.093-.063-.094v-.187h.031l.03-.063.03-.031h.062l.027-.406v-.03H1000.116v.092h-.123v-.092h.062v-.25h-.155v-.281l-.063-.094h-.032l-.062-.093h-.031v-.188h-.094v-.219l-.031-.03h-.063l-.062-.095h-.031l-.063-.093-.062-.094h-.062v-.187l-.063-.094v-.156l-.313-.282h-.031v.094h-.123v-.094h-.156v-.093h-.093v-.094h-.095v-.092h-.093v-.219l-.469-.406h-.156l-.063-.094h-.217l-.062-.093h-.156v.093h-.218l-.063-.093h-.031v-.063h-.188v-.093h-.092c.013-.222-.007-.297-.031-.344-.004-.008.004-.025 0-.031-.01-.011.005-.042 0-.063-.004-.014-.027-.016-.031-.031s-.03-.01-.032-.031l-.062-.031.062-.032v-.062h.032v-.031h.062l.094-.063-.063-.094h-.03v-.093h.093v-.375h.186v-.157h.03v-.03l.063-.063h.031v-.031h.25l.063-.063v-.094h.031l.063-.093h.093l.092-.092.094-.063v-.03h.031l.063.093h.062v-.188h.031l.063-.062.03-.031.063-.063-.093-.187v-.375h.153v.375h.094v.156h.063v.123l.062.062h.032l.062-.062v-.188h.094v-.53l-.063-.093v-.03h.188v.093h.03v-.063h.032v-.03h.063v-.063h.187v-.094h.031l.063-.094v-.281h.093v-.156h.032v-.031h.062v-.157l.063-.093v-.375h.405v.093h.063v-.718h.031l.063-.094v-.063h.031v-.03h.063v-.157h.03l.063-.094h.063v-.092l-.063-.062-.093.062h-.094v-.093h-.094v-.094h.532v-.344h.028v-.03h.062v-.063h.089v-.094h-.09v-.188h-.088v-.091l-.032-.063-.03-.031h.152l-.25-.313-.124-.218h-.062v-.157l-.032-.03h-.06v-.063l-.094-.094v-.094h.03l-.124-.25.469.313h.094l.03.031.063.062.029.032-.03.03.25.157-.095-.812.25.343h.156v.094h.089v.063h.06v.029h.03v.156h.25l.062.094h.216v.187l.096.188h.091v.062h.06l.06-.062v-.094h-.09v-.092h.03l.062-.093v-.25h.03v-.032h.188v.188h.061v-.094h.031l.061-.062h.031v-.032h.125v-.062h.031v-.031h.094v.031h.031v.094l.061.062h.061v-.062h.03v-.032h.154v-.156h.218v.063h.063l.027.03h.059v-.03h.376v-.063h-.031v-.093h.28v-.188l.06-.094v-.156l.032.031v-.062l.03.031h.061v-.031h.096v.031l.029.031.029.031h.279v-.062h-.186v-.094h-.062v-.031l.062-.063h.03v-.03h.156v-.157h.06v-.094h.091v-.093h.276l.096-.094h.098v-.094h.119v.031l.094.063h.091v.094l.06.093h.031v.094h.062l.094.094h.031l.061.062.125-.5h-.125l-.06.063h-.126v-.094h.094v-.094h.22l.03-.218v-.032l-.064-.093h-.03v-.094l-.247-.094h0-.118v-.093l.029.03.029.032v-.063l.062.094h.061v-.156l.031-.031.094-.063.094.063v-.094h.098v.031l.061.063h.125v.093h.091l.062.094h.027v.094l.062.094.094-.094-.094-.094v-.156h-.123v-.094h.031v-.031h.094v.094h.094v.187h.188v-.094h-.095v-.156h-.093v-.094h.093v.063h.095v-.156h.097v.093h.092v.25h.095v.094h.03v-.25h-.03v-.094h.03v-.093h.123v-.094h.276v-.187h.099v.093h.093l.062.094h.03v.094l.095.062.062-.062-.063-.094h-.027v-.438h-.25v-.03h.028l.062-.063v-.094h.153v-.094h.089v-.187h.062l-.125-.344.25-.031v-.063h.125l-1.375-.875-.375.094-.438-.469-.719-.25-.531-.375.094-.187.969-.438.906.438.188-.969-1.094-1.437-.813-1.813-.875-.812-.375-.625-.906-.72-1.875.095-.469-.188-.343-.187-.188-.094-.188.094v.093l-.25.625-.28-.156-.188-.094-.344-.625v-.187l-.281-1.813.093-.25-1.78-.718-1-.282.437-1.531c.183-.462.358-.81.5-1.094.15-.298.263-.505.375-.656.1-.135.173-.225.25-.281.044-.035.087-.044.125-.063.17-.072.289-.037.406-.187.048-.062.104-.16.156-.313.052-.152.124-.369.188-.656l-.469-.344-.531-.375-.094-.437.188-1 .437-1.875 1.438-.719.28-1.812.532-.438.906-.469 1.532 1.438.812.906v.375l.906.813 1.157-.094.187-.094 1.156-.562v-.063l.188-.281-.906-1.813-.188-.968-.438-.907 1 .282 1.063-.563.906-.625.907-.344-.188-1 1-.53h.906l.625-.657.344-.156.906-.188 1.625-1.25.25-.906.907.187-.095-.562v-.531l.227-.239-.01-.008-.193-.623-.907-.468-.812-.25h-.438l-1-.813-.156-.281h-.906l-.813-.906-.53-.25h-.907l.094-.563-.906-.094h-.282l-.906.469-.687-.906-.282-.532-.906-.28-.187.093-.438-.094v-.187l.375-.344.688-.531-.344-.719-.188.062-.625-.062-.096-.094-.53-.906-.282-.188-.188-.187-.625-.875.18-.473.906-.25h.532l.28-.906-.187-.094.094-.375h.625l.094-.156-.28-.469 1 .188.905.094.532-.625.375-.282h.062l.812.188.906-.188.907.282.625-.375 1 .375h.094v-1l.906-.375.062-.875.094-.282v-.718l-.344-.625-.344-.47-.062-.03.031-.032.031.063.844.25.906.719.094-.094 1-.375v.094h.875l.188-.094.437-.969 1-.469.375-.25.625.25.907.563.906.062.625.813.875-.156.906-.282.281.188.47.562-.017.034-.03-.032-.063-.062h-.156v.047l.24.098h.625l.904.53.375-.28.159-.157.375.344-.438.906.154.438 1.909.187-.188-.968-.375-.907.375-.906v-.094l.53-.906.283-.625v-.625l-.375-.281-.534-.813h-.437l-.096-.093-.094-.063v-.187l-.282-.094v-.094l-.343-.344.343-.093.72-.375 1 .093 1.718-1.812.188-.438.875-.53-.344-1h-.625l-.375-.626-.532-.093-.615-.192.91-.764-.921.754-.47.094-1.155.375-.438-.562.875-.438.469-.812-.094-.907-.907.188-.343.812-.907-.53-.187-.376v-.906l.344-.875h-.062v-.094h-.375v.156h-.25l-.125.094.468.188v.093l-.28.282-.72.25-.437.906.344.093.096.72-.906.374-.25.063-.907-.157-.437-.093.098.906-1-.094-.813.25-.906-.25-.906.25-.188-.437 1.094-1.094-.906.094-.531.469-.625-.47-1-.343-.098-.094-.25-.53-.563-.376-.342.094-.908-.906v-.188l-.187-.812-.875-.157-1 .157.098-.72-.375-.874-.97-.188-.374-1.187-1.813.187-.875-.906.188-.344-.906.813-.47.187-.905-.656-.875.281-.907-.187-.187.187-.625.907h-1.188l-.812-.094-.875.906h-.281l-.97.25-.905-.531-.72-.094-.812-.25.25-.562-.187-.907.562-.156-.812-.906.437-.906.188-.25.906.156.094.094.875-.344.906.094.656-.813v-.187l-.098-.094.625-1.813-.906-.156-.719-.281h-2.781l-1.438-.094-.28-.281v-.438l.53-1.25.094-.093.188-.282.187-.093.156-.875.094-.282 1-.093.906-.438.532-.906h.718l.282-.906.968-.625-.53-1-.813-.344-.094-.906-.813-1 .188-.906.094-.97-.907-.718.282-1v-.094l.093-.718-1 .375h-.906l-.906-.282-.156-.187.093-.906.969-.063.906-.281.719-2.344.188-.187v-.094l.437-.875-.094-.094-.156-.187.719-1.25.875-.188h.75l1.344.281.906.97 1.781.187.094.28.375.97.438 1.625-.094.28h.437l-.344.907-.718.969.187.906v1l.438 1.063.53.093 1.095.188h.625v.531h-.094l-.094.719h1l.437.469.906.343.094.907.907.093.25-.468v-1.875l.906-.813v-.719l.375.094 2.781-.719.906-.375.532-.531.906-.375.812.375.969.188.188-.188.906-.812.469-.907.78-.437 1 .531.01.008.188-.53v-.187l-1.906-1.625-.531-.969.281-.718.875-.375.188.093.906.094.531-.906.375.031 1 .063.813-.907 1.78.282.344.906.907.344 1 .093.437-.906 3.969.625 1 .188.344-.094.281-.906 1.813-.72.968.188.719-1 .719-.062 1 .156.812-1.25 1.875-.906.657.094.968.187.907-.187h6.375l1.812-.625.25-.282 1-.343-.06-.907.688-1.343-.344-.907.906-1.812.188-.719-.813-.875-.375-1 .375-.906-.096-.531-.906-.47.25-.968.125-1.625.781-1.812v-.907l.375-.875.531-1 .719-.906-1.156-.969.187-.906-.656-.906.906-1.531-.094-.907 1.531-1.343.907-.72.906.094 1.25 1.157.531-.907 1-.156.531-.906.813-.625.375-.906.625-.907.906-.718.719-.813.812-.187 2.688-1.063.906-.093.344-.813.187-.906.438-.875 1-.281.094-.532.625-.906 1.812-.812.907-.907h.156l.906-.093 1.906-1.063.907-.187.687-.375.75-.438-.187-.719.437-1 1.906-1.062.532-.813h1l.875-.625-.97-.718-.374-.563 1.906-.625-.906-.906.281-.875h-2.344l-.906-.188-.437-1.812.343-.969.532-1 .812-.906-.906-.813-.625-.906-.094-.344-.875-.093-.906-.532-.907.157-.906-.344v-.625l1.438-1.438-.282-.718.282-.907-2.688-1.343-4.875-1.438-3.781-.469h-1.969l-1.906-.25-2.781-.656-.97.188-.28.906-.907.437h-1l-.25.907.532 1 .812.906.906 1.875 1-.094.061.906-.718 1-.72.875-.968.47-1 .187-1.094-.188-.968.625.906.906-.281.97-.907.468-1-.094-.875-.281-1-.719-.096-.875.813-1h.904l-.625-1-.904-.625-1-.187 1-.532h-1l-.908.188-.967.25-.908.562.187.875-.812-.875-.813.875-1.904.563-.72.906-.876.25-1 .094-1.812-.719-1.78.188-1-.375-.908.468-1.875.344-1.904 1-.25.25-.096.906-.469.907-1.875-.813-.906.531-.531-.343-.907.28-.375-.187-.875-.093h-1.812l.375-.813 1.875-.187.906-.344-.281-.906-.719-.907 1.094-1.875-.906-.468 1.906-.094.969-.437h-.969l-1.906.28-1.969.626-3.25 1.437-.813.907.907-.282-.281 1.813-.907.531h-.875l.438-1-.344-.906-1.906.656-.906.063-1.875.906-1 .187-.907-.093-.906.625-1.875 1-.906.906-.094-.375-1.781 1-1.907.812-1.875.188.344.875.906.812-.906-.53-.906-.095-.969.375-1-.093-.906.187-.875.438.344.906-.532.906-.094.969-.281 1.812-.719.97-.906-.25-3.75.812-.906.53.344-.905-1.875.28-1.188-.812-.531-.906-.281-.969-2.875-1.187-.344-.531.344-1 .562-.344.875-.281v-.907l.906-.343 3.782-.563 1.875-.094-.782-1.875-.656-.906-.875-.437-.906-.813-.094-1-2.781-.812-2.094-.092-3.687.375-.97-.188-.905-.53-.907-.282-.968.469 1.875 1.156.906.375.969.625.375.437-.188 1 .375.907c-.07 2.32-2.796 4.17-2.344 6.562 4.508.46 3.185 2.688 2.594 5.563l-.875 1.187-.281.906.281.875-.094 1 .25.907c-1.025-1.935-1.388-3.768-3.78-1.344l.374-.906.906-.438-.468-.906-1.782-.813-1.906.25-1-.625-.875-.25-1 .092c-1.302 2.156-3.636 3.885-6.219 3.938l-1.78 1.625-2.063 1-.907.812-.28.875 1.812 2.531.906.625.437.563.282.875v.906l.437 1-.093.188-1.438-.188-.906-.531-1.531.531-.97-.187-.905-.532-1.907-.718-.875-.188-.906.281-1 .063-.906.562.375-.906.969-.625-.875.094-1-.281-1.344-1.344-2.719-1.094-.969.625-.093.906-1.625 1.094.718.906 2.625 2.594.875.188 1.907-.094.906.531-.188.906.532.907-.438.906-1.094.156-.968.719-.907.094-1-.625-1-.25h-.875l-1.28-.375-.907-.72-.438-.905-.906-.188-.812-.875-1.782.156-1.906-.875-.812-.718.562-.907.25-.906-.875.188.438-.907-.907-.812.188-.188-.625-1.875-.906-.812.906-.625.625-.906-.281-1.813.906.719.094-.875-1-.656-.094-.875-.875-.72-.906-.374-1-.625-.907.094-.875-.563-1.718-.062.968-.282.47-.187-1.907-1.25-.969.187.813-.375.968.188-.875-.469-.562.188-.969-.094 1.781-.344-.906-.469-.875-.156-.812-.906-1-.469.343-.875-.968-.469-.625-.53h-1.282l1-.188 2.25.187.907.281.187.875 1.781 1.47.907.437 1-.532.875.813 1.906.156.906.281.969.625.906-.343 2.531 1.53 4.594.782 3.313.375.906.281.906.532 1.969.53 2.875.282c2.366-.317 4.475-1.005 6.75-1.719l.906-.625.906-.375 3.688-3.312.531-.906-.094-.438.47-.906-.47-.906-.718-1-.344-.875-.281-1.907-.907-.093-.906-.719-.969.187-.468-1-1.344-.812-.719-.969-.969.625-.906-.375-3.781-2.25-.906.281-2.782-2.343-1-.532-.53-.25-1.282-.562-2.781-1.625-.907-.188-.875-.625-.906-.187-1-.531-1.875-.438-1-.092-1 .438-.969-.156-1.812-.657-1.969-.156-1.812.156v.907l-1 .812-.875.281-.72.907.063-.907.907-.28.906-.532.281-.906-1 .091.906-.718-.906-.625-.906.25-.906.718.468-.875-1 .063-.906-.719-.969.375.157-.719-1.782-.812.532-.906.906.906 2.781.344.906-.875-.906-.625-1.875-.188-.906-.625-1-.469Zm101.697 101.686v.002h.904v-.002Zm-24.402 85.295.01.008v-.008ZM1054.281 100.423l-1.781.532v.187l.875-.187.906-.532Z"/></svg>