<svg width="1671.094" height="856.393" xmlns="http://www.w3.org/2000/svg" xmlns:usvg="https://github.com/RazrFalcon/usvg" usvg:version="0.8.0"><path fill="#3e73c5" fill-opacity=".429" stroke="#000" stroke-opacity=".247" stroke-linecap="round" stroke-linejoin="round" d="m972.588 342.58-.094-.094 1-1.438.062-.531-.53-1.812-.532-1.063-.094-.906-.469-1-.875-.25-.812-.906-1-.625-1.781-.375-.907-.813-1.187-.625-.156-.094.066.023 1.3.408 1.346-.158 3.961 1.289 3.129.304 1.24-.316 1.835.663 1.175 1.91.718.287 1.924.806-.209.426 1.572.754 1.252-.75.261-.495 1.283-.09.826.685.467-.597 1.746.992 2.125.407-.213 1.037 4.223.78-.002.004 2 1 .72.875.968.718.562.907 1.688.375.906-.625.719-.907h.187l1.344-.625.094-.187.531-.906.094-.188.062-.031.031.031v.094l.094.062h.094l.094.094.062.094h.031l.094.093.344.375.094.125v.032l.094.093v.094h.094v.281h.156v.094h.094v.094h.094v.156h.094v.187l.094.094h.094v.094h.094v.093h.094v.157h.062v.093h.188v.094h.094v.094l.094.187v.094h.094v.094l.094.062.062.188h.125v.562h.062v.25h.094v.281l.094.188v.062l.094.094v.094h.094l.094.094v.093h.094v.094h.062v.094h.094v.093h.094v.063l.094.094h.094v.187h.094v.094h.094v.093h.344v.094l.094.094h.094v.25l-.094.094v.28l.094.094.094.094.094.063h.094v.093h.343v.094h.094v.094h.375l.062.093h.47l.093-.093h.719v.093l.094.094.062.094h.125v.094h.25v.062h.281v.094l.094.093.062.094v.094h.094v.094h.094l.094.093h.094v.157h.094c-.05.828.11.398.094.812l-.094-.062v-.094l-.094-.094v-.094h-.094v-.093h-.094l-.094-.094h-.094v-.094h-.437l-.094-.093h-.282v.093h-.062l-.094-.093h-.094v.093h-.094v.094h-.187v-.094l-.094-.093h-.156l-.094-.094h-.094v.094h-.094l-.094.093v.188h-.094v.094h-.25v.093h-.281v.094h-.094v.094h-.25l-.125.062h-.157v.094h-.094v.094h-.094l-.094.093-.094.094v.344h-.156v.093h-.094v.188l.094.094v.093h.062v.188l-.062.093h-.094v.063l-.094.094v.093h.094v.188h.094c-.275.292-.172.05-.187.437h-.094v.282l.094.093v.188h-.188v.062l-.094.094v.094h-.094l-.094.093v.281h-.094v.25l-.062.094v.188h.062v.093l.094.094h.094v.094h.094l.094.093.094.063h.094v.187h-.094v.188l-.094-.094h-.094l.094.094v.094l.094.093h-.094l-.094-.093v-.094h-.094l-.094-.094h-.156v.094l-.188.187v.813l-.094.156v.094h-.094v.469h-.094l-.094.093v.063h-.187l-.031.031-.219-.031v-.063h-.094v-.093c.394-.014.161.07.469-.188v-.281l-.125-.094h-.25c.014-.26.016-.4-.375-.437l-.062.093-.094.094v.188l-.094.062v.375h.094v.219l-.187-.031v.625l-.094.093h-.094v.094h-.188v.344h.094v.187h.094v.094l-.094.375.094.875v.125l-.344-.094-.906.344-.094-.187h-.094l-.03-.032-.25-.375-.438-.656-.907-.469-.625-.437-.094-.906.907-.157.187-.468-.469-.438-.25-.906.875-.375v-.063l-.812-.906-.906-.781h-.031l-.031-.031-.813.25-.03.062-.063.125-.906.531-.906.375-1.594 1.438-1 .375-.344.531-1 .906-.718-.187-.907.344-.625-.25-1-.094-.906-.281-.719-.157-.25-.093-.187-.469-.438-.625-.812-.531-.563-.625-.812-1.188-.156-.437-1.094-.907-.375-.53-.344-.094-.094-.094-.531-.188c-1.424.42-1.559.054-2.781-.437l.156-.625-.344-.906.188-.813.343-.531.094-.188v-.28l-.094-.345-.53-1-.72-.718-1.083-.428-.094-.281-.156-.094.156-.281-.906-.531-.532-.532-.53-.093.28-.344h-1.187l-.344.719-1.812-.281h-.907l-.437.343-.469-.156ZM999.553 221.539l-.875.187-.72 1.25.157.188.094.093-.437.875v.094l-.188.187-.719 2.344-.906.281-.969.063-.094.906.157.188.906.28h.906l1-.374-.094.719v.093l-.281 1 .906.72-.094.968-.187.906.812 1 .094.906.813.344.53 1-.968.625-.281.906h-.719l-.531.907-.906.437-1 .094-.094.281-.156.875-.188.094-.187.281-.094.094-.532 1.25v.437l.282.281 1.437.094h2.781l.719.281.906.157-.625 1.812.094.094v.187l-.656.813-.906-.094-.875.344-.094-.094-.906-.156-.188.25-.437.906.812.906-.562.157.187.906-.25.562.813.25.718.094.907.531.968-.25h.282l.875-.906.812.094h1.188l.625-.906.187-.188.906.188.875-.282.907.657.468-.188.907-.812-.188.343.875.907 1.813-.188.375 1.188.968.187.375.875-.094.719 1-.156.875.156.188.812v.188l.906.906.344-.094.562.375.25.532.094.093 1 .344.625.469.532-.469.906-.094-1.094 1.094.188.438.906-.25.906.25.813-.25 1 .093-.094-.906.437.094.906.156.25-.062.907-.375-.094-.72-.344-.093.437-.906.72-.25.28-.281v-.094l-.468-.188.125-.093h.25v-.157h.375v.094h.062l-.344.875v.906l.187.375.907.532.343-.813.907-.187.094.906-.47.812-.874.438.437.562 1.157-.375.468-.093.969-.813h.906l.625-.875.719-.469.094-.093-.094-.344v-.281h.094l-.094-.625-.969-.531-.187-.188-.188-.187.094-.094-.094-.438-.437.282-.469.062.375-.875.625-.094h.094v-.718l.531-.907.907-.187-.375-1.063v-.187l-.813-1 .125-.906.062-.25-.875-.188.813-.906-.126-.25-.25-1.281-.093-.438-.813-1.094-.094-.906-.344-.875-.375-1.187.72-.97-.532-.812-.094-.718.531-.907h-.906l-1.594-.625-.469-.906.563-.906.437-1.531.907-.282.437-1.875-.437-1-.72-.53-1.093.437-1.969-.063-1.812-.281-.531-.188-1-.53-.782.437-.468.906-.907.812-.187.188-.969-.188-.812-.375-.907.375-.53.532-.907.375-2.781.718-.375-.093v.718l-.907.813v1.875l-.25.469-.906-.094-.094-.906-.906-.344-.438-.469h-1l.094-.719h.094v-.53h-.625l-1.093-.188-.532-.094-.437-1.062v-1l-.188-.907.72-.968.343-.907h-.438l.094-.281-.437-1.625-.375-.969-.094-.281-1.781-.187-.907-.97-1.343-.28h-.75ZM1018.115 264.382l-.375.25-1 .469-.437.969-.188.093h-.875v-.093l-1 .375-.094.093-.906-.718-.844-.25.344.468.344.625v.72l-.094.28-.062.875-.907.375v1h-.094l-1-.375-.625.375-.906-.28-.906.187-.813-.188h-.062l-.375.281-.53.625-.907-.093-1-.188.281.469-.094.156h-.625l-.094.375.188.094-.281.906h-.532l-.906.25-.188.469.625.875.188.187.281.188.532.906.093.094.625.062.188-.062.344.719-.688.53-.375.345v.187l.438.094.187-.094.906.281.282.532.687.906.906-.469h.282l.906.094-.094.562h.906l.532.25.812.907h.906l.157.28 1 .813h.437l.813.25.906.47.187.655.407-.343.906-.47.906-.718.625-.875v-.187l-.187-.813.468-1 .094-.906.906-.062.157-.563.375-.906.375-.25.343-.281.72-.907.093-1.156-.094-.906.375-1.156.531-.907.095-.468.343-1.5-.437-.907-.625-.375 1.531-.531h.156l.062.063.063-.032-.468-.562-.282-.188-.906.282-.875.156-.625-.813-.906-.062-.907-.563-.625-.25ZM1012.396 265.57l-.03-.063-.032.031.062.032ZM1084.428 316.101l.187.094h.156c-.115-.03-.23-.057-.343-.094ZM1023.459 416.132l-.219.719v16l-.375.344-2.25.437-.625-.343-.094-.907-.906-.812v.531l.094.719.719 1 .187.093.563.813 1.25 1.437 1.437 1.875.438.563 11.156 1.437 1-.375 1.719 2.875.25 1-2.97 9.282-11.593 4.062-2.25.781 1.531 3.594.72 1.781.093.22.094.093.875 2.062.094.188v.062l.375.188 1.25 2.781v.281l-2.781 1.188v11.219h11.562v14.156h-11.562v88.281h-34.844v14.188h34.844V770.35h2.281v12h-2.281v73.531h69.562V433.57l-.187-.188.187-.125v-.187l-.718-.157-.47-1.625-.718-1.78-1.781-.532-.094-.563.156-1.062-1.344-1.813-.812.375.906.438-.906-.188-.969.094-1.812.531-1.25-.25-.907.344h-2.062l-1 .281-.906-.093-.875-.813-.907.531-1-.25-.906.188-.188.781-1.781-.25-1 .094-.906-.188-.875.094-.907.344-.906-.156-1.812.718-.157-.656h-.375v-.437l-6.03-.344-3.595-.281-3.156-.625-3.687-.188-2.875-.906-1.344-2.5-.719-3.063-2.344-1.437-5.75 1.875-4.5.719-3.156-.625-2.344-1.532-2.062-1.718-.5-.313Z"/><path fill="#8cce55" stroke="#0f380f" stroke-opacity=".145" stroke-linecap="round" stroke-linejoin="round" d="m1080.469 160.36.375-.28.531-.72-.906 1ZM945.594 191.392l-1 .531.906.907h.625l.094-.438-.625-1h0ZM997.563 274.017l.03.156-.03.032c.01-.056 0-.128 0-.188h0Z"/><path fill="#3e73c5" fill-opacity=".429" stroke="#000" stroke-opacity=".247" stroke-linecap="round" stroke-linejoin="round" d="M1023.146.508h69.657v32.187h-69.657Z"/><path fill="#8cce55" stroke="#0f380f" stroke-opacity=".145" stroke-linecap="round" stroke-linejoin="round" d="m1041.44 421.673-.282.094-.625.469-.656.875-.25 1-2.156 1.812-.094-.28-.188.53-.812.813v.281l-1.438 1.344-1 .625-.875 1.437-1.531 1.532-.906-.25.094.156-.907.906-.906.094-2.781-.344h-1.438l-.906-.375-.531.469-.375.344-2.25.437-.625-.344-.094-.906-.906-.812v.53l.094.72.718 1 .188.093.562.813 1.25 1.437 1.438 1.875.437.563 11.157 1.437 1-.375 1.718 2.875.25 1-2.968 9.282-11.594 4.062-2.25.781 1.531 3.594.719 1.781.094.22.094.093.875 2.062.094.188v.062l.375.188 1.25 2.781v.281l1-.343 1.781-.47.906-.343.907-.625.187.063 1.875-.157.906.344.907-.094.875-.437.468-.469.438-.875-.344-.906.719-1 .906-.531 3.406-.375.907-.72.625-1.874.437-.906.375-.344 1.813-.719 2.78-.375v-.906l-.468-1.781v-.657l.469-1.593.094-.907 1.25-1.812.719.906.906.094c1.452-2.144 1.742-4.188 3.937-5.125l.657-.906.343-.907 1.344-2.25.188-.906-.188-.437-.906-.188-.875-.437-1.531-1.907-.532-.875-1.625-1.812c-2.703-.748-6.172-.511-8.125-2.875l-1.437-1.813-.813-1.781-.156-.719.094-1.281-.188-1.437-.28-.094.718-1.875-.344-.906.281-.907h0ZM1028.551 256.351l-.468.094-1.157.375-.437-.562.875-.438.469-.812-.094-.907-.907.188-.343.812-.907-.531-.187-.375v-.906l.344-.875h-.062v-.094h-.375v.156h-.25l-.125.094.468.188v.093l-.28.281-.72.25-.437.907.344.093.094.72-.906.374-.25.063-.907-.157-.437-.093.094.906-1-.094-.813.25-.906-.25-.906.25-.188-.437 1.094-1.094-.906.094-.532.468-.625-.468-1-.344-.093-.094-.25-.531-.563-.375-.344.094-.906-.907v-.187l-.188-.813-.875-.156-1 .156.094-.718-.375-.875-.968-.188-.375-1.187-1.813.187-.875-.906.188-.344-.907.813-.468.187-.907-.656-.875.281-.906-.187-.187.187-.625.906h-1.188l-.812-.093-.875.906h-.281l-.97.25-.905-.531-.72-.094-.812-.25.25-.562-.187-.907.562-.156-.812-.906.437-.906.188-.25.906.156.094.094.875-.344.906.093.656-.812v-.188l-.094-.093.625-1.813-.906-.156-.719-.281h-2.78l-1.438-.094-.282-.281v-.438l.532-1.25.094-.093.187-.282.188-.093.156-.875.094-.282 1-.093.906-.438.531-.906h.719l.281-.906.969-.625-.531-1-.813-.344-.094-.906-.812-1 .187-.907.094-.968-.906-.719.281-1v-.094l.094-.718-1 .375h-.906l-.906-.282-.157-.187.094-.906.97-.063.905-.281.72-2.344.187-.187v-.094l.437-.875-.094-.094-.156-.187.719-1.25.875-.188h.75l1.343.281.907.97 1.781.187.094.28.375.97.438 1.625-.095.28h.438l-.344.907-.719.969.188.906v1l.438 1.063.53.093 1.094.188h.625v.531h-.093l-.095.719h1l.438.469.906.343.094.907.907.093.25-.468v-1.875l.906-.813v-.719l.375.094 2.781-.719.906-.375.532-.531.906-.375.812.375.969.187.188-.187.906-.813.469-.906.78-.437 1 .531.015.009.531.187 1.812.282 1.97.062 1.093-.437.719.531.437 1-.437 1.875-.907.281-.437 1.531-.563.907.47.906 1.593.625h.906l-.531.906.094.719.531.812-.719.97.375 1.187.344.875.094.906.813 1.094.094.437.25 1.281.125.25-.813.907.875.187-.062.25-.125.906.813 1v.188l.375 1.062-.907.188-.53.906v.719h-.095l-.625.094-.375.875.469-.063.437-.281.094.437-.094.094.188.188.187.187.97.531.093.625h-.094v.282l.094.343-.094.094-.719.469-.625.875h-.906ZM1015.343 281.887l-.906-.469-.813-.25h-.437l-1-.812-.157-.282h-.906l-.812-.906-.532-.25h-.906l.094-.562-.906-.094h-.282l-.906.469-.687-.907-.282-.53-.906-.282-.187.094-.438-.094v-.188l.375-.343.688-.532-.344-.718-.188.062-.625-.062-.093-.094-.532-.906-.281-.188-.188-.187-.625-.875.18-.474.905-.25h.532l.28-.906-.187-.094.094-.375h.625l.094-.156-.281-.469 1 .188.906.094.532-.625.375-.282h.062l.812.188.906-.188.907.282.625-.375 1 .375h.093v-1l.907-.375.062-.875.094-.282v-.718l-.344-.625-.344-.47-.062-.03.031-.032.031.063.844.25.906.719.094-.094 1-.375v.094h.875l.188-.094.437-.969 1-.469.375-.25.625.25.906.563.907.062.625.813.875-.156.906-.282.281.188.469.562-.016.034-.031-.031-.062-.062h-.156l-1.532.53.625.376.438.906-.344 1.5-.094.469-.531.906-.375 1.156.094.907-.094 1.156-.719.906-.344.281-.375.25-.375.907-.156.562-.906.063-.094.906-.469 1 .188.812v.188l-.625.875-.906.719-.907.468-.406.344ZM1037.377 565.923a2.253 2.253 0 0 0-2.25 2.25 2.253 2.253 0 0 0 2.25 2.25c1.25 0 2.25-1.007 2.25-2.25 0-1.242-1-2.25-2.25-2.25ZM995.502 588.423a2.253 2.253 0 0 0-2.25 2.25 2.253 2.253 0 0 0 2.25 2.25c1.25 0 2.25-1.007 2.25-2.25 0-1.242-1-2.25-2.25-2.25ZM1046.752 639.673a2.253 2.253 0 0 0-2.25 2.25 2.253 2.253 0 0 0 2.25 2.25c1.25 0 2.25-1.007 2.25-2.25 0-1.242-1-2.25-2.25-2.25ZM1037.44 643.986a2.253 2.253 0 0 0-2.25 2.25 2.253 2.253 0 0 0 2.25 2.25c1.25 0 2.25-1.008 2.25-2.25 0-1.243-1-2.25-2.25-2.25ZM972.588 342.58l-.094-.094 1-1.438.062-.531-.53-1.812-.532-1.063-.094-.906-.469-1-.875-.25-.812-.906-1-.625-1.781-.375-.907-.813-1.187-.625-.156-.094.066.023 1.3.408 1.346-.158 3.961 1.289 3.129.304 1.24-.316 1.835.663 1.175 1.91.718.287 1.924.806-.209.426 1.572.754 1.252-.75.261-.495 1.283-.09.826.685.467-.597 1.746.992 2.125.407-.213 1.037 4.223.78-.002.004 2 1 .72.875.968.718.562.907 1.688.375.906-.625.719-.907h.187l1.344-.625.094-.187.531-.906.094-.188.062-.031.031.031v.094l.094.062h.094l.094.094.062.094h.031l.094.093.344.375.094.125v.032l.094.093v.094h.094v.281h.156v.094h.094v.094h.094v.156h.094v.187l.094.094h.094v.094h.094v.093h.094v.157h.062v.093h.188v.094h.094v.094l.094.187v.094h.094v.094l.094.062.062.188h.125v.562h.062v.25h.094v.281l.094.188v.062l.094.094v.094h.094l.094.094v.093h.094v.094h.062v.094h.094v.093h.094v.063l.094.094h.094v.187h.094v.094h.094v.093h.344v.094l.094.094h.094v.25l-.094.094v.28l.094.094.094.094.094.063h.094v.093h.343v.094h.094v.094h.375l.062.093h.47l.093-.093h.719v.093l.094.094.062.094h.125v.094h.25v.062h.281v.094l.094.093.062.094v.094h.094v.094h.094l.094.093h.094v.157h.094c-.05.828.11.398.094.812l-.094-.062v-.094l-.094-.094v-.094h-.094v-.093h-.094l-.094-.094h-.094v-.094h-.437l-.094-.093h-.282v.093h-.062l-.094-.093h-.094v.093h-.094v.094h-.187v-.094l-.094-.093h-.156l-.094-.094h-.094v.094h-.094l-.094.093v.188h-.094v.094h-.25v.093h-.281v.094h-.094v.094h-.25l-.125.062h-.157v.094h-.094v.094h-.094l-.094.093-.094.094v.344h-.156v.093h-.094v.188l.094.094v.093h.062v.188l-.062.093h-.094v.063l-.094.094v.093h.094v.188h.094c-.275.292-.172.05-.187.437h-.094v.282l.094.093v.188h-.188v.062l-.094.094v.094h-.094l-.094.093v.281h-.094v.25l-.062.094v.188h.062v.093l.094.094h.094v.094h.094l.094.093.094.063h.094v.187h-.094v.188l-.094-.094h-.094l.094.094v.094l.094.093h-.094l-.094-.093v-.094h-.094l-.094-.094h-.156v.094l-.188.187v.813l-.094.156v.094h-.094v.469h-.094l-.094.093v.063h-.187l-.031.031-.219-.031v-.063h-.094v-.093c.394-.014.161.07.469-.188v-.281l-.125-.094h-.25c.014-.26.016-.4-.375-.437l-.062.093-.094.094v.188l-.094.062v.375h.094v.219l-.187-.031v.625l-.094.093h-.094v.094h-.188v.344h.094v.187h.094v.094l-.094.375.094.875v.125l-.344-.094-.906.344-.094-.187h-.094l-.03-.032-.25-.375-.438-.656-.907-.469-.625-.437-.094-.906.907-.157.187-.468-.469-.438-.25-.906.875-.375v-.063l-.812-.906-.906-.781h-.031l-.031-.031-.813.25-.03.062-.063.125-.906.531-.906.375-1.594 1.438-1 .375-.344.531-1 .906-.718-.187-.907.344-.625-.25-1-.094-.906-.281-.719-.157-.25-.093-.187-.469-.438-.625-.812-.531-.563-.625-.812-1.188-.156-.437-1.094-.907-.375-.53-.344-.094-.094-.094-.531-.188c-1.424.42-1.559.054-2.781-.437l.156-.625-.344-.906.188-.813.343-.531.094-.188v-.28l-.094-.345-.53-1-.72-.718-1.083-.428-.094-.281-.156-.094.156-.281-.906-.531-.532-.532-.53-.093.28-.344h-1.187l-.344.719-1.812-.281h-.907l-.437.343-.469-.156Z"/></svg>