<svg width="1671.094" height="856.393" xmlns="http://www.w3.org/2000/svg" xmlns:usvg="https://github.com/RazrFalcon/usvg" usvg:version="0.8.0"><path fill="#3e73c5" fill-opacity=".429" stroke="#000" stroke-opacity=".247" stroke-linecap="round" stroke-linejoin="round" d="m1064.627 374.765 1 .532.906.187.625-.281.625.375.813.719v.093l.094.532 1.062-.625h.907l.812-.625 1-.72.438-.905.187-.094-.625-.813c2.957.02 3.481-1.186 5.844-1.968l.906-.625.281-.813v-.906l.532-1 .28-.531v-.907l.876-.437 2.437-.188.532-1 .625-.718 2.25 1.187h1.093l.094-.094h.282l1.78-.093.626.187.375.438.531.375.625-.188.375-.031h.188l.343-.031.157.062h.094l.468.188.625.969.375.28.25.188h.094l.907-.468.28-.532 1.345-.437.906-.281.437-.532.907.72 1 .53.437-.28.094-.157-.094-.375-.094-1a4.34 4.34 0 0 1 .531-.438c.013-.009.018-.023.031-.03.074-.051.148-.055.22-.095.251-.135.495-.252.718-.28.441-.056.844.051 1.25.155.271.07.549.145.844.157l.562-.907-.125-.343-.062-.282.25-.906.469-.437 1.344-1.813 1.156-.25 1 .438 1 .906-.281.906.375.813.875-.094.094.531-.438 1.719-.094.437v.907l-.281.906.812 1.875.188.187.625.094 1.906-1.25.344-.281 1.906-.375.344-.719 2.344-1.437h2.437v.468l.188.625.875-.375.625-.156.906-.562.906.28h.094l.625-.093v.031l1 .75.094.032-.784 1.126c-.021-.003-.062 0-.062 0-.097-.01-.18-.035-.281-.03v-.001h0c-.114.005-.246.04-.375.062l-.125.031h-.031c-.427.102-.953.293-1.688.657l-.906.437-.875-.375-.656-.062h-.156c-2.807.322-3.994.157-6.688.968l-1.344 1.188-.906.344-.625.468-1.781 1.594.281.281.875.72.469.905-.094.344.625 1-.532.531.438 1-.438.532-.094.187-.094.188-.718.343-1.625 1.813-.094.281.812.875-.187.469-.094.625-.062.375-1.563.531h-.875l-2.531-.531-.438.062-.094.094.188.906.156.188.188.344.906.656.25.875.187.187-.437.907-.906.53-.532.282h-1l-.718.188v.875l-.188.093-.094.907-.875 1-.094.093.344 2.782-.344.25-.718.906-.907.469-.531-.188-1-.531h-2.063l-.28.344-1.344.718-.907.094 1 .906v.094l-.625.25-1.906.281H1091l-.375-.093-.062-.344-.906.344-.469.187-.438.906-.906.438-.156.187-.375 1.063-.094.906c.14 1.86.18 2.726-.125 3.188-.043.065-.098.104-.156.156-.47.413-1.436.435-3.313.969l-2.437.656-.188-.094h-2.406l-.281.094-.438.062-.906.657-.906-.282-1.344-.187-1.813.093-3.593.282-.719-.188-3.156-1-3.407-1.062-.252.16 4.243-5.172.132-1.104-.928-1.503-3.536-.619-.22-2.651.265-1.017-1.326-4.905 1.547-1.812-1.547-.53-.265-.84.044-1.503.574-1.193 1.15-.133-.752-1.06.044-.266 1.414-1.105.044-.75.884-3.183.265-.31Z"/><path fill="#8cce55" stroke="#0f380f" stroke-opacity=".145" stroke-linecap="round" stroke-linejoin="round" d="m1064.627 374.765 1 .532.906.187.625-.281.625.375.813.719v.093l.094.532 1.062-.625h.907l.812-.625 1-.72.438-.905.187-.094-.625-.813c2.957.02 3.481-1.186 5.844-1.968l.906-.625.281-.813v-.906l.532-1 .28-.531v-.907l.876-.437 2.437-.188.532-1 .625-.718 2.25 1.187h1.093l.094-.094h.282l1.78-.093.626.187.375.438.531.375.625-.188.375-.031h.188l.343-.031.157.062h.094l.468.188.625.969.375.28.25.188h.094l.907-.468.28-.532 1.345-.437.906-.281.437-.532.907.72 1 .53.437-.28.094-.157-.094-.375-.094-1a4.34 4.34 0 0 1 .531-.438c.013-.009.018-.023.031-.03.074-.051.148-.055.22-.095.251-.135.495-.252.718-.28.441-.056.844.051 1.25.155.271.07.549.145.844.157l.562-.907-.125-.343-.062-.282.25-.906.469-.437 1.344-1.813 1.156-.25 1 .438 1 .906-.281.906.375.813.875-.094.094.531-.438 1.719-.094.437v.907l-.281.906.812 1.875.188.187.625.094 1.906-1.25.344-.281 1.906-.375.344-.719 2.344-1.437h2.437v.468l.188.625.875-.375.625-.156.906-.562.906.28h.094l.625-.093v.031l1 .75.094.032-.784 1.126c-.021-.003-.062 0-.062 0-.097-.01-.18-.035-.281-.03v-.001h0c-.114.005-.246.04-.375.062l-.125.031h-.031c-.427.102-.953.293-1.688.657l-.906.437-.875-.375-.656-.062h-.156c-2.807.322-3.994.157-6.688.968l-1.344 1.188-.906.344-.625.468-1.781 1.594.281.281.875.72.469.905-.094.344.625 1-.532.531.438 1-.438.532-.094.187-.094.188-.718.343-1.625 1.813-.094.281.812.875-.187.469-.094.625-.062.375-1.563.531h-.875l-2.531-.531-.438.062-.094.094.188.906.156.188.188.344.906.656.25.875.187.187-.437.907-.906.53-.532.282h-1l-.718.188v.875l-.188.093-.094.907-.875 1-.094.093.344 2.782-.344.25-.718.906-.907.469-.531-.188-1-.531h-2.063l-.28.344-1.344.718-.907.094 1 .906v.094l-.625.25-1.906.281H1091l-.375-.093-.062-.344-.906.344-.469.187-.438.906-.906.438-.156.187-.375 1.063-.094.906c.14 1.86.18 2.726-.125 3.188-.043.065-.098.104-.156.156-.47.413-1.436.435-3.313.969l-2.437.656-.188-.094h-2.406l-.281.094-.438.062-.906.657-.906-.282-1.344-.187-1.813.093-3.593.282-.719-.188-3.156-1-3.407-1.062-.252.16 4.243-5.172.132-1.104-.928-1.503-3.536-.619-.22-2.651.265-1.017-1.326-4.905 1.547-1.812-1.547-.53-.265-.84.044-1.503.574-1.193 1.15-.133-.752-1.06.044-.266 1.414-1.105.044-.75.884-3.183.265-.31Z"/></svg>