<svg width="1671.094" height="856.393" xmlns="http://www.w3.org/2000/svg" xmlns:usvg="https://github.com/RazrFalcon/usvg" usvg:version="0.8.0"><path fill="#3e73c5" fill-opacity=".429" stroke="#000" stroke-opacity=".247" stroke-linecap="round" stroke-linejoin="round" d="M1155.497 402.423c.166.197.287.553.406.812l.781-.094.375-.437.25-1.188.907-.187.906.281 1 .094.969 1.344.906.468 1.875 1.532 2 .53.187.532h.281l.438.719.906.906.875-.531 1 .094.625.875.188.718 1.874 1.188.907.719.718-.188 1-.094-.437 1v.344l.875.281h1l1-.28.906 1.28.157.344v.094l.437.531.188-.969 1 .438.906.281.094-.094 1.062-.625c2.629 1.935 1.479.99 4.313 1.344l.906-.437 1.188.156-.753 4.01.684 1.524-.669 1.992-3.467-.135-.727-.106-.244-.507-1.36.748-1.502-.783-1.286-.254-1.376.111-.953-1.282-1.455.505-.805-.585-1.265-.626-1.196-.248-.334-1.542-1.56-.686-1.348.186-.356.664-1.257-.71-1.22.704-.632-.533-2.239-.294-.371-1.18-2.077-.687-.558-.466-.835.341-3.164-2.318-.645-.22-2.667-1.752.022.768-2.023-1.274.201-1.14.802-1.307-.294-.473.72-1.071-.048-1.057 2.74-2.08Z"/><path fill="#8cce55" stroke="#0f380f" stroke-opacity=".145" stroke-linecap="round" stroke-linejoin="round" d="M1155.497 402.423c.166.197.287.553.406.812l.781-.094.375-.437.25-1.188.907-.187.906.281 1 .094.969 1.344.906.468 1.875 1.532 2 .53.187.532h.281l.438.719.906.906.875-.531 1 .094.625.875.188.718 1.874 1.188.907.719.718-.188 1-.094-.437 1v.344l.875.281h1l1-.28.906 1.28.157.344v.094l.437.531.188-.969 1 .438.906.281.094-.094 1.062-.625c2.629 1.935 1.479.99 4.313 1.344l.906-.437 1.188.156-.753 4.01.684 1.524-.669 1.992-3.467-.135-.727-.106-.244-.507-1.36.748-1.502-.783-1.286-.254-1.376.111-.953-1.282-1.455.505-.805-.585-1.265-.626-1.196-.248-.334-1.542-1.56-.686-1.348.186-.356.664-1.257-.71-1.22.704-.632-.533-2.239-.294-.371-1.18-2.077-.687-.558-.466-.835.341-3.164-2.318-.645-.22-2.667-1.752.022.768-2.023-1.274.201-1.14.802-1.307-.294-.473.72-1.071-.048-1.057 2.74-2.08Z"/></svg>