<svg width="1671.094" height="856.393" xmlns="http://www.w3.org/2000/svg" xmlns:usvg="https://github.com/RazrFalcon/usvg" usvg:version="0.8.0"><path fill="#3e73c5" fill-opacity=".429" stroke="#000" stroke-opacity=".247" stroke-linecap="round" stroke-linejoin="round" d="M983.678 350.789c.168.038.315.061.437.062-.163.004-.3-.03-.437-.062Zm111.437 83.03h.062l.75.75-1.562.407v-1.032l.062-.03h.062a.08.08 0 0 0 .03 0l.594-.094h0Zm3.375 3.938c.09.067.157.155.25.219l-.219-.125-.03-.094Zm6.125 1-1.031.531-.25.031c.062-.027.127-.062.187-.093.32-.166.636-.356 1.094-.469Zm13.094 3.187h.094v.094l-.438.094.344-.188Zm-17.781.625.718.782.907.812c-.97-.719 0 0-.907-.812-.452-.407-.646-.638-.718-.782Zm14.656.532-.563.468.22-.375h.03l.313-.093Zm1.781 1.718 1 .094a.087.087 0 0 0 .031-.031l.125-.031-.125.093-1.031-.125Zm-3 2.688h.125l-1.437.75-1.97.875-.78.187c1.44-.372 2.726-1.307 4.062-1.812Zm3.969 7.469c.029.028.03.065.062.093a.107.107 0 0 0-.031.032l-.031-.125Zm.094 1.093a.08.08 0 0 0 .03 0v.062a.08.08 0 0 0-.03 0v-.062Zm.781 1.375.031.22-.469.093.25-.25.031-.031.157-.031Zm38.625 12.938h.5l-.812.5Zm-3.375 2.312-1.281.907.312-.438Zm-27.937 9.25.125.22v.03l.25.875c.01.013.019.024.03.032l.032.03-.031.126c-.01-.031-.031-.188-.031-.188l-.375-1.125Zm.687 3 .062.188h-.03l-.032-.188Zm25.156 4.032v.062l-.094.094c.028-.049.07-.11.094-.156Zm-23.28.968.593.844v.094l-.594-.938Zm.624 1 .281.282a.08.08 0 0 0 .031 0c.01.012.02.023.031.03v.032l.282.438-.625-.782Zm4.625 9.375h.031v.094Zm.313.438.156.156v.281l-.156-.343v-.094Zm17.093.375h.282l.906.437 1.781 1.282.719.718.437.907.125.625.532.25.625.906.343.812v.375l.813.97.281.905c.73.834 1.365 1.61 1.344 2.782l.187.093v-.093l.094.093.282.72-.125.905v.907l-.25.812-.376.969-.062.094-.907.718-.906.72h-.094l-1 .374h-.343l-.907.344-.437.281-.813.188-.812-.094-.906-.375-.625-.875-.188-.719-.094-.281-.156-.719-.281-.625-.188-.906.094-.281c-.405-1.869-.269-3.283-.812-5.563l.28.907h.345c-.384-.743.055-2.003.375-2.72l.187-.905-.125-.25v-.625l.375-.188.438-.906.125-.094-.375-.906.094-.875.812.25.813.094v.093h.25l-.25-.187h-.094l-.813-.532-.094.282-.906-.469v-.625Zm-17.343.75c.158 1.038.582 2.033.968 3l-.906-1.438-.063-1.562Zm14.156 1.687.344.438-.594-.344a.08.08 0 0 0-.031 0 .137.137 0 0 0-.031-.031h-.219l.531-.062Zm-.438.282h.125l.282.156Zm-2.812.406-1.094.656-.656.594c.043-.072.077-.152.125-.219.371-.52.908-.88 1.625-1.031Z"/><path fill="#3e73c5" fill-opacity=".429" stroke="#000" stroke-opacity=".247" stroke-linecap="round" stroke-linejoin="round" d="m1140.75 375.079 1.813-.812 1.093-.625 1.782-.72.718-.093 1-.094.094-.093h.907l.875.625h.03v.375l.438.437.406.438h.031l.813.468.906-.187.313.094h.062l.063.062.062.031h.03l.344.25h.031l-.906 1.813v.906l-.437.906-.47.625h-.249l-.563.438-.25.625h-.03l-.25.187h-.47l-.343.094.188.719-.438.906h-.03l-.5.344h-.032l-1.062-.094h-.031l-.875.906.187.375.156.157h.031v.093l-.375 1v.719l.282.438.875.562h.03l.844.25h.031l-.093.906.468.813.25.906h-.03l-.064.094-.437.437-.719.281-.625.625-.469.094-.906-.375-.156-.875-.281-.094-.438.25-1.094.188.375.625v.906l.813.906.437.813-.094.344v.093l-.156.282.688.906-.344.719.531.843.344-.312.906-.281h.031l.625 1 .5.53h.031v.095l.406.375h.031l.282.343.906-.187.906.562.25.063.344.375h.03l.626.812-.094.282 1.75.53h.062l1.031.688 1 .657h.031-.031l-.549.018-2.739 2.08.047 1.057-.72 1.071.295.473-.802 1.307-.201 1.14 2.023 1.274-.022-.768 2.667 1.752.645.22 3.164 2.318.835-.341.558.466 2.077.688.371 1.179 2.239.294.632.533 1.22-.704 1.257.71.356-.664 1.348-.186 1.56.686.334 1.542 1.196.248 1.265.626.805.585 1.455-.505.953 1.282 1.376-.111 1.286.254 1.502.783 1.36-.748.244.507.726.106 3.468.135.668-1.992-.683-1.524.753-4.01h0l.906-.532.875-.28 1-.157.531.812v.875l-.437.907.094.468.25.344-.031-.094.062.094.334.366-.719.78.531.907.563.156.156.032.906.53.625-.155 1.063.343.187.094.906.344.094-.063.188-.093h1l.875-.625.906.062 1.25.375.907-.094h.093l.532-.187.906.281.906-.531 1.063.344h.812l.907-.25.187-.282-.469-1.25.375-.812-.906-.625-1.063-.188-.28-.468.187-.875.01.009c.746.124 1.162.112 1.53.031.137-.03.276-.08.407-.125.245-.08.522-.18.875-.28a9.19 9.19 0 0 1 1.407-.282l.468-.875.532-.656.718-.344.813-.531.187-.282.344-.906.813-.25.906-.094.875-.28.656-.345.156-.187.813-.719.375-.562 1.875-1.157.906.72.813.187v-.094l1.906.625c1.58-1.596 1.175-1.435 3.125-2.156l.468.53.626.563.187.157-.906.625.094.562 1.53-.469.188.907.25.468-1.062 1.532.875.25h.03l.157-.094.532.094 1.468.53v-.062l.875.157.563.469-.085.054.131.535-.03.671-.747.513-1.432 1.155-.291.493 1.295 2.226-2.318-1.166-3.601 1.647-1.538 1.456-1.184.083-.899.874.373 1.928-.693 1.337.195.669-1.476 1.136-.705.686.409 1.417-.33 1.586-.7.615-1.618 3.995-.655-.603-2.945-.401.45 1.337-.277 3.594-1.23-.25-.098 1.476.267 2.348-.675 1.23-1.168-.403-.462.536-.156-1.969-.531-2.437-.188-.188-.187-.906.094-.906-.094-.156-.438-1.344v-.656h-.468l-.532.375-.562-.188.094.906-.532.438-.187.281v.906l-.438.907-.625.062-.375-.969-.625.438-.53-1.875-.376-.906.375-.907.281-.812.344-.438h.906l.344-.562.188.187h1l.156-.906h.188l.812-.875.438-1.375v-.344l.562.188.438-.094-.25-.625v-.187l-.907-.532-.906-.28-1.531.28-.282.063-1.78-.438-1.438.282h-2.344l-.813-.282h-.187l-1-.343-.344-.094-.531-.375.094-.187v-.25l.094-.375v-.094l.062-.063v-.093l-.062-.47-.094-.187v-.25l-.094-.187.188-.438.062-.187h-.157l-.094-.094.188-.281-.469-.438-.281-.437-.25.531-.813.344h-.53l-.907-.625-.094-.969-.532-.187-.468-.188.468.75.094.156h-.281l-.188-.28-.625-.095h-.093l-.282.094-.062-.344-.906-.812-.094-.094-.438-.375-.03-.003h0l-.282.563.719.25.188.375-.72.343-.374.563-.532.344-.28.906 1.53 1.344v.28l.563.532.969-.094 1.093 1.188-.28.531h-.907l-.188-.093h-1.25l-.187.906v.187l-.625.438-.344-.375-.468.906.093 1.281c1.307.612.575-.019 1.626.875h.094l.812.094h.188l.187.375v.25h-.125v.906l.125.188-.469.437-.343.906.25.47.718.437.094.093-.187.625.812.72-.25.812v.093l.062.438.188 1.437.094.094-.094.375.281.719.094.25.25.719v.25a.08.08 0 0 0-.03 0 .164.164 0 0 0-.032.03c-.013.009-.02.02-.03.032l-.157.25-.313.469-.062.03a.08.08 0 0 0-.03 0 .14.14 0 0 0-.032.032c-.013.008-.02.019-.03.031v.281a.08.08 0 0 0 .03 0v.032l.344.25.094.125.062.062-.062.125-.312.594-.25-.406a.08.08 0 0 0-.031 0v-.032a.08.08 0 0 0-.031 0 .08.08 0 0 0-.031 0 .08.08 0 0 0-.031 0c-.013.008-.021.019-.031.032-.013.008-.021.018-.031.03v.032l-.282.406-.343-.281.094-.656.187-.875.094-.375v-.063a.14.14 0 0 0-.03-.03.14.14 0 0 0-.032-.032.08.08 0 0 0-.03 0 .08.08 0 0 0-.032 0c-.013.008-.02.019-.03.031a.08.08 0 0 0-.032 0l-.219.063.031-.344v-.062a.14.14 0 0 0-.03-.032.08.08 0 0 0-.032 0 .08.08 0 0 0-.03 0h-.095a.08.08 0 0 0-.03 0c-.014.008-.022.019-.032.032l-.28.468a.14.14 0 0 0-.032.031v.72l-.062.905v.25l-.062.375v.094l-.094.156.063-.218a.14.14 0 0 0 .031-.032.164.164 0 0 0-.03-.03l-.095-.25-.094-.563v-.031a.08.08 0 0 0 .031 0v-.032a.14.14 0 0 0-.03-.03l-.063-.25a.14.14 0 0 0-.03-.032.14.14 0 0 0-.032-.031.08.08 0 0 0-.03 0 .08.08 0 0 0-.032 0 .08.08 0 0 0-.03 0c-.014.008-.022.018-.032.031v.031a.08.08 0 0 0-.03 0v.031l.061.344v.031l-.03.032a.14.14 0 0 0-.032.03l-.094.563-.062-.156a.14.14 0 0 0-.03-.031.08.08 0 0 0-.032 0l-.25-.094a.08.08 0 0 0-.03 0 .08.08 0 0 0-.032 0 .08.08 0 0 0-.03 0c-.014.008-.022.019-.032.031l-.437.125c-.113-.287-.188-.553-.188-.718.01-.3.116-.466.188-.657.072-.19.117-.437-.063-.718-.01-.011-.052-.02-.062-.032l-.282-.28c-.21-.246-.392-.486-.906-.907a.08.08 0 0 0-.03 0 .08.08 0 0 0-.032 0 .08.08 0 0 0-.03 0 .08.08 0 0 0-.032 0 .14.14 0 0 0-.03.031v.124a.08.08 0 0 0 .03 0l.875.907-.469 1.063-.312.437-.062.063c-.329.335-.636.582-.969.75-.172.086-.34.156-.531.218l-.281.063-.062.031c-.504.136-1.09.252-1.844.438-.013.008-.021.018-.031.03l-.906.907c-.014.008-.022.019-.032.031l-.437.906c-.013.008-.02.019-.03.032a.14.14 0 0 0 .03.03l.25.845v.062l-.094.844v.03c.01.014.02.024.031.032l.25.375a.08.08 0 0 0 .031 0v.031l.125.094-.125.094-.906.625v.03a.08.08 0 0 0-.031 0v.032l-.188.906v.125l-.812.344a.08.08 0 0 0-.031 0c-.013.008-.021.019-.031.031l-.5.844-.969-.594a.08.08 0 0 0-.03 0 .14.14 0 0 0-.032-.031.08.08 0 0 0-.03 0c-.014.008-.022.019-.032.031-.013.008-.02.019-.03.031v.094a.14.14 0 0 0 .03.031l.563.563-.625.562-.438.156-.906.25-.906.282-.5.125-.563-.719v-.031a.08.08 0 0 0-.03 0 .08.08 0 0 0-.032 0 .08.08 0 0 0-.03 0 .08.08 0 0 0-.032 0l-.906.719c-.013.008-.021.018-.031.03l-.406.97-.031.03c-.013.009-.021.02-.031.032v.031a.14.14 0 0 0 .03.031.14.14 0 0 0 .032.031c.01.013.02.024.03.032a.08.08 0 0 0 .032 0c.013-.008.02-.019.03-.032a.08.08 0 0 0 .032 0l-.72.844c-1.142 1.108-2.05 2.41-3.124 3.688l-.906.875-.688.562v-.031l-.906.469-.531.344c-.013.008-.021.018-.031.03l-.875.813a.08.08 0 0 0-.031 0l-.782.875-.03.031-.157.063c-.013.008-.02.019-.03.031v.125l-1.75 1.187-.907.438v.031l-.656.375-.02.003-.25.156-.813.906c-.013.008-.02.019-.03.031v.094l.343.844-.344.875v.156l-.687.406-.875.469-.188.094v-.032l-.531.188-1.281-.094a.08.08 0 0 0-.031 0h-.906a.08.08 0 0 0-.032 0c-.013.008-.02.019-.03.031-.014.008-.022.019-.032.032l-.53.875v.093l-.282.907v.03l-.469.782-.406-.719-.094-.344a.14.14 0 0 0-.031-.03.14.14 0 0 0-.031-.032.08.08 0 0 0-.031 0 .08.08 0 0 0-.031 0 .08.08 0 0 0-.031 0c-.013.008-.021.019-.031.031l-.313.438-.375.187-.593.063a.08.08 0 0 0-.031 0l-1 .469a.14.14 0 0 0-.031.03l-.625.907-.438.906a.08.08 0 0 0-.03 0v.031l-.188.875-.157.907v.03l.063.907a.14.14 0 0 0 .03.031l.344.875v.032l-.094.28v.063a.08.08 0 0 0 .031 0l.157.375-.094.844-.094.906v.031l.28.875v.032l.188.875.188.75-.188-.094-.312-.281v-.032a.08.08 0 0 0-.031 0 .08.08 0 0 0-.031 0 .08.08 0 0 0-.031 0c-.013.008-.021.019-.031.032-.013.008-.021.018-.031.03l-.188.532v.062a.14.14 0 0 0 .032.032.14.14 0 0 0 .03.03.08.08 0 0 0 .032 0h.125l.562.188h.031l.281.157c-.3 1.808-.323 2.745-.5 3.5-.144.617-.435 1.199-1.093 2.156l-.47.469-.03.218c-.025.035-.036.059-.063.094v.062c0 .017-.01.114-.031.22-.025.105-.085.244-.125.374-.08.26-.174.515-.219.625v.125l-.062.156c-.013.008-.021.019-.031.032v1l-.406.906a.14.14 0 0 0-.031.031v.094a.14.14 0 0 0 .03.03l.782.688v2.375l.094.938-.844.406-.687-.094a.08.08 0 0 0-.031 0l-.907.282a.08.08 0 0 0-.03 0v.03a.14.14 0 0 0-.031.032l-.344.906v.375l-.719.844-.625 1c-.013.008-.021.019-.031.031l-.094.906v.032a.14.14 0 0 0 .031.03v.032a.08.08 0 0 0 .031 0l.844.531h-.25l-.907.094a.08.08 0 0 0-.03 0l-.875.281c-.906.113-1.587.564-2.032 1.188-.15.21-.253.442-.343.687l-.125.094v.249a5.2 5.2 0 0 0-.157 1.126l-.875.812h-.03l-.876.532-.687.343-.219.094-.781-.156-.062-.031-.844-.594c-.257-.23-.867-.88-1.438-1.531a24.345 24.345 0 0 1-.78-.938c-.224-.284-.406-.525-.47-.656v-.031a.08.08 0 0 0-.03 0 .14.14 0 0 0-.032-.032h-.03c-.476-1.241-.978-2.492-1.063-3.78l.03.03.126.313v.031h.03v.062a.14.14 0 0 0 .032.032.08.08 0 0 0 .03 0 .08.08 0 0 0 .032 0 .08.08 0 0 0 .03 0 .14.14 0 0 0 .032-.032c.013-.008.02-.018.03-.03v-.969a.08.08 0 0 0-.03 0v-.032l-.438-.406v-.218a.08.08 0 0 0-.03 0 .14.14 0 0 0-.032-.032.08.08 0 0 0-.03 0h-.157v-.718a.14.14 0 0 0-.031-.032l-.531-1-.438-.875v-.03l-.343-.876-.282-.906-.375-.875v-.031l-.156-.875a.14.14 0 0 0-.031-.031l-.781-.875-.031-.032-.062-.218v-.219a.08.08 0 0 0-.031 0l-.719-.906-.25-.406v-.125a.14.14 0 0 0-.031-.032.14.14 0 0 0-.031-.03.08.08 0 0 0-.031 0h-.093l-.156-.157v-.124a.14.14 0 0 0-.031-.032l-.625-.875c-.01-.01.01-.022 0-.031-.55-.977-.893-1.675-1.282-2.72v-.03a.08.08 0 0 0 .032 0v-.125a.08.08 0 0 0-.032 0l-.063-.031v-.031l-.25-.875v-.032l-.187-.875-.281-.906-.062-.875.062-.125v-.124a.08.08 0 0 0-.031 0l-.062-.063v-.031l-.25-.844a.14.14 0 0 0-.031-.031l-.532-.875v-.032l-.218-.812.187.062a.08.08 0 0 0 .031 0 .08.08 0 0 0 .031 0 .08.08 0 0 0 .031 0v-.03a.08.08 0 0 0 .031 0v-.126a.14.14 0 0 0-.03-.03l-.594-1.032-.438-.906-.031-.031-.437-.438-.157-.281v-.125a.14.14 0 0 0-.03-.031.14.14 0 0 0-.032-.032l-.25-.187-.687-.813v-.03l-.094-.876v-.03l-.475-.939.094-.125v-.03a.14.14 0 0 0 .031-.032.14.14 0 0 0-.03-.031v-.032l-.657-.812.03-.031v-.031a.14.14 0 0 0 .032-.032v-.03a.14.14 0 0 0-.031-.032v-.031c-.45-.593-.716-.912-.875-1.156-.01-.012-.021-.052-.031-.063a1.785 1.785 0 0 1-.157-.312.968.968 0 0 1-.062-.22c-.024-.149-.025-.335-.093-.687-.056-.29-.154-.73-.344-1.312l-.094-.625-.125-.594c-.11-1.001-.234-1.989-.657-2.969h.031l.062-.906v-.031l-.343-.906-.438-.875-.187-.907-.188-.843v-.062l.188-.938v-.062a.08.08 0 0 0-.031 0l-.5-.844.062-.313v-.031l.625-.875c.013-.008.02-.019.03-.031v-.062l-.093-.345v-.03a.08.08 0 0 0-.031 0v-.032a.08.08 0 0 0-.031 0 .08.08 0 0 0-.031 0 .08.08 0 0 0-.031 0l-.282.063c-.013.008-.02.018-.03.03l-.22.22-.156-.688v-.062l.094-.532.125.063.438.156.031.031.219.156a.14.14 0 0 0 .03.032.08.08 0 0 0 .032 0 .08.08 0 0 0 .03 0c.014-.008.022-.019.032-.032a.14.14 0 0 0 .03-.03v-.094l-.03-.032-.157-.25a.14.14 0 0 0-.03-.03l-.563-.188-.188-.063-.093-.781.062-.062v-.032c.013-.008.02-.018.03-.03v-.032a.14.14 0 0 0-.03-.031v-.031a4.758 4.758 0 0 1-.376-.375l-.312-1.188.062-.594c.087-.344.159-.733.188-1.218.615-.938.824-1.508.812-2.094-.01-.31-.083-.608-.188-.969-.092-.324-.207-.7-.343-1.156v-.031a.08.08 0 0 0-.031 0v-.032a.08.08 0 0 0-.031 0 .08.08 0 0 0-.031 0 .08.08 0 0 0-.031 0 .08.08 0 0 0-.031 0l-.125.063-.062-.063a.14.14 0 0 0-.031-.03v-.032l-.594-.875.344-.813 1.218-.687.25-.063v-.03a.08.08 0 0 0 .032 0l.03-.063.032-.031a.08.08 0 0 0 .03 0l.032-.032.468-.218a.08.08 0 0 0 .031 0v-.032a.14.14 0 0 0 .031-.03v-.156a.14.14 0 0 0-.03-.032.14.14 0 0 0-.032-.031.08.08 0 0 0-.03 0 .08.08 0 0 0-.032 0 .08.08 0 0 0-.03 0l-.469.341h-.094c-.01.004.01.026 0 .031 0 .005-.03-.006-.03 0l-.876.157h-.03l-.907-.094-.125-.5.781-.844v-.03a.14.14 0 0 0 .031-.032v-.031a.14.14 0 0 0-.03-.032.14.14 0 0 0-.032-.03.14.14 0 0 0-.03-.032.08.08 0 0 0-.032 0c-.013.008-.02.019-.03.031h-.032l-.03.031-.688.344v-.781l.812-.313h.031l.875-.187a.08.08 0 0 0 .031 0v-.031a.08.08 0 0 0 .031 0v-.375a.14.14 0 0 0-.03-.031.14.14 0 0 0-.032-.031.08.08 0 0 0-.03 0l-.97.093h-.905l-.5-.5v-.031a.08.08 0 0 0-.032 0 .08.08 0 0 0-.03 0 .08.08 0 0 0-.032 0l-1 .438v.03a.08.08 0 0 0-.03 0v.032a.14.14 0 0 0-.032.031.14.14 0 0 0 .031.031v.032a.14.14 0 0 0 .031.03l.157.063.03.031.376.75-.813.25a.08.08 0 0 0-.03 0 .14.14 0 0 0-.032.032l-.531.906c-.013.008-.021.018-.031.031v.031a.14.14 0 0 0 .031.031.14.14 0 0 0 .031.032l.875.343.313.813-.5.875-.188.344v.03l-.688.845h-.125a.08.08 0 0 0-.03 0c-1.822.688-3.443 2.111-5.407 1.968-.01-.004-.02.004-.03 0a10.825 10.825 0 0 1-1.282-.656c-1.19-.72-2.123-1.644-2.969-2.906l-.437-.406-.031-.032c-.011-.016-.021-.023-.031-.03h-.031l-.375-.345a.14.14 0 0 0-.031-.03.08.08 0 0 0-.031 0h-.093l-.844-.876-.875-.812-.813-.875-.312-.844.375-.375.688.781v.031a.08.08 0 0 0 .03 0 .14.14 0 0 0 .031.032c.014-.008.022-.019.032-.032l.875-.25h.03l.876-.093h.03l.907-.375.875-.625.906-.156v-.032h.031c.013-.008.021-.018.031-.03l.531-.97v-.03l.47-.5.343-.376.062-.094a.08.08 0 0 0 .03 0v-.093l-.155-.438-.031-.125v-.093a.14.14 0 0 0-.031-.032.08.08 0 0 0-.031 0 .08.08 0 0 0-.031 0 .08.08 0 0 0-.031 0 .14.14 0 0 0-.031.032c-.013.008-.021.018-.031.03l-.313.813c-1.537-.143-2.162.274-2.719.563-.283.147-.537.268-.937.281-.393.013-.945-.1-1.719-.375-.01-.006-.021.006-.031 0-.888-.56-1.663-.935-2.281-1.437a4.126 4.126 0 0 1-.25-.22l-1.063-1.968.844-.594.75-.53.031-.032a.08.08 0 0 0 .031 0v-.031a.08.08 0 0 0 .031 0v-.063a.14.14 0 0 0-.031-.03v-.032a.08.08 0 0 0-.031 0 .08.08 0 0 0-.031 0 .08.08 0 0 0-.031 0h-.031l-.594.062c-.013.008-.02.019-.03.032l-.907.53-.875.626-.156-.75v-.031a.08.08 0 0 0-.031 0l.65-.845.75-.093h.969l.094-1.688 1.625.094.625.156.906-.156.906.156.344.375 1.438.094.28-.188.25-.531.813-.188 1.375-.375.25.907 2-.813-.375-.437.438-.907c-.799-2.398-1.993-2.818-2.063-5.03l-.906.093-.906-.281v-.094l-.688-1.25.25-.906.094-1.063-.812-.906h-.906l-1.438-1 .094-1 .281-.875.625-.656 1.344-1.344.375-.906.531-.719.907-.719.968.188.188.281.375.906.531.25 1.906-.719 1.157-.093.906-.094.875-.344.281-.906.375-.531.906-.906.25-.907 1.188-1.25 1.781-.906.906-1.25.532-1 .468-1.25.25-.906.72-.438 1.812-.812.155-.188-.062-.625-.094-.093-.375-.188c1.803-1.31 1.588-2.557 3.25-3.25v-.156l.281-.094.157.094.187-.281-.719-.282.282-1.25.156-.187-.157-.875v-.094l-.374-.562.718-.875.907-.657.625-.25 1.53-.53v-.813l-1.53-.72-.625-.093-.907-.375v-.094l-.625-.906-.906-.344.094-.093-.187-.906-.875-.532-.375-.906h.187l.438-.906-.813-.969-.062-.281v-.094l.438-.625.906-.812-.906-.094-.813-.438.438-.718-.875-.532.062-.468.562-.907.062-.343.906-.094.907-.438 1.625.438 1.343.281 1.344.156 1.813.563.906-.375.906-.281.25.093.813-.437.906-.375.906.094.625.468.625-.718v-.094l.438-1-.062-.531.812-.47 2.875-1.593"/><path fill="#8cce55" stroke="#0f380f" stroke-opacity=".145" stroke-linecap="round" stroke-linejoin="round" d="M1231.821 600.33v-57.26m-40.987-100.625v.156l-.125.031.125-.187Zm-2.188.406a.375.375 0 0 1 0 .281c-.029.077-.088.172-.125.281Zm-.187 1.031c-.01.204.078.468.187.781l-.187.063Zm-1.5.688-.063.093-.156.032c.072-.043.148-.075.218-.125Zm3.031.062.062.5-.125-.187.062-.313Zm-.594.031.125.032-.343.437.062-.187.03-.032.126-.25Zm-5.593.97-1.282 1.655.438-.812Zm-7.688 8.593-.094.031h-.03a.08.08 0 0 0-.032 0 .096.096 0 0 0-.03.031v.093c.01.013.018.024.03.032.01.013.02.023.031.031l-.219.125v-.156a.137.137 0 0 0-.03-.031v-.031a.08.08 0 0 0-.032 0 .137.137 0 0 0-.03-.032.08.08 0 0 0-.032 0l-.343.094a.096.096 0 0 0-.031.031.08.08 0 0 0-.031 0l-.532.438.22-.563 1.187-.093h0Zm-.812.437v.094l.062.125c-.013.008-.02.023-.031.031l-.813.375.781-.625Zm-2.813 3.25-.187.282-.22.187c.13-.166.278-.306.407-.469Z"/><path fill="#3e73c5" fill-opacity=".429" stroke="#000" stroke-opacity=".247" stroke-linecap="round" stroke-linejoin="round" d="M1111.241 488.57h11.687v21.659h-11.687ZM1206.271 482.195h11.625v33.788h-11.625Z"/><path fill="#8cce55" stroke="#0f380f" stroke-opacity=".145" stroke-linecap="round" stroke-linejoin="round" d="M983.678 350.789c.168.038.315.061.437.062-.163.004-.3-.03-.437-.062Zm111.437 83.03h.062l.75.75-1.562.407v-1.032l.062-.03h.062a.08.08 0 0 0 .03 0l.594-.094h0Zm3.375 3.938c.09.067.157.155.25.219l-.219-.125-.03-.094Zm6.125 1-1.031.531-.25.031c.062-.027.127-.062.187-.093.32-.166.636-.356 1.094-.469Zm13.094 3.187h.094v.094l-.438.094.344-.188Zm-17.781.625.718.782.907.812c-.97-.719 0 0-.907-.812-.452-.407-.646-.638-.718-.782Zm14.656.532-.563.468.22-.375h.03l.313-.093Zm1.781 1.718 1 .094a.087.087 0 0 0 .031-.031l.125-.031-.125.093-1.031-.125Zm-3 2.688h.125l-1.437.75-1.97.875-.78.187c1.44-.372 2.726-1.307 4.062-1.812Zm3.969 7.469c.029.028.03.065.062.093a.107.107 0 0 0-.031.032l-.031-.125Zm.094 1.093a.08.08 0 0 0 .03 0v.062a.08.08 0 0 0-.03 0v-.062Zm.781 1.375.031.22-.469.093.25-.25.031-.031.157-.031Zm38.625 12.938h.5l-.812.5Zm-3.375 2.312-1.281.907.312-.438Zm-27.937 9.25.125.22v.03l.25.875c.01.013.019.024.03.032l.032.03-.031.126c-.01-.031-.031-.188-.031-.188l-.375-1.125Zm.687 3 .062.188h-.03l-.032-.188Zm25.156 4.032v.062l-.094.094c.028-.049.07-.11.094-.156Zm-23.28.968.593.844v.094l-.594-.938Zm.624 1 .281.282a.08.08 0 0 0 .031 0c.01.012.02.023.031.03v.032l.282.438-.625-.782Zm4.625 9.375h.031v.094Zm.313.438.156.156v.281l-.156-.343v-.094Zm17.093.375h.282l.906.437 1.781 1.282.719.718.437.907.125.625.532.25.625.906.343.812v.375l.813.97.281.905c.73.834 1.365 1.61 1.344 2.782l.187.093v-.093l.094.093.282.72-.125.905v.907l-.25.812-.376.969-.062.094-.907.718-.906.72h-.094l-1 .374h-.343l-.907.344-.437.281-.813.188-.812-.094-.906-.375-.625-.875-.188-.719-.094-.281-.156-.719-.281-.625-.188-.906.094-.281c-.405-1.869-.269-3.283-.812-5.563l.28.907h.345c-.384-.743.055-2.003.375-2.72l.187-.905-.125-.25v-.625l.375-.188.438-.906.125-.094-.375-.906.094-.875.812.25.813.094v.093h.25l-.25-.187h-.094l-.813-.532-.094.282-.906-.469v-.625Zm-17.343.75c.158 1.038.582 2.033.968 3l-.906-1.438-.063-1.562Zm14.156 1.687.344.438-.594-.344a.08.08 0 0 0-.031 0 .137.137 0 0 0-.031-.031h-.219l.531-.062Zm-.438.282h.125l.282.156Zm-2.812.406-1.094.656-.656.594c.043-.072.077-.152.125-.219.371-.52.908-.88 1.625-1.031Z"/><path fill="#8cce55" stroke="#0f380f" stroke-opacity=".145" stroke-linecap="round" stroke-linejoin="round" d="m1140.75 375.079 1.813-.812 1.093-.625 1.782-.72.718-.093 1-.094.094-.093h.907l.875.625h.03v.375l.438.437.406.438h.031l.813.468.906-.187.313.094h.062l.063.062.062.031h.03l.344.25h.031l-.906 1.813v.906l-.437.906-.47.625h-.249l-.563.438-.25.625h-.03l-.25.187h-.47l-.343.094.188.719-.438.906h-.03l-.5.344h-.032l-1.062-.094h-.031l-.875.906.187.375.156.157h.031v.093l-.375 1v.719l.282.438.875.562h.03l.844.25h.031l-.093.906.468.813.25.906h-.03l-.064.094-.437.437-.719.281-.625.625-.469.094-.906-.375-.156-.875-.281-.094-.438.25-1.094.188.375.625v.906l.813.906.437.813-.094.344v.093l-.156.282.688.906-.344.719.531.843.344-.312.906-.281h.031l.625 1 .5.53h.031v.095l.406.375h.031l.282.343.906-.187.906.562.25.063.344.375h.03l.626.812-.094.282 1.75.53h.062l1.031.688 1 .657h.031-.031l-.549.018-2.739 2.08.047 1.057-.72 1.071.295.473-.802 1.307-.201 1.14 2.023 1.274-.022-.768 2.667 1.752.645.22 3.164 2.318.835-.341.558.466 2.077.688.371 1.179 2.239.294.632.533 1.22-.704 1.257.71.356-.664 1.348-.186 1.56.686.334 1.542 1.196.248 1.265.626.805.585 1.455-.505.953 1.282 1.376-.111 1.286.254 1.502.783 1.36-.748.244.507.726.106 3.468.135.668-1.992-.683-1.524.753-4.01h0l.906-.532.875-.28 1-.157.531.812v.875l-.437.907.094.468.25.344-.031-.094.062.094.334.366-.719.78.531.907.563.156.156.032.906.53.625-.155 1.063.343.187.094.906.344.094-.063.188-.093h1l.875-.625.906.062 1.25.375.907-.094h.093l.532-.187.906.281.906-.531 1.063.344h.812l.907-.25.187-.282-.469-1.25.375-.812-.906-.625-1.063-.188-.28-.468.187-.875.01.009c.746.124 1.162.112 1.53.031.137-.03.276-.08.407-.125.245-.08.522-.18.875-.28a9.19 9.19 0 0 1 1.407-.282l.468-.875.532-.656.718-.344.813-.531.187-.282.344-.906.813-.25.906-.094.875-.28.656-.345.156-.187.813-.719.375-.562 1.875-1.157.906.72.813.187v-.094l1.906.625c1.58-1.596 1.175-1.435 3.125-2.156l.468.53.626.563.187.157-.906.625.094.562 1.53-.469.188.907.25.468-1.062 1.532.875.25h.03l.157-.094.532.094 1.468.53v-.062l.875.157.563.469-.085.054.131.535-.03.671-.747.513-1.432 1.155-.291.493 1.295 2.226-2.318-1.166-3.601 1.647-1.538 1.456-1.184.083-.899.874.373 1.928-.693 1.337.195.669-1.476 1.136-.705.686.409 1.417-.33 1.586-.7.615-1.618 3.995-.655-.603-2.945-.401.45 1.337-.277 3.594-1.23-.25-.098 1.476.267 2.348-.675 1.23-1.168-.403-.462.536-.156-1.969-.531-2.437-.188-.188-.187-.906.094-.906-.094-.156-.438-1.344v-.656h-.468l-.532.375-.562-.188.094.906-.532.438-.187.281v.906l-.438.907-.625.062-.375-.969-.625.438-.53-1.875-.376-.906.375-.907.281-.812.344-.438h.906l.344-.562.188.187h1l.156-.906h.188l.812-.875.438-1.375v-.344l.562.188.438-.094-.25-.625v-.187l-.907-.532-.906-.28-1.531.28-.282.063-1.78-.438-1.438.282h-2.344l-.813-.282h-.187l-1-.343-.344-.094-.531-.375.094-.187v-.25l.094-.375v-.094l.062-.063v-.093l-.062-.47-.094-.187v-.25l-.094-.187.188-.438.062-.187h-.157l-.094-.094.188-.281-.469-.438-.281-.437-.25.531-.813.344h-.53l-.907-.625-.094-.969-.532-.187-.468-.188.468.75.094.156h-.281l-.188-.28-.625-.095h-.093l-.282.094-.062-.344-.906-.812-.094-.094-.438-.375-.03-.003h0l-.282.563.719.25.188.375-.72.343-.374.563-.532.344-.28.906 1.53 1.344v.28l.563.532.969-.094 1.093 1.188-.28.531h-.907l-.188-.093h-1.25l-.187.906v.187l-.625.438-.344-.375-.468.906.093 1.281c1.307.612.575-.019 1.626.875h.094l.812.094h.188l.187.375v.25h-.125v.906l.125.188-.469.437-.343.906.25.47.718.437.094.093-.187.625.812.72-.25.812v.093l.062.438.188 1.437.094.094-.094.375.281.719.094.25.25.719v.25a.08.08 0 0 0-.03 0 .164.164 0 0 0-.032.03c-.013.009-.02.02-.03.032l-.157.25-.313.469-.062.03a.08.08 0 0 0-.03 0 .14.14 0 0 0-.032.032c-.013.008-.02.019-.03.031v.281a.08.08 0 0 0 .03 0v.032l.344.25.094.125.062.062-.062.125-.312.594-.25-.406a.08.08 0 0 0-.031 0v-.032a.08.08 0 0 0-.031 0 .08.08 0 0 0-.031 0 .08.08 0 0 0-.031 0c-.013.008-.021.019-.031.032-.013.008-.021.018-.031.03v.032l-.282.406-.343-.281.094-.656.187-.875.094-.375v-.063a.14.14 0 0 0-.03-.03.14.14 0 0 0-.032-.032.08.08 0 0 0-.03 0 .08.08 0 0 0-.032 0c-.013.008-.02.019-.03.031a.08.08 0 0 0-.032 0l-.219.063.031-.344v-.062a.14.14 0 0 0-.03-.032.08.08 0 0 0-.032 0 .08.08 0 0 0-.03 0h-.095a.08.08 0 0 0-.03 0c-.014.008-.022.019-.032.032l-.28.468a.14.14 0 0 0-.032.031v.72l-.062.905v.25l-.062.375v.094l-.094.156.063-.218a.14.14 0 0 0 .031-.032.164.164 0 0 0-.03-.03l-.095-.25-.094-.563v-.031a.08.08 0 0 0 .031 0v-.032a.14.14 0 0 0-.03-.03l-.063-.25a.14.14 0 0 0-.03-.032.14.14 0 0 0-.032-.031.08.08 0 0 0-.03 0 .08.08 0 0 0-.032 0 .08.08 0 0 0-.03 0c-.014.008-.022.018-.032.031v.031a.08.08 0 0 0-.03 0v.031l.061.344v.031l-.03.032a.14.14 0 0 0-.032.03l-.094.563-.062-.156a.14.14 0 0 0-.03-.031.08.08 0 0 0-.032 0l-.25-.094a.08.08 0 0 0-.03 0 .08.08 0 0 0-.032 0 .08.08 0 0 0-.03 0c-.014.008-.022.019-.032.031l-.437.125c-.113-.287-.188-.553-.188-.718.01-.3.116-.466.188-.657.072-.19.117-.437-.063-.718-.01-.011-.052-.02-.062-.032l-.282-.28c-.21-.246-.392-.486-.906-.907a.08.08 0 0 0-.03 0 .08.08 0 0 0-.032 0 .08.08 0 0 0-.03 0 .08.08 0 0 0-.032 0 .14.14 0 0 0-.03.031v.124a.08.08 0 0 0 .03 0l.875.907-.469 1.063-.312.437-.062.063c-.329.335-.636.582-.969.75-.172.086-.34.156-.531.218l-.281.063-.062.031c-.504.136-1.09.252-1.844.438-.013.008-.021.018-.031.03l-.906.907c-.014.008-.022.019-.032.031l-.437.906c-.013.008-.02.019-.03.032a.14.14 0 0 0 .03.03l.25.845v.062l-.094.844v.03c.01.014.02.024.031.032l.25.375a.08.08 0 0 0 .031 0v.031l.125.094-.125.094-.906.625v.03a.08.08 0 0 0-.031 0v.032l-.188.906v.125l-.812.344a.08.08 0 0 0-.031 0c-.013.008-.021.019-.031.031l-.5.844-.969-.594a.08.08 0 0 0-.03 0 .14.14 0 0 0-.032-.031.08.08 0 0 0-.03 0c-.014.008-.022.019-.032.031-.013.008-.02.019-.03.031v.094a.14.14 0 0 0 .03.031l.563.563-.625.562-.438.156-.906.25-.906.282-.5.125-.563-.719v-.031a.08.08 0 0 0-.03 0 .08.08 0 0 0-.032 0 .08.08 0 0 0-.03 0 .08.08 0 0 0-.032 0l-.906.719c-.013.008-.021.018-.031.03l-.406.97-.031.03c-.013.009-.021.02-.031.032v.031a.14.14 0 0 0 .03.031.14.14 0 0 0 .032.031c.01.013.02.024.03.032a.08.08 0 0 0 .032 0c.013-.008.02-.019.03-.032a.08.08 0 0 0 .032 0l-.72.844c-1.142 1.108-2.05 2.41-3.124 3.688l-.906.875-.688.562v-.031l-.906.469-.531.344c-.013.008-.021.018-.031.03l-.875.813a.08.08 0 0 0-.031 0l-.782.875-.03.031-.157.063c-.013.008-.02.019-.03.031v.125l-1.75 1.187-.907.438v.031l-.656.375-.02.003-.25.156-.813.906c-.013.008-.02.019-.03.031v.094l.343.844-.344.875v.156l-.687.406-.875.469-.188.094v-.032l-.531.188-1.281-.094a.08.08 0 0 0-.031 0h-.906a.08.08 0 0 0-.032 0c-.013.008-.02.019-.03.031-.014.008-.022.019-.032.032l-.53.875v.093l-.282.907v.03l-.469.782-.406-.719-.094-.344a.14.14 0 0 0-.031-.03.14.14 0 0 0-.031-.032.08.08 0 0 0-.031 0 .08.08 0 0 0-.031 0 .08.08 0 0 0-.031 0c-.013.008-.021.019-.031.031l-.313.438-.375.187-.593.063a.08.08 0 0 0-.031 0l-1 .469a.14.14 0 0 0-.031.03l-.625.907-.438.906a.08.08 0 0 0-.03 0v.031l-.188.875-.157.907v.03l.063.907a.14.14 0 0 0 .03.031l.344.875v.032l-.094.28v.063a.08.08 0 0 0 .031 0l.157.375-.094.844-.094.906v.031l.28.875v.032l.188.875.188.75-.188-.094-.312-.281v-.032a.08.08 0 0 0-.031 0 .08.08 0 0 0-.031 0 .08.08 0 0 0-.031 0c-.013.008-.021.019-.031.032-.013.008-.021.018-.031.03l-.188.532v.062a.14.14 0 0 0 .032.032.14.14 0 0 0 .03.03.08.08 0 0 0 .032 0h.125l.562.188h.031l.281.157c-.3 1.808-.323 2.745-.5 3.5-.144.617-.435 1.199-1.093 2.156l-.47.469-.03.218c-.025.035-.036.059-.063.094v.062c0 .017-.01.114-.031.22-.025.105-.085.244-.125.374-.08.26-.174.515-.219.625v.125l-.062.156c-.013.008-.021.019-.031.032v1l-.406.906a.14.14 0 0 0-.031.031v.094a.14.14 0 0 0 .03.03l.782.688v2.375l.094.938-.844.406-.687-.094a.08.08 0 0 0-.031 0l-.907.282a.08.08 0 0 0-.03 0v.03a.14.14 0 0 0-.031.032l-.344.906v.375l-.719.844-.625 1c-.013.008-.021.019-.031.031l-.094.906v.032a.14.14 0 0 0 .031.03v.032a.08.08 0 0 0 .031 0l.844.531h-.25l-.907.094a.08.08 0 0 0-.03 0l-.875.281c-.906.113-1.587.564-2.032 1.188-.15.21-.253.442-.343.687l-.125.094v.249a5.2 5.2 0 0 0-.157 1.126l-.875.812h-.03l-.876.532-.687.343-.219.094-.781-.156-.062-.031-.844-.594c-.257-.23-.867-.88-1.438-1.531a24.345 24.345 0 0 1-.78-.938c-.224-.284-.406-.525-.47-.656v-.031a.08.08 0 0 0-.03 0 .14.14 0 0 0-.032-.032h-.03c-.476-1.241-.978-2.492-1.063-3.78l.03.03.126.313v.031h.03v.062a.14.14 0 0 0 .032.032.08.08 0 0 0 .03 0 .08.08 0 0 0 .032 0 .08.08 0 0 0 .03 0 .14.14 0 0 0 .032-.032c.013-.008.02-.018.03-.03v-.969a.08.08 0 0 0-.03 0v-.032l-.438-.406v-.218a.08.08 0 0 0-.03 0 .14.14 0 0 0-.032-.032.08.08 0 0 0-.03 0h-.157v-.718a.14.14 0 0 0-.031-.032l-.531-1-.438-.875v-.03l-.343-.876-.282-.906-.375-.875v-.031l-.156-.875a.14.14 0 0 0-.031-.031l-.781-.875-.031-.032-.062-.218v-.219a.08.08 0 0 0-.031 0l-.719-.906-.25-.406v-.125a.14.14 0 0 0-.031-.032.14.14 0 0 0-.031-.03.08.08 0 0 0-.031 0h-.093l-.156-.157v-.124a.14.14 0 0 0-.031-.032l-.625-.875c-.01-.01.01-.022 0-.031-.55-.977-.893-1.675-1.282-2.72v-.03a.08.08 0 0 0 .032 0v-.125a.08.08 0 0 0-.032 0l-.063-.031v-.031l-.25-.875v-.032l-.187-.875-.281-.906-.062-.875.062-.125v-.124a.08.08 0 0 0-.031 0l-.062-.063v-.031l-.25-.844a.14.14 0 0 0-.031-.031l-.532-.875v-.032l-.218-.812.187.062a.08.08 0 0 0 .031 0 .08.08 0 0 0 .031 0 .08.08 0 0 0 .031 0v-.03a.08.08 0 0 0 .031 0v-.126a.14.14 0 0 0-.03-.03l-.594-1.032-.438-.906-.031-.031-.437-.438-.157-.281v-.125a.14.14 0 0 0-.03-.031.14.14 0 0 0-.032-.032l-.25-.187-.687-.813v-.03l-.094-.876v-.03l-.475-.939.094-.125v-.03a.14.14 0 0 0 .031-.032.14.14 0 0 0-.03-.031v-.032l-.657-.812.03-.031v-.031a.14.14 0 0 0 .032-.032v-.03a.14.14 0 0 0-.031-.032v-.031c-.45-.593-.716-.912-.875-1.156-.01-.012-.021-.052-.031-.063a1.785 1.785 0 0 1-.157-.312.968.968 0 0 1-.062-.22c-.024-.149-.025-.335-.093-.687-.056-.29-.154-.73-.344-1.312l-.094-.625-.125-.594c-.11-1.001-.234-1.989-.657-2.969h.031l.062-.906v-.031l-.343-.906-.438-.875-.187-.907-.188-.843v-.062l.188-.938v-.062a.08.08 0 0 0-.031 0l-.5-.844.062-.313v-.031l.625-.875c.013-.008.02-.019.03-.031v-.062l-.093-.345v-.03a.08.08 0 0 0-.031 0v-.032a.08.08 0 0 0-.031 0 .08.08 0 0 0-.031 0 .08.08 0 0 0-.031 0l-.282.063c-.013.008-.02.018-.03.03l-.22.22-.156-.688v-.062l.094-.532.125.063.438.156.031.031.219.156a.14.14 0 0 0 .03.032.08.08 0 0 0 .032 0 .08.08 0 0 0 .03 0c.014-.008.022-.019.032-.032a.14.14 0 0 0 .03-.03v-.094l-.03-.032-.157-.25a.14.14 0 0 0-.03-.03l-.563-.188-.188-.063-.093-.781.062-.062v-.032c.013-.008.02-.018.03-.03v-.032a.14.14 0 0 0-.03-.031v-.031a4.758 4.758 0 0 1-.376-.375l-.312-1.188.062-.594c.087-.344.159-.733.188-1.218.615-.938.824-1.508.812-2.094-.01-.31-.083-.608-.188-.969-.092-.324-.207-.7-.343-1.156v-.031a.08.08 0 0 0-.031 0v-.032a.08.08 0 0 0-.031 0 .08.08 0 0 0-.031 0 .08.08 0 0 0-.031 0 .08.08 0 0 0-.031 0l-.125.063-.062-.063a.14.14 0 0 0-.031-.03v-.032l-.594-.875.344-.813 1.218-.687.25-.063v-.03a.08.08 0 0 0 .032 0l.03-.063.032-.031a.08.08 0 0 0 .03 0l.032-.032.468-.218a.08.08 0 0 0 .031 0v-.032a.14.14 0 0 0 .031-.03v-.156a.14.14 0 0 0-.03-.032.14.14 0 0 0-.032-.031.08.08 0 0 0-.03 0 .08.08 0 0 0-.032 0 .08.08 0 0 0-.03 0l-.469.341h-.094c-.01.004.01.026 0 .031 0 .005-.03-.006-.03 0l-.876.157h-.03l-.907-.094-.125-.5.781-.844v-.03a.14.14 0 0 0 .031-.032v-.031a.14.14 0 0 0-.03-.032.14.14 0 0 0-.032-.03.14.14 0 0 0-.03-.032.08.08 0 0 0-.032 0c-.013.008-.02.019-.03.031h-.032l-.03.031-.688.344v-.781l.812-.313h.031l.875-.187a.08.08 0 0 0 .031 0v-.031a.08.08 0 0 0 .031 0v-.375a.14.14 0 0 0-.03-.031.14.14 0 0 0-.032-.031.08.08 0 0 0-.03 0l-.97.093h-.905l-.5-.5v-.031a.08.08 0 0 0-.032 0 .08.08 0 0 0-.03 0 .08.08 0 0 0-.032 0l-1 .438v.03a.08.08 0 0 0-.03 0v.032a.14.14 0 0 0-.032.031.14.14 0 0 0 .031.031v.032a.14.14 0 0 0 .031.03l.157.063.03.031.376.75-.813.25a.08.08 0 0 0-.03 0 .14.14 0 0 0-.032.032l-.531.906c-.013.008-.021.018-.031.031v.031a.14.14 0 0 0 .031.031.14.14 0 0 0 .031.032l.875.343.313.813-.5.875-.188.344v.03l-.688.845h-.125a.08.08 0 0 0-.03 0c-1.822.688-3.443 2.111-5.407 1.968-.01-.004-.02.004-.03 0a10.825 10.825 0 0 1-1.282-.656c-1.19-.72-2.123-1.644-2.969-2.906l-.437-.406-.031-.032c-.011-.016-.021-.023-.031-.03h-.031l-.375-.345a.14.14 0 0 0-.031-.03.08.08 0 0 0-.031 0h-.093l-.844-.876-.875-.812-.813-.875-.312-.844.375-.375.688.781v.031a.08.08 0 0 0 .03 0 .14.14 0 0 0 .031.032c.014-.008.022-.019.032-.032l.875-.25h.03l.876-.093h.03l.907-.375.875-.625.906-.156v-.032h.031c.013-.008.021-.018.031-.03l.531-.97v-.03l.47-.5.343-.376.062-.094a.08.08 0 0 0 .03 0v-.093l-.155-.438-.031-.125v-.093a.14.14 0 0 0-.031-.032.08.08 0 0 0-.031 0 .08.08 0 0 0-.031 0 .08.08 0 0 0-.031 0 .14.14 0 0 0-.031.032c-.013.008-.021.018-.031.03l-.313.813c-1.537-.143-2.162.274-2.719.563-.283.147-.537.268-.937.281-.393.013-.945-.1-1.719-.375-.01-.006-.021.006-.031 0-.888-.56-1.663-.935-2.281-1.437a4.126 4.126 0 0 1-.25-.22l-1.063-1.968.844-.594.75-.53.031-.032a.08.08 0 0 0 .031 0v-.031a.08.08 0 0 0 .031 0v-.063a.14.14 0 0 0-.031-.03v-.032a.08.08 0 0 0-.031 0 .08.08 0 0 0-.031 0 .08.08 0 0 0-.031 0h-.031l-.594.062c-.013.008-.02.019-.03.032l-.907.53-.875.626-.156-.75v-.031a.08.08 0 0 0-.031 0l.65-.845.75-.093h.969l.094-1.688 1.625.094.625.156.906-.156.906.156.344.375 1.438.094.28-.188.25-.531.813-.188 1.375-.375.25.907 2-.813-.375-.437.438-.907c-.799-2.398-1.993-2.818-2.063-5.03l-.906.093-.906-.281v-.094l-.688-1.25.25-.906.094-1.063-.812-.906h-.906l-1.438-1 .094-1 .281-.875.625-.656 1.344-1.344.375-.906.531-.719.907-.719.968.188.188.281.375.906.531.25 1.906-.719 1.157-.093.906-.094.875-.344.281-.906.375-.531.906-.906.25-.907 1.188-1.25 1.781-.906.906-1.25.532-1 .468-1.25.25-.906.72-.438 1.812-.812.155-.188-.062-.625-.094-.093-.375-.188c1.803-1.31 1.588-2.557 3.25-3.25v-.156l.281-.094.157.094.187-.281-.719-.282.282-1.25.156-.187-.157-.875v-.094l-.374-.562.718-.875.907-.657.625-.25 1.53-.53v-.813l-1.53-.72-.625-.093-.907-.375v-.094l-.625-.906-.906-.344.094-.093-.187-.906-.875-.532-.375-.906h.187l.438-.906-.813-.969-.062-.281v-.094l.438-.625.906-.812-.906-.094-.813-.438.438-.718-.875-.532.062-.468.562-.907.062-.343.906-.094.907-.438 1.625.438 1.343.281 1.344.156 1.813.563.906-.375.906-.281.25.093.813-.437.906-.375.906.094.625.468.625-.718v-.094l.438-1-.062-.531.812-.47 2.875-1.593M1212.75 486.842a1.937 1.937 0 1 1-3.875 0 1.937 1.937 0 0 1 3.875 0Z"/><path fill="#8cce55" stroke="#0f380f" stroke-opacity=".145" stroke-linecap="round" stroke-linejoin="round" d="M1211.438 490.53a1.937 1.937 0 1 1-3.875 0 1.937 1.937 0 0 1 3.874 0ZM1210.313 497.53a1.937 1.937 0 1 1-3.875 0 1.937 1.937 0 0 1 3.874 0ZM1212.063 505.405a1.937 1.937 0 1 1-3.875 0 1.937 1.937 0 0 1 3.874 0Z"/><path fill="#8cce55" stroke="#0f380f" stroke-opacity=".145" stroke-linecap="round" stroke-linejoin="round" d="M1214.313 508.905a1.937 1.937 0 1 1-3.875 0 1.937 1.937 0 0 1 3.874 0Z"/><path fill="#8cce55" stroke="#0f380f" stroke-opacity=".145" stroke-linecap="round" stroke-linejoin="round" d="M1216.063 511.155a1.937 1.937 0 1 1-3.875 0 1.937 1.937 0 0 1 3.874 0Z"/><path fill="#8cce55" stroke="#0f380f" stroke-opacity=".145" stroke-linecap="round" stroke-linejoin="round" d="M1216.313 513.905a1.937 1.937 0 1 1-3.875 0 1.937 1.937 0 0 1 3.874 0ZM1115.188 490.03a1.937 1.937 0 1 1-3.875 0 1.937 1.937 0 0 1 3.874 0Z"/><path fill="#8cce55" stroke="#0f380f" stroke-opacity=".145" stroke-linecap="round" stroke-linejoin="round" d="M1114.813 492.405a1.937 1.937 0 1 1-3.875 0 1.937 1.937 0 0 1 3.874 0Z"/><path fill="#8cce55" stroke="#0f380f" stroke-opacity=".145" stroke-linecap="round" stroke-linejoin="round" d="M1116.313 494.53a1.937 1.937 0 1 1-3.875 0 1.937 1.937 0 0 1 3.874 0Z"/><path fill="#8cce55" stroke="#0f380f" stroke-opacity=".145" stroke-linecap="round" stroke-linejoin="round" d="M1119.313 495.155a1.937 1.937 0 1 1-3.875 0 1.937 1.937 0 0 1 3.874 0Z"/><path fill="#8cce55" stroke="#0f380f" stroke-opacity=".145" stroke-linecap="round" stroke-linejoin="round" d="M1117.938 496.03a1.937 1.937 0 1 1-3.875 0 1.937 1.937 0 0 1 3.874 0Z"/><path fill="#8cce55" stroke="#0f380f" stroke-opacity=".145" stroke-linecap="round" stroke-linejoin="round" d="M1117.063 499.155a1.937 1.937 0 1 1-3.875 0 1.937 1.937 0 0 1 3.874 0ZM1118.438 503.28a1.937 1.937 0 1 1-3.875 0 1.937 1.937 0 0 1 3.874 0ZM1121.313 507.28a1.937 1.937 0 1 1-3.875 0 1.937 1.937 0 0 1 3.874 0ZM1152.563 502.486l.093.094.157.093h.094l-.25-.187h-.094ZM1155.813 505.767l.343.5-.125-.281ZM1156.5 507.392v.063l.75.875-.031-.094-.719-.844ZM1157.688 509.423c.691.796 1.27 1.565 1.25 2.688l.187.093v-.093l.094.093.281.72v-.094l-.25-.75-.25-.75-.312-.563-.719-1.187-.281-.157ZM1159.5 512.986l-.125.843v.907Z"/><path fill="#3e73c5" fill-opacity=".429" stroke="#000" stroke-opacity=".247" stroke-linecap="round" stroke-linejoin="round" d="m1147.553 503.57.344.437-.594-.344a.08.08 0 0 0-.03 0 .137.137 0 0 0-.032-.03h-.219l.532-.063ZM1147.116 503.851h.125l.28.156ZM1144.303 504.257l-1.094.656-.656.594c.043-.072.077-.151.125-.219.372-.52.908-.88 1.625-1.03Z"/><path fill="#8cce55" stroke="#0f380f" stroke-opacity=".145" stroke-linecap="round" stroke-linejoin="round" d="m1151.219 501.236.718.344-.187-.125ZM1151.938 501.58l1.78 1.28.72.72.437.906-.031-.125-.438-.969-.843-.75-1.625-1.062ZM1154.875 504.486l.125.625.219.094-.125-.094ZM1150.813 501.798v.032l.406.187-.407-.219ZM1151.75 501.955l-.094.28.156.095.188-.063-.188-.25-.062-.062ZM1143.875 504.142a2.768 2.768 0 0 0 0 0ZM1149.5 504.486l-.188.094.907.53h.094l-.719-.624h-.094ZM1150.781 504.923l-.218.188.187-.094.031-.094ZM1150.375 505.486l-.062.125.062.219ZM1150.375 505.83l.094.343.031-.093-.125-.25ZM1150.313 506.986l-.188.375v.125c.065-.177.124-.358.188-.5ZM1156.5 507.08v.156l.031-.125-.031-.031ZM1149.531 509.454l.063.25h.281l-.343-.25ZM1149.875 509.704h.062a1.193 1.193 0 0 1-.062-.156ZM1149.75 511.798l.062.719.125 1.594.188.218a21.49 21.49 0 0 1-.376-2.53ZM1159.375 514.736l-.25.812.25-.687ZM1159.125 515.548l-.375.969.062-.031.313-.938ZM1150.094 514.923l-.031.125.156.5-.125-.625ZM1150.219 515.548l.156.5.188.344-.063-.219-.28-.625ZM1156.781 518.048l-1 .375h-.343l-.25.094.78-.063.876-.375.03-.03h-.093ZM1151.25 518.33l.125.25.094.03-.219-.28ZM1152.469 519.142l.094.062h.437l-.53-.062Z"/></svg>