<svg width="1671.094" height="856.393" xmlns="http://www.w3.org/2000/svg" xmlns:usvg="https://github.com/RazrFalcon/usvg" usvg:version="0.8.0"><path fill="#3e73c5" fill-opacity=".429" stroke="#000" stroke-opacity=".247" stroke-linecap="round" stroke-linejoin="round" d="m1348.81 272.205-2.55-3.883.686-2.705 2.416.222-2.341-2.26 1.188-1.54-.15-3.889-2.495.502.11-2.117-2.891-1.247-2.272 1.15-.97-1.122 1.722-1.305-.637-1.62-3.166.258.277-2.476-1.327-1.088.899-1.321-.076-2.547-1.54.452-1.009-.798.899-2.743-2.063-4.533-.033-1.621-.85-1.05.827-1.084-3.17-1.99-.641.949-1.813-1.094-.812.187-.813.907-.906-.47-.625.188-.875-.093-.906-.875.25-.563.094-.906-.532-.875.97-.281-1.345-.375-.53-.875-.907-.625-.344-.47-.906-.28h-.906l-1.782-.532-.375-.25-.968-.093-.907.156-.906.375-.625.906-1.187.813-.875.343-.188.907-1.281 1-2.875 1.875-1.5 2.625h-.031l-3.5.875.187.812-.812.094.094-1.625.344-.875h-.72l-.53-.375-.282-.906-.906.906-.531.531-.969.375-1.812-.187-.625.53-1.813-.53-.969.625.065.28-.875.626-.906.375-.906-.188-.531.094-.47-.187-1.25-1.813-1.093-.156v-.906l.656-.907.25-.187.094-.906.72-.97.468-.905-.188-.532-.094-.187.438-1 1-1.781.469-1-.188-.188.969-.437.094-.907.812-.906v-.344l-.437-.906-.906.094-.813-.906-.906-.188.187-.906-.094-.875-.531-.719-.438-.281v-1.344h.062l.908-.719.094-.187.096-.188.094-.25.531-.562v-.875l-.344-.906-1.906-.094-.906-.375.281-.875.438-1.094.656-.906-.75-.906-.062-1.782-.813-.906v-.187l-.812-.907-1.813-.437-1-.094-.968-.625.624-1 .532.094.906-.188v-.875l-.719-1-.094-.718-.534-.906-.906.375.271 1.146-.906.813-.188-.094h-1.78l-.47.906-.718.094-.907-.719-.968.25-.907-.344h-.53l.437.907-.625.875v.906l-.719.625v.094l.438.468.375.969-.907-.062-.375 1.437-.875.344v.906l.969.719.094.281.094.875 1 .375.094.906-.656.813-.907.812.188.875-.061.625-.906.563-1 .906-.281.719-.438.875-.906.093-1.531 1-.907.532-.906.281.281 1-.906.625-.813.969-.156.468-.468.97.375.905.187 1 .344.907 1.812.812h.969l.906.094-.096.969.282.906-.094.906-.72.25-.906-.156-.53.25-.095.375-.906.437.375.907.531.812 1.094.188-.094.906.531.781-.625.906-.906.563-.906.719.375.875-1.344.812-.625.094-1-.906v-.157l-.906-.093-.719-.907-.812-.093-.907-.438-.906-.719-.344-1-.906-.28-.906.187-.781.375h-.75l-.438.968.625 1.813-.187.25-.875.656-.75.875-1.344.375-.906.281-.532.875-.968.47-.625.53-.375.907-.72.906-.812-.094.282.969-.188.906.531.907-.094.093-.096.094-.906.187-.969-.656-.718-.969-.375-.906-.813-.906-.156-1h-.281l-.907.187-.718-.093-.72.906-.343.906-1.281.188-.906.25-.97-.438-2.25-.093-.905-.094-.907.531-1.156 2.25-.094.188-.625 1.218-.531 1.032.344.187.094.188.096.093.094.063v.906l1.156.188.719 1.875-1 .812-.344 1-.625.625-.094.094v.187h-1.094l-.906.438-.156 1-.625.437-.375 1 .375.906.094.625-.281.907-.907 1.625.094.156.344.906-.531.906-.157 1 .063.25-1.157-.25-.344.157-.906-.063-.562.969-.969.094-.188.906 1.344.906 1.906 1.875.875.906.563.188.969-.625.906.625 1.094.25.625.625.281.281.875.469.719.062.906.72 1 .187.344.812 1.812-.344h.969l.469.344.906.906-1.813.625.282.282.094.968-.625.907-.281-.094-.094.187-.188.907.625.906.563.344-.543 1.78-2.645 2.263-.394 1.466-.933.213-.91 2.511.769 2.26 1.067 1.029-.825 2.648-2.711.895-1.24 1.209-1.203.578.925.903 1.378.095 2.315 1.002c.653-.198 1.305-.108 1.958.023l1.029.588.988-1.115 1.366-.165.544 1.674-.809 1.447.743 1.742-1.494.717-.777.67-2.096.5c-.028.79.377 1.687-.244 2.328l1.027.386-1.266 2.263-1.118.199-1.041 2.826.08 1.806 2.74 2.357.751 2.028.014 2.189-.762 1.847-.014 1.698-1.367 1.934c.242 1.308.107 3.676.107 3.676l-.804 2.272.254 2.623-2.885-.204-3.914.389-.12-.817-2.135-2.355-1.864-4.023-.702-.364.185-1.142-1.777-.157-6.575-3.855-10.154-.948-2.346-.305-.903-1.814 1.536-3.269-.197-3.85-2.413-3.73-.628-1.748-1.01-1.216-1.848-.124-.92-1.001-1.923.066-1.923-1.089-.59-1.23-2.721-.98.53-.844-.939-2.662-1 .188-.906.437-.467-.094-.875-.25-.906.157-1 .656c.168.343.26.656.281.937v.031a1.57 1.57 0 0 1-.125.75c-.01.012-.03.02-.03.032a2.01 2.01 0 0 1-.47.593 2.953 2.953 0 0 1-.343.25c-1.09.688-2.848.954-3.907 1.094l-.812 2.063v.187l-.062.156.25 1.813v1l.375.875-.625 1.281-2.625 1.25-.906.438-.438-.875-.906.093-.906-.187-.907.187-.531-.093-1.875-.375-.906-.532-1-.468-.813.906-.156 1-.187.281-.344.813-.469 1.343-.906 1.782-.094 1-.25.906-.813 1.531v.156l.907.375.687 1-.156.438v.187l-.188.188-1.78-.281-.907.343-.906-.78-.907-.188-.718.25-2.782.906-.718-.094-1.813.563-1 .093-.25.157-.187.093v1.094h.28l.907-.187.875.343-.344.75v2.594l.813 2.063.812 1.812-.28 1 .718.875-.906.188-.72.375.532.875-.062.093-.906.375h-.531l-.375.907.375 1.78.062.188-.157.625-.094.907h-1l-.906.718-1.594.625-.906.188-2 1-1.781.875-.375.719-.094.093-.531.563-.907.719-.906-.188-.875.344-.906.094-1.719-.188h-.906c-.36.528-.633.978-.844 1.344-.21.366-.355.638-.469.875v.031l-.25.531v.032c-.059.125-.123.209-.187.28a.694.694 0 0 1-.281.188c-.376.14-1.119.228-2.907.688l-.906-1.063-.875-.468-.187.093-.907.625-1-.093-.718-.157-.094.25.375.625-.907.188-.906.719-.625.375h-.906l-1 .625-.531 1 .375.875-.375.906-.907.187-.156 1.25.719.907.25.28-.438.876.375.906v.094l.625.625h.438l.906-.625.906.094 1.157.375.812.968-.281.469.094.969.468.906.063 1.25.28 1 .532.906-.531.344-.344.281-.719-.281-.469.188-.812.906.375.344.531-.157.719.25.719.094 1.906.469.062.343.563.375.906.157.781.718.469.813v.906l-.344.906.156.438.907 1h1.187l1.688 1h.187l2.5.812h2.25l1.813-.812 1.093-.625 1.782-.719.718-.093 1-.094.094-.094h.906l.875.625v.375l.907.875.812.469.906-.188.344.094.188.094.375.25-.907 1.812v.907l-.468.906-.438.625h-.25l-.562.437-.25.625-.282.188h-.468l-.344.093.187.72-.468.905-.532.344-1.093-.093-.875.906.187.375.156.156v.094l-.343 1v.718l.25.438.906.562.906.25-.094.907.469.812.25.906-.094.094-.437.438-.72.28-.624.626-.469.094-.906-.375-.156-.875-.282-.094-.437.25-1.094.187.375.625v.907l.781.906.469.812-.094.344v.094l-.188.281.72.906-.345.72.532.874.343-.344.938-.28.625 1 .531.53v.094l.438.375.281.344.906-.188.906.563.25.062.375.375.625.813-.093.281 1.78.531 2.095 1.344.343.813.813-.094.375-.438.25-1.187.906-.188.906.282 1 .093.97 1.344.905.469 1.875 1.531 2 .531.188.532h.25l.469.718.906.907.875-.532 1 .094.625.875.187.719 1.875 1.187.907.719.718-.187 1-.094-.437 1v.344l.875.28h1l1-.28.875 1.28.187.345v.093l.438.532.187-.97 1 .438.907.282.093-.094 1.063-.625c2.629 1.935 1.479.99 4.313 1.344l.906-.438 1.187.156.906-.53.875-.282 1-.156.532.812v.875l-.438.906.094.47.25.343.375.375.188-.375v-.188l.812-.906.969-1.25.813-1.062.094-.094.375-.375 1.78-.813h.532l.906.282.188.906.531.094h.438l1.812.156.281.281h.094l.875-.531 1 .437h.188l.906.282-.093.906c.747.125 1.162.112 1.531.031.136-.03.275-.08.407-.125.245-.08.521-.18.875-.28a9.19 9.19 0 0 1 1.406-.282l.469-.875.53-.656.72-.344.812-.531.188-.282.343-.906.813-.25.906-.093.875-.282.656-.343.157-.188.812-.719.375-.562 1.875-1.156.906.718.813.188v-.094l1.906.625c1.581-1.596 1.175-1.435 3.125-2.156l.469.531.625.563.187.156-.906.625.094.562 1.531-.468.188.906.25.469-1.063 1.53.875.25.188-.093.531.094 1.469.531v-.062l.875.156.562.469.532-.782.094-.125.625-.53.906.874.531-.062 1 .968v.907l.438 1.093.093.344 1.438.188.531.906.188.969v.906l.28 1.437v1l-.187.72-.53 1.624.343 1.438-.906.187-.625 1.156-.907-.28-.093.187-.063.906-.187.094-.188.437-.906.188-.625 1v.25l-.281 1-.531.343v1l.625.907.187.625.094.187-.625.906.188.719.875-.469.625-.437.281-.188.906-.25h.906l.813.25.719-.187.625-.25-1 .906.094.625.625.875-.094.75.375.25.187 1.344.875.469h.469l1.25.156h.094l-.531 1.281-.094 1.531-.625.813-.375.812.906.344 1-.094.906.188.25.187.625-.093v1.25l.188.468.281.094.344.156.375 1 .094-.093 1.062-.188.282.188h.25l.906-.532.531-.53 1.094-.47.094 1h.094l.28.813.157.906.719-.094 1.031.22.219.03.187.188.282-.188.28-.25-.468-1 .375-.718-.187-.282-.094-.906-.72-.969-.28-.906.062-.187.03-.094.313-.281.063-.063.531-.719h.094l.282.344.156.188.281-.282.906.188.625-.438.344-.375.563-.968 1.062.437 1 .906h.813l.375-.562.875-.875.187.094.531.875.657-.97.53.532.907.906.062-.093.094-.094.531-1.25.75-.188-.094.438.438.281.468-.281.97-.438.906-.437v-.094l-.095-.187.282-1h.343l.094-.094.907-.344.625-.53.343.437.657.53.156.376.469.25 1.093.562h.438l.25-.28.813.187.187.437.906-.094.282-.25.718.25.438.375.187.188-.468.875-.626.469v.093h-.094v.438l.47.906.187 1.063h.968l.094.28.438.532.75.469.688.25.124.281.532-.281.094.375.531-.094.531-.187.282-.094.906.562.562.407v21.187l20.375 9.938-.156 40.625-34.813.28-13.03.063-.22-.062v.094l-.53.968-.376.813-1 .375-.875-.531-.562.25-.813.718-.875-.343-.094-.188.438-.625.094-.906-.25-.625-.908-.282-.656-.812-.531.093-.906-.343h-.157l-.28-.563-.532-.25-.375 1.344h-.094l.562.812-.906-1.218-9.125 2.468 2.719 4.438 20.562 17.187 2.063.75 1.219-.03 1.25-.47h3.5l.687-.468v-16.969h21.625l.125 13.656-.437.907 1.156 1.875.719.468.187.438.906.531.344.563.906.718.907.063.968-.531 1.282-.25.906.062.875.375.906-.281 1-.531.906-.188.344-.969.188-.468.906-.344h.25l2.25-.094.187.625 1 .281 1.97.625 1.093-.812.875-.188.562.188-.094.25v.187l-.625.907-.906.812.281.906-.718.907 1.875-.375.906.28 1.906-.562h.438l.875.563-.344.875v1.906l-.094.719.906-.813.813.094-.282 1 .282 1.438.812 1.78.719.376.719.906-.094.344-.907.812-.343 1-1 1.782-.532.468-1.531.532-.094 1.25-.469.906-1.25.719-.094.718-.719 1.813-.125-.063-.28 1.219-.188 1.5-.594 3.406-.625 2.375-.875 2.032 7.844 2.656 3.343 1.937 1.625 1.532-2.093 2.187-5.875.281-1.625 2.563.281 1.312.625.657.938 1.28.03 1.032h-10.937l.156 267.25h69.5v-154.5l2.407-.625 4.593-2.063v-82.437l-1.718-.437-.97.25-.093.906h-.907l.376 1.812-.813-.531-.188.344v.093l-.28.532.28-.625.095-1.813.53-1.344-1.812-1.437-.718-.906-.782-.625V584.6l-10.093 1.312-5.813-31.125 15.906-19.5V438.07h-23.187v-19.657h7.625V351.82l.969-.875.093-.531h.094v-.094l.094-.094 2.063-1.719.438-.093h.28l.907-.813.625-.156.344-.094.906-.562.438-.625.906-.188.906-.625.719-.719.094-.093 1.094-1.531v-.063l.25-.281.187-.906.344-.094 1-.625c.978 1.198 1.69 1.763 2.812 1.969.145.026.308.048.47.062.074.008.14.026.218.031.032.002.06 0 .094 0 .222.012.455.01.719 0l.468-.156h.344l.094.063.813.187.468-.906-.656-.781v-.094l-.344-.719-.094-.719 1.094-.28.688.093v.093l1.906-.187.719-.375.906-.625.344-.969.094-.093h1.187l.438-.188.468-.906v-.531l.532-1.532h.625l1.156.438-.062.625.062.281v.094l.562.531.719.281v.188l.344.625.094-.813-.438-1.25.907-.187.53-.282.907.094.344-.906.531-.813.281-.875v-.906l-.437-.375.25-2.687.094-.094-.188-1.531-.156-.438v-.093l-.188-.907-.718-1.718.531-.344.906-.094.907-.375 1.25-1.25.094-.375.906.188.094.093 3.843 1 .563.188.625-.469.156-1.781.469-.563.906-.343.094-.188.344-1.531.719-.531.812-1.532.375-.812-.094-1 .188-.344.25-.187.187-1.25.375-1.094.344-.344-.094-1.375 2.062-1.25.47-.719-.188-.906-.094-.437-.375-.375.75-1.875-.813-.532-.625-.093-.094-.094-.906.25-.719.094-.469.468h-.968l-.907.813-.28.25-1.782-.188-.906.563-1.157.906-.75.875-.718-.156-.907.25-1.78.094-1.25-.344h-.907l-1 .344h-.188l-.53-.282-.095-.875-.875-.906.062-.812.469-1-.375-.907-.625-.437-.188-1 .188-.875h-1.969l-1.375-1.094-.344-.625h-.094l-.343-.625-.907-.719-.281-.187-.969.281-.656.156-.969-.718-.812-.72-.563.094-.437-.093-.906.281h-.907l-.875-.375-.718-.156-1.282-1.375-.062-.875v-.375l.438-.906-.438-.22-.094-.03-.562-.282-.25-.906.25-.906-.719-1.344-.719-.906-.625-1.063-.187-1.25.187-.28-.968-1.813-1.094-1.782-.094-.093.437-.907-.875-.718.25-.094-.437-1-.719-.875-.812-.375v-.906l-1.344-1.532-2.25-1.062-.906-.094-1.157.344-1.718-.625-.907-.813-.437.094-.906-.719-.907-.187-.812-.344h-.906l-.907.344Z"/><path fill="#3e73c5" fill-opacity=".429" stroke="#000" stroke-opacity=".247" stroke-linecap="round" stroke-linejoin="round" d="m1255.209 519.57 1.812 1.437-.906-.531-.906-.906h0ZM1309.928 561.695l-.188.281-.094.375.281-.656Z"/><path fill="#8cce55" stroke="#0f380f" stroke-opacity=".145" stroke-linecap="round" stroke-linejoin="round" d="m1346.281 402.955-.906.562H1346.938ZM1335.5 425.736l-.906.344.187.28ZM1343.063 427.173l-1 .72-1 .374-.438.531-.625 1.344-1.094 1.094-2.25 3.844.094 1.718-.25 1.094 1.156 2.781 1.344 1 .375 1.782.813-.907.156-1.437.469-.906 1.343-1.688.438-.906 1.094-4.781.625-.875.375-.907v-2l.437-.437-.719-.719-1.343-.719ZM1323.969 434.548l-.157.375.626-.187v-.188ZM1305.625 438.767l.344.469.531.187ZM1308.594 441.58l-1 .343-.094.282.281-.094.813-.531ZM1291.219 447.705l-.344.437.875-.094.094-.28-.625-.063ZM1291.031 452.736l-.531.094-.094.093-.625.344-.344-.344-1.281-.093-.812.812-.907-.375-.156.906-.906.532-2 1.625.125 1.875.25.906-.094.906.531.094.906.625h.532l1.812.468.094.25h.906l.25-.906 1.094-.156v.25l.625-.906 1.813-1.063-.188-1.812.531-.094.282-.875.718-.906.72-.375.093-.906-.281-.875h-2.5l.156.437-.25-.437-.469-.094ZM1341.625 459.486l-2.813.531-.061 1.188-.563 1.78-.094 1.813.094 1.97-.625 2.78.094.563.438.875-.157.469-1.093.343-1.094-1.156-.625-.187-.062 1 .062.906.469.625v.344l.25.187-.157 1 .532.969.343 2.25.907-.094-.157.563.625.906.875.344v-1l-.187-.875.562.25.625.093.719.532.094.718h-.375l-1.344 1.282.094.718.375.72.969.093v.875l.906.375h1l.625-.906.438-.25.375-.188h.906l1.344.719 1 .812.687.813.188.875.625.093.094-.812-.719-1.156v-.532l-.438-.906h.626l1 .625.25.813 1.625.906.562.906v.875l2.25.906h.875l-.625.375.438.907.906-.469v-1.813l-1.688-.343-.094-.907-.718-.906-.282-.093.625-.782.907-.093-.094-.375-1.626-.625-.875-.532.063 1.157-.438.468h-.438l-.374-.468.187-.813-.375-.625-.875-.719-1.813-.093-.53.906-.72-.281.72.906-.813.187-1-.375-.906-.812-.094-.781-.157-.188-.28-.906.187-.906-.188-.188-.281-.969-.625-.906.281-1 .438-.875-.094-.906.562-1 .875-.531.906.187.094-.094.719-1-.188-.093c.292-1.357 1.67-2.344 1.532-3.875l-.25.093-1-1.25-.438-1.812.156-1.688.657-.906v-.375l-.907-.344-.375.532-.906.28-.969-.093.157.906-.25-.28-.094-.907-1.97-1.25Z"/><path fill="#8cce55" stroke="#0f380f" stroke-opacity=".145" stroke-linecap="round" stroke-linejoin="round" d="m1345.5 476.58-.906.187v.156l.906.72.156-.876ZM1345.313 480.892l.874.531v-.156ZM1355.813 481.267l-.97 1.875.813.625.907-.719v-.906ZM1336.563 482.236l.812.812.094-.437-.906-.375ZM1345.031 483.673l-.531.47.625.905.438.157.468-.875ZM1338.469 483.767l-.907.281.72.188.53.875.563.469.438 1v.875l.28.093.344 1 .813 1.063.625.281.469-.531.25.093.187-.906.532-.812-.25-.375-.095-1.782-.53-.812-2.188-.906-.875.093-.907-.187ZM1350.344 485.767l.343.875 1.094 1-.437-.906ZM1346.125 487.83l-.75.812-.25.906.375.875.438-1.875ZM1358.875 488.267l-.25.188-1 .093-.719-.187-.968.187.343 1 .625.875.907.375.093.281.907.97v.905l.437.907.532.437.656.906 2.062-.28-.28-1.063-.345-.282-.375-.625-.187-1.625.281-.53-.188-.532.282-.188v-.187l-1-.344-.188-1-.812-.281h-.813ZM1347.813 488.548l.187.907.375.156.156-.875ZM1351.25 488.548l.094 1.438-.469.906h.469l.719-.906.437-.094 1.094 1.344.906.469.156-.813h.188l-.188-.375-.968-.531-.563-.719-.875-.719h-1ZM1353.125 488.548l.563.719-.095-.719h-.468ZM1336.125 489.61l-.281.907.281.375h1.531l-.343-.906-1-.188ZM1335.594 490.986l.531.969v-.625ZM1345.219 491.142l-.469.813.906.187.094.906-.187 2.594-.438.906.094 1.813 1.25-1.094 1.625-.25 1-1.375.719-.156.625-.906.344-1.094-.344-.438-.906.532-.094-.532h-1.344l-1-.906-1.875-1ZM1356.281 492.423l.438.907.187.062.282-.969ZM1356.563 493.392l-.095 2 .157.531 1-.281.625 1 .094.438-.282.906.188.719-.062.718.875.625.187-.968h.907l-.094-1.72-.625-.437v-2l-.282-.875-.812-.187-.906.25-.875-.719ZM1333.875 493.955l-.906 1.875.625.906-.907-.906.282.906-.094.906-.875.344-.656.906-.782.531-.75.813-.437.906-.906.719-1.532 1.906-.875.25-.812.563-1.813 2.312-.375.906.907-.437 1-.906.906-.188.875-.719.562-.906 1.813-1.156 1.25-1.625v-1.156l.531-.375.906-.094.813-.969.969-.719.375.063.625-.875-.813-1.906.094-1.875ZM1355.031 494.392l-.718.906-.188 1-1.438 2.407-.374 1-.25.28-.376 1.157-.25 1.906.813-.906.688-1.906.187-.344.906-.812.719-.907.094-2.875.187-.906Z"/><path fill="#8cce55" stroke="#0f380f" stroke-opacity=".145" stroke-linecap="round" stroke-linejoin="round" d="m1351.063 495.58-.907.343-.343.375.061.532-.625.906v1.531l-.437.875-.719.281-.906.625.281 1 .719.907 1.25.875.563.906.437-.094 1-.719-.281-.875-.532-.906.063-.906.75-1.906.156-.875.656-.72.25-.905-.625-.907-.813-.343ZM1336.125 497.455l-.906.187.906.094v-.282ZM1348.719 497.455l-.907.093.095.813.812-.907ZM1362.5 498.455l-.719.875.157.906h.562ZM1355.469 499.61l-.532.376-.093.25-.907.562.094 1.25 1.625.094.907-.188.874-.53-.156-1.188-.906-.625h-.906ZM1364.125 500.236l-.281.906.281.375.625-.187-.375-1.094ZM1362.031 501.673l-.906.282.656 2.25v.718l-.656.094-.875-.438-.188.97-.906-.345h-.906l-.062 1.875-.469.188-.718-.375-.907.281c-.586 2.97-.848.356-2.875 2.625l-.187-.093.562-.375.438-.907-.188-.875-.718-.906h-1.157l-1.281.531-.688.907v.53l-.906.438-1.468.188-.97.375-.718 1.437v.719l-1 1.781.375 1h.875l.375-1.156.625-.906.188-.906.906-.907.906.282-.094.343.156.907.906-.438.47-.906.53 1 .97.344v-.907l.28-.875.72.094 1.718.875.531.906.281.813-.187.281-.438.156-.53.906.343.907v1.531l.625.906 1.437.969 1.907.75.875-.094.75-.906.156.25-.344.906v.375l.438.907.531-.094 1.281-1.813.062-.906-.625-1.625-.875-.781.25-.719.813-1 .375-1 .718.094.97 1.812.28 1.782.344.906.125-.094.157-2.156.28-.906.907-.72c.316-1.865.777-2.447-.656-3.687l.28-.53.095-.907h-.625l.094-.531-.188-.907-.906-.53 1-.72-.625-1.437.188-1-.657.344-.343-.25-.375-.907-1.532-1ZM1352.938 503.58l-.344.906.187.093.157-1ZM1321.469 514.36l-.907.907-.437 1-1.719 1.781-.281.907-.531.906-.375.187-.344.969-.906.094-1.157.562-.093.438.906.531-.47.906-.28.188H1314l-.75.812-.157-.093-.094-.375.188-.532-.906.188-1.438 1.156-.906.469-1.719.093-.094 1.344-1.437 1.781-.875.72-2.094 2.905-4.406 1.157-1.875.281-.625.437-.469.907.375.906-1.344.094-.094.875.907-.094-.657.187-.625 1.344.47.906-.907.188.812.906.907.25-1.438-.25-.937-.719-.875.532-.094-.625-.907-.188.188-.531-2.344.187-.906-.562-.719-.906v-.344l-.437.906 1.156 1.875.719.469.187.438.906.53.344.563.906.719.907.063.968-.532 1.282-.25.906.063.875.375.906-.281 1-.532.906-.187.344-.969.188-.469.906-.343h.25l2.25-.094.187.625 1 .281 1.969.625 1.094-.812.875-.188.562.188-.094.25v.187l-.625.906-.906.813.281.906-.719.906 1.875-.375.907.282 1.906-.563h.438l.874.563-.343.875v1.906l-.094.719.906-.813.812.094-.28 1 .28 1.437.813 1.782.719.375.718.906-.094.344-.906.812-.344 1-1 1.781-.53.469-1.532.531-.094 1.25-.469.907-1.25.718-.094.719-.719 1.813 1.094-.375-.094.906.375.906.062.906-.062.875.875-.062 1.906-.906 1.782-.625 1.812-.907.25-.906.656-.906-.094-.906.907-.438v-1.875h.906l.156-.906-.906-.469.375-.969-.188-.906h-.906l.906-.625.563-.906.875-.438.094-.906.906.25.813-.875.718-1.094.438.188.469-.188.625-1.812-.813.469.375-2.438-.125-.906 1.375-2.781.875.093-.062-1 .969.531 1.812.375.907-.093.875-.438.187-.468v-.157c-1.855-1.226-3.863-2.495-5.219-4.343l.907-1.782-.907-.906-.343-.906-1.188-.719.469-.719-.904-.28-.188-.876-.906-1 .188-.094v.188l.906-.094-.719-.187.625-.25h.907l.874-.282-.874-.906-.626-.906.532-.438.094-.906.875.188.906.437 1.625-.531h.906l-.375-.906-.875-.72-.625-.905.97-.625.905.375.907-.094 1.78-.531.626-1-.875-.532-.625.094-2.625-1.906-1.063.531h-.906l.813-.719-.47-.906-.874.469-.907.187.438-1.906v-.531l-.906-1-.875.094-.563-.907-.906-.625-.156.907-1 .812.375-1-.094-.906ZM1345.375 515.455l-.531.906.531.719.906-.375v-.907ZM1244.344 515.642l-.375 1.344h-.094l.562.812.219.344.375 1v1.813l.188.25.156 2.625.719.906.28.875-.28.906.468 1 .907.625-.188 1.156.906.719 1.25 1.813.344.906-.344.906.907.719 1.343.531 1.782 1.719 1.812.719.625.906.906.25 1.907 1 .625.906h.875l.562-.375.906.094.094-1 .532.906.906.437-.375-1.968-1.969-3.875-.656-.157-.875-1.187.094-2.688-.469-1.28.375-.97.188-1.812-.188-1.875-1.375-2.719-.937-.906H1257l-.875-.531h-.031l-.875-.907h-.031l-.532-.812-.906-.781-.375-.125-.219-.063v.093l-.53.97-.376.812-1 .375-.875-.531-.562.25-.813.719-.875-.344-.094-.188.438-.625.094-.906-.25-.625-.907-.281-.656-.813-.531.094-.906-.344h-.157l-.28-.562-.532-.25h0ZM1243.531 516.58l.313.468h.03l-.343-.468ZM1341.156 518.517l-.906.813 1.813.25v-.72ZM1344.313 518.61l.374.344h.157l.094-.093-.625-.25ZM1360.969 521.673l-.188.094.188.156.25-.094ZM1337.031 522.017l-.906.469-.625.875.625-.438h1l-.094-.906ZM1367.188 526.423l.25 1v.906l.187-.718.438-.907Z"/><path fill="#8cce55" stroke="#0f380f" stroke-opacity=".145" stroke-linecap="round" stroke-linejoin="round" d="m1325.406 527.423 1.094.625-.094-.625h-1ZM1325.875 530.204l.438.532v-.25ZM1295.813 534.267l.093.906.282.063-.375-.969ZM1359.875 539.017l-1 .094-.438.906-1 .281-.25.906-.906.25-.906.907-1.781.53-1.813-.343h-.906l-.875-.28-.906.53-1.907-.718-2.156-.344-1.781.094-.563-.907-.906.094-.906-.469-.875.563-.375.875-.719.906-1.781.187-.906.438-.094.906-.531.531-.47.907.376.906h-1.094l.656 1.344-.125.906.375.906.094.906-.53-1.093-1.907 2.718-.094.875.187 1.907-.625.906-.28.875v.906l-.813.906-.907.625.47.907-.47.906.563 1.781h.906l.969-.344.906.25c-.7 2.687 2.123 1.57-.531 7.844l-.094.531.281.907.875.625.907.281.906-.469 1.968-.25-.25-1-.468-.906.187-.875.438-.906-.25-3.688.437-1-.187-1.812-.625-.875-.062-.907 1.875-1.343h.906l.906.25.156.906-.28 1.531-.688 1 .625.875 1.781 1.531.906.375.094.72-.625 1.812.813.875.906.187.875-.625.625-.906 1.906-.438.906.188-.375-.563.907-.25-.188-.906-.906-.093-.688-.907-.812-.625-.281-.906.343-.531.188.093-.25-.906.625-.281-.813-.875-2.625-3.625-.875-.719-.906-.25-.094-1.094 1 .72.875-.188.719-.875 1.812-.719.97-.656 1.374-1.782.875-.53 1.813.624.437-.906-.344-.906-.906-.344-.875.156-.906.813h-2.813l-.906.718h-.969l-.906-.53-.906.812-.969 1.156-.562.906-1.532-.344-.53-.28-.188-.907-.813-.906-.875-.344-.625-.906-.375-2.063.719-1.906.719-.875.906-.563h.906l.875.563h.906l.907-.375.187.094.875-.282h.906l.907.47.906-.282 4.594-.094.906.906 1.781.094 2.969-.469.906-.53.438-.907 1.718-1.781.47-.907.812-.906-.563-.906ZM1260.906 540.204l.094.72.875-.532-.969-.188Z"/><path fill="#8cce55" stroke="#0f380f" stroke-opacity=".145" stroke-linecap="round" stroke-linejoin="round" d="m1345.656 548.392-.906.094.906.093v-.187ZM1350.781 552.173l-.906.188-.781.875.343.906.907-.906.281.906.531.281.188-1 .906.281.344-.906ZM1318.563 561.892l-.688.906-.281.875.531 1.813.906-.719v-1.875l-.187-.906-.282-.094ZM1319.375 562.61l.094.907.094-.906h-.188ZM1350.25 565.204l-.375.657.906.531.375-.906ZM1350.344 567.204l-.906.625-.188 1.875-.25.907-.906 1.812.906.531.531-.906.907-.187.094-.875-.656-1 .28-.907.813-.906-.625-.969ZM1348.719 568.173l-.969.563-.656.906-.438 1.781 1.25.531 1-2.687ZM1345.313 570.36l-.563.063-.156.906.906.813.156-.906ZM1338.469 573.58l-.188.093-.187 1.813.375.875.281-1.782-.281-1ZM1340 580.517v.187l.875-.093-.875-.094ZM1313.813 584.204l-1 .625-2.25-.437.094.906 1.812.781.907.75.062 1.063h.468l.344-.906 1.906-.969-.531-1-.906-.531-.907-.282ZM1326.688 584.392l-.907.187.157.97 1.812 1.093-.906.625-.906.094-.782-1-1.812-.625-1.875.625-.375 1.812.906.719.906.156 1.782-.344.906-.437h.812l1.782-.906 1 .625.906-.282.906.188.906-.438-.468-1.812-.875-.344-.469.969-.188-.969-.906-.187-.969.437-.468-.906-.875-.25ZM1349 584.58v.968l-.906.281-.531.907-.907.156-1.437-.813-.906.094-.907.469-.906-.094-1.875-1-2.687-.344-.907.157-1.812 1.187v.906l.906.25.625-.156.906.25.907-.187 1.781.656h1.906l.875-.469.906.188.907-.188.906-.437 1.906-.094 1.063-.437.375-.907.875-.468-.188-.875H1349ZM1356.813 584.58l.281.53-.813.907h.907l2.687-.469-.25-.906-1.812.094-1-.157Z"/><path fill="#8cce55" stroke="#0f380f" stroke-opacity=".145" stroke-linecap="round" stroke-linejoin="round" d="m1325.313 584.642-.875.187.25.907ZM1319.125 584.923l-.906.719-.281.906v.906l-.875-.093c1.724 1.609 3.151.676 3.75-1.344l-.625-.906-1.063-.188ZM1351.344 585.11l-.906.188v.531ZM1353.219 585.11l-1.344.094-.437.875.875.282.906-.344 1-.719-1-.187ZM1355.469 585.298l-.906.25.094.375.906.25ZM1368.063 585.642l-.875.281-1.813.156-1 .282-.906-.188-3.594.813-.812 1.343-1.25.72-1.875.655-1.813.97-.906.812-.531 1.812.094 1.719h.906l1.781-.906h1l2.688-2.438.531-.906 1.281-.813 2.688-.812.906-.531.906-.188 1.782-.875.906-.281.906-.625.813-.906-1.813-.094ZM1350.531 586.017l-.906.344v.468ZM1336.125 590.236c-1.542.423-3.807-.617-4.937.906l.437.625.531.281 1.813.156 2.062 1.094.813 1 .906.156 1.781-.343.375-.813-.906-.812-.719-.907-.906.094-1.25-1.437ZM1345.031 595.267l-.906.562v.25ZM1351.156 595.736l-.906.875-.906.187.187.719.907-.25.906-.656ZM1368.375 610.767l-.469.156v.906l-.687.813-.906-.094-.563-.343-.719.875-.25-.875-.375.25.188.093-.531 1.531-.719.907-.906-.469-.375-.875v.875l-.344-.063-.906.25-.907.907.282.906.718.969-.562-.344-1.781.344.343.906h1l.282.906-1.344-.812-.906-.188-.469.906-1.063.813.188.906.875.344-.813 1 .375.906 1.813.344-2.875-.063-.906-.656-1 .469-.532-.906-.906.093.719.907-.188.25-.875.28 1.25 1.813.875-.28-.687.905.437.907-.437-.282-1-.53.187.874-.187 1.813v-.188l-2.813-4.5-.062-.906-.906.906-.375.906-.969.532-1.187 1.437-.25 1 .156 1.813-.094.875.906.28-.812 1-.907.813-.874.344-.188.906-.719.188-.094.969-1.062 1.812-.813.906-.906.625-2.781 1.157-2.188.468-.875.25-.625.375-.906-.375h-1.531l-1.438 1.375-3.343.72-1.72 1.155-1.78.282-.907-.47-.906.376-.969-.188-1 .625-.906.282-1.719 1.156-1.78 1.719-.907.625-1.875.53-1.281.813-1.438 3.063-.906-.531-.25-.907.25-1.875-.969.813-.281.969-.813 1.812-.094.531.719 1.813-.25.906v.969l-1.187 1.812-.532 2.688.094 1 .813.906.062.906h.188l.187.875.719 1 .875 1.813.906.875-.281 1.812.094 1-1-.187-.532-1.813-.718.907-.094-.438.187-.906-.625-.906-.906-.188.719 1.813.906.906.531.906-.531.875-.906-.156-.907-1.813v.907l-.906-.907c1.438 2.378 5.164 5.313 4.313 8.47l.187.905.813.875 1.187 1.813.062.906.375.719.813.906.625 1.781-.188 3.063.375.906.375 1.781c2.266 6.317 3.809 3.945 2.688 11v-1l-.282 1 .47 2.688-1.376 1.812-.875.25-1.094-.093-.094 1.812.563 1.813.875-.094.906.344 1 .625 1.781 1.812.907.282.906.53 1.812.282 1.875-.187.907.343.906-.156.875.25v-.344l.719-.093 1.812-.813.813-.906.968-.813.907-.437.906.25.906-.063 1.156-1.906.907-.719.906-.28 1.531.093 2.781-.438 2.688-.187.562.281.907.094.906-.282.625.907.875-.532 1 .25.906-.437h.906l.875.719.907-.625h1l.906-.813v-.187l1-.719.531-1.875.719-.906.875-.469.906-.094.906-.343 1-.625 1.782-.813 1.812-1.187.906-.344.625-.188 2.782.375 1.812-.093 1.719-.47 2.406-.624 4.594-2.063v-82.437l-1.719-.438-.937.25-.094.907h-.906l.375 1.812h-.031l-.782-.531-.187.344v-.063l-.031.063v.093l-.281.532.281-.625.094-1.813.531-1.344-1.781-1.437h-.031l-.719-.906-.75-.625h-.03v-.032l-.97-.593-.906-.094-.625-.969Z"/><path fill="#8cce55" stroke="#0f380f" stroke-opacity=".145" stroke-linecap="round" stroke-linejoin="round" d="m1360.25 614.454-.375.25-.187.375.281.094.281-.719ZM1303.281 667.986l.188.906 1.156 1.875-.625-1.875Z"/><path fill="#3e73c5" fill-opacity=".429" stroke="#000" stroke-opacity=".247" stroke-linecap="round" stroke-linejoin="round" d="M1301.21.507v82.032h69.684V.507Z"/><path fill="#8cce55" stroke="#0f380f" stroke-opacity=".145" stroke-linecap="round" stroke-linejoin="round" d="m1282.501 198.143-.906.375.271 1.146-.906.813-.188-.094h-1.78l-.47.906-.718.094-.907-.719-.968.25-.907-.344h-.53l.437.907-.625.875v.906l-.719.625v.094l.438.468.375.969-.907-.062-.375 1.437-.875.344v.906l.969.719.094.281.094.875 1 .375.094.906-.656.813-.907.812.188.875-.061.625-.906.563-1 .906-.282.719-.437.875-.906.093-1.532 1-.906.532-.906.281.281 1-.906.625-.813.969-.156.468-.468.97.375.905.187 1 .344.907 1.812.812h.969l.906.094-.096.969.282.906-.094.906-.72.25-.906-.156-.53.25-.095.375-.906.437.375.907.531.812 1.094.188-.094.906.531.781-.625.906-.906.563-.906.719.375.875-1.344.812-.625.094-1-.906v-.157l-.906-.093-.719-.907-.812-.093-.907-.438-.906-.719-.344-1-.906-.28-.906.187-.781.375h-.75l-.438.968.625 1.813-.187.25-.875.656-.75.875-1.344.375-.906.281-.532.875-.968.47-.625.53-.375.907-.72.906-.812-.094.282.969-.188.906.531.907-.094.093-.098.094-.906.187-.969-.656-.718-.969-.375-.906-.813-.906-.156-1h-.281l-.907.187-.718-.093-.72.906-.343.906-1.281.188-.906.25-.97-.438-2.25-.093-.905-.094-.907.531-1.156 2.25-.094.188-.625 1.218-.531 1.032.344.187.094.188.098.093.094.063v.906l1.156.188.719 1.875-1 .812-.344 1-.625.625-.094.094v.187h-1.094l-.906.438-.156 1-.625.437-.375 1 .375.906.094.625-.282.907-.906 1.625.094.156.344.906-.531.906-.157 1 .062.25-1.156-.25-.344.157-.906-.063-.562.969-.97.094-.187.906 1.344.906 1.906 1.875.875.906.563.188.969-.625.906.625 1.094.25.625.625.28.281.876.469.719.062.906.72 1 .187.344.812 1.812-.344h.969l.469.344.906.906-1.813.625.282.282.094.968-.625.907-.282-.094-.093.187-.188.907.625.906.563.344-.543 1.781-2.645 2.262-.395 1.466-.933.213-.908 2.512.767 2.258 1.067 1.03-.825 2.648-2.71.894-1.24 1.21-1.1-.198-.104.775.924.905 1.379.093 2.314 1.002c.653-.198 1.306-.107 1.96.024l1.029.588.988-1.116 1.365-.164.545 1.674-.81 1.447.744 1.743-1.494.716-.778.668-2.095.502c-.028.79.376 1.687-.245 2.328l1.028.385-1.268 2.264-1.117.199-1.041 2.826.08 1.807 2.74 2.355.752 2.03.014 2.187-.764 1.848-.014 1.697-1.367 1.936c.243 1.308.108 3.675.108 3.675l-.805 2.272.256 2.623-2.887-.205-3.914.388-.119-.816-2.135-2.355-1.863-4.022-.703-.363.185-1.143-1.777-.156-6.574-3.855-10.155-.95-2.345-.304-.905-1.815 1.538-3.267-.198-3.85-2.414-3.73-.627-1.749-1.01-1.216-1.849-.123-.918-1.002-1.924.066-1.924-1.09-.588-1.23-2.722-.979.531-.845-1.395-.858.15-1.92-2.935.408-.904.157-1 .656c.169.344.26.656.281.937v.032a1.57 1.57 0 0 1-.125.75c-.01.011-.03.02-.03.03a2.014 2.014 0 0 1-.47.595 2.962 2.962 0 0 1-.343.25c-1.089.687-2.848.954-3.906 1.093l-.813 2.063v.187l-.062.157.25 1.812v1l.375.875-.625 1.281-2.625 1.25-.906.438-.438-.875-.906.094-.906-.188-.907.188-.53-.094-1.876-.375-.906-.531-1-.47-.813.907-.156 1-.187.281-.344.813-.469 1.344-.906 1.78-.094 1-.25.907-.812 1.531v.157l.906.375.687 1-.156.437v.188l-.187.187-1.782-.281-.906.344-.906-.782-.906-.187-.72.25-2.78.906-.72-.094-1.812.563-1 .094-.25.156-.187.094v1.093h.281l.906-.187.875.344-.343.75v2.593l.812 2.063.813 1.812-.282 1 .719.875-.906.188-.719.375.531.875-.062.093-.906.375h-.531l-.375.907.375 1.781.062.187-.156.625-.094.907h-1l-.907.718-1.593.625-.907.188-2 1-1.78.875-.376.719-.094.093-.531.563-.907.719-.906-.188-.875.344-.906.094-1.719-.188h-.906c-.36.528-.632.978-.844 1.344a12.85 12.85 0 0 0-.468.875v.031l-.25.531v.032c-.06.125-.124.209-.188.28a.694.694 0 0 1-.281.188c-.376.14-1.119.228-2.907.688l-.906-1.063-.875-.468-.187.093-.907.625-1-.093-.718-.157-.094.25.375.625-.907.188-.906.719-.625.375h-.906l-1 .625-.531 1 .375.875-.375.906-.875.187-.188 1.25.719.907.25.28h.031l-.469.876.375.906v.094l.625.625h.438l.906-.625.906.092 1.157.375.812.968-.25.469.063.969.469.906.094 1.25.25 1 .562.906h-.03l-.532.344-.344.281-.718-.281-.47.188-.187.218-.625.688.375.344.125-.03.407-.125.25.092c.02.002.04-.003.062 0l.406.156.312.031.407.063 1.906.469.094.343.531.375.906.157.782.718h.03l.438.813v.906l-.343.906.187.438.875 1h1.188l1.687 1h.188l2.5.812h2.25l1.812-.812 1.094-.625 1.781-.719.719-.094 1-.091.094-.094h.906l.875.625h.03v.375l.438.437.407.438h.03l.813.469.906-.188.313.094h.062l.063.062.062.03h.029l.344.25h.03l-.906 1.812v.906l-.437.907-.469.625h-.25l-.562.437-.25.625h-.03l-.25.188h-.468l-.343.093.187.72-.438.905h-.03l-.5.344h-.032l-1.062-.094h-.03l-.876.907.188.375.156.156h.03v.094l-.374 1v.718l.281.438.875.562h.031l.844.25h.03l-.093.907.469.812.25.906h-.031l-.065.094-.438.438-.719.28-.625.626-.468.094-.907-.375-.156-.875-.281-.094-.438.25-1.093.187.375.625v.907l.812.906.438.812-.094.344v.094l-.157.281.688.906-.344.72.531.843.344-.313.906-.28h.032l.625 1 .5.53h.03v.094l.407.375h.03l.282.344.906-.188.906.563.25.062.344.375h.031l.625.813-.094.281 1.75.531h.061l1.03.688 1 .656h.032l.374.813.782-.094.375-.438.25-1.187.906-.188.906.282 1 .093.969 1.344.906.469 1.875 1.531 2 .531.188.532h.28l.438.718.907.907.875-.532 1 .094.625.875.187.719 1.875 1.187.906.72.72-.188 1-.094-.438 1v.344l.875.28h1l1-.28.906 1.28.156.345v.093l.438.532.187-.97 1 .438.906.282.094-.094 1.063-.625c2.629 1.935 1.478.99 4.312 1.344l.907-.438 1.187.156.906-.531.875-.281 1-.156.532.812v.875l-.438.906.094.469.25.344-.031-.094.064.094.344.375.187-.375v-.188l.813-.906.968-1.25.813-1.062.094-.094.375-.375 1.781-.813h.532l.906.281.187.907.532.094h.437l1.813.156.28.281h.095l.875-.531 1 .437h.187l.907.282-.094.906c.746.125 1.162.112 1.53.031.137-.03.276-.08.407-.125.245-.08.522-.18.875-.281a9.19 9.19 0 0 1 1.406-.281l.47-.875.53-.657.72-.343.812-.532.187-.28.344-.907.812-.25.907-.094.875-.281.656-.344.156-.187.813-.72.375-.562 1.875-1.156.906.719.812.187v-.093l1.907.625c1.58-1.597 1.175-1.435 3.125-2.157l.468.532.625.562.188.156-.906.625.094.563 1.53-.469.188.906.25.47-1.062 1.53.875.25h.03l.157-.093.531.093 1.469.532v-.063l.875.156.563.47.53-.782.095-.125.625-.531.906.875.531-.063.97.969h.03v.906l.438 1.094.094.344 1.406.187h.03l.563.906.157.97v.905l.28 1.438v1l-.187.719-.531 1.625.344 1.437h-.031l-.844.188-.656 1.156h-.031l-.875-.281-.062.187-.094.906h-.031l-.157.094-.187.438h-.031l-.875.187-.625 1v.25l-.25 1h-.031l-.531.344v1l.625.906.187.625.094.188-.625.906.188.719.875-.47.625-.437.281-.187.906-.25h.907l.812.25.719-.188.562-.218-.437.406-.469.469.062.625.625.875-.062.75.156.125.157.125h.03l.188 1.343.875.47h.469l1.25.155h.092l-.53 1.282-.097 1.53-.625.813-.343.813.406.187.437.157h.031l1-.094.907.187.25.188.593-.094h.062v1.25l.157.469.28.094.313.156h.031l.375.969.094-.063 1.063-.187.281.187h.25l.906-.531.532-.531 1.062-.469h.031l.094 1h.093l.282.812.156.907.719-.094h.03l1 .219.22.03h.028l.157.188h.03l.25-.187.25-.219.031-.031-.468-1 .375-.719-.188-.281-.094-.906-.718-.97-.282-.905.062-.188.031-.094.313-.28.062-.063.5-.657.03-.062h.095l.281.344.156.187.282-.281.906.187.625-.437.343-.375.532-.906.03-.063 1.063.438h.031l.969.906h.813l.374-.563.844-.812.031-.063.188.094.531.875.594-.906.06-.063.532.532.906.906.062-.094.094-.094.532-1.25h.03l.72-.187-.032.062-.062.375.47.282.437-.282.968-.437.47-.219.405-.219h.031v-.091l-.094-.188.282-.937v-.063h.373l.061-.094.907-.343.625-.532h.03l.344.438.625.531.188.375.438.25 1.093.563h.438l.25-.282h.03l.782.188h.03l.157.437.906-.093.282-.25.718.25.438.375.187.187-.03.063-.438.812-.625.469v.062l.03-.03v.062h-.123v.062h.03v.375l.438.906.198 1.063h1l.062.281.468.531.719.47.688.25h.028l.096.28.532-.28.094.374.531-.094.531-.187.282-.094.906.563.906-.094.875-.531.563.531v-1l-.188-.344.094-.375v.282l.719-.094.437 1.156.907-.531.718.531-.187.906 1-.093.094.187.906-.187v-.907l.875.282.563.53-.094-.437.906.438-.094.375-.719.906-.375.969v.375l.563 1.719.875.78v.813h1l.906-.25.437-.906-.812-1.187.375.093-.094-.437-1-.094v-.906l1.093-.813-.187-.875.281.813.875-.094.282-.812.343-.188-.25.188h.907l1.156-.282.281-.187.156.281.75-.625.969.188.625-.907h.719v-.812l1.812.906.438-.906v-.375l.094.375.906.531 1-.906.875.094v-.907l.469-.437.312.062c-.01-.019 0-.042 0-.062-.02-.062-.062-.12-.062-.188v-.03c0-.132.043-.26.094-.376v-.062c.055-.131.121-.245.22-.344l-.282-.719.375.657a1.01 1.01 0 0 1 .312-.157c.088-.042.183-.047.282-.062.033-.003.06-.031.094-.031h.03c.15 0 .282.032.407.093.11.046.191.112.281.188v-.688l-.812-.906.28.094.188-.25-.812-.469-.469-.094 1-.156-.094-.719.438.063.656-.25h.906l-.906.094-.531.343h.53l-.093.469.25.875h.375l.531 1.469.813-.281.53.906.626.25.188-.875-.532-.469.906-.187.25.187.188.469.375-.906-.375-.094.906-.625.281.969.97-.438 1.093-.719.25.282.469.062.906.563.188-1 .968.187.906-.187.282-.188-.188-.25.344.156 1.438-.156.468-.187.344-1.188.094.188.094-.72.906-.343.438-1.281.906.469 1.25-1.188.094.094.906-.438.375-.906.969.094.719-.907v-.906h-.875l-.282-.25h.813l.969-.812.906.25 1.437-.063-.25-1 1.782-1.094-.188-.906.469.188.906-.094-.281-.875.094-.656 1-.063.188.625.437-.906-.438-.281.626-1.344-.75-.437h-.063l-.376.156-.53-.156-.72-.813 1.626.813.53-.72.907-.812.875-.375h-.875l.094-1-.906-.25-.094-.906h2.062v.375l-.812.875.812-.344.532-.906.656-1.625.718-.094-.906-.53.907.28.624-1 .188-1 .344-.156.468-.906-.187-1-.719-.531.907.437.624.094.876-.906-.063-.532.626-.343.25.78.906-.718.375-.875-.281-.812h-.907l-.625-.813.907.625.437.094.906-.469-.187-1.344-.813-.344.719-.906.906.281.375.438.344-.906-.094-.907-.906-.093-.875.656-.375-.375 1.375-.531.625-.906.625-.344-.907-.563-.625-.093-1-1.25-.906-.438-2.5.875.344.281-.719-.28-.094-.97-.906.094-.875.25.625-.531.906-.281.969.375.281-.094.531-.906 1.532-.813.906-.719 1.812-.187-.094-.875-.468-.906-1.97-1.438-1.093-1.094-1.625-.53-.062-.907-1-.188-1.25.657-1.094-.282-1.437-1.437-.344.281.25-.469-.25-.437.875.156.906 1.625.907.375 1.25-.812 1 .093.624.25.563.907 1.875-.188 2.438 1-.095-1-.718-.781-1.188-.656-.187-.875-.875-.72-1.532-.718-.094-.906.188-.906-1.094-1.813-1.875-5.125-1.187-.625-.907-.281-1.062-.625-.906-.813-.813.188-.187-.906.187-.625 1.625-2.157.438-.906.906-.187.719-.532.468-.906.344-.156v-.656l-.344-.532.06-.343.907-.282v.907l.906.093.906-.375-.281-.969.906-.468.094-1-.437.093.343-.343.532.343 1.812-.625.625-.437 1.813-.625.812.062.625-.625.062.907.906-.094.657-.719.156-.906v-.969l-.906-.375h-.344l-.906-.719-.625.72-.094-.25-1.875.062-.719-.875-.906.156-.907-.875-.906-.375-.906.187-.969.438-1.093 1.187-.72.344-.53.906-.907.532-1.437.093-.907-.187-1-.531-.062-.282v-.968l.25-1 .47-.907-.72-.875-.906-.812-.468.062-.344.907-1-.813h-1.532l-.874-.625-1-.969-.375-.906.094-.906 1.093-2.063 1-.375 1.782.813.906-.625.906.187.906-.093 1.25-1.25.094-.907.344-.906 1-.906 1.531-.531.438-.375 1.344-.532 1.28-1 .532-.875.813-.906.625-.187.437-.907.375-.25.906-.093.907.531h.53l.907-.906-.187.375.718.906.907.438-.094.343.437.907-.719.906-1 1.625-.968.437-.907.719.188.906h-.375l-.875.532h.875l.469.812 1.78-.25-.53.25-1 .813-.25.906-1.813.812.281 1c2.906-2.007 2.867-.818 5.22-3.531l1.874-.969 1.813-.656.906-.625 1.875-.25h1.905v-.031l.97-.875.094-.531h.094v-.094l.094-.094 2.062-1.719.438-.093h.281l.906-.813.625-.156.344-.094.906-.562.438-.625.906-.188.906-.625.719-.718.094-.094 1.094-1.531v-.063l.25-.281.187-.906.344-.094 1-.625c.978 1.198 1.69 1.764 2.813 1.969.145.026.307.048.468.062.075.008.14.026.219.031.032.002.063 0 .096 0 .223.012.455.01.719 0l.469-.156h.373l.061.063.813.187.468-.906-.656-.781v-.094l-.343-.719-.095-.719 1.094-.28.688.093h.03v.094l1.876-.188.718-.375.907-.625.343-.969.094-.093h1.188l.437-.188.47-.906v-.531l.53-1.532h.625l1.157.438h.03l-.093.625.094.281v.094l.53.531.72.281v.188l.343.625.094-.813-.437-1.25.906-.187.531-.281.907.093.343-.906.532-.813.28-.875v-.906l-.437-.375.25-2.687.094-.094-.187-1.531-.156-.438v-.093l-.188-.907-.719-1.718.532-.344.906-.094.906-.375 1.25-1.25.094-.375.906.188.094.093 3.844 1 .563.188.625-.469.156-1.781.469-.563.906-.343.096-.188.344-1.531.719-.531.812-1.532.375-.812-.096-1 .187-.344.25-.187.188-1.25.375-1.094.344-.344-.094-1.375 2.062-1.25.469-.719-.188-.906-.093-.437-.376-.375.75-1.875-.812-.532-.625-.093-.094-.094-.906.25-.719.094-.469.468h-.969l-.906.813-.281.25-1.781-.188-.907.563-1.156.906-.75.875-.719-.156-.906.25-1.781.094-1.25-.344h-.906l-1 .344h-.188l-.531-.282-.094-.875-.875-.906.062-.812.469-1-.375-.907-.625-.437-.188-1 .188-.875h-1.969l-1.375-1.094-.344-.625h-.096l-.343-.625-.907-.719-.281-.187-.969.281-.656.156-.969-.718-.812-.72-.563.095-.437-.094-.907.281h-.906l-.875-.375-.718-.156-1.282-1.375-.06-.875v-.375l.437-.906-.438-.22-.094-.03-.562-.282-.25-.906.25-.906-.719-1.344-.719-.906-.625-1.063-.187-1.25.187-.28-.968-1.813-1.094-1.782-.094-.093.437-.907-.875-.718.25-.094-.437-1-.72-.875-.811-.375v-.906l-1.344-1.532-2.25-1.062-.906-.094-1.157.344-1.718-.625-.907-.812-.437.093-.906-.719-.907-.187-.812-.344h-.906l-.907.344-1.875.281h0l-2.548-3.883.685-2.705 2.416.223-2.342-2.262 1.19-1.539-.15-3.888-2.495.501.11-2.117-2.891-1.246-2.272 1.149-.97-1.121 1.722-1.305-.638-1.621-3.166.258.279-2.475-1.328-1.09.898-1.32-.076-2.547-1.539.453-1.01-.799.899-2.742-2.063-4.535-.033-1.62-.85-1.05.827-1.084-3.168-1.99-.643.949-1.812-1.094-.813.188-.812.906-.906-.469-.625.188-.875-.094-.907-.875.25-.562.094-.907-.53-.875.968-.281-1.344-.375-.531-.875-.906-.625-.344-.469-.906-.281h-.907l-1.78-.531-.376-.25-.969-.094-.906.156-.906.375-.625.907-1.188.812-.875.344-.187.906-1.281 1-2.875 1.875-1.5 2.625h-.031l-3.5.875.187.813-.812.093.096-1.625.343-.875h-.718l-.532-.375-.28-.906-.907.906-.531.532-.97.375-1.812-.188-.625.531-1.812-.531-.969.625.065.281-.875.625-.906.375-.907-.187-.53.093-.47-.187-1.25-1.813-1.093-.156v-.906l.656-.906.25-.188.094-.906.719-.969.469-.906-.188-.531-.094-.188.438-1 1-1.781.468-1-.187-.188.968-.437.094-.906.813-.907v-.343l-.438-.907-.906.094-.812-.906-.907-.188.188-.906-.094-.875-.531-.719-.438-.28v-1.345h.061l.909-.718.093-.188.096-.187.094-.25.532-.563v-.875l-.344-.906-1.906-.094-.907-.375.282-.875.437-1.094.657-.906-.75-.906-.062-1.781-.812-.907v-.187l-.813-.906-1.812-.438-1-.093-.969-.625.625-1 .532.093.906-.187v-.875l-.719-1-.094-.719-.535-.906Zm5.5 59.125.969.093.343.344.031.031a18.556 18.556 0 0 0-.406 1.844c-.1.63-.177 1.245-.281 1.875v.031c-.051.305-.124.606-.188.906v.032c-.13.611-.3 1.204-.53 1.78v.032a7.655 7.655 0 0 1-.407.844v.031l-.188 1.781.375.907-.53.906-.907.812-.188.907-.906.625v-.032l.094-.875-.875-.187-1.343 1.781.937-.25.906.094h.031l.156.812-.875.907h-.906l-1 .812-.344.875h-.03l-1.876 1.531c-.658.232-1.423.422-2.156.657-.985.315-1.89.72-2.5 1.5a3.093 3.093 0 0 0-.375.656l-.03-.031-1.063-.344-1 .187-.344.282-.188.437.188.438-1 1.812-.969.906-4.062 1.063-.907.469-1.687-.094-2.719-.813.875-.812 1.813-.281h.03l1 .093.876-.53h.718l.97-.282 1.812-1.25 1.343-1.906h.031l.875-.72 1.782-.812.75-.875v-.03l.968-.876v-.906h.031l.97-.813 1.78-1.093 1.438-1.782h.03l1.782-1.28c.878-1.9 2.014-3.465 3.063-5.22l.718-1.78.907-1.095.25-.906-.062-.875.187-.906 1.781-1.344.188.031.562.094-.468-.156-.25-.063Z"/></svg>