<svg width="1671.094" height="856.393" xmlns="http://www.w3.org/2000/svg" xmlns:usvg="https://github.com/RazrFalcon/usvg" usvg:version="0.8.0"><path fill="#3e73c5" fill-opacity=".429" stroke="#000" stroke-opacity=".247" stroke-linecap="round" stroke-linejoin="round" d="m1348.81 272.205-2.55-3.883.686-2.705 2.416.222-2.341-2.26 1.188-1.54-.15-3.889-2.495.502.11-2.117-2.891-1.247-2.272 1.15-.97-1.122 1.722-1.305-.637-1.62-3.166.258.277-2.476-1.327-1.088.899-1.321-.076-2.547-1.54.452-1.009-.798.899-2.743-2.063-4.533-.033-1.621-.85-1.05.827-1.084-3.17-1.99-.641.949-.01-.01-1.813-1.094-.812.187-.813.906-.344-.187-.562-.281-.625.187-.875-.094-.906-.875.25-.562.094-.906-.532-.875.97-.282-1.345-.375-.53-.875-.907-.625-.344-.468-.906-.282h-.906l-1.782-.53-.375-.25-.968-.095-.907.157-.906.375-.625.906-1.187.812-.875.344-.188.906-1.281 1-2.875 1.875-1.531 2.625-3.5.875.187.813-.812.094.094-1.625.343-.875h-.718l-.532-.375-.281-.907-.906.907-.531.53-.97.376-1.812-.188-.625.532-1.812-.532-1 .625.094.282-.875.625-.906.375-.907-.188-.531.094-.469-.188-1.25-1.812-1.093-.156v-.907l.656-.906.25-.187.094-.907.718-.968.47-.907-.188-.531-.094-.187.437-1 1-1.782.469-1-.188-.187.97-.438.093-.906.813-.906v-.344l-.438-.906-.906.093-.813-.906-.906-.187.188-.907-.094-.875-.532-.718-.437-.282v-1.343h.062l.906-.719.094-.188.094-.187.094-.25.531-.563v-.875l-.343-.906-1.907-.093-.906-.375.281-.875.438-1.094.656-.906-.75-.907-.062-1.781-.812-.906v-.188l-.813-.906-1.812-.437-1-.094-.97-.625.626-1 .531.094.907-.188v-.875l-.72-1-.093-.719-.532-.906-.906.375-1 .156-.625.282-1.781-.72-1 .094-2.781-1.625-.375.282-.969.093-.906.25-.907-.812-1 .094-.187-.907.375-.968.813-.563.437-.875-.25-.812.969-.625.906-.813-.094-.469 1-.718.906.093.438-1-.907-.156-.25-.562-.906-.344-.094-2.531-.468-.907-.782-.343-.375-1.813.907-.812-.625-1.782-.625-.906.062-.437-1.344-.375-.907-.625 1.813-.282 2-1.625.969-.062.906-.469.375-4.031.062-5.406v-2.438l-.531-1-2.438-3.062-.343-.875 1-.907.687-.093.906.28.907-.187.906-.468 1.875-.438 1.437-.281 1.813-1.438 1.906.188.875-.094.906.563h1l.813-.907.156-.468.188-.532-.25-.343-.375-.563-.375-.906 1-.156.28-.907.532-.28 1.344-.157h.531l.906-.375-.625-.906c.068-.178.146-.322.219-.47.015-.03.016-.063.031-.093.061-.114.124-.215.188-.312.033-.052.06-.109.094-.157.052-.07.102-.125.156-.187.052-.062.102-.102.156-.156.032-.032.06-.064.094-.094.036-.033.088-.033.125-.062.046-.037.08-.094.125-.125.051-.036.103-.063.156-.094.092-.055.185-.115.281-.156.08-.034.17-.037.25-.063.136-.044.267-.098.407-.125.192-.037.395-.076.593-.094.196-.017.396-.019.594-.03.405-.027.82-.066 1.22-.157.398-.091.785-.23 1.155-.5l1.906-.531.97-.47.75.095 1.5-.72.374-.187.531-.875-.437-.625-.469-.062-.437-.031-.907-.563-.906-.25-.062-5.125-.187-1.187-.906-.094-.094-.094-.625-.531-.188-.906h-.875l-1-.344.188-.906.343-.438-.968-.468-.938-.625-.969-.282-.187-.968.375-.375.25-.907.719-.875-.532-1-1.718-.718.562-.907-1-.281-.906-.437h1.625l2.781-2.25-.875-.438-.125-.562 1.844-.844 2.062-1 1-.188-.25-.781-5.906-2.125 2.625-1.562 15.469-4.875.063-27H1370.89V.506h69.503V82.54h41.5v42.937h-22.812v1.314h-68.722v17.717h.47l.155-.094.907.344.656.906-.375 1v.906l.187.906-.28.875.187.907h1.78l.907.187 1.625.344.344.906v.906l-.875.813.875.625.125.906.875.438.187.718-.906.094-.969.719-.812.906v1.438l-1 .468-.813.875-.906.625-.625.094.013.01 2.89 1 1.966 3.769-.015 3.428-5.524 7.434-8.941 4.37-.013-.01.719.874.28.906.626.907.812.718 1.782.813 1.906 1.25.344.094.906.468.281.875-.094.469-.469.531.907.438 1.625 2.719.906 1.78-.188 1 .72.626 1-.094.624.906.013.01.795-.468-.405-.92 2.142-.783-1.36-1.826.369-1.935 1.668-.602 1.737.338 3.009-1.61.476.467 1.252-1.734.231-.808.878-.855.67.516 1.449-.583.541-.544.977.304 1.685-2.016 3.576-.72 4.248.87.657-.12.748.505 1.635-.076 1.284.584 1.511-.463 1.87-.34 2.011 1.132.188.907.875.718.094.875-.531.47.718.905-1.343.625h-.188l-.812 1-1.063 1.782-.375.812.625.906 1.813 1.063 1 .812.718.907-1.53 1 .624.906 1.875.875.188 1-.438 1-.187.875.375.906-1.094.719-.906.187-.625.532-.907.468-.906.72.188.718-.375.906.468 1.531.625.875.907.188h.53l.47.906.79.462-.384 1.046-.047 1.634-.549.789-.022.031-.906.135-.136.426-.02.257-1.145 1.408-.738 1.244-1.956.419-.443.751-1.292.06-.381 1.046-1.747.545.376.544-.749.186-.118.598.392.98.94.417-.904 1.308.287 1.429-.512.555.377 1.445-.31 1.112.406.676-.644.789-.572-.47-.324-.601-1.888.361-.43 1.39-.537.046-.671.994-1.606.342-.899.037-1.24-.393-.02.001-1.584.094-1.183-.823-.818.525-1.157.945-.541 1.235c-.466.193-.109-.53-.59-.349-.503.19-1.1.121-1.61.326l-.237-.65-1.411.505-1.299-.427-2.481-.246-.798-.194-2.527 1.077-.154 1.563-1.361-.017-.014-.011v.906l-.813 1.875-.906-.093v1l-.813 1 .47.875-1-.094-.907-.531-.906-.094.906 1.625 1.531 1.812-.437.344-.907.375-.906.906.094.72-.344.437-1.187-.438-.188.063-.53.468.905.532 1.875 1.968.375.563-.562 1.781-.531-.25-.907.719-.062-.375-.906.375-.187.906-.532.875-.187.281-.375 1.875.281.907.906.468h1.813l.625-.28.875.28 1.906-.562.906.094.875.718.47.907 1 .468-1.345.157-.562.906h-.906l.28.812-1.968.438-.469 1-1 .531-.875.281-.906.532-.344.906-.656 1.25h-.906l-.875.375-.906 1.25.094 1h.625l.906.344 1.781.28.719.188.562 1.782.25 1.718.907-.093.906.468.906-.468.875-.094 1.625-.094.906.188.907-.438.437-.281.813-.906.906-.094.094-.156c3.871 1.921 3.76-2.469 6.313.531v.906l-.563 1.532-.625.968-.188.47.626.905-.532.72-.343.874-1-.25-3.25-.719-1.25-.625-.626.438v.906l.72.906.187.344-1 .469-.907.156-.906-.156-1.343.875-.532.906-.625.625-1.906.281-1.25.438h-.906l.187.906v.094l.188.375-.188.719h-.906l-.906.625-.969 2.25-.563.53-.25.907.876-.094.468.72.094.905.625-.28.719.374.188.438.718.906-.812.906.906.531v.907l-.656.25.656 1v.718l-.469 1.157-.875-.063-.75.875-.156.656-.094.063-.906.094-.625.375-.188.187h-1.968l-1.376-1.094-.343-.625h-.094l-.344-.625-.906-.718-.282-.188-.968.281-.657.157-.968-.72-.813-.718-.562.094-.438-.094-.906.281h-.906l-.875-.375-.719-.156-1.281-1.375-.062-.875v-.375l.437-.906-.437-.219-.094-.031-.563-.281-.25-.907.25-.906-.718-1.344-.72-.906-.624-1.062-.188-1.25.188-.282-.969-1.812-1.094-1.781-.094-.094.438-.906-.875-.72.25-.093-.438-1-.718-.875-.813-.375v-.906l-1.344-1.531-2.25-1.063-.906-.094-1.156.344-1.719-.625-.906-.812-.438.093-.906-.718-.906-.188-.813-.344h-.906l-.906.344ZM1432.871 317.29l.02.007.01-.008h-.026ZM1432.89 317.297l-4.057 5.617-14.062 15.031-29.059.313.01.01h-.562l-.906.25-1.782 1.469v.156l-.468.375-.625.906-.438.969.531.906-.25 1.813.094.875-.906.562-1 .344-.812.906-.282.531-1.78.813-.72.906-.906.531-1.906.375-.969.813-.906.437.094.907-.344.906-.281.187-.281.875 2 1 .812.907 1.781 1.437-.986 1.305-4.894-.037-1.838 2.949-.47.283-.905-.531-1 .156-.875-.093-1.813-.782.188.875-1 .72.375-.876-.907.438-1.437-.72.906-.624-1.906-.281.625-1.782.375-.187v-.625l.906-.469.875-.094 1.188.375-1-.812-.875.281.062-.281-.344-.906 1.062-1.782-.156-.906.344-.719-.906.094-.97-.281-1.187-.719-.906.094-.875-.625-1.264-.041v66.593h-7.625v19.657h23.187v97.218l-15.906 19.5 5.813 31.125 10.093-1.312v27.844l.782.625.718.906 1.813 1.437-.531 1.344-.094 1.813.187-.344.813.531-.375-1.812h.906l.094-.907.969-.25 1.718.438v.281l.688.75c.01.012.02.022.03.031a.19.19 0 0 0 .063.031h.03a.157.157 0 0 0 .062 0 .164.164 0 0 0 .03-.03.183.183 0 0 0 .065-.063l.027-.031c0-.01.126-.74.125-.75l.687.125c.01.011.77.897.782.906l.562.375.064.062c.027.019.06.03.094.031h.061a.171.171 0 0 0 .092-.062.199.199 0 0 0 .031-.031.18.18 0 0 0 .03-.063v-.062c-.01-.023-.016-.044-.03-.063l-.156-.312-.219-.75.719-.281a.167.167 0 0 0 .061-.032.164.164 0 0 0 .031-.03.183.183 0 0 0 .029-.094v-.094c-.01-.012-.018-.022-.029-.031a.254.254 0 0 0-.031-.032l-.875-.812-.781-.813v-.03l-.031-.032-.219-.781.406-.813.157-.218.843-.25h.031a.164.164 0 0 0 .06-.094.164.164 0 0 0 .031-.031l.157-.907.156-.78.812-.438a.189.189 0 0 0 .064-.032l.782-.656h.029l.625-.094a.18.18 0 0 0 .093-.062c.012-.009.02-.02.029-.031a.184.184 0 0 0 .03-.063v-.093a.254.254 0 0 0-.03-.032c-.01-.022-.015-.043-.03-.062l-.937-.813v-.687l.406-.063h.03a.164.164 0 0 0 .03-.03.183.183 0 0 0 .064-.063l.532-.844v-.031l.812-.375c.012-.01.018-.02.027-.031a.199.199 0 0 0 .031-.032.164.164 0 0 0 .031-.03v-.032l.219-.75.75.156h.03a.162.162 0 0 0 .063 0c.01-.009.022-.017.03-.029a.17.17 0 0 0 .032-.031l.218-.219.062-.031.843-.313a.17.17 0 0 0 .031-.03.17.17 0 0 0 .031-.032.18.18 0 0 0 .03-.063v-.093l-.126-.657c2.404.464 3.54.537 6.063.063h.122a.177.177 0 0 0 .063-.031l.906-.531a.17.17 0 0 0 .03-.032c.013-.009.02-.02.03-.03a.184.184 0 0 0 .03-.063l.25-.875c.002-.01.002-.021 0-.032l.126-.906v-.03c-.01-.022-.017-.043-.031-.062v-.03c-.011-.002-.02-.002-.03 0l-.624-.907a.254.254 0 0 0-.031-.031.254.254 0 0 0-.031-.031h-.031l-.875-.375a.157.157 0 0 0-.061 0h-.093l-.781.312-.813-.719a.181.181 0 0 0-.062-.03l-.25-.095.469-.375.531.844c.01.012.02.022.031.031.028.019.06.03.094.032h.031a.157.157 0 0 0 .061 0h.031a.166.166 0 0 0 .031-.032.166.166 0 0 0 .031-.03.203.203 0 0 0 .031-.032v-.843l.656-.094.657.78a.21.21 0 0 0 .063.063h.03l.188.063h.027l.031.031.844.687c.01.012.02.023.03.032h.032a.162.162 0 0 0 .062 0h.062c.012-.01.018-.02.027-.032l.75-.53.343.468v.031l.438.875c.01.012.02.022.031.031.01.012.02.023.031.032.01.011.02.022.031.03.01.002.021.002.031 0a.162.162 0 0 0 .062 0h.906l.906.345a.188.188 0 0 0 .062.03h.906l.843-.093.844.688h.031l.688.375h.03l.876.437c.028.019.06.03.094.031h.03a.177.177 0 0 0 .062-.031l.78-.406.813.656.907.656c.027.019.064.03.098.031a.157.157 0 0 0 .06 0l.876-.187a.168.168 0 0 0 .06-.031l.876-.531h.03l.938-.25a.181.181 0 0 0 .093-.063l.25-.312-.03.125-.438.875v.155c.01.012.02.023.03.032a.196.196 0 0 0 .063.062c.028.019.06.03.094.032h.03a.166.166 0 0 0 .032-.032l.843-.375.344.75c.01.012.016.023.027.032.01.011.02.02.031.029l.531.437c.01.012.02.023.031.032h.031a.187.187 0 0 0 .094 0l.924-.159a.171.171 0 0 0 .062-.03.154.154 0 0 0 .031-.03.188.188 0 0 0 .06-.094l.156-.906.125-.813.532-.28.156.75c.01.022.015.043.029.062.01.011.02.022.031.03a.208.208 0 0 0 .062.03h.031l.813.156.656.813-.748.594v.03l-.813.907-.531.531a.17.17 0 0 0-.062.063v.094l.188.843v.063l-.157.625-.687-.219h-.031a.208.208 0 0 0-.061 0h-.031l-.907.281a.203.203 0 0 0-.03.032l-.907.53a.166.166 0 0 0-.03.032c-.013.009-.02.02-.03.031v.063l-.187.875a.184.184 0 0 0-.031.062l.125.906v.062c.01.012.02.023.03.032a.183.183 0 0 0 .062.063.187.187 0 0 0 .125 0l.531-.157-.219.532v.03l-.345.938v.031l-.594.844-.031.031-.719.875v.032l-.438.875-.028.03-.657.376a.184.184 0 0 0-.062.094.183.183 0 0 0-.029.093c.01.012.018.022.03.031l.25.907c.01.011.02.022.03.03.01.012.02.023.031.032.01.012.018.022.03.031l1 .625.874.531.031.032.875.593v.032l.875.53h.031l.375.813c.01.012.02.023.031.032a.185.185 0 0 0 .062.062l.875.531h.031l.407.157.06.03.844.782c.01.012.02.022.031.031h.031c.01.012.02.023.031.031a.18.18 0 0 0 .062-.03l.813-.157.844.5.906.625c.01.012.02.022.03.031l.844.25.062.031.906.657.03.03.782.876.062.062v-.125l.154.282v-.344l.908.906 1 .25h1l.875.469.907.156.625.906.28.907.438.343.907.282.906.625.344.091 1.093.72 1.813-.188 1.594-.72.718-.968.563-1.812.875-1.157 1.094-2.968-.19-.907.375-1.906.908-2.25-.562-1.781-.096-.906.281-.907-.094-.906-.437-.875.094-1 .343-.906.47-.531-.376-1.907.906-.875.907-.187-.907-.719-.812-.281.812-1.875.907-.281-.094-1 .625-1.782.281-1.906.875-.812.375-.625h.531l-.187-3.688-6.969-2.094-.156-11.875-.813-1.5.75-1.968.062-17.844 7.125-10.875v-25.781h-30.187v-53.674h30.187V351.163l17.75-14.657-2.718-5.156-1.875-1.312.375-2 1.78-6.47-19.5-3-3.29-1.27Z"/><path fill="#3e73c5" fill-opacity=".429" stroke="#000" stroke-opacity=".247" stroke-linecap="round" stroke-linejoin="round" d="m1384.615 599.04.812.562.875.093h.938l.937.094.469-.625.813.75-.344.906-1.688 1.063h-.968l-.782-.438-.781-.718-.344-.844.062-.844ZM1384.052 599.945l.219.625.188.438.718.562-.625.25-.718-.312-.657.219.219-.844v-.656ZM1412.708 611.133l.844.156.938-.093-.719.937v.531l.938.563-.938.062-1.656-.406.094-1.031.5-.719ZM1373.553 618.57l-.282.625.282-.531v-.094ZM1440.615 597.351l-.219.344.25.062-.03-.406ZM1387.957 697.382a.18.18 0 0 0-.092.032.234.234 0 0 0-.031.03c-.869.628-1.678.675-2.563.626-.883-.05-1.815-.211-2.843-.031-1.54.174-3.093.127-4.563.5v.125l-4.593 2.062-2.407.625v154.5h69.532v-122h-1.782l-.906-.531-1-.094-.906.719-1.782-1.438-.718-.375v-.125c-.391-.047-.807-.024-1.813-.312h-.03l-.782-.531v-.032l-.438-.875a.229.229 0 0 0-.03-.03l-.626-.97a.195.195 0 0 0-.062-.062.229.229 0 0 0-.03-.031l-.563-.219-.625-.781h.03l-.53-.875-.062-.782.5-.843a.234.234 0 0 0 .03-.031l.063-.282a.183.183 0 0 0 .03-.062l-.093-.906v-.032h-.031c-.413-1.111-.642-1.552-.938-2.093a.234.234 0 0 0 .031-.032h.031a.234.234 0 0 0 .031-.03.234.234 0 0 0 .031-.032v-.031a.2.2 0 0 0 .03-.03v-.064c-.01-.023-.016-.043-.03-.06l-.03-.032-.407-.875a.223.223 0 0 0-.031-.03l-.907-.907a.223.223 0 0 0-.03-.031l-.875-.72-.282-.53.688.062h.062c.023-.01.044-.017.062-.031.012-.01.02-.02.029-.031a.183.183 0 0 0 .03-.063l.282-.906v-.062a.174.174 0 0 0-.031-.094.189.189 0 0 0-.093-.062l-.719-.282h-.122l-.907.375h-.031a.228.228 0 0 0-.031.031.228.228 0 0 0-.031.032l-.563.812H1422.648c-.023.01-.043.017-.061.031l-.814.407h-.97c-.022.01-.042.017-.06.03h-.094l.187-.5.907-.812a.183.183 0 0 0 .03-.062.179.179 0 0 0 .03-.063l.062-.875v-.03l.187-.876v-.062l-.094-.97a.18.18 0 0 0 0-.03l-.187-.907v-.03c-.01-.024-.017-.043-.031-.061l-.782-.813v-.031l-.03-.031-.22-.844a.229.229 0 0 0-.03-.031c-.01-.012-.018-.022-.03-.031-.01-.011-.02-.023-.03-.032a.189.189 0 0 0-.062-.03h-.031l-.875-.095h-.062c-.023.01-.043.018-.062.032a.177.177 0 0 0-.062.062c-.487.76-.506 1.489-.625 2.219-.116.703-.347 1.432-1.094 2.344l-.75-.25h-.124l-.906.28-.875.282-.469.125.313-.594.406-.78h.812a.234.234 0 0 0 .031-.032h.031l.875-.438c.023-.01.044-.015.062-.029a.188.188 0 0 0 .029-.064.173.173 0 0 0 .031-.06l.156-.876v-.064l-.06-.907a.212.212 0 0 0-.032-.029v-.062l-.125-.188.219-.812.281-.969v-.031l.344-.844v-.031l.5-.813.969-.812a.314.314 0 0 0 .03-.031.234.234 0 0 0 .032-.032v-.03a.2.2 0 0 0 .029-.03.18.18 0 0 0-.03-.096l-.343-.968v-.03l-.156-.719.781-.5h.029a.314.314 0 0 0 .031-.03.192.192 0 0 0 .031-.063v-.123l-.438-.844-.094-.906c-.01-.023-.016-.045-.03-.063l-.438-.906c-.01-.011-.02-.022-.031-.031a.189.189 0 0 0-.093-.062h-.092c-.023.01-.044.017-.062.03a.234.234 0 0 0-.031.032l-.344.344a.234.234 0 0 0-.03.03.192.192 0 0 0-.032.063v.092l.25.844-.312.781-.844.5a.304.304 0 0 0-.031.031v.031l-.656.907a.192.192 0 0 0-.031.062l-.157.844-.468.812-.875.563h-.03l-1.78.875c-.013.01-.023.018-.032.03l-.875.624c-.023.01-.045.017-.064.031l-.53.625c-.013.01-.02.02-.03.032l-.531.875v.03l-.656.845-.031.03-.969.782a.195.195 0 0 0-.062.063v.03l-.281.907v.091c.01.013.02.023.03.032v.031a.184.184 0 0 0 .092.062l-.687.313-.531-.781c-.01-.012-.018-.022-.03-.031l-.843-.75-.281-.625.5.156a.184.184 0 0 0 .06.031.176.176 0 0 0 .095-.031.183.183 0 0 0 .062-.094.184.184 0 0 0 .03-.093.229.229 0 0 0-.03-.032l-.188-.875v-.062l-.437-.906-.188-.844v-.031l-.094-.188v-.031l-.03-.031-.876-.875-.03-.03-.657-.78v-.032l-.094-.875v-.031a.229.229 0 0 0-.03-.031.229.229 0 0 0-.032-.032l-.906-.906c-.01-.01-.018-.022-.03-.031l-.905-.438a.229.229 0 0 0-.031-.03l-.844-.282-.781-.813.593-.687h.157a.176.176 0 0 0 .094-.031.185.185 0 0 0 .062-.063c.012-.01.02-.02.029-.03v-.092l-.061-.907a.229.229 0 0 0-.031-.031.18.18 0 0 0 0-.031.229.229 0 0 0-.031-.031c-.01-.011-.02-.023-.031-.032l-.907-.53a.229.229 0 0 0-.03-.032h-.812l-.062-.75v-.03c-.01-.01-.02-.022-.03-.03a.229.229 0 0 0-.032-.032l-.875-.906a.229.229 0 0 0-.03-.031h-.032l-.03-.031h-.092c-.024.01-.046.017-.065.03-.608.442-1.072.6-1.435.594-.364-.01-.648-.182-.969-.406-.641-.448-1.336-1.18-2.531-1.125h-.031a.234.234 0 0 0-.031.031l-.875.438h-.031l-.719-.094-.875-.781h-.03l-1-.625a.229.229 0 0 0-.032-.031l-.875-.438-.906-.437c-.01-.011-.02-.022-.031-.031l-.875-.344h-.031c-.01-.011-.018-.022-.03-.031l-.011-.01Zm28.096 21.72h.937l.907.687.937.343.844-.312v.875l-.907-.25-.968.312-.875.75-.438-.343-.906.187-.875.125-.969-.094-.843-.718.468-.844.844-.281.969-.125.875-.313Z"/><path fill="#3e73c5" fill-opacity=".429" stroke="#000" stroke-opacity=".247" stroke-linecap="round" stroke-linejoin="round" d="m1409.584 715.101.469.094-.094.344-.375-.438Z"/><path fill="#8cce55" stroke="#0f380f" stroke-opacity=".145" stroke-linecap="round" stroke-linejoin="round" d="M1404.126 271.36a2.024 2.024 0 0 1 0 0ZM1436.47 320.455l-.188 1.875.625 1.187.187 1.781-.187.907-.438.906v1.781l-.468.625-.875.656.343 1.875-.343.907-.563.437-.531.094-1.906-.531-.875-.625-.907.718.719.907-.438.875-.906.562-1.625 1.438-.187 1.78.906.657.625.875-.625 1.813v.625l.188.375.875.062.906-.531.375-.906.906-.438 1.625.281v-.906l-1.813-1.25-1-.375-.718-.906.469-.906.875-.344.906.187.719.97.906-.25 1.781-1 .906-.188.907.28 1.812 1.157 1.875 1 1.813.813.875.187.375-1.812.53-.907.72-.906 1.28-1.156.907-.531.875-.282 2.188.47 1.78-.813.907-.657.875-.156 1-.625-.875.063-.281.187v.188l-.625-.188-.375-.906.187-.875-1-.563v-.968l1-1.813v-.906l-.812.906-1.781 1.531-1.813-.28-.563-.876-.874-.094-1 .157-.907-.72-.906-.343-1.875-1.437-1.438-1.344-2.25-2.813-.906-.718-.906-.25h-.969 0ZM1367.188 363.548l-.657-.531-.156.25.625.812.188.907.156.093.281.907-.437.437.781.188.656.906-.75.719-.344-1-.906.437-.906.188-.906-.094.281.906 1.187.375.438.875-.188 1.813.907.625-.438.187.531.906-.906.532.438.906-.875.187-.188.344-.437.906.437.907-.906-.282 1 1.813.906-.094-.812.25-.094.906-.907-.437.907.719.094.906h.625l.625-.906.906.187.812-.906.907-.375-.625.812.875.625.562-.53-.374-1.157.375-.469.25 1 .812-.187-.719-.906.907-.344.437.094.906-.625.282.875.875-.063.468.438.282-.188.062-.906.562-.875.875.531 1.813-.281.28-.188.626-.875-.094-1 .437-.53.625-1.813h-.531l-.344-.907v-.968l.344-1.813-.281-1.875-.625-1.469-1.438-2.406-1.437-1.812-1.344-2.781-.987 1.305-4.893-.038-1.838 2.95ZM1432.938 342.86l-.344.876.157.906 1.812-.437v.906l-.813.969-.874-.625-.47 1-.437-.47-.531-1.78-1-.188-.188.813v1l-.53.906-.907.156-.625.719.344 1 .375.375-.094 1.062-.907 1.625.907.094.25.531.125 1-.375 1.25-.282.282-.53 1.968-1.25 1.97-.47 1.093-.094 1-.812.875-.969.375-.812.531-.532 1.281-.718.875-.907.813-.906.625-3.594 1.281-.812.906-.906-.187-.094-1-.813-.906.907-.344.906-.719.375-.906-1 .187-1.813.97c.715 4.454-1.887 4.197-3.5 6.937l.344.906v.906l-1.781.625h-.907l-.343.344-.907-.531.25-.907-1.78.47-2.345.25-.625.374-1.812.25h-1.781l-1.438-.344-1.812.532-.625.906-.907.531-2.53 2.25-1.063.563-.907.812-.906.344h-.906l-.906.719-.062.906.343 1 .282-.375.906.281.875-.469.906.188.906-.281 1.782 1.093.281-1 .094-1.156.625-.531.813.719h.718l1.813-.907h.281l-.125.344.188.188.375-.72.906-.28.625.093 1.781-.25 1.531-1.093 1.625-.344 1.907.781.812-.25.875-.094.188.72-.813.905-.906.438.469.719-.375.906.375.906 1 .531.343.907.907.28.875-.093 1-1.812.906-.72.187-.905.907-.344 1.78-.625-.718-.906-.906-.47-.094-.343.906-1.812.812-.344-.343.906.625.969.094-.969 1.344 1.156-.907.625 2.438-.53 2.344.25.875-.626.562-.969.813-.906.875.719-.063.906.72.875.718-.875.188-1.625.687-.906 1-.094.906.625-.094-.875 1-1.531h.875l-.25.969-.719.906-.187 1.812 2.719-1.28.343-1.876.907-.719 1-.375c-2.273-1.887-1.373-5.258.437-6.906l.375-1.812-.125-1.813-.437-.875.187-1.625.625-1 1.188-.187.78.562-.155-.906.625-2.719.53-.062.72-1v-.907l.562-.906-.375-2.687-.625-1.625-.625-.907-.906-.625-.281-.906-.094-2.406-.438-.906-1-.719h-.906 0Z"/><path fill="#8cce55" stroke="#0f380f" stroke-opacity=".145" stroke-linecap="round" stroke-linejoin="round" d="m1386.782 383.36-1.781.157-.563.906-.875.282-.906 1.062-.188.094-.625-.344-.281.875-.094-.156-.906.344.656.906.875.531.375.906-.906-.093-.188-.907-.344.907.72.906.718-.375.906.094.094-1.063-.469-.906 1.094-.094.344.813.812.906-.718.906.906-.094-.188.813-1.156 1.687-.812.907.718 1.812-.094.906-.437.875 1.875.563-.344-1.813.25-.718.906-.094-.906.531.719.907.187.906-.562.906.906-.187.906-.72-.156-.905.531-.25.907.437.156-1 .375-.719v-.968l.344-1.375.812-1.782-.062-.375.875-.812.469-.875.094-.906-.469-.907-1.781-.093.875-.72v-1l-.906-.25-.875.438-.532-.187h-.03l-.876-.813-.187-.437v-.531l-.188.187h0ZM1421.876 360.048l-.875.875v1.813l.968-.625-.343-.906.25-1v-.157ZM1376.344 377.767l-.906.625.813.469.375-.906-.282-.188ZM1372.563 378.142v.969h.906l-.531-.906-.375-.063ZM1379.876 379.298l-.563.907.375.968.344-1.875h-.156ZM1405.688 379.83l-.906.718-.719.907.094.187.906.094.188-.906.437-.72v-.28h0ZM1365.188 380.205l-.375.906.906-.719-.531-.187ZM1401.282 381.11l-.906.157-.907.563-.343.968-1.907.563-.906-.906-.875.437-.375.625-.188.906-1.624 1.188-.97.437.907-.28.875.812-.062 1.812.688.188.906.78 2.906-3.5.875-.437.906.188.907.625.906-.281.906-1.157.969-.718.187-.907-.281-.906.188-.531-1 .094-.876-.657-.906-.062h0ZM1393.72 383.267l-.907.344.906-.188v-.156ZM1367.72 385.236l-1 .187-1.782.72.344.905 1.781-.28 1-.532-.25-.906-.094-.094h0ZM1378.25 387.767v.875l.157-.875h-.156ZM1377.157 389.36l-.906.282v.531l.906-.812Z"/><path fill="#8cce55" stroke="#0f380f" stroke-opacity=".145" stroke-linecap="round" stroke-linejoin="round" d="m1384.532 390.548-.969.344v.375l.969-.719ZM1383.376 390.736l-.907.25v1.281l.813-.656.094-.875h0ZM1387.25 399.267l-.374.906.093 1 .438-1v-.906h-.156 0ZM1384.907 401.267l-.469.813.906.062-.437-.875h0ZM1381.032 410.986l-1.344.719-.906.812.906.25.813-.906.53-.875ZM1374.626 419.423l-.875.625-.907.094-.187.906-1.094 1.813.094.25.906-1.781 1.813-1 .25-.907h0ZM1356 430.58l-.874.656.687.344.188-1ZM1403.22 509.61a2.245 2.245 0 0 0-2.25 2.25c0 1.243 1 2.25 2.25 2.25a2.254 2.254 0 0 0 2.25-2.25 2.254 2.254 0 0 0-2.25-2.25ZM1393.063 518.36a2.253 2.253 0 0 0-2.25 2.25 2.253 2.253 0 0 0 2.25 2.25c1.25 0 2.25-1.007 2.25-2.25 0-1.242-1-2.25-2.25-2.25ZM1392.438 523.673a2.253 2.253 0 0 0-2.25 2.25 2.253 2.253 0 0 0 2.25 2.25c1.25 0 2.25-1.007 2.25-2.25 0-1.242-1-2.25-2.25-2.25ZM1390.407 529.61a2.245 2.245 0 0 0-2.25 2.25c0 1.243 1 2.25 2.25 2.25a2.253 2.253 0 0 0 2.25-2.25 2.253 2.253 0 0 0-2.25-2.25ZM1394.782 531.642a2.245 2.245 0 0 0-2.25 2.25c0 1.243 1 2.25 2.25 2.25a2.253 2.253 0 0 0 2.25-2.25 2.253 2.253 0 0 0-2.25-2.25ZM1375.813 534.517l-1.25 1.094-.281.906.187.906.625-.093.907-.719.343-.906v-.469l-.531-.719h0ZM1372.75 536.767l-1.437 1.813-.438 1.812-.468.875.531.906.375 1-.281.907.719 1.78v.907l-.094.719 2 2.719.906.156-1.188-1.781-.718-1.813.187-.719-.094-.906.906-.437 3.594.906-.906-.469-.094-.969-.875-.187-.906-.469.437-.969.906-.375.625-.906.188-.969-.906-.812-.907.437-.906.72v.905l-.906.438-.25.906-.906-.094v-.875l.906-.562.437-.969.094-.906-.53-2.719h0ZM1386.344 546.86l-1.906.345-.875.468 1.781.532.907.625-.375-.907.906.282h1.812l-.718-.907-1.532-.437h0ZM1369.25 548.017l.532.906-.094-.906h-.438 0ZM1371.032 548.205l-.969.468.625 1.875 1.781-.437-.906-.094.094-.906-.625-.906h0ZM1394.438 548.392l-1.438.188-.906.53-.906.813-.875.282h-.906l-.906.343-.282 1.344-.906.719-.156.906.906.375.875-.281.906.094 1.969.906-.344.969.532.906.906.531 1.781.375h1.469l.25-.187.906-.188h1.813l.718-.156.969.156v.906l-.875.094v.813l-1.813-.375-.906-.438-.906.531-.719.907-.718.28-1.875-.562-.907.375.188.907h.906l.875.53.625 1 .813.72.375.906-.532.875.344.906 1.813.281 1-.906v-.906l.875-1.625-.063.656.438.875 1 .469.156.437.907-.343.53.875.907.093.906-.343.907.187-.907.063.188.906.437.469 1.907.875.874-.063 1.532.25h.906l.906.531.907.282 1.874 1 .563.187h.969l1.906.781 1.781 1.282.907.156v1.375l.187.156 1.25-.25-.719.719h.907l-.438.719.781 1.968.907.813.53.906 1.813.906-1.531-.562-.906.75.906.625.906.25.907-.25-.47.437-.968-.187-.906.187 1.593 1.625-1.062 2.782.906-.094.907-.813.812 1 .875-.343 1.813-.282.624-.812-.625.906v.531l1.72 1.344 2.062 2.344.812.469-.125-9.938-.812-1.5.75-1.969.062-16.812-1.156.156-.625-.906-3.313-.375-3.625-1.594-.875-.281-.906-.719-2.781-.906-.907-.531h-.468l-.875.25-1.813 1-.094.906-.344.719-1.812.625-.907-.282-.906.813-.437.906-.907.531-.53.813-.188.656-1.688 1.594-.906.281-1.625-.281-.813-.875-.53-.906-.188-.907-.907-.906-.25.906-.28-.906-.72-.906-.343-2.781.687-1.782-1.062-1.812v-.906l-1.25-.344-.907.156-.906-.156-1-.813-.875-.468-1.812-.438h0ZM1408.938 550.205l-1 .156 1 .281v-.437Z"/><path fill="#8cce55" stroke="#0f380f" stroke-opacity=".145" stroke-linecap="round" stroke-linejoin="round" d="m1409.188 550.267.281 1.813 1.782.28-.344-.905-.906-.907-.813-.28ZM1386.344 550.36l-1.812.626h.906l.906-.625h0ZM1386.626 550.923l-.813.875.438.907h.906l.25-.907-.781-.875ZM1404.876 551.173l.437.907-.156-.907h-.281ZM1371.563 552.986l-.875.437-.281.375.281.875h1.781l1-.718-1.906-.97ZM1406.22 553.61v.282l.906-.187-.907-.094h0ZM1408.032 554.236l.906.437 2.688.813.906.094 1.875-.438-.906-.281-2.782-.438-2.687-.187h0ZM1357.188 554.33l-.563.093-.437 1 .906.719.907-.375 2.78-.187-.812-.97-.906.063-1.875-.343h0ZM1383.563 554.86l-1.094.095-.906.812 1.813.531.875-.25.187-.906-.875-.281h0ZM1361.22 555.048v.438l.906.187 1.812-.093.875-.438-3.594-.094h0ZM1363.75 555.955l-.437.53.875 1.813.094-.28-.437-1.157-.094-.906h0ZM1380.126 559.736l-1.813.719-.875-.47-1.813-.093-.906.188-.968.375-.907.812.094 1.781.532-.906.187-.875.906.531.625 1 .875-.093.907-.813.906.438 1.875.28.906-.468.906.094.907.656 2.062.781.906.75.907.157v-1.782l-.907-.562-.281-.875-.906-.656-1.781-.063-.47-.281-1.874-.625h0ZM1367.063 560.986l-2.781.187-.25.907.531.968.906.72 1.594.812 1-.25.906-.47.719-.968-1.719-1.719-.906-.187Z"/><path fill="#8cce55" stroke="#0f380f" stroke-opacity=".145" stroke-linecap="round" stroke-linejoin="round" d="m1374.282 563.142-.906.281v.625h.906v-.906ZM1397.844 565.86v.25l1 .282-1-.531ZM1397.126 571.86l-.72.907-.812 1.813 1.282-1.813.25-.906h0ZM1403.344 571.955l-.437.906-.906.375.53.875-.28.906.906.906.906.282.375-.907-.281-.718.281-.907-.188-.906-.906-.812h0ZM1394.688 573.142l.75.906-.281-.906h-.469ZM1402 574.767l-.437.531.875.344-.438-.875ZM1401.563 575.392l-.281 2.594.625.906.906-.719.438-.906-1.688-1.875ZM1403.063 575.923l-.344.532.907.375-.563-.907ZM1390.126 579.798l-1.813 1.719-.813 1.781.907.375 1.719-1.718.343-1.813-.343-.344ZM1390.563 579.798v.282l.906-.094-.906-.188h0ZM1422.782 580.955l-.625.093-1.813.563-.906.875-.438.625-1.156 2.718 3.688-.093 1.062-.813.719-.531.281-.906.625-.906-.531-.907-.906-.718h0Z"/><path fill="#8cce55" stroke="#0f380f" stroke-opacity=".145" stroke-linecap="round" stroke-linejoin="round" d="m1422.594 584.923.282.907.906-.188-.469-.906-.719.187ZM1366.626 581.955l-.907.437-.968.281-.907-.343-.812.875-.094.812.906-.531 1.781.187 1-.625.906-.281-.906-.812h0ZM1380.75 583.048l-.187.532.906.437.188-.906-.906-.063h0ZM1372.313 584.392v.438l.875-.25-.875-.188ZM1387.97 584.58l-1.282.062-.719.906 2-.968ZM1440.032 596.767l.03.031h.532v-.031h-.563 0ZM1440.407 597.673v.031l.25.063v-.031l-.25-.063ZM1393.25 598.83l.657.78c0 .007.027-.005.03 0l-.656-.78h-.03 0ZM1391.72 598.955v.03l.53.813c.01.006.026-.005.032 0l-.532-.844h-.03 0ZM1396.063 599.923l.344.469v.031l.437.875c0 .006.026-.005.031 0l-.437-.875v-.031l-.344-.469h-.031ZM1409.094 602.798l-.03.063-.438.875v.155c.01.007.026-.004.03 0v-.155l.438-.875v-.063h0ZM1409.72 603.61l.343.75c.01.007.026-.004.031 0l-.344-.75h-.03 0ZM1373.563 618.58l-.281.625.281-.532v-.093h0ZM1419.532 624.08l-.125.125.125.218v-.343ZM1402.313 703.08v.03c.01.006.026-.004.031 0a.18.18 0 0 0 0-.03c-.01-.006-.026.005-.031 0ZM1402.344 703.142l.062.906v.093c.01-.004.027.006.031 0v-.03a.18.18 0 0 0 0-.032v-.03l-.062-.907c-.01-.006-.026.005-.031 0ZM1418.875 703.173l.438.906a.214.214 0 0 1 .03.063l.095.906.437.844v.125c-.01.023-.017.044-.03.062.01-.005.026.005.03 0a.192.192 0 0 0 .031-.062v-.125l-.437-.844-.094-.906c-.01-.023-.017-.045-.031-.063l-.438-.906c0-.005-.026.005-.03 0ZM1402.063 704.267l-.594.688.782.812h.03l-.78-.812.593-.688h-.031 0ZM1419 706.61l.157.72v.03l.344.97c.019.028.029.06.03.093.01-.005.028.005.032 0a.175.175 0 0 0-.032-.093l-.343-.97v-.03l-.157-.72h-.03ZM1405.032 707.517v.031l.094.875.03.032v-.032l-.093-.875v-.03c-.01-.007-.026.004-.031 0ZM1419.5 708.455v.03c.01-.004.027.006.032 0v-.03c-.01.005-.026-.005-.031 0ZM1418.47 709.36l-.5.813v.032l-.344.843v.032l-.282.968-.218.813.125.187v.032c.01.005.025-.005.03 0v-.032l-.124-.187.218-.813.282-.968v-.032l.343-.843v-.032l.5-.812h-.03ZM1406.72 710.173l.03.032v-.032c-.01-.005-.026.005-.03 0ZM1406.813 710.392l.188.844.03.031-.187-.844v-.03h-.03 0ZM1420.688 712.08l.219.843.031.032-.219-.844a.229.229 0 0 0-.03-.031ZM1407.438 712.142v.063l.188.875c.012.01.022.02.03.03l-.187-.874v-.063l-.03-.03h0ZM1407.657 713.11a.167.167 0 0 1-.031.095c-.01.023-.017.044-.031.062a.229.229 0 0 1-.031.031.184.184 0 0 1-.094.032c.012.007.018.027.031.03a.176.176 0 0 0 .094-.03.183.183 0 0 0 .062-.094.184.184 0 0 0 .031-.094.229.229 0 0 0-.031-.031ZM1420.938 712.986l.031.031v-.031h-.03ZM1417.282 713.11l.063.907v.094l-.156.875c-.01.023-.017.013-.031.031-.01.023-.017.074-.031.094.01-.004.024.006.03 0a.183.183 0 0 0 .032-.063.183.183 0 0 0 .03-.062l.157-.875v-.063l-.062-.906a.229.229 0 0 0-.031-.031h-.001ZM1417.126 715.11c-.02.015-.041-.005-.062 0l-.875.438h-.031a.229.229 0 0 1-.031.032H1415.314l-.406.78-.312.595h.062l.281-.563.406-.781h.812a.234.234 0 0 0 .032-.031h.03l.876-.438c.014-.006.019-.025.03-.031h0ZM1406.907 713.142l.031.031.5.157c-.013-.006-.021-.023-.031-.032l-.5-.156ZM1421.75 713.892l.188.906v.032l.094.968v.063l-.187.875v.031l-.063.875c-.01.023-.017.043-.031.063-.01.023-.017.044-.031.062l-.906.813-.188.5h.031l.188-.47.906-.812a.183.183 0 0 0 .03-.062.183.183 0 0 0 .032-.063l.062-.875v-.03l.187-.876v-.062l-.094-.97a.18.18 0 0 0 0-.03l-.187-.907v-.03c0-.006-.03.003-.031 0h0ZM1426 717.83v.03l-.28.907c-.01.023-.017.043-.031.063-.01.01-.02.022-.031.03a.21.21 0 0 1-.062.032h-.063l-.688-.062.031.03.688.063h.062c.023-.01.044-.017.062-.031a.183.183 0 0 0 .062-.094l.28-.906v-.062c0-.003-.03.003-.03 0h0ZM1427.438 722.017v.063c-.01.01-.02.022-.03.03v.032a.229.229 0 0 1-.032.031.229.229 0 0 1-.03.031h-.032c-.01.011-.02.023-.03.032.01.012.024.019.03.03a.234.234 0 0 0 .031-.03h.031a.234.234 0 0 0 .031-.032.234.234 0 0 0 .031-.03v-.032a.234.234 0 0 0 .031-.031v-.063c-.01-.013-.025-.019-.03-.03ZM1428.25 724.36l.095.907c-.01.023-.017.043-.031.063l-.062.28a.183.183 0 0 1-.031.032l-.5.844.062.781.03.031-.061-.78.5-.845a.234.234 0 0 0 .03-.03l.064-.282a.183.183 0 0 0 .03-.063l-.093-.906v-.031h-.032 0ZM1428.282 728.142l.03.031v-.03h-.03ZM1433.282 732.017v.094l.03.031v-.125h-.03 0ZM1425.813 445.61a2.253 2.253 0 0 0-2.25 2.25 2.253 2.253 0 0 0 2.25 2.25c1.25 0 2.25-1.007 2.25-2.25 0-1.242-1-2.25-2.25-2.25ZM1424.97 624.673l-.032.031.313.125-.281-.156h0ZM1422.875 98.173l-1.094.532-.437.906-.907-.625-.718.969-1.969.375-.906.437 1.25 1.906-1.875-.468-1 .656-.188.875 1 .187v.907l-.531 1 1 .625-2 .187.375.875.875 1 1.906.906.969.625.281.907 1 .53 2.875.626.907.469 1 .25.874-.188 1-.969-.187-.906.813-1 .906.188.718 1 .095.343 4.78-.906 1.97-.156 1.78-.563h1l1 .657-1 .25 1.813.718.97-.718 1.905.093 1.875-.187.563-.875h-.907l-1.906-.656h-1l-.875-.532-1.625-1.781-1.187-2.812 1-.094-1-.25h1l1-.563h1.875l.906.375-.438.907-1 .343-1 .813.563 1.281 1.875 1.781 1.906.532.97-.063 1.812.438 1.968-.532.907-.562.343-.969.907-.187-.97-.375-.093-.97 1.875-.718.906-.719c-2.645-.866-4.963-2.03-7.75-2.812l-2.688.562-1-.28-1.062-.095-.906-.718-1.907-1.063-1.78-.812h-1l.53.968-1.78-.343-1 .812v1.344l-.157.906.875.813-.875.343-1-.093-.906-.907-.282-.875-1.874-.093-.376-.375-.25-.907-3.78-1.53-.626-.876-.906-.094ZM1408.469 102.392l-.282.906.188.907-.438.968-.187.907.906.093.969-.187.469-.875.718-.906-.906-.907-.531-.906h-.906ZM1459.125 104.205l-.875.625-1.188 2.875 1 .437 1.876.469 1.906 1 .906.25.969.094 2.875 1.437 1.812.375 2.875.094h2.344l1.969-.813 1.812-.375.969-.531.281-1 .719-.906-.875-.094-1 .281-.906-.281-.907-.625-3.874-.531-.876.187-1 .438h-1l-1-.625.47-1-.907-.25-1 .093-2.938-.28-1 .812-.906.187-.906-.187-1-.532.375-.906-1-.719ZM1431.781 116.11c-2.19-.086-4.186 1.883-.906 3.563l1.719-.625.968-.187.282-1.875a3.111 3.111 0 0 0-2.063-.875ZM1407.563 116.517l.28.906.907.438 1.875 1.812.906-.28-.625-.876-.906-.812ZM1438 119.486l-1.813.187-1 .375-.874-.093-1 .343-.72.907-.53 1-.813.875-1 .656h-1.438l-1 .094.907.78 1-.437 1.968-.437 2 .344 2.876 1 4.937.437 1.875.375 1-.187.531-.907.188-.906-.532-.969-.906-.718-2.781-1.72-2.875-1ZM1470.938 92.955l-2 .25-.813.468-.344.438 1.438-.188h1.875l.718-.875-.874-.093h0ZM1330.292 231.85l3.168 1.99-.826 1.084.85 1.05.032 1.62 2.063 4.535-.899 2.742 1.01.8 1.54-.454.075 2.547-.898 1.32 1.328 1.09-.28 2.475 3.167-.258.638 1.62-1.723 1.306.971 1.12 2.272-1.148 2.89 1.246-.109 2.118 2.494-.502.15 3.888-1.189 1.54 2.342 2.261-2.416-.223-.686 2.705 2.55 3.883h.01l1.874-.282.906-.344h.907l.812.344.906.188.907.718.437-.093.906.812 1.72.625 1.155-.344.907.094 2.25 1.063 1.343 1.53v.907l.813.375.719.875.437 1-.25.094.875.719-.437.906.094.094 1.093 1.78.969 1.813-.187.282.187 1.25.625 1.062.719.906.719 1.344-.25.906.25.907.562.28.094.032.438.219-.438.906v.375l.062.875 1.281 1.375.719.156.875.375h.906l.907-.281.437.094.563-.094.812.719.969.719.656-.157.969-.281.281.188.906.718.344.625h.094l.344.625 1.375 1.094h1.968l.188-.187.625-.375.906-.094.094-.063.157-.656.75-.875.875.063.468-1.157v-.718l-.656-1 .656-.25v-.907l-.906-.53.813-.907-.72-.906-.187-.438-.718-.375-.625.281-.094-.906-.47-.719-.874.094.25-.906.562-.531.969-2.25.906-.625h.907l.187-.72-.187-.374v-.094l-.188-.906h.906l1.25-.438 1.907-.28.625-.626.53-.906 1.345-.875.906.156.906-.156 1-.469-.187-.344-.72-.906v-.906l.626-.438 1.25.625 3.25.72 1 .25.344-.876.53-.719-.624-.906.187-.469.625-.968.563-1.532v-.906a4.911 4.911 0 0 0-.688-.656c.16.134.344.322.532.531l-.97-.812c-.03-.015-.063-.051-.093-.063h-.813c-.963.341-1.792 1.704-4.28.469l-.095.156-.906.094-.813.906-.437.281-.907.438-.906-.188-1.625.094-.875.094-.906.468-.906-.468-.907.093-.25-1.718-.562-1.782-.719-.187-1.78-.281-.907-.344h-.625l-.094-1 .906-1.25.875-.375h.906l.657-1.25.343-.906.907-.532.874-.28 1-.532.47-1 1.968-.438-.281-.812h.906l.563-.906 1.343-.157-1-.468-.468-.907-.876-.718-.906-.094-1.906.562-.875-.28-.625.28h-1.813l-.906-.468-.281-.907.375-1.875.188-.28.53-.876.188-.906.907-.375.062.375.906-.719.531.25.563-1.781-.375-.563-1.872-1.968-.907-.531.532-.469.187-.062 1.188.437.343-.437-.094-.72.907-.905.906-.375.437-.344-1.53-1.813-.907-1.625.906.094.906.531 1 .094-.468-.875.812-1v-1l.906.094.813-1.875v-.906l1.362.017.154-1.563 2.527-1.077.798.194 2.482.246 1.298.427 1.411-.504.236.65c.512-.206 1.108-.137 1.612-.327.48-.18.124.542.59.349l.54-1.235 1.158-.945.817-.525 1.184.823 1.584-.094h.019l1.24.392.9-.037 1.605-.342.671-.994.536-.047.431-1.389 1.888-.361.324.6.572.47.644-.788-.406-.676.31-1.112-.377-1.445.512-.555-.287-1.429.904-1.308-.94-.418-.392-.98.119-.597.748-.186-.376-.544 1.747-.545.381-1.046 1.292-.06.444-.751 1.956-.419.738-1.244 1.143-1.407.021-.258.136-.426.906-.135.022-.03.549-.79.047-1.634.384-1.046-.79-.462-.469-.906h-.531l-.907-.188-.625-.875-.468-1.53.375-.907-.188-.719.907-.719.906-.468.625-.532.906-.187 1.094-.719-.375-.906.187-.875.438-1-.188-1-1.875-.875-.625-.906 1.532-1-.72-.907-1-.812-1.812-1.063-.625-.906.375-.812 1.063-1.782.812-1h.188l1.343-.625-.718-.906.531-.469-.094-.875-.875-.718-.187-.907-2.012-1.131-1.87.339-1.51.463-1.285-.584-1.634.076-.75-.505-.656.12-4.248-.87-3.576.72-1.685 2.016-.977-.304-.54.544-1.45.583-.67-.516-.878.855-.231.808-1.252 1.734-.476-.466-3.008 1.61-1.738-.34-1.668.603-.368 1.935 1.36 1.826-2.143.784.406.919-.796.469-.625-.906-1 .093-.718-.625.187-1-.906-1.78-1.625-2.72-.906-.437.468-.531.094-.47-.28-.874-.907-.469-.344-.094-1.906-1.25a8.723 8.723 0 0 1-1.532-.687l-.25-.125-.062-.063c-.025-.016-.037-.045-.063-.062-.29-.2-.517-.397-.687-.594l-.625-.906-.188-.594c-.072-.155-.151-.332-.25-.5l-.562-.687 8.94-4.37 5.526-7.434.015-3.428-1.967-3.769-2.89-1 .625-.093.907-.625.812-.875 1-.469v-1.437l.813-.907.968-.718.907-.094-.188-.719-.875-.437-.125-.907-.875-.625.875-.812v-.906l-.344-.907-1.625-.343-.906-.188h-1.781l-.188-.906.282-.875-.188-.906v-.907l.375-1-.656-.906-.906-.344-.157.094h-.468l-.25.719-.72 1-.905.719-.907.343-.968-.812-.375-.906-.907.562-.968-.469-1.907-1.343-.906-.188-.437-.875-.907-.719-.718-.906-.532-1-.906-.719h-.906l.344-.906.906-.094.906-.343 1 .343-1-.718-.437-.907-.72-.875-.28.094.437.875.188.906-.875.469-.907-.281-.656-.906-.875-.813-1.187-1.875.094-.469 1.718.563.344.625 1.906.25 1-.156.875-.375h-.875l1.344-.907-.906-.343.531-.532-.094-.281-.969-.375-.281-.531-1.875.093-1-.187-.906-.438v-.187l1.812.187.782-1.25h1.28l-.187-.375-1.875-.375.344-.343.906.093 1-.187-.906-.438-2.813-.375.126-.187.687-.063 1-.375.906-.375-.187-.875-.907.438.282-.438-.094-.906-.907-.375-.968.188-.907-.188.344-.875h-.969l-.906-.656-.281-.438h-1.875l-1.531-.53-1 .093-.625.875-.907.469-.718.187-.188-.469-.875-.437.875.187-.156-.906-1 .156-1 .813.281-.875-.906.531-.969.344.344-.875-1-.281-.906.187-.062-1-3.875-1.156-.907.531-.968-.469-.188 1-.906.47-.531-.907-.907.344-.28.906.187.906-.188.906.719.97.375.905h-1l-.188 1-.437 1h-1l-.969-.656-1-.156-.812.437-.907.188-4.124-.094-1 .281h-.907l-1.875-.468-1.906-.188-1.531-.094-.532.188-.906-.625-1.875-.281-2.812-.969-.438-.906-.094-.907.906-.625.907.188h.968l-1.062-.906-.906-.188h-4.782l-4.75-.812-.906.093-1.875-.25h-2.906l-1.875.782-3.781.187-1.907.531-.062 1 .875.532h.907l-1.97.906h-.28l-.532-.969-.812-1 1.094-1.906-1.438-1.781-.906-.625h0l-.188 1.781c-1.919 1.025-5.913.579-7.469-.969l-.063.032-1.843.843.125.563.875.437-2.782 2.25h-1.625l.907.438 1 .281-.563.906 1.719.72.531 1-.719.874-.25.906-.375.375.188.97.969.28.937.625.969.47-.344.437-.187.906 1 .344h.875l.187.906.625.531.094.094.906.094.188 1.187.062 5.125.906.25.906.563.438.03.469.063.437.625-.531.875-.375.188-1.5.718-.75-.093-.969.469-1.906.53c-.37.271-.757.41-1.156.5-.4.092-.815.131-1.22.157-.198.012-.397.014-.593.031a6.04 6.04 0 0 0-.594.094c-.14.027-.27.081-.406.125-.08.026-.17.029-.25.062-.096.042-.189.102-.281.157-.053.03-.105.058-.156.093-.045.032-.08.09-.125.125-.037.03-.09.03-.125.063-.034.03-.062.062-.094.094-.054.054-.105.094-.156.156-.054.062-.105.117-.157.187-.034.048-.06.105-.094.157a3.746 3.746 0 0 0-.187.312c-.015.03-.016.063-.031.094-.073.147-.15.291-.22.469l.626.906-.906.375h-.532l-1.343.156-.532.281-.28.907-1 .156.374.906.375.563.25.343-.187.532-.157.468-.812.907h-1l-.906-.563-.875.094-1.907-.188-1.812 1.438-1.438.281-1.875.437-.906.47-.906.187-.906-.282-.688.094-1 .906.344.875 2.437 3.063.532 1v2.437l-.062 5.407-.375 4.03-.907.47-.968.062-2 1.625-1.813.281.906.625 1.344.375-.062.438.625.906.625 1.781-.906.813.375 1.812.781.344.469.906.094 2.532.906.343.25.563.906.156-.437 1-.906-.094-1 .72.094.468-.907.812-.968.625.25.813-.438.875-.812.562-.375.97.187.905 1-.093.906.812.907-.25.968-.093.375-.282 2.782 1.625 1-.093 1.78.718.626-.28 1-.157.906-.375.531.906.094.719.72 1v.875l-.907.187-.532-.093-.625 1 .97.625 1 .093 1.812.438.812.906v.188l.813.906.062 1.781.75.906-.656.907-.438 1.093-.281.875.906.375 1.906.094.344.906v.875l-.531.563-.094.25-.094.187-.094.188-.907.719h-.062v1.343l.438.282.531.718.094.875-.187.907.906.187.813.906.906-.093.437.906v.344l-.812.906-.094.906-.969.438.188.187-.47 1-1 1.781-.437 1 .094.188.188.531-.469.906-.719.97-.094.905-.25.188-.656.906v.906l1.094.157 1.25 1.812.469.188.53-.094.907.187.906-.375.875-.625-.094-.28h.031l.97-.626 1.812.531.625-.53 1.812.187.969-.375.531-.532.906-.906.282.906.531.375h.719l-.344.875-.094 1.625.813-.093-.188-.813 3.5-.875 1.531-2.625 2.875-1.875 1.281-1 .188-.906.875-.344 1.188-.812.624-.907.907-.375.906-.156.969.094.375.25 1.781.531h.906l.906.281.344.47.906.624.532.875 1.343.375-.968.281.531.875-.094.907-.25.562.906.875.875.094.625-.188.563.282.344.187.812-.906.813-.188 1.812 1.094ZM1299.688 113.83l-1.375 1.78-.969-.25-.906.438 1 .813.875.094 1.906.812 2.532.438.718-.97.969-.187.719-1 .469-.906-1-.531-1-.188-.875.094-3.063-.437h0ZM1317.22 115.548v.532l.906-.094-.907-.438h0ZM1357.094 119.33l-.906.156.813.719.093-.875h0ZM1371.313 122.923l-.906.157 1.906.28h.969l-.969-.343-1-.094h0Z"/><path fill="#8cce55" stroke="#0f380f" stroke-opacity=".145" stroke-linecap="round" stroke-linejoin="round" d="m1336.126 126.236-1.438.281.438.906h1l.906-.812-.906-.375Z"/></svg>